<svg width="1080" height="716" viewBox="0 0 1080 716" fill="none" xmlns="http://www.w3.org/2000/svg">
<g clip-path="url(#clip0_4190_24786)">
<rect width="1079.06" height="714.721" transform="translate(0.6875 0.679688)" fill="#0F2E15"/>
<g opacity="0.25" clip-path="url(#clip1_4190_24786)">
<g opacity="0.3">
<path d="M211.229 45.9791L268.471 17.0212L-41.9844 -130.462V-73.2196L211.229 45.9791Z" fill="#D9D9D9"/>
<path d="M41.5214 206.258L-15.7209 177.3L294.734 29.8174V87.0597L41.5214 206.258Z" fill="#D9D9D9"/>
<path d="M211.229 365.189L268.471 336.231L-41.9844 188.748V245.99L211.229 365.189Z" fill="#D9D9D9"/>
<path d="M41.5214 525.466L-15.7209 496.508L294.734 349.025V406.268L41.5214 525.466Z" fill="#D9D9D9"/>
<path d="M211.229 684.399L268.471 655.441L-41.9844 507.958V565.2L211.229 684.399Z" fill="#D9D9D9"/>
<path d="M41.5214 844.676L-15.7209 815.718L294.734 668.235V725.478L41.5214 844.676Z" fill="#D9D9D9"/>
<path d="M486.666 45.9791L543.908 17.0212L233.453 -130.462V-73.2196L486.666 45.9791Z" fill="#D9D9D9"/>
<path d="M316.959 206.258L259.717 177.3L570.172 29.8174V87.0597L316.959 206.258Z" fill="#D9D9D9"/>
<path d="M486.666 365.189L543.908 336.231L233.453 188.748V245.99L486.666 365.189Z" fill="#D9D9D9"/>
<path d="M316.959 525.466L259.717 496.508L570.172 349.025V406.268L316.959 525.466Z" fill="#D9D9D9"/>
<path d="M486.666 684.399L543.908 655.441L233.453 507.958V565.2L486.666 684.399Z" fill="#D9D9D9"/>
<path d="M316.959 844.676L259.717 815.718L570.172 668.235V725.478L316.959 844.676Z" fill="#D9D9D9"/>
<path d="M762.104 45.9791L819.346 17.0212L508.891 -130.462V-73.2196L762.104 45.9791Z" fill="#D9D9D9"/>
<path d="M592.396 206.258L535.154 177.3L845.609 29.8174V87.0597L592.396 206.258Z" fill="#D9D9D9"/>
<path d="M762.104 365.189L819.346 336.231L508.891 188.748V245.99L762.104 365.189Z" fill="#D9D9D9"/>
<path d="M592.396 525.466L535.154 496.508L845.609 349.025V406.268L592.396 525.466Z" fill="#D9D9D9"/>
<path d="M762.104 684.399L819.346 655.441L508.891 507.958V565.2L762.104 684.399Z" fill="#D9D9D9"/>
<path d="M592.396 844.676L535.154 815.718L845.609 668.235V725.478L592.396 844.676Z" fill="#D9D9D9"/>
<path d="M1037.54 45.9791L1094.78 17.0212L784.328 -130.462V-73.2196L1037.54 45.9791Z" fill="#D9D9D9"/>
<path d="M867.834 206.258L810.592 177.3L1121.05 29.8174V87.0597L867.834 206.258Z" fill="#D9D9D9"/>
<path d="M1037.54 365.189L1094.78 336.231L784.328 188.748V245.99L1037.54 365.189Z" fill="#D9D9D9"/>
<path d="M867.834 525.466L810.592 496.508L1121.05 349.025V406.268L867.834 525.466Z" fill="#D9D9D9"/>
<path d="M1037.54 684.399L1094.78 655.441L784.328 507.958V565.2L1037.54 684.399Z" fill="#D9D9D9"/>
<path d="M867.834 844.676L810.592 815.718L1121.05 668.235V725.478L867.834 844.676Z" fill="#D9D9D9"/>
</g>
</g>
<rect x="325.63" y="143.972" width="427.894" height="427.894" rx="213.947" fill="#0F2E15"/>
<rect x="325.63" y="143.972" width="427.894" height="427.894" rx="213.947" stroke="#24E669" stroke-width="13.803"/>
<g clip-path="url(#clip2_4190_24786)">
<path d="M465.238 259.015C465.238 259.015 463.409 253.732 458.608 248.796C463.638 249.694 468.21 254.075 468.21 254.075C468.21 254.075 469.045 252.359 469.045 249.391C469.045 236.01 453.007 226.855 440.594 229.108C437.347 244.982 447.864 258.444 465.238 259.015Z" fill="white"/>
<path d="M441.298 307.696C441.298 307.696 438.306 303.672 432.914 300.749C437.384 300.156 442.431 302.666 442.431 302.666C442.431 302.666 442.659 300.972 441.84 298.434C438.15 286.988 422.161 283.498 412.362 288.785C414.014 303.241 426.555 311.91 441.298 307.696Z" fill="white"/>
<path d="M499.166 227.367C499.166 227.367 499.147 221.988 496.267 216.87C500.225 218.721 502.709 223.967 502.709 223.967C502.709 223.967 503.777 222.742 504.43 220.304C507.376 209.31 498.551 198.813 487.798 197.915C481.62 210.237 482.353 223.121 499.166 227.367Z" fill="white"/>
<path d="M481.945 248.397C481.945 264.889 488.678 278.778 498.452 282.901C504.964 285.67 508.361 286.036 508.361 286.036C508.361 279.382 506.143 275.349 503.723 271.719C508.873 273.809 510.985 278.491 514.307 282.684L514.524 273.136C514.524 260.766 508.443 251.218 495.194 242.754C489.547 239.065 484.117 236.027 483.466 236.027C482.597 236.027 481.945 241.669 481.945 248.397Z" fill="white"/>
<path d="M443.078 274.844C443.078 274.844 454.155 295.894 463.277 301.97C471.964 307.829 488.073 308.338 492.634 303.781C492.634 303.781 492.386 300.971 487.391 297.933C483.502 295.602 480.736 293.295 480.736 293.295C487.794 293.295 494.448 297.933 494.448 297.933C492.634 290.875 484.996 279.401 478.046 276.146C469.793 272.24 443.078 274.844 443.078 274.844Z" fill="white"/>
<path d="M437.041 326.967C437.041 326.967 445.65 340.705 455.936 344.491C465.749 348.168 479.658 344.314 483.034 338.82C483.034 338.82 483.279 335.62 477.714 333.828C473.39 332.465 470.051 331.408 470.051 331.408C476.915 329.765 483.438 332.71 483.438 332.71C482.15 324.148 472.325 318.236 464.808 316.687C455.873 314.809 437.041 326.967 437.041 326.967Z" fill="white"/>
<path d="M621.574 263.451C621.574 263.451 623.403 258.169 628.204 253.233C623.175 254.13 618.602 258.512 618.602 258.512C618.602 258.512 617.767 256.795 617.767 253.828C617.767 240.446 633.806 231.292 646.218 233.545C649.465 249.418 638.949 262.881 621.574 263.451Z" fill="white"/>
<path d="M645.514 312.132C645.514 312.132 648.506 308.109 653.898 305.186C649.428 304.592 644.382 307.103 644.382 307.103C644.382 307.103 644.154 305.409 644.972 302.87C648.662 291.424 664.651 287.935 674.45 293.221C672.799 307.678 660.258 316.347 645.514 312.132Z" fill="white"/>
<path d="M587.647 231.805C587.647 231.805 587.665 226.426 590.546 221.307C586.587 223.158 584.104 228.405 584.104 228.405C584.104 228.405 583.035 227.179 582.382 224.741C579.436 213.747 588.261 203.25 599.015 202.352C605.192 214.675 604.46 227.558 587.647 231.805Z" fill="white"/>
<path d="M604.867 252.833C604.867 269.326 598.134 283.214 588.361 287.337C581.848 290.106 578.451 290.473 578.451 290.473C578.451 283.818 580.669 279.785 583.089 276.156C577.94 278.246 575.828 282.928 572.506 287.12L572.289 277.572C572.289 265.203 578.37 255.654 591.619 247.191C597.266 243.502 602.695 240.464 603.347 240.464C604.216 240.464 604.867 246.106 604.867 252.833Z" fill="white"/>
<path d="M643.734 279.28C643.734 279.28 632.658 300.33 623.536 306.406C614.848 312.266 598.74 312.775 594.179 308.218C594.179 308.218 594.426 305.408 599.422 302.37C603.31 300.039 606.076 297.732 606.076 297.732C599.018 297.732 592.364 302.37 592.364 302.37C594.179 295.312 601.817 283.837 608.767 280.582C617.02 276.676 643.734 279.28 643.734 279.28Z" fill="white"/>
<path d="M649.772 331.403C649.772 331.403 641.162 345.14 630.876 348.927C621.064 352.603 607.154 348.749 603.779 343.256C603.779 343.256 603.533 340.055 609.098 338.263C613.422 336.901 616.761 335.843 616.761 335.843C609.897 334.201 603.375 337.146 603.375 337.146C604.662 328.584 614.487 322.671 622.004 321.123C630.94 319.245 649.772 331.403 649.772 331.403Z" fill="white"/>
<path d="M542.299 360.074C525.88 358.934 512.881 347.303 498.742 345.023C514.021 353.689 529.917 364.301 535.914 371.248C522.003 392.913 516.519 423.56 524.386 450.222L527.357 460.507L526.792 429.628C528.849 405.174 540.613 381.661 545.183 381.661C546.326 381.661 548.84 385.318 550.668 389.66C559.124 410 555.07 427.347 547.772 446.047C541.923 458.071 537.51 477.289 533.299 494.787C539.871 480.33 553.701 453.117 553.701 453.117C559.915 443.462 568.984 415.968 567.384 405.455C565.107 392.36 561.455 381.661 551.582 368.76C563.377 351.068 576.282 334.941 590.189 318.798C574.86 328.893 562.508 343.68 554.385 351.636C550.783 355.164 546.844 358.9 542.299 360.074Z" fill="#24E669"/>
<circle cx="538.195" cy="335.903" r="15.5071" fill="#24E669"/>
<path fill-rule="evenodd" clip-rule="evenodd" d="M687.509 295.71C696.491 316.709 701.491 339.991 701.491 364.533C701.491 458.195 628.672 533.515 539.578 533.515C450.485 533.515 377.666 458.195 377.666 364.533C377.666 335.951 384.447 309.076 396.403 285.529L390.229 278.638C376.701 304.095 369 333.378 369 364.533C369 462.646 445.37 542.181 539.578 542.181C633.786 542.181 710.156 462.646 710.156 364.533C710.156 337.311 704.277 311.52 693.769 288.46L687.509 295.71Z" fill="white"/>
<path fill-rule="evenodd" clip-rule="evenodd" d="M402.508 306.76L401.042 305.403C395.945 320.285 393.18 336.248 393.18 352.857C393.18 361.971 394.012 370.89 395.606 379.542L397.229 378.264C395.767 370.015 395.004 361.525 395.004 352.857C395.004 336.74 397.641 321.238 402.508 306.76ZM679.324 315.616C682.483 327.498 684.166 339.981 684.166 352.857C684.166 361.31 683.441 369.593 682.049 377.648L683.683 378.889C685.199 370.441 685.99 361.742 685.99 352.857C685.99 339.495 684.2 326.55 680.846 314.25L679.324 315.616Z" fill="#24E669"/>
<path d="M395.81 388.425C395.111 389.513 396.581 399.484 399.013 410.649C406.891 446.824 426.749 475.712 455.282 492.887C471.725 502.872 499.827 510.551 515.77 509.651L525.713 509.123C521.486 502.314 518.17 496.42 509.385 495.371C497.442 494.23 485.03 486.642 476.948 475.304C473.003 470.082 466.252 460.559 461.666 454.541C451.611 440.592 438.333 426.878 435.43 427.51C432.304 428.191 434.55 436.356 439.631 442.5C452.949 458.545 446.417 467.218 432.177 452.31C420.084 439.74 415.41 431.169 407.945 408.704C401.898 390.607 398.478 384.569 395.81 388.425Z" fill="#24E669"/>
<path d="M682.987 388.425C683.686 389.513 682.216 399.484 679.784 410.649C671.905 446.824 652.048 475.712 623.514 492.887C607.072 502.872 578.97 510.551 563.027 509.651L553.084 509.123C557.31 502.314 560.627 496.42 569.412 495.371C581.355 494.23 593.767 486.642 601.849 475.304C605.793 470.082 612.545 460.559 617.131 454.541C627.185 440.592 640.464 426.878 643.367 427.51C646.493 428.191 644.247 436.356 639.166 442.5C625.848 458.545 632.379 467.218 646.62 452.31C658.713 439.74 663.387 431.169 670.852 408.704C676.899 390.607 680.319 384.569 682.987 388.425Z" fill="#24E669"/>
<path d="M558.281 174.271C553.905 176.328 545.317 181.534 541.355 184.474C527.868 194.451 520.124 206.191 518.124 219.5C516.245 232.198 519.729 248.436 527.327 261.811L528.537 263.963L527.847 261.642C526.935 258.439 527.129 251.759 528.246 246.943C529.402 242.242 532.113 235.254 537.047 224.3C543.018 211.228 544.219 205.685 542.388 200.044L541.342 196.821L543.022 197.866C546.266 199.994 548.316 202.573 550.654 207.413C553.028 212.368 553.028 212.368 554.875 211.959L556.682 211.627L554.848 212.859C553.689 213.617 553.144 214.493 553.331 215.069C553.499 215.587 555.789 217.134 558.425 218.568C561.119 219.984 563.256 221.454 563.232 221.97C563.19 222.429 562.468 223.745 561.613 224.85C559.944 226.982 559.935 227.939 561.591 229.501C562.429 230.311 562.502 230.733 562.016 231.399C561.53 232.066 561.603 232.488 562.308 233.086C563.013 233.684 563.066 234.24 562.537 235.365C561.989 236.625 562.058 237.429 563.151 239.811C563.98 241.577 564.331 243.054 564.134 243.627C563.507 245.039 557.849 246.685 553.088 246.767C550.803 246.809 547.805 247.21 546.419 247.66C543.069 248.748 539.816 251.903 539.138 254.732C538.003 259.299 539.913 266.95 542.736 268.96C543.747 269.713 543.978 269.638 547.395 267.384C552.357 264.182 559.687 258.049 562.945 254.319C566.959 249.772 570.732 242.121 571.625 236.614C573.088 227.55 572.055 220.633 566.805 204.46C562.899 192.431 560.659 183.17 560.307 177.367C560.171 175.375 560.014 173.709 559.879 173.689C559.745 173.669 559.071 173.951 558.281 174.271Z" fill="white"/>
</g>
</g>
<defs>
<clipPath id="clip0_4190_24786">
<rect width="1079.06" height="714.721" fill="white" transform="translate(0.6875 0.679688)"/>
</clipPath>
<clipPath id="clip1_4190_24786">
<rect width="1939.98" height="1091.24" fill="white" transform="matrix(-1 0 0 1 1509.62 -188.041)"/>
</clipPath>
<clipPath id="clip2_4190_24786">
<rect width="341.156" height="368.522" fill="white" transform="translate(369 173.657)"/>
</clipPath>
</defs>
</svg>
