<svg width="950" height="1500" viewBox="0 0 950 1500" fill="none" xmlns="http://www.w3.org/2000/svg">
<g clip-path="url(#clip0_4295_46488)">
<rect width="950" height="1500" fill="white"/>
<mask id="mask0_4295_46488" style="mask-type:luminance" maskUnits="userSpaceOnUse" x="-1" y="0" width="951" height="1500">
<path d="M949.996 0H-0.00390625V1500H949.996V0Z" fill="white"/>
</mask>
<g mask="url(#mask0_4295_46488)">
<path d="M265.099 1193.97H-30.3242V1547.17H265.099V1193.97Z" fill="#FFD600"/>
<path fill-rule="evenodd" clip-rule="evenodd" d="M707.625 440.124L474.991 157.788L225.468 151.859L222.918 424.813L470.344 705.746L708.289 705.082L707.625 440.124Z" fill="#FFD600"/>
<path d="M-0.00390625 0V439.79H234.592V704.189H470.349L235.753 968.585H-0.00390625V1235.6H234.592V1500H469.188V1471.21H706.103V1500H949.996V968.585H706.103V704.189H949.996V439.79H706.103V704.189H470.349L234.592 438.482V172.775H468.026L706.103 439.79V408.377H949.996V379.581H706.568L706.535 351.832L949.996 350.785V321.99L706.554 320.115L706.568 293.194H949.996V264.398H706.568L706.847 233.951L949.996 232.984V204.189H706.568L706.535 176.44L949.996 175.393V146.597L706.302 143.979L706.568 117.801H949.996V87.6961L706.103 89.0052L706.767 57.5921H949.996V28.7957L705.844 27.4873L706.335 0H-0.00390625ZM706.103 1235.6V1264.4H469.188V1235.6H706.103ZM704.948 1294.51V1323.3H470.349V1294.29L704.948 1294.51ZM706.103 1353.41V1382.2H469.188V1353.41H706.103ZM706.103 1411V1439.79H469.188L469.481 1411.66L706.103 1411Z" fill="black"/>
</g>
<g clip-path="url(#clip1_4295_46488)">
<rect x="121" y="396" width="708" height="708" rx="354" fill="white"/>
<path d="M475 396C279.415 396 121 554.415 121 750C121 945.585 279.415 1104 475 1104C670.585 1104 829 945.585 829 750C829 554.415 670.585 396 475 396ZM358.622 466.358C378.092 457.508 398.669 451.312 420.13 447.772C441.37 443.79 461.946 442.684 483.629 442.684C505.09 443.126 526.994 446.224 548.455 452.197C569.695 458.171 591.156 468.57 608.856 480.517C645.141 504.412 676.337 536.715 697.356 575.213C718.596 613.931 728.331 657.296 728.774 699.334C729.216 741.371 721.694 783.409 703.994 821.685C694.701 840.491 682.975 858.191 668.372 872.794C653.549 887.396 635.627 898.459 616.6 904.432C632.751 892.927 646.248 878.768 656.425 863.059C666.381 847.129 673.904 830.092 678.329 811.95C688.285 776.329 688.949 738.495 684.745 702.21C680.32 665.925 669.479 631.41 651.115 601.984C632.972 572.336 607.529 546.893 578.102 527.865C563.057 517.909 548.898 510.829 532.304 505.74C516.153 500.43 498.895 497.554 481.195 496.226C463.716 494.899 444.689 495.12 426.989 497.111C409.289 498.881 391.81 502.2 374.553 507.952C305.301 529.856 244.457 580.744 199.765 646.013C223.217 569.903 280.521 501.094 358.622 466.358ZM605.095 750C605.095 821.906 546.906 880.095 475 880.095C403.094 880.095 344.905 821.906 344.905 750C344.905 678.094 403.094 619.905 475 619.905C546.906 619.905 605.095 678.094 605.095 750ZM580.536 1023.91C561.066 1032.76 540.49 1038.95 519.029 1042.49C497.789 1046.47 477.212 1047.58 455.53 1047.58C434.069 1047.14 412.165 1044.04 390.704 1038.07C369.464 1032.09 348.003 1021.69 330.303 1009.75C294.018 985.852 262.821 953.55 241.803 915.052C220.563 876.334 210.827 832.969 210.385 790.931C209.942 748.894 217.465 706.856 235.165 668.58C244.457 649.774 256.184 632.074 270.786 617.471C285.61 602.869 303.531 591.806 322.559 585.832C306.407 597.337 292.911 611.497 282.734 627.206C272.777 643.136 265.255 660.173 260.83 678.315C250.874 713.936 250.21 751.77 254.414 788.055C258.839 824.34 269.68 858.855 288.044 888.281C306.186 917.929 331.63 943.373 361.056 962.4C376.101 972.356 390.261 979.436 406.855 984.525C423.006 989.835 440.264 992.711 457.964 994.039C475.442 995.366 494.47 995.145 512.17 993.154C529.87 991.384 547.349 988.065 564.606 982.312C633.857 960.409 694.701 909.521 739.394 844.253C716.163 920.141 658.859 988.95 580.536 1023.91Z" fill="black"/>
<rect x="163.043" y="620" width="624.901" height="260.796" rx="130.398" fill="black"/>
<path d="M489.875 620.16C558.249 621.676 628.482 630.493 692.306 655.894C737.359 673.822 807.568 715.034 782.791 773.918C760.546 826.798 669.829 855.451 618.185 866.396C526.514 885.817 419.141 885.706 327.58 865.381C276.706 854.082 186.283 824.548 166.875 770.678C146.268 713.506 213.444 674.274 257.054 656.615C330.403 626.899 411.37 618.706 489.875 620.16ZM473.365 629.76C382.734 631.141 325.99 728.939 369.881 808.589C414.249 889.094 531.039 891.625 578.537 812.832C627.711 731.287 568.106 628.304 473.365 629.747V629.76ZM248.664 745.339H344.933C345.997 734.381 347.281 723.791 350.351 713.2C359.486 681.734 381.695 653.949 409.871 637.501C410.433 637.17 416.242 634.529 415.606 634.052C393.031 637.281 370.578 642.515 349.103 650.17C310.349 663.989 259.402 692.838 250.058 736.423C249.422 739.383 249.141 742.355 248.676 745.326L248.664 745.339ZM702.188 745.339C699.803 716.135 678.744 693.327 655.851 677.332C628.739 658.376 594.191 645.927 561.979 638.76C555.363 637.293 542.339 634.089 536.089 634.028C534.842 634.015 534.597 634.052 535.943 634.737C558.139 646.086 577.938 665.799 589.874 687.653C599.559 705.373 604.745 725.16 605.919 745.339H702.188ZM172.989 745.339H238.648C243.027 698.464 284.802 668.001 324.143 649.706L341.313 642.38C318.897 646.856 296.615 652.518 275.092 660.186C240.483 672.513 186.515 698.06 175.068 736.008C174.151 739.065 173.748 742.245 172.989 745.339ZM777.863 745.339C774.12 718.324 751.827 699.173 729.961 685.562C693.982 663.182 651.265 651.332 610.101 642.38C609.208 642.979 610.541 643.041 610.933 643.2C615.299 644.985 619.775 646.489 624.104 648.409C664.204 666.129 707.936 698.023 712.204 745.326H777.863V745.339ZM238.648 755.354H172.989C173.662 758.277 174.188 761.261 175.068 764.123C189.046 809.714 260.588 837.034 302.4 848.798C311.645 851.403 330.857 857.322 339.638 857.75C340.873 857.811 341.142 857.628 339.785 857.053C334.538 854.828 329.145 852.993 323.972 850.596C284.68 832.448 243.32 801.911 238.648 755.342V755.354ZM344.933 755.354H248.664C251.77 787.077 275.74 810.863 301.238 827.153C335.553 849.068 376.424 860.294 416.426 866.653L399.28 855.965C380.912 842.757 365.76 824.254 356.514 803.587C349.654 788.251 346.193 772.109 344.921 755.354H344.933ZM702.188 755.354H605.919C604.023 795.136 583.869 832.888 551.559 855.977L534.977 866.665C571.603 860.673 609.013 850.78 641.347 832.252C669.964 815.841 698.788 790.257 702.188 755.367V755.354ZM777.863 755.354H712.204C707.691 802.229 665.353 833.072 625.767 851.159C620.973 853.348 615.922 854.999 611.067 857.053C609.71 857.628 609.967 857.811 611.214 857.75C619.359 857.347 636.431 852.125 644.991 849.789C687.488 838.196 763.738 809.824 776.346 762.46C776.97 760.112 777.092 757.654 777.863 755.342V755.354Z" fill="white"/>
<path fill-rule="evenodd" clip-rule="evenodd" d="M399.781 749.893C399.781 709.96 432.153 677.588 472.086 677.588C512.019 677.588 544.391 709.96 544.391 749.893C544.391 789.825 512.019 822.197 472.086 822.197C432.153 822.197 399.781 789.825 399.781 749.893ZM467.192 762.114L467.192 793.577L482.622 793.577L482.622 768.383L493.11 759.1L516.375 759.1L516.375 744.153L485.154 744.153L467.192 762.114ZM478.16 706.55L478.16 738.013L460.198 755.974L428.976 755.974L428.976 741.026L452.242 741.026L462.73 731.744L462.73 706.55L478.16 706.55Z" fill="#FFD600"/>
</g>
<rect x="96.5" y="371.5" width="757" height="757" rx="378.5" stroke="white" stroke-width="49"/>
<g clip-path="url(#clip2_4295_46488)">
<path d="M194.262 906.394C186.561 914.505 180.095 929.308 166.563 927.514C165.516 922.916 169.18 921.72 171.422 918.991C180.132 908.375 192.804 898.992 202 888.488L208.055 894.544C204.953 899.852 197.813 902.693 194.262 906.431V906.394Z" fill="#FFD600"/>
<path d="M73.7575 995.917C74.8041 1000.85 72.6734 1002.42 70.2063 1005.79C66.9542 1010.23 49.0116 1028.18 44.5633 1031.43C41.1991 1033.9 39.629 1036.03 34.6948 1034.98C33.6481 1030.05 35.7789 1028.48 38.246 1025.11C41.4981 1020.66 59.4407 1002.72 63.889 999.469C67.2532 997.001 68.8233 994.871 73.7575 995.917Z" fill="#FFD600"/>
<path d="M234.972 1139.99C233.926 1135.05 236.056 1133.48 238.523 1130.12C241.439 1126.16 267.792 1100.4 270.334 1100.92C272.988 1101.48 274.558 1104.96 272.876 1108.29C271.979 1110.04 247.681 1134.38 244.841 1136.44C241.476 1138.9 239.906 1141.03 234.972 1139.99Z" fill="#FFD600"/>
<path d="M139.693 1049.64C140.74 1054.57 138.61 1056.14 136.142 1059.5C133.227 1063.47 106.873 1089.22 104.332 1088.7C101.678 1088.14 100.108 1084.66 101.79 1081.34C102.687 1079.58 126.984 1055.24 129.825 1053.19C133.189 1050.72 134.759 1048.59 139.693 1049.64Z" fill="#FFD600"/>
<path d="M73.7522 1208.39C74.7988 1213.32 72.6681 1214.89 70.201 1218.26C67.2853 1222.22 40.9321 1247.97 38.3902 1247.45C35.7362 1246.89 34.1662 1243.41 35.8483 1240.09C36.7454 1238.33 61.0427 1214 63.8837 1211.94C67.2479 1209.47 68.8179 1207.34 73.7522 1208.39Z" fill="#FFD600"/>
<path d="M139.693 1208.39C140.74 1213.32 138.61 1214.89 136.142 1218.26C133.227 1222.22 106.873 1247.97 104.332 1247.45C101.678 1246.89 100.108 1243.41 101.79 1240.09C102.687 1238.33 126.984 1214 129.825 1211.94C133.189 1209.47 134.759 1207.34 139.693 1208.39Z" fill="#FFD600"/>
<path d="M73.7522 1420.86C74.7988 1425.79 72.6681 1427.36 70.201 1430.73C67.2853 1434.69 40.9321 1460.44 38.3902 1459.92C35.7362 1459.36 34.1662 1455.88 35.8483 1452.56C36.7454 1450.8 61.0427 1426.46 63.8837 1424.41C67.2479 1421.94 68.8179 1419.81 73.7522 1420.86Z" fill="#FFD600"/>
<path d="M234.972 1406.17C233.926 1401.23 236.056 1399.66 238.523 1396.3C241.439 1392.34 267.792 1366.58 270.334 1367.11C272.988 1367.67 274.558 1371.14 272.876 1374.47C271.979 1376.23 247.681 1400.56 244.841 1402.62C241.476 1405.08 239.906 1407.21 234.972 1406.17Z" fill="#FFD600"/>
<path d="M73.7575 1367.14C74.8041 1372.08 72.6734 1373.65 70.2063 1377.01C66.9542 1381.46 49.0116 1399.4 44.5633 1402.65C41.1991 1405.12 39.629 1407.25 34.6948 1406.2C33.6481 1401.27 35.7789 1399.7 38.246 1396.34C40.1898 1393.72 60.9734 1372.86 63.8517 1370.66C67.1785 1368.11 68.9728 1366.21 73.7575 1367.14Z" fill="#FFD600"/>
<path d="M234.972 981.229C233.926 976.294 236.056 974.724 238.523 971.36C241.439 967.398 267.792 941.643 270.334 942.166C272.988 942.727 274.558 946.203 272.876 949.53C271.979 951.287 247.681 975.622 244.841 977.678C241.476 980.145 239.906 982.275 234.972 981.229Z" fill="#FFD600"/>
<path d="M234.972 1352.46C233.926 1347.52 236.056 1345.95 238.523 1342.59C241.439 1338.63 267.792 1312.87 270.334 1313.39C272.988 1313.96 274.558 1317.43 272.876 1320.76C271.979 1322.52 247.681 1346.85 244.841 1348.91C241.476 1351.37 239.906 1353.5 234.972 1352.46Z" fill="#FFD600"/>
<path d="M177.304 1348.68C174.912 1350.36 174.015 1357.58 166.613 1348.79C172.594 1344.34 199.77 1312.42 204.368 1313.39C207.022 1313.95 208.592 1317.43 206.909 1320.76C204.741 1324.98 182.463 1345.09 177.304 1348.68Z" fill="#FFD600"/>
<path d="M169.003 1139.99C167.957 1135.05 170.087 1133.48 172.555 1130.12C175.47 1126.15 201.824 1100.44 204.365 1100.92C210.645 1104.74 205.001 1109.33 202.01 1113.18C198.758 1117.37 173.19 1144.17 169.003 1139.99Z" fill="#FFD600"/>
<path d="M139.69 1420.86C142.007 1423.18 137.821 1428.45 136.139 1430.73C133.223 1434.69 106.87 1460.45 104.328 1459.92C101.786 1459.4 100.104 1455.89 101.786 1452.56C103.879 1448.52 125.597 1428.86 130.644 1424.94C132.588 1423.4 136.139 1417.35 139.69 1420.86Z" fill="#FFD600"/>
<path d="M234.972 1193.7C233.926 1188.77 236.056 1187.2 238.523 1183.83C241.439 1179.87 267.792 1154.11 270.334 1154.64C272.054 1155.01 275.941 1159.8 272.876 1162C266.895 1165.1 240.205 1198.9 234.972 1193.7Z" fill="#FFD600"/>
<path d="M73.7553 1049.63C77.1569 1053.07 71.8862 1056.1 70.6901 1057.67C66.8399 1062.64 46.0189 1085.48 42.0566 1087.53C38.7297 1089.25 35.2533 1087.68 34.6926 1084.99C34.1319 1082.3 59.8871 1056.1 63.8868 1053.18C66.167 1051.5 71.4751 1047.31 73.7553 1049.63Z" fill="#FFD600"/>
<path d="M139.7 1262.1C143.587 1265.99 115.589 1294.18 111.739 1296.42C107.889 1298.66 105.16 1299.33 100.637 1298.74C99.5904 1294.14 103.254 1292.94 105.496 1290.21C109.048 1285.91 135.326 1257.8 139.662 1262.14L139.7 1262.1Z" fill="#FFD600"/>
<path d="M73.7575 942.167C74.8041 947.101 72.6734 948.671 70.2063 952.035C66.9542 956.484 49.0116 974.426 44.5633 977.679C41.1991 980.146 39.629 982.276 34.6948 981.23C33.6481 976.295 35.7789 974.725 38.246 971.361C39.816 969.231 61.1602 947.886 63.8143 945.643C67.1037 942.877 69.0849 941.345 73.7575 942.167Z" fill="#FFD600"/>
<path d="M205.627 1049.63C206.673 1054.56 204.543 1056.13 202.076 1059.5C199.16 1063.46 172.807 1089.18 170.265 1088.69C166.34 1087.91 167.386 1084.95 168.433 1082.08C169.33 1079.61 187.647 1061.03 191.048 1058.12C193.142 1056.32 202.636 1046.53 205.664 1049.63H205.627Z" fill="#FFD600"/>
<path d="M73.7575 1262.11C78.131 1266.48 56.7867 1285.62 52.9365 1288.91C50.7311 1290.78 36.2648 1302.93 34.6948 1301.17C33.6481 1296.24 35.7789 1294.67 38.246 1291.3C41.5355 1286.82 59.4033 1268.95 63.889 1265.66C67.2532 1263.19 68.8233 1261.06 73.7575 1262.11Z" fill="#FFD600"/>
<path d="M73.7536 1154.67C74.8003 1159.61 72.6696 1161.18 70.2024 1164.54C66.9503 1168.99 49.0078 1186.9 44.5595 1190.18C41.2326 1192.65 39.6252 1194.78 34.691 1193.74C34.1303 1189.59 37.4945 1186.63 39.7374 1183.49C42.3166 1179.87 60.521 1160.73 63.8478 1158.19C67.1747 1155.64 68.9689 1153.74 73.7536 1154.67Z" fill="#FFD600"/>
<path d="M234.977 927.514L238.528 917.645C243.125 914.019 267.759 888.002 270.338 888.451C277.441 889.685 269.666 898.544 267.984 900.712C264.694 904.898 239.163 931.7 234.977 927.514Z" fill="#FFD600"/>
<path d="M205.626 1262.11C210.448 1266.89 173.591 1301.21 170.227 1301.09C164.695 1300.91 168.62 1294.25 169.965 1292.23C172.47 1288.38 191.422 1269.13 195.683 1265.58C199.01 1262.82 200.954 1261.25 205.664 1262.07L205.626 1262.11Z" fill="#FFD600"/>
<path d="M139.701 995.914C140.747 1000.85 138.617 1002.42 136.15 1005.78C134.094 1008.59 109.759 1032.88 108.002 1033.82C104.675 1035.54 101.199 1033.97 100.638 1031.28C99.6663 1026.64 127.477 1007.2 129.72 999.428L139.701 995.914Z" fill="#FFD600"/>
<path d="M139.695 1154.67C142.013 1156.99 137.826 1162.26 136.144 1164.54C133.228 1168.5 106.838 1194.26 104.333 1193.73C93.9787 1191.45 104.782 1185.44 105.454 1184.61C113.08 1175.19 121.79 1167.23 130.313 1158.71C132.443 1156.58 136.667 1151.64 139.695 1154.67Z" fill="#FFD600"/>
<path d="M235.267 1291.71C235.641 1291.04 239.528 1290.67 240.986 1289.06C249.21 1279.97 257.359 1268.35 267.975 1262.14C270.965 1260.39 273.171 1258.97 274.03 1263.38C274.928 1268.09 243.079 1295.11 238.631 1301.13C235.529 1299.15 233.398 1294.93 235.304 1291.71H235.267Z" fill="#FFD600"/>
<path d="M139.688 1367.14C140.735 1372.08 138.604 1373.65 136.137 1377.01C134.081 1379.81 109.747 1404.11 107.99 1405.05C104.663 1406.77 101.186 1405.2 100.626 1402.5C99.5791 1397.46 128.138 1379.4 129.745 1370.62L139.651 1367.14H139.688Z" fill="#FFD600"/>
<path d="M205.633 1420.86C205.857 1424.44 205.259 1428.26 203.315 1431.32C202.231 1433.04 175.691 1457.79 173.934 1458.72C169.636 1460.93 169.262 1459.13 166.57 1456.18L197.97 1423.51L205.633 1420.78V1420.86Z" fill="#FFD600"/>
<path d="M205.628 1208.39C206.675 1213.32 204.544 1214.89 202.077 1218.26C199.161 1222.22 172.808 1247.94 170.266 1247.45C166.304 1246.66 167.388 1243.75 168.434 1240.87C169.294 1238.48 193.853 1214.67 197.628 1211.45C200.058 1209.4 198.937 1206.78 205.628 1208.39Z" fill="#FFD600"/>
<path d="M274.006 1049.63C276.51 1051.8 270.38 1056.66 269.146 1058.16C260.437 1068.77 247.765 1078.16 238.607 1088.62L235.242 1079.2C244.288 1078.08 265.259 1042.16 274.006 1049.63Z" fill="#FFD600"/>
<path d="M139.687 1100.92C145.444 1107.46 131.688 1114.83 128.623 1117.93C123.651 1123.01 114.306 1135.24 110.568 1138.38C103.877 1143.95 96.513 1142.38 105.484 1131.46C111.353 1124.32 123.988 1111.69 131.127 1105.82C132.66 1104.55 137.482 1098.45 139.65 1100.96L139.687 1100.92Z" fill="#FFD600"/>
<path d="M182.051 1013.82C184.182 1011.54 199.134 997.599 200.742 997.113C204.181 996.104 208.143 996.926 208.031 999.543L172.631 1034.94L166.613 1031.28C172.968 1026.61 177.08 1019.13 182.051 1013.82Z" fill="#FFD600"/>
<path d="M204.878 951.247C196.991 953.041 172.805 986.946 166.563 981.226C165.516 976.629 169.18 975.432 171.422 972.704C180.169 962.088 192.767 952.705 202 942.201L208.018 945.827L204.878 951.247Z" fill="#FFD600"/>
<path d="M139.7 942.163C140.747 947.097 138.616 948.667 136.149 952.031C132.897 956.479 114.954 974.385 110.506 977.674C107.179 980.141 105.572 982.272 100.637 981.225C98.9554 979.655 104.787 971.581 106.394 969.899C112.599 963.208 124.71 951.62 131.663 945.19C134.355 942.686 133.233 940.817 139.7 942.163Z" fill="#FFD600"/>
<path d="M202.004 1154.67L208.023 1158.34C203.649 1163.49 173.969 1194.44 170.268 1193.73C166.568 1193.02 166.941 1190.78 168.997 1187.64C175.95 1177.03 193.818 1165.51 202.004 1154.67Z" fill="#FFD600"/>
<path d="M139.69 888.452C140.736 893.348 138.643 894.993 136.176 898.32C132.774 902.918 106.01 932.411 100.664 927.514C99.6177 922.916 103.281 921.72 105.524 918.991C111.467 911.777 123.952 899.292 131.167 893.348C133.933 891.068 135.092 887.405 139.69 888.489V888.452Z" fill="#FFD600"/>
<path d="M190.12 1390.69C187.99 1392.75 174.869 1404.52 173.897 1405.01C170.084 1406.95 166.533 1404.11 166.571 1402.5C166.683 1399.92 201.783 1366.62 204.325 1367.1C208.213 1367.85 207.652 1370.06 205.596 1373.2C203.989 1375.66 192.737 1388.11 190.083 1390.65L190.12 1390.69Z" fill="#FFD600"/>
<path d="M73.7508 888.452C74.7975 893.386 72.6667 894.956 70.1996 898.32C66.9101 902.806 49.0423 920.674 44.5567 923.963C41.2298 926.43 39.6224 928.561 34.6881 927.514C31.1744 924.225 61.6021 896.264 65.1907 893.348C67.9568 891.068 69.1156 887.405 73.7134 888.489L73.7508 888.452Z" fill="#FFD600"/>
<path d="M73.7583 1313.39C74.805 1318.33 72.6742 1319.9 70.2071 1323.26C66.9176 1327.75 49.0498 1345.61 44.5641 1348.9C41.2373 1351.37 39.6299 1353.5 34.6956 1352.45C33.649 1347.86 37.3123 1346.66 39.5552 1343.93C45.4987 1336.72 57.9837 1324.23 65.1981 1318.29C67.9643 1316.01 69.1231 1312.34 73.7209 1313.43L73.7583 1313.39Z" fill="#FFD600"/>
<path d="M265.848 1009.71C260.503 1015.2 249.55 1025.15 243.495 1030.12C240.729 1032.4 239.57 1036.06 234.972 1034.98C229.701 1029.22 263.942 1001.75 267.979 995.914L273.997 999.577C270.222 1002.08 268.652 1006.87 265.848 1009.71Z" fill="#FFD600"/>
<path d="M273.997 1420.86C275.044 1425.46 271.381 1426.65 269.138 1429.38C263.194 1436.6 250.709 1449.08 243.495 1455.02C240.729 1457.31 239.57 1460.97 234.972 1459.88C233.926 1454.95 236.056 1453.38 238.523 1450.02C241.813 1445.53 259.681 1427.66 264.166 1424.37C267.493 1421.91 269.1 1419.78 274.035 1420.82L273.997 1420.86Z" fill="#FFD600"/>
<path d="M273.997 1208.39C275.044 1212.99 271.381 1214.18 269.138 1216.91C263.194 1224.13 250.709 1236.61 243.495 1242.55C240.729 1244.83 239.57 1248.5 234.972 1247.41C233.926 1242.48 236.056 1240.91 238.523 1237.55C241.813 1233.06 259.681 1215.19 264.166 1211.9C267.493 1209.44 269.1 1207.3 274.035 1208.35L273.997 1208.39Z" fill="#FFD600"/>
<path d="M73.7583 1100.92C74.805 1105.85 72.6742 1107.42 70.2071 1110.79C66.9176 1115.27 49.0498 1133.14 44.5641 1136.43C41.2373 1138.9 39.6299 1141.03 34.6956 1139.98C33.649 1135.39 37.3123 1134.19 39.5552 1131.46C45.4987 1124.25 57.9837 1111.76 65.1981 1105.82C67.9643 1103.54 69.1231 1099.87 73.7209 1100.96L73.7583 1100.92Z" fill="#FFD600"/>
<path d="M100.637 1352.45C99.5904 1347.85 103.254 1346.66 105.496 1343.93C110.169 1338.25 128.261 1319.29 133.569 1315.86C136.709 1313.8 138.915 1313.24 139.662 1317.13C140.148 1319.71 114.43 1346.02 110.468 1348.94C107.141 1351.4 105.534 1353.53 100.6 1352.49L100.637 1352.45Z" fill="#FFD600"/>
</g>
<path d="M85.3975 91.4649C85.3049 74.3253 85.4669 57.128 85.3975 40H118.626L118.614 91.4649L85.3859 91.4649C85.3743 91.4649 85.3859 125.779 85.3859 125.779H118.614V91.4649L169 91.4649V125.779L118.614 125.779L118.614 176.179H85.3859L85.3859 125.779L35 125.779V91.4649C35 91.4649 85.3975 91.4649 85.3859 91.4649H85.3975Z" fill="white"/>
</g>
<defs>
<clipPath id="clip0_4295_46488">
<rect width="950" height="1500" fill="white"/>
</clipPath>
<clipPath id="clip1_4295_46488">
<rect x="121" y="396" width="708" height="708" rx="354" fill="white"/>
</clipPath>
<clipPath id="clip2_4295_46488">
<rect width="248" height="573" fill="white" transform="translate(27 888)"/>
</clipPath>
</defs>
</svg>
