<svg width="244" height="217" viewBox="0 0 244 217" fill="none" xmlns="http://www.w3.org/2000/svg">
<path d="M0.789062 13.4515V45.1424L90.8048 136.513C108.985 153.691 81.7884 176.645 64.7904 159.022L17.0481 111.634C10.3966 105.71 0.789062 108.968 0.789062 119.779V203.153C0.789062 212.334 4.32108 216.015 14.0919 216.481H229.154C238.909 216.481 243.639 210.853 243.639 205.818V173.387L152.441 82.0164C133.817 62.7647 160.718 40.2553 176.534 57.878L222.355 103.785C231.962 113.855 243.639 105.858 243.639 96.529V14.6362C243.639 2.78892 239.669 -0.104337 229.154 0.123536H14.0919C3.08236 1.11206 1.04378 4.66408 0.789062 13.4515Z" fill="#FFD600"/>
</svg>
