<svg width="229" height="228" viewBox="0 0 229 228" fill="none" xmlns="http://www.w3.org/2000/svg">
<rect x="0.841004" y="-0.841004" width="225.83" height="225.829" transform="matrix(1 0 0 -1 0.566406 225.846)" fill="#101010"/>
<rect x="0.841004" y="-0.841004" width="225.83" height="225.829" transform="matrix(1 0 0 -1 0.566406 225.846)" stroke="#FFD600" stroke-width="1.68201"/>
<path d="M69.3094 109.041L40.3203 113.773L69.3094 118.504C89.9967 121.883 106.213 138.101 109.591 158.788L114.324 187.777L119.057 158.788C122.434 138.101 138.652 121.883 159.339 118.504L188.328 113.773L159.339 109.041C138.652 105.664 122.434 89.4459 119.057 68.7568L114.324 39.7677L109.591 68.7568C106.213 89.4459 89.9967 105.664 69.3094 109.041Z" fill="white"/>
</svg>
