<svg width="950" height="1500" viewBox="0 0 950 1500" fill="none" xmlns="http://www.w3.org/2000/svg">
<rect width="950" height="1500" fill="#FFD600"/>
<g clip-path="url(#clip0_4299_29160)">
<rect x="904" y="45" width="1158" height="857.631" rx="96" transform="rotate(90 904 45)" fill="white"/>
<path d="M901.625 355.393L901.393 38.45L589.074 38.2188L589.074 133.926L805.917 133.926L805.917 355.393L901.625 355.393Z" fill="black"/>
<path d="M46.3599 355.393L46.591 38.45L358.911 38.2188L358.911 133.926L142.067 133.926L142.067 355.393L46.3599 355.393Z" fill="black"/>
<path d="M589.165 892.417L589.165 796.71L806.009 796.71L806.009 575.243L901.485 575.474L901.485 892.186L589.165 892.417Z" fill="black"/>
<path d="M358.593 892.415L358.593 796.708L141.749 796.708L141.749 575.241L46.273 575.472L46.273 892.184L358.593 892.415Z" fill="black"/>
<path d="M563.378 663.087C558.996 664.764 554.912 667.193 550.593 669.029C490.522 694.63 414.016 688.391 362.294 647.268C333.245 624.171 312.089 574.752 303.209 539.326C302.859 537.947 302.785 534.934 302.244 533.968C301.819 533.205 301.469 533.746 301.162 534.255C298.488 538.658 301.13 545.724 291.613 543.241C287.019 542.042 286.414 531.061 285.82 526.913C279.656 483.87 281.937 437.273 288.122 394.367C288.568 390.58 295.666 390.092 298.297 391.174C300.005 391.874 299.857 397.688 300.536 399.343C300.748 399.863 301.013 400.425 301.554 399.895C306.424 382.559 311.081 365.626 318.179 349.032C332.842 314.753 344.544 294.892 377.54 275.678C431.225 244.422 496.728 240.369 553.607 265.885C555.113 266.564 563.622 271.296 564.28 270.787C562.72 268.102 556.949 261.376 559.983 258.596C560.715 257.928 562.349 257.217 563.336 256.538C564.322 255.859 564.885 254.416 566.2 254.607C566.847 254.702 572.683 259.731 573.754 260.633C605.785 287.592 629.837 308.992 647.088 348.449C667.893 396.033 670.418 459.054 665.379 510.256C658.334 581.786 631.279 624.575 577.818 670.069C575.621 671.936 568.566 678.28 566.497 679.097C565.903 679.331 565.797 679.394 565.182 679.108C564.216 678.673 559.049 673.411 558.943 672.244L563.367 663.066L563.378 663.087ZM565.182 672.562C566.062 673.347 569.924 670.079 570.805 669.39C576.64 664.838 583.557 658.451 589.106 653.38C635.184 611.281 654.461 568.365 660.424 506.214C667.596 431.458 658.949 346.794 602.199 292.239L566.762 261.768C564.969 261.45 567.378 265.259 567.696 265.8C572.29 273.588 579.292 281.524 584.502 289.162C605.19 319.506 616.193 351.303 621.922 387.62C624.85 406.186 626.346 425.072 626.951 443.84C626.526 445.081 613.296 449.421 611.121 450.131C599.419 453.94 587.483 456.858 575.367 459.065C573.935 460.073 573.86 470.756 574.306 472.709C574.433 473.271 574.688 473.759 575.123 474.141C576.576 475.425 584.799 476.284 587.313 476.846C595.674 478.724 603.992 480.91 612.108 483.658C614.209 484.369 626.972 488.772 627.407 490.034C627.492 492.114 627.566 494.225 627.502 496.304C626.155 538.181 615.153 593.828 593.7 629.975C585.754 643.364 575.675 655.449 567.25 668.53C566.9 669.071 564.853 672.254 565.182 672.551L565.182 672.562ZM575.25 485.546C591.143 493.949 606.103 503.487 619.354 515.699L620.5 515.487C621.625 508.177 622.155 500.644 622.304 493.355C616.543 490.204 609.413 487.933 603.005 486.013C596.109 483.944 587.303 481.419 580.258 480.316C579.367 480.178 575.579 479.658 575.091 480.008C574.38 481.249 574.401 484.517 575.25 485.557L575.25 485.546ZM621.519 440.89C622.017 433.506 620.967 426.228 620.712 418.865L619.651 418.929C606.113 430.398 591.334 440.264 575.568 448.423C575.133 450.004 573.5 454.174 576.184 454.057C581.637 453.824 593.965 450.248 599.684 448.625C602.315 447.882 620.925 441.92 621.519 440.89ZM574.667 442.344C583.112 439.426 590.995 434.302 598.284 429.167C604.225 424.976 611.418 419.565 616.437 414.366C617.54 413.221 619.874 410.611 619.832 409.189C619.694 405.221 617.445 391.63 616.076 388.065C615.864 387.514 615.492 387.195 615.068 386.824C603.652 402.749 591.165 417.857 576.088 430.44C574.051 433.177 575.812 438.949 574.667 442.333L574.667 442.344ZM575.112 491.997L575.112 501.248C575.112 503.232 586.613 513.099 588.671 515.232C598.082 525.025 606.506 535.74 614.644 546.594L615.747 546.329C617.275 538.902 620.012 531.189 619.609 523.571C610.644 514.139 600.225 505.853 589.074 499.031C585.955 497.121 580.109 493.376 576.895 492.252C576.279 492.039 575.77 491.891 575.112 491.997ZM588.47 411.905C595.324 404.733 602.336 395.959 607.8 387.673C608.522 386.569 612.978 379.822 613.052 379.333C613.137 378.708 612.989 378.357 612.787 377.806C612.161 376.076 607.705 368.512 606.453 366.984C603.758 363.684 600.034 360.852 595.918 363.589C586.528 369.827 580.703 397.529 578.857 408.372C578.147 412.52 577.68 416.732 576.937 420.87C577.234 422.408 580.226 419.714 580.757 419.289C583.239 417.316 586.263 414.207 588.48 411.894L588.47 411.905ZM577.372 512.76C576.449 513.704 580.534 535.061 581.202 538.043C583.101 546.509 588.279 564.344 594.973 569.861C598.04 572.386 600.087 572.418 603.323 570.084C605.869 568.248 611.821 558.975 612.702 555.941C612.914 555.198 613.031 554.785 612.628 554.042C603.769 540.822 593.923 526.234 581.902 515.678C581.255 515.115 577.966 512.166 577.383 512.749L577.372 512.76ZM611.227 364.247C608.967 344.82 587.345 288.43 563.187 321.851C561.362 324.376 555.251 334.232 555.293 336.884C562.402 359.472 567.495 382.601 570.996 406.059C571.218 407.544 571.261 412.626 571.728 413.454C572.333 414.547 572.852 412.913 573.001 412.457C574.582 407.597 575.027 400.669 576.237 395.386C578.635 384.893 584.109 364.045 594.22 358.751C599.631 355.918 603.96 357 608.076 361.308C609.222 362.507 609.54 364.576 611.227 364.247ZM571.961 520.441C569.394 539.22 566.221 558.095 561.352 576.418C559.813 582.2 557.214 588.481 556.004 594.093C555.771 595.154 555.272 597.244 555.357 598.21C555.495 599.727 559.834 607.196 560.938 608.883C569.935 622.559 581.001 629.635 593.361 614.304C603.026 602.316 607.705 585.298 611.227 570.561C609.615 570.211 609.445 571.696 608.532 572.598C595.387 585.733 584.767 566.519 580.852 555.559C576.979 544.695 574.635 532.642 573.224 521.205L571.951 520.452L571.961 520.441ZM590.464 310.074C591.069 309.406 586.846 302.244 586.136 301.088C580.428 291.709 571.314 280.919 560.97 276.601C549.564 271.837 538.456 275.115 529.035 282.372C531.783 287.794 535.549 292.802 538.541 298.128C543.962 307.772 547.962 317.989 552.323 328.142C553.49 328.418 557.14 321.543 558.031 320.323C564.492 311.464 572.905 303.549 584.841 307.358C586.836 307.994 588.502 309.416 590.454 310.085L590.464 310.074ZM573.606 649.38C579.971 643.184 585.679 633.359 589.552 625.381C588.809 624.468 589.053 624.84 588.427 625.147C586.008 626.315 584.587 627.63 581.68 627.885C567.24 629.179 559.633 617.127 553.479 606.018C553.437 605.573 552.546 605.658 552.323 605.753C551.485 606.124 546.19 620.363 545.182 622.538C543.294 626.633 540.801 631.428 538.615 635.386C536.43 639.343 531.295 645.942 529.862 649.656C528.854 652.266 531.878 653.571 533.894 654.844C547.548 663.448 562.413 660.255 573.584 649.369L573.606 649.38ZM568.799 445.506L568.799 438.058L567.908 437.601C557.872 444.614 547.421 450.927 536.313 456.115C536.949 457.091 537.3 456.667 538.127 456.593C544.185 456.03 555.697 451.415 561.564 448.879C564.004 447.829 566.306 446.153 568.799 445.506ZM568.736 455.373C568.906 454.64 569.022 451.436 568.12 451.383C564.63 453.781 559.463 454.121 556.609 457.24L568.736 455.373ZM568.799 471.913L568.799 461.526C568.799 461.303 568.057 460.783 567.675 460.836C556.715 462.661 545.416 462.64 534.594 465.017C534.042 465.865 533.607 468.157 534.477 468.772L568.057 472.518L568.799 471.913ZM554.805 476.199C554.625 477.197 555.463 477.409 556.132 477.801C559.622 479.817 564.492 480.273 567.717 482.926L568.768 482.268L568.078 477.95L554.795 476.199L554.805 476.199ZM568.799 496.739L568.799 489.97C568.799 488.517 566.89 487.764 565.733 487.17C561.309 484.878 554.339 482.544 549.501 480.836C545.766 479.52 540.663 477.515 536.918 476.708C536.005 476.517 536.133 477.324 536.281 477.791C536.451 478.289 544.376 481.748 545.617 482.448C553.278 486.766 560.885 491.891 567.887 497.206L568.789 496.75L568.799 496.739ZM552.546 345.743C551.654 345.574 551.463 346.157 551.103 346.773C550.243 348.247 548.779 353.542 548.164 355.568C539.835 382.771 535.857 415.947 534.965 444.392C534.902 446.418 533.586 449.198 535.167 450.906C546.922 445.665 557.649 438.546 567.887 430.822L568.375 429.92C567.176 422.472 567.028 414.897 566.03 407.428C564.768 398.038 562.869 387.471 561.001 378.156C558.795 367.175 555.421 356.555 552.556 345.754L552.546 345.743ZM534.944 483.424C534.668 496.082 535.835 508.887 537.257 521.513C539.273 539.411 542.031 557.288 546.901 574.614C547.771 577.712 549.426 583.961 550.721 586.603C552.015 589.245 552.652 586.475 553.214 584.969C560.354 565.819 567.049 529.831 567.898 509.375C567.951 508.017 568.12 505.641 567.898 504.431C567.696 503.381 565.065 501.418 564.057 500.591C555.516 493.588 544.981 487.976 534.955 483.424L534.944 483.424ZM528.95 453.516C530.531 448.816 529.682 443.808 529.979 438.959C531.984 406.038 536.652 375.026 546.562 343.59C547.527 340.534 549.161 338.497 548.96 335.113C548.79 332.301 545.946 325.978 544.758 323.05C539.644 310.371 533.066 297.47 524.738 286.616C524.144 286.499 520.282 291.009 519.603 291.794C490.543 325.84 479.085 396.5 476.708 440.296C476.443 445.134 476.061 451.84 476.231 456.561C476.294 458.311 476.984 460.083 476.761 461.897L477.44 462.576C495.063 463.701 512.802 460.295 528.95 453.495L528.95 453.516ZM528.95 480.825C512.844 474.109 495.307 470.884 477.843 470.343C476.072 470.512 476.305 473.091 476.241 474.597C475.541 489.62 477.642 508.325 479.414 523.37C483.838 560.928 494.797 611.175 518.69 641.179C520.324 643.237 522.351 645.719 524.324 647.3C525.47 647.3 529.735 640.5 530.605 639.12C536.536 629.741 542.35 617.668 546.106 607.217C546.901 605.01 548.864 599.928 548.96 597.86C549.097 594.602 545.575 587.515 544.408 583.865C535.454 555.867 531.889 525.587 529.979 496.283C529.809 493.737 530.191 482.13 528.95 480.825ZM546.668 269.227C546.647 268.134 528.568 261.737 526.361 261.1C520.186 259.328 509.587 256.676 503.359 256.103C502.532 256.029 502.182 255.604 501.545 256.58C510.68 262.235 518.34 269.864 525.289 277.959L535.857 272.845L546.668 269.216L546.668 269.227ZM503.911 675.384C503.211 676.095 503.306 677.018 504.452 677.092C518.404 674.514 532.568 671.416 545.31 665.114C542.435 663.788 539.347 663.077 536.44 661.804C532.589 660.127 529.12 657.655 525.3 655.926C519.147 662.26 513.523 668.742 506.383 674.015C505.683 674.535 504.251 675.034 503.922 675.384L503.911 675.384ZM514.627 467.616C517.64 468.719 520.823 468.242 523.847 468.56C524.982 468.677 527.178 470.162 527.974 468.995C528.578 468.104 528.228 465.706 526.998 465.462C523.465 466.364 519.783 466.269 516.197 466.693C515.518 466.778 514.807 466.778 514.637 467.605L514.627 467.616ZM518.987 285.099C519.465 284.547 521.417 282.298 521.417 281.874C508.537 264.729 488.4 250.851 465.971 257.143C448.306 262.097 430.938 281.47 422.631 297.311C421.909 298.69 419.872 301.873 420.7 303.103C422.525 305.82 427.83 309.543 430.44 312.334C436.943 319.283 442.853 328.535 447.436 336.863C460.942 361.403 468.825 389.742 472.188 417.517L473.462 416.764C478.077 381.996 484.379 345.319 499.869 313.618C505.237 302.637 511.073 294.202 518.977 285.11L518.987 285.099ZM472.655 514.564C467.255 550.456 456.667 589.828 432.71 617.944C428.625 622.739 423.756 626.887 419.83 631.694C434.026 658.112 461.25 689.399 494.628 674.44C502.903 670.726 512.155 663.204 518.033 656.308C521.311 652.467 522.011 652.425 518.69 648.414C491.519 615.599 481.525 574.402 475.435 532.77C474.576 526.913 474.247 521.088 473.557 515.232C473.483 514.595 473.302 513.948 472.655 514.564ZM470.82 462.63C471.976 451.977 470.767 441.05 469.43 430.429C464.825 393.741 455.011 352.502 432.211 322.752C427.936 317.172 423.183 311.846 417.358 307.814C415.968 308.143 407.48 329.235 406.441 332.121C396.563 359.44 388.754 395.057 386.887 424.064C386.579 428.891 387.259 429.379 390.728 432.392C403.364 443.373 425.029 453.208 441.049 457.908C450.693 460.741 460.666 463.255 470.82 462.63ZM471.202 471.552C471.011 470.916 470.438 470.385 469.748 470.375C445.282 473.122 422.44 480.708 401.815 494.076C399.332 495.689 387.598 503.763 386.972 505.864C386.686 506.819 386.824 508.749 386.887 509.832C388.182 530.499 392.966 555.188 398.197 575.25C402.717 592.587 408.913 609.626 416.912 625.625C427.819 618.177 436.02 606.177 442.482 594.783C460.879 562.328 470.109 516.346 471.308 479.159C471.361 477.462 471.594 472.878 471.202 471.563L471.202 471.552ZM351.674 302.849L365.679 294.52C377.264 289.385 388.256 288.568 400.414 292.25C405.751 293.862 410.6 296.812 415.48 299.22C423.299 285.47 432.339 272.951 444.656 262.904C447.595 260.506 450.513 258.957 453.547 256.899C454.131 256.506 454.778 256.389 454.587 255.456C428.074 257.8 401.316 266.999 378.612 280.823C370.421 285.81 358.644 293.958 352.565 301.268C352.141 301.777 351.472 302 351.663 302.849L351.674 302.849ZM453.229 678.429C453.378 677.57 452.646 677.124 452.094 676.636C448.508 673.464 443.829 670.822 440.137 667.374C429.899 657.836 422.366 646.027 415.045 634.219C400.34 642.908 384.023 645.592 367.684 639.608C363.769 638.176 360.374 635.948 356.639 634.187C356.512 634.919 356.989 635.407 357.35 635.948C359.207 638.728 372.49 648.361 375.991 650.717C398.759 666.069 426.175 674.546 453.24 678.418L453.229 678.429ZM385.073 462.884C384.712 465.515 385.073 469.536 385.073 472.358C385.073 472.518 386.07 473.526 386.548 473.366C403.809 470.279 421.347 469.282 438.789 467.605C437.569 465.685 434.906 466.502 433.156 466.258C423.512 464.921 413.931 464.157 404.266 463.096C398.239 462.428 392.181 461.399 386.176 460.508C385.763 460.592 385.126 462.47 385.073 462.874L385.073 462.884ZM385.975 489.97L385.975 497.641L386.898 498.119L419.841 477.324C419.851 476.252 412.679 478.788 412.043 479C405.592 481.249 397.783 484.209 391.545 486.936C390.463 487.414 386.208 489.164 385.985 489.949L385.975 489.97ZM386.431 436.021L386.198 444.148C386.558 444.89 393.677 448.307 395.014 448.869C399.979 450.948 411.799 455.489 416.753 456.03C417.528 456.115 417.814 456.667 418.472 455.648C409.687 451.086 401.2 446.068 393.062 440.445C391.969 439.692 387.216 435.49 386.442 436.021L386.431 436.021ZM412.552 304.069C392.298 289.131 368.129 294.181 350.528 310.509C342.624 317.84 333.054 331.028 328.418 340.757C327.229 343.24 325.829 344.937 326.741 347.865C327.41 349.998 330.349 355.897 331.569 357.923C332.248 359.048 332.874 360.183 333.818 361.117C334.741 361.891 335.834 361.064 336.98 361.053C345.955 360.936 349.17 360.703 356.183 366.708C368.628 377.371 375.98 399.555 379.524 415.141C380.002 417.242 379.662 419.958 381.232 421.549C382.548 421.581 383.948 405.178 384.224 403.332C388.319 376.119 394.505 347.812 404.722 322.264C405.687 319.845 412.796 305.013 412.552 304.058L412.552 304.069ZM381.041 512.792C376.288 531.274 370.601 555.304 355.281 568.068C348.873 573.404 342.645 573.945 334.518 573.001C333.998 573.266 332.577 575.834 332.184 576.566C331.473 577.871 326.847 587.664 326.858 588.311C326.858 590.199 329.754 595.122 330.826 597.032C345.849 623.811 377.254 651.3 408.955 631.672C409.815 631.142 412.626 629.561 412.531 628.638C394.622 592.64 386.24 552.673 382.357 512.76L381.041 512.792ZM385.529 484.316C389.784 482.194 394.515 480.878 398.781 478.841C399.162 478.661 403.12 476.963 402.229 476.199L386.431 478.226C384.829 479.011 385.752 482.767 385.529 484.316ZM399.067 456.784C399.279 455.744 398.961 456.062 398.494 455.765C396.998 454.831 388.542 450.959 386.993 450.566C384.245 449.877 384.85 453.611 385.635 455.341L399.078 456.784L399.067 456.784ZM351.239 452.741C350.135 453.505 350.146 471.563 350.295 474.183C350.369 475.531 350.708 480.528 351.653 480.952L379.439 473.95C379.577 471.701 380.214 459.627 379.1 458.704L351.25 452.741L351.239 452.741ZM352.236 486.236C351.897 486.522 351.759 487.233 351.748 487.679C351.727 489.291 354.369 500.474 355.504 500.559L378.559 487.053C379.821 485.822 379.047 482.321 379.142 480.549L378.187 479.891C371.747 481.186 365.222 482.31 358.888 484.082C357.7 484.411 352.841 485.716 352.236 486.225L352.236 486.236ZM378.75 453.622C378.453 451.405 379.651 448.36 377.625 446.853C374.113 445.622 358.008 433.718 355.939 433.761C353.637 433.814 352.3 444.243 351.769 446.291L352.098 447.086C360.586 450.609 369.869 451.542 378.75 453.633L378.75 453.622ZM377.392 440.084C376.85 434.143 375.111 428.063 371.302 423.374C370.432 422.302 366.888 418.61 365.891 417.931C365.36 417.571 365.445 417.486 364.777 417.719C363.344 418.218 357.827 424.223 357.308 425.655C356.618 427.554 358.676 428.944 360.024 430.132C361.551 431.49 376.628 440.901 377.392 440.073L377.392 440.084ZM377.392 494.257C371.429 497.005 365.339 499.784 360.098 503.816C358.549 505.004 356.13 506.203 356.873 508.23C357.785 510.723 361.679 514.044 363.238 516.325C366.061 518.15 370.739 512.251 372.182 510.023C375.026 505.63 377.158 499.477 377.402 494.257L377.392 494.257ZM374.23 417.061C374.729 416.372 373.084 410.144 372.755 408.839C369.445 396.033 359.27 370.124 345.191 366.432C343.388 365.955 336.025 364.66 336.874 367.96C337.521 370.453 342.019 377.668 343.632 380.182C351.154 391.916 360.469 403.693 370.166 413.687C371.387 414.939 372.607 416.361 374.241 417.061L374.23 417.061ZM337.234 568.259C349.159 571.346 358.188 558.859 363.122 549.724C368.554 539.666 372.501 528.133 374.23 516.823C374.166 516.738 372.914 517.481 372.649 517.725C370.538 519.646 367.005 523.942 364.978 526.298C356.3 536.345 347.144 548.684 340.757 560.312C340.12 561.469 336.661 567.431 337.234 568.269L337.234 568.259ZM362.496 413.9C363.09 413.104 355.769 405.359 354.836 404.192C348.056 395.789 342.093 387.11 336.407 377.933C335.706 376.798 332.142 369.986 331.728 369.753C330.391 368.968 326.052 373.297 325.023 374.4C322.031 377.572 319.728 381.371 317.914 385.317C325.383 400.839 338.55 413.327 351.971 423.788L353.032 423.639C355.313 419.968 358.082 415.173 362.496 413.9ZM361.318 522.85C361.509 522.606 362.018 522.499 362.283 522.255C363.302 520.622 360.109 519.762 358.941 518.818C358.199 518.213 357.541 517.513 356.862 516.834L352.363 510.5C340.226 518.521 329.521 529.82 321.511 541.968C320.789 543.061 317.872 547.347 317.819 548.238C317.681 550.318 323.219 557.936 324.81 559.729C325.914 560.97 330.486 565.543 331.972 565.097C332.757 564.864 338.656 553.851 339.759 552.079C346.507 541.247 353.722 532.844 361.329 522.86L361.318 522.85ZM346.698 488.379C333.754 491.509 320.503 498.49 311.707 508.686C309.808 510.882 306.954 514.16 306.933 517.046C306.88 524.621 311.4 534.998 314.88 541.65C315.835 541.873 320.704 534.372 321.691 533.12C330.189 522.362 339.876 513.184 350.549 504.622L346.687 488.379L346.698 488.379ZM314.699 392.733C311.856 399.863 307.676 408.733 307.029 416.435C306.679 420.594 311.23 424.562 314.19 427.215C323.039 435.161 335.133 442.079 346.719 444.858C347.292 444.402 350.167 431.862 350.21 430.695C350.231 430.005 350.21 429.676 349.817 429.071C348.799 427.501 341.924 422.737 339.929 420.891C330.964 412.637 322.243 403.184 315.962 392.723L314.71 392.723L314.699 392.733ZM345.722 451.214C345.382 450.216 336.831 447.277 335.102 446.482C324.259 441.474 314.477 435.331 306.063 426.769C305.469 426.408 304.917 426.355 304.482 426.992C303.888 427.862 302.658 436.774 302.456 438.503C300.408 456.54 300.334 478.204 302.509 496.22C302.668 497.546 304.153 508.24 304.939 508.23C315.93 495.392 330.041 488.432 345.573 482.512L345.722 451.203L345.722 451.214ZM329.044 570.412C328.821 569.659 323.187 565.829 322.084 564.694C320.418 562.975 316.45 555.983 315.569 555.41C314.986 555.029 314.837 555.156 314.424 555.644C313.745 556.662 315.538 562.116 316.004 563.559C316.747 565.861 322.2 580.492 323.219 581.171C323.824 581.574 323.962 581.425 324.344 580.916C324.885 578.635 329.595 572.312 329.044 570.412ZM328.566 363.228C328.195 360.809 324.365 356.279 323.887 353.435C322.646 351.844 321.256 355.536 320.758 356.597C318.805 360.724 314.084 373.021 313.776 377.18C313.713 378.039 313.617 378.591 314.424 379.143C315.569 379.185 320.556 371.716 321.861 370.337C323.336 368.777 328.874 365.233 328.566 363.228ZM292.536 538.488C293.215 538.562 293.618 538.573 294.117 538.043C295.008 537.098 296.154 529.544 296.727 527.56C297.671 524.261 300.355 519.847 301.002 517.386C301.777 514.394 298.106 501.45 297.565 497.121C295.263 479 295.188 455.754 297.565 437.654C298.18 432.965 301.448 420.902 301.108 417.316C300.928 415.502 297.522 410.016 296.812 407.131C296.408 405.518 295.443 396.054 294.541 395.81L292.992 395.842C289.247 415.544 288.61 435.66 288.016 455.648C287.528 471.923 287.411 488.103 288.472 504.4C289.226 515.837 290.647 527.2 292.536 538.488Z" fill="black"/>
<path d="M497.094 758.337L497.041 762.803L479.906 763.504L479.036 781.816C478.028 781.869 473.615 782.113 473.615 780.68L473.615 763.981L472.936 763.302L456.682 763.302L456.077 762.549C455.95 762.135 456.024 761.71 455.982 761.286C455.886 760.161 455.759 758.57 456.682 757.88L473.158 757.88L473.668 741.011C474.113 739.632 477.795 740.491 479.026 740.268L479.705 757.424C479.832 757.626 480.935 758.326 481.063 758.326L497.083 758.326L497.094 758.337Z" fill="black"/>
<path d="M177.132 722.275L181.302 722.275L182.044 723.358L182.501 757.436L322.176 757.489C323.184 757.733 323.555 762.857 321.762 762.857C299.822 763.6 277.807 763.335 255.834 763.324C241.925 763.324 227.825 763.271 213.894 763.324C201.683 763.366 189.535 763.271 177.376 762.793L176.612 761.298C177.323 749.362 175.742 736.514 176.612 724.694C176.676 723.856 176.782 723.05 177.132 722.286L177.132 722.275Z" fill="black"/>
<path d="M769.61 763.301L626.328 763.248C625.341 763.004 624.917 757.529 626.742 757.413C627.505 757.359 628.768 757.869 629.882 757.901C674.071 759.057 718.366 756.776 762.513 757.773L763.977 756.978L764.263 722.953C764.709 721.573 768.39 722.433 769.621 722.21L769.621 763.29L769.61 763.301Z" fill="black"/>
<path d="M497.094 175.238L497.041 170.771L479.906 170.071L479.036 151.759C478.028 151.706 473.615 151.462 473.615 152.894L473.615 169.593L472.936 170.272L456.682 170.272L456.077 171.026C455.95 171.439 456.024 171.864 455.982 172.288C455.886 173.413 455.759 175.004 456.682 175.694L473.158 175.694L473.668 192.563C474.113 193.942 477.795 193.083 479.026 193.306L479.705 176.15C479.832 175.948 480.935 175.248 481.063 175.248L497.083 175.248L497.094 175.238Z" fill="black"/>
<path d="M177.132 211.299L181.302 211.299L182.044 210.217L182.501 176.139L322.176 176.086C323.184 175.842 323.555 170.717 321.762 170.717C299.822 169.974 277.807 170.24 255.834 170.25C241.925 170.25 227.825 170.303 213.894 170.25C201.683 170.208 189.535 170.303 177.376 170.781L176.612 172.277C177.323 184.212 175.742 197.061 176.612 208.88C176.676 209.718 176.782 210.524 177.132 211.288L177.132 211.299Z" fill="black"/>
<path d="M769.61 170.273L626.328 170.326C625.341 170.57 624.917 176.045 626.742 176.162C627.505 176.215 628.768 175.705 629.882 175.674C674.071 174.517 718.366 176.798 762.513 175.801L763.977 176.597L764.263 210.622C764.709 212.001 768.39 211.142 769.621 211.364L769.621 170.284L769.61 170.273Z" fill="black"/>
<path d="M194.73 413.55C253.03 347.352 351.318 306.69 438.45 299.571C545.416 290.822 660.556 318.272 741.666 390.528C755.125 402.499 794.691 445.959 799.012 461.402C802.766 474.826 773.265 510.564 763.171 521.721C631.872 666.833 358.93 670.907 215.518 541.201C203.015 529.903 164.254 486.231 160.322 472.134C156.674 459.029 184.99 424.601 194.73 413.55Z" fill="#FFD600"/>
<g clip-path="url(#clip1_4299_29160)">
<circle cx="481.8" cy="469.72" r="115.717" transform="rotate(180 481.8 469.72)" fill="black" stroke="white" stroke-width="34.2865"/>
<path d="M1188.81 732.082C1000.54 1240.39 329.544 1391.03 -50.7391 1003.86C-510.559 535.682 -205.647 -251.165 449.669 -284.099C980.376 -310.739 1374.6 230.423 1188.81 732.082ZM1194.2 472.154C1214.35 78.2218 814.391 -259.95 479.756 -249.851L476.8 469.578L1194.2 472.154ZM476.8 469.578L-232.274 476.882C-193.222 1013.65 250.219 1188.43 471.792 1183.37L476.8 469.578Z" fill="black"/>
<rect x="559.551" y="547.297" width="158.14" height="158.14" rx="79.0699" transform="rotate(180 559.551 547.297)" fill="white"/>
<circle cx="480.481" cy="468.227" r="79.0699" transform="rotate(180 480.481 468.227)" fill="white"/>
<path d="M475.125 481.597L475.125 516.004L491.999 516.004L491.999 488.452L503.468 478.301L528.91 478.301L528.91 461.955L494.767 461.955L475.125 481.597Z" fill="black"/>
<path d="M487.121 455.239V420.832H470.248V448.384L458.779 458.535H433.336V474.881H467.479L487.121 455.239Z" fill="black"/>
</g>
<g clip-path="url(#clip2_4299_29160)">
<path d="M76.7211 917.446C81.5932 917.638 87.4671 916.417 91.9412 918.146C92.6686 919.079 92.7372 930.21 92.4901 932.076C92.3804 932.872 92.3529 933.586 91.653 934.121C90.7197 934.848 79.5895 934.917 77.723 934.67C76.927 934.56 76.2133 934.533 75.6781 933.833C74.9507 932.913 74.8821 921.756 75.1291 919.903C75.2801 918.723 75.4585 917.885 76.7074 917.446H76.7211Z" fill="black"/>
<path d="M102.674 917.446C107.546 917.638 113.42 916.417 117.894 918.146C118.622 919.079 118.69 930.21 118.443 932.076C118.333 932.872 118.306 933.586 117.606 934.121C116.673 934.848 105.543 934.917 103.676 934.67C102.88 934.56 102.166 934.533 101.631 933.833C100.904 932.913 100.835 921.756 101.082 919.903C101.233 918.723 101.412 917.885 102.661 917.446H102.674Z" fill="black"/>
<path d="M128.643 917.446C133.515 917.638 139.389 916.417 143.863 918.146C144.59 919.079 144.659 930.21 144.412 932.076C144.302 932.872 144.275 933.586 143.575 934.121C142.642 934.848 131.511 934.917 129.645 934.67C128.849 934.56 128.135 934.533 127.6 933.833C126.873 932.913 126.804 921.756 127.051 919.903C127.202 918.723 127.38 917.885 128.629 917.446H128.643Z" fill="black"/>
<path d="M154.596 917.446C159.468 917.638 165.342 916.417 169.816 918.146C170.544 919.079 170.612 930.21 170.365 932.076C170.255 932.872 170.228 933.586 169.528 934.121C168.595 934.848 157.464 934.917 155.598 934.67C154.802 934.56 154.088 934.533 153.553 933.833C152.826 932.913 152.757 921.756 153.004 919.903C153.155 918.723 153.333 917.885 154.582 917.446H154.596Z" fill="black"/>
<path d="M180.561 917.446C185.433 917.638 191.307 916.417 195.781 918.146C196.508 919.079 196.577 930.21 196.33 932.076C196.22 932.872 196.193 933.586 195.493 934.121C194.56 934.848 183.429 934.917 181.563 934.67C180.767 934.56 180.053 934.533 179.518 933.833C178.791 932.913 178.722 921.756 178.969 919.903C179.12 918.723 179.298 917.885 180.547 917.446H180.561Z" fill="black"/>
<path d="M206.51 917.446C211.382 917.638 217.256 916.417 221.73 918.146C222.458 919.079 222.526 930.21 222.279 932.076C222.169 932.872 222.142 933.586 221.442 934.121C220.509 934.848 209.379 934.917 207.512 934.67C206.716 934.56 206.002 934.533 205.467 933.833C204.74 932.913 204.671 921.756 204.918 919.903C205.069 918.723 205.248 917.885 206.496 917.446H206.51Z" fill="black"/>
<path d="M232.479 917.446C237.351 917.638 243.225 916.417 247.699 918.146C248.426 919.079 248.495 930.21 248.248 932.076C248.138 932.872 248.111 933.586 247.411 934.121C246.478 934.848 235.347 934.917 233.481 934.67C232.685 934.56 231.971 934.533 231.436 933.833C230.709 932.913 230.64 921.756 230.887 919.903C231.038 918.723 231.216 917.885 232.465 917.446H232.479Z" fill="black"/>
<path d="M258.436 917.446C263.308 917.638 269.182 916.417 273.656 918.146C274.383 919.079 274.452 930.21 274.205 932.076C274.095 932.872 274.068 933.586 273.368 934.121C272.435 934.848 261.304 934.917 259.438 934.67C258.642 934.56 257.928 934.533 257.393 933.833C256.666 932.913 256.597 921.756 256.844 919.903C256.995 918.723 257.173 917.885 258.422 917.446H258.436Z" fill="black"/>
<path d="M284.397 917.446C289.269 917.638 295.143 916.417 299.617 918.146C300.344 919.079 300.413 930.21 300.166 932.076C300.056 932.872 300.029 933.586 299.329 934.121C298.396 934.848 287.265 934.917 285.399 934.67C284.603 934.56 283.889 934.533 283.354 933.833C282.626 932.913 282.558 921.756 282.805 919.903C282.956 918.723 283.134 917.885 284.383 917.446H284.397Z" fill="black"/>
<path d="M310.35 917.446C315.222 917.638 321.096 916.417 325.57 918.146C326.297 919.079 326.366 930.21 326.119 932.076C326.009 932.872 325.982 933.586 325.282 934.121C324.349 934.848 313.218 934.917 311.352 934.67C310.556 934.56 309.842 934.533 309.307 933.833C308.58 932.913 308.511 921.756 308.758 919.903C308.909 918.723 309.087 917.885 310.336 917.446H310.35Z" fill="black"/>
<path d="M336.319 917.446C341.191 917.638 347.065 916.417 351.539 918.146C352.266 919.079 352.335 930.21 352.088 932.076C351.978 932.872 351.951 933.586 351.251 934.121C350.317 934.848 339.187 934.917 337.321 934.67C336.525 934.56 335.811 934.533 335.276 933.833C334.548 932.913 334.48 921.756 334.727 919.903C334.878 918.723 335.056 917.885 336.305 917.446H336.319Z" fill="black"/>
<path d="M362.264 917.446C367.136 917.638 373.01 916.417 377.484 918.146C378.212 919.079 378.28 930.21 378.033 932.076C377.923 932.872 377.896 933.586 377.196 934.121C376.263 934.848 365.132 934.917 363.266 934.67C362.47 934.56 361.756 934.533 361.221 933.833C360.494 932.913 360.425 921.756 360.672 919.903C360.823 918.723 361.001 917.885 362.25 917.446H362.264Z" fill="black"/>
<path d="M388.237 917.446C393.109 917.638 398.983 916.417 403.457 918.146C404.184 919.079 404.253 930.21 404.006 932.076C403.896 932.872 403.869 933.586 403.169 934.121C402.235 934.848 391.105 934.917 389.239 934.67C388.443 934.56 387.729 934.533 387.194 933.833C386.466 932.913 386.398 921.756 386.645 919.903C386.796 918.723 386.974 917.885 388.223 917.446H388.237Z" fill="black"/>
<path d="M414.186 917.446C419.058 917.638 424.932 916.417 429.406 918.146C430.133 919.079 430.202 930.21 429.955 932.076C429.845 932.872 429.818 933.586 429.118 934.121C428.185 934.848 417.054 934.917 415.188 934.67C414.392 934.56 413.678 934.533 413.143 933.833C412.416 932.913 412.347 921.756 412.594 919.903C412.745 918.723 412.923 917.885 414.172 917.446H414.186Z" fill="black"/>
<path d="M440.151 917.446C445.023 917.638 450.897 916.417 455.371 918.146C456.098 919.079 456.167 930.21 455.92 932.076C455.81 932.872 455.783 933.586 455.083 934.121C454.149 934.848 443.019 934.917 441.153 934.67C440.357 934.56 439.643 934.533 439.108 933.833C438.38 932.913 438.312 921.756 438.559 919.903C438.71 918.723 438.888 917.885 440.137 917.446H440.151Z" fill="black"/>
<path d="M466.1 917.446C470.972 917.638 476.846 916.417 481.32 918.146C482.047 919.079 482.116 930.21 481.869 932.076C481.759 932.872 481.732 933.586 481.032 934.121C480.099 934.848 468.968 934.917 467.102 934.67C466.306 934.56 465.592 934.533 465.057 933.833C464.33 932.913 464.261 921.756 464.508 919.903C464.659 918.723 464.837 917.885 466.086 917.446H466.1Z" fill="black"/>
<path d="M492.069 917.446C496.941 917.638 502.815 916.417 507.289 918.146C508.016 919.079 508.085 930.21 507.838 932.076C507.728 932.872 507.701 933.586 507.001 934.121C506.067 934.848 494.937 934.917 493.071 934.67C492.275 934.56 491.561 934.533 491.026 933.833C490.298 932.913 490.23 921.756 490.477 919.903C490.628 918.723 490.806 917.885 492.055 917.446H492.069Z" fill="black"/>
<path d="M518.026 917.446C522.898 917.638 528.772 916.417 533.246 918.146C533.973 919.079 534.042 930.21 533.795 932.076C533.685 932.872 533.658 933.586 532.958 934.121C532.024 934.848 520.894 934.917 519.028 934.67C518.232 934.56 517.518 934.533 516.983 933.833C516.255 932.913 516.187 921.756 516.434 919.903C516.585 918.723 516.763 917.885 518.012 917.446H518.026Z" fill="black"/>
<path d="M543.975 917.446C548.847 917.638 554.721 916.417 559.195 918.146C559.922 919.079 559.991 930.21 559.744 932.076C559.634 932.872 559.607 933.586 558.907 934.121C557.974 934.848 546.843 934.917 544.977 934.67C544.181 934.56 543.467 934.533 542.932 933.833C542.205 932.913 542.136 921.756 542.383 919.903C542.534 918.723 542.712 917.885 543.961 917.446H543.975Z" fill="black"/>
<path d="M569.94 917.446C574.812 917.638 580.686 916.417 585.16 918.146C585.887 919.079 585.956 930.21 585.709 932.076C585.599 932.872 585.572 933.586 584.872 934.121C583.938 934.848 572.808 934.917 570.942 934.67C570.146 934.56 569.432 934.533 568.897 933.833C568.169 932.913 568.101 921.756 568.348 919.903C568.499 918.723 568.677 917.885 569.926 917.446H569.94Z" fill="black"/>
<path d="M595.893 917.446C600.765 917.638 606.639 916.417 611.113 918.146C611.84 919.079 611.909 930.21 611.662 932.076C611.552 932.872 611.525 933.586 610.825 934.121C609.892 934.848 598.761 934.917 596.895 934.67C596.099 934.56 595.385 934.533 594.85 933.833C594.123 932.913 594.054 921.756 594.301 919.903C594.452 918.723 594.63 917.885 595.879 917.446H595.893Z" fill="black"/>
<path d="M621.862 917.446C626.734 917.638 632.608 916.417 637.082 918.146C637.809 919.079 637.878 930.21 637.631 932.076C637.521 932.872 637.494 933.586 636.794 934.121C635.86 934.848 624.73 934.917 622.864 934.67C622.068 934.56 621.354 934.533 620.819 933.833C620.091 932.913 620.023 921.756 620.27 919.903C620.421 918.723 620.599 917.885 621.848 917.446H621.862Z" fill="black"/>
<path d="M647.815 917.446C652.687 917.638 658.561 916.417 663.035 918.146C663.762 919.079 663.831 930.21 663.584 932.076C663.474 932.872 663.447 933.586 662.747 934.121C661.813 934.848 650.683 934.917 648.817 934.67C648.021 934.56 647.307 934.533 646.772 933.833C646.044 932.913 645.976 921.756 646.223 919.903C646.374 918.723 646.552 917.885 647.801 917.446H647.815Z" fill="black"/>
<path d="M673.776 917.446C678.648 917.638 684.522 916.417 688.996 918.146C689.723 919.079 689.792 930.21 689.545 932.076C689.435 932.872 689.408 933.586 688.708 934.121C687.774 934.848 676.644 934.917 674.778 934.67C673.982 934.56 673.268 934.533 672.733 933.833C672.005 932.913 671.937 921.756 672.184 919.903C672.335 918.723 672.513 917.885 673.762 917.446H673.776Z" fill="black"/>
<path d="M699.729 917.446C704.601 917.638 710.475 916.417 714.949 918.146C715.676 919.079 715.745 930.21 715.498 932.076C715.388 932.872 715.361 933.586 714.661 934.121C713.728 934.848 702.597 934.917 700.731 934.67C699.935 934.56 699.221 934.533 698.686 933.833C697.959 932.913 697.89 921.756 698.137 919.903C698.288 918.723 698.466 917.885 699.715 917.446H699.729Z" fill="black"/>
<path d="M725.694 917.446C730.566 917.638 736.44 916.417 740.914 918.146C741.641 919.079 741.71 930.21 741.463 932.076C741.353 932.872 741.326 933.586 740.626 934.121C739.692 934.848 728.562 934.917 726.696 934.67C725.9 934.56 725.186 934.533 724.651 933.833C723.923 932.913 723.855 921.756 724.102 919.903C724.253 918.723 724.431 917.885 725.68 917.446H725.694Z" fill="black"/>
<path d="M751.651 917.446C756.523 917.638 762.397 916.417 766.871 918.146C767.598 919.079 767.667 930.21 767.42 932.076C767.31 932.872 767.283 933.586 766.583 934.121C765.649 934.848 754.519 934.917 752.653 934.67C751.857 934.56 751.143 934.533 750.608 933.833C749.88 932.913 749.812 921.756 750.059 919.903C750.21 918.723 750.388 917.885 751.637 917.446H751.651Z" fill="black"/>
<path d="M777.612 917.446C782.484 917.638 788.358 916.417 792.832 918.146C793.559 919.079 793.628 930.21 793.381 932.076C793.271 932.872 793.244 933.586 792.544 934.121C791.61 934.848 780.48 934.917 778.614 934.67C777.818 934.56 777.104 934.533 776.569 933.833C775.841 932.913 775.773 921.756 776.02 919.903C776.171 918.723 776.349 917.885 777.598 917.446H777.612Z" fill="black"/>
<path d="M803.565 917.446C808.437 917.638 814.311 916.417 818.785 918.146C819.512 919.079 819.581 930.21 819.334 932.076C819.224 932.872 819.197 933.586 818.497 934.121C817.563 934.848 806.433 934.917 804.567 934.67C803.771 934.56 803.057 934.533 802.522 933.833C801.794 932.913 801.726 921.756 801.973 919.903C802.124 918.723 802.302 917.885 803.551 917.446H803.565Z" fill="black"/>
<path d="M829.534 917.446C834.406 917.638 840.28 916.417 844.754 918.146C845.481 919.079 845.55 930.21 845.303 932.076C845.193 932.872 845.165 933.586 844.466 934.121C843.532 934.848 832.402 934.917 830.535 934.67C829.739 934.56 829.026 934.533 828.491 933.833C827.763 932.913 827.695 921.756 827.942 919.903C828.093 918.723 828.271 917.885 829.52 917.446H829.534Z" fill="black"/>
<path d="M855.487 917.446C860.359 917.638 866.233 916.417 870.707 918.146C871.434 919.079 871.503 930.21 871.256 932.076C871.146 932.872 871.119 933.586 870.419 934.121C869.485 934.848 858.355 934.917 856.489 934.67C855.693 934.56 854.979 934.533 854.444 933.833C853.716 932.913 853.648 921.756 853.895 919.903C854.046 918.723 854.224 917.885 855.473 917.446H855.487Z" fill="black"/>
<path d="M76.7211 943.399C81.5932 943.591 87.4671 942.37 91.9412 944.099C92.6686 945.032 92.7372 956.163 92.4901 958.029C92.3804 958.825 92.3529 959.539 91.653 960.074C90.7197 960.801 79.5895 960.87 77.723 960.623C76.927 960.513 76.2133 960.486 75.6781 959.786C74.9507 958.866 74.8821 947.709 75.1291 945.856C75.2801 944.676 75.4585 943.838 76.7074 943.399H76.7211Z" fill="black"/>
<path d="M102.674 943.399C107.546 943.591 113.42 942.37 117.894 944.099C118.622 945.032 118.69 956.163 118.443 958.029C118.333 958.825 118.306 959.539 117.606 960.074C116.673 960.801 105.543 960.87 103.676 960.623C102.88 960.513 102.166 960.486 101.631 959.786C100.904 958.866 100.835 947.709 101.082 945.856C101.233 944.676 101.412 943.838 102.661 943.399H102.674Z" fill="black"/>
<path d="M128.643 943.399C133.515 943.591 139.389 942.37 143.863 944.099C144.59 945.032 144.659 956.163 144.412 958.029C144.302 958.825 144.275 959.539 143.575 960.074C142.642 960.801 131.511 960.87 129.645 960.623C128.849 960.513 128.135 960.486 127.6 959.786C126.873 958.866 126.804 947.709 127.051 945.856C127.202 944.676 127.38 943.838 128.629 943.399H128.643Z" fill="black"/>
<path d="M154.596 943.399C159.468 943.591 165.342 942.37 169.816 944.099C170.544 945.032 170.612 956.163 170.365 958.029C170.255 958.825 170.228 959.539 169.528 960.074C168.595 960.801 157.464 960.87 155.598 960.623C154.802 960.513 154.088 960.486 153.553 959.786C152.826 958.866 152.757 947.709 153.004 945.856C153.155 944.676 153.333 943.838 154.582 943.399H154.596Z" fill="black"/>
<path d="M180.561 943.399C185.433 943.591 191.307 942.37 195.781 944.099C196.508 945.032 196.577 956.163 196.33 958.029C196.22 958.825 196.193 959.539 195.493 960.074C194.56 960.801 183.429 960.87 181.563 960.623C180.767 960.513 180.053 960.486 179.518 959.786C178.791 958.866 178.722 947.709 178.969 945.856C179.12 944.676 179.298 943.838 180.547 943.399H180.561Z" fill="black"/>
<path d="M206.51 943.399C211.382 943.591 217.256 942.37 221.73 944.099C222.458 945.032 222.526 956.163 222.279 958.029C222.169 958.825 222.142 959.539 221.442 960.074C220.509 960.801 209.379 960.87 207.512 960.623C206.716 960.513 206.002 960.486 205.467 959.786C204.74 958.866 204.671 947.709 204.918 945.856C205.069 944.676 205.248 943.838 206.496 943.399H206.51Z" fill="black"/>
<path d="M232.479 943.399C237.351 943.591 243.225 942.37 247.699 944.099C248.426 945.032 248.495 956.163 248.248 958.029C248.138 958.825 248.111 959.539 247.411 960.074C246.478 960.801 235.347 960.87 233.481 960.623C232.685 960.513 231.971 960.486 231.436 959.786C230.709 958.866 230.64 947.709 230.887 945.856C231.038 944.676 231.216 943.838 232.465 943.399H232.479Z" fill="black"/>
<path d="M258.436 943.399C263.308 943.591 269.182 942.37 273.656 944.099C274.383 945.032 274.452 956.163 274.205 958.029C274.095 958.825 274.068 959.539 273.368 960.074C272.435 960.801 261.304 960.87 259.438 960.623C258.642 960.513 257.928 960.486 257.393 959.786C256.666 958.866 256.597 947.709 256.844 945.856C256.995 944.676 257.173 943.838 258.422 943.399H258.436Z" fill="black"/>
<path d="M284.397 943.399C289.269 943.591 295.143 942.37 299.617 944.099C300.344 945.032 300.413 956.163 300.166 958.029C300.056 958.825 300.029 959.539 299.329 960.074C298.396 960.801 287.265 960.87 285.399 960.623C284.603 960.513 283.889 960.486 283.354 959.786C282.626 958.866 282.558 947.709 282.805 945.856C282.956 944.676 283.134 943.838 284.383 943.399H284.397Z" fill="black"/>
<path d="M310.35 943.399C315.222 943.591 321.096 942.37 325.57 944.099C326.297 945.032 326.366 956.163 326.119 958.029C326.009 958.825 325.982 959.539 325.282 960.074C324.349 960.801 313.218 960.87 311.352 960.623C310.556 960.513 309.842 960.486 309.307 959.786C308.58 958.866 308.511 947.709 308.758 945.856C308.909 944.676 309.087 943.838 310.336 943.399H310.35Z" fill="black"/>
<path d="M336.319 943.399C341.191 943.591 347.065 942.37 351.539 944.099C352.266 945.032 352.335 956.163 352.088 958.029C351.978 958.825 351.951 959.539 351.251 960.074C350.317 960.801 339.187 960.87 337.321 960.623C336.525 960.513 335.811 960.486 335.276 959.786C334.548 958.866 334.48 947.709 334.727 945.856C334.878 944.676 335.056 943.838 336.305 943.399H336.319Z" fill="black"/>
<path d="M362.264 943.399C367.136 943.591 373.01 942.37 377.484 944.099C378.212 945.032 378.28 956.163 378.033 958.029C377.923 958.825 377.896 959.539 377.196 960.074C376.263 960.801 365.132 960.87 363.266 960.623C362.47 960.513 361.756 960.486 361.221 959.786C360.494 958.866 360.425 947.709 360.672 945.856C360.823 944.676 361.001 943.838 362.25 943.399H362.264Z" fill="black"/>
<path d="M388.237 943.399C393.109 943.591 398.983 942.37 403.457 944.099C404.184 945.032 404.253 956.163 404.006 958.029C403.896 958.825 403.869 959.539 403.169 960.074C402.235 960.801 391.105 960.87 389.239 960.623C388.443 960.513 387.729 960.486 387.194 959.786C386.466 958.866 386.398 947.709 386.645 945.856C386.796 944.676 386.974 943.838 388.223 943.399H388.237Z" fill="black"/>
<path d="M414.186 943.399C419.058 943.591 424.932 942.37 429.406 944.099C430.133 945.032 430.202 956.163 429.955 958.029C429.845 958.825 429.818 959.539 429.118 960.074C428.185 960.801 417.054 960.87 415.188 960.623C414.392 960.513 413.678 960.486 413.143 959.786C412.416 958.866 412.347 947.709 412.594 945.856C412.745 944.676 412.923 943.838 414.172 943.399H414.186Z" fill="black"/>
<path d="M440.151 943.399C445.023 943.591 450.897 942.37 455.371 944.099C456.098 945.032 456.167 956.163 455.92 958.029C455.81 958.825 455.783 959.539 455.083 960.074C454.149 960.801 443.019 960.87 441.153 960.623C440.357 960.513 439.643 960.486 439.108 959.786C438.38 958.866 438.312 947.709 438.559 945.856C438.71 944.676 438.888 943.838 440.137 943.399H440.151Z" fill="black"/>
<path d="M466.1 943.399C470.972 943.591 476.846 942.37 481.32 944.099C482.047 945.032 482.116 956.163 481.869 958.029C481.759 958.825 481.732 959.539 481.032 960.074C480.099 960.801 468.968 960.87 467.102 960.623C466.306 960.513 465.592 960.486 465.057 959.786C464.33 958.866 464.261 947.709 464.508 945.856C464.659 944.676 464.837 943.838 466.086 943.399H466.1Z" fill="black"/>
<path d="M492.069 943.399C496.941 943.591 502.815 942.37 507.289 944.099C508.016 945.032 508.085 956.163 507.838 958.029C507.728 958.825 507.701 959.539 507.001 960.074C506.067 960.801 494.937 960.87 493.071 960.623C492.275 960.513 491.561 960.486 491.026 959.786C490.298 958.866 490.23 947.709 490.477 945.856C490.628 944.676 490.806 943.838 492.055 943.399H492.069Z" fill="black"/>
<path d="M518.026 943.399C522.898 943.591 528.772 942.37 533.246 944.099C533.973 945.032 534.042 956.163 533.795 958.029C533.685 958.825 533.658 959.539 532.958 960.074C532.024 960.801 520.894 960.87 519.028 960.623C518.232 960.513 517.518 960.486 516.983 959.786C516.255 958.866 516.187 947.709 516.434 945.856C516.585 944.676 516.763 943.838 518.012 943.399H518.026Z" fill="black"/>
<path d="M543.975 943.399C548.847 943.591 554.721 942.37 559.195 944.099C559.922 945.032 559.991 956.163 559.744 958.029C559.634 958.825 559.607 959.539 558.907 960.074C557.974 960.801 546.843 960.87 544.977 960.623C544.181 960.513 543.467 960.486 542.932 959.786C542.205 958.866 542.136 947.709 542.383 945.856C542.534 944.676 542.712 943.838 543.961 943.399H543.975Z" fill="black"/>
<path d="M569.94 943.399C574.812 943.591 580.686 942.37 585.16 944.099C585.887 945.032 585.956 956.163 585.709 958.029C585.599 958.825 585.572 959.539 584.872 960.074C583.938 960.801 572.808 960.87 570.942 960.623C570.146 960.513 569.432 960.486 568.897 959.786C568.169 958.866 568.101 947.709 568.348 945.856C568.499 944.676 568.677 943.838 569.926 943.399H569.94Z" fill="black"/>
<path d="M595.893 943.399C600.765 943.591 606.639 942.37 611.113 944.099C611.84 945.032 611.909 956.163 611.662 958.029C611.552 958.825 611.525 959.539 610.825 960.074C609.892 960.801 598.761 960.87 596.895 960.623C596.099 960.513 595.385 960.486 594.85 959.786C594.123 958.866 594.054 947.709 594.301 945.856C594.452 944.676 594.63 943.838 595.879 943.399H595.893Z" fill="black"/>
<path d="M621.862 943.399C626.734 943.591 632.608 942.37 637.082 944.099C637.809 945.032 637.878 956.163 637.631 958.029C637.521 958.825 637.494 959.539 636.794 960.074C635.86 960.801 624.73 960.87 622.864 960.623C622.068 960.513 621.354 960.486 620.819 959.786C620.091 958.866 620.023 947.709 620.27 945.856C620.421 944.676 620.599 943.838 621.848 943.399H621.862Z" fill="black"/>
<path d="M647.815 943.399C652.687 943.591 658.561 942.37 663.035 944.099C663.762 945.032 663.831 956.163 663.584 958.029C663.474 958.825 663.447 959.539 662.747 960.074C661.813 960.801 650.683 960.87 648.817 960.623C648.021 960.513 647.307 960.486 646.772 959.786C646.044 958.866 645.976 947.709 646.223 945.856C646.374 944.676 646.552 943.838 647.801 943.399H647.815Z" fill="black"/>
<path d="M673.776 943.399C678.648 943.591 684.522 942.37 688.996 944.099C689.723 945.032 689.792 956.163 689.545 958.029C689.435 958.825 689.408 959.539 688.708 960.074C687.774 960.801 676.644 960.87 674.778 960.623C673.982 960.513 673.268 960.486 672.733 959.786C672.005 958.866 671.937 947.709 672.184 945.856C672.335 944.676 672.513 943.838 673.762 943.399H673.776Z" fill="black"/>
<path d="M699.729 943.399C704.601 943.591 710.475 942.37 714.949 944.099C715.676 945.032 715.745 956.163 715.498 958.029C715.388 958.825 715.361 959.539 714.661 960.074C713.728 960.801 702.597 960.87 700.731 960.623C699.935 960.513 699.221 960.486 698.686 959.786C697.959 958.866 697.89 947.709 698.137 945.856C698.288 944.676 698.466 943.838 699.715 943.399H699.729Z" fill="black"/>
<path d="M725.694 943.399C730.566 943.591 736.44 942.37 740.914 944.099C741.641 945.032 741.71 956.163 741.463 958.029C741.353 958.825 741.326 959.539 740.626 960.074C739.692 960.801 728.562 960.87 726.696 960.623C725.9 960.513 725.186 960.486 724.651 959.786C723.923 958.866 723.855 947.709 724.102 945.856C724.253 944.676 724.431 943.838 725.68 943.399H725.694Z" fill="black"/>
<path d="M751.651 943.399C756.523 943.591 762.397 942.37 766.871 944.099C767.598 945.032 767.667 956.163 767.42 958.029C767.31 958.825 767.283 959.539 766.583 960.074C765.649 960.801 754.519 960.87 752.653 960.623C751.857 960.513 751.143 960.486 750.608 959.786C749.88 958.866 749.812 947.709 750.059 945.856C750.21 944.676 750.388 943.838 751.637 943.399H751.651Z" fill="black"/>
<path d="M777.612 943.399C782.484 943.591 788.358 942.37 792.832 944.099C793.559 945.032 793.628 956.163 793.381 958.029C793.271 958.825 793.244 959.539 792.544 960.074C791.61 960.801 780.48 960.87 778.614 960.623C777.818 960.513 777.104 960.486 776.569 959.786C775.841 958.866 775.773 947.709 776.02 945.856C776.171 944.676 776.349 943.838 777.598 943.399H777.612Z" fill="black"/>
<path d="M803.565 943.399C808.437 943.591 814.311 942.37 818.785 944.099C819.512 945.032 819.581 956.163 819.334 958.029C819.224 958.825 819.197 959.539 818.497 960.074C817.563 960.801 806.433 960.87 804.567 960.623C803.771 960.513 803.057 960.486 802.522 959.786C801.794 958.866 801.726 947.709 801.973 945.856C802.124 944.676 802.302 943.838 803.551 943.399H803.565Z" fill="black"/>
<path d="M829.534 943.399C834.406 943.591 840.28 942.37 844.754 944.099C845.481 945.032 845.55 956.163 845.303 958.029C845.193 958.825 845.165 959.539 844.466 960.074C843.532 960.801 832.402 960.87 830.535 960.623C829.739 960.513 829.026 960.486 828.491 959.786C827.763 958.866 827.695 947.709 827.942 945.856C828.093 944.676 828.271 943.838 829.52 943.399H829.534Z" fill="black"/>
<path d="M855.487 943.399C860.359 943.591 866.233 942.37 870.707 944.099C871.434 945.032 871.503 956.163 871.256 958.029C871.146 958.825 871.119 959.539 870.419 960.074C869.485 960.801 858.355 960.87 856.489 960.623C855.693 960.513 854.979 960.486 854.444 959.786C853.716 958.866 853.648 947.709 853.895 945.856C854.046 944.676 854.224 943.838 855.473 943.399H855.487Z" fill="black"/>
<path d="M76.7211 969.366C81.5932 969.558 87.4671 968.337 91.9412 970.066C92.6686 970.999 92.7372 982.129 92.4901 983.996C92.3804 984.792 92.3529 985.506 91.653 986.041C90.7197 986.768 79.5895 986.837 77.723 986.59C76.927 986.48 76.2133 986.453 75.6781 985.753C74.9507 984.833 74.8821 973.675 75.1291 971.823C75.2801 970.642 75.4585 969.805 76.7074 969.366H76.7211Z" fill="black"/>
<path d="M102.674 969.366C107.546 969.558 113.42 968.337 117.894 970.066C118.622 970.999 118.69 982.129 118.443 983.996C118.333 984.792 118.306 985.506 117.606 986.041C116.673 986.768 105.543 986.837 103.676 986.59C102.88 986.48 102.166 986.453 101.631 985.753C100.904 984.833 100.835 973.675 101.082 971.823C101.233 970.642 101.412 969.805 102.661 969.366H102.674Z" fill="black"/>
<path d="M128.643 969.366C133.515 969.558 139.389 968.337 143.863 970.066C144.59 970.999 144.659 982.129 144.412 983.996C144.302 984.792 144.275 985.506 143.575 986.041C142.642 986.768 131.511 986.837 129.645 986.59C128.849 986.48 128.135 986.453 127.6 985.753C126.873 984.833 126.804 973.675 127.051 971.823C127.202 970.642 127.38 969.805 128.629 969.366H128.643Z" fill="black"/>
<path d="M154.596 969.366C159.468 969.558 165.342 968.337 169.816 970.066C170.544 970.999 170.612 982.129 170.365 983.996C170.255 984.792 170.228 985.506 169.528 986.041C168.595 986.768 157.464 986.837 155.598 986.59C154.802 986.48 154.088 986.453 153.553 985.753C152.826 984.833 152.757 973.675 153.004 971.823C153.155 970.642 153.333 969.805 154.582 969.366H154.596Z" fill="black"/>
<path d="M180.561 969.366C185.433 969.558 191.307 968.337 195.781 970.066C196.508 970.999 196.577 982.129 196.33 983.996C196.22 984.792 196.193 985.506 195.493 986.041C194.56 986.768 183.429 986.837 181.563 986.59C180.767 986.48 180.053 986.453 179.518 985.753C178.791 984.833 178.722 973.675 178.969 971.823C179.12 970.642 179.298 969.805 180.547 969.366H180.561Z" fill="black"/>
<path d="M206.51 969.366C211.382 969.558 217.256 968.337 221.73 970.066C222.458 970.999 222.526 982.129 222.279 983.996C222.169 984.792 222.142 985.506 221.442 986.041C220.509 986.768 209.379 986.837 207.512 986.59C206.716 986.48 206.002 986.453 205.467 985.753C204.74 984.833 204.671 973.675 204.918 971.823C205.069 970.642 205.248 969.805 206.496 969.366H206.51Z" fill="black"/>
<path d="M232.479 969.366C237.351 969.558 243.225 968.337 247.699 970.066C248.426 970.999 248.495 982.129 248.248 983.996C248.138 984.792 248.111 985.506 247.411 986.041C246.478 986.768 235.347 986.837 233.481 986.59C232.685 986.48 231.971 986.453 231.436 985.753C230.709 984.833 230.64 973.675 230.887 971.823C231.038 970.642 231.216 969.805 232.465 969.366H232.479Z" fill="black"/>
<path d="M258.436 969.366C263.308 969.558 269.182 968.337 273.656 970.066C274.383 970.999 274.452 982.129 274.205 983.996C274.095 984.792 274.068 985.506 273.368 986.041C272.435 986.768 261.304 986.837 259.438 986.59C258.642 986.48 257.928 986.453 257.393 985.753C256.666 984.833 256.597 973.675 256.844 971.823C256.995 970.642 257.173 969.805 258.422 969.366H258.436Z" fill="black"/>
<path d="M284.397 969.366C289.269 969.558 295.143 968.337 299.617 970.066C300.344 970.999 300.413 982.129 300.166 983.996C300.056 984.792 300.029 985.506 299.329 986.041C298.396 986.768 287.265 986.837 285.399 986.59C284.603 986.48 283.889 986.453 283.354 985.753C282.626 984.833 282.558 973.675 282.805 971.823C282.956 970.642 283.134 969.805 284.383 969.366H284.397Z" fill="black"/>
<path d="M310.35 969.366C315.222 969.558 321.096 968.337 325.57 970.066C326.297 970.999 326.366 982.129 326.119 983.996C326.009 984.792 325.982 985.506 325.282 986.041C324.349 986.768 313.218 986.837 311.352 986.59C310.556 986.48 309.842 986.453 309.307 985.753C308.58 984.833 308.511 973.675 308.758 971.823C308.909 970.642 309.087 969.805 310.336 969.366H310.35Z" fill="black"/>
<path d="M336.319 969.366C341.191 969.558 347.065 968.337 351.539 970.066C352.266 970.999 352.335 982.129 352.088 983.996C351.978 984.792 351.951 985.506 351.251 986.041C350.317 986.768 339.187 986.837 337.321 986.59C336.525 986.48 335.811 986.453 335.276 985.753C334.548 984.833 334.48 973.675 334.727 971.823C334.878 970.642 335.056 969.805 336.305 969.366H336.319Z" fill="black"/>
<path d="M362.264 969.366C367.136 969.558 373.01 968.337 377.484 970.066C378.212 970.999 378.28 982.129 378.033 983.996C377.923 984.792 377.896 985.506 377.196 986.041C376.263 986.768 365.132 986.837 363.266 986.59C362.47 986.48 361.756 986.453 361.221 985.753C360.494 984.833 360.425 973.675 360.672 971.823C360.823 970.642 361.001 969.805 362.25 969.366H362.264Z" fill="black"/>
<path d="M388.237 969.366C393.109 969.558 398.983 968.337 403.457 970.066C404.184 970.999 404.253 982.129 404.006 983.996C403.896 984.792 403.869 985.506 403.169 986.041C402.235 986.768 391.105 986.837 389.239 986.59C388.443 986.48 387.729 986.453 387.194 985.753C386.466 984.833 386.398 973.675 386.645 971.823C386.796 970.642 386.974 969.805 388.223 969.366H388.237Z" fill="black"/>
<path d="M414.186 969.366C419.058 969.558 424.932 968.337 429.406 970.066C430.133 970.999 430.202 982.129 429.955 983.996C429.845 984.792 429.818 985.506 429.118 986.041C428.185 986.768 417.054 986.837 415.188 986.59C414.392 986.48 413.678 986.453 413.143 985.753C412.416 984.833 412.347 973.675 412.594 971.823C412.745 970.642 412.923 969.805 414.172 969.366H414.186Z" fill="black"/>
<path d="M440.151 969.366C445.023 969.558 450.897 968.337 455.371 970.066C456.098 970.999 456.167 982.129 455.92 983.996C455.81 984.792 455.783 985.506 455.083 986.041C454.149 986.768 443.019 986.837 441.153 986.59C440.357 986.48 439.643 986.453 439.108 985.753C438.38 984.833 438.312 973.675 438.559 971.823C438.71 970.642 438.888 969.805 440.137 969.366H440.151Z" fill="black"/>
<path d="M466.1 969.366C470.972 969.558 476.846 968.337 481.32 970.066C482.047 970.999 482.116 982.129 481.869 983.996C481.759 984.792 481.732 985.506 481.032 986.041C480.099 986.768 468.968 986.837 467.102 986.59C466.306 986.48 465.592 986.453 465.057 985.753C464.33 984.833 464.261 973.675 464.508 971.823C464.659 970.642 464.837 969.805 466.086 969.366H466.1Z" fill="black"/>
<path d="M492.069 969.366C496.941 969.558 502.815 968.337 507.289 970.066C508.016 970.999 508.085 982.129 507.838 983.996C507.728 984.792 507.701 985.506 507.001 986.041C506.067 986.768 494.937 986.837 493.071 986.59C492.275 986.48 491.561 986.453 491.026 985.753C490.298 984.833 490.23 973.675 490.477 971.823C490.628 970.642 490.806 969.805 492.055 969.366H492.069Z" fill="black"/>
<path d="M518.026 969.366C522.898 969.558 528.772 968.337 533.246 970.066C533.973 970.999 534.042 982.129 533.795 983.996C533.685 984.792 533.658 985.506 532.958 986.041C532.024 986.768 520.894 986.837 519.028 986.59C518.232 986.48 517.518 986.453 516.983 985.753C516.255 984.833 516.187 973.675 516.434 971.823C516.585 970.642 516.763 969.805 518.012 969.366H518.026Z" fill="black"/>
<path d="M543.975 969.366C548.847 969.558 554.721 968.337 559.195 970.066C559.922 970.999 559.991 982.129 559.744 983.996C559.634 984.792 559.607 985.506 558.907 986.041C557.974 986.768 546.843 986.837 544.977 986.59C544.181 986.48 543.467 986.453 542.932 985.753C542.205 984.833 542.136 973.675 542.383 971.823C542.534 970.642 542.712 969.805 543.961 969.366H543.975Z" fill="black"/>
<path d="M569.94 969.366C574.812 969.558 580.686 968.337 585.16 970.066C585.887 970.999 585.956 982.129 585.709 983.996C585.599 984.792 585.572 985.506 584.872 986.041C583.938 986.768 572.808 986.837 570.942 986.59C570.146 986.48 569.432 986.453 568.897 985.753C568.169 984.833 568.101 973.675 568.348 971.823C568.499 970.642 568.677 969.805 569.926 969.366H569.94Z" fill="black"/>
<path d="M595.893 969.366C600.765 969.558 606.639 968.337 611.113 970.066C611.84 970.999 611.909 982.129 611.662 983.996C611.552 984.792 611.525 985.506 610.825 986.041C609.892 986.768 598.761 986.837 596.895 986.59C596.099 986.48 595.385 986.453 594.85 985.753C594.123 984.833 594.054 973.675 594.301 971.823C594.452 970.642 594.63 969.805 595.879 969.366H595.893Z" fill="black"/>
<path d="M621.862 969.366C626.734 969.558 632.608 968.337 637.082 970.066C637.809 970.999 637.878 982.129 637.631 983.996C637.521 984.792 637.494 985.506 636.794 986.041C635.86 986.768 624.73 986.837 622.864 986.59C622.068 986.48 621.354 986.453 620.819 985.753C620.091 984.833 620.023 973.675 620.27 971.823C620.421 970.642 620.599 969.805 621.848 969.366H621.862Z" fill="black"/>
<path d="M647.815 969.366C652.687 969.558 658.561 968.337 663.035 970.066C663.762 970.999 663.831 982.129 663.584 983.996C663.474 984.792 663.447 985.506 662.747 986.041C661.813 986.768 650.683 986.837 648.817 986.59C648.021 986.48 647.307 986.453 646.772 985.753C646.044 984.833 645.976 973.675 646.223 971.823C646.374 970.642 646.552 969.805 647.801 969.366H647.815Z" fill="black"/>
<path d="M673.776 969.366C678.648 969.558 684.522 968.337 688.996 970.066C689.723 970.999 689.792 982.129 689.545 983.996C689.435 984.792 689.408 985.506 688.708 986.041C687.774 986.768 676.644 986.837 674.778 986.59C673.982 986.48 673.268 986.453 672.733 985.753C672.005 984.833 671.937 973.675 672.184 971.823C672.335 970.642 672.513 969.805 673.762 969.366H673.776Z" fill="black"/>
<path d="M699.729 969.366C704.601 969.558 710.475 968.337 714.949 970.066C715.676 970.999 715.745 982.129 715.498 983.996C715.388 984.792 715.361 985.506 714.661 986.041C713.728 986.768 702.597 986.837 700.731 986.59C699.935 986.48 699.221 986.453 698.686 985.753C697.959 984.833 697.89 973.675 698.137 971.823C698.288 970.642 698.466 969.805 699.715 969.366H699.729Z" fill="black"/>
<path d="M725.694 969.366C730.566 969.558 736.44 968.337 740.914 970.066C741.641 970.999 741.71 982.129 741.463 983.996C741.353 984.792 741.326 985.506 740.626 986.041C739.692 986.768 728.562 986.837 726.696 986.59C725.9 986.48 725.186 986.453 724.651 985.753C723.923 984.833 723.855 973.675 724.102 971.823C724.253 970.642 724.431 969.805 725.68 969.366H725.694Z" fill="black"/>
<path d="M751.651 969.366C756.523 969.558 762.397 968.337 766.871 970.066C767.598 970.999 767.667 982.129 767.42 983.996C767.31 984.792 767.283 985.506 766.583 986.041C765.649 986.768 754.519 986.837 752.653 986.59C751.857 986.48 751.143 986.453 750.608 985.753C749.88 984.833 749.812 973.675 750.059 971.823C750.21 970.642 750.388 969.805 751.637 969.366H751.651Z" fill="black"/>
<path d="M777.612 969.366C782.484 969.558 788.358 968.337 792.832 970.066C793.559 970.999 793.628 982.129 793.381 983.996C793.271 984.792 793.244 985.506 792.544 986.041C791.61 986.768 780.48 986.837 778.614 986.59C777.818 986.48 777.104 986.453 776.569 985.753C775.841 984.833 775.773 973.675 776.02 971.823C776.171 970.642 776.349 969.805 777.598 969.366H777.612Z" fill="black"/>
<path d="M803.565 969.366C808.437 969.558 814.311 968.337 818.785 970.066C819.512 970.999 819.581 982.129 819.334 983.996C819.224 984.792 819.197 985.506 818.497 986.041C817.563 986.768 806.433 986.837 804.567 986.59C803.771 986.48 803.057 986.453 802.522 985.753C801.794 984.833 801.726 973.675 801.973 971.823C802.124 970.642 802.302 969.805 803.551 969.366H803.565Z" fill="black"/>
<path d="M829.534 969.366C834.406 969.558 840.28 968.337 844.754 970.066C845.481 970.999 845.55 982.129 845.303 983.996C845.193 984.792 845.165 985.506 844.466 986.041C843.532 986.768 832.402 986.837 830.535 986.59C829.739 986.48 829.026 986.453 828.491 985.753C827.763 984.833 827.695 973.675 827.942 971.823C828.093 970.642 828.271 969.805 829.52 969.366H829.534Z" fill="black"/>
<path d="M855.487 969.366C860.359 969.558 866.233 968.337 870.707 970.066C871.434 970.999 871.503 982.129 871.256 983.996C871.146 984.792 871.119 985.506 870.419 986.041C869.485 986.768 858.355 986.837 856.489 986.59C855.693 986.48 854.979 986.453 854.444 985.753C853.716 984.833 853.648 973.675 853.895 971.823C854.046 970.642 854.224 969.805 855.473 969.366H855.487Z" fill="black"/>
<path d="M76.7211 995.319C81.5932 995.511 87.4671 994.29 91.9412 996.019C92.6686 996.952 92.7372 1008.08 92.4901 1009.95C92.3804 1010.75 92.3529 1011.46 91.653 1011.99C90.7197 1012.72 79.5895 1012.79 77.723 1012.54C76.927 1012.43 76.2133 1012.41 75.6781 1011.71C74.9507 1010.79 74.8821 999.629 75.1291 997.776C75.2801 996.596 75.4585 995.758 76.7074 995.319H76.7211Z" fill="black"/>
<path d="M102.674 995.319C107.546 995.511 113.42 994.29 117.894 996.019C118.622 996.952 118.69 1008.08 118.443 1009.95C118.333 1010.75 118.306 1011.46 117.606 1011.99C116.673 1012.72 105.543 1012.79 103.676 1012.54C102.88 1012.43 102.166 1012.41 101.631 1011.71C100.904 1010.79 100.835 999.629 101.082 997.776C101.233 996.596 101.412 995.758 102.661 995.319H102.674Z" fill="black"/>
<path d="M128.643 995.319C133.515 995.511 139.389 994.29 143.863 996.019C144.59 996.952 144.659 1008.08 144.412 1009.95C144.302 1010.75 144.275 1011.46 143.575 1011.99C142.642 1012.72 131.511 1012.79 129.645 1012.54C128.849 1012.43 128.135 1012.41 127.6 1011.71C126.873 1010.79 126.804 999.629 127.051 997.776C127.202 996.596 127.38 995.758 128.629 995.319H128.643Z" fill="black"/>
<path d="M154.596 995.319C159.468 995.511 165.342 994.29 169.816 996.019C170.544 996.952 170.612 1008.08 170.365 1009.95C170.255 1010.75 170.228 1011.46 169.528 1011.99C168.595 1012.72 157.464 1012.79 155.598 1012.54C154.802 1012.43 154.088 1012.41 153.553 1011.71C152.826 1010.79 152.757 999.629 153.004 997.776C153.155 996.596 153.333 995.758 154.582 995.319H154.596Z" fill="black"/>
<path d="M180.561 995.319C185.433 995.511 191.307 994.29 195.781 996.019C196.508 996.952 196.577 1008.08 196.33 1009.95C196.22 1010.75 196.193 1011.46 195.493 1011.99C194.56 1012.72 183.429 1012.79 181.563 1012.54C180.767 1012.43 180.053 1012.41 179.518 1011.71C178.791 1010.79 178.722 999.629 178.969 997.776C179.12 996.596 179.298 995.758 180.547 995.319H180.561Z" fill="black"/>
<path d="M206.51 995.319C211.382 995.511 217.256 994.29 221.73 996.019C222.458 996.952 222.526 1008.08 222.279 1009.95C222.169 1010.75 222.142 1011.46 221.442 1011.99C220.509 1012.72 209.379 1012.79 207.512 1012.54C206.716 1012.43 206.002 1012.41 205.467 1011.71C204.74 1010.79 204.671 999.629 204.918 997.776C205.069 996.596 205.248 995.758 206.496 995.319H206.51Z" fill="black"/>
<path d="M232.479 995.319C237.351 995.511 243.225 994.29 247.699 996.019C248.426 996.952 248.495 1008.08 248.248 1009.95C248.138 1010.75 248.111 1011.46 247.411 1011.99C246.478 1012.72 235.347 1012.79 233.481 1012.54C232.685 1012.43 231.971 1012.41 231.436 1011.71C230.709 1010.79 230.64 999.629 230.887 997.776C231.038 996.596 231.216 995.758 232.465 995.319H232.479Z" fill="black"/>
<path d="M258.436 995.319C263.308 995.511 269.182 994.29 273.656 996.019C274.383 996.952 274.452 1008.08 274.205 1009.95C274.095 1010.75 274.068 1011.46 273.368 1011.99C272.435 1012.72 261.304 1012.79 259.438 1012.54C258.642 1012.43 257.928 1012.41 257.393 1011.71C256.666 1010.79 256.597 999.629 256.844 997.776C256.995 996.596 257.173 995.758 258.422 995.319H258.436Z" fill="black"/>
<path d="M284.397 995.319C289.269 995.511 295.143 994.29 299.617 996.019C300.344 996.952 300.413 1008.08 300.166 1009.95C300.056 1010.75 300.029 1011.46 299.329 1011.99C298.396 1012.72 287.265 1012.79 285.399 1012.54C284.603 1012.43 283.889 1012.41 283.354 1011.71C282.626 1010.79 282.558 999.629 282.805 997.776C282.956 996.596 283.134 995.758 284.383 995.319H284.397Z" fill="black"/>
<path d="M310.35 995.319C315.222 995.511 321.096 994.29 325.57 996.019C326.297 996.952 326.366 1008.08 326.119 1009.95C326.009 1010.75 325.982 1011.46 325.282 1011.99C324.349 1012.72 313.218 1012.79 311.352 1012.54C310.556 1012.43 309.842 1012.41 309.307 1011.71C308.58 1010.79 308.511 999.629 308.758 997.776C308.909 996.596 309.087 995.758 310.336 995.319H310.35Z" fill="black"/>
<path d="M336.319 995.319C341.191 995.511 347.065 994.29 351.539 996.019C352.266 996.952 352.335 1008.08 352.088 1009.95C351.978 1010.75 351.951 1011.46 351.251 1011.99C350.317 1012.72 339.187 1012.79 337.321 1012.54C336.525 1012.43 335.811 1012.41 335.276 1011.71C334.548 1010.79 334.48 999.629 334.727 997.776C334.878 996.596 335.056 995.758 336.305 995.319H336.319Z" fill="black"/>
<path d="M362.264 995.319C367.136 995.511 373.01 994.29 377.484 996.019C378.212 996.952 378.28 1008.08 378.033 1009.95C377.923 1010.75 377.896 1011.46 377.196 1011.99C376.263 1012.72 365.132 1012.79 363.266 1012.54C362.47 1012.43 361.756 1012.41 361.221 1011.71C360.494 1010.79 360.425 999.629 360.672 997.776C360.823 996.596 361.001 995.758 362.25 995.319H362.264Z" fill="black"/>
<path d="M388.237 995.319C393.109 995.511 398.983 994.29 403.457 996.019C404.184 996.952 404.253 1008.08 404.006 1009.95C403.896 1010.75 403.869 1011.46 403.169 1011.99C402.235 1012.72 391.105 1012.79 389.239 1012.54C388.443 1012.43 387.729 1012.41 387.194 1011.71C386.466 1010.79 386.398 999.629 386.645 997.776C386.796 996.596 386.974 995.758 388.223 995.319H388.237Z" fill="black"/>
<path d="M414.186 995.319C419.058 995.511 424.932 994.29 429.406 996.019C430.133 996.952 430.202 1008.08 429.955 1009.95C429.845 1010.75 429.818 1011.46 429.118 1011.99C428.185 1012.72 417.054 1012.79 415.188 1012.54C414.392 1012.43 413.678 1012.41 413.143 1011.71C412.416 1010.79 412.347 999.629 412.594 997.776C412.745 996.596 412.923 995.758 414.172 995.319H414.186Z" fill="black"/>
<path d="M440.151 995.319C445.023 995.511 450.897 994.29 455.371 996.019C456.098 996.952 456.167 1008.08 455.92 1009.95C455.81 1010.75 455.783 1011.46 455.083 1011.99C454.149 1012.72 443.019 1012.79 441.153 1012.54C440.357 1012.43 439.643 1012.41 439.108 1011.71C438.38 1010.79 438.312 999.629 438.559 997.776C438.71 996.596 438.888 995.758 440.137 995.319H440.151Z" fill="black"/>
<path d="M466.1 995.319C470.972 995.511 476.846 994.29 481.32 996.019C482.047 996.952 482.116 1008.08 481.869 1009.95C481.759 1010.75 481.732 1011.46 481.032 1011.99C480.099 1012.72 468.968 1012.79 467.102 1012.54C466.306 1012.43 465.592 1012.41 465.057 1011.71C464.33 1010.79 464.261 999.629 464.508 997.776C464.659 996.596 464.837 995.758 466.086 995.319H466.1Z" fill="black"/>
<path d="M492.069 995.319C496.941 995.511 502.815 994.29 507.289 996.019C508.016 996.952 508.085 1008.08 507.838 1009.95C507.728 1010.75 507.701 1011.46 507.001 1011.99C506.067 1012.72 494.937 1012.79 493.071 1012.54C492.275 1012.43 491.561 1012.41 491.026 1011.71C490.298 1010.79 490.23 999.629 490.477 997.776C490.628 996.596 490.806 995.758 492.055 995.319H492.069Z" fill="black"/>
<path d="M518.026 995.319C522.898 995.511 528.772 994.29 533.246 996.019C533.973 996.952 534.042 1008.08 533.795 1009.95C533.685 1010.75 533.658 1011.46 532.958 1011.99C532.024 1012.72 520.894 1012.79 519.028 1012.54C518.232 1012.43 517.518 1012.41 516.983 1011.71C516.255 1010.79 516.187 999.629 516.434 997.776C516.585 996.596 516.763 995.758 518.012 995.319H518.026Z" fill="black"/>
<path d="M543.975 995.319C548.847 995.511 554.721 994.29 559.195 996.019C559.922 996.952 559.991 1008.08 559.744 1009.95C559.634 1010.75 559.607 1011.46 558.907 1011.99C557.974 1012.72 546.843 1012.79 544.977 1012.54C544.181 1012.43 543.467 1012.41 542.932 1011.71C542.205 1010.79 542.136 999.629 542.383 997.776C542.534 996.596 542.712 995.758 543.961 995.319H543.975Z" fill="black"/>
<path d="M569.94 995.319C574.812 995.511 580.686 994.29 585.16 996.019C585.887 996.952 585.956 1008.08 585.709 1009.95C585.599 1010.75 585.572 1011.46 584.872 1011.99C583.938 1012.72 572.808 1012.79 570.942 1012.54C570.146 1012.43 569.432 1012.41 568.897 1011.71C568.169 1010.79 568.101 999.629 568.348 997.776C568.499 996.596 568.677 995.758 569.926 995.319H569.94Z" fill="black"/>
<path d="M595.893 995.319C600.765 995.511 606.639 994.29 611.113 996.019C611.84 996.952 611.909 1008.08 611.662 1009.95C611.552 1010.75 611.525 1011.46 610.825 1011.99C609.892 1012.72 598.761 1012.79 596.895 1012.54C596.099 1012.43 595.385 1012.41 594.85 1011.71C594.123 1010.79 594.054 999.629 594.301 997.776C594.452 996.596 594.63 995.758 595.879 995.319H595.893Z" fill="black"/>
<path d="M621.862 995.319C626.734 995.511 632.608 994.29 637.082 996.019C637.809 996.952 637.878 1008.08 637.631 1009.95C637.521 1010.75 637.494 1011.46 636.794 1011.99C635.86 1012.72 624.73 1012.79 622.864 1012.54C622.068 1012.43 621.354 1012.41 620.819 1011.71C620.091 1010.79 620.023 999.629 620.27 997.776C620.421 996.596 620.599 995.758 621.848 995.319H621.862Z" fill="black"/>
<path d="M647.815 995.319C652.687 995.511 658.561 994.29 663.035 996.019C663.762 996.952 663.831 1008.08 663.584 1009.95C663.474 1010.75 663.447 1011.46 662.747 1011.99C661.813 1012.72 650.683 1012.79 648.817 1012.54C648.021 1012.43 647.307 1012.41 646.772 1011.71C646.044 1010.79 645.976 999.629 646.223 997.776C646.374 996.596 646.552 995.758 647.801 995.319H647.815Z" fill="black"/>
<path d="M673.776 995.319C678.648 995.511 684.522 994.29 688.996 996.019C689.723 996.952 689.792 1008.08 689.545 1009.95C689.435 1010.75 689.408 1011.46 688.708 1011.99C687.774 1012.72 676.644 1012.79 674.778 1012.54C673.982 1012.43 673.268 1012.41 672.733 1011.71C672.005 1010.79 671.937 999.629 672.184 997.776C672.335 996.596 672.513 995.758 673.762 995.319H673.776Z" fill="black"/>
<path d="M699.729 995.319C704.601 995.511 710.475 994.29 714.949 996.019C715.676 996.952 715.745 1008.08 715.498 1009.95C715.388 1010.75 715.361 1011.46 714.661 1011.99C713.728 1012.72 702.597 1012.79 700.731 1012.54C699.935 1012.43 699.221 1012.41 698.686 1011.71C697.959 1010.79 697.89 999.629 698.137 997.776C698.288 996.596 698.466 995.758 699.715 995.319H699.729Z" fill="black"/>
<path d="M725.694 995.319C730.566 995.511 736.44 994.29 740.914 996.019C741.641 996.952 741.71 1008.08 741.463 1009.95C741.353 1010.75 741.326 1011.46 740.626 1011.99C739.692 1012.72 728.562 1012.79 726.696 1012.54C725.9 1012.43 725.186 1012.41 724.651 1011.71C723.923 1010.79 723.855 999.629 724.102 997.776C724.253 996.596 724.431 995.758 725.68 995.319H725.694Z" fill="black"/>
<path d="M751.651 995.319C756.523 995.511 762.397 994.29 766.871 996.019C767.598 996.952 767.667 1008.08 767.42 1009.95C767.31 1010.75 767.283 1011.46 766.583 1011.99C765.649 1012.72 754.519 1012.79 752.653 1012.54C751.857 1012.43 751.143 1012.41 750.608 1011.71C749.88 1010.79 749.812 999.629 750.059 997.776C750.21 996.596 750.388 995.758 751.637 995.319H751.651Z" fill="black"/>
<path d="M777.612 995.319C782.484 995.511 788.358 994.29 792.832 996.019C793.559 996.952 793.628 1008.08 793.381 1009.95C793.271 1010.75 793.244 1011.46 792.544 1011.99C791.61 1012.72 780.48 1012.79 778.614 1012.54C777.818 1012.43 777.104 1012.41 776.569 1011.71C775.841 1010.79 775.773 999.629 776.02 997.776C776.171 996.596 776.349 995.758 777.598 995.319H777.612Z" fill="black"/>
<path d="M803.565 995.319C808.437 995.511 814.311 994.29 818.785 996.019C819.512 996.952 819.581 1008.08 819.334 1009.95C819.224 1010.75 819.197 1011.46 818.497 1011.99C817.563 1012.72 806.433 1012.79 804.567 1012.54C803.771 1012.43 803.057 1012.41 802.522 1011.71C801.794 1010.79 801.726 999.629 801.973 997.776C802.124 996.596 802.302 995.758 803.551 995.319H803.565Z" fill="black"/>
<path d="M829.534 995.319C834.406 995.511 840.28 994.29 844.754 996.019C845.481 996.952 845.55 1008.08 845.303 1009.95C845.193 1010.75 845.165 1011.46 844.466 1011.99C843.532 1012.72 832.402 1012.79 830.535 1012.54C829.739 1012.43 829.026 1012.41 828.491 1011.71C827.763 1010.79 827.695 999.629 827.942 997.776C828.093 996.596 828.271 995.758 829.52 995.319H829.534Z" fill="black"/>
<path d="M855.487 995.319C860.359 995.511 866.233 994.29 870.707 996.019C871.434 996.952 871.503 1008.08 871.256 1009.95C871.146 1010.75 871.119 1011.46 870.419 1011.99C869.485 1012.72 858.355 1012.79 856.489 1012.54C855.693 1012.43 854.979 1012.41 854.444 1011.71C853.716 1010.79 853.648 999.629 853.895 997.776C854.046 996.596 854.224 995.758 855.473 995.319H855.487Z" fill="black"/>
<path d="M76.7211 1021.28C81.5932 1021.48 87.4671 1020.25 91.9412 1021.98C92.6686 1022.92 92.7372 1034.05 92.4901 1035.91C92.3804 1036.71 92.3529 1037.42 91.653 1037.96C90.7197 1038.69 79.5895 1038.75 77.723 1038.51C76.927 1038.4 76.2133 1038.37 75.6781 1037.67C74.9507 1036.75 74.8821 1025.59 75.1291 1023.74C75.2801 1022.56 75.4585 1021.72 76.7074 1021.28H76.7211Z" fill="black"/>
<path d="M102.674 1021.28C107.546 1021.48 113.42 1020.25 117.894 1021.98C118.622 1022.92 118.69 1034.05 118.443 1035.91C118.333 1036.71 118.306 1037.42 117.606 1037.96C116.673 1038.69 105.543 1038.75 103.676 1038.51C102.88 1038.4 102.166 1038.37 101.631 1037.67C100.904 1036.75 100.835 1025.59 101.082 1023.74C101.233 1022.56 101.412 1021.72 102.661 1021.28H102.674Z" fill="black"/>
<path d="M128.643 1021.28C133.515 1021.48 139.389 1020.25 143.863 1021.98C144.59 1022.92 144.659 1034.05 144.412 1035.91C144.302 1036.71 144.275 1037.42 143.575 1037.96C142.642 1038.69 131.511 1038.75 129.645 1038.51C128.849 1038.4 128.135 1038.37 127.6 1037.67C126.873 1036.75 126.804 1025.59 127.051 1023.74C127.202 1022.56 127.38 1021.72 128.629 1021.28H128.643Z" fill="black"/>
<path d="M154.596 1021.28C159.468 1021.48 165.342 1020.25 169.816 1021.98C170.544 1022.92 170.612 1034.05 170.365 1035.91C170.255 1036.71 170.228 1037.42 169.528 1037.96C168.595 1038.69 157.464 1038.75 155.598 1038.51C154.802 1038.4 154.088 1038.37 153.553 1037.67C152.826 1036.75 152.757 1025.59 153.004 1023.74C153.155 1022.56 153.333 1021.72 154.582 1021.28H154.596Z" fill="black"/>
<path d="M180.561 1021.28C185.433 1021.48 191.307 1020.25 195.781 1021.98C196.508 1022.92 196.577 1034.05 196.33 1035.91C196.22 1036.71 196.193 1037.42 195.493 1037.96C194.56 1038.69 183.429 1038.75 181.563 1038.51C180.767 1038.4 180.053 1038.37 179.518 1037.67C178.791 1036.75 178.722 1025.59 178.969 1023.74C179.12 1022.56 179.298 1021.72 180.547 1021.28H180.561Z" fill="black"/>
<path d="M206.51 1021.28C211.382 1021.48 217.256 1020.25 221.73 1021.98C222.458 1022.92 222.526 1034.05 222.279 1035.91C222.169 1036.71 222.142 1037.42 221.442 1037.96C220.509 1038.69 209.379 1038.75 207.512 1038.51C206.716 1038.4 206.002 1038.37 205.467 1037.67C204.74 1036.75 204.671 1025.59 204.918 1023.74C205.069 1022.56 205.248 1021.72 206.496 1021.28H206.51Z" fill="black"/>
<path d="M232.479 1021.28C237.351 1021.48 243.225 1020.25 247.699 1021.98C248.426 1022.92 248.495 1034.05 248.248 1035.91C248.138 1036.71 248.111 1037.42 247.411 1037.96C246.478 1038.69 235.347 1038.75 233.481 1038.51C232.685 1038.4 231.971 1038.37 231.436 1037.67C230.709 1036.75 230.64 1025.59 230.887 1023.74C231.038 1022.56 231.216 1021.72 232.465 1021.28H232.479Z" fill="black"/>
<path d="M258.436 1021.28C263.308 1021.48 269.182 1020.25 273.656 1021.98C274.383 1022.92 274.452 1034.05 274.205 1035.91C274.095 1036.71 274.068 1037.42 273.368 1037.96C272.435 1038.69 261.304 1038.75 259.438 1038.51C258.642 1038.4 257.928 1038.37 257.393 1037.67C256.666 1036.75 256.597 1025.59 256.844 1023.74C256.995 1022.56 257.173 1021.72 258.422 1021.28H258.436Z" fill="black"/>
<path d="M284.397 1021.28C289.269 1021.48 295.143 1020.25 299.617 1021.98C300.344 1022.92 300.413 1034.05 300.166 1035.91C300.056 1036.71 300.029 1037.42 299.329 1037.96C298.396 1038.69 287.265 1038.75 285.399 1038.51C284.603 1038.4 283.889 1038.37 283.354 1037.67C282.626 1036.75 282.558 1025.59 282.805 1023.74C282.956 1022.56 283.134 1021.72 284.383 1021.28H284.397Z" fill="black"/>
<path d="M310.35 1021.28C315.222 1021.48 321.096 1020.25 325.57 1021.98C326.297 1022.92 326.366 1034.05 326.119 1035.91C326.009 1036.71 325.982 1037.42 325.282 1037.96C324.349 1038.69 313.218 1038.75 311.352 1038.51C310.556 1038.4 309.842 1038.37 309.307 1037.67C308.58 1036.75 308.511 1025.59 308.758 1023.74C308.909 1022.56 309.087 1021.72 310.336 1021.28H310.35Z" fill="black"/>
<path d="M336.319 1021.28C341.191 1021.48 347.065 1020.25 351.539 1021.98C352.266 1022.92 352.335 1034.05 352.088 1035.91C351.978 1036.71 351.951 1037.42 351.251 1037.96C350.317 1038.69 339.187 1038.75 337.321 1038.51C336.525 1038.4 335.811 1038.37 335.276 1037.67C334.548 1036.75 334.48 1025.59 334.727 1023.74C334.878 1022.56 335.056 1021.72 336.305 1021.28H336.319Z" fill="black"/>
<path d="M362.264 1021.28C367.136 1021.48 373.01 1020.25 377.484 1021.98C378.212 1022.92 378.28 1034.05 378.033 1035.91C377.923 1036.71 377.896 1037.42 377.196 1037.96C376.263 1038.69 365.132 1038.75 363.266 1038.51C362.47 1038.4 361.756 1038.37 361.221 1037.67C360.494 1036.75 360.425 1025.59 360.672 1023.74C360.823 1022.56 361.001 1021.72 362.25 1021.28H362.264Z" fill="black"/>
<path d="M388.237 1021.28C393.109 1021.48 398.983 1020.25 403.457 1021.98C404.184 1022.92 404.253 1034.05 404.006 1035.91C403.896 1036.71 403.869 1037.42 403.169 1037.96C402.235 1038.69 391.105 1038.75 389.239 1038.51C388.443 1038.4 387.729 1038.37 387.194 1037.67C386.466 1036.75 386.398 1025.59 386.645 1023.74C386.796 1022.56 386.974 1021.72 388.223 1021.28H388.237Z" fill="black"/>
<path d="M414.186 1021.28C419.058 1021.48 424.932 1020.25 429.406 1021.98C430.133 1022.92 430.202 1034.05 429.955 1035.91C429.845 1036.71 429.818 1037.42 429.118 1037.96C428.185 1038.69 417.054 1038.75 415.188 1038.51C414.392 1038.4 413.678 1038.37 413.143 1037.67C412.416 1036.75 412.347 1025.59 412.594 1023.74C412.745 1022.56 412.923 1021.72 414.172 1021.28H414.186Z" fill="black"/>
<path d="M440.151 1021.28C445.023 1021.48 450.897 1020.25 455.371 1021.98C456.098 1022.92 456.167 1034.05 455.92 1035.91C455.81 1036.71 455.783 1037.42 455.083 1037.96C454.149 1038.69 443.019 1038.75 441.153 1038.51C440.357 1038.4 439.643 1038.37 439.108 1037.67C438.38 1036.75 438.312 1025.59 438.559 1023.74C438.71 1022.56 438.888 1021.72 440.137 1021.28H440.151Z" fill="black"/>
<path d="M466.1 1021.28C470.972 1021.48 476.846 1020.25 481.32 1021.98C482.047 1022.92 482.116 1034.05 481.869 1035.91C481.759 1036.71 481.732 1037.42 481.032 1037.96C480.099 1038.69 468.968 1038.75 467.102 1038.51C466.306 1038.4 465.592 1038.37 465.057 1037.67C464.33 1036.75 464.261 1025.59 464.508 1023.74C464.659 1022.56 464.837 1021.72 466.086 1021.28H466.1Z" fill="black"/>
<path d="M492.069 1021.28C496.941 1021.48 502.815 1020.25 507.289 1021.98C508.016 1022.92 508.085 1034.05 507.838 1035.91C507.728 1036.71 507.701 1037.42 507.001 1037.96C506.067 1038.69 494.937 1038.75 493.071 1038.51C492.275 1038.4 491.561 1038.37 491.026 1037.67C490.298 1036.75 490.23 1025.59 490.477 1023.74C490.628 1022.56 490.806 1021.72 492.055 1021.28H492.069Z" fill="black"/>
<path d="M518.026 1021.28C522.898 1021.48 528.772 1020.25 533.246 1021.98C533.973 1022.92 534.042 1034.05 533.795 1035.91C533.685 1036.71 533.658 1037.42 532.958 1037.96C532.024 1038.69 520.894 1038.75 519.028 1038.51C518.232 1038.4 517.518 1038.37 516.983 1037.67C516.255 1036.75 516.187 1025.59 516.434 1023.74C516.585 1022.56 516.763 1021.72 518.012 1021.28H518.026Z" fill="black"/>
<path d="M543.975 1021.28C548.847 1021.48 554.721 1020.25 559.195 1021.98C559.922 1022.92 559.991 1034.05 559.744 1035.91C559.634 1036.71 559.607 1037.42 558.907 1037.96C557.974 1038.69 546.843 1038.75 544.977 1038.51C544.181 1038.4 543.467 1038.37 542.932 1037.67C542.205 1036.75 542.136 1025.59 542.383 1023.74C542.534 1022.56 542.712 1021.72 543.961 1021.28H543.975Z" fill="black"/>
<path d="M569.94 1021.28C574.812 1021.48 580.686 1020.25 585.16 1021.98C585.887 1022.92 585.956 1034.05 585.709 1035.91C585.599 1036.71 585.572 1037.42 584.872 1037.96C583.938 1038.69 572.808 1038.75 570.942 1038.51C570.146 1038.4 569.432 1038.37 568.897 1037.67C568.169 1036.75 568.101 1025.59 568.348 1023.74C568.499 1022.56 568.677 1021.72 569.926 1021.28H569.94Z" fill="black"/>
<path d="M595.893 1021.28C600.765 1021.48 606.639 1020.25 611.113 1021.98C611.84 1022.92 611.909 1034.05 611.662 1035.91C611.552 1036.71 611.525 1037.42 610.825 1037.96C609.892 1038.69 598.761 1038.75 596.895 1038.51C596.099 1038.4 595.385 1038.37 594.85 1037.67C594.123 1036.75 594.054 1025.59 594.301 1023.74C594.452 1022.56 594.63 1021.72 595.879 1021.28H595.893Z" fill="black"/>
<path d="M621.862 1021.28C626.734 1021.48 632.608 1020.25 637.082 1021.98C637.809 1022.92 637.878 1034.05 637.631 1035.91C637.521 1036.71 637.494 1037.42 636.794 1037.96C635.86 1038.69 624.73 1038.75 622.864 1038.51C622.068 1038.4 621.354 1038.37 620.819 1037.67C620.091 1036.75 620.023 1025.59 620.27 1023.74C620.421 1022.56 620.599 1021.72 621.848 1021.28H621.862Z" fill="black"/>
<path d="M647.815 1021.28C652.687 1021.48 658.561 1020.25 663.035 1021.98C663.762 1022.92 663.831 1034.05 663.584 1035.91C663.474 1036.71 663.447 1037.42 662.747 1037.96C661.813 1038.69 650.683 1038.75 648.817 1038.51C648.021 1038.4 647.307 1038.37 646.772 1037.67C646.044 1036.75 645.976 1025.59 646.223 1023.74C646.374 1022.56 646.552 1021.72 647.801 1021.28H647.815Z" fill="black"/>
<path d="M673.776 1021.28C678.648 1021.48 684.522 1020.25 688.996 1021.98C689.723 1022.92 689.792 1034.05 689.545 1035.91C689.435 1036.71 689.408 1037.42 688.708 1037.96C687.774 1038.69 676.644 1038.75 674.778 1038.51C673.982 1038.4 673.268 1038.37 672.733 1037.67C672.005 1036.75 671.937 1025.59 672.184 1023.74C672.335 1022.56 672.513 1021.72 673.762 1021.28H673.776Z" fill="black"/>
<path d="M699.729 1021.28C704.601 1021.48 710.475 1020.25 714.949 1021.98C715.676 1022.92 715.745 1034.05 715.498 1035.91C715.388 1036.71 715.361 1037.42 714.661 1037.96C713.728 1038.69 702.597 1038.75 700.731 1038.51C699.935 1038.4 699.221 1038.37 698.686 1037.67C697.959 1036.75 697.89 1025.59 698.137 1023.74C698.288 1022.56 698.466 1021.72 699.715 1021.28H699.729Z" fill="black"/>
<path d="M725.694 1021.28C730.566 1021.48 736.44 1020.25 740.914 1021.98C741.641 1022.92 741.71 1034.05 741.463 1035.91C741.353 1036.71 741.326 1037.42 740.626 1037.96C739.692 1038.69 728.562 1038.75 726.696 1038.51C725.9 1038.4 725.186 1038.37 724.651 1037.67C723.923 1036.75 723.855 1025.59 724.102 1023.74C724.253 1022.56 724.431 1021.72 725.68 1021.28H725.694Z" fill="black"/>
<path d="M751.651 1021.28C756.523 1021.48 762.397 1020.25 766.871 1021.98C767.598 1022.92 767.667 1034.05 767.42 1035.91C767.31 1036.71 767.283 1037.42 766.583 1037.96C765.649 1038.69 754.519 1038.75 752.653 1038.51C751.857 1038.4 751.143 1038.37 750.608 1037.67C749.88 1036.75 749.812 1025.59 750.059 1023.74C750.21 1022.56 750.388 1021.72 751.637 1021.28H751.651Z" fill="black"/>
<path d="M777.612 1021.28C782.484 1021.48 788.358 1020.25 792.832 1021.98C793.559 1022.92 793.628 1034.05 793.381 1035.91C793.271 1036.71 793.244 1037.42 792.544 1037.96C791.61 1038.69 780.48 1038.75 778.614 1038.51C777.818 1038.4 777.104 1038.37 776.569 1037.67C775.841 1036.75 775.773 1025.59 776.02 1023.74C776.171 1022.56 776.349 1021.72 777.598 1021.28H777.612Z" fill="black"/>
<path d="M803.565 1021.28C808.437 1021.48 814.311 1020.25 818.785 1021.98C819.512 1022.92 819.581 1034.05 819.334 1035.91C819.224 1036.71 819.197 1037.42 818.497 1037.96C817.563 1038.69 806.433 1038.75 804.567 1038.51C803.771 1038.4 803.057 1038.37 802.522 1037.67C801.794 1036.75 801.726 1025.59 801.973 1023.74C802.124 1022.56 802.302 1021.72 803.551 1021.28H803.565Z" fill="black"/>
<path d="M829.534 1021.28C834.406 1021.48 840.28 1020.25 844.754 1021.98C845.481 1022.92 845.55 1034.05 845.303 1035.91C845.193 1036.71 845.165 1037.42 844.466 1037.96C843.532 1038.69 832.402 1038.75 830.535 1038.51C829.739 1038.4 829.026 1038.37 828.491 1037.67C827.763 1036.75 827.695 1025.59 827.942 1023.74C828.093 1022.56 828.271 1021.72 829.52 1021.28H829.534Z" fill="black"/>
<path d="M855.487 1021.28C860.359 1021.48 866.233 1020.25 870.707 1021.98C871.434 1022.92 871.503 1034.05 871.256 1035.91C871.146 1036.71 871.119 1037.42 870.419 1037.96C869.485 1038.69 858.355 1038.75 856.489 1038.51C855.693 1038.4 854.979 1038.37 854.444 1037.67C853.716 1036.75 853.648 1025.59 853.895 1023.74C854.046 1022.56 854.224 1021.72 855.473 1021.28H855.487Z" fill="black"/>
</g>
<rect x="-1.66993" y="1.66993" width="799.34" height="32.5636" transform="matrix(1 0 0 -1 75 1098.65)" stroke="white" stroke-width="3.33986"/>
<rect width="61.2308" height="29.2238" transform="matrix(1 0 0 -1 75 1095.31)" fill="black"/>
<rect width="61.2308" height="29.2238" transform="matrix(1 0 0 -1 136.23 1095.31)" fill="#FFD600"/>
<rect width="61.2308" height="29.2238" transform="matrix(1 0 0 -1 197.461 1095.31)" fill="black"/>
<rect width="61.2308" height="29.2238" transform="matrix(1 0 0 -1 258.691 1095.31)" fill="#FFD600"/>
<rect width="61.2308" height="29.2238" transform="matrix(1 0 0 -1 319.922 1095.31)" fill="black"/>
<rect width="61.2308" height="29.2238" transform="matrix(1 0 0 -1 381.152 1095.31)" fill="#FFD600"/>
<rect width="61.2308" height="29.2238" transform="matrix(1 0 0 -1 442.383 1095.31)" fill="black"/>
<rect width="61.2308" height="29.2238" transform="matrix(1 0 0 -1 503.617 1095.31)" fill="#FFD600"/>
<rect width="61.2308" height="29.2238" transform="matrix(1 0 0 -1 564.848 1095.31)" fill="black"/>
<rect width="61.2308" height="29.2238" transform="matrix(1 0 0 -1 626.078 1095.31)" fill="#FFD600"/>
<rect width="61.2308" height="29.2238" transform="matrix(1 0 0 -1 687.309 1095.31)" fill="black"/>
<rect width="61.2308" height="29.2238" transform="matrix(1 0 0 -1 748.539 1095.31)" fill="#FFD600"/>
<rect width="61.2308" height="29.2238" transform="matrix(1 0 0 -1 809.77 1095.31)" fill="black"/>
</g>
<rect x="6.22507" y="-6.22507" width="217.55" height="217.55" transform="matrix(1 0 0 -1 672 1449.55)" fill="black"/>
<rect x="6.22507" y="-6.22507" width="217.55" height="217.55" transform="matrix(1 0 0 -1 672 1449.55)" stroke="#FFD600" stroke-width="12.4501"/>
<path d="M604.802 1406.96L573.055 1406.96L573.055 1286.39L653.866 1343.5L653.866 1287.97L741.091 1346.67L741.091 1287.97L828.316 1345.09L828.316 1286.39L860.063 1286.39L860.063 1405.37L772.838 1348.26L772.838 1406.96L685.613 1348.26L685.613 1406.96L604.802 1349.85L604.802 1406.96Z" fill="white"/>
<path d="M182.176 1328.01C209.728 1327.87 518.967 1328.13 546.5 1328.01L546.5 1381.43L182.176 1381.41L182.176 1328C182.176 1327.98 127.017 1328 127.017 1328L127.017 1381.41L182.176 1381.41L182.176 1462.41L127.017 1462.41L127.017 1381.41L45.9983 1381.41L45.9983 1328L127.017 1328L127.017 1247L182.176 1247C182.176 1247 182.176 1328.01 182.176 1328L182.176 1328.01Z" fill="black"/>
<defs>
<clipPath id="clip0_4299_29160">
<rect x="904" y="45" width="1158" height="857.631" rx="96" transform="rotate(90 904 45)" fill="white"/>
</clipPath>
<clipPath id="clip1_4299_29160">
<rect x="614.316" y="602.143" width="267.674" height="267.674" rx="133.837" transform="rotate(180 614.316 602.143)" fill="white"/>
</clipPath>
<clipPath id="clip2_4299_29160">
<rect width="796" height="122.145" fill="white" transform="translate(75 917)"/>
</clipPath>
</defs>
</svg>
