<svg width="950" height="1500" viewBox="0 0 950 1500" fill="none" xmlns="http://www.w3.org/2000/svg">
<g clip-path="url(#clip0_4300_27663)">
<rect width="950" height="1500" transform="matrix(-1 0 0 -1 950 1500)" fill="black"/>
<g clip-path="url(#clip1_4300_27663)">
<mask id="mask0_4300_27663" style="mask-type:luminance" maskUnits="userSpaceOnUse" x="-93" y="-18" width="3243" height="1533">
<path d="M3149.24 -17.6777H-92.9961V1514.84H3149.24V-17.6777Z" fill="white"/>
</mask>
<g mask="url(#mask0_4300_27663)">
<path d="M3737.83 -185.684H-298.477V1764.86H3737.83V-185.684Z" fill="white"/>
<path fill-rule="evenodd" clip-rule="evenodd" d="M-133.441 1151.82L338.971 320.015L278.545 229.46L190.729 287.259L-123.699 2.32422L-133.441 1151.82Z" fill="#FFD600" stroke="black" stroke-width="5.29776" stroke-miterlimit="1.5" stroke-linecap="round" stroke-linejoin="round"/>
<path fill-rule="evenodd" clip-rule="evenodd" d="M67.0898 -53.1973L189.203 67.4274L289.898 -49.2981L67.0898 -53.1973Z" fill="#FFD600" stroke="black" stroke-width="5.29776" stroke-miterlimit="1.5" stroke-linecap="round" stroke-linejoin="round"/>
<path fill-rule="evenodd" clip-rule="evenodd" d="M646.43 -39.0608L718.834 106.977L1043.91 -40.3164L646.43 -39.0608Z" fill="#FFD600" stroke="black" stroke-width="5.29776" stroke-miterlimit="1.5" stroke-linecap="round" stroke-linejoin="round"/>
<path fill-rule="evenodd" clip-rule="evenodd" d="M478.193 128.488L381.133 232.483L416.183 306.625L478.193 128.488Z" fill="#FFD600" stroke="black" stroke-width="5.29776" stroke-miterlimit="1.5" stroke-linecap="round" stroke-linejoin="round"/>
<path fill-rule="evenodd" clip-rule="evenodd" d="M466.705 649.528L400.414 615.639L163.402 985.014L337.185 1090.32L466.705 649.528Z" fill="#FFD600" stroke="black" stroke-width="5.29776" stroke-miterlimit="1.5" stroke-linecap="round" stroke-linejoin="round"/>
<path fill-rule="evenodd" clip-rule="evenodd" d="M315.055 1575.98C317.878 1567.79 350.364 1375.94 350.364 1375.94L713.759 1397.19L727.39 1298.07L240.6 1031.98L-111.702 1189.96L-125.285 1561.29C-125.285 1561.29 312.236 1584.17 315.055 1575.98Z" fill="#FFD600" stroke="black" stroke-width="5.29776" stroke-miterlimit="1.5" stroke-linecap="round" stroke-linejoin="round"/>
<path fill-rule="evenodd" clip-rule="evenodd" d="M-110.107 1435.19L171.893 1429.06L163.411 1319.82L-140.395 1304.86L-110.107 1435.19Z" fill="white" stroke="black" stroke-width="5.29776" stroke-miterlimit="1.5" stroke-linecap="round" stroke-linejoin="round"/>
<path fill-rule="evenodd" clip-rule="evenodd" d="M225.691 1237.13L315.059 1283.91L370.776 1203.44L285.842 1116.61L225.691 1237.13Z" fill="white" stroke="black" stroke-width="5.29776" stroke-miterlimit="1.5" stroke-linecap="round" stroke-linejoin="round"/>
<path fill-rule="evenodd" clip-rule="evenodd" d="M-156.266 1070.2L-60.2118 987.117L64.3281 730.594L27.7576 705.133L67.0935 617.746L-13.2524 559.603L-64.2275 577.075L12.6961 452.329L-20.9872 345.033L26.1577 142.537L-133.438 257.573L-156.266 1070.2Z" fill="white" stroke="black" stroke-width="5.29776" stroke-miterlimit="1.5" stroke-linecap="round" stroke-linejoin="round"/>
<path fill-rule="evenodd" clip-rule="evenodd" d="M719.047 1200.26L746.712 1227.79L842.019 1112.32L719.047 1200.26Z" fill="#FFD600"/>
<path fill-rule="evenodd" clip-rule="evenodd" d="M1090.15 1535.53L1195.76 1443.76L1115.16 1359.6L925.93 1527.83L1090.15 1535.53Z" fill="#FFD600"/>
<path fill-rule="evenodd" clip-rule="evenodd" d="M1262.23 1129.15C1262.23 1129.15 1372.62 1094.13 1376.77 1093.13C1380.92 1092.14 1526.39 1027.21 1526.39 1027.21L1501.64 780.406L1752.44 658.154L1774.8 618.76L1680.53 619.253L1465.41 701.458L1365.49 424.29L1431.99 399.02L1468.08 265.559L1308.55 176.991L1253.94 91.3576L1162.28 71.7559L1109.53 105.911L1087.6 164.641L968.946 197.519L957.592 250.455L983.059 354.333L1031.32 384.626L1118.77 408.556L1146.65 520.296L1144.24 582.052L1150 650.308L1228.97 759.612L1214.07 789.587L588.672 1085.99L620.496 1187.15L1126.62 903.695L1256.34 830.501L1231.12 869.916L1221.28 974.971L1262.23 1129.15Z" fill="#FFD600"/>
<path fill-rule="evenodd" clip-rule="evenodd" d="M723.973 783.721L777.019 830.113L805.828 765.873L752.438 702.014L723.973 783.721Z" fill="#FFD600"/>
<path fill-rule="evenodd" clip-rule="evenodd" d="M873.776 274.462L751 449.849L834.117 252.211L873.776 274.462Z" fill="#FFD600"/>
<path fill-rule="evenodd" clip-rule="evenodd" d="M952.03 258.357L977.904 325.491L819.061 586.935L1002.51 886.317L948.782 913.139L741.168 586.935L776.26 528.787L853.083 380.725L952.03 258.357Z" fill="#FFD600"/>
<path d="M-79.4645 -32.0059L40.9538 96.0675L94.0374 48.3612L68.7141 125.602L180.815 243.848L444.697 -32.0059H618.198L320.941 233.677L420.91 360.611L528.666 64.7312L619.099 179.693L572.426 295.767L619.491 322.059L683.944 211.903L839.115 187.163L604.212 599.911L605.166 604.573L666.461 651.087L694.857 608.228L738.352 558.588C810.142 399.364 931.349 243.743 931.349 243.743C931.349 243.743 930.449 237.756 930.926 235.849C939.773 201.89 972.407 169.892 1003.61 155.429C1020.35 147.694 1059.61 141.072 1069.83 134.026C1078.89 127.775 1102.36 88.2533 1114.12 76.0155C1122.02 67.8039 1128.32 60.8639 1139.92 58.0031C1163.07 52.2815 1217.32 58.6388 1238.36 70.029C1243.86 72.9957 1249.85 79.459 1254.35 81.4191C1268.23 87.4586 1323.81 76.3864 1343.89 75.7506C1416.2 73.4726 1541.07 106.478 1606.5 138.423C1736.29 201.837 1821.96 307.157 1895.65 428.263C1897.93 430.489 1913.77 435.68 1916.52 434.727C1920.07 433.508 1963.71 395.958 1963.71 395.958L1966.11 365.273L1989.15 375.127L2009.23 362.624L2040.38 342.122L2046.26 314.097L2066.98 325.858L2081.97 317.064L2150.1 281.939L2161.33 244.643L2188.09 265.516L2212.46 253.914L1905.66 103.193L1965.95 -31.9529H2040.81L1995.94 68.5456L2284.13 207.824L2301.99 210.949L2330.6 132.702L2379.76 205.122L2515.43 188.752L2549.5 97.5244L2605.39 183.348L2690.9 185.255L2741.23 114.106L2767.71 189.917L2894.49 210.473L2941.11 153.204L2968.87 227.108L3070.91 262.973L3109.95 225.677L3122.35 285.542L3147.62 300.428V327.818L3131.19 321.355L3126.7 345.481L3152.4 359.292L3162.16 393.314L3116.73 371.736L3091.25 494.644L3147.62 510.326V1511.23H3122.03L3122.93 1487.44L3021.58 1511.23L2924.41 1511.52L3121.82 1457.99L3123.88 1368.62L2654.61 1478.28L2652.7 1511.07H2555.91L2578.16 1478.85L2521.1 1475.31L2493.87 1511.07H2455.52L2488.42 1470.92L2434.43 1468.96L2398.94 1511.07H2366.04L2400.74 1465.41L2356.03 1461.75L2307.6 1511.07H2274.7L2316.72 1460.85L2278.41 1459.05L2225.44 1511.07H2183.42L2242.05 1455.09L2189.25 1453.01L2130.45 1511.07H2092.09L2151.36 1449.66L2118.57 1447.91L2040.97 1511.02H2006.27L2089.23 1445.41L2043.67 1442.47L1964.2 1511.02H1845.48C1845.48 1511.02 1802.99 1254.61 1779.68 1133.87C1779.05 1132.44 1782.75 1133.71 1783.34 1131.75C1785.08 1125.5 1787.1 1108.44 1787.1 1108.44L1812.58 1031.57L1818.04 1030.67L1814.38 1028.87L1832.76 969.642L1793.4 947.391L1580.7 1070.14L1550.55 1050.75C1550.55 1050.75 1378.53 1099.54 1297.21 1135.36C1272.58 1146.22 1214.62 1181.34 1210.65 1186.69C1196.61 1205.44 1165.14 1259.01 1165.14 1259.01L903.907 1414.18L1127.15 1256.73L1153.06 1169.69L1001.65 1084.44C999.108 1085.66 818.507 1307.64 749.265 1412.91C728.604 1444.27 708.366 1476.64 693.056 1511.02H283.962L326.133 1328.56L366.025 1331.11L534.176 1230.66L243.286 1053.74L5.97792 1174.74L109.984 1271.61L180.921 1270.08L205.079 1270.45L206.085 1291.85C206.085 1291.85 200.893 1395.69 207.304 1447.23L167.041 1451.9L166.331 1533.08L75.0661 1510.37L120.039 1456.33L83.1929 1459.12L41.0597 1511.13H8.16061L53.8273 1460L18.4012 1461.99L-30.1423 1511.13H-57.5317L-8.20949 1462.7H-42.8569L-99.543 1511.02V1485.43L-72.1535 1463.55H-99.543V1403.26C-99.543 1403.26 134.406 1398.39 137.055 1396.01L136.102 1333.81C57.6417 1338.9 -20.8182 1336.62 -99.49 1335.66V1258.95L-30.1952 1208.52L-42.6874 1194.38L-103.32 1228.54L-99.543 1005.08L51.7082 750.526L17.5376 729.494L-99.543 921.379V872.057L39.2585 637.472L17.3257 624.44L-99.543 800.855V769.81L7.85333 598.306L-24.6856 575.223L-99.543 707.72V660.252L-64.8426 600.865L-81.2127 592.653L-99.49 620.042L-95.3048 554.981L-1.38597 446.281L-33.6759 379.471L-99.543 475.732V406.331L-57.9555 345.142L-99.543 316.852V269.384L-48.4195 307.739L2.75688 169.892L-99.543 267.529V221.863L-26.5398 149.707L-99.543 75.7506V-32.0059H-79.4645ZM1227.87 92.6505C1227.39 92.3856 1219.71 93.1802 1216.37 92.2796C1183.95 83.4853 1154.12 77.5518 1126.94 103.14L1109.57 128.675C1166.04 129.258 1226.54 133.814 1279.41 154.263L1247.31 108.756C1241.06 105.1 1233.22 95.6702 1227.92 92.6505H1227.87ZM1722.47 270.125C1638.87 193.255 1545.63 146.582 1435.06 120.146C1391.57 109.709 1343.67 107.325 1299.49 114.159C1299.97 118.927 1303.25 130.688 1308.07 132.225C1311.09 133.178 1316.5 130.635 1320.47 130.476C1466.69 126.238 1620.38 199.029 1724.21 298.627C1783.12 355.154 1822.54 411.735 1859.41 484.844C1867.73 501.373 1880.39 536.02 1880.39 536.02L1896.81 532.312C1896.81 532.312 1872.55 474.884 1868.26 466.778C1829.43 393.033 1784.24 326.811 1722.52 270.072L1722.47 270.125ZM433.359 541.773L591.985 191.634L543.341 129.576L443.319 372.902L409.149 455.653L377.203 518.696L-81.2127 1022.25L-30.1952 1142.01L433.359 541.773ZM1322.8 196.963C1247.89 169.733 1157.14 159.455 1078.1 173.017C1037.04 180.063 980.089 193.785 970.924 241.2C962.606 284.27 984.486 315.421 1014.58 343.34C1035.29 362.571 1059.13 379.683 1087.63 384.398C1088.48 384.536 1081.41 378.104 1074.74 374.025C1050.74 359.35 1017.23 324.268 1003.61 299.475C1000.8 294.336 990.896 270.814 990.737 262.867C990.314 238.604 1004.67 220.221 1025.76 210.155C1101.67 173.918 1215.95 187.321 1294.41 211.426C1337.26 224.565 1403.01 240.935 1423.25 285.33C1442.27 327.129 1411.22 366.545 1377.21 388.107C1374.14 390.067 1370.75 389.59 1367.83 391.603L1369.1 400.662C1397.92 397.907 1420.23 373.379 1433.15 349.115C1451.27 315.262 1444.81 277.436 1419.11 249.199C1400.04 228.22 1349.08 206.499 1322.75 196.963H1322.8ZM2567.44 725.68L2601.89 723.296C2606.45 720.223 2590.72 461.904 2590.72 461.904L2576.25 211.691L2557.02 176.143L2541.45 208.036C2541.45 208.036 2567.28 717.521 2567.44 725.68ZM2714.95 714.978C2721.09 714.184 2743.66 720.17 2747.05 715.084C2751.29 704.542 2748.52 217.386 2748.52 217.386L2726.87 177.944L2708.64 218.207C2708.64 218.207 2713.09 713.124 2715 714.925L2714.95 714.978ZM193.582 360.293L41.1657 211.002L-11.706 352.453L38.5751 453.841L-44.7111 555.304L-15.4674 531.464L95.9976 603.037L96.6863 607.275L43.1259 696.224L63.8931 711.429L298.584 323.262L264.837 282.257L193.582 360.293ZM2853.8 722.289C2853.8 722.289 2890.73 724.514 2892.11 724.09C2895.28 711.641 2939.13 273.076 2939.13 273.076L2933.16 210.896L2890.36 272.192L2853.75 722.289H2853.8ZM2366.02 245.12L2345.16 212.698L2331.39 250.047C2331.39 250.047 2409.32 710.74 2409.96 731.401C2412.08 733.52 2443.12 727.269 2442.7 723.349C2442.22 718.581 2366.02 245.12 2366.02 245.12ZM2683.9 216.353L2605.55 216.512L2605.39 247.398L2683.9 249.252V216.353ZM2510.4 216.406L2388.02 234.683L2393.59 265.675L2510.24 252.802L2510.4 216.459V216.406ZM778.933 220.062L693.586 233.359L507.74 572.575L355.217 1087.25L488.805 1161.46L552.4 628.201L778.933 220.062ZM2877.54 232.829L2776.35 219.903L2773.38 256.51L2860.05 262.073L2877.54 232.829ZM1282.54 308.216C1261.67 288.032 1239.36 267.583 1210.97 256.51C1194.6 250.153 1183.95 246.391 1166.2 252.007C1148.08 257.729 1127.79 284.482 1125.88 303.025C1122.07 340.056 1144.58 394.941 1155.71 430.436C1171.87 481.983 1169.27 537.08 1166.15 589.898C1163.39 636.783 1188.71 681.391 1222.73 712.277C1234.75 723.19 1266.12 743.745 1282.17 744.328C1286.09 744.487 1305.9 738.182 1310.78 736.381C1332.71 728.488 1419.17 697.496 1432.78 693.893C1424.47 668.57 1419.54 642.028 1411.33 616.705C1389.34 548.576 1349.87 487.598 1328.1 418.675C1314.54 375.763 1313.95 352.77 1285.4 315.209C1283.81 313.09 1283.55 309.223 1282.43 308.163L1282.54 308.216ZM2304 252.908L2220.83 291.21L2227.4 312.508L2309.46 280.244L2304 252.908ZM3049.18 285.807L2970.67 260.219L2975.97 286.389L3033.29 303.766L3049.18 285.807ZM2686.44 274.862L2607.99 274.787L2619.38 435.31L2687.4 426.303L2686.44 274.862ZM2304.05 742.368L2190.79 301.329L2168.91 278.496L2168.27 318.759L2173.3 332.374L2284.03 744.116L2304.05 742.368ZM2515.91 282.098L2399.78 296.561L2425 457.931L2526.56 444.369L2515.91 282.098ZM945.177 285.754C937.41 276.816 793.078 485.193 759.543 582.534L799.435 647.909C799.435 647.909 897.391 801.756 948.09 871.845C950.263 874.812 960.964 889.698 962.765 890.016L972.566 886.573L797.263 615.857L777.184 584.177C772.517 579.997 952.435 313.461 952.435 313.461L945.124 285.701L945.177 285.754ZM2773.74 283.629L2773.44 440.978L2848.13 442.621L2853.8 291.21L2773.74 283.629ZM3089.39 289.462L3056.71 337.99C3056.71 337.99 2977.19 714.131 2974.54 721.124C2975.86 725.574 3002.94 728.7 3005.64 724.726C3008.82 705.231 3097.1 345.317 3097.1 345.317L3089.45 289.356L3089.39 289.462ZM2314.97 305.885L2229.2 337.036L2270.52 497.399L2342.04 472.818L2315.02 305.885H2314.97ZM3036.42 335.129L2963.36 322.308L2946.88 472.977L3006.91 480.976L3036.42 335.129ZM581.432 369.564L594.358 341.804L569.777 328.083L554.307 358.863L581.432 369.617V369.564ZM2146.98 346.042L2140.51 329.619L2102.1 351.499L2104.96 367.922L2146.98 345.989V346.042ZM2201.75 744.222L2088.96 388.424L2065.71 346.095L2066.64 398.437L2173.41 696.754L2187.5 742.103L2201.75 744.275V744.222ZM2161.7 539.569L2200.96 526.908L2203.24 522.617L2157.04 367.922L2110.58 394.358L2161.7 539.516V539.569ZM2041.92 388.107L2007.47 406.559L2016.33 419.098L2047.54 400.874L2041.92 388.107ZM559.817 415.496L530.732 404.636L516.058 437.323L543.288 450.09L559.817 415.496ZM1098.34 417.562L1063.9 409.986C1064.43 424.608 1068.51 440.448 1069.36 454.752C1076.51 578.349 1013.62 683.139 1019.98 805.464C1020.88 822.788 1025.07 840.058 1025.54 857.435L1189.93 781.306C1189.72 772.247 1194.7 753.97 1190.83 746.023C1190.25 744.805 1176.79 734.368 1173.51 730.501C1165.72 721.283 1152.37 701.098 1146.02 690.397C1123.71 652.942 1122.55 613.314 1125.99 570.72L1072.11 603.566C1072.11 603.566 1123.39 539.358 1124.14 534.96C1120.96 494.962 1110.84 455.388 1098.34 417.562ZM2059.24 422.754L2024.54 441.932L2022.95 445.216L2072.91 576.071L2106.82 560.443L2059.19 422.701L2059.24 422.754ZM1474.85 645.578C1478.18 646.372 1478.4 644.412 1479.99 642.558C1495.51 624.704 1525.49 540.152 1525.49 540.152C1525.49 540.152 1518.29 515.2 1510.24 503.333C1493.39 478.645 1452.33 428.052 1420.97 426.303C1407.35 425.562 1393.42 431.707 1379.81 431.866C1403.33 506.3 1445.71 573.369 1474.79 645.525L1474.85 645.578ZM2104.96 738.712L1994.45 439.177L1980.78 426.409L1979.83 450.143L2086.69 733.679L2104.96 738.659V738.712ZM1935.12 459.308L1943.33 468.473L1962.61 456.501L1964.31 439.177L1935.12 459.308ZM2689.41 464.765L2616.36 472.076L2621.93 507.407L2689.41 503.121V464.765ZM2846.44 475.732L2771.58 472.076V508.578L2844.58 515.888L2846.39 475.732H2846.44ZM1964.31 512.233L1987.99 507.677L1969.76 476.579L1964.26 480.288V512.233H1964.31ZM2532.33 479.387L2431.94 497.664L2438.19 524.418L2532.39 510.432V479.44L2532.33 479.387ZM1944.23 521.398L1924.15 484.844L1934.91 520.339L1944.28 521.398H1944.23ZM510.495 506.776L487.608 495.969L466.629 531.305L492.165 545.132L510.442 506.829L510.495 506.776ZM2994.41 515.942L2941.48 501.32L2940.9 531.994L2986.25 542.748L2994.46 515.942H2994.41ZM2349.67 503.121L2316.45 518.273L2276.61 525.001L2283.82 557.105L2353.27 539.464L2349.67 503.068V503.121ZM2683.85 534.166L2629.12 537.821L2627.48 588.733L2685.6 587.037L2683.85 534.166ZM3140.52 550.589L3083.89 534.166L3078.27 562.297L3135.01 579.832L3140.52 550.589ZM1975.17 536.02L1853.21 580.097L1856.55 618.188L1986.08 577.819L1975.17 536.02ZM2533.64 539.066L2443.29 552.597L2453.58 611.031L2538.08 596.828L2533.64 539.066ZM2837.33 545.132H2780.69L2778.84 594.454L2831.92 595.461L2837.27 545.132H2837.33ZM2218.18 579.832L2207.85 554.456L2170.71 567.065L2180.93 592.547L2218.18 579.832ZM1686.71 603.619L1542.45 567.065L1514 627.194C1514 627.194 1490.63 657.922 1488.57 663.961C1487.35 667.457 1492.22 674.768 1492.22 674.768L1686.76 603.619H1686.71ZM2981.64 576.177L2939.63 568.866L2934.91 610.93L2972.63 619.195L2981.64 576.177ZM457.411 618.135L475.318 584.388L449.359 570.72L432.035 602.454L457.411 618.082V618.135ZM2362.28 628.943L2351.52 574.376L2298.6 588.998L2309.4 641.18L2362.28 628.996V628.943ZM2024.6 605.368L2013.68 577.978L2014.74 601.765L1993.6 612.626L2024.65 605.315L2024.6 605.368ZM1759.76 663.855L1824.39 645.419L1819.41 592.335L1785.99 579.938L1756.05 592.653L1780.42 602.083L1759.71 663.855H1759.76ZM2126.84 618.135L2115.93 583.488L2082.98 601.129L2092.25 630.956L2126.9 618.082L2126.84 618.135ZM3121.21 601.823L3076.52 591.54L3065.82 632.598L3105.87 644.836L3121.21 601.823ZM2230.94 616.387L2192.59 629.208L2207.42 672.755L2243.55 661.895L2230.89 616.387H2230.94ZM1399.94 767.956L1422.82 769.863C1490.9 744.805 1625.46 687.589 1625.46 687.589L1726.28 653.259L1759.66 622.744L1719.92 623.168L1505.89 699.562C1505.89 699.562 1438.24 723.455 1418.8 743.056L1399.88 767.956H1399.94ZM2017.29 729.6L1976.18 618.241L1971.99 623.009L2005.42 722.289L2017.29 729.6ZM2691.21 618.188L2623.67 621.844L2625.52 650.981L2693.07 651.034L2691.21 618.135V618.188ZM2835.31 622.056L2771.58 621.844V660.199L2830.02 658.345L2830.49 646.478L2833.19 644.677L2835.26 622.003L2835.31 622.056ZM2539.65 621.844L2453.82 636.466L2458.38 656.544L2541.5 645.525L2539.65 621.791V621.844ZM445.147 663.034L450.651 648.841L408.725 623.857L400.831 634.558L445.147 663.034ZM2009.97 638.32L2020.15 665.656L2042.72 653.577L2033.71 627.353L2009.97 638.32ZM1951.54 724.09L1927.75 630.956L1906.46 640.916L1921.98 708.197L1872.71 803.239L1845.64 865.647L1745.25 866.653L1741.54 883.023L1862.11 882.176L1891.17 809.734L1951.54 724.143V724.09ZM2963.36 663.855L2965.27 640.969L2925.01 636.466L2923.15 658.398L2963.36 663.908V663.855ZM923.244 908.558L744.285 638.267L713.558 683.351L669.375 1027.28L923.297 908.506L923.244 908.558ZM2377.11 674.768L2371.6 649.233L2311.36 665.709L2316.87 687.642L2377.16 674.821L2377.11 674.768ZM2139.66 652.889L2106.82 663.855L2118.79 700.303L2152.22 693.628L2139.66 652.889ZM439.028 684.145L388.169 655.431L380.858 662.901L434.684 696.648L439.028 684.092V684.145ZM3060.31 681.973L3088.23 687.43L3094.85 673.921L3061.95 665.656L3060.26 681.973H3060.31ZM424.115 732.88L428.342 719.476L367.249 684.871L359.371 695.573L424.115 732.88ZM2037.95 714.449L2043.67 716.832L2053.15 731.083L2068.3 724.779L2054.64 687.642L2031.91 694.9L2037.95 714.449ZM1671.02 922.174L1708.27 896.374L1716.05 821.887L1710.44 691.244L1525.39 762.817L1522.21 767.108L1540.49 969.907L1544.25 1016.42L1613.81 962.755L1671.02 922.227V922.174ZM2254.47 695.165L2220.24 702.423L2221.89 716.78L2256.43 705.76L2254.47 695.165ZM415.506 766.155L418.367 753.387L350.174 711.726L342.503 721.442L415.506 766.208V766.155ZM2159.74 744.169L2149.52 724.249L2134.42 732.302L2145.17 747.824L2159.74 744.169ZM3151.48 892.12L3146.03 741.467L3142.37 739.613C3130.4 755.135 3108.57 763.824 3090.67 771.929C3063.17 784.379 3020.05 802.338 2990.06 798.789C2975.65 797.094 2957.22 790.63 2942.17 788.246C2898.73 781.412 2866.04 781.094 2823.08 791.107C2811.79 793.703 2800.61 797.517 2789.86 801.756C2866.52 815.318 3151.48 892.12 3151.48 892.12ZM408.036 784.538L333.47 740.911L325.375 751.718L403.692 797.147L408.036 784.538ZM318.106 765.689L308.004 778.207L395.48 829.251L399.475 814.587L318.106 765.689ZM1269.03 788.617C1266.8 790.736 1263.68 796.034 1265.64 798.948C1276.08 809.119 1303.36 853.939 1315.49 857.011C1338.54 862.839 1378.53 840.959 1384.84 817.702C1387.59 807.583 1385.63 792.855 1382.19 782.949C1370.85 750.632 1346.54 773.783 1325.5 778.445C1308.5 782.207 1282.17 776.168 1269.03 788.617ZM2643.75 883.924C2643.75 883.924 2614.4 830.628 2609.95 822.788L2006.23 783.007L1961.87 825.463L1862.17 1103.2L1897.4 1352.78L1896.76 1357.86L2603.59 1403.53L2643.75 883.924ZM1474.79 784.379C1472.73 782.472 1427.27 802.338 1422.72 806.259C1415.51 812.563 1405.61 839.158 1397.08 850.018C1373.45 880.004 1331.97 889.751 1295.78 880.268C1275.65 875.024 1262.09 861.408 1242.86 855.581C1240.21 858.336 1240.42 922.598 1241.06 931.392C1243.18 960.9 1258.06 986.753 1260.92 1015.79C1262.19 1028.66 1259.12 1044.23 1259.28 1057.58C1259.39 1066.7 1260.45 1094.67 1264 1100.28C1277.45 1121.63 1284.5 1104.79 1298.27 1096.36C1321.42 1082.22 1494.71 1025.16 1494.71 1025.16C1494.71 1025.16 1501.5 861.938 1474.9 784.379H1474.79ZM382.713 863.538L389.25 848.874L297.631 795.557L289.472 808.06L382.713 863.538ZM1233.22 805.04C1226.54 797.517 1200.79 799.795 1200.79 799.795L620.053 1093.93L631.125 1131.38C652.316 1121.1 1239.04 817.967 1239.04 817.967C1239.31 816.642 1234.49 806.418 1233.27 805.04H1233.22ZM375.651 891.182L379.195 879.797L280.413 820.933L274.903 831.847L375.651 891.182ZM3129.29 930.756L2678.45 828.244L2705.31 876.878C2701.97 886.891 2660.22 1401.67 2660.22 1401.67L2675.48 1399.61L2678.24 1396.85L2718.39 870.997L2707.69 848.27L3129.71 943.593L3129.29 930.756ZM371.428 905.168L269.446 845.356L265.738 845.462L256.626 858.389L367.137 923.18L371.481 905.168H371.428ZM355.217 965.192L358.873 940.557L247.567 878.255L233.051 896.956L234.693 900.294L355.217 965.138V965.192ZM1174.73 992.051L1185.38 886.679L1035.87 950.888C1035.87 950.888 1004.03 1005.35 994.658 1018.86L1084.72 1069.19L1174.73 992.051ZM3019.99 935.948L2830.03 894.551L2815.45 1213.55L3009.08 1204.44L3019.99 935.948ZM326.027 1062.03L327.987 1050.27L342.185 1007.68L340.807 1000.74L209.211 932.398L180.815 981.72L326.08 1062.03H326.027ZM3129.55 976.158L3129.56 962.49L3034.56 941.458L3021.8 1198.98L3127.94 1197.54L3127.53 1181.98L3031.62 1184.67L3040.97 955.92L3129.55 976.105V976.158ZM965.674 987.204L649.296 1211.75L733.213 1271.98L965.674 987.204ZM1197.19 1003.55L1127.79 1099.49L1176.32 1136.89L1206.25 1026.54L1197.24 1003.55H1197.19ZM3127.75 1118.61V1047.36L3100.36 1118.61H3127.75ZM-99.49 1275.79L-62.9937 1275.98L-3.9448 1237.76L-20.103 1221.81L-99.49 1275.79ZM26.4909 1275.69L10.0148 1251.96L-33.7712 1278.36L26.4909 1275.69ZM691.202 1319.61L574.28 1254.56L459.318 1345.09L660.793 1359.45L691.202 1319.61ZM3124.1 1332.33L2656.89 1435.69L2658.42 1452.85L3123.94 1348.48L3124.15 1332.27L3124.1 1332.33ZM1909.32 1409.73L2598.08 1458.36L2601.74 1427.32L1904.02 1383.5L1909.32 1409.73ZM435.531 1395.26L386.262 1387.05L378.951 1436.37L396.619 1439.19L435.531 1395.26ZM475.795 1401.73L447.822 1400.08L408.248 1440.08L437.439 1442.84L475.795 1401.78V1401.73ZM528.772 1410.89L490.469 1406.28L453.862 1447.39L492.165 1452.06L528.719 1410.95L528.772 1410.89ZM576.24 1420L542.017 1415.71L508.641 1456.51L543.288 1459.31L576.187 1420H576.24ZM1940.57 1436.43L1913.18 1434.57L1916.84 1456.51L1940.57 1436.43ZM2013.63 1440.08L1981.39 1438.45L1923.99 1486.6L1926.01 1509.48L2013.63 1440.08Z" fill="black"/>
<path d="M660.727 -27.5388L663.482 -22.0292H666.184V-27.5388H693.573L679.058 2.76435L692.673 32.7496L726.42 -27.5388H746.498L705.334 52.6692L720.963 83.8731L784.854 -27.5388H804.933L741.041 87.5284L779.45 68.4036L832.322 -27.5388H854.255L811.343 54.6824L856.633 33.6503L885.3 -27.5388H905.378L886.2 19.9291L921.367 3.64904L938.277 -27.5918H958.356L952.899 -7.51332L989.401 -27.5918H1091.7L711.851 149.565L627.828 -27.5918H660.727V-27.5388Z" fill="black"/>
<path d="M914.594 1515.75C914.594 1515.75 1073.69 1376.33 1109.18 1349.61C1112.52 1347.12 1118.08 1341.77 1121.9 1342.09L1226.9 1467.43C1228.91 1471.83 1221.39 1474.8 1217.94 1476.6C1195.91 1487.99 1170.42 1497.84 1148.76 1509.66C1145.84 1511.25 1142.77 1512.62 1141.18 1515.8H1069.92L1172.22 1440.89L1118.35 1378.7L999.623 1471.99C991.252 1479.99 977.038 1517.65 977.038 1517.65L914.594 1515.75Z" fill="black"/>
<path d="M706.373 1515.74L910.072 1232.63L849.731 1428.01L830.606 1515.74H815.984L796.441 1510.43L805.177 1484.91L824.916 1492.18L828.074 1479.88L806.925 1471.19L815.878 1449.05L831.867 1456.99L834.071 1445.21L818.156 1438.24L824.249 1417.15L838.828 1423.36L842.155 1411.75L827.692 1405.71L836.37 1382.59L846.992 1387.43L850.669 1380.77L839.824 1376.04L859.744 1325.66L826.998 1369.56L819.692 1367.88L814.951 1374.47L820.699 1377.1L806.925 1398.08L798.994 1396.26L791.678 1405.47L801.553 1409.12L791.159 1428.8L779.482 1426.27L772.097 1436.28L780.383 1439.09L769.364 1455.46L758.339 1453.72L748.162 1468.55L761.571 1473.61L748.612 1494.85L734.568 1490.02L724.857 1501.67L743.24 1506.62L728.841 1522.79L706.32 1515.8L706.373 1515.74Z" fill="black"/>
<path d="M730.875 1496.16C761.49 1504.69 778.234 1509.91 807.13 1520.21" stroke="#FFD600" stroke-width="16.3768" stroke-linecap="round" stroke-linejoin="round"/>
<path d="M752.367 1461.36C782.982 1469.89 799.726 1475.11 828.622 1485.41" stroke="#FFD600" stroke-width="16.3768" stroke-linecap="round" stroke-linejoin="round"/>
<path d="M775.91 1432.7C798.101 1439.23 810.237 1443.23 831.182 1451.12" stroke="#FFD600" stroke-width="16.3768" stroke-linecap="round" stroke-linejoin="round"/>
<path d="M799.453 1404.04C814.658 1408.76 822.974 1411.64 837.325 1417.34" stroke="#FFD600" stroke-width="16.3768" stroke-linecap="round" stroke-linejoin="round"/>
<path d="M821.969 1375.38C831.009 1378.28 835.954 1380.06 844.487 1383.57" stroke="#FFD600" stroke-width="16.3768" stroke-linecap="round" stroke-linejoin="round"/>
<path d="M105.387 -27.5388L186.544 56.3566L260.728 -27.5918H299.084L190.321 94.8924L61.6914 -27.5918L105.387 -27.5388Z" fill="black"/>
<path d="M842.853 226.592L896.26 260.545L706.859 527.616L842.906 226.539L842.853 226.592ZM768.525 416.305L855.992 285.397L835.171 270.193L768.525 416.305Z" fill="black"/>
<path d="M492.677 113.116C495.803 116.825 473.499 159.419 470.426 166.677C450.984 212.873 433.289 262.884 421.846 311.729C421.475 313.425 421.687 333.397 415.965 328.629L354.617 242.646C354.935 241.11 362.299 232.051 364.047 230.197C400.708 191.364 442.825 153.591 483.035 118.626C486.161 119.792 490.558 110.679 492.624 113.169L492.677 113.116ZM419.621 270.142L452.52 171.498L394.35 232.952C393.927 235.177 414.588 267.334 419.621 270.142Z" fill="black"/>
<path d="M287.227 1104.75L385.024 1213.41L305.557 1318.41L202.516 1242.97L287.227 1104.75ZM297.981 1265.38L352.665 1208.59L288.631 1134.71L231.902 1229.48L297.981 1265.38Z" fill="black"/>
<path d="M746.544 679.285L817.852 766.116L782.198 847.277L713.645 787.836L746.544 679.285ZM759.364 730.409L741.193 795.359L769.377 821.689L792.105 767.758L759.311 730.409H759.364Z" fill="black"/>
<path d="M906.059 1049.07L739.725 1254.57L683.531 1211.08L906.059 1049.07ZM814.127 1139.55L731.958 1201.59L748.561 1215.85L814.127 1139.5V1139.55Z" fill="black"/>
</g>
<path d="M805.904 942.512L865.158 967.781L877.551 938.722L830.102 918.487L821.045 891.28L839.73 847.464L811.579 835.459L786.503 894.259L805.904 942.512Z" fill="black"/>
<path d="M779.494 896.473L720.24 871.203L707.847 900.263L755.296 920.498L764.354 947.704L745.668 991.52L773.819 1003.53L798.895 944.726L779.494 896.473Z" fill="black"/>
</g>
<circle cx="295.548" cy="1221.84" r="63.5423" transform="rotate(173.303 295.548 1221.84)" fill="black"/>
<path d="M292.523 1233.01L295.748 1260.48L309.215 1258.89L306.633 1236.9L314.836 1227.73L335.143 1225.34L333.611 1212.3L306.36 1215.5L292.523 1233.01Z" fill="white"/>
<path d="M299.633 1210.85L296.409 1183.39L282.941 1184.97L285.523 1206.96L277.32 1216.14L257.014 1218.52L258.546 1231.57L285.797 1228.37L299.633 1210.85Z" fill="white"/>
<path d="M348.134 482.531L345.661 481.103C345.441 480.976 345.27 481.018 345.149 481.228L338.007 493.598L325.721 486.505C325.501 486.378 325.33 486.42 325.209 486.63L323.844 488.994C323.723 489.204 323.772 489.372 323.992 489.499L336.278 496.593L329.136 508.963C329.015 509.173 329.064 509.342 329.284 509.469L331.758 510.897C331.978 511.024 332.148 510.982 332.269 510.772L339.412 498.402L351.698 505.495C351.918 505.622 352.088 505.581 352.21 505.37L353.574 503.007C353.696 502.796 353.646 502.628 353.426 502.501L341.14 495.408L348.282 483.037C348.404 482.827 348.354 482.658 348.134 482.531Z" fill="white"/>
<path d="M597.881 627.875L595.407 626.447C595.187 626.32 595.016 626.362 594.895 626.572L587.753 638.942L575.467 631.849C575.247 631.722 575.076 631.763 574.955 631.974L573.59 634.337C573.469 634.547 573.518 634.716 573.738 634.843L586.024 641.936L578.882 654.307C578.761 654.517 578.81 654.686 579.03 654.812L581.504 656.241C581.724 656.368 581.894 656.326 582.016 656.116L589.158 643.745L601.444 650.839C601.664 650.966 601.834 650.924 601.956 650.714L603.32 648.35C603.442 648.14 603.392 647.972 603.173 647.845L590.886 640.751L598.028 628.381C598.15 628.171 598.1 628.002 597.881 627.875Z" fill="white"/>
</g>
<defs>
<clipPath id="clip0_4300_27663">
<rect width="950" height="1500" fill="white" transform="matrix(-1 0 0 -1 950 1500)"/>
</clipPath>
<clipPath id="clip1_4300_27663">
<rect width="1137" height="1536.35" fill="white" transform="translate(-93.0039 -17.6758)"/>
</clipPath>
</defs>
</svg>
