<svg width="1080" height="716" viewBox="0 0 1080 716" fill="none" xmlns="http://www.w3.org/2000/svg">
<rect width="1079.06" height="714.721" transform="translate(0.875 0.679688)" fill="#9A9A9A"/>
<rect x="38.0156" y="78.1465" width="1004.79" height="559.787" rx="90.5574" fill="#14F195"/>
<rect x="144.419" y="184.552" width="791.977" height="346.977" rx="52.0705" fill="black"/>
<rect x="144.419" y="184.552" width="791.977" height="346.977" rx="52.0705" stroke="white" stroke-width="13.5836"/>
<path d="M300.516 393.561C295.985 393.561 291.793 392.739 287.941 391.097C284.09 389.454 280.719 387.16 277.831 384.214C274.942 381.269 272.676 377.814 271.033 373.849C269.447 369.884 268.654 365.551 268.654 360.849C268.654 356.148 269.419 351.815 270.949 347.85C272.535 343.828 274.744 340.373 277.576 337.484C280.465 334.538 283.835 332.273 287.687 330.687C291.538 329.044 295.73 328.223 300.261 328.223C304.793 328.223 308.843 328.987 312.411 330.517C316.036 332.046 319.095 334.085 321.587 336.634C324.08 339.127 325.864 341.874 326.94 344.876L316.66 349.804C315.47 346.518 313.459 343.856 310.627 341.817C307.795 339.778 304.34 338.758 300.261 338.758C296.296 338.758 292.784 339.693 289.726 341.562C286.724 343.431 284.373 346.009 282.674 349.294C281.031 352.579 280.21 356.431 280.21 360.849C280.21 365.267 281.059 369.147 282.759 372.489C284.515 375.775 286.922 378.352 289.981 380.221C293.039 382.09 296.551 383.025 300.516 383.025C303.745 383.025 306.719 382.402 309.438 381.156C312.156 379.853 314.337 378.04 315.98 375.718C317.622 373.339 318.444 370.535 318.444 367.307V362.464L323.712 367.052H300.261V357.281H329.999V363.653C329.999 368.524 329.178 372.829 327.535 376.568C325.892 380.306 323.655 383.45 320.823 385.999C318.047 388.491 314.904 390.389 311.392 391.691C307.88 392.938 304.255 393.561 300.516 393.561ZM339.143 392.541V329.242H381.2V339.438H350.698V355.666H379.501V365.862H350.698V382.345H381.2V392.541H339.143ZM400.889 392.541V339.438H384.491V329.242H428.672V339.438H412.529V392.541H400.889ZM473.425 393.561C469.404 393.561 465.665 392.824 462.21 391.352C458.811 389.879 455.866 387.84 453.374 385.234C450.938 382.572 449.154 379.485 448.021 375.973L457.622 371.81C459.151 375.435 461.36 378.295 464.249 380.391C467.138 382.43 470.395 383.45 474.02 383.45C476.059 383.45 477.815 383.138 479.288 382.515C480.817 381.835 481.978 380.929 482.771 379.796C483.621 378.663 484.046 377.304 484.046 375.718C484.046 373.849 483.479 372.319 482.347 371.13C481.27 369.884 479.628 368.921 477.419 368.241L465.269 364.333C460.341 362.803 456.631 360.509 454.138 357.451C451.646 354.392 450.4 350.795 450.4 346.66C450.4 343.035 451.278 339.835 453.034 337.059C454.846 334.284 457.339 332.131 460.511 330.602C463.739 329.016 467.421 328.223 471.556 328.223C475.351 328.223 478.835 328.902 482.007 330.262C485.179 331.565 487.898 333.406 490.163 335.785C492.486 338.107 494.213 340.854 495.346 344.026L485.83 348.274C484.584 345.102 482.715 342.667 480.222 340.967C477.73 339.212 474.841 338.334 471.556 338.334C469.63 338.334 467.931 338.673 466.458 339.353C464.985 339.976 463.824 340.883 462.975 342.072C462.182 343.205 461.785 344.564 461.785 346.15C461.785 347.906 462.352 349.464 463.484 350.823C464.617 352.126 466.345 353.146 468.667 353.882L480.307 357.536C485.349 359.178 489.115 361.444 491.608 364.333C494.157 367.222 495.431 370.79 495.431 375.038C495.431 378.663 494.496 381.864 492.627 384.639C490.758 387.415 488.181 389.596 484.895 391.182C481.61 392.768 477.787 393.561 473.425 393.561ZM517.051 392.541V339.438H500.653V329.242H544.835V339.438H528.691V392.541H517.051ZM542.472 392.541L564.308 329.242H579.261L601.097 392.541H588.522L584.019 378.947H559.55L554.961 392.541H542.472ZM562.863 368.751H580.706L570.17 337.229H573.399L562.863 368.751ZM608.142 392.541V329.242H631.677C635.982 329.242 639.777 330.035 643.062 331.621C646.404 333.151 649.01 335.416 650.879 338.419C652.748 341.364 653.683 344.961 653.683 349.209C653.683 353.571 652.635 357.281 650.539 360.339C648.5 363.398 645.725 365.664 642.213 367.137L656.742 392.541H643.657L628.109 364.758L635.586 369.176H619.697V392.541H608.142ZM619.697 358.98H631.847C633.943 358.98 635.756 358.583 637.285 357.79C638.814 356.941 640.004 355.78 640.853 354.307C641.703 352.834 642.128 351.135 642.128 349.209C642.128 347.227 641.703 345.527 640.853 344.111C640.004 342.638 638.814 341.506 637.285 340.713C635.756 339.863 633.943 339.438 631.847 339.438H619.697V358.98ZM673.871 392.541V339.438H657.473V329.242H701.654V339.438H685.511V392.541H673.871ZM708.706 392.541V329.242H750.763V339.438H720.261V355.666H749.064V365.862H720.261V382.345H750.763V392.541H708.706ZM759.236 392.541V329.242H779.883C786.567 329.242 792.373 330.602 797.301 333.321C802.285 335.983 806.137 339.693 808.856 344.451C811.575 349.152 812.934 354.618 812.934 360.849C812.934 367.023 811.575 372.518 808.856 377.332C806.137 382.09 802.285 385.829 797.301 388.548C792.373 391.21 786.567 392.541 779.883 392.541H759.236ZM770.792 382.345H780.138C784.443 382.345 788.153 381.467 791.268 379.711C794.44 377.899 796.904 375.406 798.66 372.234C800.416 369.006 801.294 365.211 801.294 360.849C801.294 356.431 800.416 352.636 798.66 349.464C796.904 346.292 794.44 343.828 791.268 342.072C788.153 340.316 784.443 339.438 780.138 339.438H770.792V382.345Z" fill="white"/>
</svg>
