<?xml version="1.0" encoding="UTF-8"?>
<svg id="Layer_1" xmlns="http://www.w3.org/2000/svg" version="1.1" viewBox="0 0 90 90">
  <!-- Generator: Adobe Illustrator 29.0.0, SVG Export Plug-In . SVG Version: 2.1.0 Build 186)  -->
  <defs>
    <style>
      .st0 {
        fill: #231f20;
      }

      .st1 {
        fill: #ededed;
      }
    </style>
  </defs>
  <circle class="st1" cx="45" cy="45" r="45"/>
  <path d="M32.6,43.6c.2,0,.4,0,.6,0,.2,0,.3,0,.5.2l.4-1c-.5-.2-.9-.3-1.4-.3s-.9,0-1.2.3c-.3.2-.6.5-.8.8s-.3.8-.3,1.3c0,.8.2,1.4.6,1.8.4.4.9.6,1.6.6s.9,0,1.3-.3v-1.1c-.2,0-.4.2-.6.2-.2,0-.4,0-.6,0-.7,0-1-.4-1-1.3s.1-.8.3-1c0-.3.3-.4.6-.4Z"/>
  <path d="M38.2,46.3c-.2,0-.5,0-.7,0-.3,0-.5-.2-.8-.3v1.1c.2,0,.4.2.7.2s.5,0,.8,0,.7,0,1-.2c.3,0,.5-.3.6-.5s.2-.5.2-.8,0-.6-.2-.8c-.2-.2-.4-.4-.8-.6-.4-.2-.7-.3-.8-.4-.2,0-.2,0-.2-.2s0-.2,0-.2c0,0,.2,0,.4,0,.3,0,.7,0,1.1.3l.4-1c-.5-.2-1-.3-1.5-.3s-1,0-1.3.4c-.3.2-.5.6-.5,1s0,.4,0,.6c0,.2.2.3.3.4.2,0,.4.3.7.4.3.2.5.3.6.3s0,0,.2,0c0,0,0,0,0,.2s0,.2,0,.3-.2,0-.4,0Z"/>
  <path d="M44.1,46.3c-.2,0-.5,0-.7,0-.3,0-.5-.2-.8-.3v1.1c.2,0,.4.2.7.2s.5,0,.8,0,.7,0,1-.2c.3,0,.5-.3.6-.5s.2-.5.2-.8,0-.6-.2-.8c-.2-.2-.4-.4-.8-.6-.4-.2-.7-.3-.8-.4,0,0,0-.2,0-.2,0,0,0-.2,0-.2,0,0,.2,0,.4,0,.3,0,.7,0,1.1.3l.4-1c-.5-.2-1-.3-1.5-.3s-1,0-1.3.4c-.3.2-.5.6-.5,1s0,.4,0,.6c0,.2.2.3.3.4.2,0,.4.3.7.4.3.2.5.3.6.3s0,0,.2,0c0,0,0,0,0,.2s0,.2,0,.3-.3,0-.5,0Z"/>
  <path d="M52.8,44.8c0-.7-.2-1.3-.6-1.7-.4-.4-1-.6-1.7-.6h-1.6v4.7h1.5c.8,0,1.4-.2,1.8-.6.4-.4.6-1,.6-1.8ZM51.2,45.9c-.2.2-.5.3-.8.3h-.3v-2.6h.4c.3,0,.6,0,.8.3s.3.5.3,1c-.1.4-.2.8-.4,1Z"/>
  <path d="M58.5,46.4l.2.9h1.4l-1.5-4.7h-1.7l-1.5,4.7h1.4l.2-.9h1.5ZM57.6,43.9c0-.2,0-.4,0-.5,0,0,0,.3,0,.6,0,.3,0,.5.2.7l.2.8h-1c.2-.9.3-1.4.4-1.6Z"/>
  <polygon points="51.2 39.2 46.4 34.4 41.7 39.2 39 39.2 49 29.2 38.5 29.2 28.4 39.2 24.6 39.2 24.6 39.9 65.8 39.9 65.8 39.2 51.2 39.2"/>
  <polygon points="24.6 50.6 39.1 50.6 43.8 55.3 48.6 50.6 51.2 50.6 41.2 60.6 51.7 60.6 57 55.4 61.7 50.6 65.8 50.6 65.8 49.9 24.6 49.9 24.6 50.6"/>
  <g>
    <path class="st0" d="M19.4,67.8l2.9-5.3.9,1-2.3,4,4.3-1.7.9,1-5.7,2-1-1.1Z"/>
    <path class="st0" d="M24.9,69.7c1-1.4,2.7-1.6,4.1-.6,1.4,1,1.6,2.7.6,4.1s-2.7,1.6-4.1.6c-1.3-1-1.6-2.7-.6-4.1ZM28.6,72.4c.6-.9.6-1.9-.3-2.5-.8-.6-1.8-.4-2.5.5-.6.8-.6,1.9.2,2.5.8.6,1.8.4,2.5-.5Z"/>
    <path class="st0" d="M31.3,77.1l1.9-4.2-1.5-.7.4-1,4,1.8-.4,1-1.5-.7-1.9,4.2-1.1-.5Z"/>
    <path class="st0" d="M36.4,79l1.2-5.5,3.8.8-.2,1-2.7-.6-.2,1.2,2.6.6-.2,1-2.6-.6-.3,1.3,2.7.6-.2,1-3.8-.8Z"/>
    <path class="st0" d="M54,78.8l-.6-2.3-2.5.6.6,2.3-1.1.3-1.3-5.5,1.1-.3.5,2.2,2.5-.6-.5-2.2,1.2-.3,1.3,5.5-1.2.3Z"/>
    <path class="st0" d="M58,77.4l-2.5-5.1,3.5-1.8.5.9-2.4,1.2.5,1.1,2.4-1.2.5,1-2.4,1.2.6,1.1,2.4-1.2.5,1-3.5,1.8Z"/>
    <path class="st0" d="M66.3,72.2l-2.1-.9-.7.5,1.3,1.6-.9.7-3.6-4.4,2-1.6c.9-.7,1.9-.6,2.6.3.6.8.5,1.6.1,2.1l2.3.9-1.1.8ZM64,69.1c-.3-.4-.8-.4-1.1,0l-1,.8,1,1.2,1-.8c.4-.3.5-.7.2-1.1Z"/>
    <path class="st0" d="M69.2,69.4l-4.4-3.6,2.5-3,.8.7-1.7,2.1.9.8,1.7-2.1.8.7-1.7,2.1,1,.8,1.7-2.1.8.7-2.5,3Z"/>
  </g>
  <g>
    <path class="st0" d="M17.9,35.4h-1c0,0-.6,2.3-.6,2.3l.8.6-.3,1.3-4.9-3.5.4-1.4,6-.5-.3,1.3ZM13.2,35.7l2.1,1.5.4-1.6-2.6.2Z"/>
    <path class="st0" d="M20.5,29.6l-3.9-1,3,2.7-.6,1.1-5.7-1.3.6-1.1,4.1,1.1-3.1-2.9.4-.8,4.1,1-3.2-2.8.6-1.1,4.2,4.1-.6,1.1Z"/>
    <path class="st0" d="M25,23.6l-.9-.4-1.6,1.7.5.9-.9,1-2.8-5.4,1-1.1,5.6,2.2-.9,1ZM20.7,21.8l1.3,2.3,1.1-1.3-2.4-1Z"/>
    <path class="st0" d="M29.5,20l-2-1-.7.5,1.2,1.6-.9.7-3.3-4.6,2.1-1.5c.9-.7,1.9-.5,2.6.4.6.8.4,1.6,0,2.1l2.3,1-1.1.8ZM27.3,16.8c-.3-.4-.7-.4-1.1-.1l-1,.7.9,1.2,1-.7c.4-.3.5-.7.2-1.1Z"/>
    <path class="st0" d="M31.9,18.4l-2.2-5.2,2-.8c1.6-.7,3.1,0,3.8,1.5.7,1.6,0,3.1-1.6,3.7l-2,.8ZM34.4,14.3c-.4-.9-1.2-1.4-2.3-1l-.9.4,1.4,3.3.9-.4c1-.4,1.3-1.4.9-2.3Z"/>
    <path class="st0" d="M47.9,15.4l-2.4-3.8-.2,3.7h-1.2c0,0,.3-5.7.3-5.7h1.2c0,0,2.3,3.8,2.3,3.8l.2-3.6h1.2c0,0-.3,5.7-.3,5.7h-1.1Z"/>
    <path class="st0" d="M51.5,13c.5-1.6,2-2.4,3.6-1.9,1.6.5,2.4,2,1.8,3.7-.5,1.6-2,2.4-3.6,1.9-1.6-.5-2.3-2-1.8-3.7ZM55.8,14.3c.3-1,0-2-1-2.3s-1.8.3-2.1,1.3c-.3,1,0,2,1,2.3,1,.3,1.8-.3,2.1-1.3Z"/>
    <path class="st0" d="M61.5,20.6l2.1-3.3-3.4,2.5-.4-.3.8-4.2-2.1,3.3-1-.6,3.1-4.8,1.4.9-.7,3.6,3-2.2,1.4.9-3.1,4.8-1-.6Z"/>
    <path class="st0" d="M63.8,22.6l3.9-4.1.8.8-3.9,4.1-.8-.8Z"/>
    <path class="st0" d="M68.3,27.8l1.4-4.3-3,2.2-.7-.9,4.5-3.4.7,1-1.3,4.2,2.8-2.1.7.9-4.5,3.4-.7-.9Z"/>
    <path class="st0" d="M70,30.3l5.1-2.4,1.6,3.5-1,.5-1.1-2.4-1.1.5,1.1,2.4-1,.4-1.1-2.4-1.2.5,1.1,2.4-1,.5-1.6-3.5Z"/>
    <path class="st0" d="M72.2,35.5l5.5-1.4,1,3.7-1,.3-.7-2.6-1.2.3.7,2.6-1,.3-.7-2.6-1.2.3.7,2.6-1,.3-1-3.7Z"/>
  </g>
</svg>