<svg width="1080" height="716" viewBox="0 0 1080 716" fill="none" xmlns="http://www.w3.org/2000/svg">
<g clip-path="url(#clip0_4195_18455)">
<rect width="1079.06" height="714.721" transform="translate(0.9375 0.958984)" fill="#0B3142"/>
<rect width="979.111" height="767.371" transform="translate(62 0.634766)" fill="#0B3142"/>
<path d="M116.299 207.645V222.936H113.992V207.645H116.299ZM119.659 222.936V207.645H129.141V209.631H121.966V214.29H128.461V216.269H121.966V222.936H119.659ZM136.362 207.645H138.982L142.977 214.596H143.141L147.135 207.645H149.756L144.209 216.933V222.936H141.909V216.933L136.362 207.645ZM164.435 215.291C164.435 216.923 164.137 218.327 163.54 219.501C162.942 220.671 162.123 221.572 161.083 222.204C160.048 222.831 158.871 223.145 157.552 223.145C156.228 223.145 155.046 222.831 154.006 222.204C152.97 221.572 152.154 220.668 151.557 219.494C150.96 218.319 150.661 216.918 150.661 215.291C150.661 213.658 150.96 212.257 151.557 211.087C152.154 209.913 152.97 209.012 154.006 208.385C155.046 207.752 156.228 207.436 157.552 207.436C158.871 207.436 160.048 207.752 161.083 208.385C162.123 209.012 162.942 209.913 163.54 211.087C164.137 212.257 164.435 213.658 164.435 215.291ZM162.151 215.291C162.151 214.046 161.949 212.998 161.546 212.147C161.148 211.291 160.6 210.644 159.904 210.206C159.212 209.763 158.428 209.542 157.552 209.542C156.671 209.542 155.885 209.763 155.193 210.206C154.501 210.644 153.953 211.291 153.55 212.147C153.152 212.998 152.953 214.046 152.953 215.291C152.953 216.535 153.152 217.585 153.55 218.441C153.953 219.292 154.501 219.939 155.193 220.382C155.885 220.82 156.671 221.039 157.552 221.039C158.428 221.039 159.212 220.82 159.904 220.382C160.6 219.939 161.148 219.292 161.546 218.441C161.949 217.585 162.151 216.535 162.151 215.291ZM177.144 207.645H179.459V217.702C179.459 218.772 179.207 219.72 178.705 220.546C178.202 221.368 177.495 222.015 176.584 222.488C175.673 222.955 174.606 223.189 173.381 223.189C172.162 223.189 171.097 222.955 170.186 222.488C169.275 222.015 168.568 221.368 168.066 220.546C167.563 219.72 167.312 218.772 167.312 217.702V207.645H169.619V217.515C169.619 218.207 169.77 218.822 170.074 219.359C170.383 219.897 170.818 220.32 171.381 220.629C171.943 220.932 172.61 221.084 173.381 221.084C174.158 221.084 174.827 220.932 175.39 220.629C175.957 220.32 176.39 219.897 176.689 219.359C176.992 218.822 177.144 218.207 177.144 217.515V207.645ZM182.813 222.936V207.645H188.263C189.447 207.645 190.43 207.85 191.212 208.258C191.998 208.666 192.585 209.231 192.974 209.952C193.362 210.669 193.556 211.498 193.556 212.439C193.556 213.374 193.359 214.198 192.966 214.91C192.578 215.617 191.991 216.166 191.204 216.56C190.423 216.953 189.44 217.15 188.255 217.15H184.127V215.164H188.046C188.793 215.164 189.4 215.057 189.868 214.843C190.341 214.629 190.687 214.317 190.906 213.909C191.125 213.501 191.234 213.011 191.234 212.439C191.234 211.861 191.122 211.361 190.898 210.938C190.679 210.515 190.333 210.191 189.86 209.967C189.393 209.738 188.778 209.624 188.016 209.624H185.12V222.936H182.813ZM190.361 216.037L194.138 222.936H191.51L187.807 216.037H190.361ZM214.627 212.618H212.297C212.208 212.12 212.041 211.682 211.797 211.304C211.553 210.925 211.254 210.604 210.901 210.341C210.548 210.077 210.152 209.878 209.714 209.743C209.281 209.609 208.821 209.542 208.333 209.542C207.452 209.542 206.663 209.763 205.966 210.206C205.274 210.649 204.727 211.299 204.324 212.155C203.925 213.011 203.726 214.056 203.726 215.291C203.726 216.535 203.925 217.585 204.324 218.441C204.727 219.297 205.277 219.944 205.974 220.382C206.67 220.82 207.454 221.039 208.325 221.039C208.808 221.039 209.266 220.975 209.699 220.845C210.137 220.711 210.533 220.514 210.886 220.255C211.24 219.996 211.538 219.68 211.782 219.307C212.031 218.929 212.203 218.496 212.297 218.008L214.627 218.016C214.502 218.767 214.261 219.459 213.902 220.091C213.549 220.718 213.094 221.261 212.536 221.719C211.984 222.172 211.352 222.522 210.64 222.771C209.928 223.02 209.152 223.145 208.31 223.145C206.986 223.145 205.807 222.831 204.772 222.204C203.736 221.572 202.92 220.668 202.323 219.494C201.73 218.319 201.434 216.918 201.434 215.291C201.434 213.658 201.733 212.257 202.33 211.087C202.928 209.913 203.744 209.012 204.779 208.385C205.814 207.752 206.991 207.436 208.31 207.436C209.122 207.436 209.878 207.553 210.58 207.787C211.287 208.016 211.921 208.355 212.484 208.803C213.046 209.246 213.512 209.788 213.88 210.43C214.248 211.067 214.497 211.796 214.627 212.618ZM227.22 207.645H229.534V217.702C229.534 218.772 229.283 219.72 228.78 220.546C228.277 221.368 227.57 222.015 226.66 222.488C225.749 222.955 224.681 223.189 223.457 223.189C222.237 223.189 221.172 222.955 220.261 222.488C219.351 222.015 218.644 221.368 218.141 220.546C217.638 219.72 217.387 218.772 217.387 217.702V207.645H219.694V217.515C219.694 218.207 219.846 218.822 220.149 219.359C220.458 219.897 220.893 220.32 221.456 220.629C222.018 220.932 222.685 221.084 223.457 221.084C224.233 221.084 224.903 220.932 225.465 220.629C226.032 220.32 226.466 219.897 226.764 219.359C227.068 218.822 227.22 218.207 227.22 217.515V207.645ZM241.227 211.662C241.148 210.955 240.819 210.408 240.242 210.02C239.665 209.626 238.938 209.43 238.062 209.43C237.435 209.43 236.892 209.529 236.434 209.728C235.976 209.923 235.621 210.191 235.367 210.535C235.118 210.873 234.993 211.259 234.993 211.692C234.993 212.055 235.078 212.369 235.247 212.633C235.421 212.896 235.648 213.118 235.927 213.297C236.21 213.471 236.514 213.618 236.837 213.738C237.161 213.852 237.472 213.947 237.771 214.021L239.264 214.41C239.752 214.529 240.252 214.691 240.765 214.895C241.277 215.099 241.752 215.368 242.19 215.701C242.628 216.035 242.982 216.448 243.251 216.94C243.524 217.433 243.661 218.023 243.661 218.71C243.661 219.576 243.437 220.345 242.989 221.017C242.546 221.689 241.902 222.219 241.056 222.607C240.215 222.995 239.197 223.189 238.002 223.189C236.857 223.189 235.867 223.008 235.031 222.644C234.195 222.281 233.54 221.766 233.067 221.099C232.594 220.427 232.333 219.631 232.283 218.71H234.598C234.643 219.262 234.822 219.723 235.135 220.091C235.454 220.454 235.859 220.726 236.352 220.905C236.85 221.079 237.395 221.166 237.987 221.166C238.639 221.166 239.219 221.064 239.727 220.86C240.239 220.651 240.643 220.362 240.936 219.994C241.23 219.621 241.377 219.185 241.377 218.687C241.377 218.235 241.247 217.864 240.988 217.575C240.735 217.286 240.389 217.047 239.951 216.858C239.518 216.669 239.027 216.502 238.48 216.358L236.673 215.865C235.449 215.532 234.478 215.042 233.762 214.395C233.05 213.748 232.694 212.891 232.694 211.826C232.694 210.945 232.933 210.176 233.411 209.519C233.888 208.862 234.535 208.352 235.352 207.989C236.168 207.621 237.089 207.436 238.114 207.436C239.149 207.436 240.063 207.618 240.854 207.981C241.65 208.345 242.278 208.845 242.735 209.482C243.193 210.114 243.432 210.841 243.452 211.662H241.227ZM245.664 209.631V207.645H257.497V209.631H252.727V222.936H250.427V209.631H245.664ZM272.737 215.291C272.737 216.923 272.438 218.327 271.841 219.501C271.244 220.671 270.425 221.572 269.385 222.204C268.35 222.831 267.172 223.145 265.854 223.145C264.53 223.145 263.347 222.831 262.307 222.204C261.272 221.572 260.456 220.668 259.858 219.494C259.261 218.319 258.963 216.918 258.963 215.291C258.963 213.658 259.261 212.257 259.858 211.087C260.456 209.913 261.272 209.012 262.307 208.385C263.347 207.752 264.53 207.436 265.854 207.436C267.172 207.436 268.35 207.752 269.385 208.385C270.425 209.012 271.244 209.913 271.841 211.087C272.438 212.257 272.737 213.658 272.737 215.291ZM270.452 215.291C270.452 214.046 270.251 212.998 269.848 212.147C269.45 211.291 268.902 210.644 268.205 210.206C267.513 209.763 266.73 209.542 265.854 209.542C264.973 209.542 264.186 209.763 263.494 210.206C262.802 210.644 262.255 211.291 261.852 212.147C261.454 212.998 261.255 214.046 261.255 215.291C261.255 216.535 261.454 217.585 261.852 218.441C262.255 219.292 262.802 219.939 263.494 220.382C264.186 220.82 264.973 221.039 265.854 221.039C266.73 221.039 267.513 220.82 268.205 220.382C268.902 219.939 269.45 219.292 269.848 218.441C270.251 217.585 270.452 216.535 270.452 215.291ZM275.613 207.645H278.413L283.281 219.531H283.46L288.328 207.645H291.127V222.936H288.932V211.871H288.791L284.281 222.913H282.459L277.95 211.864H277.808V222.936H275.613V207.645ZM294.481 222.936V207.645H304.068V209.631H296.788V214.29H303.567V216.269H296.788V220.95H304.157V222.936H294.481ZM307.149 222.936V207.645H312.599C313.784 207.645 314.767 207.85 315.548 208.258C316.335 208.666 316.922 209.231 317.31 209.952C317.698 210.669 317.892 211.498 317.892 212.439C317.892 213.374 317.696 214.198 317.303 214.91C316.914 215.617 316.327 216.166 315.541 216.56C314.759 216.953 313.776 217.15 312.592 217.15H308.463V215.164H312.383C313.129 215.164 313.736 215.057 314.204 214.843C314.677 214.629 315.023 214.317 315.242 213.909C315.461 213.501 315.571 213.011 315.571 212.439C315.571 211.861 315.459 211.361 315.235 210.938C315.016 210.515 314.67 210.191 314.197 209.967C313.729 209.738 313.114 209.624 312.353 209.624H309.456V222.936H307.149ZM314.697 216.037L318.475 222.936H315.847L312.144 216.037H314.697ZM326.264 222.936V207.645H331.714C332.903 207.645 333.889 207.862 334.67 208.295C335.452 208.728 336.036 209.32 336.425 210.072C336.813 210.818 337.007 211.66 337.007 212.595C337.007 213.536 336.81 214.382 336.417 215.134C336.029 215.88 335.442 216.473 334.655 216.911C333.874 217.344 332.891 217.56 331.706 217.56H327.958V215.604H331.497C332.249 215.604 332.858 215.475 333.326 215.216C333.794 214.952 334.138 214.594 334.357 214.141C334.576 213.688 334.685 213.173 334.685 212.595C334.685 212.018 334.576 211.505 334.357 211.057C334.138 210.609 333.792 210.259 333.319 210.005C332.851 209.751 332.234 209.624 331.467 209.624H328.57V222.936H326.264ZM339.381 222.936H336.932L342.435 207.645H345.1L350.602 222.936H348.153L343.831 210.423H343.711L339.381 222.936ZM339.792 216.948H347.735V218.889H339.792V216.948ZM350.07 207.645H352.691L356.685 214.596H356.849L360.844 207.645H363.464L357.917 216.933V222.936H355.617V216.933L350.07 207.645ZM373.982 211.662C373.902 210.955 373.573 210.408 372.996 210.02C372.419 209.626 371.692 209.43 370.816 209.43C370.189 209.43 369.646 209.529 369.189 209.728C368.731 209.923 368.375 210.191 368.121 210.535C367.872 210.873 367.748 211.259 367.748 211.692C367.748 212.055 367.832 212.369 368.001 212.633C368.176 212.896 368.402 213.118 368.681 213.297C368.965 213.471 369.268 213.618 369.592 213.738C369.915 213.852 370.226 213.947 370.525 214.021L372.018 214.41C372.506 214.529 373.006 214.691 373.519 214.895C374.031 215.099 374.507 215.368 374.945 215.701C375.383 216.035 375.736 216.448 376.005 216.94C376.279 217.433 376.415 218.023 376.415 218.71C376.415 219.576 376.191 220.345 375.744 221.017C375.301 221.689 374.656 222.219 373.81 222.607C372.969 222.995 371.951 223.189 370.756 223.189C369.612 223.189 368.621 223.008 367.785 222.644C366.949 222.281 366.294 221.766 365.821 221.099C365.349 220.427 365.087 219.631 365.038 218.71H367.352C367.397 219.262 367.576 219.723 367.889 220.091C368.208 220.454 368.614 220.726 369.106 220.905C369.604 221.079 370.149 221.166 370.741 221.166C371.393 221.166 371.973 221.064 372.481 220.86C372.994 220.651 373.397 220.362 373.69 219.994C373.984 219.621 374.131 219.185 374.131 218.687C374.131 218.235 374.002 217.864 373.743 217.575C373.489 217.286 373.143 217.047 372.705 216.858C372.272 216.669 371.782 216.502 371.234 216.358L369.427 215.865C368.203 215.532 367.232 215.042 366.516 214.395C365.804 213.748 365.448 212.891 365.448 211.826C365.448 210.945 365.687 210.176 366.165 209.519C366.643 208.862 367.29 208.352 368.106 207.989C368.922 207.621 369.843 207.436 370.868 207.436C371.904 207.436 372.817 207.618 373.608 207.981C374.405 208.345 375.032 208.845 375.49 209.482C375.948 210.114 376.187 210.841 376.206 211.662H373.982Z" fill="white"/>
<rect x="112.312" y="257.01" width="858.975" height="130.648" rx="15.017" fill="#1A495E"/>
<rect x="113.063" y="257.761" width="857.473" height="129.147" rx="14.2662" stroke="#F2F2F2" stroke-opacity="0.05" stroke-width="1.5017"/>
<path d="M190.089 299.594V334.543H184.458L167.99 310.738H167.7V334.543H161.369V299.594H167.034L183.485 323.417H183.792V299.594H190.089ZM220.4 310.755C220.116 309.833 219.724 309.008 219.223 308.28C218.734 307.541 218.142 306.909 217.448 306.386C216.766 305.863 215.981 305.47 215.093 305.209C214.206 304.935 213.239 304.799 212.192 304.799C210.315 304.799 208.643 305.271 207.175 306.215C205.708 307.16 204.553 308.548 203.711 310.379C202.881 312.199 202.465 314.418 202.465 317.034C202.465 319.674 202.881 321.909 203.711 323.741C204.542 325.573 205.696 326.966 207.175 327.922C208.654 328.866 210.372 329.338 212.329 329.338C214.104 329.338 215.639 328.997 216.936 328.314C218.245 327.632 219.251 326.665 219.957 325.413C220.662 324.15 221.015 322.672 221.015 320.976L222.448 321.198H212.96V316.249H227.141V320.447C227.141 323.439 226.504 326.028 225.23 328.212C223.956 330.396 222.204 332.08 219.974 333.263C217.744 334.435 215.184 335.021 212.295 335.021C209.075 335.021 206.248 334.298 203.813 332.854C201.39 331.397 199.496 329.333 198.131 326.659C196.777 323.974 196.1 320.789 196.1 317.103C196.1 314.281 196.498 311.761 197.295 309.543C198.102 307.325 199.229 305.442 200.674 303.895C202.118 302.336 203.813 301.153 205.759 300.345C207.704 299.526 209.82 299.116 212.107 299.116C214.041 299.116 215.844 299.401 217.517 299.97C219.189 300.527 220.674 301.323 221.97 302.359C223.279 303.394 224.354 304.623 225.196 306.045C226.038 307.467 226.589 309.037 226.851 310.755H220.4ZM261.983 299.594V334.543H256.352L239.884 310.738H239.594V334.543H233.263V299.594H238.929L255.379 323.417H255.686V299.594H261.983Z" fill="white"/>
<g clip-path="url(#clip1_4195_18455)">
<path d="M289.94 323.551L280.93 314.541H298.95L289.94 323.551Z" fill="white"/>
</g>
<rect x="112.312" y="425.201" width="858.975" height="201.228" rx="15.017" fill="#1A495E"/>
<rect x="113.063" y="425.952" width="857.473" height="199.727" rx="14.2662" stroke="#F2F2F2" stroke-opacity="0.1" stroke-width="1.5017"/>
<path d="M767.997 478.965C767.918 478.258 767.589 477.711 767.012 477.322C766.434 476.929 765.708 476.733 764.832 476.733C764.205 476.733 763.662 476.832 763.204 477.031C762.746 477.225 762.39 477.494 762.137 477.837C761.888 478.176 761.763 478.562 761.763 478.995C761.763 479.358 761.848 479.672 762.017 479.935C762.191 480.199 762.418 480.421 762.696 480.6C762.98 480.774 763.284 480.921 763.607 481.04C763.931 481.155 764.242 481.249 764.541 481.324L766.034 481.712C766.521 481.832 767.022 481.993 767.534 482.198C768.047 482.402 768.522 482.67 768.96 483.004C769.398 483.337 769.752 483.75 770.02 484.243C770.294 484.736 770.431 485.326 770.431 486.013C770.431 486.879 770.207 487.648 769.759 488.32C769.316 488.991 768.672 489.522 767.825 489.91C766.984 490.298 765.966 490.492 764.772 490.492C763.627 490.492 762.637 490.31 761.801 489.947C760.964 489.584 760.31 489.069 759.837 488.402C759.364 487.73 759.103 486.933 759.053 486.013H761.368C761.412 486.565 761.592 487.025 761.905 487.394C762.224 487.757 762.629 488.028 763.122 488.208C763.62 488.382 764.165 488.469 764.757 488.469C765.409 488.469 765.989 488.367 766.497 488.163C767.009 487.954 767.412 487.665 767.706 487.297C768 486.923 768.147 486.488 768.147 485.99C768.147 485.537 768.017 485.166 767.758 484.878C767.504 484.589 767.159 484.35 766.721 484.161C766.288 483.972 765.797 483.805 765.25 483.661L763.443 483.168C762.219 482.835 761.248 482.344 760.531 481.697C759.82 481.05 759.464 480.194 759.464 479.129C759.464 478.248 759.703 477.479 760.18 476.822C760.658 476.165 761.305 475.655 762.122 475.292C762.938 474.923 763.859 474.739 764.884 474.739C765.919 474.739 766.833 474.921 767.624 475.284C768.42 475.648 769.047 476.148 769.505 476.785C769.963 477.417 770.202 478.144 770.222 478.965H767.997ZM778.81 485.281H781.079L782.677 487.364L783.431 488.29L785.977 491.612H783.618L781.915 489.395L781.333 488.588L778.81 485.281ZM786.47 482.593C786.47 484.226 786.171 485.629 785.574 486.804C784.976 487.974 784.158 488.875 783.117 489.507C782.082 490.134 780.905 490.447 779.586 490.447C778.262 490.447 777.08 490.134 776.04 489.507C775.005 488.875 774.188 487.971 773.591 486.797C772.994 485.622 772.695 484.221 772.695 482.593C772.695 480.961 772.994 479.56 773.591 478.39C774.188 477.215 775.005 476.314 776.04 475.687C777.08 475.055 778.262 474.739 779.586 474.739C780.905 474.739 782.082 475.055 783.117 475.687C784.158 476.314 784.976 477.215 785.574 478.39C786.171 479.56 786.47 480.961 786.47 482.593ZM784.185 482.593C784.185 481.349 783.983 480.301 783.58 479.45C783.182 478.594 782.635 477.947 781.938 477.509C781.246 477.066 780.462 476.845 779.586 476.845C778.705 476.845 777.919 477.066 777.227 477.509C776.535 477.947 775.988 478.594 775.584 479.45C775.186 480.301 774.987 481.349 774.987 482.593C774.987 483.838 775.186 484.888 775.584 485.744C775.988 486.595 776.535 487.242 777.227 487.685C777.919 488.123 778.705 488.342 779.586 488.342C780.462 488.342 781.246 488.123 781.938 487.685C782.635 487.242 783.182 486.595 783.58 485.744C783.983 484.888 784.185 483.838 784.185 482.593ZM799.178 474.948H801.493V485.005C801.493 486.075 801.241 487.023 800.739 487.849C800.236 488.67 799.529 489.317 798.618 489.79C797.708 490.258 796.64 490.492 795.416 490.492C794.196 490.492 793.131 490.258 792.22 489.79C791.309 489.317 790.603 488.67 790.1 487.849C789.597 487.023 789.346 486.075 789.346 485.005V474.948H791.653V484.818C791.653 485.51 791.805 486.125 792.108 486.662C792.417 487.2 792.852 487.623 793.415 487.931C793.977 488.235 794.644 488.387 795.416 488.387C796.192 488.387 796.861 488.235 797.424 487.931C797.991 487.623 798.424 487.2 798.723 486.662C799.027 486.125 799.178 485.51 799.178 484.818V474.948ZM806.138 490.238H803.69L809.192 474.948H811.857L817.36 490.238H814.911L810.588 477.725H810.469L806.138 490.238ZM806.549 484.251H814.493V486.192H806.549V484.251ZM824.518 490.238H819.568V474.948H824.674C826.172 474.948 827.459 475.254 828.534 475.866C829.609 476.474 830.433 477.347 831.005 478.487C831.583 479.622 831.871 480.983 831.871 482.571C831.871 484.164 831.58 485.532 830.998 486.677C830.421 487.822 829.584 488.703 828.489 489.32C827.394 489.932 826.07 490.238 824.518 490.238ZM821.875 488.222H824.391C825.555 488.222 826.523 488.004 827.295 487.566C828.066 487.123 828.644 486.483 829.027 485.647C829.41 484.806 829.602 483.78 829.602 482.571C829.602 481.371 829.41 480.353 829.027 479.517C828.649 478.681 828.084 478.047 827.332 477.614C826.581 477.18 825.647 476.964 824.532 476.964H821.875V488.222ZM840.304 490.238V474.948H849.786V476.934H842.611V481.593H849.106V483.571H842.611V490.238H840.304ZM852.623 490.238V474.948H862.209V476.934H854.93V481.593H861.709V483.571H854.93V488.252H862.298V490.238H852.623ZM865.29 490.238V474.948H874.877V476.934H867.597V481.593H874.376V483.571H867.597V488.252H874.966V490.238H865.29ZM886.298 478.965C886.218 478.258 885.889 477.711 885.312 477.322C884.735 476.929 884.008 476.733 883.132 476.733C882.505 476.733 881.962 476.832 881.504 477.031C881.047 477.225 880.691 477.494 880.437 477.837C880.188 478.176 880.064 478.562 880.064 478.995C880.064 479.358 880.148 479.672 880.317 479.935C880.492 480.199 880.718 480.421 880.997 480.6C881.28 480.774 881.584 480.921 881.908 481.04C882.231 481.155 882.542 481.249 882.841 481.324L884.334 481.712C884.822 481.832 885.322 481.993 885.835 482.198C886.347 482.402 886.823 482.67 887.261 483.004C887.699 483.337 888.052 483.75 888.321 484.243C888.595 484.736 888.731 485.326 888.731 486.013C888.731 486.879 888.507 487.648 888.059 488.32C887.616 488.991 886.972 489.522 886.126 489.91C885.285 490.298 884.267 490.492 883.072 490.492C881.927 490.492 880.937 490.31 880.101 489.947C879.265 489.584 878.61 489.069 878.137 488.402C877.664 487.73 877.403 486.933 877.353 486.013H879.668C879.713 486.565 879.892 487.025 880.205 487.394C880.524 487.757 880.93 488.028 881.422 488.208C881.92 488.382 882.465 488.469 883.057 488.469C883.709 488.469 884.289 488.367 884.797 488.163C885.31 487.954 885.713 487.665 886.006 487.297C886.3 486.923 886.447 486.488 886.447 485.99C886.447 485.537 886.317 485.166 886.059 484.878C885.805 484.589 885.459 484.35 885.021 484.161C884.588 483.972 884.098 483.805 883.55 483.661L881.743 483.168C880.519 482.835 879.548 482.344 878.832 481.697C878.12 481.05 877.764 480.194 877.764 479.129C877.764 478.248 878.003 477.479 878.481 476.822C878.959 476.165 879.606 475.655 880.422 475.292C881.238 474.923 882.159 474.739 883.184 474.739C884.22 474.739 885.133 474.921 885.924 475.284C886.721 475.648 887.348 476.148 887.806 476.785C888.264 477.417 888.502 478.144 888.522 478.965H886.298ZM891.959 482.593C891.959 480.722 892.205 479 892.698 477.427C893.19 475.854 893.91 474.403 894.855 473.074H896.901C896.533 473.567 896.189 474.172 895.871 474.888C895.552 475.605 895.273 476.392 895.034 477.248C894.796 478.099 894.609 478.982 894.474 479.898C894.34 480.809 894.273 481.707 894.273 482.593C894.273 483.778 894.39 484.977 894.624 486.192C894.858 487.406 895.174 488.534 895.572 489.574C895.97 490.614 896.413 491.463 896.901 492.12H894.855C893.91 490.791 893.19 489.34 892.698 487.767C892.205 486.194 891.959 484.47 891.959 482.593ZM905.026 474.948V490.238H902.711V477.263H902.622L898.963 479.652V477.442L902.778 474.948H905.026ZM917.143 487.371V486.565C917.143 485.988 917.262 485.46 917.501 484.982C917.745 484.5 918.098 484.114 918.561 483.825C919.029 483.531 919.594 483.385 920.256 483.385C920.933 483.385 921.5 483.529 921.958 483.818C922.416 484.106 922.762 484.492 922.996 484.975C923.235 485.458 923.354 485.988 923.354 486.565V487.371C923.354 487.949 923.235 488.479 922.996 488.962C922.757 489.439 922.406 489.825 921.943 490.119C921.485 490.408 920.923 490.552 920.256 490.552C919.584 490.552 919.017 490.408 918.554 490.119C918.091 489.825 917.74 489.439 917.501 488.962C917.262 488.479 917.143 487.949 917.143 487.371ZM918.882 486.565V487.371C918.882 487.799 918.984 488.188 919.188 488.536C919.392 488.884 919.748 489.059 920.256 489.059C920.759 489.059 921.11 488.884 921.309 488.536C921.508 488.188 921.607 487.799 921.607 487.371V486.565C921.607 486.137 921.51 485.749 921.316 485.4C921.127 485.052 920.774 484.878 920.256 484.878C919.758 484.878 919.405 485.052 919.196 485.4C918.987 485.749 918.882 486.137 918.882 486.565ZM909.453 478.621V477.815C909.453 477.238 909.572 476.708 909.811 476.225C910.055 475.742 910.409 475.356 910.871 475.068C911.339 474.779 911.904 474.635 912.566 474.635C913.243 474.635 913.81 474.779 914.268 475.068C914.726 475.356 915.072 475.742 915.306 476.225C915.54 476.708 915.657 477.238 915.657 477.815V478.621C915.657 479.199 915.538 479.729 915.299 480.212C915.065 480.689 914.716 481.075 914.253 481.369C913.796 481.658 913.233 481.802 912.566 481.802C911.889 481.802 911.319 481.658 910.856 481.369C910.399 481.075 910.05 480.689 909.811 480.212C909.572 479.729 909.453 479.199 909.453 478.621ZM911.2 477.815V478.621C911.2 479.049 911.299 479.438 911.499 479.786C911.703 480.134 912.058 480.309 912.566 480.309C913.064 480.309 913.412 480.134 913.611 479.786C913.815 479.438 913.917 479.049 913.917 478.621V477.815C913.917 477.387 913.82 476.999 913.626 476.65C913.432 476.302 913.079 476.128 912.566 476.128C912.068 476.128 911.715 476.302 911.506 476.65C911.302 476.999 911.2 477.387 911.2 477.815ZM910.162 490.238L920.674 474.948H922.458L911.946 490.238H910.162ZM930.895 482.593C930.895 484.47 930.648 486.194 930.156 487.767C929.663 489.34 928.944 490.791 927.998 492.12H925.952C926.321 491.627 926.664 491.022 926.983 490.305C927.301 489.589 927.58 488.805 927.819 487.954C928.058 487.098 928.244 486.212 928.379 485.296C928.513 484.38 928.58 483.479 928.58 482.593C928.58 481.414 928.463 480.217 928.23 479.002C927.996 477.788 927.68 476.66 927.281 475.62C926.883 474.58 926.44 473.731 925.952 473.074H927.998C928.944 474.403 929.663 475.854 930.156 477.427C930.648 479 930.895 480.722 930.895 482.593Z" fill="white"/>
<path d="M716.816 538.364V573.312H711.185L694.717 549.507H694.427V573.312H688.096V538.364H693.761L710.212 562.186H710.519V538.364H716.816ZM747.127 549.524C746.843 548.603 746.45 547.778 745.95 547.05C745.461 546.31 744.869 545.679 744.175 545.156C743.493 544.632 742.708 544.24 741.82 543.978C740.933 543.705 739.966 543.569 738.919 543.569C737.042 543.569 735.37 544.041 733.902 544.985C732.435 545.929 731.28 547.317 730.438 549.149C729.607 550.969 729.192 553.187 729.192 555.804C729.192 558.443 729.607 560.679 730.438 562.51C731.268 564.342 732.423 565.736 733.902 566.691C735.381 567.636 737.099 568.108 739.056 568.108C740.83 568.108 742.366 567.766 743.663 567.084C744.972 566.401 745.978 565.434 746.684 564.183C747.389 562.92 747.742 561.441 747.742 559.746L749.175 559.968H739.687V555.019H753.868V559.217C753.868 562.209 753.231 564.797 751.957 566.981C750.683 569.166 748.931 570.849 746.701 572.033C744.471 573.204 741.911 573.79 739.022 573.79C735.802 573.79 732.975 573.068 730.54 571.623C728.117 570.167 726.223 568.102 724.858 565.429C723.504 562.744 722.827 559.558 722.827 555.872C722.827 553.051 723.225 550.531 724.022 548.313C724.829 546.094 725.956 544.211 727.4 542.664C728.845 541.105 730.54 539.922 732.486 539.115C734.431 538.295 736.547 537.886 738.834 537.886C740.768 537.886 742.571 538.17 744.243 538.739C745.916 539.297 747.4 540.093 748.697 541.128C750.006 542.164 751.081 543.392 751.923 544.814C752.764 546.236 753.316 547.806 753.578 549.524H747.127ZM788.71 538.364V573.312H783.079L766.611 549.507H766.321V573.312H759.99V538.364H765.656L782.106 562.186H782.413V538.364H788.71ZM820.105 573.978C817.295 573.978 814.883 573.267 812.87 571.845C810.867 570.411 809.326 568.347 808.245 565.65C807.176 562.943 806.641 559.683 806.641 555.872C806.652 552.061 807.193 548.819 808.262 546.145C809.343 543.46 810.884 541.413 812.887 540.002C814.9 538.591 817.306 537.886 820.105 537.886C822.904 537.886 825.31 538.591 827.324 540.002C829.337 541.413 830.879 543.46 831.948 546.145C833.029 548.83 833.569 552.072 833.569 555.872C833.569 559.695 833.029 562.96 831.948 565.667C830.879 568.364 829.337 570.423 827.324 571.845C825.321 573.267 822.915 573.978 820.105 573.978ZM820.105 568.637C822.289 568.637 824.013 567.562 825.276 565.411C826.55 563.25 827.187 560.07 827.187 555.872C827.187 553.096 826.897 550.764 826.317 548.876C825.737 546.987 824.917 545.565 823.859 544.609C822.801 543.642 821.55 543.159 820.105 543.159C817.932 543.159 816.214 544.24 814.952 546.401C813.689 548.551 813.052 551.708 813.04 555.872C813.029 558.66 813.308 561.003 813.876 562.903C814.457 564.803 815.276 566.236 816.334 567.203C817.392 568.159 818.649 568.637 820.105 568.637ZM841.752 573.688C840.717 573.688 839.829 573.324 839.09 572.596C838.35 571.868 837.986 570.98 837.998 569.934C837.986 568.91 838.35 568.034 839.09 567.306C839.829 566.578 840.717 566.214 841.752 566.214C842.753 566.214 843.623 566.578 844.363 567.306C845.114 568.034 845.495 568.91 845.506 569.934C845.495 570.628 845.313 571.259 844.96 571.828C844.619 572.397 844.164 572.852 843.595 573.193C843.037 573.523 842.423 573.688 841.752 573.688ZM863.373 573.978C860.563 573.978 858.151 573.267 856.137 571.845C854.135 570.411 852.594 568.347 851.513 565.65C850.444 562.943 849.909 559.683 849.909 555.872C849.92 552.061 850.461 548.819 851.53 546.145C852.611 543.46 854.152 541.413 856.155 540.002C858.168 538.591 860.574 537.886 863.373 537.886C866.172 537.886 868.578 538.591 870.591 540.002C872.605 541.413 874.147 543.46 875.216 546.145C876.297 548.83 876.837 552.072 876.837 555.872C876.837 559.695 876.297 562.96 875.216 565.667C874.147 568.364 872.605 570.423 870.591 571.845C868.589 573.267 866.183 573.978 863.373 573.978ZM863.373 568.637C865.557 568.637 867.281 567.562 868.544 565.411C869.818 563.25 870.455 560.07 870.455 555.872C870.455 553.096 870.165 550.764 869.585 548.876C869.004 546.987 868.185 545.565 867.127 544.609C866.069 543.642 864.818 543.159 863.373 543.159C861.2 543.159 859.482 544.24 858.219 546.401C856.957 548.551 856.32 551.708 856.308 555.872C856.297 558.66 856.575 561.003 857.144 562.903C857.725 564.803 858.544 566.236 859.602 567.203C860.66 568.159 861.917 568.637 863.373 568.637ZM895.425 573.978C892.615 573.978 890.203 573.267 888.189 571.845C886.187 570.411 884.646 568.347 883.565 565.65C882.496 562.943 881.961 559.683 881.961 555.872C881.972 552.061 882.513 548.819 883.582 546.145C884.663 543.46 886.204 541.413 888.207 540.002C890.22 538.591 892.626 537.886 895.425 537.886C898.224 537.886 900.63 538.591 902.643 540.002C904.657 541.413 906.199 543.46 907.268 546.145C908.349 548.83 908.889 552.072 908.889 555.872C908.889 559.695 908.349 562.96 907.268 565.667C906.199 568.364 904.657 570.423 902.643 571.845C900.641 573.267 898.235 573.978 895.425 573.978ZM895.425 568.637C897.609 568.637 899.333 567.562 900.596 565.411C901.87 563.25 902.507 560.07 902.507 555.872C902.507 553.096 902.217 550.764 901.637 548.876C901.056 546.987 900.237 545.565 899.179 544.609C898.121 543.642 896.87 543.159 895.425 543.159C893.252 543.159 891.534 544.24 890.271 546.401C889.009 548.551 888.372 551.708 888.36 555.872C888.349 558.66 888.627 561.003 889.196 562.903C889.777 564.803 890.596 566.236 891.654 567.203C892.712 568.159 893.969 568.637 895.425 568.637Z" fill="white"/>
<path d="M150.033 490.238L145.792 474.948H148.219L151.198 486.789H151.34L154.438 474.948H156.842L159.94 486.797H160.082L163.053 474.948H165.487L161.239 490.238H158.917L155.7 478.786H155.58L152.362 490.238H150.033ZM167.591 490.238V474.948H177.177V476.934H169.898V481.593H176.677V483.571H169.898V488.252H177.267V490.238H167.591ZM188.816 490.238L184.576 474.948H187.002L189.981 486.789H190.123L193.221 474.948H195.625L198.723 486.797H198.865L201.837 474.948H204.271L200.023 490.238H197.701L194.483 478.786H194.363L191.146 490.238H188.816ZM208.681 474.948V490.238H206.374V474.948H208.681ZM212.041 490.238V474.948H214.348V488.252H221.276V490.238H212.041ZM223.908 490.238V474.948H226.215V488.252H233.143V490.238H223.908ZM249.678 478.965C249.598 478.258 249.27 477.711 248.692 477.322C248.115 476.929 247.388 476.733 246.512 476.733C245.885 476.733 245.343 476.832 244.885 477.031C244.427 477.225 244.071 477.494 243.817 477.837C243.568 478.176 243.444 478.562 243.444 478.995C243.444 479.358 243.529 479.672 243.698 479.935C243.872 480.199 244.098 480.421 244.377 480.6C244.661 480.774 244.965 480.921 245.288 481.04C245.612 481.155 245.923 481.249 246.221 481.324L247.714 481.712C248.202 481.832 248.702 481.993 249.215 482.198C249.728 482.402 250.203 482.67 250.641 483.004C251.079 483.337 251.432 483.75 251.701 484.243C251.975 484.736 252.112 485.326 252.112 486.013C252.112 486.879 251.888 487.648 251.44 488.32C250.997 488.991 250.352 489.522 249.506 489.91C248.665 490.298 247.647 490.492 246.453 490.492C245.308 490.492 244.317 490.31 243.481 489.947C242.645 489.584 241.991 489.069 241.518 488.402C241.045 487.73 240.784 486.933 240.734 486.013H243.048C243.093 486.565 243.272 487.025 243.586 487.394C243.904 487.757 244.31 488.028 244.803 488.208C245.301 488.382 245.846 488.469 246.438 488.469C247.09 488.469 247.67 488.367 248.177 488.163C248.69 487.954 249.093 487.665 249.387 487.297C249.68 486.923 249.827 486.488 249.827 485.99C249.827 485.537 249.698 485.166 249.439 484.878C249.185 484.589 248.839 484.35 248.401 484.161C247.968 483.972 247.478 483.805 246.931 483.661L245.124 483.168C243.899 482.835 242.929 482.344 242.212 481.697C241.5 481.05 241.145 480.194 241.145 479.129C241.145 478.248 241.383 477.479 241.861 476.822C242.339 476.165 242.986 475.655 243.802 475.292C244.619 474.923 245.539 474.739 246.565 474.739C247.6 474.739 248.513 474.921 249.305 475.284C250.101 475.648 250.728 476.148 251.186 476.785C251.644 477.417 251.883 478.144 251.903 478.965H249.678ZM254.869 490.238V474.948H264.455V476.934H257.176V481.593H263.955V483.571H257.176V488.252H264.544V490.238H254.869ZM266.782 476.934V474.948H278.616V476.934H273.845V490.238H271.545V476.934H266.782ZM280.477 476.934V474.948H292.31V476.934H287.539V490.238H285.24V476.934H280.477ZM294.925 490.238V474.948H297.232V488.252H304.16V490.238H294.925ZM306.792 490.238V474.948H316.378V476.934H309.099V481.593H315.878V483.571H309.099V488.252H316.468V490.238H306.792ZM323.844 474.948H326.464L330.459 481.899H330.623L334.617 474.948H337.238L331.69 484.236V490.238H329.391V484.236L323.844 474.948ZM351.917 482.593C351.917 484.226 351.619 485.629 351.021 486.804C350.424 487.974 349.605 488.875 348.565 489.507C347.53 490.134 346.353 490.447 345.034 490.447C343.71 490.447 342.528 490.134 341.488 489.507C340.452 488.875 339.636 487.971 339.039 486.797C338.441 485.622 338.143 484.221 338.143 482.593C338.143 480.961 338.441 479.56 339.039 478.39C339.636 477.215 340.452 476.314 341.488 475.687C342.528 475.055 343.71 474.739 345.034 474.739C346.353 474.739 347.53 475.055 348.565 475.687C349.605 476.314 350.424 477.215 351.021 478.39C351.619 479.56 351.917 480.961 351.917 482.593ZM349.633 482.593C349.633 481.349 349.431 480.301 349.028 479.45C348.63 478.594 348.082 477.947 347.386 477.509C346.694 477.066 345.91 476.845 345.034 476.845C344.153 476.845 343.366 477.066 342.675 477.509C341.983 477.947 341.435 478.594 341.032 479.45C340.634 480.301 340.435 481.349 340.435 482.593C340.435 483.838 340.634 484.888 341.032 485.744C341.435 486.595 341.983 487.242 342.675 487.685C343.366 488.123 344.153 488.342 345.034 488.342C345.91 488.342 346.694 488.123 347.386 487.685C348.082 487.242 348.63 486.595 349.028 485.744C349.431 484.888 349.633 483.838 349.633 482.593ZM364.626 474.948H366.941V485.005C366.941 486.075 366.689 487.023 366.186 487.849C365.684 488.67 364.977 489.317 364.066 489.79C363.155 490.258 362.088 490.492 360.863 490.492C359.644 490.492 358.579 490.258 357.668 489.79C356.757 489.317 356.05 488.67 355.548 487.849C355.045 487.023 354.794 486.075 354.794 485.005V474.948H357.101V484.818C357.101 485.51 357.252 486.125 357.556 486.662C357.865 487.2 358.3 487.623 358.862 487.931C359.425 488.235 360.092 488.387 360.863 488.387C361.64 488.387 362.309 488.235 362.872 487.931C363.439 487.623 363.872 487.2 364.171 486.662C364.474 486.125 364.626 485.51 364.626 484.818V474.948Z" fill="white"/>
<path d="M177.527 538.364V573.312H171.895L155.428 549.507H155.138V573.312H148.806V538.364H154.472L170.922 562.186H171.23V538.364H177.527ZM207.838 549.524C207.554 548.603 207.161 547.778 206.66 547.05C206.171 546.31 205.58 545.679 204.886 545.156C204.203 544.632 203.418 544.24 202.531 543.978C201.643 543.705 200.676 543.569 199.63 543.569C197.753 543.569 196.08 544.041 194.613 544.985C193.145 545.929 191.99 547.317 191.149 549.149C190.318 550.969 189.903 553.187 189.903 555.804C189.903 558.443 190.318 560.679 191.149 562.51C191.979 564.342 193.134 565.736 194.613 566.691C196.092 567.636 197.81 568.108 199.766 568.108C201.541 568.108 203.077 567.766 204.374 567.084C205.682 566.401 206.689 565.434 207.394 564.183C208.1 562.92 208.452 561.441 208.452 559.746L209.886 559.968H200.398V555.019H214.579V559.217C214.579 562.209 213.941 564.797 212.667 566.981C211.393 569.166 209.641 570.849 207.411 572.033C205.182 573.204 202.622 573.79 199.732 573.79C196.513 573.79 193.686 573.068 191.251 571.623C188.828 570.167 186.934 568.102 185.568 565.429C184.215 562.744 183.538 559.558 183.538 555.872C183.538 553.051 183.936 550.531 184.732 548.313C185.54 546.094 186.666 544.211 188.111 542.664C189.556 541.105 191.251 539.922 193.196 539.115C195.142 538.295 197.258 537.886 199.544 537.886C201.478 537.886 203.282 538.17 204.954 538.739C206.626 539.297 208.111 540.093 209.408 541.128C210.716 542.164 211.791 543.392 212.633 544.814C213.475 546.236 214.027 547.806 214.288 549.524H207.838ZM249.421 538.364V573.312H243.789L227.322 549.507H227.032V573.312H220.701V538.364H226.366L242.817 562.186H243.124V538.364H249.421ZM280.816 573.978C278.006 573.978 275.594 573.267 273.58 571.845C271.578 570.411 270.036 568.347 268.956 565.65C267.886 562.943 267.352 559.683 267.352 555.872C267.363 552.061 267.903 548.819 268.973 546.145C270.053 543.46 271.595 541.413 273.597 540.002C275.611 538.591 278.017 537.886 280.816 537.886C283.614 537.886 286.02 538.591 288.034 540.002C290.048 541.413 291.589 543.46 292.659 546.145C293.739 548.83 294.28 552.072 294.28 555.872C294.28 559.695 293.739 562.96 292.659 565.667C291.589 568.364 290.048 570.423 288.034 571.845C286.032 573.267 283.626 573.978 280.816 573.978ZM280.816 568.637C283 568.637 284.724 567.562 285.986 565.411C287.261 563.25 287.898 560.07 287.898 555.872C287.898 553.096 287.607 550.764 287.027 548.876C286.447 546.987 285.628 545.565 284.57 544.609C283.512 543.642 282.261 543.159 280.816 543.159C278.643 543.159 276.925 544.24 275.662 546.401C274.399 548.551 273.762 551.708 273.751 555.872C273.739 558.66 274.018 561.003 274.587 562.903C275.167 564.803 275.986 566.236 277.044 567.203C278.102 568.159 279.359 568.637 280.816 568.637ZM302.462 573.688C301.427 573.688 300.54 573.324 299.8 572.596C299.061 571.868 298.697 570.98 298.708 569.934C298.697 568.91 299.061 568.034 299.8 567.306C300.54 566.578 301.427 566.214 302.462 566.214C303.464 566.214 304.334 566.578 305.073 567.306C305.824 568.034 306.205 568.91 306.217 569.934C306.205 570.628 306.023 571.259 305.671 571.828C305.329 572.397 304.874 572.852 304.305 573.193C303.748 573.523 303.134 573.688 302.462 573.688ZM324.084 573.978C321.274 573.978 318.862 573.267 316.848 571.845C314.846 570.411 313.304 568.347 312.224 565.65C311.154 562.943 310.619 559.683 310.619 555.872C310.631 552.061 311.171 548.819 312.241 546.145C313.321 543.46 314.863 541.413 316.865 540.002C318.879 538.591 321.285 537.886 324.084 537.886C326.882 537.886 329.288 538.591 331.302 540.002C333.316 541.413 334.857 543.46 335.927 546.145C337.007 548.83 337.548 552.072 337.548 555.872C337.548 559.695 337.007 562.96 335.927 565.667C334.857 568.364 333.316 570.423 331.302 571.845C329.3 573.267 326.894 573.978 324.084 573.978ZM324.084 568.637C326.268 568.637 327.991 567.562 329.254 565.411C330.528 563.25 331.165 560.07 331.165 555.872C331.165 553.096 330.875 550.764 330.295 548.876C329.715 546.987 328.896 545.565 327.838 544.609C326.78 543.642 325.528 543.159 324.084 543.159C321.911 543.159 320.193 544.24 318.93 546.401C317.667 548.551 317.03 551.708 317.019 555.872C317.007 558.66 317.286 561.003 317.855 562.903C318.435 564.803 319.254 566.236 320.312 567.203C321.37 568.159 322.627 568.637 324.084 568.637ZM356.136 573.978C353.326 573.978 350.914 573.267 348.9 571.845C346.898 570.411 345.356 568.347 344.276 565.65C343.206 562.943 342.671 559.683 342.671 555.872C342.683 552.061 343.223 548.819 344.293 546.145C345.373 543.46 346.915 541.413 348.917 540.002C350.931 538.591 353.337 537.886 356.136 537.886C358.934 537.886 361.34 538.591 363.354 540.002C365.368 541.413 366.909 543.46 367.979 546.145C369.059 548.83 369.6 552.072 369.6 555.872C369.6 559.695 369.059 562.96 367.979 565.667C366.909 568.364 365.368 570.423 363.354 571.845C361.352 573.267 358.946 573.978 356.136 573.978ZM356.136 568.637C358.32 568.637 360.043 567.562 361.306 565.411C362.58 563.25 363.217 560.07 363.217 555.872C363.217 553.096 362.927 550.764 362.347 548.876C361.767 546.987 360.948 545.565 359.89 544.609C358.832 543.642 357.58 543.159 356.136 543.159C353.963 543.159 352.245 544.24 350.982 546.401C349.719 548.551 349.082 551.708 349.071 555.872C349.059 558.66 349.338 561.003 349.907 562.903C350.487 564.803 351.306 566.236 352.364 567.203C353.422 568.159 354.679 568.637 356.136 568.637Z" fill="white"/>
<path d="M114.232 91.2969V73.8225H120.461C121.82 73.8225 122.947 74.0699 123.84 74.5648C124.733 75.0597 125.401 75.7366 125.845 76.5955C126.289 77.4488 126.51 78.4101 126.51 79.4795C126.51 80.5546 126.286 81.5216 125.836 82.3805C125.393 83.2337 124.721 83.9106 123.823 84.4112C122.93 84.9061 121.806 85.1535 120.452 85.1535H116.169V82.918H120.214C121.072 82.918 121.769 82.7702 122.304 82.4744C122.839 82.1729 123.231 81.7633 123.481 81.2457C123.732 80.7281 123.857 80.1393 123.857 79.4795C123.857 78.8196 123.732 78.2338 123.481 77.7218C123.231 77.2099 122.836 76.8088 122.295 76.5187C121.761 76.2286 121.055 76.0836 120.179 76.0836H116.869V91.2969H114.232ZM133.093 91.587C132.263 91.587 131.512 91.4334 130.841 91.1262C130.169 90.8134 129.638 90.3612 129.245 89.7696C128.858 89.178 128.665 88.4527 128.665 87.5938C128.665 86.8543 128.807 86.2457 129.091 85.7679C129.376 85.2901 129.76 84.9118 130.243 84.6331C130.727 84.3543 131.267 84.1439 131.865 84.0017C132.462 83.8595 133.07 83.7514 133.69 83.6774C134.475 83.5864 135.113 83.5125 135.602 83.4556C136.091 83.393 136.446 83.2935 136.668 83.157C136.89 83.0204 137.001 82.7986 137.001 82.4914V82.4317C137.001 81.6865 136.791 81.1092 136.37 80.6996C135.954 80.2901 135.334 80.0853 134.51 80.0853C133.651 80.0853 132.974 80.2758 132.479 80.657C131.99 81.0324 131.651 81.4505 131.464 81.9112L129.066 81.3651C129.35 80.5688 129.766 79.926 130.312 79.4368C130.863 78.9419 131.498 78.5836 132.214 78.3617C132.931 78.1342 133.685 78.0204 134.475 78.0204C134.999 78.0204 135.553 78.083 136.139 78.2082C136.731 78.3276 137.283 78.5494 137.795 78.8737C138.312 79.1979 138.736 79.6615 139.066 80.2645C139.396 80.8617 139.561 81.6382 139.561 82.5938V91.2969H137.069V89.5051H136.967C136.802 89.835 136.555 90.1592 136.225 90.4778C135.895 90.7963 135.471 91.0608 134.953 91.2713C134.436 91.4817 133.816 91.587 133.093 91.587ZM133.648 89.5392C134.353 89.5392 134.956 89.3998 135.457 89.1211C135.963 88.8424 136.347 88.4783 136.609 88.029C136.876 87.5739 137.01 87.0876 137.01 86.5699V84.8805C136.919 84.9715 136.742 85.0568 136.481 85.1365C136.225 85.2104 135.932 85.2758 135.602 85.3327C135.272 85.3839 134.95 85.4323 134.638 85.4778C134.325 85.5176 134.063 85.5517 133.853 85.5802C133.358 85.6427 132.905 85.748 132.496 85.8959C132.092 86.0438 131.768 86.2571 131.523 86.5358C131.284 86.8088 131.165 87.1729 131.165 87.6279C131.165 88.2593 131.398 88.7372 131.865 89.0614C132.331 89.3799 132.925 89.5392 133.648 89.5392ZM144.102 96.2115C143.721 96.2115 143.374 96.1803 143.061 96.1177C142.748 96.0608 142.515 95.9982 142.362 95.93L142.976 93.8395C143.442 93.9647 143.858 94.0187 144.222 94.0016C144.586 93.9846 144.907 93.8481 145.186 93.5921C145.47 93.3361 145.72 92.918 145.937 92.3378L146.252 91.4675L141.457 78.1911H144.187L147.507 88.3617H147.643L150.962 78.1911H153.701L148.3 93.046C148.05 93.7286 147.731 94.306 147.344 94.7781C146.958 95.2559 146.497 95.6143 145.962 95.8532C145.428 96.0921 144.807 96.2115 144.102 96.2115ZM156.099 91.2969V78.1911H158.548V80.3242H158.71C158.983 79.6018 159.429 79.0386 160.049 78.6348C160.669 78.2252 161.412 78.0204 162.276 78.0204C163.152 78.0204 163.886 78.2252 164.478 78.6348C165.075 79.0443 165.516 79.6075 165.8 80.3242H165.937C166.249 79.6245 166.747 79.0671 167.43 78.6518C168.112 78.2309 168.926 78.0204 169.87 78.0204C171.059 78.0204 172.029 78.393 172.78 79.1382C173.536 79.8834 173.914 81.0068 173.914 82.5085V91.2969H171.363V82.7474C171.363 81.86 171.121 81.2173 170.638 80.8191C170.154 80.4209 169.577 80.2218 168.906 80.2218C168.075 80.2218 167.43 80.4778 166.969 80.9897C166.508 81.496 166.278 82.1473 166.278 82.9436V91.2969H163.735V82.5853C163.735 81.8742 163.513 81.3026 163.07 80.8703C162.626 80.438 162.049 80.2218 161.338 80.2218C160.854 80.2218 160.408 80.3498 159.998 80.6058C159.594 80.856 159.267 81.2059 159.017 81.6552C158.772 82.1046 158.65 82.6251 158.65 83.2167V91.2969H156.099ZM182.982 91.5614C181.691 91.5614 180.579 91.2855 179.646 90.7337C178.719 90.1763 178.002 89.3941 177.496 88.3873C176.995 87.3748 176.745 86.1888 176.745 84.8293C176.745 83.4869 176.995 82.3037 177.496 81.2798C178.002 80.2559 178.707 79.4567 179.612 78.8822C180.522 78.3077 181.586 78.0204 182.803 78.0204C183.543 78.0204 184.259 78.1427 184.953 78.3873C185.647 78.6319 186.27 79.0159 186.822 79.5392C187.374 80.0625 187.809 80.7423 188.127 81.5785C188.446 82.4089 188.605 83.4186 188.605 84.6075V85.5119H178.187V83.6006H186.105C186.105 82.9294 185.969 82.335 185.696 81.8174C185.422 81.294 185.039 80.8816 184.544 80.5802C184.054 80.2787 183.48 80.1279 182.82 80.1279C182.103 80.1279 181.478 80.3043 180.943 80.657C180.414 81.0039 180.004 81.459 179.714 82.0221C179.43 82.5796 179.288 83.1854 179.288 83.8395V85.3327C179.288 86.2087 179.441 86.9539 179.748 87.5682C180.061 88.1825 180.496 88.6518 181.054 88.9761C181.611 89.2946 182.263 89.4539 183.008 89.4539C183.491 89.4539 183.932 89.3856 184.33 89.2491C184.729 89.1069 185.073 88.8964 185.363 88.6177C185.653 88.339 185.875 87.9948 186.028 87.5853L188.443 88.0204C188.25 88.7315 187.903 89.3543 187.402 89.889C186.907 90.418 186.284 90.8304 185.533 91.1262C184.788 91.4163 183.938 91.5614 182.982 91.5614ZM193.987 83.5153V91.2969H191.436V78.1911H193.884V80.3242H194.047C194.348 79.6302 194.82 79.0728 195.463 78.6518C196.111 78.2309 196.928 78.0204 197.912 78.0204C198.805 78.0204 199.587 78.2082 200.258 78.5836C200.929 78.9533 201.45 79.5051 201.82 80.2389C202.189 80.9727 202.374 81.8799 202.374 82.9607V91.2969H199.823V83.2679C199.823 82.3179 199.576 81.5756 199.081 81.0409C198.586 80.5005 197.906 80.2303 197.041 80.2303C196.45 80.2303 195.924 80.3583 195.463 80.6143C195.008 80.8703 194.647 81.2457 194.379 81.7406C194.118 82.2298 193.987 82.8213 193.987 83.5153ZM211.913 78.1911V80.2389H204.755V78.1911H211.913ZM206.675 75.0512H209.226V87.4488C209.226 87.9436 209.3 88.3162 209.448 88.5665C209.596 88.8111 209.786 88.9789 210.019 89.0699C210.258 89.1552 210.517 89.1979 210.796 89.1979C211.001 89.1979 211.18 89.1837 211.333 89.1552C211.487 89.1268 211.606 89.104 211.692 89.087L212.152 91.1945C212.005 91.2514 211.794 91.3083 211.521 91.3651C211.248 91.4277 210.907 91.4618 210.497 91.4675C209.826 91.4789 209.2 91.3594 208.62 91.1092C208.04 90.8589 207.57 90.4721 207.212 89.9488C206.854 89.4254 206.675 88.7684 206.675 87.9778V75.0512ZM221.299 91.2969V73.8225H223.936V89.0273H231.854V91.2969H221.299ZM234.657 91.2969V78.1911H237.208V91.2969H234.657ZM235.945 76.1689C235.501 76.1689 235.12 76.021 234.802 75.7252C234.489 75.4237 234.332 75.0654 234.332 74.6501C234.332 74.2292 234.489 73.8708 234.802 73.5751C235.12 73.2736 235.501 73.1228 235.945 73.1228C236.389 73.1228 236.767 73.2736 237.08 73.5751C237.398 73.8708 237.558 74.2292 237.558 74.6501C237.558 75.0654 237.398 75.4237 237.08 75.7252C236.767 76.021 236.389 76.1689 235.945 76.1689ZM243.191 83.5153V91.2969H240.64V78.1911H243.089V80.3242H243.251C243.552 79.6302 244.025 79.0728 244.667 78.6518C245.316 78.2309 246.132 78.0204 247.116 78.0204C248.009 78.0204 248.791 78.2082 249.463 78.5836C250.134 78.9533 250.654 79.5051 251.024 80.2389C251.394 80.9727 251.579 81.8799 251.579 82.9607V91.2969H249.027V83.2679C249.027 82.3179 248.78 81.5756 248.285 81.0409C247.79 80.5005 247.11 80.2303 246.246 80.2303C245.654 80.2303 245.128 80.3583 244.667 80.6143C244.212 80.8703 243.851 81.2457 243.584 81.7406C243.322 82.2298 243.191 82.8213 243.191 83.5153ZM257.346 86.8515L257.329 83.7372H257.773L262.995 78.1911H266.05L260.094 84.5051H259.693L257.346 86.8515ZM255 91.2969V73.8225H257.551V91.2969H255ZM263.276 91.2969L258.584 85.0682L260.341 83.2849L266.408 91.2969H263.276ZM278.195 81.3907L275.883 81.8003C275.786 81.5045 275.633 81.2229 275.422 80.9556C275.218 80.6882 274.939 80.4692 274.586 80.2986C274.234 80.1279 273.793 80.0426 273.264 80.0426C272.541 80.0426 271.938 80.2047 271.455 80.529C270.971 80.8475 270.73 81.2599 270.73 81.7662C270.73 82.2042 270.892 82.5568 271.216 82.8242C271.54 83.0915 272.063 83.3105 272.786 83.4812L274.868 83.959C276.074 84.2377 276.972 84.6672 277.564 85.2474C278.156 85.8276 278.451 86.5813 278.451 87.5085C278.451 88.2935 278.224 88.9931 277.769 89.6075C277.319 90.2161 276.691 90.6939 275.883 91.0409C275.081 91.3879 274.151 91.5614 273.093 91.5614C271.625 91.5614 270.428 91.2485 269.501 90.6228C268.574 89.9914 268.005 89.0955 267.794 87.9351L270.26 87.5597C270.414 88.2025 270.73 88.6888 271.207 89.0187C271.685 89.343 272.308 89.5051 273.076 89.5051C273.912 89.5051 274.58 89.3316 275.081 88.9846C275.582 88.6319 275.832 88.2025 275.832 87.6962C275.832 87.2866 275.678 86.9425 275.371 86.6638C275.07 86.385 274.606 86.1746 273.98 86.0324L271.762 85.546C270.539 85.2673 269.635 84.8236 269.049 84.215C268.468 83.6063 268.178 82.8356 268.178 81.9027C268.178 81.1291 268.395 80.4522 268.827 79.872C269.259 79.2918 269.856 78.8396 270.619 78.5153C271.381 78.1854 272.254 78.0204 273.238 78.0204C274.654 78.0204 275.769 78.3276 276.583 78.9419C277.396 79.5506 277.934 80.3669 278.195 81.3907Z" fill="white"/>
<path d="M438.839 73.8225L444.299 89.2235H444.453L449.914 73.8225H451.586L445.229 91.2969H443.523L437.166 73.8225H438.839ZM454.282 91.2969V78.1911H455.81V91.2969H454.282ZM455.059 75.9385C454.746 75.9385 454.479 75.8333 454.257 75.6228C454.035 75.4067 453.924 75.1479 453.924 74.8464C453.924 74.5449 454.035 74.2889 454.257 74.0785C454.479 73.8623 454.746 73.7542 455.059 73.7542C455.372 73.7542 455.639 73.8623 455.861 74.0785C456.083 74.2889 456.194 74.5449 456.194 74.8464C456.194 75.1479 456.083 75.4067 455.861 75.6228C455.639 75.8333 455.372 75.9385 455.059 75.9385ZM459.826 91.2969V78.1911H461.302V80.2047H461.413C461.675 79.5449 462.13 79.013 462.778 78.6092C463.433 78.1996 464.172 77.9948 464.997 77.9948C465.122 77.9948 465.261 77.9977 465.415 78.0034C465.569 78.0091 465.697 78.0148 465.799 78.0204V79.5648C465.731 79.5534 465.611 79.5364 465.441 79.5136C465.27 79.4909 465.085 79.4795 464.886 79.4795C464.203 79.4795 463.595 79.6245 463.06 79.9146C462.531 80.199 462.113 80.5944 461.806 81.1006C461.499 81.6069 461.345 82.1843 461.345 82.8327V91.2969H459.826ZM474.374 78.1911V79.5136H468.12V78.1911H474.374ZM470.074 75.0512H471.601V87.8754C471.601 88.4215 471.695 88.8509 471.883 89.1638C472.07 89.4709 472.315 89.6899 472.616 89.8208C472.918 89.9459 473.239 90.0085 473.58 90.0085C473.78 90.0085 473.95 89.9971 474.092 89.9744C474.235 89.9459 474.36 89.9175 474.468 89.889L474.792 91.2627C474.644 91.3196 474.462 91.3708 474.246 91.4163C474.03 91.4675 473.762 91.4931 473.444 91.4931C472.886 91.4931 472.349 91.3708 471.831 91.1262C471.319 90.8816 470.898 90.5176 470.569 90.0341C470.239 89.5506 470.074 88.9505 470.074 88.2337V75.0512ZM486.151 86.2883V78.1911H487.67V91.2969H486.151V89.1211H486.031C485.724 89.7923 485.238 90.3526 484.572 90.802C483.907 91.2457 483.093 91.4675 482.132 91.4675C481.296 91.4675 480.554 91.2855 479.905 90.9214C479.257 90.5517 478.748 90.0113 478.378 89.3003C478.008 88.5893 477.823 87.7161 477.823 86.6808V78.1911H479.342V86.587C479.342 87.6109 479.643 88.4357 480.246 89.0614C480.849 89.6814 481.623 89.9914 482.567 89.9914C483.159 89.9914 483.728 89.8492 484.274 89.5648C484.82 89.2804 485.269 88.8651 485.622 88.3191C485.974 87.7673 486.151 87.0904 486.151 86.2883ZM495.351 91.5955C494.56 91.5955 493.838 91.4419 493.184 91.1348C492.53 90.8219 492.009 90.3725 491.622 89.7866C491.235 89.1951 491.042 88.4783 491.042 87.6365C491.042 86.988 491.164 86.4419 491.409 85.9982C491.654 85.5546 492.001 85.1905 492.45 84.9061C492.899 84.6217 493.431 84.397 494.045 84.232C494.66 84.0671 495.337 83.9391 496.076 83.8481C496.81 83.7571 497.43 83.6774 497.936 83.6092C498.448 83.5409 498.838 83.4328 499.105 83.2849C499.373 83.137 499.506 82.8981 499.506 82.5682V82.261C499.506 81.368 499.239 80.6655 498.704 80.1535C498.175 79.6359 497.413 79.3771 496.417 79.3771C495.473 79.3771 494.702 79.5847 494.105 80C493.514 80.4152 493.098 80.9044 492.859 81.4675L491.417 80.9471C491.713 80.2303 492.123 79.6587 492.646 79.232C493.169 78.7997 493.755 78.4897 494.404 78.302C495.052 78.1086 495.709 78.0119 496.375 78.0119C496.875 78.0119 497.396 78.0773 497.936 78.2082C498.482 78.339 498.989 78.5665 499.455 78.8907C499.921 79.2093 500.3 79.6558 500.59 80.2303C500.88 80.7992 501.025 81.5216 501.025 82.3976V91.2969H499.506V89.2235H499.412C499.23 89.6103 498.96 89.9857 498.602 90.3498C498.243 90.7138 497.794 91.0125 497.254 91.2457C496.713 91.4789 496.079 91.5955 495.351 91.5955ZM495.556 90.2047C496.363 90.2047 497.063 90.0255 497.655 89.6672C498.246 89.3088 498.701 88.8339 499.02 88.2423C499.344 87.645 499.506 86.988 499.506 86.2713V84.3771C499.392 84.4852 499.202 84.5819 498.935 84.6672C498.673 84.7525 498.369 84.8293 498.022 84.8976C497.68 84.9601 497.339 85.0142 496.998 85.0597C496.656 85.1052 496.349 85.145 496.076 85.1791C495.337 85.2701 494.705 85.4124 494.182 85.6058C493.659 85.7992 493.258 86.0665 492.979 86.4078C492.7 86.7434 492.561 87.1757 492.561 87.7047C492.561 88.5011 492.845 89.1183 493.414 89.5563C493.983 89.9886 494.697 90.2047 495.556 90.2047ZM506.584 73.8225V91.2969H505.065V73.8225H506.584ZM517.702 91.2969H516.029L522.386 73.8225H524.092L530.449 91.2969H528.777L523.299 75.8959H523.179L517.702 91.2969ZM518.905 84.5989H527.574V86.0324H518.905V84.5989ZM538.248 91.5699C537.076 91.5699 536.055 91.277 535.184 90.6911C534.32 90.1052 533.649 89.3031 533.171 88.2849C532.693 87.2667 532.454 86.1063 532.454 84.8037C532.454 83.4897 532.696 82.3208 533.179 81.2969C533.669 80.273 534.345 79.471 535.21 78.8907C536.075 78.3049 537.079 78.0119 538.222 78.0119C539.098 78.0119 539.892 78.1826 540.603 78.5239C541.314 78.8595 541.899 79.3344 542.36 79.9488C542.827 80.5574 543.12 81.2684 543.239 82.0819H541.703C541.544 81.3424 541.16 80.711 540.551 80.1877C539.948 79.6587 539.18 79.3942 538.248 79.3942C537.411 79.3942 536.672 79.6217 536.029 80.0768C535.386 80.5261 534.883 81.1547 534.519 81.9624C534.161 82.7645 533.981 83.6945 533.981 84.7525C533.981 85.8162 534.158 86.7576 534.51 87.5767C534.863 88.3902 535.358 89.0273 535.995 89.488C536.638 89.9488 537.389 90.1791 538.248 90.1791C538.828 90.1791 539.357 90.0711 539.835 89.8549C540.318 89.6331 540.722 89.3202 541.046 88.9163C541.376 88.5125 541.598 88.0318 541.712 87.4744H543.248C543.134 88.265 542.852 88.9704 542.403 89.5904C541.959 90.2047 541.382 90.6882 540.671 91.0409C539.965 91.3936 539.158 91.5699 538.248 91.5699ZM551.622 91.5699C550.45 91.5699 549.429 91.277 548.559 90.6911C547.694 90.1052 547.023 89.3031 546.545 88.2849C546.068 87.2667 545.829 86.1063 545.829 84.8037C545.829 83.4897 546.07 82.3208 546.554 81.2969C547.043 80.273 547.72 79.471 548.585 78.8907C549.449 78.3049 550.453 78.0119 551.597 78.0119C552.473 78.0119 553.266 78.1826 553.977 78.5239C554.688 78.8595 555.274 79.3344 555.735 79.9488C556.201 80.5574 556.494 81.2684 556.614 82.0819H555.078C554.919 81.3424 554.535 80.711 553.926 80.1877C553.323 79.6587 552.555 79.3942 551.622 79.3942C550.786 79.3942 550.047 79.6217 549.404 80.0768C548.761 80.5261 548.258 81.1547 547.894 81.9624C547.535 82.7645 547.356 83.6945 547.356 84.7525C547.356 85.8162 547.532 86.7576 547.885 87.5767C548.238 88.3902 548.733 89.0273 549.37 89.488C550.012 89.9488 550.763 90.1791 551.622 90.1791C552.202 90.1791 552.731 90.0711 553.209 89.8549C553.693 89.6331 554.097 89.3202 554.421 88.9163C554.751 88.5125 554.973 88.0318 555.086 87.4744H556.622C556.508 88.265 556.227 88.9704 555.777 89.5904C555.334 90.2047 554.756 90.6882 554.045 91.0409C553.34 91.3936 552.532 91.5699 551.622 91.5699ZM564.971 91.5699C563.839 91.5699 562.838 91.2827 561.968 90.7081C561.103 90.1336 560.426 89.3401 559.937 88.3276C559.448 87.3094 559.203 86.1348 559.203 84.8037C559.203 83.4613 559.448 82.281 559.937 81.2628C560.426 80.2389 561.103 79.4425 561.968 78.8737C562.838 78.2992 563.839 78.0119 564.971 78.0119C566.103 78.0119 567.101 78.2992 567.966 78.8737C568.831 79.4482 569.508 80.2446 569.997 81.2628C570.492 82.281 570.739 83.4613 570.739 84.8037C570.739 86.1348 570.494 87.3094 570.005 88.3276C569.516 89.3401 568.836 90.1336 567.966 90.7081C567.101 91.2827 566.103 91.5699 564.971 91.5699ZM564.971 90.1791C565.881 90.1791 566.652 89.9345 567.283 89.4453C567.915 88.9561 568.393 88.3048 568.717 87.4914C569.047 86.678 569.212 85.7821 569.212 84.8037C569.212 83.8253 569.047 82.9266 568.717 82.1075C568.393 81.2884 567.915 80.6314 567.283 80.1365C566.652 79.6416 565.881 79.3942 564.971 79.3942C564.067 79.3942 563.296 79.6416 562.659 80.1365C562.027 80.6314 561.547 81.2884 561.217 82.1075C560.893 82.9266 560.731 83.8253 560.731 84.8037C560.731 85.7821 560.893 86.678 561.217 87.4914C561.547 88.3048 562.027 88.9561 562.659 89.4453C563.29 89.9345 564.061 90.1791 564.971 90.1791ZM582.401 86.2883V78.1911H583.919V91.2969H582.401V89.1211H582.281C581.974 89.7923 581.488 90.3526 580.822 90.802C580.157 91.2457 579.343 91.4675 578.382 91.4675C577.546 91.4675 576.803 91.2855 576.155 90.9214C575.507 90.5517 574.997 90.0113 574.628 89.3003C574.258 88.5893 574.073 87.7161 574.073 86.6808V78.1911H575.592V86.587C575.592 87.6109 575.893 88.4357 576.496 89.0614C577.099 89.6814 577.873 89.9914 578.817 89.9914C579.409 89.9914 579.978 89.8492 580.524 89.5648C581.07 89.2804 581.519 88.8651 581.872 88.3191C582.224 87.7673 582.401 87.0904 582.401 86.2883ZM589.459 83.1058V91.2969H587.94V78.1911H589.416V80.2474H589.553C589.86 79.5762 590.338 79.0386 590.986 78.6348C591.641 78.2252 592.448 78.0204 593.41 78.0204C594.291 78.0204 595.065 78.2053 595.73 78.575C596.402 78.9391 596.922 79.4766 597.292 80.1877C597.667 80.8987 597.855 81.7719 597.855 82.8071V91.2969H596.336V82.901C596.336 81.8259 596.035 80.9755 595.432 80.3498C594.835 79.7241 594.033 79.4112 593.026 79.4112C592.337 79.4112 591.726 79.5591 591.191 79.8549C590.657 80.1507 590.233 80.5773 589.92 81.1348C589.613 81.6865 589.459 82.3435 589.459 83.1058ZM607.017 78.1911V79.5136H600.762V78.1911H607.017ZM602.716 75.0512H604.244V87.8754C604.244 88.4215 604.338 88.8509 604.525 89.1638C604.713 89.4709 604.958 89.6899 605.259 89.8208C605.561 89.9459 605.882 90.0085 606.223 90.0085C606.422 90.0085 606.593 89.9971 606.735 89.9744C606.877 89.9459 607.003 89.9175 607.111 89.889L607.435 91.2627C607.287 91.3196 607.105 91.3708 606.889 91.4163C606.673 91.4675 606.405 91.4931 606.087 91.4931C605.529 91.4931 604.992 91.3708 604.474 91.1262C603.962 90.8816 603.541 90.5176 603.211 90.0341C602.881 89.5506 602.716 88.9505 602.716 88.2337V75.0512Z" fill="#849BA5"/>
<path d="M765.927 75.2559V73.8225H778.597V75.2559H773.06V91.2969H771.464V75.2559H765.927ZM780.513 91.2969V78.1911H781.989V80.2047H782.1C782.362 79.5449 782.817 79.013 783.465 78.6092C784.119 78.1996 784.859 77.9948 785.684 77.9948C785.809 77.9948 785.948 77.9977 786.102 78.0034C786.255 78.0091 786.383 78.0148 786.486 78.0204V79.5648C786.417 79.5534 786.298 79.5364 786.127 79.5136C785.957 79.4909 785.772 79.4795 785.573 79.4795C784.89 79.4795 784.282 79.6245 783.747 79.9146C783.218 80.199 782.8 80.5944 782.493 81.1006C782.185 81.6069 782.032 82.1843 782.032 82.8327V91.2969H780.513ZM792.738 91.5955C791.947 91.5955 791.225 91.4419 790.571 91.1348C789.916 90.8219 789.396 90.3725 789.009 89.7866C788.622 89.1951 788.429 88.4783 788.429 87.6365C788.429 86.988 788.551 86.4419 788.796 85.9982C789.04 85.5546 789.387 85.1905 789.837 84.9061C790.286 84.6217 790.818 84.397 791.432 84.232C792.047 84.0671 792.724 83.9391 793.463 83.8481C794.197 83.7571 794.817 83.6774 795.323 83.6092C795.835 83.5409 796.225 83.4328 796.492 83.2849C796.759 83.137 796.893 82.8981 796.893 82.5682V82.261C796.893 81.368 796.626 80.6655 796.091 80.1535C795.562 79.6359 794.8 79.3771 793.804 79.3771C792.86 79.3771 792.089 79.5847 791.492 80C790.901 80.4152 790.485 80.9044 790.246 81.4675L788.804 80.9471C789.1 80.2303 789.51 79.6587 790.033 79.232C790.556 78.7997 791.142 78.4897 791.791 78.302C792.439 78.1086 793.096 78.0119 793.762 78.0119C794.262 78.0119 794.783 78.0773 795.323 78.2082C795.869 78.339 796.375 78.5665 796.842 78.8907C797.308 79.2093 797.687 79.6558 797.977 80.2303C798.267 80.7992 798.412 81.5216 798.412 82.3976V91.2969H796.893V89.2235H796.799C796.617 89.6103 796.347 89.9857 795.989 90.3498C795.63 90.7138 795.181 91.0125 794.641 91.2457C794.1 91.4789 793.466 91.5955 792.738 91.5955ZM792.943 90.2047C793.75 90.2047 794.45 90.0255 795.042 89.6672C795.633 89.3088 796.088 88.8339 796.407 88.2423C796.731 87.645 796.893 86.988 796.893 86.2713V84.3771C796.779 84.4852 796.589 84.5819 796.321 84.6672C796.06 84.7525 795.755 84.8293 795.408 84.8976C795.067 84.9601 794.726 85.0142 794.385 85.0597C794.043 85.1052 793.736 85.145 793.463 85.1791C792.724 85.2701 792.092 85.4124 791.569 85.6058C791.046 85.7992 790.645 86.0665 790.366 86.4078C790.087 86.7434 789.948 87.1757 789.948 87.7047C789.948 88.5011 790.232 89.1183 790.801 89.5563C791.37 89.9886 792.084 90.2047 792.943 90.2047ZM803.971 83.1058V91.2969H802.452V78.1911H803.928V80.2474H804.065C804.372 79.5762 804.85 79.0386 805.498 78.6348C806.152 78.2252 806.96 78.0204 807.921 78.0204C808.803 78.0204 809.577 78.2053 810.242 78.575C810.913 78.9391 811.434 79.4766 811.804 80.1877C812.179 80.8987 812.367 81.7719 812.367 82.8071V91.2969H810.848V82.901C810.848 81.8259 810.546 80.9755 809.943 80.3498C809.346 79.7241 808.544 79.4112 807.537 79.4112C806.849 79.4112 806.238 79.5591 805.703 79.8549C805.168 80.1507 804.744 80.5773 804.432 81.1348C804.124 81.6865 803.971 82.3435 803.971 83.1058ZM825.172 81.0665L823.781 81.459C823.644 81.0665 823.451 80.711 823.201 80.3925C822.95 80.0739 822.623 79.8208 822.219 79.6331C821.821 79.4454 821.326 79.3515 820.735 79.3515C819.847 79.3515 819.119 79.562 818.551 79.9829C817.982 80.4038 817.697 80.9471 817.697 81.6126C817.697 82.1757 817.891 82.6336 818.277 82.9863C818.67 83.3333 819.273 83.6092 820.086 83.8139L822.066 84.3003C823.164 84.5676 823.986 84.9914 824.532 85.5716C825.084 86.1518 825.359 86.8799 825.359 87.7559C825.359 88.4954 825.155 89.1524 824.745 89.7269C824.335 90.3014 823.764 90.7536 823.03 91.0836C822.302 91.4078 821.457 91.5699 820.496 91.5699C819.216 91.5699 818.161 91.2827 817.33 90.7081C816.5 90.1279 815.968 89.2918 815.735 88.1996L817.194 87.8412C817.382 88.6205 817.748 89.2093 818.295 89.6075C818.846 90.0056 819.572 90.2047 820.47 90.2047C821.477 90.2047 822.282 89.98 822.885 89.5307C823.488 89.0756 823.789 88.5068 823.789 87.8242C823.789 87.2952 823.613 86.8515 823.26 86.4931C822.908 86.1291 822.373 85.8617 821.656 85.6911L819.515 85.1791C818.377 84.9061 817.535 84.4738 816.989 83.8822C816.443 83.2906 816.17 82.5568 816.17 81.6808C816.17 80.9584 816.366 80.3242 816.759 79.7781C817.151 79.2264 817.692 78.794 818.38 78.4812C819.068 78.1683 819.853 78.0119 820.735 78.0119C821.935 78.0119 822.894 78.2849 823.61 78.831C824.333 79.3714 824.853 80.1166 825.172 81.0665ZM834.077 78.1911V79.5136H827.635V78.1911H834.077ZM829.649 91.2969V76.2713C829.649 75.5659 829.811 74.9715 830.135 74.488C830.465 74.0045 830.895 73.6376 831.424 73.3873C831.953 73.1371 832.513 73.0119 833.105 73.0119C833.503 73.0119 833.833 73.046 834.094 73.1143C834.362 73.1769 834.572 73.2394 834.726 73.302L834.282 74.6331C834.168 74.5989 834.029 74.5591 833.864 74.5136C833.699 74.4681 833.491 74.4454 833.241 74.4454C832.581 74.4454 832.072 74.6302 831.714 75C831.356 75.3697 831.176 75.8987 831.176 76.587L831.168 91.2969H829.649ZM841.867 91.5699C840.644 91.5699 839.586 91.2855 838.693 90.7167C837.8 90.1422 837.109 89.3486 836.62 88.3361C836.137 87.3179 835.895 86.1461 835.895 84.8208C835.895 83.5011 836.137 82.3293 836.62 81.3054C837.109 80.2758 837.783 79.471 838.642 78.8907C839.507 78.3049 840.505 78.0119 841.637 78.0119C842.348 78.0119 843.034 78.1427 843.693 78.4044C844.353 78.6604 844.945 79.0557 845.468 79.5904C845.997 80.1194 846.415 80.7878 846.722 81.5955C847.03 82.3976 847.183 83.3475 847.183 84.4453V85.1962H836.944V83.8566H845.63C845.63 83.0147 845.46 82.2582 845.118 81.587C844.783 80.9101 844.313 80.3754 843.71 79.9829C843.113 79.5904 842.422 79.3942 841.637 79.3942C840.807 79.3942 840.076 79.616 839.444 80.0597C838.813 80.5034 838.318 81.0893 837.96 81.8174C837.607 82.5455 837.428 83.3418 837.422 84.2064V85.0085C837.422 86.0494 837.601 86.9596 837.96 87.7389C838.324 88.5125 838.838 89.1126 839.504 89.5392C840.17 89.9658 840.957 90.1791 841.867 90.1791C842.487 90.1791 843.031 90.0824 843.497 89.889C843.969 89.6956 844.365 89.4368 844.683 89.1126C845.007 88.7827 845.252 88.4215 845.417 88.029L846.859 88.4982C846.66 89.05 846.333 89.5591 845.878 90.0255C845.428 90.492 844.865 90.8674 844.188 91.1518C843.517 91.4305 842.743 91.5699 841.867 91.5699ZM850.53 91.2969V78.1911H852.006V80.2047H852.117C852.379 79.5449 852.834 79.013 853.482 78.6092C854.136 78.1996 854.876 77.9948 855.701 77.9948C855.826 77.9948 855.965 77.9977 856.119 78.0034C856.272 78.0091 856.4 78.0148 856.503 78.0204V79.5648C856.434 79.5534 856.315 79.5364 856.144 79.5136C855.974 79.4909 855.789 79.4795 855.59 79.4795C854.907 79.4795 854.298 79.6245 853.764 79.9146C853.235 80.199 852.817 80.5944 852.51 81.1006C852.202 81.6069 852.049 82.1843 852.049 82.8327V91.2969H850.53ZM875.656 78.1911C875.559 77.2184 875.13 76.4448 874.367 75.8703C873.605 75.2958 872.647 75.0085 871.492 75.0085C870.679 75.0085 869.962 75.1479 869.342 75.4266C868.728 75.7053 868.244 76.0921 867.891 76.587C867.544 77.0762 867.371 77.6336 867.371 78.2593C867.371 78.7201 867.47 79.124 867.669 79.471C867.869 79.8179 868.136 80.1166 868.472 80.3669C868.813 80.6114 869.188 80.8219 869.598 80.9983C870.013 81.1746 870.431 81.3225 870.852 81.4419L872.695 81.9709C873.253 82.1245 873.81 82.3208 874.367 82.5597C874.925 82.7986 875.434 83.1001 875.895 83.4641C876.361 83.8225 876.734 84.2633 877.012 84.7866C877.297 85.3043 877.439 85.9271 877.439 86.6552C877.439 87.5881 877.197 88.4271 876.714 89.1723C876.23 89.9175 875.536 90.509 874.632 90.947C873.727 91.3794 872.644 91.5955 871.381 91.5955C870.192 91.5955 869.16 91.3993 868.284 91.0068C867.408 90.6086 866.72 90.0597 866.219 89.36C865.718 88.6604 865.437 87.8498 865.374 86.9283H867.012C867.069 87.6166 867.297 88.1996 867.695 88.6774C868.093 89.1552 868.611 89.5193 869.248 89.7696C869.885 90.0142 870.596 90.1365 871.381 90.1365C872.251 90.1365 873.025 89.9914 873.702 89.7013C874.384 89.4055 874.919 88.996 875.306 88.4726C875.698 87.9436 875.895 87.3293 875.895 86.6296C875.895 86.0381 875.741 85.5432 875.434 85.145C875.127 84.7411 874.697 84.4027 874.146 84.1296C873.6 83.8566 872.965 83.6149 872.243 83.4044L870.152 82.7901C868.782 82.3805 867.718 81.8145 866.961 81.0921C866.205 80.3697 865.826 79.4482 865.826 78.3276C865.826 77.389 866.077 76.5642 866.577 75.8532C867.084 75.1365 867.766 74.579 868.625 74.1809C869.49 73.777 870.46 73.5751 871.535 73.5751C872.621 73.5751 873.582 73.7741 874.419 74.1723C875.255 74.5705 875.917 75.1194 876.407 75.8191C876.902 76.513 877.166 77.3037 877.2 78.1911H875.656ZM886.262 91.5699C885.039 91.5699 883.981 91.2855 883.088 90.7167C882.194 90.1422 881.503 89.3486 881.014 88.3361C880.531 87.3179 880.289 86.1461 880.289 84.8208C880.289 83.5011 880.531 82.3293 881.014 81.3054C881.503 80.2758 882.177 79.471 883.036 78.8907C883.901 78.3049 884.899 78.0119 886.031 78.0119C886.742 78.0119 887.428 78.1427 888.088 78.4044C888.747 78.6604 889.339 79.0557 889.862 79.5904C890.391 80.1194 890.809 80.7878 891.117 81.5955C891.424 82.3976 891.577 83.3475 891.577 84.4453V85.1962H881.338V83.8566H890.024C890.024 83.0147 889.854 82.2582 889.512 81.587C889.177 80.9101 888.708 80.3754 888.105 79.9829C887.507 79.5904 886.816 79.3942 886.031 79.3942C885.201 79.3942 884.47 79.616 883.838 80.0597C883.207 80.5034 882.712 81.0893 882.354 81.8174C882.001 82.5455 881.822 83.3418 881.816 84.2064V85.0085C881.816 86.0494 881.995 86.9596 882.354 87.7389C882.718 88.5125 883.233 89.1126 883.898 89.5392C884.564 89.9658 885.351 90.1791 886.262 90.1791C886.882 90.1791 887.425 90.0824 887.891 89.889C888.363 89.6956 888.759 89.4368 889.077 89.1126C889.402 88.7827 889.646 88.4215 889.811 88.029L891.253 88.4982C891.054 89.05 890.727 89.5591 890.272 90.0255C889.822 90.492 889.259 90.8674 888.582 91.1518C887.911 91.4305 887.138 91.5699 886.262 91.5699ZM894.924 91.2969V78.1911H896.4V80.2047H896.511C896.773 79.5449 897.228 79.013 897.876 78.6092C898.531 78.1996 899.27 77.9948 900.095 77.9948C900.22 77.9948 900.359 77.9977 900.513 78.0034C900.666 78.0091 900.794 78.0148 900.897 78.0204V79.5648C900.829 79.5534 900.709 79.5364 900.538 79.5136C900.368 79.4909 900.183 79.4795 899.984 79.4795C899.301 79.4795 898.693 79.6245 898.158 79.9146C897.629 80.199 897.211 80.5944 896.904 81.1006C896.596 81.6069 896.443 82.1843 896.443 82.8327V91.2969H894.924ZM914.032 78.1911L909.246 91.2969H907.625L902.838 78.1911H904.485L908.375 89.2918H908.495L912.386 78.1911H914.032ZM917.021 91.2969V78.1911H918.548V91.2969H917.021ZM917.797 75.9385C917.485 75.9385 917.217 75.8333 916.995 75.6228C916.774 75.4067 916.663 75.1479 916.663 74.8464C916.663 74.5449 916.774 74.2889 916.995 74.0785C917.217 73.8623 917.485 73.7542 917.797 73.7542C918.11 73.7542 918.378 73.8623 918.599 74.0785C918.821 74.2889 918.932 74.5449 918.932 74.8464C918.932 75.1479 918.821 75.4067 918.599 75.6228C918.378 75.8333 918.11 75.9385 917.797 75.9385ZM927.684 91.5699C926.513 91.5699 925.492 91.277 924.621 90.6911C923.757 90.1052 923.085 89.3031 922.608 88.2849C922.13 87.2667 921.891 86.1063 921.891 84.8037C921.891 83.4897 922.133 82.3208 922.616 81.2969C923.105 80.273 923.782 79.471 924.647 78.8907C925.511 78.3049 926.515 78.0119 927.659 78.0119C928.535 78.0119 929.328 78.1826 930.039 78.5239C930.75 78.8595 931.336 79.3344 931.797 79.9488C932.263 80.5574 932.556 81.2684 932.676 82.0819H931.14C930.981 81.3424 930.597 80.711 929.988 80.1877C929.385 79.6587 928.617 79.3942 927.684 79.3942C926.848 79.3942 926.109 79.6217 925.466 80.0768C924.823 80.5261 924.32 81.1547 923.956 81.9624C923.597 82.7645 923.418 83.6945 923.418 84.7525C923.418 85.8162 923.594 86.7576 923.947 87.5767C924.3 88.3902 924.795 89.0273 925.432 89.488C926.075 89.9488 926.825 90.1791 927.684 90.1791C928.265 90.1791 928.794 90.0711 929.271 89.8549C929.755 89.6331 930.159 89.3202 930.483 88.9163C930.813 88.5125 931.035 88.0318 931.149 87.4744H932.684C932.571 88.265 932.289 88.9704 931.84 89.5904C931.396 90.2047 930.819 90.6882 930.108 91.0409C929.402 91.3936 928.594 91.5699 927.684 91.5699ZM941.238 91.5699C940.015 91.5699 938.957 91.2855 938.064 90.7167C937.171 90.1422 936.48 89.3486 935.991 88.3361C935.507 87.3179 935.265 86.1461 935.265 84.8208C935.265 83.5011 935.507 82.3293 935.991 81.3054C936.48 80.2758 937.154 79.471 938.013 78.8907C938.877 78.3049 939.876 78.0119 941.008 78.0119C941.719 78.0119 942.404 78.1427 943.064 78.4044C943.724 78.6604 944.315 79.0557 944.839 79.5904C945.368 80.1194 945.786 80.7878 946.093 81.5955C946.4 82.3976 946.554 83.3475 946.554 84.4453V85.1962H936.315V83.8566H945.001C945.001 83.0147 944.83 82.2582 944.489 81.587C944.153 80.9101 943.684 80.3754 943.081 79.9829C942.484 79.5904 941.793 79.3942 941.008 79.3942C940.177 79.3942 939.446 79.616 938.815 80.0597C938.183 80.5034 937.689 81.0893 937.33 81.8174C936.978 82.5455 936.798 83.3418 936.793 84.2064V85.0085C936.793 86.0494 936.972 86.9596 937.33 87.7389C937.694 88.5125 938.209 89.1126 938.875 89.5392C939.54 89.9658 940.328 90.1791 941.238 90.1791C941.858 90.1791 942.401 90.0824 942.868 89.889C943.34 89.6956 943.735 89.4368 944.054 89.1126C944.378 88.7827 944.623 88.4215 944.788 88.029L946.23 88.4982C946.03 89.05 945.703 89.5591 945.248 90.0255C944.799 90.492 944.236 90.8674 943.559 91.1518C942.888 91.4305 942.114 91.5699 941.238 91.5699ZM958.706 81.0665L957.315 81.459C957.179 81.0665 956.985 80.711 956.735 80.3925C956.485 80.0739 956.158 79.8208 955.754 79.6331C955.356 79.4454 954.861 79.3515 954.269 79.3515C953.382 79.3515 952.654 79.562 952.085 79.9829C951.516 80.4038 951.232 80.9471 951.232 81.6126C951.232 82.1757 951.425 82.6336 951.812 82.9863C952.204 83.3333 952.807 83.6092 953.621 83.8139L955.6 84.3003C956.698 84.5676 957.52 84.9914 958.066 85.5716C958.618 86.1518 958.894 86.8799 958.894 87.7559C958.894 88.4954 958.689 89.1524 958.279 89.7269C957.87 90.3014 957.298 90.7536 956.564 91.0836C955.836 91.4078 954.992 91.5699 954.03 91.5699C952.75 91.5699 951.695 91.2827 950.865 90.7081C950.034 90.1279 949.502 89.2918 949.269 88.1996L950.728 87.8412C950.916 88.6205 951.283 89.2093 951.829 89.6075C952.381 90.0056 953.106 90.2047 954.005 90.2047C955.012 90.2047 955.816 89.98 956.419 89.5307C957.022 89.0756 957.324 88.5068 957.324 87.8242C957.324 87.2952 957.147 86.8515 956.795 86.4931C956.442 86.1291 955.907 85.8617 955.191 85.6911L953.049 85.1791C951.911 84.9061 951.07 84.4738 950.523 83.8822C949.977 83.2906 949.704 82.5568 949.704 81.6808C949.704 80.9584 949.901 80.3242 950.293 79.7781C950.686 79.2264 951.226 78.794 951.914 78.4812C952.603 78.1683 953.388 78.0119 954.269 78.0119C955.469 78.0119 956.428 78.2849 957.145 78.831C957.867 79.3714 958.388 80.1166 958.706 81.0665Z" fill="#849BA5"/>
<rect x="112.312" y="113.816" width="858.975" height="7.50852" fill="#D9D9D9"/>
<path d="M112.312 112.314H309.036V122.826H112.312V112.314Z" fill="#E51E56"/>
</g>
<defs>
<clipPath id="clip0_4195_18455">
<rect width="1079.06" height="714.721" fill="white" transform="translate(0.9375 0.958984)"/>
</clipPath>
<clipPath id="clip1_4195_18455">
<rect width="36.0409" height="36.0409" fill="white" transform="translate(271.93 299.523)"/>
</clipPath>
</defs>
</svg>
