<svg width="431" height="36" viewBox="0 0 431 36" fill="none" xmlns="http://www.w3.org/2000/svg">
<path d="M21.9274 1.4C32.4394 1.4 40.4074 7.784 40.4074 18.2C40.4074 28.568 32.4394 35 21.9274 35H0.759375V1.4H21.9274ZM21.9274 25.784C26.3914 25.688 29.6554 22.472 29.6554 18.2C29.6554 13.88 26.3914 10.616 21.9274 10.616H11.2714V25.784H21.9274ZM60.8194 35.576C50.5474 35.576 44.2594 30.104 44.2594 19.688V1.4H54.8194V18.824C54.8194 22.376 56.4034 25.496 60.8194 25.496H67.2994C71.7634 25.496 73.2994 22.376 73.2994 18.824V1.4H83.8594V19.688C83.8594 30.104 77.5714 35.576 67.2994 35.576H60.8194ZM122.394 1.4H132.714V35H122.394V16.952L110.922 28.616L98.97 16.712V35H88.65V1.4H98.97L110.922 13.784L122.394 1.4ZM171.238 10.52H148.054V13.88H167.974V22.616H148.054V25.832H171.238V35H137.494V1.4H171.238V10.52ZM209.769 1.4H220.089V35H209.769V16.952L198.297 28.616L186.345 16.712V35H176.025V1.4H186.345L198.297 13.784L209.769 1.4ZM258.613 10.52H235.429V13.88H255.349V22.616H235.429V25.832H258.613V35H224.869V1.4H258.613V10.52ZM294.12 35L292.728 29.672H273.528L272.136 35H261.48L270.36 1.4H295.944L304.824 35H294.12ZM275.928 20.312H290.28L287.784 10.664H278.424L275.928 20.312ZM307.697 35V1.4H332.369C340.961 1.4 346.625 7.208 346.625 14.36C346.625 18.968 344.273 23 340.289 25.304L346.721 35H334.481L329.921 27.32H318.305V35H307.697ZM318.305 18.056H332.369C334.385 18.056 336.065 16.424 336.065 14.36C336.065 12.296 334.385 10.664 332.369 10.664H318.305V18.056ZM388.728 1.4V10.664H374.376V35H363.816V10.664H349.416V1.4H388.728ZM418.232 13.784C426.2 13.784 430.328 17.96 430.328 23.912C430.328 30.824 425.432 35.528 414.152 35.576H407C393.56 35.576 391.352 28.088 391.352 23.576H401.96C402.248 25.256 404.264 26.168 407.672 26.168H414.152C417.944 26.168 419.528 25.4 419.528 24.104C419.528 23.144 418.712 22.328 416.264 22.328H404.456C396.104 22.328 391.88 18.488 391.88 12.536C391.88 6.68 395.672 0.871999 407.528 0.823999H414.344C427.928 0.823999 429.608 9.224 429.608 12.488H419C418.808 11.096 417.512 9.896 414.056 9.896H407.528C403.544 9.896 402.632 11 402.632 12.008C402.632 13.016 403.448 13.784 405.608 13.784H418.232Z" fill="white"/>
</svg>
