<svg width="216" height="114" viewBox="0 0 216 114" fill="none" xmlns="http://www.w3.org/2000/svg">
<path d="M12.3544 38.9254C31.9787 16.6424 65.0634 2.95546 94.3925 0.559056C130.398 -2.38578 169.155 6.85409 196.457 31.1758C200.988 35.2056 214.306 49.8344 215.761 55.0326C217.024 59.5511 207.094 71.5809 203.696 75.3364C159.5 124.183 67.6256 125.554 19.3518 81.8938C15.1432 78.0905 2.09597 63.3902 0.772579 58.6451C-0.455429 54.2338 9.07576 42.6452 12.3544 38.9254Z" fill="#FFD600"/>
<circle cx="108.65" cy="57.4671" r="48.0755" fill="#101010"/>
<path d="M111.905 49.3397V28.4199H101.646V45.1718L94.6726 51.3435H79.2031V61.2824H99.9626L111.905 49.3397Z" fill="white"/>
<path d="M104.614 65.3722L104.614 86.292L114.874 86.292L114.874 69.5401L121.847 63.3684L137.316 63.3684L137.316 53.4295L116.557 53.4295L104.614 65.3722Z" fill="white"/>
</svg>
