<svg width="75" height="110" viewBox="0 0 75 110" fill="none" xmlns="http://www.w3.org/2000/svg">
<path d="M37.7846 3.01562H20.4528C15.8562 3.01563 11.4478 4.84164 8.19744 8.09198C4.94711 11.3423 3.12109 15.7507 3.12109 20.3474C3.12109 24.944 4.94711 29.3524 8.19744 32.6028C11.4478 35.8531 15.8562 37.6791 20.4528 37.6791H37.7846M37.7846 3.01562V37.6791M37.7846 3.01562L55.1163 3.01562C59.713 3.01563 64.1214 4.84164 67.3717 8.09198C70.6221 11.3423 72.4481 15.7507 72.4481 20.3474C72.4481 24.944 70.6221 29.3524 67.3717 32.6028C64.1214 35.8531 59.713 37.6791 55.1163 37.6791H37.7846" stroke="white" stroke-width="5" stroke-linecap="round" stroke-linejoin="round"/>
<path d="M20.4528 72.3422C15.8562 72.3422 11.4478 74.1682 8.19744 77.4185C4.94711 80.6689 3.12109 85.0773 3.12109 89.6739C3.12109 94.2706 4.94711 98.679 8.19744 101.929C11.4478 105.18 15.8562 107.006 20.4528 107.006C25.0495 107.006 29.4579 105.18 32.7082 101.929C35.9586 98.679 37.7846 94.2706 37.7846 89.6739V72.3422M20.4528 72.3422H37.7846M20.4528 72.3422C15.8562 72.3422 11.4478 70.5162 8.19744 67.2659C4.94711 64.0155 3.12109 59.6071 3.12109 55.0105C3.12109 50.4138 4.94711 46.0054 8.19744 42.7551C11.4478 39.5047 15.8562 37.6787 20.4528 37.6787H37.7846V72.3422M37.7846 55.0105C37.7846 50.4138 39.6106 46.0054 42.8609 42.7551C46.1113 39.5047 50.5197 37.6787 55.1163 37.6787C59.713 37.6787 64.1214 39.5047 67.3717 42.7551C70.6221 46.0054 72.4481 50.4138 72.4481 55.0105C72.4481 59.6071 70.6221 64.0155 67.3717 67.2659C64.1214 70.5162 59.713 72.3422 55.1163 72.3422C50.5197 72.3422 46.1113 70.5162 42.8609 67.2659C39.6106 64.0155 37.7846 59.6071 37.7846 55.0105Z" stroke="white" stroke-width="5" stroke-linecap="round" stroke-linejoin="round"/>
</svg>
