<svg width="1080" height="1081" viewBox="0 0 1080 1081" fill="none" xmlns="http://www.w3.org/2000/svg">
<g clip-path="url(#clip0_4206_134817)">
<rect width="1079.06" height="1079.06" transform="translate(0.9375 0.979492)" fill="#101010"/>
<g clip-path="url(#clip1_4206_134817)">
<g clip-path="url(#clip2_4206_134817)">
<line x1="160.225" y1="1769.36" x2="1668.02" y2="898.832" stroke="white" stroke-opacity="0.5" stroke-width="0.976216"/>
<line x1="60.2247" y1="1596.15" x2="1568.02" y2="725.627" stroke="white" stroke-opacity="0.5" stroke-width="0.976216"/>
<line x1="-39.7753" y1="1422.95" x2="1468.02" y2="552.423" stroke="white" stroke-opacity="0.5" stroke-width="0.976216"/>
<line x1="-139.775" y1="1249.74" x2="1368.02" y2="379.217" stroke="white" stroke-opacity="0.5" stroke-width="0.976216"/>
<line x1="-239.775" y1="1076.54" x2="1268.02" y2="206.012" stroke="white" stroke-opacity="0.5" stroke-width="0.976216"/>
<line x1="-339.775" y1="903.333" x2="1168.02" y2="32.8073" stroke="white" stroke-opacity="0.5" stroke-width="0.976216"/>
<line x1="-439.775" y1="730.128" x2="1068.02" y2="-140.398" stroke="white" stroke-opacity="0.5" stroke-width="0.976216"/>
<line x1="-539.775" y1="556.923" x2="968.019" y2="-313.603" stroke="white" stroke-opacity="0.5" stroke-width="0.976216"/>
<line x1="-639.775" y1="383.718" x2="868.019" y2="-486.808" stroke="white" stroke-opacity="0.5" stroke-width="0.976216"/>
<line x1="-739.775" y1="210.513" x2="768.019" y2="-660.013" stroke="white" stroke-opacity="0.5" stroke-width="0.976216"/>
<line x1="-839.775" y1="37.3078" x2="668.019" y2="-833.218" stroke="white" stroke-opacity="0.5" stroke-width="0.976216"/>
<line y1="-0.488108" x2="1741.05" y2="-0.488108" transform="matrix(-0.866025 -0.5 -0.5 0.866025 886.828 1807.53)" stroke="white" stroke-opacity="0.5" stroke-width="0.976216"/>
<line y1="-0.488108" x2="1741.05" y2="-0.488108" transform="matrix(-0.866025 -0.5 -0.5 0.866025 986.828 1634.32)" stroke="white" stroke-opacity="0.5" stroke-width="0.976216"/>
<line y1="-0.488108" x2="1741.05" y2="-0.488108" transform="matrix(-0.866025 -0.5 -0.5 0.866025 1086.83 1461.12)" stroke="white" stroke-opacity="0.5" stroke-width="0.976216"/>
<line y1="-0.488108" x2="1741.05" y2="-0.488108" transform="matrix(-0.866025 -0.5 -0.5 0.866025 1186.83 1287.91)" stroke="white" stroke-opacity="0.5" stroke-width="0.976216"/>
<line y1="-0.488108" x2="1741.05" y2="-0.488108" transform="matrix(-0.866025 -0.5 -0.5 0.866025 1286.83 1114.71)" stroke="white" stroke-opacity="0.5" stroke-width="0.976216"/>
<line y1="-0.488108" x2="1741.05" y2="-0.488108" transform="matrix(-0.866025 -0.5 -0.5 0.866025 1386.83 941.504)" stroke="white" stroke-opacity="0.5" stroke-width="0.976216"/>
<line y1="-0.488108" x2="1741.05" y2="-0.488108" transform="matrix(-0.866025 -0.5 -0.5 0.866025 1486.83 768.299)" stroke="white" stroke-opacity="0.5" stroke-width="0.976216"/>
<line y1="-0.488108" x2="1741.05" y2="-0.488108" transform="matrix(-0.866025 -0.5 -0.5 0.866025 1586.83 595.094)" stroke="white" stroke-opacity="0.5" stroke-width="0.976216"/>
<line y1="-0.488108" x2="1741.05" y2="-0.488108" transform="matrix(-0.866025 -0.5 -0.5 0.866025 1686.83 421.889)" stroke="white" stroke-opacity="0.5" stroke-width="0.976216"/>
<line y1="-0.488108" x2="1741.05" y2="-0.488108" transform="matrix(-0.866025 -0.5 -0.5 0.866025 1786.83 248.684)" stroke="white" stroke-opacity="0.5" stroke-width="0.976216"/>
<line y1="-0.488108" x2="1741.05" y2="-0.488108" transform="matrix(-0.866025 -0.5 -0.5 0.866025 1886.83 75.4785)" stroke="white" stroke-opacity="0.5" stroke-width="0.976216"/>
</g>
<path d="M480.165 468.293V433.546C481.627 436.551 483.101 439.989 484.558 444.007C486.543 449.507 488.429 456.049 490.124 463.683C502.144 458.735 515.034 455.497 528.505 454.268C523.507 432.146 516.587 415.976 508.612 403.793C500.503 391.494 491.022 383.602 482.256 379.229C473.971 375.052 466.675 374.056 462.203 373.974C461.832 373.954 461.464 373.921 461.089 373.921L365.741 373.917C365.365 373.917 365.002 373.95 364.63 373.97C360.159 374.056 352.862 375.048 344.57 379.225C331.296 385.807 316.985 400.208 306.973 425.718C296.839 451.34 290.032 488.373 290 544.293C290 558.752 290.465 574.471 291.47 591.579C292.086 602.069 300.787 610.169 311.158 610.169C311.546 610.169 311.938 610.157 312.334 610.133C323.224 609.492 331.529 600.154 330.892 589.272C329.928 572.858 329.487 557.91 329.487 544.293C329.402 484.546 338.111 450.975 346.67 433.453V803.635C346.67 820.489 360.335 834.147 377.182 834.147C394.033 834.147 407.699 820.494 407.699 803.635V594.801C407.547 592.196 407.449 589.582 407.449 586.945C407.445 535.257 437.043 490.388 480.164 468.286L480.165 468.293Z" fill="white"/>
<path d="M419.126 641.421V803.636C419.126 820.491 432.792 834.148 449.638 834.148C466.489 834.148 480.155 820.495 480.155 803.636L480.151 705.61C453.218 691.809 431.587 669.119 419.125 641.424L419.126 641.421Z" fill="white"/>
<path d="M468.95 304.328C468.95 334.992 444.089 359.853 413.42 359.853C382.752 359.853 357.891 334.992 357.891 304.328C357.891 273.66 382.752 248.798 413.42 248.798C444.089 248.798 468.95 273.66 468.95 304.328Z" fill="white"/>
<path d="M599.689 433.283C596.254 440.315 592.803 449.912 589.899 462.715C578.067 458.013 565.414 454.961 552.217 453.828C554.646 443.213 557.508 433.961 560.706 425.874L560.706 425.873C570.694 400.433 584.944 386.118 598.113 379.588L598.115 379.587C606.342 375.445 613.58 374.459 618.006 374.374L618.006 374.374L618.02 374.373C618.13 374.367 618.236 374.36 618.34 374.354C618.604 374.337 618.854 374.321 619.113 374.321H714.461C714.721 374.321 714.97 374.337 715.235 374.354C715.339 374.36 715.445 374.367 715.554 374.373L715.562 374.374L715.569 374.374C719.947 374.454 727.083 375.421 735.208 379.463L735.207 379.473L735.456 379.598C744.148 383.938 753.581 391.776 761.655 404.021C777.816 428.722 789.707 469.855 789.809 544.312C789.809 558.753 789.344 574.457 788.348 591.57C787.748 601.851 779.224 609.791 769.051 609.791C768.671 609.791 768.288 609.779 767.904 609.755L767.902 609.755C757.228 609.131 749.085 599.978 749.713 589.309L749.713 589.309C750.669 572.884 751.106 557.929 751.106 544.311C751.13 494.909 745.276 463.223 738.302 443.89L738.302 443.889C736.84 439.859 735.356 436.404 733.888 433.386L733.144 433.558V803.645C733.144 820.288 719.654 833.766 703.019 833.766C686.389 833.766 672.899 820.283 672.899 803.645V606.756C673.863 600.291 674.373 593.684 674.373 586.957C674.373 534.712 644.226 489.398 600.433 467.429V433.455L599.689 433.283Z" fill="white" stroke="white" stroke-width="0.78395"/>
<path d="M600.424 706.481C626.511 693.392 647.757 672.03 660.669 645.838V803.64C660.669 820.282 647.179 833.76 630.545 833.76C613.915 833.76 600.424 820.278 600.424 803.64V706.481Z" fill="white" stroke="white" stroke-width="0.78395"/>
<path d="M721.913 304.328C721.913 334.775 697.231 359.461 666.78 359.461C636.328 359.461 611.642 334.775 611.642 304.328C611.642 273.876 636.328 249.19 666.78 249.19C697.231 249.19 721.913 273.876 721.913 304.328Z" fill="white" stroke="white" stroke-width="0.78395"/>
<path d="M540.722 463.558C472.572 463.558 417.328 518.805 417.328 586.951C417.328 655.102 472.573 710.345 540.722 710.345C608.868 710.345 664.116 655.101 664.116 586.951C664.116 518.805 608.868 463.558 540.722 463.558ZM540.718 680.733C489.014 680.733 446.938 638.661 446.938 586.957C446.938 535.24 489.014 493.172 540.718 493.172C592.434 493.172 634.502 535.244 634.502 586.957C634.502 638.661 592.434 680.733 540.718 680.733Z" fill="white"/>
<path d="M538.748 532.661V572.148H481.984V601.763H538.748V641.25L598.214 586.953L538.748 532.661Z" fill="white"/>
</g>
</g>
<defs>
<clipPath id="clip0_4206_134817">
<rect width="1079.06" height="1079.06" fill="white" transform="translate(0.9375 0.979492)"/>
</clipPath>
<clipPath id="clip1_4206_134817">
<rect width="1110" height="1042" fill="white" transform="translate(-14.5312 19.5098)"/>
</clipPath>
<clipPath id="clip2_4206_134817">
<rect width="1154" height="1448" fill="white" transform="translate(-13.5312 19.5098)"/>
</clipPath>
</defs>
</svg>
