<svg width="1080" height="716" viewBox="0 0 1080 716" fill="none" xmlns="http://www.w3.org/2000/svg">
<rect width="1079.06" height="714.721" transform="translate(0.0625 0.720703)" fill="black"/>
<g clip-path="url(#clip0_4140_15401)">
<path d="M179.614 493.998C165.253 493.998 158.734 485.91 158.039 474.159H169.701C170.305 481.732 175.705 484.073 179.536 484.073C184.846 484.073 189.103 479.895 189.103 474.764C189.103 467.886 183.446 466.15 175.358 463.103C170.317 461.366 159.17 457.625 159.17 445.437C159.17 434.044 169.432 427.166 179.794 427.166C185.798 427.166 191.892 429.429 195.634 433.865C198.77 437.606 199.375 441.348 199.633 444.742H188.061C187.534 441.438 185.54 437.091 179.446 437.091C174.663 437.091 170.832 440.575 170.832 445.179C170.832 451.094 174.921 452.405 185.361 456.493C196.328 460.761 200.764 467.023 200.764 474.764C200.764 484.51 194.065 493.987 179.626 493.987L179.614 493.998Z" fill="white"/>
<path d="M251.084 486.604C246.737 491.388 240.823 493.998 233.945 493.998C229.072 493.998 221.499 492.34 216.548 486.694C211.764 481.216 210.633 476.086 210.633 468.166V428.398H222.384V468.076C222.384 472.075 222.563 476.601 225.252 479.738C227.425 482.605 230.819 483.647 233.866 483.647C237.26 483.647 240.655 482.516 242.828 479.469C245.091 476.332 245.27 472.333 245.27 468.154V428.387H257.01V468.065C257.01 476.859 255.094 482.157 251.095 486.593L251.084 486.604Z" fill="white"/>
<path d="M323.289 492.778V459.104H322.942L302.061 493.73H301.714L280.743 459.104H280.396V492.778H268.992V427.178H272.386L301.792 474.339L331.288 427.178H334.771V492.778H323.289Z" fill="white"/>
<path d="M403.32 492.778V459.104H402.973L382.092 493.73H381.745L360.775 459.104H360.427V492.778H349.023V427.178H352.418L381.823 474.339L411.319 427.178H414.803V492.778H403.32Z" fill="white"/>
<path d="M428.773 492.777V428.387H464.363V438.659H440.088V455.014H460.364V465.287H440.088V482.516H464.363V492.788H428.773V492.777Z" fill="white"/>
<path d="M506.915 468.681L521.702 492.777H508.125L495.164 470.16H487.244V492.777H475.93V428.387H494.38C504.91 428.387 509.167 429.608 512.908 432.128C518.565 435.959 521.78 442.479 521.78 449.525C521.78 458.745 516.123 466.407 506.904 468.67L506.915 468.681ZM506.041 440.922C503.431 439.186 500.126 438.659 495.511 438.659H487.244V461.019H496.811C506.993 461.019 510.556 455.362 510.556 449.794C510.556 446.053 508.898 442.838 506.03 440.922H506.041Z" fill="white"/>
<path d="M578.755 493.998C564.394 493.998 557.874 485.91 557.18 474.159H568.841C569.446 481.732 574.846 484.073 578.677 484.073C583.987 484.073 588.243 479.895 588.243 474.764C588.243 467.886 582.586 466.15 574.498 463.103C569.457 461.366 558.311 457.625 558.311 445.437C558.311 434.044 568.572 427.166 578.934 427.166C584.939 427.166 591.033 429.429 594.774 433.865C597.911 437.606 598.516 441.348 598.773 444.742H587.202C586.675 441.438 584.681 437.091 578.587 437.091C573.804 437.091 569.973 440.575 569.973 445.179C569.973 451.094 574.061 452.405 584.502 456.493C595.469 460.761 599.905 467.023 599.905 474.764C599.905 484.51 593.206 493.987 578.766 493.987L578.755 493.998Z" fill="white"/>
<path d="M638.349 493.998C618.947 493.998 604.586 478.685 604.586 460.582C604.586 442.479 618.241 427.166 638.26 427.166C656.183 427.166 666.534 440.127 668.797 448.484H656.351C653.394 443.174 646.785 437.517 638.17 437.517C625.12 437.517 616.247 448.562 616.247 460.493C616.247 472.423 625.646 483.636 638.26 483.636C648.095 483.636 653.831 476.5 656.441 472.849H668.797C664.798 485.294 652.531 493.987 638.349 493.987V493.998Z" fill="white"/>
<path d="M716.863 492.777V465.018H690.326V492.777H678.664V428.387H690.326V454.745H716.863V428.387H728.525V492.777H716.863Z" fill="white"/>
<path d="M771.068 493.999C751.576 493.999 737.305 478.517 737.305 461.109C737.305 441.965 751.834 427.178 771.146 427.178C790.459 427.178 805.078 442.144 805.078 460.594C805.078 479.044 790.369 494.01 771.057 494.01L771.068 493.999ZM771.247 437.529C758.018 437.529 748.977 448.316 748.977 460.583C748.977 472.849 758.286 483.637 771.247 483.637C784.208 483.637 793.439 472.244 793.439 460.672C793.439 449.1 784.735 437.529 771.247 437.529Z" fill="white"/>
<path d="M846.115 493.999C826.623 493.999 812.352 478.517 812.352 461.109C812.352 441.965 826.881 427.178 846.193 427.178C865.506 427.178 880.125 442.144 880.125 460.594C880.125 479.044 865.416 494.01 846.104 494.01L846.115 493.999ZM846.294 437.529C833.064 437.529 824.024 448.316 824.024 460.583C824.024 472.849 833.333 483.637 846.294 483.637C859.255 483.637 868.486 472.244 868.486 460.672C868.486 449.1 859.782 437.529 846.294 437.529Z" fill="white"/>
<path d="M889.273 492.777V428.387H900.935V482.504H923.126V492.777H889.285H889.273Z" fill="white"/>
<path d="M844.651 327.88V384.397H733.718V380.728H747.316V234.516L719.56 234.498V344.754C719.845 364.041 706.996 387.309 678.982 387.309C637.22 387.309 622.92 365.6 622.92 337.443L622.964 234.489H608.681V230.928H662.553V232.433V234.489H648.707V350.23C648.725 351.548 649.58 382.144 679.989 383.239C688.234 383.524 697.352 380.292 703.862 374.121C709.249 369.019 715.393 359.384 715.678 343.703V234.489H703.755V230.928H838.542V282.681H836.049L835.889 281.853C825.996 231.969 802.764 234.374 779.318 234.739C777.662 234.766 774.973 234.792 773.326 234.792V304.212C773.326 304.212 774.43 304.212 774.465 304.212C786.896 304.185 802.15 304.301 805.418 274.097L805.515 273.18H807.937V339.5H805.489L805.418 338.557C802.942 306.723 788.098 307.863 775.347 307.952C775.018 307.952 773.655 307.952 773.326 307.952V380.755C773.397 380.755 774.492 380.755 774.572 380.755C781.375 380.835 807.679 382.198 825.551 366.107C835.648 357.007 841.133 344.478 841.837 328.851L841.881 327.871H844.66L844.651 327.88ZM561.309 318.717V322.288H573.713V354.291C573.695 378.19 557.845 383.506 545.415 383.747C531.996 383.961 523.002 377.389 517.909 363.747C512.886 350.444 510.242 337.604 510.242 307.693C510.242 297.044 511.88 262.138 519.743 246.858C522.735 241.097 528.291 230.393 544.889 230.393C544.943 230.393 544.996 230.393 545.041 230.393C565.263 230.474 576.883 244.48 586.313 282.031L586.509 282.805H588.797V226.413H586.598L586.331 227.045C584.176 232.21 579.029 233.332 574.595 233.234C572.484 233.154 570.552 232.842 569.127 232.548C567.872 232.272 567.07 232.014 567.035 232.005C565.085 231.391 563.357 230.812 561.772 230.278C561.051 230.037 560.356 229.824 559.662 229.628C554.568 227.936 550.757 226.849 544.854 226.849C518.265 226.849 481.676 253.866 481.676 309.617C481.676 355.146 509.022 387.309 546.359 387.309C553.313 387.309 559.047 385.029 564.444 382.527C565.45 382.117 566.447 381.699 567.4 381.245C572.671 378.743 577.676 376.365 583.303 376.071C583.526 376.062 583.757 376.062 583.98 376.053C584.14 376.053 584.292 376.044 584.452 376.044C587.711 376.044 594.238 378.155 595.494 384.415L595.654 385.234H597.844V322.297H609.598V318.726H561.309V318.717ZM468.604 306.839C468.604 354.959 432.906 386.899 402.506 386.899C372.106 386.899 336.408 354.959 336.408 306.839C336.408 258.719 370.975 227.206 402.506 227.206C434.037 227.206 468.604 258.719 468.604 306.839ZM439.344 300.552C438.997 286.839 437.287 261.069 429.62 245.941C423.414 233.385 410.974 230.75 402.506 230.75C394.038 230.75 381.598 233.385 375.392 245.932C367.716 261.069 366.007 286.839 365.659 300.552C365.659 300.677 365.659 300.801 365.659 300.917C365.659 301.273 365.641 301.621 365.633 301.959C365.633 302.217 365.624 302.467 365.615 302.716C365.615 302.912 365.615 303.117 365.606 303.312C365.606 303.633 365.606 303.936 365.597 304.239C365.597 304.354 365.597 304.479 365.597 304.586C365.597 304.915 365.597 305.227 365.597 305.53C365.597 305.61 365.597 305.699 365.597 305.779C365.597 306.153 365.597 306.5 365.597 306.83C365.597 307.097 365.597 307.391 365.597 307.685C365.641 316.58 366.381 350.996 375.401 368.146C380.494 378.093 390.538 383.346 402.524 383.346C414.509 383.346 424.554 378.093 429.647 368.155C438.667 350.996 439.415 316.58 439.451 307.685C439.451 307.391 439.451 307.097 439.451 306.839C439.451 306.509 439.451 306.153 439.451 305.788C439.451 305.708 439.451 305.619 439.451 305.539C439.451 305.236 439.451 304.924 439.451 304.595C439.451 304.479 439.451 304.363 439.451 304.247C439.451 303.945 439.451 303.642 439.442 303.321C439.442 303.125 439.442 302.921 439.433 302.725C439.433 302.475 439.433 302.226 439.415 301.968C439.415 301.629 439.398 301.282 439.389 300.926C439.389 300.801 439.389 300.686 439.389 300.552H439.344ZM348.643 230.954H319.418V234.472H331.973L298.484 346.535L258.039 234.472H269.526V232.415V230.945H218.477V234.463H233.258L289.9 385.216H290.71L335.847 234.472H349.667V230.954H348.643Z" fill="white"/>
</g>
<defs>
<clipPath id="clip0_4140_15401">
<rect width="808.139" height="269.848" fill="white" transform="translate(135.523 223.157)"/>
</clipPath>
</defs>
</svg>
