<svg width="1080" height="1080" viewBox="0 0 1080 1080" fill="none" xmlns="http://www.w3.org/2000/svg">
<rect width="1079.06" height="1079.06" transform="matrix(0 1 -1 0 1079.06 0.0800781)" fill="black"/>
<g clip-path="url(#clip0_4140_15264)">
<rect width="194.039" height="1024.94" transform="matrix(0 1 -1 0 1052 27.1426)" fill="white"/>
<path d="M304.061 180.162L291.482 180.162L294.695 157.877L277.059 157.877L278.016 145.299L296.336 145.299L300.301 118.16L282.938 118.16L284.031 105.514L302.078 105.514L305.291 81.8613L317.938 81.8613L314.861 105.514L336.531 105.514L339.607 81.8613L352.186 81.8613L349.109 105.514L363.26 105.514L362.166 118.16L347.742 118.16L343.367 145.299L357.381 145.299L356.424 157.877L341.727 157.877L338.24 180.162L325.73 180.162L328.943 157.877L307.137 157.877L304.061 180.162ZM312.742 118.16L308.982 145.299L330.652 145.299L335.164 118.16L312.742 118.16ZM397.029 180.162L382.059 180.162L382.059 82.1348L444.881 82.1348L444.881 96.5586L397.029 96.5586L397.029 124.039L441.941 124.039L441.941 137.027L397.029 137.027L397.029 180.162ZM470.447 180.162L455.477 180.162L455.477 82.1348L518.299 82.1348L518.299 96.5586L470.447 96.5586L470.447 124.039L515.359 124.039L515.359 137.027L470.447 137.027L470.447 180.162ZM543.865 180.162L528.895 180.162L528.895 82.1348L591.717 82.1347L591.717 96.5586L543.865 96.5586L543.865 124.039L588.777 124.039L588.777 137.027L543.865 137.027L543.865 180.162ZM617.283 180.162L602.313 180.162L602.313 82.1347L665.135 82.1347L665.135 96.5586L617.283 96.5586L617.283 124.039L662.195 124.039L662.195 137.027L617.283 137.027L617.283 180.162ZM690.701 180.162L675.73 180.162L675.73 82.1347L738.553 82.1347L738.553 96.5586L690.701 96.5586L690.701 124.039L735.613 124.039L735.613 137.027L690.701 137.027L690.701 180.162ZM764.119 180.162L749.148 180.162L749.148 82.1347L811.971 82.1347L811.971 96.5586L764.119 96.5586L764.119 124.039L809.031 124.039L809.031 137.027L764.119 137.027L764.119 180.162Z" fill="black"/>
<rect width="194.039" height="1024.94" transform="matrix(0 1 -1 0 1052 234.867)" fill="#D4D4D4"/>
<path d="M258.061 387.887L245.482 387.887L248.695 365.602L231.059 365.602L232.016 353.023L250.336 353.023L254.301 325.885L236.938 325.885L238.031 313.238L256.078 313.238L259.291 289.586L271.938 289.586L268.861 313.238L290.531 313.238L293.607 289.586L306.186 289.586L303.109 313.238L317.26 313.238L316.166 325.885L301.742 325.885L297.367 353.023L311.381 353.023L310.424 365.602L295.727 365.602L292.24 387.887L279.73 387.887L282.943 365.602L261.137 365.602L258.061 387.887ZM266.742 325.885L262.982 353.023L284.652 353.023L289.164 325.885L266.742 325.885ZM372.563 387.887L336.059 388.16L336.059 289.859L371.195 289.586C384.548 289.358 395.668 293.87 404.555 303.121C413.396 312.372 417.816 324.062 417.816 338.189C417.816 352.499 413.51 364.348 404.896 373.736C396.192 383.124 385.414 387.841 372.563 387.887ZM350.619 305.172L350.619 373.326L370.58 373.053C379.558 372.825 387.077 369.566 393.139 363.277C399.2 357.034 402.23 348.854 402.23 338.736C402.23 328.574 399.268 320.325 393.344 313.99C387.419 307.701 380.036 304.671 371.195 304.898L350.619 305.172ZM487.953 368.404L487.953 387.887L472.572 387.887L472.572 368.131L425.814 368.131L425.814 355.143L470.727 289.859L487.953 289.859L487.953 354.117L500.531 354.117L500.531 368.404L487.953 368.404ZM472.572 354.117L472.572 310.914L441.605 354.117L472.572 354.117ZM550.023 387.887L513.52 388.16L513.52 289.859L548.656 289.586C562.009 289.358 573.129 293.87 582.016 303.121C590.857 312.372 595.277 324.062 595.277 338.189C595.277 352.499 590.971 364.348 582.357 373.736C573.653 383.124 562.875 387.841 550.023 387.887ZM528.08 305.172L528.08 373.326L548.041 373.053C557.019 372.825 564.538 369.566 570.6 363.277C576.661 357.034 579.691 348.853 579.691 338.736C579.691 328.574 576.729 320.325 570.805 313.99C564.88 307.701 557.497 304.671 548.656 304.898L528.08 305.172ZM665.414 368.404L665.414 387.887L650.033 387.887L650.033 368.131L603.275 368.131L603.275 355.143L648.188 289.859L665.414 289.859L665.414 354.117L677.992 354.117L677.992 368.404L665.414 368.404ZM650.033 354.117L650.033 310.914L619.066 354.117L650.033 354.117ZM727.484 387.887L690.98 388.16L690.98 289.859L726.117 289.586C739.47 289.358 750.59 293.87 759.477 303.121C768.318 312.372 772.738 324.062 772.738 338.189C772.738 352.499 768.432 364.348 759.818 373.736C751.114 383.124 740.336 387.841 727.484 387.887ZM705.541 305.172L705.541 373.326L725.502 373.053C734.48 372.825 741.999 369.566 748.061 363.277C754.122 357.034 757.152 348.853 757.152 338.736C757.152 328.574 754.19 320.325 748.266 313.99C742.341 307.701 734.958 304.671 726.117 304.898L705.541 305.172ZM842.875 368.404L842.875 387.887L827.494 387.887L827.494 368.131L780.736 368.131L780.736 355.143L825.648 289.859L842.875 289.859L842.875 354.117L855.453 354.117L855.453 368.404L842.875 368.404ZM827.494 354.117L827.494 310.914L796.527 354.117L827.494 354.117Z" fill="#101010"/>
<rect width="194.039" height="1024.94" transform="matrix(0 1 -1 0 1052 442.591)" fill="#EBFA99"/>
<path d="M283.061 595.61L270.482 595.61L273.695 573.325L256.059 573.325L257.016 560.747L275.336 560.747L279.301 533.608L261.938 533.608L263.031 520.962L281.078 520.962L284.291 497.31L296.938 497.31L293.861 520.962L315.531 520.962L318.607 497.31L331.186 497.31L328.109 520.962L342.26 520.962L341.166 533.608L326.742 533.608L322.367 560.747L336.381 560.747L335.424 573.325L320.727 573.325L317.24 595.61L304.73 595.61L307.943 573.325L286.137 573.325L283.061 595.61ZM291.742 533.608L287.982 560.747L309.652 560.747L314.164 533.608L291.742 533.608ZM425.316 595.61L361.059 595.61L361.059 497.583L425.316 497.583L425.316 512.622L376.029 512.622L376.029 538.804L422.377 538.804L422.377 553.159L376.029 553.159L376.029 580.64L425.316 580.64L425.316 595.61ZM484.447 595.884L440.082 595.884L440.082 497.583L480.482 497.583C488.686 497.583 495.453 499.839 500.785 504.351C506.117 508.953 508.783 515.151 508.783 522.944C508.783 527.547 507.598 531.535 505.229 534.907C502.859 538.325 499.896 540.877 496.342 542.563C501.309 544.386 505.411 547.69 508.646 552.476C511.837 557.215 513.386 562.502 513.295 568.335C513.067 576.812 510.401 583.511 505.297 588.433C500.193 593.4 493.243 595.884 484.447 595.884ZM455.053 511.46L455.053 538.052L480.346 538.052C483.718 538.052 486.635 536.821 489.096 534.36C491.511 531.854 492.719 528.8 492.719 525.2C492.719 521.099 491.557 517.795 489.232 515.288C486.954 512.736 483.764 511.46 479.662 511.46L455.053 511.46ZM455.326 551.792L455.326 581.05L481.508 581.05C485.837 581.05 489.346 579.728 492.035 577.085C494.724 574.487 496.068 571.001 496.068 566.626C496.068 562.433 494.701 558.901 491.967 556.03C489.141 553.205 485.655 551.792 481.508 551.792L455.326 551.792ZM543.646 595.61L528.676 595.61L528.676 497.583L591.498 497.583L591.498 512.007L543.646 512.007L543.646 539.487L588.559 539.487L588.559 552.476L543.646 552.476L543.646 595.61ZM612.484 571.548L603.393 595.61L585.893 595.474L623.422 497.583L639.076 497.583L676.605 595.61L659.105 595.61L649.877 571.548L612.484 571.548ZM631.283 516.792L616.723 557.534L645.639 557.534L631.283 516.792ZM716.596 497.31C727.807 497.218 736.625 501.479 743.051 510.093C749.477 518.797 752.689 530.828 752.689 546.186C752.689 554.025 751.869 561.089 750.229 567.378C748.633 573.621 746.537 578.543 743.939 582.144C741.524 585.561 738.562 588.341 735.053 590.483C731.817 592.443 728.741 593.765 725.824 594.448C722.908 595.132 719.695 595.474 716.186 595.474C707.891 595.382 700.759 592.808 694.789 587.749C688.819 582.782 685.31 576.401 684.262 568.608L698.686 568.472C699.87 573.621 702.423 577.381 706.342 579.751C710.261 582.166 714.408 583.055 718.783 582.417C730.678 580.867 737.081 571.548 737.992 554.458L738.129 551.382C732.296 558.856 724.548 562.593 714.887 562.593C706.182 562.593 698.731 559.562 692.533 553.501C686.244 547.485 683.1 539.624 683.1 529.917C683.1 519.617 686.426 511.619 693.08 505.923C699.734 500.226 707.572 497.355 716.596 497.31ZM716.869 510.913C712.038 510.913 707.937 512.736 704.564 516.382C701.192 520.028 699.506 524.357 699.506 529.37C699.506 534.52 701.215 538.872 704.633 542.427C708.005 545.981 712.13 547.759 717.006 547.759C721.973 547.759 726.166 545.959 729.584 542.358C732.956 538.713 734.643 534.338 734.643 529.233C734.643 524.175 732.934 519.845 729.516 516.245C726.052 512.69 721.837 510.913 716.869 510.913ZM793.432 497.31C804.643 497.218 813.461 501.479 819.887 510.093C826.313 518.797 829.525 530.828 829.525 546.186C829.525 554.025 828.705 561.089 827.064 567.378C825.469 573.621 823.373 578.543 820.775 582.144C818.36 585.561 815.398 588.341 811.889 590.483C808.653 592.443 805.577 593.765 802.66 594.448C799.743 595.132 796.531 595.474 793.021 595.474C784.727 595.382 777.595 592.808 771.625 587.749C765.655 582.782 762.146 576.401 761.098 568.608L775.521 568.472C776.706 573.621 779.258 577.381 783.178 579.751C787.097 582.166 791.244 583.055 795.619 582.417C807.514 580.867 813.917 571.548 814.828 554.458L814.965 551.382C809.132 558.856 801.384 562.593 791.723 562.593C783.018 562.593 775.567 559.562 769.369 553.501C763.08 547.485 759.936 539.624 759.936 529.917C759.936 519.617 763.262 511.619 769.916 505.923C776.57 500.226 784.408 497.355 793.432 497.31ZM793.705 510.913C788.874 510.913 784.773 512.736 781.4 516.382C778.028 520.028 776.342 524.357 776.342 529.37C776.342 534.52 778.051 538.872 781.469 542.427C784.841 545.981 788.965 547.759 793.842 547.759C798.809 547.759 803.002 545.959 806.42 542.358C809.792 538.713 811.479 534.338 811.479 529.233C811.479 524.175 809.77 519.845 806.352 516.245C802.888 512.69 798.673 510.913 793.705 510.913Z" fill="#101010"/>
<rect width="194.039" height="1024.94" transform="matrix(0 1 -1 0 1052 650.314)" fill="#910217"/>
<path d="M288.061 803.334L275.482 803.334L278.695 781.049L261.059 781.049L262.016 768.471L280.336 768.471L284.301 741.332L266.938 741.332L268.031 728.686L286.078 728.686L289.291 705.033L301.938 705.033L298.861 728.686L320.531 728.686L323.607 705.033L336.186 705.033L333.109 728.686L347.26 728.686L346.166 741.332L331.742 741.332L327.367 768.471L341.381 768.471L340.424 781.049L325.727 781.049L322.24 803.334L309.73 803.334L312.943 781.049L291.137 781.049L288.061 803.334ZM296.742 741.332L292.982 768.471L314.652 768.471L319.164 741.332L296.742 741.332ZM392.65 705.033C403.861 704.942 412.68 709.203 419.105 717.816C425.531 726.521 428.744 738.552 428.744 753.91C428.744 761.749 427.924 768.812 426.283 775.102C424.688 781.345 422.592 786.267 419.994 789.867C417.579 793.285 414.617 796.065 411.107 798.207C407.872 800.167 404.796 801.488 401.879 802.172C398.962 802.855 395.749 803.197 392.24 803.197C383.946 803.106 376.814 800.531 370.844 795.473C364.874 790.505 361.365 784.125 360.316 776.332L374.74 776.195C375.925 781.345 378.477 785.105 382.396 787.475C386.316 789.89 390.463 790.779 394.838 790.141C406.732 788.591 413.135 779.271 414.047 762.182L414.184 759.105C408.35 766.579 400.603 770.316 390.941 770.316C382.237 770.316 374.786 767.286 368.588 761.225C362.299 755.209 359.154 747.348 359.154 737.641C359.154 727.341 362.481 719.343 369.135 713.646C375.788 707.95 383.627 705.079 392.65 705.033ZM392.924 718.637C388.093 718.637 383.992 720.46 380.619 724.105C377.247 727.751 375.561 732.081 375.561 737.094C375.561 742.243 377.27 746.596 380.688 750.15C384.06 753.705 388.184 755.482 393.061 755.482C398.028 755.482 402.221 753.682 405.639 750.082C409.011 746.436 410.697 742.061 410.697 736.957C410.697 731.898 408.988 727.569 405.57 723.969C402.107 720.414 397.891 718.637 392.924 718.637ZM503.188 790.482L503.188 803.334L440.775 803.334L440.775 790.482L464.291 790.482L464.291 721.85L440.775 738.666L440.775 724.242L466.41 705.307L478.715 705.307L478.715 790.482L503.188 790.482ZM553.705 804.428C542.084 804.428 532.764 799.779 525.746 790.482C518.637 781.277 515.082 769.314 515.082 754.594C515.082 739.783 518.682 727.637 525.883 718.158C533.083 708.77 542.449 704.076 553.979 704.076C565.508 704.076 574.874 708.77 582.074 718.158C589.184 727.501 592.738 739.555 592.738 754.32C592.738 769.131 589.161 781.163 582.006 790.414C574.851 799.756 565.417 804.428 553.705 804.428ZM554.115 791.166C561.27 791.166 566.921 787.794 571.068 781.049C575.261 774.304 577.357 765.577 577.357 754.867C577.357 743.839 575.193 734.861 570.863 727.934C566.534 721.006 560.769 717.543 553.568 717.543C546.459 717.543 540.854 720.801 536.752 727.318C532.65 733.79 530.6 742.562 530.6 753.637C530.6 764.939 532.719 774.008 536.957 780.844C541.195 787.725 546.915 791.166 554.115 791.166ZM669.916 803.334L602.855 803.334L602.855 788.363L625.072 769.154C627.169 767.423 629.538 765.44 632.182 763.207C634.825 760.928 636.99 759.06 638.676 757.602C639.177 757.191 640.84 755.687 643.666 753.09C645.854 751.039 647.357 749.467 648.178 748.373C648.952 747.37 649.91 746.003 651.049 744.271C652.097 742.631 652.803 741.059 653.168 739.555C653.487 738.233 653.646 736.729 653.646 735.043C653.646 730.03 652.097 725.974 648.998 722.875C645.854 719.867 641.661 718.363 636.42 718.363C631.361 718.363 627.169 719.958 623.842 723.148C620.469 726.384 618.464 730.714 617.826 736.137L601.693 736.137C602.149 726.521 605.59 718.773 612.016 712.895C618.35 707.016 626.531 704.076 636.557 704.076C645.899 704.076 653.669 706.947 659.867 712.689C666.065 718.432 669.164 725.632 669.164 734.291C669.164 739.441 668.07 743.952 665.883 747.826C664.197 750.743 663.103 752.611 662.602 753.432C661.69 754.936 659.981 756.895 657.475 759.311C654.968 761.771 653.191 763.48 652.143 764.437C651.596 764.984 649.363 766.944 645.443 770.316C642.618 772.732 640.408 774.691 638.813 776.195L624.252 789.047L669.916 789.047L669.916 803.334ZM744.223 790.482L744.223 803.334L681.811 803.334L681.811 790.482L705.326 790.482L705.326 721.85L681.811 738.666L681.811 724.242L707.445 705.307L719.75 705.307L719.75 790.482L744.223 790.482ZM824.135 718.363L782.572 803.334L766.713 803.334L808.07 718.637L754.545 718.637L754.545 705.307L824.135 705.307L824.135 718.363Z" fill="black"/>
<rect width="194.039" height="1024.94" transform="matrix(0 1 -1 0 1052 858.039)" fill="black"/>
<path d="M259.561 1011.06L246.982 1011.06L250.195 988.773L232.559 988.773L233.516 976.195L251.836 976.195L255.801 949.057L238.438 949.057L239.531 936.41L257.578 936.41L260.791 912.758L273.438 912.758L270.361 936.41L292.031 936.41L295.107 912.758L307.686 912.758L304.609 936.41L318.76 936.41L317.666 949.057L303.242 949.057L298.867 976.195L312.881 976.195L311.924 988.773L297.227 988.773L293.74 1011.06L281.23 1011.06L284.443 988.773L262.637 988.773L259.561 1011.06ZM268.242 949.057L264.482 976.195L286.152 976.195L290.664 949.057L268.242 949.057ZM370.986 1012.15C359.365 1012.15 350.046 1007.5 343.027 998.207C335.918 989.001 332.363 977.038 332.363 962.318C332.363 947.507 335.964 935.362 343.164 925.883C350.365 916.495 359.73 911.801 371.26 911.801C382.79 911.801 392.155 916.495 399.355 925.883C406.465 935.225 410.02 947.279 410.02 962.045C410.02 976.856 406.442 988.887 399.287 998.139C392.132 1007.48 382.699 1012.15 370.986 1012.15ZM371.396 998.891C378.551 998.891 384.202 995.518 388.35 988.773C392.542 982.029 394.639 973.301 394.639 962.592C394.639 951.563 392.474 942.585 388.145 935.658C383.815 928.731 378.05 925.268 370.85 925.268C363.74 925.268 358.135 928.526 354.033 935.043C349.932 941.514 347.881 950.287 347.881 961.361C347.881 972.663 350 981.732 354.238 988.568C358.477 995.45 364.196 998.891 371.396 998.891ZM459.307 1012.15C447.686 1012.15 438.366 1007.5 431.348 998.207C424.238 989.001 420.684 977.038 420.684 962.318C420.684 947.507 424.284 935.362 431.484 925.883C438.685 916.495 448.05 911.801 459.58 911.801C471.11 911.801 480.475 916.495 487.676 925.883C494.785 935.225 498.34 947.279 498.34 962.045C498.34 976.856 494.762 988.887 487.607 998.139C480.452 1007.48 471.019 1012.15 459.307 1012.15ZM459.717 998.891C466.872 998.891 472.523 995.518 476.67 988.773C480.863 982.029 482.959 973.301 482.959 962.592C482.959 951.563 480.794 942.585 476.465 935.658C472.135 928.731 466.37 925.268 459.17 925.268C452.061 925.268 446.455 928.526 442.354 935.043C438.252 941.514 436.201 950.287 436.201 961.361C436.201 972.663 438.32 981.732 442.559 988.568C446.797 995.45 452.516 998.891 459.717 998.891ZM547.627 1012.15C536.006 1012.15 526.686 1007.5 519.668 998.207C512.559 989.001 509.004 977.038 509.004 962.318C509.004 947.507 512.604 935.362 519.805 925.883C527.005 916.495 536.37 911.801 547.9 911.801C559.43 911.801 568.796 916.495 575.996 925.883C583.105 935.225 586.66 947.279 586.66 962.045C586.66 976.856 583.083 988.887 575.928 998.139C568.773 1007.48 559.339 1012.15 547.627 1012.15ZM548.037 998.891C555.192 998.891 560.843 995.518 564.99 988.773C569.183 982.029 571.279 973.301 571.279 962.592C571.279 951.563 569.115 942.585 564.785 935.658C560.456 928.731 554.691 925.268 547.49 925.268C540.381 925.268 534.775 928.526 530.674 935.043C526.572 941.514 524.521 950.287 524.521 961.361C524.521 972.663 526.641 981.732 530.879 988.568C535.117 995.45 540.837 998.891 548.037 998.891ZM635.947 1012.15C624.326 1012.15 615.007 1007.5 607.988 998.207C600.879 989.001 597.324 977.038 597.324 962.318C597.324 947.507 600.924 935.362 608.125 925.883C615.326 916.495 624.691 911.801 636.221 911.801C647.751 911.801 657.116 916.495 664.316 925.883C671.426 935.225 674.98 947.279 674.98 962.045C674.98 976.856 671.403 988.887 664.248 998.139C657.093 1007.48 647.66 1012.15 635.947 1012.15ZM636.357 998.891C643.512 998.891 649.163 995.518 653.311 988.773C657.503 982.029 659.6 973.301 659.6 962.592C659.6 951.563 657.435 942.585 653.105 935.658C648.776 928.731 643.011 925.268 635.811 925.268C628.701 925.268 623.096 928.526 618.994 935.043C614.893 941.514 612.842 950.287 612.842 961.361C612.842 972.663 614.961 981.732 619.199 988.568C623.438 995.45 629.157 998.891 636.357 998.891ZM724.268 1012.15C712.646 1012.15 703.327 1007.5 696.309 998.207C689.199 989.001 685.645 977.038 685.645 962.318C685.645 947.507 689.245 935.362 696.445 925.883C703.646 916.495 713.011 911.801 724.541 911.801C736.071 911.801 745.436 916.495 752.637 925.883C759.746 935.225 763.301 947.279 763.301 962.045C763.301 976.856 759.723 988.887 752.568 998.139C745.413 1007.48 735.98 1012.15 724.268 1012.15ZM724.678 998.891C731.833 998.891 737.484 995.518 741.631 988.773C745.824 982.029 747.92 973.301 747.92 962.592C747.92 951.563 745.755 942.585 741.426 935.658C737.096 928.731 731.331 925.268 724.131 925.268C717.021 925.268 711.416 928.526 707.314 935.043C703.213 941.514 701.162 950.287 701.162 961.361C701.162 972.663 703.281 981.732 707.52 988.568C711.758 995.45 717.477 998.891 724.678 998.891ZM812.588 1012.15C800.967 1012.15 791.647 1007.5 784.629 998.207C777.52 989.001 773.965 977.038 773.965 962.318C773.965 947.507 777.565 935.362 784.766 925.883C791.966 916.495 801.331 911.801 812.861 911.801C824.391 911.801 833.757 916.495 840.957 925.883C848.066 935.225 851.621 947.279 851.621 962.045C851.621 976.856 848.044 988.887 840.889 998.139C833.734 1007.48 824.3 1012.15 812.588 1012.15ZM812.998 998.891C820.153 998.891 825.804 995.518 829.951 988.773C834.144 982.029 836.24 973.301 836.24 962.592C836.24 951.563 834.076 942.585 829.746 935.658C825.417 928.731 819.652 925.268 812.451 925.268C805.342 925.268 799.736 928.526 795.635 935.043C791.533 941.514 789.482 950.287 789.482 961.361C789.482 972.663 791.602 981.732 795.84 988.568C800.078 995.45 805.798 998.891 812.998 998.891Z" fill="white"/>
</g>
<defs>
<clipPath id="clip0_4140_15264">
<rect x="1052" y="27.1426" width="1024.94" height="1024.94" rx="20" transform="rotate(90 1052 27.1426)" fill="white"/>
</clipPath>
</defs>
</svg>
