<svg width="1080" height="716" viewBox="0 0 1080 716" fill="none" xmlns="http://www.w3.org/2000/svg">
<rect width="1079.06" height="714.721" transform="translate(0.0625 0.441406)" fill="black"/>
<g clip-path="url(#clip0_4140_16010)">
<path d="M598.206 350.457C586.289 350.457 577.486 340.413 577.486 328.54C577.486 316.669 585.873 306.626 598.145 306.626C609.151 306.626 615.496 315.137 616.882 320.607H609.249C607.426 317.125 603.381 313.407 598.087 313.407C590.076 313.407 584.623 320.668 584.623 328.482C584.623 336.298 590.392 343.656 598.126 343.656C604.154 343.656 607.682 338.983 609.29 336.576H616.863C615.65 340.589 613.176 344.105 609.808 346.602C606.44 349.099 602.358 350.445 598.165 350.44L598.206 350.457ZM643.513 350.457C631.557 350.457 622.793 340.296 622.793 328.879C622.793 316.331 631.716 306.626 643.574 306.626C655.43 306.626 664.392 316.45 664.392 328.54C664.392 340.632 655.372 350.457 643.513 350.457ZM643.613 313.407C635.505 313.407 629.952 320.487 629.952 328.54C629.952 336.595 635.663 343.676 643.613 343.676C651.564 343.676 657.236 336.198 657.236 328.601C657.236 321.004 651.902 313.426 643.613 313.426V313.407ZM673.051 349.662V307.42H680.21V342.92H693.833V349.662H673.051ZM700.357 349.662V307.42H707.516V342.92H721.139V349.662H700.357ZM727.522 349.662V307.42H749.373V314.162H734.481V324.902H746.912V331.644H734.481V342.94H749.373V349.682H727.522V349.662ZM797.492 329.795C796.798 342.465 787.081 350.457 776.513 350.457C764.716 350.457 755.576 340.594 755.576 328.423C755.576 316.25 764.816 306.626 776.613 306.626C785.792 306.626 793.328 312.968 795.725 319.929H787.617C785.475 316.331 781.628 313.426 776.453 313.426C769.394 313.426 762.733 319.254 762.733 328.443C762.733 337.628 769.416 343.737 776.513 343.737C783.236 343.737 787.994 339.28 789.222 334.03H775.878V327.804H797.55C797.55 328.443 797.55 329.059 797.492 329.795ZM805.62 349.662V307.42H827.469V314.162H812.579V324.902H825.01V331.644H812.579V342.94H827.469V349.682H805.62V349.662ZM874.347 350.457C862.391 350.457 853.627 340.296 853.627 328.879C853.627 316.331 862.55 306.626 874.406 306.626C886.262 306.626 895.223 316.45 895.223 328.54C895.223 340.632 886.203 350.457 874.347 350.457ZM874.445 313.407C866.336 313.407 860.783 320.487 860.783 328.54C860.783 336.595 866.494 343.676 874.445 343.676C882.395 343.676 888.067 336.198 888.067 328.601C888.067 321.004 882.734 313.426 874.445 313.426V313.407ZM910.666 314.162V325.302H922.305V332.044H910.666V349.684H903.727V307.42H924.547V314.162H910.666ZM586.092 372.631V383.769H597.729V390.511H586.092V408.151H579.15V365.909H599.97V372.651H586.092V372.631ZM631.475 408.151L627.786 398.685H612.082L608.335 408.151H600.643L619.221 364.995H620.827L639.186 408.151H631.455H631.475ZM619.994 378.876L614.066 392.74H625.802L619.974 378.876H619.994ZM656.203 408.948C647.4 408.948 643.394 403.636 642.958 395.939H650.116C650.492 400.912 653.803 402.445 656.142 402.445C659.395 402.445 662.012 399.699 662.012 396.339C662.012 391.824 658.542 390.691 653.586 388.681C650.492 387.548 643.652 385.082 643.652 377.088C643.652 369.608 649.956 365.095 656.303 365.095C659.989 365.095 663.717 366.586 666.017 369.491C667.94 371.935 668.317 374.403 668.476 376.63H661.378C661.061 374.461 659.831 371.598 656.083 371.598C655.385 371.591 654.691 371.723 654.044 371.988C653.398 372.252 652.81 372.643 652.317 373.138C651.823 373.633 651.434 374.222 651.172 374.87C650.909 375.517 650.779 376.211 650.789 376.91C650.789 380.784 653.308 381.642 659.711 384.327C666.434 387.129 669.17 391.227 669.17 396.319C669.17 402.703 665.064 408.926 656.203 408.926V408.948ZM700.971 408.151V389.936H684.693V408.151H677.535V365.909H684.693V383.213H700.971V365.909H708.13V408.151H700.971ZM718.519 408.151V365.909H725.675V408.151H718.519ZM754.748 408.948C742.792 408.948 734.028 398.785 734.028 387.37C734.028 374.822 742.95 365.115 754.807 365.115C766.663 365.115 775.627 374.939 775.627 387.031C775.627 399.124 766.604 408.948 754.748 408.948ZM754.846 371.896C746.737 371.896 741.184 378.976 741.184 387.031C741.184 395.086 746.895 402.164 754.846 402.164C762.798 402.164 768.468 394.687 768.468 387.09C768.468 379.493 763.135 371.917 754.846 371.917V371.896ZM816.665 408.948H814.643L791.086 380.587H790.869V408.151H784.147V365.115H786.169L809.765 393.376H809.982V365.911H816.665V408.948ZM561.347 371.498V408.309H489.294V405.922H498.116V310.663H480.093V382.477C480.271 395.047 471.924 410.203 453.742 410.203C426.619 410.203 417.319 396.061 417.319 377.704V310.661H408.06V308.334H443.056V310.641H434.053V386.057C434.053 386.909 434.628 406.84 454.378 407.554C459.731 407.734 465.659 405.624 469.882 401.609C473.371 398.286 477.377 392.002 477.555 381.781V310.658H469.804V308.332H557.36V342.041H555.735L555.635 341.505C549.213 309.009 534.123 310.58 518.895 310.819C517.825 310.819 516.081 310.858 515.009 310.858V356.082H515.742C523.814 356.082 533.726 356.141 535.848 336.473L535.907 335.876H537.473V379.093H535.887L535.848 378.477C534.243 357.732 524.606 358.49 516.317 358.529H515.009V405.961H515.823C520.245 406.019 537.335 406.896 548.935 396.414C555.496 390.489 559.046 382.314 559.522 372.132V371.496H561.347V371.498ZM377.309 365.529V367.856H385.356V388.698C385.356 404.27 375.048 407.732 366.978 407.89C358.255 408.029 352.424 403.753 349.113 394.865C345.841 386.191 344.135 377.819 344.135 358.351C344.135 351.407 345.207 328.657 350.302 318.714C352.247 314.954 355.855 307.993 366.642 307.993H366.739C379.865 308.054 387.42 317.161 393.546 341.624L393.667 342.121H395.154V305.391H393.726L393.546 305.81C392.14 309.172 388.807 309.906 385.912 309.847C384.72 309.787 383.535 309.64 382.364 309.408C381.907 309.319 381.456 309.199 381.015 309.05C379.748 308.653 378.637 308.275 377.603 307.917C377.153 307.765 376.698 307.625 376.239 307.498C372.925 306.407 370.447 305.69 366.62 305.69C349.352 305.69 325.579 323.289 325.579 359.606C325.579 389.278 343.341 410.22 367.592 410.22C372.114 410.22 375.839 408.728 379.35 407.096C380.003 406.838 380.639 406.56 381.275 406.263C384.703 404.63 387.954 403.081 391.604 402.9H392.337C394.457 402.9 398.701 404.272 399.515 408.348L399.613 408.884H401.04V367.878H408.674V365.551H377.309V365.529ZM317.092 357.795C317.092 389.139 293.914 409.961 274.166 409.961C254.418 409.961 231.239 389.158 231.239 357.795C231.239 326.432 253.684 305.907 274.166 305.907C294.647 305.907 317.092 326.432 317.092 357.795ZM298.097 353.7C297.878 344.77 296.769 327.963 291.772 318.119C287.747 309.944 279.658 308.215 274.166 308.215C268.674 308.215 260.582 309.925 256.559 318.1C251.582 327.963 250.471 344.75 250.234 353.678V358.331C250.254 364.121 250.748 386.554 256.598 397.73C259.91 404.211 266.432 407.634 274.224 407.634C282.016 407.634 288.541 404.214 291.831 397.73C297.678 386.554 298.175 364.121 298.197 358.331V353.678L298.097 353.697V353.7ZM239.17 308.353H220.192V310.639H228.342L206.591 383.647L180.321 310.641H187.776V308.353H154.625V310.644H164.222L201.021 408.867H201.557L230.861 310.641H239.842V308.353H239.17Z" fill="white"/>
</g>
<defs>
<clipPath id="clip0_4140_16010">
<rect width="769.941" height="107.207" fill="white" transform="translate(154.625 304.199)"/>
</clipPath>
</defs>
</svg>
