<svg width="1664" height="49" viewBox="0 0 1664 49" fill="none" xmlns="http://www.w3.org/2000/svg">
<g clip-path="url(#clip0_2560_49572)">
<path d="M32.0438 -71.2617L-158.875 119.657" stroke="#939393" stroke-width="12"/>
<path d="M77.9618 -71.2617L-112.957 119.657" stroke="#939393" stroke-width="12"/>
<path d="M123.88 -71.2617L-67.0391 119.657" stroke="#939393" stroke-width="12"/>
<path d="M169.798 -71.2617L-21.1211 119.657" stroke="#939393" stroke-width="12"/>
<path d="M215.72 -71.2617L24.8008 119.657" stroke="#939393" stroke-width="12"/>
<path d="M261.638 -71.2617L70.7188 119.657" stroke="#939393" stroke-width="12"/>
<path d="M307.556 -71.2617L116.637 119.657" stroke="#939393" stroke-width="12"/>
<path d="M353.474 -71.2617L162.555 119.657" stroke="#939393" stroke-width="12"/>
<path d="M399.391 -71.2617L208.473 119.657" stroke="#939393" stroke-width="12"/>
<path d="M445.313 -71.2617L254.395 119.657" stroke="#939393" stroke-width="12"/>
<path d="M491.231 -71.2617L300.312 119.657" stroke="#939393" stroke-width="12"/>
<path d="M537.149 -71.2617L346.23 119.657" stroke="#939393" stroke-width="12"/>
<path d="M583.067 -71.2617L392.148 119.657" stroke="#939393" stroke-width="12"/>
<path d="M628.989 -71.2617L438.07 119.657" stroke="#939393" stroke-width="12"/>
<path d="M674.907 -71.2617L483.988 119.657" stroke="#939393" stroke-width="12"/>
<path d="M720.825 -71.2617L529.906 119.657" stroke="#939393" stroke-width="12"/>
<path d="M766.743 -71.2617L575.824 119.657" stroke="#939393" stroke-width="12"/>
<path d="M812.661 -71.2617L621.742 119.657" stroke="#939393" stroke-width="12"/>
<path d="M858.583 -71.2617L667.664 119.657" stroke="#939393" stroke-width="12"/>
<path d="M904.501 -71.2617L713.582 119.657" stroke="#939393" stroke-width="12"/>
<path d="M950.419 -71.2617L759.5 119.657" stroke="#939393" stroke-width="12"/>
<path d="M996.337 -71.2617L805.418 119.657" stroke="#939393" stroke-width="12"/>
<path d="M1042.25 -71.2617L851.336 119.657" stroke="#939393" stroke-width="12"/>
<path d="M1088.18 -71.2617L897.258 119.657" stroke="#939393" stroke-width="12"/>
<path d="M1134.09 -71.2617L943.176 119.657" stroke="#939393" stroke-width="12"/>
<path d="M1180.01 -71.2617L989.094 119.657" stroke="#939393" stroke-width="12"/>
<path d="M1225.93 -71.2617L1035.01 119.657" stroke="#939393" stroke-width="12"/>
<path d="M1271.85 -71.2617L1080.93 119.657" stroke="#939393" stroke-width="12"/>
<path d="M1317.77 -71.2617L1126.85 119.657" stroke="#939393" stroke-width="12"/>
<path d="M1363.69 -71.2617L1172.77 119.657" stroke="#939393" stroke-width="12"/>
<path d="M1409.61 -71.2617L1218.69 119.657" stroke="#939393" stroke-width="12"/>
<path d="M1455.52 -71.2617L1264.61 119.657" stroke="#939393" stroke-width="12"/>
<path d="M1501.45 -71.2617L1310.53 119.657" stroke="#939393" stroke-width="12"/>
<path d="M1547.36 -71.2617L1356.45 119.657" stroke="#939393" stroke-width="12"/>
<path d="M1593.28 -71.2617L1402.36 119.657" stroke="#939393" stroke-width="12"/>
<path d="M1639.2 -71.2617L1448.28 119.657" stroke="#939393" stroke-width="12"/>
<path d="M1685.12 -71.2617L1494.2 119.657" stroke="#939393" stroke-width="12"/>
<path d="M1731.04 -71.2617L1540.12 119.657" stroke="#939393" stroke-width="12"/>
<path d="M1776.96 -71.2617L1586.04 119.657" stroke="#939393" stroke-width="12"/>
<path d="M1822.88 -71.2617L1631.96 119.657" stroke="#939393" stroke-width="12"/>
</g>
<defs>
<clipPath id="clip0_2560_49572">
<rect width="2257.27" height="190.919" fill="white" transform="translate(-296.633 -71.2617)"/>
</clipPath>
</defs>
</svg>
