<svg width="540" height="540" viewBox="0 0 540 540" fill="none" xmlns="http://www.w3.org/2000/svg">
<g clip-path="url(#clip0_4115_8447)">
<rect width="539.53" height="539.53" fill="#3E4047"/>
<rect width="134.883" height="539.53" fill="#9598A2"/>
<path d="M65.1989 496.574C63.1613 496.574 61.2985 496.104 59.6105 495.165C57.9224 494.226 56.594 492.928 55.6251 491.27C54.6463 489.602 54.1568 487.749 54.1568 485.711C54.1568 484.183 54.4515 482.73 55.0408 481.351C55.6301 479.963 56.4392 478.799 57.468 477.86L59.4906 479.913C58.7814 480.562 58.2021 481.411 57.7526 482.46C57.2932 483.509 57.0634 484.593 57.0634 485.711C57.0634 487.909 57.8425 489.762 59.4007 491.27C60.9589 492.768 62.8916 493.517 65.1989 493.517C66.7871 493.517 68.2054 493.163 69.454 492.453C70.6925 491.744 71.6514 490.78 72.3306 489.562C72.9998 488.333 73.3344 486.96 73.3344 485.442C73.3344 484.123 73.0448 482.945 72.4655 481.906C71.8761 480.857 71.152 479.978 70.293 479.269L72.2557 477.096C73.4543 478.035 74.4182 479.254 75.1473 480.752C75.8765 482.25 76.2411 483.813 76.2411 485.442C76.2411 487.02 75.9614 488.498 75.402 489.876C74.8427 491.255 74.0786 492.433 73.1097 493.412C72.1408 494.391 70.9722 495.165 69.6038 495.735C68.2354 496.294 66.7671 496.574 65.1989 496.574ZM69.5589 473.33C68.1904 473.879 66.7371 474.154 65.1989 474.154C63.6607 474.154 62.2074 473.879 60.839 473.33C59.4706 472.78 58.302 472.031 57.3331 471.082C56.3543 470.133 55.5802 468.995 55.0108 467.666C54.4415 466.338 54.1568 464.925 54.1568 463.426C54.1568 461.429 54.6413 459.611 55.6101 457.973C56.569 456.325 57.8925 455.031 59.5805 454.092C61.2685 453.153 63.1413 452.684 65.1989 452.684C67.2565 452.684 69.1294 453.153 70.8174 454.092C72.5054 455.031 73.8339 456.325 74.8027 457.973C75.7616 459.611 76.2411 461.429 76.2411 463.426C76.2411 464.925 75.9564 466.338 75.3871 467.666C74.8177 468.995 74.0486 470.133 73.0797 471.082C72.1009 472.031 70.9273 472.78 69.5589 473.33ZM65.1989 471.097C67.5262 471.097 69.464 470.368 71.0122 468.91C72.5603 467.452 73.3344 465.624 73.3344 463.426C73.3344 461.229 72.5603 459.401 71.0122 457.943C69.464 456.484 67.5262 455.755 65.1989 455.755C62.8816 455.755 60.9489 456.489 59.4007 457.958C57.8425 459.416 57.0634 461.239 57.0634 463.426C57.0634 465.614 57.8425 467.442 59.4007 468.91C60.9489 470.368 62.8816 471.097 65.1989 471.097ZM61.4833 429.53L71.3418 435.822L71.3418 437.965L61.4833 444.258L75.9414 444.258L75.9414 447.329L54.4565 447.329L54.4565 445.172L67.5662 436.886L54.4565 428.601L54.4565 426.458L75.9414 426.458L75.9414 429.53L61.4833 429.53ZM63.5209 416.324L63.5209 411.41C63.5209 410.141 63.2013 409.203 62.562 408.593C61.9527 408.014 61.2485 407.724 60.4495 407.724C59.6404 407.724 58.9312 408.014 58.322 408.593C57.6927 409.193 57.3781 410.131 57.3781 411.41L57.3781 416.324L63.5209 416.324ZM66.4275 411.26L66.4275 416.324L75.9414 416.324L75.9414 419.396L54.4565 419.396L54.4565 411.26C54.4565 409.402 54.9309 407.909 55.8798 406.78C56.4491 406.121 57.1284 405.607 57.9174 405.237C58.7065 404.858 59.5505 404.668 60.4495 404.668C61.3484 404.668 62.1924 404.858 62.9815 405.237C63.7706 405.607 64.4498 406.121 65.0191 406.78C65.958 407.899 66.4275 409.392 66.4275 411.26ZM62.9066 396.391L62.9066 389.335L65.8132 389.335L65.8132 396.391L73.0198 396.391L73.0198 386.878L75.9414 386.878L75.9414 399.463L54.4565 399.463L54.4565 387.177L57.3781 387.177L57.3781 396.391L62.9066 396.391ZM57.3781 383.65L54.4565 383.65L54.4565 368.923L57.3781 368.923L57.3781 374.751L75.9414 374.751L75.9414 377.822L57.3781 377.822L57.3781 383.65ZM75.9414 364.182L54.4565 364.182L54.4565 361.111L75.9414 361.111L75.9414 364.182ZM57.3781 356.34L54.4565 356.34L54.4565 341.612L57.3781 341.612L57.3781 347.441L75.9414 347.441L75.9414 350.512L57.3781 350.512L57.3781 356.34ZM75.9414 336.872L54.4565 336.872L54.4565 333.801L75.9414 333.801L75.9414 336.872ZM69.5588 327.592C68.1904 328.141 66.7371 328.416 65.1989 328.416C63.6607 328.416 62.2074 328.141 60.839 327.592C59.4706 327.042 58.302 326.293 57.3331 325.344C56.3543 324.396 55.5802 323.257 55.0108 321.928C54.4415 320.6 54.1568 319.187 54.1568 317.688C54.1568 315.691 54.6412 313.873 55.6101 312.235C56.569 310.587 57.8925 309.293 59.5805 308.354C61.2685 307.415 63.1413 306.946 65.1989 306.946C67.2565 306.946 69.1293 307.415 70.8174 308.354C72.5054 309.293 73.8339 310.587 74.8027 312.235C75.7616 313.873 76.241 315.691 76.241 317.688C76.241 319.187 75.9564 320.6 75.387 321.928C74.8177 323.257 74.0486 324.396 73.0797 325.344C72.1009 326.293 70.9272 327.042 69.5588 327.592ZM65.1989 325.359C67.5262 325.359 69.464 324.63 71.0121 323.172C72.5603 321.714 73.3344 319.886 73.3344 317.688C73.3344 315.491 72.5603 313.663 71.0121 312.205C69.464 310.746 67.5262 310.017 65.1989 310.017C62.8816 310.017 60.9489 310.751 59.4007 312.22C57.8425 313.678 57.0634 315.501 57.0634 317.688C57.0634 319.876 57.8425 321.704 59.4007 323.172C60.9489 324.63 62.8816 325.359 65.1989 325.359ZM75.9414 285.635L60.1648 298.52L75.9414 298.52L75.9414 301.591L54.4565 301.591L54.4565 299.434L70.2331 286.549L54.4565 286.549L54.4565 283.477L75.9414 283.477L75.9414 285.635ZM62.9066 248.841L72.2557 248.841C73.4443 249.78 74.4082 250.998 75.1473 252.496C75.8765 253.995 76.241 255.558 76.241 257.186C76.241 258.764 75.9614 260.242 75.402 261.621C74.8427 262.999 74.0786 264.178 73.1097 265.157C72.1408 266.135 70.9722 266.91 69.6038 267.479C68.2354 268.038 66.7671 268.318 65.1989 268.318C63.1613 268.318 61.2985 267.848 59.6104 266.91C57.9224 265.971 56.594 264.672 55.6251 263.014C54.6462 261.346 54.1568 259.493 54.1568 257.456C54.1568 255.927 54.4515 254.474 55.0408 253.096C55.6301 251.707 56.4391 250.544 57.4679 249.605L59.4906 251.657C58.7814 252.307 58.2021 253.156 57.7526 254.204C57.2932 255.253 57.0634 256.337 57.0634 257.456C57.0634 259.653 57.8425 261.506 59.4007 263.014C60.9589 264.512 62.8916 265.261 65.1989 265.261C66.7871 265.261 68.2054 264.907 69.454 264.198C70.6925 263.489 71.6514 262.525 72.3306 261.306C72.9998 260.078 73.3344 258.704 73.3344 257.186C73.3344 256.097 73.1546 255.098 72.7951 254.189C72.4255 253.27 71.9411 252.511 71.3418 251.912L65.8132 251.912L65.8132 258.04L62.9066 258.04L62.9066 248.841ZM65.8132 237.013L65.8132 239.471L75.9414 239.471L75.9414 242.542L54.4565 242.542L54.4565 235.021C54.4565 233.283 54.876 231.889 55.715 230.841C56.2544 230.181 56.9086 229.667 57.6777 229.297C58.4368 228.918 59.2559 228.728 60.1348 228.728C61.0138 228.728 61.8378 228.918 62.6069 229.297C63.3661 229.667 64.0153 230.181 64.5547 230.841C65.154 231.57 65.5335 232.409 65.6933 233.358L75.9414 225.657L75.9414 229.372L65.8132 237.013ZM62.9066 239.471L62.9066 235.171C62.9066 233.992 62.6369 233.133 62.0975 232.594C61.5682 232.064 60.9139 231.8 60.1348 231.8C59.3557 231.8 58.7015 232.064 58.1721 232.594C57.6427 233.123 57.3781 233.982 57.3781 235.171L57.3781 239.471L62.9066 239.471ZM75.9414 206.758L70.4128 209.02L70.4128 218.07L75.9414 220.317L75.9414 223.508L54.4565 214.609L54.4565 212.451L75.9414 203.566L75.9414 206.758ZM59.5205 213.53L67.5062 216.841L67.5062 210.219L59.5205 213.53ZM54.4565 186.226L66.1278 193.582L75.9414 193.582L75.9414 196.654L66.1278 196.654L54.4565 204.025L54.4565 200.579L63.0864 195.125L54.4565 189.657L54.4565 186.226Z" fill="black"/>
<rect width="134.883" height="539.53" transform="translate(134.883)" fill="#6100FF"/>
<path d="M198.404 491.824L198.404 486.91C198.404 485.641 198.084 484.702 197.445 484.093C196.836 483.514 196.131 483.224 195.332 483.224C194.523 483.224 193.814 483.514 193.205 484.093C192.576 484.692 192.261 485.631 192.261 486.91L192.261 491.824L198.404 491.824ZM201.31 486.76L201.31 491.824L210.824 491.824L210.824 494.896L189.339 494.896L189.339 486.76C189.339 484.902 189.814 483.409 190.763 482.28C191.332 481.621 192.011 481.107 192.8 480.737C193.589 480.358 194.433 480.168 195.332 480.168C196.231 480.168 197.075 480.358 197.864 480.737C198.653 481.107 199.333 481.621 199.902 482.28C200.841 483.399 201.31 484.892 201.31 486.76ZM197.789 471.891L197.789 464.835L200.696 464.835L200.696 471.891L207.903 471.891L207.903 462.378L210.824 462.378L210.824 474.963L189.339 474.963L189.339 462.677L192.261 462.677L192.261 471.891L197.789 471.891ZM200.696 451.329L200.696 453.787L210.824 453.787L210.824 456.858L189.339 456.858L189.339 449.337C189.339 447.599 189.759 446.205 190.598 445.157C191.137 444.497 191.791 443.983 192.561 443.613C193.32 443.234 194.139 443.044 195.018 443.044C195.897 443.044 196.721 443.234 197.49 443.613C198.249 443.983 198.898 444.497 199.438 445.157C200.037 445.886 200.416 446.725 200.576 447.674L210.824 439.973L210.824 443.688L200.696 451.329ZM197.789 453.787L197.789 449.487C197.789 448.308 197.52 447.449 196.98 446.91C196.451 446.38 195.797 446.115 195.018 446.115C194.239 446.115 193.584 446.38 193.055 446.91C192.526 447.439 192.261 448.298 192.261 449.487L192.261 453.787L197.789 453.787ZM197.789 432.625L197.789 425.568L200.696 425.568L200.696 432.625L210.824 432.625L210.824 435.697L189.339 435.697L189.339 423.411L192.261 423.411L192.261 432.625L197.789 432.625ZM204.442 419.674C203.073 420.224 201.62 420.498 200.082 420.498C198.544 420.498 197.09 420.224 195.722 419.674C194.353 419.125 193.185 418.376 192.216 417.427C191.237 416.478 190.463 415.339 189.894 414.011C189.324 412.682 189.04 411.269 189.04 409.771C189.04 407.773 189.524 405.955 190.493 404.317C191.452 402.669 192.775 401.376 194.463 400.437C196.151 399.498 198.024 399.028 200.082 399.028C202.139 399.028 204.012 399.498 205.7 400.437C207.388 401.376 208.717 402.669 209.686 404.317C210.644 405.955 211.124 407.773 211.124 409.771C211.124 411.269 210.839 412.682 210.27 414.011C209.701 415.339 208.931 416.478 207.963 417.427C206.984 418.376 205.81 419.125 204.442 419.674ZM200.082 417.442C202.409 417.442 204.347 416.713 205.895 415.254C207.443 413.796 208.217 411.968 208.217 409.771C208.217 407.573 207.443 405.746 205.895 404.287C204.347 402.829 202.409 402.1 200.082 402.1C197.764 402.1 195.832 402.834 194.284 404.302C192.725 405.761 191.946 407.583 191.946 409.771C191.946 411.958 192.725 413.786 194.284 415.254C195.832 416.713 197.764 417.442 200.082 417.442ZM200.696 388.145L200.696 390.602L210.824 390.602L210.824 393.674L189.339 393.674L189.339 386.152C189.339 384.414 189.759 383.021 190.598 381.972C191.137 381.313 191.791 380.799 192.561 380.429C193.32 380.05 194.139 379.86 195.018 379.86C195.897 379.86 196.721 380.05 197.49 380.429C198.249 380.799 198.898 381.313 199.437 381.972C200.037 382.701 200.416 383.54 200.576 384.489L210.824 376.788L210.824 380.504L200.696 388.145ZM197.789 390.602L197.789 386.302C197.789 385.124 197.52 384.265 196.98 383.725C196.451 383.196 195.797 382.931 195.018 382.931C194.239 382.931 193.584 383.196 193.055 383.725C192.526 384.255 192.261 385.114 192.261 386.302L192.261 390.602L197.789 390.602ZM196.366 354.713L206.225 361.006L206.225 363.148L196.366 369.441L210.824 369.441L210.824 372.512L189.339 372.512L189.339 370.355L202.449 362.07L189.339 353.784L189.339 351.642L210.824 351.642L210.824 354.713L196.366 354.713ZM210.824 330.435L205.296 332.698L205.296 341.747L210.824 343.995L210.824 347.186L189.339 338.286L189.339 336.129L210.824 327.244L210.824 330.435ZM194.403 337.208L202.389 340.519L202.389 333.896L194.403 337.208ZM210.824 306.832L195.048 319.717L210.824 319.717L210.824 322.788L189.339 322.788L189.339 320.631L205.116 307.746L189.339 307.746L189.339 304.675L210.824 304.675L210.824 306.832ZM200.082 299.32C198.044 299.32 196.181 298.85 194.493 297.911C192.805 296.972 191.477 295.674 190.508 294.016C189.529 292.348 189.04 290.495 189.04 288.457C189.04 286.929 189.334 285.476 189.924 284.098C190.513 282.709 191.322 281.545 192.351 280.607L194.373 282.659C193.664 283.308 193.085 284.157 192.635 285.206C192.176 286.255 191.946 287.339 191.946 288.457C191.946 290.655 192.725 292.508 194.284 294.016C195.842 295.514 197.774 296.263 200.082 296.263C201.67 296.263 203.088 295.909 204.337 295.2C205.575 294.49 206.534 293.527 207.213 292.308C207.883 291.079 208.217 289.706 208.217 288.188C208.217 286.869 207.928 285.691 207.348 284.652C206.759 283.603 206.035 282.724 205.176 282.015L207.139 279.842C208.337 280.781 209.301 282 210.03 283.498C210.759 284.996 211.124 286.56 211.124 288.188C211.124 289.766 210.844 291.244 210.285 292.623C209.725 294.001 208.961 295.18 207.993 296.158C207.024 297.137 205.855 297.911 204.487 298.481C203.118 299.04 201.65 299.32 200.082 299.32ZM197.789 271.851L197.789 264.794L200.696 264.794L200.696 271.851L207.903 271.851L207.903 262.337L210.824 262.337L210.824 274.922L189.339 274.922L189.339 262.637L192.261 262.637L192.261 271.851L197.789 271.851ZM197.789 243.941L197.789 236.885L200.696 236.885L200.696 243.941L207.903 243.941L207.903 234.427L210.824 234.427L210.824 247.013L189.339 247.013L189.339 234.727L192.261 234.727L192.261 243.941L197.789 243.941ZM210.824 212.952L195.048 225.837L210.824 225.837L210.824 228.908L189.339 228.908L189.339 226.75L205.116 213.865L189.339 213.865L189.339 210.794L210.824 210.794L210.824 212.952ZM197.789 200.69L197.789 193.633L200.696 193.633L200.696 200.69L207.903 200.69L207.903 191.176L210.824 191.176L210.824 203.761L189.339 203.761L189.339 191.476L192.261 191.476L192.261 200.69L197.789 200.69ZM200.696 180.128L200.696 182.585L210.824 182.585L210.824 185.656L189.339 185.656L189.339 178.135C189.339 176.397 189.759 175.004 190.598 173.955C191.137 173.296 191.791 172.781 192.561 172.412C193.32 172.032 194.139 171.842 195.018 171.842C195.897 171.842 196.721 172.032 197.49 172.412C198.249 172.781 198.898 173.296 199.437 173.955C200.037 174.684 200.416 175.523 200.576 176.472L210.824 168.771L210.824 172.487L200.696 180.128ZM197.789 182.585L197.789 178.285C197.789 177.106 197.52 176.247 196.98 175.708C196.451 175.179 195.797 174.914 195.018 174.914C194.239 174.914 193.584 175.179 193.055 175.708C192.526 176.237 192.261 177.096 192.261 178.285L192.261 182.585L197.789 182.585ZM197.789 147.475L207.138 147.475C208.327 148.414 209.291 149.632 210.03 151.131C210.759 152.629 211.124 154.192 211.124 155.82C211.124 157.398 210.844 158.877 210.285 160.255C209.725 161.633 208.961 162.812 207.993 163.791C207.024 164.77 205.855 165.544 204.487 166.113C203.118 166.673 201.65 166.952 200.082 166.952C198.044 166.952 196.181 166.483 194.493 165.544C192.805 164.605 191.477 163.306 190.508 161.648C189.529 159.98 189.04 158.127 189.04 156.09C189.04 154.562 189.334 153.108 189.924 151.73C190.513 150.342 191.322 149.178 192.351 148.239L194.373 150.292C193.664 150.941 193.085 151.79 192.635 152.839C192.176 153.887 191.946 154.971 191.946 156.09C191.946 158.287 192.725 160.14 194.283 161.648C195.842 163.147 197.774 163.896 200.082 163.896C201.67 163.896 203.088 163.541 204.337 162.832C205.575 162.123 206.534 161.159 207.213 159.94C207.883 158.712 208.217 157.338 208.217 155.82C208.217 154.731 208.037 153.733 207.678 152.824C207.308 151.905 206.824 151.146 206.225 150.546L200.696 150.546L200.696 156.674L197.789 156.674L197.789 147.475ZM189.339 127.213L201.011 134.569L210.824 134.569L210.824 137.64L201.011 137.64L189.339 145.012L189.339 141.566L197.969 136.112L189.339 130.644L189.339 127.213Z" fill="white"/>
<rect width="134.883" height="539.53" transform="translate(269.766)" fill="#000F44"/>
<path d="M317.787 491.824L317.787 486.91C317.787 485.641 317.467 484.702 316.828 484.093C316.218 483.514 315.514 483.224 314.715 483.224C313.906 483.224 313.197 483.514 312.588 484.093C311.958 484.692 311.644 485.631 311.644 486.91L311.644 491.824L317.787 491.824ZM320.693 486.76L320.693 491.824L330.207 491.824L330.207 494.896L308.722 494.896L308.722 486.76C308.722 484.902 309.197 483.409 310.145 482.28C310.715 481.621 311.394 481.107 312.183 480.737C312.972 480.358 313.816 480.168 314.715 480.168C315.614 480.168 316.458 480.358 317.247 480.737C318.036 481.107 318.715 481.621 319.285 482.28C320.224 483.399 320.693 484.892 320.693 486.76ZM317.172 471.891L317.172 464.835L320.079 464.835L320.079 471.891L327.285 471.891L327.285 462.378L330.207 462.378L330.207 474.963L308.722 474.963L308.722 462.677L311.644 462.677L311.644 471.891L317.172 471.891ZM320.079 451.329L320.079 453.787L330.207 453.787L330.207 456.858L308.722 456.858L308.722 449.337C308.722 447.599 309.142 446.205 309.981 445.157C310.52 444.497 311.174 443.983 311.943 443.613C312.702 443.234 313.521 443.044 314.4 443.044C315.279 443.044 316.103 443.234 316.873 443.613C317.632 443.983 318.281 444.497 318.82 445.157C319.42 445.886 319.799 446.725 319.959 447.674L330.207 439.973L330.207 443.688L320.079 451.329ZM317.172 453.787L317.172 449.487C317.172 448.308 316.903 447.449 316.363 446.91C315.834 446.38 315.18 446.115 314.4 446.115C313.621 446.115 312.967 446.38 312.438 446.91C311.908 447.439 311.644 448.298 311.644 449.487L311.644 453.787L317.172 453.787ZM317.172 432.625L317.172 425.568L320.079 425.568L320.079 432.625L330.207 432.625L330.207 435.697L308.722 435.697L308.722 423.411L311.644 423.411L311.644 432.625L317.172 432.625ZM323.824 419.674C322.456 420.224 321.003 420.498 319.465 420.498C317.926 420.498 316.473 420.224 315.105 419.674C313.736 419.125 312.568 418.376 311.599 417.427C310.62 416.478 309.846 415.339 309.276 414.011C308.707 412.682 308.422 411.269 308.422 409.771C308.422 407.773 308.907 405.955 309.876 404.317C310.835 402.669 312.158 401.376 313.846 400.437C315.534 399.498 317.407 399.028 319.465 399.028C321.522 399.028 323.395 399.498 325.083 400.437C326.771 401.376 328.099 402.669 329.068 404.317C330.027 405.955 330.507 407.773 330.507 409.771C330.507 411.269 330.222 412.682 329.653 414.011C329.083 415.339 328.314 416.478 327.345 417.427C326.367 418.376 325.193 419.125 323.824 419.674ZM319.465 417.442C321.792 417.442 323.73 416.713 325.278 415.254C326.826 413.796 327.6 411.968 327.6 409.771C327.6 407.573 326.826 405.746 325.278 404.287C323.73 402.829 321.792 402.1 319.465 402.1C317.147 402.1 315.215 402.834 313.666 404.302C312.108 405.761 311.329 407.583 311.329 409.771C311.329 411.958 312.108 413.786 313.666 415.254C315.215 416.713 317.147 417.442 319.465 417.442ZM320.079 388.145L320.079 390.602L330.207 390.602L330.207 393.674L308.722 393.674L308.722 386.152C308.722 384.414 309.142 383.021 309.981 381.972C310.52 381.313 311.174 380.799 311.943 380.429C312.702 380.05 313.521 379.86 314.4 379.86C315.279 379.86 316.103 380.05 316.873 380.429C317.632 380.799 318.281 381.313 318.82 381.972C319.42 382.701 319.799 383.54 319.959 384.489L330.207 376.788L330.207 380.504L320.079 388.145ZM317.172 390.602L317.172 386.302C317.172 385.124 316.903 384.265 316.363 383.725C315.834 383.196 315.18 382.931 314.4 382.931C313.621 382.931 312.967 383.196 312.438 383.725C311.908 384.255 311.644 385.114 311.644 386.302L311.644 390.602L317.172 390.602ZM315.749 354.713L325.607 361.006L325.607 363.148L315.749 369.441L330.207 369.441L330.207 372.512L308.722 372.512L308.722 370.355L321.832 362.07L308.722 353.784L308.722 351.642L330.207 351.642L330.207 354.713L315.749 354.713ZM330.207 330.435L324.678 332.698L324.678 341.747L330.207 343.995L330.207 347.186L308.722 338.286L308.722 336.129L330.207 327.244L330.207 330.435ZM313.786 337.208L321.772 340.519L321.772 333.896L313.786 337.208ZM330.207 306.832L314.43 319.717L330.207 319.717L330.207 322.788L308.722 322.788L308.722 320.631L324.499 307.746L308.722 307.746L308.722 304.675L330.207 304.675L330.207 306.832ZM319.465 299.32C317.427 299.32 315.564 298.85 313.876 297.911C312.188 296.972 310.86 295.674 309.891 294.016C308.912 292.348 308.422 290.495 308.422 288.457C308.422 286.929 308.717 285.476 309.306 284.098C309.896 282.709 310.705 281.545 311.734 280.607L313.756 282.659C313.047 283.308 312.468 284.157 312.018 285.206C311.559 286.255 311.329 287.339 311.329 288.457C311.329 290.655 312.108 292.508 313.666 294.016C315.225 295.514 317.157 296.263 319.465 296.263C321.053 296.263 322.471 295.909 323.72 295.2C324.958 294.49 325.917 293.527 326.596 292.308C327.265 291.079 327.6 289.706 327.6 288.188C327.6 286.869 327.31 285.691 326.731 284.652C326.142 283.603 325.418 282.724 324.559 282.015L326.521 279.842C327.72 280.781 328.684 282 329.413 283.498C330.142 284.996 330.507 286.56 330.507 288.188C330.507 289.766 330.227 291.244 329.668 292.623C329.108 294.001 328.344 295.18 327.375 296.158C326.406 297.137 325.238 297.911 323.869 298.481C322.501 299.04 321.033 299.32 319.465 299.32ZM317.172 271.851L317.172 264.794L320.079 264.794L320.079 271.851L327.285 271.851L327.285 262.337L330.207 262.337L330.207 274.922L308.722 274.922L308.722 262.637L311.644 262.637L311.644 271.851L317.172 271.851ZM346.749 477.096L356.607 483.389L356.607 485.531L346.749 491.824L361.207 491.824L361.207 494.896L339.722 494.896L339.722 492.738L352.832 484.453L339.722 476.167L339.722 474.025L361.207 474.025L361.207 477.096L346.749 477.096ZM361.207 466.962L339.722 466.962L339.722 463.891L361.207 463.891L361.207 466.962ZM353.836 442.475C352.777 442.015 351.653 441.786 350.465 441.786C349.276 441.786 348.162 442.015 347.123 442.475C346.075 442.934 345.186 443.573 344.457 444.392C343.847 445.092 343.393 445.926 343.093 446.895C342.794 447.863 342.644 449.077 342.644 450.535L342.644 453.757L358.285 453.757L358.285 450.535C358.285 449.077 358.141 447.863 357.851 446.895C357.551 445.926 357.097 445.092 356.488 444.392C355.768 443.573 354.884 442.934 353.836 442.475ZM361.207 450.385L361.207 456.828L339.722 456.828L339.722 450.385C339.722 447.319 340.401 444.862 341.76 443.014C342.759 441.676 344.022 440.627 345.55 439.868C347.069 439.099 348.707 438.714 350.465 438.714C352.232 438.714 353.881 439.094 355.409 439.853C356.937 440.612 358.196 441.656 359.184 442.984C360.533 444.822 361.207 447.289 361.207 450.385ZM361.207 417.403L345.43 430.288L361.207 430.288L361.207 433.359L339.722 433.359L339.722 431.202L355.499 418.317L339.722 418.317L339.722 415.245L361.207 415.245L361.207 417.403ZM361.207 408.213L339.722 408.213L339.722 405.141L361.207 405.141L361.207 408.213ZM348.172 380.279L357.521 380.279C358.71 381.218 359.674 382.437 360.413 383.935C361.142 385.433 361.507 386.996 361.507 388.625C361.507 390.203 361.227 391.681 360.668 393.059C360.108 394.438 359.344 395.616 358.375 396.595C357.406 397.574 356.238 398.348 354.869 398.918C353.501 399.477 352.033 399.757 350.465 399.757C348.427 399.757 346.564 399.287 344.876 398.348C343.188 397.409 341.86 396.111 340.891 394.453C339.912 392.785 339.422 390.932 339.422 388.894C339.422 387.366 339.717 385.913 340.306 384.534C340.896 383.146 341.705 381.982 342.734 381.043L344.756 383.096C344.047 383.745 343.468 384.594 343.018 385.643C342.559 386.692 342.329 387.776 342.329 388.894C342.329 391.092 343.108 392.945 344.666 394.453C346.225 395.951 348.157 396.7 350.465 396.7C352.053 396.7 353.471 396.346 354.72 395.636C355.958 394.927 356.917 393.963 357.596 392.745C358.265 391.516 358.6 390.143 358.6 388.625C358.6 387.536 358.42 386.537 358.061 385.628C357.691 384.709 357.207 383.95 356.607 383.351L351.079 383.351L351.079 389.479L348.172 389.479L348.172 380.279ZM361.207 358.938L351.079 358.938L351.079 370.909L361.207 370.909L361.207 373.981L339.722 373.981L339.722 370.909L348.172 370.909L348.172 358.938L339.722 358.938L339.722 355.867L361.207 355.867L361.207 358.938ZM342.644 351.126L339.722 351.126L339.722 336.398L342.644 336.398L342.644 342.227L361.207 342.227L361.207 345.298L342.644 345.298L342.644 351.126Z" fill="white"/>
<rect width="134.883" height="539.53" transform="translate(404.648)" fill="#DCFD00"/>
<path d="M477.366 497.652L476.197 494.926C476.727 494.676 477.146 494.296 477.456 493.787C477.766 493.277 477.92 492.703 477.92 492.064C477.92 491.594 477.811 491.14 477.591 490.7C477.371 490.261 477.081 489.906 476.722 489.637C476.222 489.257 475.413 489.067 474.295 489.067L459.042 489.067L459.042 485.996L474.085 485.996C475.643 485.996 476.862 486.241 477.741 486.73C478.679 487.259 479.429 488.004 479.988 488.962C480.547 489.911 480.827 490.945 480.827 492.064C480.827 493.322 480.522 494.456 479.913 495.465C479.294 496.474 478.445 497.203 477.366 497.652ZM474.145 480.102C472.776 480.651 471.323 480.926 469.785 480.926C468.247 480.926 466.793 480.651 465.425 480.102C464.057 479.552 462.888 478.803 461.919 477.854C460.94 476.906 460.166 475.767 459.597 474.438C459.027 473.11 458.743 471.697 458.743 470.198C458.743 468.201 459.227 466.383 460.196 464.745C461.155 463.097 462.478 461.803 464.166 460.864C465.854 459.925 467.727 459.456 469.785 459.456C471.842 459.456 473.715 459.925 475.403 460.864C477.091 461.803 478.42 463.097 479.389 464.745C480.348 466.383 480.827 468.201 480.827 470.198C480.827 471.697 480.542 473.11 479.973 474.438C479.404 475.767 478.635 476.906 477.666 477.854C476.687 478.803 475.513 479.552 474.145 480.102ZM469.785 477.869C472.112 477.869 474.05 477.14 475.598 475.682C477.146 474.224 477.92 472.396 477.92 470.198C477.92 468.001 477.146 466.173 475.598 464.715C474.05 463.256 472.112 462.527 469.785 462.527C467.468 462.527 465.535 463.261 463.987 464.73C462.428 466.188 461.649 468.011 461.649 470.198C461.649 472.386 462.428 474.214 463.987 475.682C465.535 477.14 467.468 477.869 469.785 477.869ZM459.042 439.988L470.714 447.344L480.527 447.344L480.527 450.415L470.714 450.415L459.042 457.787L459.042 454.341L467.672 448.887L459.042 443.419L459.042 439.988ZM459.042 412.108L470.714 419.465L480.527 419.465L480.527 422.536L470.714 422.536L459.042 429.907L459.042 426.461L467.672 421.008L459.042 415.539L459.042 412.108ZM467.493 404.446L467.493 397.389L470.399 397.389L470.399 404.446L477.606 404.446L477.606 394.932L480.527 394.932L480.527 407.518L459.042 407.518L459.042 395.232L461.964 395.232L461.964 404.446L467.493 404.446ZM459.042 386.341L477.606 386.341L477.606 376.827L480.527 376.827L480.527 389.413L459.042 389.413L459.042 386.341ZM459.042 368.866L477.606 368.866L477.606 359.352L480.527 359.352L480.527 371.937L459.042 371.937L459.042 368.866ZM474.145 356.394C472.776 356.944 471.323 357.218 469.785 357.218C468.247 357.218 466.793 356.944 465.425 356.394C464.057 355.845 462.888 355.096 461.919 354.147C460.94 353.198 460.166 352.059 459.597 350.731C459.027 349.402 458.743 347.989 458.743 346.491C458.743 344.493 459.227 342.675 460.196 341.037C461.155 339.389 462.478 338.096 464.166 337.157C465.854 336.218 467.727 335.748 469.785 335.748C471.842 335.748 473.715 336.218 475.403 337.157C477.091 338.096 478.42 339.389 479.389 341.037C480.348 342.675 480.827 344.493 480.827 346.491C480.827 347.989 480.542 349.402 479.973 350.731C479.404 352.059 478.635 353.198 477.666 354.147C476.687 355.096 475.513 355.845 474.145 356.394ZM469.785 354.162C472.112 354.162 474.05 353.433 475.598 351.974C477.146 350.516 477.92 348.688 477.92 346.491C477.92 344.293 477.146 342.465 475.598 341.007C474.05 339.549 472.112 338.82 469.785 338.82C467.468 338.82 465.535 339.554 463.987 341.022C462.428 342.48 461.649 344.303 461.649 346.491C461.649 348.678 462.428 350.506 463.987 351.974C465.535 353.433 467.468 354.162 469.785 354.162ZM464.631 318.722L480.527 324.101L480.527 326.243L459.042 333L459.042 329.869L474.609 325.045L459.042 319.801L459.042 317.658L474.609 312.399L459.042 307.59L459.042 304.459L480.527 311.201L480.527 313.358L464.631 318.722Z" fill="black"/>
</g>
<defs>
<clipPath id="clip0_4115_8447">
<rect width="539.53" height="539.53" fill="white"/>
</clipPath>
</defs>
</svg>
