<svg width="1080" height="715" viewBox="0 0 1080 715" fill="none" xmlns="http://www.w3.org/2000/svg">
<rect width="1079.06" height="714.721" fill="black"/>
<path d="M206.304 307.763H193.7V335.859H180.421V266.87H206.304C210.602 266.87 214.162 267.383 216.985 268.41C219.839 269.436 222.261 270.991 224.249 273.076C225.981 274.84 227.312 276.989 228.242 279.523C229.205 282.025 229.686 284.639 229.686 287.365C229.686 290.091 229.205 292.721 228.242 295.255C227.312 297.756 225.981 299.889 224.249 301.653C220.368 305.727 214.387 307.763 206.304 307.763ZM193.7 295.976H205.727C209.544 295.976 212.334 295.046 214.098 293.186C215.606 291.582 216.359 289.642 216.359 287.365C216.359 285.055 215.606 283.099 214.098 281.495C212.334 279.635 209.544 278.705 205.727 278.705H193.7V295.976ZM239.5 335.859V266.87H252.778V324.024H281.837V335.859H239.5ZM307.595 335.859H293.691L323.23 266.87H332.612L362.151 335.859H348.295L341.752 320.609H314.089L307.595 335.859ZM327.897 288.375L319.093 308.774H336.653L327.897 288.375ZM415.89 266.87L392.22 304.636V335.859H378.941V304.636L355.271 266.87H370.474L385.629 291.117L400.687 266.87H415.89ZM452.79 335.859H438.886L468.425 266.87H477.807L507.346 335.859H493.491L486.948 320.609H459.285L452.79 335.859ZM473.092 288.375L464.288 308.774H481.848L473.092 288.375ZM556.081 316.327C559.417 312.189 561.085 307.202 561.085 301.365C561.085 295.527 559.417 290.54 556.081 286.403C551.976 281.271 546.091 278.705 538.425 278.705H528.563V324.024H538.425C546.091 324.024 551.976 321.459 556.081 316.327ZM515.284 266.87H536.934C546.844 266.87 554.766 269.051 560.7 273.413C564.966 276.588 568.317 280.629 570.755 285.537C573.192 290.412 574.411 295.688 574.411 301.365C574.411 307.042 573.192 312.334 570.755 317.241C568.317 322.148 564.966 326.189 560.7 329.365C554.798 333.694 546.876 335.859 536.934 335.859H515.284V266.87ZM603.71 335.859L575.806 266.87H589.518L608.328 313.969L627.284 266.87H640.947L613.091 335.859H603.71ZM649.847 335.859H635.943L665.483 266.87H674.864L704.404 335.859H690.548L684.005 320.609H656.342L649.847 335.859ZM670.15 288.375L661.345 308.774H678.905L670.15 288.375ZM712.342 335.859V266.87H721.675L760.115 311.805V266.87H773.441V335.859H764.06L725.62 290.925V335.859H712.342ZM820.541 277.743C816.275 277.743 812.378 278.801 808.85 280.918C805.322 283.003 802.564 285.857 800.575 289.482C798.586 293.106 797.592 297.067 797.592 301.365C797.592 308.068 799.853 313.697 804.376 318.251C808.898 322.774 814.479 325.035 821.118 325.035C825.319 325.035 829.072 324.153 832.376 322.389C835.679 320.625 838.437 318.315 840.65 315.461L849.791 323.64C846.616 327.681 842.527 330.888 837.523 333.261C832.52 335.635 826.955 336.822 820.829 336.822C815.569 336.822 810.646 335.907 806.06 334.079C801.505 332.219 797.64 329.701 794.465 326.526C791.29 323.351 788.788 319.598 786.96 315.268C785.164 310.906 784.266 306.272 784.266 301.365C784.266 296.458 785.164 291.839 786.96 287.509C788.756 283.147 791.226 279.379 794.369 276.203C797.544 273.028 801.393 270.526 805.915 268.698C810.47 266.838 815.377 265.908 820.637 265.908C825.64 265.908 830.291 266.774 834.589 268.506C838.886 270.238 842.639 272.659 845.846 275.77L837.283 284.815C832.568 280.1 826.987 277.743 820.541 277.743ZM901.028 278.705H872.932V292.994H894.148V304.829H872.932V324.024H901.99V335.859H859.654V266.87H901.028V278.705Z" fill="white"/>
<mask id="mask0_4126_88796" style="mask-type:alpha" maskUnits="userSpaceOnUse" x="181" y="318" width="668" height="72">
<path d="M183.356 351.43H205.919C211.083 351.43 215.124 350.083 218.043 347.389C221.186 344.342 222.758 340.734 222.758 336.564C222.758 332.363 221.186 328.738 218.043 325.691C215.124 322.997 211.083 321.65 205.919 321.65H183.356V351.43ZM206.112 353.21H183.356V388.859H181.383V319.87H206.112C211.917 319.87 216.423 321.426 219.631 324.537C223.03 327.776 224.73 331.785 224.73 336.564C224.73 341.311 223.03 345.304 219.631 348.543C216.423 351.655 211.917 353.21 206.112 353.21ZM239.067 319.87V387.079H273.562V388.859H237.095V319.87H239.067ZM344.543 388.859L334.392 365.334H298.406L288.351 388.859H286.378L315.966 319.87H316.928L346.515 388.859H344.543ZM316.447 323.334L299.175 363.554H333.67L316.447 323.334ZM367.202 388.859V354.846L344.062 319.87H346.323L368.213 352.873L390.055 319.87H392.316L369.175 354.846V388.859H367.202ZM473.573 388.859L463.422 365.334H427.436L417.381 388.859H415.408L444.996 319.87H445.958L475.546 388.859H473.573ZM445.477 323.334L428.206 363.554H462.7L445.477 323.334ZM537.367 338.585C539.836 343.46 541.071 348.72 541.071 354.365C541.071 360.01 539.836 365.286 537.367 370.193C534.929 375.1 531.561 379.157 527.264 382.365C521.362 386.694 513.472 388.859 503.594 388.859H484.879V319.87H503.594C513.44 319.87 521.33 322.051 527.264 326.413C531.561 329.62 534.929 333.678 537.367 338.585ZM486.851 387.079H503.401C512.927 387.079 520.512 384.979 526.157 380.777C530.198 377.794 533.357 373.993 535.635 369.375C537.944 364.724 539.099 359.721 539.099 354.365C539.099 349.008 537.944 344.021 535.635 339.403C533.357 334.752 530.198 330.935 526.157 327.952C520.512 323.751 512.927 321.65 503.401 321.65H486.851V387.079ZM547.999 319.87L574.604 385.299L601.208 319.87H603.181L575.085 388.859H574.074L546.026 319.87H547.999ZM658.411 388.859L648.26 365.334H612.273L602.219 388.859H600.246L629.834 319.87H630.796L660.383 388.859H658.411ZM630.315 323.334L613.043 363.554H647.538L630.315 323.334ZM669.717 388.859V319.87H670.727L721.964 384.529V319.87H723.936V388.859H722.926L671.689 324.248V388.859H669.717ZM797.352 375.87L798.843 377.024C795.828 380.905 791.979 384.016 787.297 386.358C782.646 388.667 777.723 389.822 772.527 389.822C767.459 389.822 762.729 388.924 758.335 387.127C753.973 385.331 750.252 382.862 747.173 379.719C744.094 376.575 741.673 372.823 739.909 368.461C738.145 364.067 737.263 359.368 737.263 354.365C737.263 347.79 738.722 341.808 741.641 336.42C744.591 330.999 748.697 326.734 753.957 323.623C759.249 320.479 765.15 318.908 771.661 318.908C776.536 318.908 781.107 319.854 785.372 321.746C789.67 323.607 793.342 326.204 796.389 329.54L794.994 330.839C792.076 327.664 788.596 325.178 784.554 323.382C780.513 321.586 776.215 320.688 771.661 320.688C765.535 320.688 759.97 322.195 754.967 325.21C749.996 328.225 746.131 332.298 743.373 337.43C740.614 342.562 739.235 348.207 739.235 354.365C739.235 360.619 740.63 366.312 743.421 371.444C746.211 376.575 750.156 380.633 755.256 383.615C760.355 386.598 766.112 388.09 772.527 388.09C777.53 388.09 782.149 386.983 786.383 384.77C790.648 382.525 794.305 379.558 797.352 375.87ZM812.121 319.87H847.626V321.65H814.094V349.458H840.699V351.238H814.094V387.079H848.589V388.859H812.121V319.87Z" fill="white"/>
</mask>
<g mask="url(#mask0_4126_88796)">
<rect x="172.531" y="353.859" width="734" height="50" fill="#D9D9D9"/>
</g>
<mask id="mask1_4126_88796" style="mask-type:alpha" maskUnits="userSpaceOnUse" x="181" y="360" width="668" height="72">
<path d="M183.356 393.43H205.919C211.083 393.43 215.124 392.083 218.043 389.389C221.186 386.342 222.758 382.734 222.758 378.564C222.758 374.363 221.186 370.738 218.043 367.691C215.124 364.997 211.083 363.65 205.919 363.65H183.356V393.43ZM206.112 395.21H183.356V430.859H181.383V361.87H206.112C211.917 361.87 216.423 363.426 219.631 366.537C223.03 369.776 224.73 373.785 224.73 378.564C224.73 383.311 223.03 387.304 219.631 390.543C216.423 393.655 211.917 395.21 206.112 395.21ZM239.067 361.87V429.079H273.562V430.859H237.095V361.87H239.067ZM344.543 430.859L334.392 407.334H298.406L288.351 430.859H286.378L315.966 361.87H316.928L346.515 430.859H344.543ZM316.447 365.334L299.175 405.554H333.67L316.447 365.334ZM367.202 430.859V396.846L344.062 361.87H346.323L368.213 394.873L390.055 361.87H392.316L369.175 396.846V430.859H367.202ZM473.573 430.859L463.422 407.334H427.436L417.381 430.859H415.408L444.996 361.87H445.958L475.546 430.859H473.573ZM445.477 365.334L428.206 405.554H462.7L445.477 365.334ZM537.367 380.585C539.836 385.46 541.071 390.72 541.071 396.365C541.071 402.01 539.836 407.286 537.367 412.193C534.929 417.1 531.561 421.157 527.264 424.365C521.362 428.694 513.472 430.859 503.594 430.859H484.879V361.87H503.594C513.44 361.87 521.33 364.051 527.264 368.413C531.561 371.62 534.929 375.678 537.367 380.585ZM486.851 429.079H503.401C512.927 429.079 520.512 426.979 526.157 422.777C530.198 419.794 533.357 415.993 535.635 411.375C537.944 406.724 539.099 401.721 539.099 396.365C539.099 391.008 537.944 386.021 535.635 381.403C533.357 376.752 530.198 372.935 526.157 369.952C520.512 365.751 512.927 363.65 503.401 363.65H486.851V429.079ZM547.999 361.87L574.604 427.299L601.208 361.87H603.181L575.085 430.859H574.074L546.026 361.87H547.999ZM658.411 430.859L648.26 407.334H612.273L602.219 430.859H600.246L629.834 361.87H630.796L660.383 430.859H658.411ZM630.315 365.334L613.043 405.554H647.538L630.315 365.334ZM669.717 430.859V361.87H670.727L721.964 426.529V361.87H723.936V430.859H722.926L671.689 366.248V430.859H669.717ZM797.352 417.87L798.843 419.024C795.828 422.905 791.979 426.016 787.297 428.358C782.646 430.667 777.723 431.822 772.527 431.822C767.459 431.822 762.729 430.924 758.335 429.127C753.973 427.331 750.252 424.862 747.173 421.719C744.094 418.575 741.673 414.823 739.909 410.461C738.145 406.067 737.263 401.368 737.263 396.365C737.263 389.79 738.722 383.808 741.641 378.42C744.591 372.999 748.697 368.734 753.957 365.623C759.249 362.479 765.15 360.908 771.661 360.908C776.536 360.908 781.107 361.854 785.372 363.746C789.67 365.607 793.342 368.204 796.389 371.54L794.994 372.839C792.076 369.664 788.596 367.178 784.554 365.382C780.513 363.586 776.215 362.688 771.661 362.688C765.535 362.688 759.97 364.195 754.967 367.21C749.996 370.225 746.131 374.298 743.373 379.43C740.614 384.562 739.235 390.207 739.235 396.365C739.235 402.619 740.63 408.312 743.421 413.444C746.211 418.575 750.156 422.633 755.256 425.615C760.355 428.598 766.112 430.09 772.527 430.09C777.53 430.09 782.149 428.983 786.383 426.77C790.648 424.525 794.305 421.558 797.352 417.87ZM812.121 361.87H847.626V363.65H814.094V391.458H840.699V393.238H814.094V429.079H848.589V430.859H812.121V361.87Z" fill="white"/>
</mask>
<g mask="url(#mask1_4126_88796)">
<rect x="172.531" y="401.859" width="734" height="50" fill="#D9D9D9"/>
</g>
</svg>
