<svg width="1080" height="1080" viewBox="0 0 1080 1080" fill="none" xmlns="http://www.w3.org/2000/svg">
<g clip-path="url(#clip0_4206_133732)">
<rect width="1079.06" height="1079.06" transform="matrix(0 1 -1 0 1079.06 0.081543)" fill="#101010"/>
<rect x="-4.34375" y="209" width="192.816" height="661.223" fill="#D9D9D9"/>
<rect width="192.816" height="371.999" transform="translate(-4.34375 209)" fill="#14F195"/>
<rect x="-4.34375" y="580.999" width="192.816" height="96.408" fill="#14F195" fill-opacity="0.75"/>
<rect x="-4.34375" y="677.409" width="192.816" height="96.408" fill="#14F195" fill-opacity="0.5"/>
<rect x="-4.34375" y="773.817" width="192.816" height="96.408" fill="#14F195" fill-opacity="0.25"/>
<rect x="188.469" y="209" width="192.816" height="661.223" fill="#050706"/>
<rect x="381.281" y="209" width="192.816" height="661.223" fill="#9A9A9A"/>
<rect x="574.109" y="209" width="192.816" height="661.223" fill="white"/>
<rect x="766.922" y="209" width="158.732" height="331.098" fill="#FF0149"/>
<rect x="925.656" y="209" width="158.732" height="331.098" fill="#8B25BF"/>
<rect x="924.672" y="539.125" width="158.732" height="331.098" fill="#14F195"/>
<rect x="766.922" y="539.125" width="158.732" height="331.098" fill="#FDCB26"/>
<path d="M209.971 803.321V790.262H215.457C216.24 790.262 216.912 790.402 217.473 790.683C218.045 790.963 218.484 791.36 218.787 791.875C219.103 792.377 219.261 792.979 219.261 793.68C219.261 794.323 219.091 794.907 218.752 795.433C218.425 795.947 217.94 796.35 217.298 796.642L217.28 795.994C217.841 796.204 218.303 796.485 218.665 796.835C219.039 797.174 219.319 797.571 219.506 798.027C219.693 798.471 219.787 798.944 219.787 799.447C219.787 800.651 219.401 801.597 218.63 802.287C217.858 802.976 216.807 803.321 215.475 803.321H209.971ZM211.688 801.743H215.545C216.304 801.743 216.912 801.539 217.368 801.13C217.823 800.721 218.051 800.166 218.051 799.464C218.051 798.763 217.823 798.208 217.368 797.799C216.912 797.379 216.304 797.168 215.545 797.168H211.688V801.743ZM211.688 795.626H215.422C216.053 795.626 216.561 795.445 216.947 795.082C217.333 794.708 217.525 794.235 217.525 793.662C217.525 793.066 217.333 792.611 216.947 792.295C216.561 791.98 216.053 791.822 215.422 791.822H211.688V795.626ZM221.914 803.321V790.052H223.544V803.321H221.914ZM228.843 803.531C228.224 803.531 227.675 803.42 227.196 803.198C226.728 802.964 226.36 802.649 226.091 802.252C225.823 801.843 225.688 801.375 225.688 800.849C225.688 800.347 225.793 799.897 226.004 799.5C226.226 799.091 226.565 798.746 227.02 798.465C227.488 798.185 228.072 797.986 228.773 797.869L232.279 797.291V798.658L229.141 799.184C228.534 799.289 228.09 799.482 227.809 799.762C227.541 800.043 227.406 800.388 227.406 800.797C227.406 801.182 227.558 801.504 227.862 801.761C228.177 802.018 228.569 802.146 229.036 802.146C229.632 802.146 230.146 802.024 230.579 801.778C231.023 801.521 231.368 801.176 231.613 800.744C231.87 800.312 231.999 799.833 231.999 799.307V796.905C231.999 796.391 231.806 795.976 231.42 795.661C231.046 795.334 230.55 795.17 229.93 795.17C229.393 795.17 228.914 795.31 228.493 795.591C228.084 795.859 227.78 796.222 227.581 796.677L226.162 795.941C226.337 795.509 226.617 795.123 227.003 794.784C227.389 794.434 227.838 794.159 228.353 793.96C228.867 793.762 229.404 793.662 229.965 793.662C230.69 793.662 231.327 793.803 231.876 794.083C232.425 794.352 232.852 794.732 233.156 795.223C233.471 795.702 233.629 796.263 233.629 796.905V803.321H232.034V801.533L232.332 801.638C232.133 802.012 231.864 802.339 231.525 802.62C231.186 802.9 230.789 803.122 230.333 803.286C229.878 803.449 229.381 803.531 228.843 803.531ZM240.539 803.531C239.615 803.531 238.792 803.315 238.067 802.883C237.354 802.45 236.793 801.86 236.384 801.112C235.975 800.364 235.771 799.523 235.771 798.588C235.771 797.641 235.975 796.8 236.384 796.064C236.793 795.328 237.354 794.743 238.067 794.311C238.792 793.879 239.615 793.662 240.539 793.662C241.158 793.662 241.736 793.773 242.274 793.996C242.811 794.218 243.285 794.516 243.694 794.889C244.103 795.263 244.401 795.702 244.588 796.204L243.133 796.905C242.911 796.414 242.572 796.017 242.116 795.713C241.66 795.398 241.135 795.24 240.539 795.24C239.966 795.24 239.446 795.386 238.979 795.678C238.523 795.97 238.16 796.368 237.892 796.87C237.623 797.373 237.489 797.951 237.489 798.606C237.489 799.237 237.623 799.809 237.892 800.323C238.16 800.826 238.523 801.223 238.979 801.515C239.446 801.807 239.966 801.954 240.539 801.954C241.135 801.954 241.66 801.802 242.116 801.498C242.572 801.182 242.911 800.767 243.133 800.253L244.588 800.989C244.401 801.48 244.103 801.919 243.694 802.304C243.285 802.678 242.811 802.976 242.274 803.198C241.736 803.42 241.158 803.531 240.539 803.531ZM246.718 803.321V790.052H248.348V799.149L247.682 798.991L252.695 793.873H254.781L251.153 797.677L255.027 803.321H253.099L249.558 798.202L250.574 798.15L247.822 801.025L248.348 799.833V803.321H246.718Z" fill="white"/>
<path d="M211.18 836.19L212.419 831.866H209.614V829.88H212.98L214.382 825.065H211.577V823.078H214.943L216.182 818.778H218.449L217.21 823.078H221.767L223.006 818.778H225.296L224.058 823.078H226.862V825.065H223.473L222.095 829.88H224.899V831.866H221.534L220.295 836.19H218.005L219.243 831.866H214.686L213.447 836.19H211.18ZM215.27 829.88H219.827L221.206 825.065H216.649L215.27 829.88ZM236.445 836.47C235.059 836.47 233.843 836.096 232.799 835.349C231.771 834.585 230.969 833.533 230.392 832.193C229.816 830.838 229.527 829.264 229.527 827.472C229.527 825.68 229.816 824.115 230.392 822.775C230.969 821.419 231.771 820.367 232.799 819.619C233.828 818.872 235.035 818.498 236.422 818.498C237.809 818.498 239.016 818.872 240.045 819.619C241.073 820.367 241.875 821.419 242.452 822.775C243.044 824.115 243.34 825.68 243.34 827.472C243.34 829.264 243.052 830.838 242.475 832.193C241.899 833.549 241.089 834.601 240.045 835.349C239.016 836.096 237.817 836.47 236.445 836.47ZM236.445 834.344C237.38 834.344 238.191 834.063 238.876 833.502C239.562 832.926 240.091 832.123 240.465 831.095C240.855 830.067 241.05 828.859 241.05 827.472C241.05 826.086 240.855 824.878 240.465 823.85C240.091 822.821 239.554 822.027 238.853 821.466C238.167 820.905 237.357 820.624 236.422 820.624C235.487 820.624 234.677 820.905 233.991 821.466C233.306 822.027 232.768 822.821 232.379 823.85C232.005 824.878 231.818 826.086 231.818 827.472C231.818 828.843 232.005 830.043 232.379 831.072C232.768 832.1 233.306 832.902 233.991 833.479C234.693 834.055 235.511 834.344 236.445 834.344ZM253.358 836.47C251.971 836.47 250.756 836.096 249.712 835.349C248.684 834.585 247.881 833.533 247.305 832.193C246.728 830.838 246.44 829.264 246.44 827.472C246.44 825.68 246.728 824.115 247.305 822.775C247.881 821.419 248.684 820.367 249.712 819.619C250.74 818.872 251.948 818.498 253.335 818.498C254.721 818.498 255.929 818.872 256.957 819.619C257.986 820.367 258.788 821.419 259.364 822.775C259.957 824.115 260.253 825.68 260.253 827.472C260.253 829.264 259.964 830.838 259.388 832.193C258.811 833.549 258.001 834.601 256.957 835.349C255.929 836.096 254.729 836.47 253.358 836.47ZM253.358 834.344C254.293 834.344 255.103 834.063 255.789 833.502C256.474 832.926 257.004 832.123 257.378 831.095C257.767 830.067 257.962 828.859 257.962 827.472C257.962 826.086 257.767 824.878 257.378 823.85C257.004 822.821 256.466 822.027 255.765 821.466C255.08 820.905 254.269 820.624 253.335 820.624C252.4 820.624 251.589 820.905 250.904 821.466C250.218 822.027 249.681 822.821 249.291 823.85C248.917 824.878 248.73 826.086 248.73 827.472C248.73 828.843 248.917 830.043 249.291 831.072C249.681 832.1 250.218 832.902 250.904 833.479C251.605 834.055 252.423 834.344 253.358 834.344ZM270.27 836.47C268.884 836.47 267.668 836.096 266.624 835.349C265.596 834.585 264.794 833.533 264.217 832.193C263.641 830.838 263.352 829.264 263.352 827.472C263.352 825.68 263.641 824.115 264.217 822.775C264.794 821.419 265.596 820.367 266.624 819.619C267.653 818.872 268.86 818.498 270.247 818.498C271.634 818.498 272.841 818.872 273.87 819.619C274.898 820.367 275.7 821.419 276.277 822.775C276.869 824.115 277.165 825.68 277.165 827.472C277.165 829.264 276.877 830.838 276.3 832.193C275.724 833.549 274.914 834.601 273.87 835.349C272.841 836.096 271.642 836.47 270.27 836.47ZM270.27 834.344C271.205 834.344 272.016 834.063 272.701 833.502C273.387 832.926 273.916 832.123 274.29 831.095C274.68 830.067 274.875 828.859 274.875 827.472C274.875 826.086 274.68 824.878 274.29 823.85C273.916 822.821 273.379 822.027 272.678 821.466C271.992 820.905 271.182 820.624 270.247 820.624C269.312 820.624 268.502 820.905 267.816 821.466C267.131 822.027 266.593 822.821 266.204 823.85C265.83 824.878 265.643 826.086 265.643 827.472C265.643 828.843 265.83 830.043 266.204 831.072C266.593 832.1 267.131 832.902 267.816 833.479C268.518 834.055 269.336 834.344 270.27 834.344ZM287.183 836.47C285.796 836.47 284.581 836.096 283.537 835.349C282.509 834.585 281.706 833.533 281.13 832.193C280.553 830.838 280.265 829.264 280.265 827.472C280.265 825.68 280.553 824.115 281.13 822.775C281.706 821.419 282.509 820.367 283.537 819.619C284.565 818.872 285.773 818.498 287.16 818.498C288.546 818.498 289.754 818.872 290.782 819.619C291.81 820.367 292.613 821.419 293.189 822.775C293.782 824.115 294.078 825.68 294.078 827.472C294.078 829.264 293.789 830.838 293.213 832.193C292.636 833.549 291.826 834.601 290.782 835.349C289.754 836.096 288.554 836.47 287.183 836.47ZM287.183 834.344C288.118 834.344 288.928 834.063 289.614 833.502C290.299 832.926 290.829 832.123 291.203 831.095C291.592 830.067 291.787 828.859 291.787 827.472C291.787 826.086 291.592 824.878 291.203 823.85C290.829 822.821 290.291 822.027 289.59 821.466C288.905 820.905 288.094 820.624 287.16 820.624C286.225 820.624 285.414 820.905 284.729 821.466C284.043 822.027 283.506 822.821 283.116 823.85C282.742 824.878 282.555 826.086 282.555 827.472C282.555 828.843 282.742 830.043 283.116 831.072C283.506 832.1 284.043 832.902 284.729 833.479C285.43 834.055 286.248 834.344 287.183 834.344ZM304.095 836.47C302.709 836.47 301.493 836.096 300.449 835.349C299.421 834.585 298.619 833.533 298.042 832.193C297.466 830.838 297.177 829.264 297.177 827.472C297.177 825.68 297.466 824.115 298.042 822.775C298.619 821.419 299.421 820.367 300.449 819.619C301.478 818.872 302.685 818.498 304.072 818.498C305.459 818.498 306.666 818.872 307.695 819.619C308.723 820.367 309.525 821.419 310.102 822.775C310.694 824.115 310.99 825.68 310.99 827.472C310.99 829.264 310.702 830.838 310.125 832.193C309.549 833.549 308.739 834.601 307.695 835.349C306.666 836.096 305.467 836.47 304.095 836.47ZM304.095 834.344C305.03 834.344 305.84 834.063 306.526 833.502C307.212 832.926 307.741 832.123 308.115 831.095C308.505 830.067 308.7 828.859 308.7 827.472C308.7 826.086 308.505 824.878 308.115 823.85C307.741 822.821 307.204 822.027 306.503 821.466C305.817 820.905 305.007 820.624 304.072 820.624C303.137 820.624 302.327 820.905 301.641 821.466C300.956 822.027 300.418 822.821 300.029 823.85C299.655 824.878 299.468 826.086 299.468 827.472C299.468 828.843 299.655 830.043 300.029 831.072C300.418 832.1 300.956 832.902 301.641 833.479C302.343 834.055 303.161 834.344 304.095 834.344Z" fill="white"/>
<path d="M787.986 475.143V462.084H792.596C793.461 462.084 794.221 462.248 794.875 462.575C795.529 462.902 796.038 463.37 796.4 463.977C796.774 464.585 796.961 465.298 796.961 466.116C796.961 467.039 796.727 467.822 796.26 468.465C795.792 469.107 795.161 469.569 794.367 469.849L797.399 475.143H795.401L792.211 469.481L793.35 470.147H789.704V475.143H787.986ZM789.704 468.57H792.649C793.163 468.57 793.613 468.47 793.998 468.272C794.384 468.073 794.682 467.787 794.892 467.413C795.114 467.039 795.226 466.607 795.226 466.116C795.226 465.613 795.114 465.181 794.892 464.819C794.682 464.445 794.384 464.158 793.998 463.96C793.613 463.761 793.163 463.662 792.649 463.662H789.704V468.57ZM802.976 475.353C802.065 475.353 801.252 475.137 800.54 474.705C799.827 474.272 799.266 473.682 798.857 472.934C798.448 472.175 798.243 471.328 798.243 470.393C798.243 469.446 798.442 468.605 798.839 467.869C799.248 467.132 799.798 466.554 800.487 466.133C801.188 465.701 801.971 465.485 802.836 465.485C803.537 465.485 804.156 465.613 804.694 465.87C805.243 466.116 805.705 466.455 806.079 466.887C806.464 467.308 806.756 467.793 806.955 468.342C807.165 468.879 807.271 469.44 807.271 470.025C807.271 470.153 807.259 470.299 807.236 470.463C807.224 470.615 807.206 470.761 807.183 470.901H799.435V469.499H806.236L805.465 470.13C805.57 469.522 805.512 468.979 805.29 468.5C805.068 468.021 804.741 467.641 804.308 467.36C803.876 467.08 803.385 466.94 802.836 466.94C802.287 466.94 801.784 467.08 801.328 467.36C800.873 467.641 800.516 468.044 800.259 468.57C800.014 469.084 799.914 469.697 799.961 470.41C799.914 471.1 800.02 471.707 800.277 472.233C800.545 472.747 800.919 473.151 801.398 473.443C801.889 473.723 802.421 473.863 802.994 473.863C803.625 473.863 804.156 473.717 804.589 473.425C805.021 473.133 805.372 472.759 805.64 472.303L807.008 473.005C806.821 473.437 806.529 473.834 806.131 474.197C805.746 474.547 805.284 474.828 804.746 475.038C804.221 475.248 803.63 475.353 802.976 475.353ZM813.691 475.353C812.803 475.353 812.002 475.137 811.289 474.705C810.588 474.272 810.033 473.682 809.624 472.934C809.215 472.187 809.01 471.351 809.01 470.428C809.01 469.481 809.215 468.64 809.624 467.904C810.033 467.156 810.588 466.566 811.289 466.133C812.002 465.701 812.803 465.485 813.691 465.485C814.474 465.485 815.169 465.654 815.777 465.993C816.384 466.32 816.863 466.764 817.214 467.325L816.951 467.728V461.874H818.599V475.143H817.004V473.127L817.214 473.408C816.887 474.027 816.408 474.506 815.777 474.845C815.157 475.184 814.462 475.353 813.691 475.353ZM813.831 473.776C814.427 473.776 814.959 473.63 815.426 473.338C815.893 473.045 816.262 472.648 816.53 472.146C816.811 471.631 816.951 471.059 816.951 470.428C816.951 469.785 816.811 469.213 816.53 468.71C816.262 468.196 815.893 467.793 815.426 467.501C814.959 467.208 814.427 467.062 813.831 467.062C813.247 467.062 812.715 467.214 812.236 467.518C811.768 467.81 811.4 468.208 811.131 468.71C810.863 469.201 810.728 469.773 810.728 470.428C810.728 471.059 810.863 471.631 811.131 472.146C811.4 472.648 811.768 473.045 812.236 473.338C812.703 473.63 813.235 473.776 813.831 473.776Z" fill="#272727"/>
<path d="M789.196 508.012L790.434 503.688H787.63V501.702H790.995L792.398 496.887H789.593V494.901H792.958L794.197 490.6H796.464L795.225 494.901H799.783L801.022 490.6H803.312L802.073 494.901H804.878V496.887H801.489L800.11 501.702H802.915V503.688H799.549L798.311 508.012H796.02L797.259 503.688H792.701L791.463 508.012H789.196ZM793.286 501.702H797.843L799.222 496.887H794.665L793.286 501.702ZM807.917 508.012V490.6H818.948V492.704H810.207V498.336H818.13V500.44H810.207V508.012H807.917ZM821.543 508.012V490.6H832.574V492.704H823.833V498.336H831.756V500.44H823.833V508.012H821.543ZM841.713 508.293C840.326 508.293 839.111 507.919 838.067 507.171C837.038 506.407 836.236 505.356 835.66 504.016C835.083 502.66 834.795 501.086 834.795 499.295C834.795 497.503 835.083 495.937 835.66 494.597C836.236 493.241 837.038 492.19 838.067 491.442C839.095 490.694 840.303 490.32 841.689 490.32C843.076 490.32 844.284 490.694 845.312 491.442C846.34 492.19 847.143 493.241 847.719 494.597C848.311 495.937 848.607 497.503 848.607 499.295C848.607 501.086 848.319 502.66 847.743 504.016C847.166 505.371 846.356 506.423 845.312 507.171C844.284 507.919 843.084 508.293 841.713 508.293ZM841.713 506.166C842.648 506.166 843.458 505.885 844.143 505.324C844.829 504.748 845.359 503.946 845.733 502.917C846.122 501.889 846.317 500.681 846.317 499.295C846.317 497.908 846.122 496.7 845.733 495.672C845.359 494.644 844.821 493.849 844.12 493.288C843.434 492.727 842.624 492.447 841.689 492.447C840.755 492.447 839.944 492.727 839.259 493.288C838.573 493.849 838.036 494.644 837.646 495.672C837.272 496.7 837.085 497.908 837.085 499.295C837.085 500.666 837.272 501.865 837.646 502.894C838.036 503.922 838.573 504.725 839.259 505.301C839.96 505.878 840.778 506.166 841.713 506.166ZM854.302 508.012V492.587H851.006V490.6H856.615V508.012H854.302ZM868.624 508.012V503.992H860.07V502.099L868.578 490.6H870.775V502.099H873.042V503.992H870.775V508.012H868.624ZM861.8 502.917L861.473 502.099H868.624V492.517L869.302 492.704L861.8 502.917ZM876.961 508.012L882.968 500.183L883.388 500.229C883.155 500.541 882.897 500.79 882.617 500.977C882.337 501.149 882.025 501.273 881.682 501.351C881.355 501.429 880.997 501.468 880.607 501.468C879.579 501.468 878.652 501.234 877.826 500.767C877.016 500.284 876.369 499.63 875.886 498.804C875.419 497.962 875.185 497.004 875.185 495.929C875.185 494.854 875.434 493.896 875.933 493.054C876.431 492.213 877.117 491.551 877.989 491.068C878.862 490.569 879.844 490.32 880.934 490.32C882.056 490.32 883.045 490.569 883.902 491.068C884.775 491.551 885.461 492.229 885.959 493.101C886.458 493.958 886.707 494.947 886.707 496.069C886.707 496.677 886.637 497.277 886.497 497.869C886.356 498.461 886.131 499.061 885.819 499.669C885.523 500.276 885.126 500.907 884.627 501.562L879.719 508.012H876.961ZM880.934 499.458C881.604 499.458 882.196 499.31 882.71 499.014C883.24 498.703 883.653 498.282 883.949 497.752C884.245 497.207 884.393 496.599 884.393 495.929C884.393 495.228 884.237 494.612 883.926 494.083C883.63 493.553 883.225 493.132 882.71 492.821C882.196 492.509 881.604 492.353 880.934 492.353C880.28 492.353 879.696 492.509 879.181 492.821C878.667 493.132 878.254 493.553 877.943 494.083C877.647 494.612 877.499 495.228 877.499 495.929C877.499 496.599 877.647 497.207 877.943 497.752C878.239 498.282 878.644 498.703 879.158 499.014C879.688 499.31 880.28 499.458 880.934 499.458Z" fill="#272727"/>
<path d="M944.189 475.143V462.084H948.799C949.664 462.084 950.424 462.248 951.078 462.575C951.732 462.902 952.241 463.37 952.603 463.977C952.977 464.585 953.164 465.298 953.164 466.116C953.164 466.934 952.977 467.647 952.603 468.254C952.241 468.85 951.732 469.318 951.078 469.657C950.435 469.984 949.676 470.147 948.799 470.147H945.907V475.143H944.189ZM945.907 468.57H948.852C949.378 468.57 949.834 468.47 950.219 468.272C950.605 468.073 950.903 467.787 951.113 467.413C951.323 467.039 951.429 466.607 951.429 466.116C951.429 465.613 951.323 465.181 951.113 464.819C950.903 464.445 950.605 464.158 950.219 463.96C949.834 463.761 949.378 463.662 948.852 463.662H945.907V468.57ZM958.642 475.353C957.964 475.353 957.351 475.196 956.802 474.88C956.264 474.565 955.843 474.126 955.54 473.565C955.248 472.993 955.101 472.338 955.101 471.602V465.695H956.732V471.427C956.732 471.894 956.825 472.303 957.012 472.654C957.211 473.005 957.48 473.279 957.818 473.478C958.169 473.676 958.566 473.776 959.01 473.776C959.454 473.776 959.846 473.676 960.185 473.478C960.535 473.279 960.804 472.993 960.991 472.619C961.19 472.245 961.289 471.801 961.289 471.287V465.695H962.937V475.143H961.342V473.303L961.605 473.46C961.383 474.056 961.003 474.524 960.465 474.863C959.939 475.19 959.332 475.353 958.642 475.353ZM965.462 475.143V465.695H967.057V467.43L966.882 467.185C967.104 466.647 967.443 466.25 967.899 465.993C968.355 465.724 968.91 465.59 969.564 465.59H970.142V467.132H969.319C968.653 467.132 968.115 467.343 967.706 467.763C967.297 468.172 967.092 468.757 967.092 469.516V475.143H965.462ZM971.59 478.649V465.695H973.186V467.728L972.975 467.325C973.326 466.764 973.805 466.32 974.413 465.993C975.02 465.654 975.716 465.485 976.499 465.485C977.387 465.485 978.181 465.701 978.882 466.133C979.595 466.566 980.156 467.156 980.565 467.904C980.974 468.64 981.179 469.481 981.179 470.428C981.179 471.351 980.974 472.187 980.565 472.934C980.156 473.682 979.595 474.272 978.882 474.705C978.181 475.137 977.381 475.353 976.481 475.353C975.721 475.353 975.026 475.184 974.395 474.845C973.776 474.506 973.297 474.027 972.958 473.408L973.221 473.127V478.649H971.59ZM976.358 473.776C976.954 473.776 977.486 473.63 977.953 473.338C978.421 473.045 978.783 472.648 979.04 472.146C979.309 471.631 979.443 471.059 979.443 470.428C979.443 469.773 979.309 469.201 979.04 468.71C978.783 468.208 978.421 467.81 977.953 467.518C977.486 467.214 976.954 467.062 976.358 467.062C975.762 467.062 975.225 467.208 974.746 467.501C974.278 467.793 973.904 468.196 973.624 468.71C973.355 469.213 973.221 469.785 973.221 470.428C973.221 471.059 973.355 471.631 973.624 472.146C973.904 472.648 974.278 473.045 974.746 473.338C975.225 473.63 975.762 473.776 976.358 473.776ZM983.316 475.143V461.874H984.946V475.143H983.316ZM991.823 475.353C990.912 475.353 990.099 475.137 989.387 474.705C988.674 474.272 988.113 473.682 987.704 472.934C987.295 472.175 987.09 471.328 987.09 470.393C987.09 469.446 987.289 468.605 987.686 467.869C988.095 467.132 988.644 466.554 989.334 466.133C990.035 465.701 990.818 465.485 991.683 465.485C992.384 465.485 993.003 465.613 993.541 465.87C994.09 466.116 994.552 466.455 994.926 466.887C995.311 467.308 995.603 467.793 995.802 468.342C996.012 468.879 996.118 469.44 996.118 470.025C996.118 470.153 996.106 470.299 996.083 470.463C996.071 470.615 996.053 470.761 996.03 470.901H988.282V469.499H995.083L994.312 470.13C994.417 469.522 994.359 468.979 994.137 468.5C993.915 468.021 993.588 467.641 993.155 467.36C992.723 467.08 992.232 466.94 991.683 466.94C991.134 466.94 990.631 467.08 990.175 467.36C989.72 467.641 989.363 468.044 989.106 468.57C988.861 469.084 988.761 469.697 988.808 470.41C988.761 471.1 988.867 471.707 989.124 472.233C989.392 472.747 989.766 473.151 990.245 473.443C990.736 473.723 991.268 473.863 991.841 473.863C992.472 473.863 993.003 473.717 993.436 473.425C993.868 473.133 994.219 472.759 994.487 472.303L995.855 473.005C995.668 473.437 995.376 473.834 994.978 474.197C994.593 474.547 994.131 474.828 993.593 475.038C993.068 475.248 992.477 475.353 991.823 475.353Z" fill="#272727"/>
<path d="M945.399 508.012L946.637 503.688H943.833V501.702H947.198L948.601 496.887H945.796V494.901H949.162L950.4 490.6H952.667L951.429 494.901H955.986L957.225 490.6H959.515L958.277 494.901H961.081V496.887H957.692L956.313 501.702H959.118V503.688H955.752L954.514 508.012H952.223L953.462 503.688H948.904L947.666 508.012H945.399ZM949.489 501.702H954.046L955.425 496.887H950.868L949.489 501.702ZM969.542 508.293C968.374 508.293 967.338 508.059 966.434 507.592C965.546 507.124 964.845 506.493 964.33 505.698C963.832 504.888 963.583 503.984 963.583 502.987C963.583 501.865 963.894 500.884 964.517 500.042C965.141 499.201 965.998 498.601 967.088 498.243L967.042 498.827C966.216 498.5 965.569 497.978 965.102 497.261C964.65 496.529 964.424 495.742 964.424 494.901C964.424 494.013 964.642 493.226 965.078 492.54C965.53 491.855 966.138 491.317 966.901 490.928C967.68 490.522 968.561 490.32 969.542 490.32C970.524 490.32 971.397 490.515 972.16 490.904C972.923 491.294 973.523 491.839 973.96 492.54C974.411 493.226 974.637 494.013 974.637 494.901C974.637 495.789 974.396 496.583 973.913 497.285C973.445 497.986 972.822 498.508 972.043 498.851L971.973 498.243C973.079 498.601 973.944 499.209 974.567 500.066C975.191 500.907 975.502 501.881 975.502 502.987C975.502 503.984 975.245 504.888 974.731 505.698C974.232 506.493 973.531 507.124 972.627 507.592C971.739 508.059 970.711 508.293 969.542 508.293ZM969.542 506.306C970.275 506.306 970.914 506.166 971.459 505.885C972.004 505.605 972.425 505.215 972.721 504.717C973.033 504.203 973.188 503.618 973.188 502.964C973.188 502.294 973.033 501.71 972.721 501.211C972.425 500.697 972.004 500.307 971.459 500.042C970.914 499.762 970.275 499.622 969.542 499.622C968.81 499.622 968.163 499.762 967.603 500.042C967.057 500.307 966.636 500.697 966.34 501.211C966.044 501.71 965.896 502.294 965.896 502.964C965.896 503.618 966.044 504.203 966.34 504.717C966.636 505.215 967.057 505.605 967.603 505.885C968.163 506.166 968.81 506.306 969.542 506.306ZM969.542 497.635C970.072 497.635 970.54 497.518 970.945 497.285C971.365 497.051 971.7 496.739 971.95 496.35C972.199 495.945 972.324 495.477 972.324 494.947C972.324 494.418 972.199 493.958 971.95 493.569C971.7 493.179 971.365 492.875 970.945 492.657C970.54 492.423 970.072 492.306 969.542 492.306C968.997 492.306 968.514 492.423 968.093 492.657C967.673 492.875 967.338 493.179 967.088 493.569C966.839 493.958 966.714 494.418 966.714 494.947C966.714 495.477 966.839 495.945 967.088 496.35C967.338 496.739 967.673 497.051 968.093 497.285C968.514 497.518 968.997 497.635 969.542 497.635ZM978.819 508.012V490.6H986.134C987.178 490.6 988.074 490.787 988.822 491.161C989.585 491.535 990.17 492.065 990.575 492.751C990.995 493.421 991.206 494.223 991.206 495.158C991.206 496.015 990.98 496.794 990.528 497.495C990.092 498.181 989.445 498.718 988.588 499.108L988.565 498.243C989.313 498.523 989.928 498.897 990.411 499.365C990.91 499.817 991.284 500.346 991.533 500.954C991.782 501.546 991.907 502.177 991.907 502.847C991.907 504.452 991.393 505.714 990.364 506.633C989.336 507.553 987.934 508.012 986.157 508.012H978.819ZM981.109 505.909H986.251C987.264 505.909 988.074 505.636 988.682 505.091C989.289 504.545 989.593 503.805 989.593 502.87C989.593 501.936 989.289 501.195 988.682 500.65C988.074 500.089 987.264 499.809 986.251 499.809H981.109V505.909ZM981.109 497.752H986.087C986.929 497.752 987.606 497.511 988.121 497.028C988.635 496.529 988.892 495.898 988.892 495.134C988.892 494.34 988.635 493.732 988.121 493.311C987.606 492.891 986.929 492.68 986.087 492.68H981.109V497.752ZM994.323 508.012V506.423L999.138 501.211C1000.09 500.198 1000.84 499.365 1001.4 498.71C1001.98 498.056 1002.4 497.472 1002.67 496.957C1002.93 496.443 1003.06 495.898 1003.06 495.321C1003.06 494.371 1002.78 493.639 1002.22 493.124C1001.66 492.61 1000.92 492.353 1000 492.353C999.068 492.353 998.273 492.626 997.618 493.171C996.964 493.701 996.512 494.457 996.263 495.438L994.183 494.901C994.385 493.966 994.759 493.156 995.305 492.47C995.85 491.784 996.528 491.255 997.338 490.881C998.148 490.507 999.036 490.32 1000 490.32C1001.06 490.32 1001.99 490.53 1002.78 490.951C1003.59 491.356 1004.22 491.925 1004.68 492.657C1005.14 493.389 1005.38 494.239 1005.38 495.205C1005.38 495.843 1005.25 496.467 1004.98 497.074C1004.72 497.682 1004.33 498.329 1003.81 499.014C1003.3 499.684 1002.63 500.463 1001.8 501.351L997.502 506.026H1005.75V508.012H994.323ZM1014.06 508.293C1013.16 508.293 1012.31 508.137 1011.52 507.825C1010.72 507.498 1010.03 507.038 1009.44 506.446C1008.86 505.839 1008.44 505.13 1008.17 504.319L1010.04 503.525C1010.37 504.382 1010.9 505.052 1011.63 505.535C1012.38 506.002 1013.19 506.236 1014.06 506.236C1014.78 506.236 1015.41 506.08 1015.96 505.769C1016.52 505.441 1016.95 504.997 1017.27 504.436C1017.58 503.86 1017.73 503.221 1017.73 502.52C1017.73 501.788 1017.57 501.141 1017.24 500.58C1016.93 500.019 1016.5 499.583 1015.96 499.271C1015.41 498.944 1014.79 498.78 1014.09 498.78C1013.37 498.78 1012.72 498.944 1012.12 499.271C1011.53 499.598 1011.1 500.011 1010.84 500.51L1008.99 500.113L1010.32 490.6H1019.35V492.587H1011.19L1012.08 491.699L1011.05 499.084L1010.25 498.617C1010.77 497.962 1011.37 497.495 1012.05 497.215C1012.75 496.918 1013.51 496.77 1014.32 496.77C1015.46 496.77 1016.46 497.028 1017.31 497.542C1018.17 498.056 1018.84 498.741 1019.32 499.598C1019.81 500.455 1020.05 501.429 1020.05 502.52C1020.05 503.611 1019.78 504.592 1019.25 505.465C1018.74 506.337 1018.03 507.031 1017.13 507.545C1016.24 508.043 1015.22 508.293 1014.06 508.293ZM1023.39 508.012V490.6H1030.71C1031.75 490.6 1032.65 490.787 1033.4 491.161C1034.16 491.535 1034.74 492.065 1035.15 492.751C1035.57 493.421 1035.78 494.223 1035.78 495.158C1035.78 496.015 1035.55 496.794 1035.1 497.495C1034.67 498.181 1034.02 498.718 1033.16 499.108L1033.14 498.243C1033.89 498.523 1034.5 498.897 1034.99 499.365C1035.48 499.817 1035.86 500.346 1036.11 500.954C1036.36 501.546 1036.48 502.177 1036.48 502.847C1036.48 504.452 1035.97 505.714 1034.94 506.633C1033.91 507.553 1032.51 508.012 1030.73 508.012H1023.39ZM1025.68 505.909H1030.83C1031.84 505.909 1032.65 505.636 1033.26 505.091C1033.86 504.545 1034.17 503.805 1034.17 502.87C1034.17 501.936 1033.86 501.195 1033.26 500.65C1032.65 500.089 1031.84 499.809 1030.83 499.809H1025.68V505.909ZM1025.68 497.752H1030.66C1031.5 497.752 1032.18 497.511 1032.7 497.028C1033.21 496.529 1033.47 495.898 1033.47 495.134C1033.47 494.34 1033.21 493.732 1032.7 493.311C1032.18 492.891 1031.5 492.68 1030.66 492.68H1025.68V497.752ZM1039.58 508.012V490.6H1050.61V492.704H1041.87V498.336H1049.79V500.44H1041.87V508.012H1039.58Z" fill="#272727"/>
<path d="M406.829 803.531C405.905 803.531 405.052 803.368 404.269 803.04C403.486 802.701 402.809 802.228 402.236 801.621C401.663 801.013 401.213 800.3 400.886 799.482C400.571 798.664 400.413 797.77 400.413 796.8C400.413 795.819 400.571 794.919 400.886 794.101C401.202 793.283 401.646 792.57 402.218 791.962C402.791 791.355 403.469 790.887 404.252 790.56C405.035 790.221 405.888 790.052 406.811 790.052C407.711 790.052 408.517 790.209 409.23 790.525C409.954 790.84 410.562 791.249 411.053 791.752C411.555 792.254 411.912 792.792 412.122 793.364L410.58 794.118C410.276 793.359 409.803 792.757 409.16 792.313C408.517 791.869 407.734 791.647 406.811 791.647C405.899 791.647 405.087 791.863 404.374 792.295C403.673 792.728 403.124 793.329 402.727 794.101C402.329 794.872 402.131 795.772 402.131 796.8C402.131 797.817 402.329 798.711 402.727 799.482C403.136 800.253 403.691 800.855 404.392 801.287C405.105 801.72 405.917 801.936 406.829 801.936C407.623 801.936 408.342 801.767 408.985 801.428C409.627 801.089 410.136 800.621 410.51 800.025C410.883 799.429 411.07 798.74 411.07 797.957V797.151L411.859 797.887H406.811V796.397H412.806V797.554C412.806 798.465 412.648 799.289 412.333 800.025C412.017 800.762 411.585 801.393 411.035 801.919C410.486 802.433 409.849 802.83 409.125 803.11C408.4 803.391 407.635 803.531 406.829 803.531ZM414.934 803.321V793.873H416.529V795.608L416.353 795.363C416.575 794.825 416.914 794.428 417.37 794.171C417.826 793.902 418.381 793.768 419.035 793.768H419.614V795.31H418.79C418.124 795.31 417.586 795.521 417.177 795.941C416.768 796.35 416.564 796.934 416.564 797.694V803.321H414.934ZM425.409 803.531C424.497 803.531 423.685 803.315 422.972 802.883C422.26 802.45 421.699 801.86 421.29 801.112C420.881 800.353 420.676 799.505 420.676 798.571C420.676 797.624 420.875 796.783 421.272 796.046C421.681 795.31 422.23 794.732 422.92 794.311C423.621 793.879 424.404 793.662 425.269 793.662C425.97 793.662 426.589 793.791 427.127 794.048C427.676 794.294 428.137 794.632 428.511 795.065C428.897 795.485 429.189 795.97 429.388 796.52C429.598 797.057 429.703 797.618 429.703 798.202C429.703 798.331 429.692 798.477 429.668 798.641C429.657 798.793 429.639 798.939 429.616 799.079H421.868V797.677H428.669L427.898 798.308C428.003 797.7 427.945 797.157 427.723 796.677C427.501 796.198 427.173 795.819 426.741 795.538C426.309 795.258 425.818 795.117 425.269 795.117C424.719 795.117 424.217 795.258 423.761 795.538C423.305 795.819 422.949 796.222 422.692 796.748C422.446 797.262 422.347 797.875 422.394 798.588C422.347 799.278 422.452 799.885 422.709 800.411C422.978 800.925 423.352 801.328 423.831 801.621C424.322 801.901 424.854 802.041 425.426 802.041C426.057 802.041 426.589 801.895 427.021 801.603C427.454 801.311 427.804 800.937 428.073 800.481L429.44 801.182C429.253 801.615 428.961 802.012 428.564 802.374C428.178 802.725 427.717 803.005 427.179 803.216C426.653 803.426 426.063 803.531 425.409 803.531ZM432.337 807.177C432.127 807.177 431.917 807.16 431.706 807.125C431.496 807.089 431.297 807.031 431.11 806.949V805.494C431.239 805.518 431.396 805.541 431.583 805.564C431.782 805.6 431.975 805.617 432.162 805.617C432.711 805.617 433.126 805.494 433.406 805.249C433.699 805.015 433.973 804.606 434.23 804.022L434.826 802.602L434.791 804.022L430.76 793.873H432.53L435.668 801.936H435.142L438.262 793.873H440.067L435.808 804.443C435.609 804.945 435.352 805.401 435.037 805.81C434.733 806.231 434.359 806.564 433.915 806.809C433.471 807.054 432.945 807.177 432.337 807.177Z" fill="white"/>
<path d="M402.008 836.19L403.247 831.866H400.442V829.88H403.808L405.21 825.065H402.405V823.078H405.771L407.01 818.778H409.277L408.038 823.078H412.595L413.834 818.778H416.125L414.886 823.078H417.69V825.065H414.302L412.923 829.88H415.727V831.866H412.362L411.123 836.19H408.833L410.071 831.866H405.514L404.275 836.19H402.008ZM406.098 829.88H410.656L412.035 825.065H407.477L406.098 829.88ZM421.781 836.19L427.788 828.36L428.208 828.407C427.975 828.719 427.718 828.968 427.437 829.155C427.157 829.326 426.845 829.451 426.502 829.529C426.175 829.607 425.817 829.646 425.427 829.646C424.399 829.646 423.472 829.412 422.646 828.945C421.836 828.462 421.189 827.807 420.706 826.982C420.239 826.14 420.005 825.182 420.005 824.107C420.005 823.032 420.254 822.073 420.753 821.232C421.251 820.391 421.937 819.729 422.81 819.246C423.682 818.747 424.664 818.498 425.754 818.498C426.876 818.498 427.866 818.747 428.723 819.246C429.595 819.729 430.281 820.406 430.779 821.279C431.278 822.136 431.527 823.125 431.527 824.247C431.527 824.855 431.457 825.455 431.317 826.047C431.177 826.639 430.951 827.239 430.639 827.846C430.343 828.454 429.946 829.085 429.447 829.739L424.539 836.19H421.781ZM425.754 827.636C426.424 827.636 427.016 827.488 427.531 827.192C428.06 826.88 428.473 826.46 428.769 825.93C429.065 825.384 429.213 824.777 429.213 824.107C429.213 823.406 429.058 822.79 428.746 822.26C428.45 821.731 428.045 821.31 427.531 820.998C427.016 820.687 426.424 820.531 425.754 820.531C425.1 820.531 424.516 820.687 424.002 820.998C423.487 821.31 423.074 821.731 422.763 822.26C422.467 822.79 422.319 823.406 422.319 824.107C422.319 824.777 422.467 825.384 422.763 825.93C423.059 826.46 423.464 826.88 423.978 827.192C424.508 827.488 425.1 827.636 425.754 827.636ZM433.038 836.19L439.278 818.778H441.989L448.229 836.19H445.775L444.35 832.1H436.917L435.492 836.19H433.038ZM437.642 829.996H443.625L440.306 820.437H440.961L437.642 829.996ZM451.475 836.19L457.482 828.36L457.902 828.407C457.669 828.719 457.411 828.968 457.131 829.155C456.851 829.326 456.539 829.451 456.196 829.529C455.869 829.607 455.511 829.646 455.121 829.646C454.093 829.646 453.166 829.412 452.34 828.945C451.53 828.462 450.883 827.807 450.4 826.982C449.933 826.14 449.699 825.182 449.699 824.107C449.699 823.032 449.948 822.073 450.447 821.232C450.945 820.391 451.631 819.729 452.503 819.246C453.376 818.747 454.358 818.498 455.448 818.498C456.57 818.498 457.56 818.747 458.416 819.246C459.289 819.729 459.975 820.406 460.473 821.279C460.972 822.136 461.221 823.125 461.221 824.247C461.221 824.855 461.151 825.455 461.011 826.047C460.87 826.639 460.645 827.239 460.333 827.846C460.037 828.454 459.64 829.085 459.141 829.739L454.233 836.19H451.475ZM455.448 827.636C456.118 827.636 456.71 827.488 457.225 827.192C457.754 826.88 458.167 826.46 458.463 825.93C458.759 825.384 458.907 824.777 458.907 824.107C458.907 823.406 458.751 822.79 458.44 822.26C458.144 821.731 457.739 821.31 457.225 820.998C456.71 820.687 456.118 820.531 455.448 820.531C454.794 820.531 454.21 820.687 453.695 820.998C453.181 821.31 452.768 821.731 452.457 822.26C452.161 822.79 452.013 823.406 452.013 824.107C452.013 824.777 452.161 825.384 452.457 825.93C452.753 826.46 453.158 826.88 453.672 827.192C454.202 827.488 454.794 827.636 455.448 827.636ZM462.732 836.19L468.972 818.778H471.683L477.923 836.19H475.469L474.044 832.1H466.611L465.186 836.19H462.732ZM467.336 829.996H473.319L470 820.437H470.655L467.336 829.996ZM481.169 836.19L487.175 828.36L487.596 828.407C487.362 828.719 487.105 828.968 486.825 829.155C486.544 829.326 486.233 829.451 485.89 829.529C485.563 829.607 485.204 829.646 484.815 829.646C483.787 829.646 482.859 829.412 482.034 828.945C481.223 828.462 480.577 827.807 480.094 826.982C479.626 826.14 479.393 825.182 479.393 824.107C479.393 823.032 479.642 822.073 480.141 821.232C480.639 820.391 481.325 819.729 482.197 819.246C483.07 818.747 484.051 818.498 485.142 818.498C486.264 818.498 487.253 818.747 488.11 819.246C488.983 819.729 489.668 820.406 490.167 821.279C490.666 822.136 490.915 823.125 490.915 824.247C490.915 824.855 490.845 825.455 490.705 826.047C490.564 826.639 490.338 827.239 490.027 827.846C489.731 828.454 489.333 829.085 488.835 829.739L483.927 836.19H481.169ZM485.142 827.636C485.812 827.636 486.404 827.488 486.918 827.192C487.448 826.88 487.861 826.46 488.157 825.93C488.453 825.384 488.601 824.777 488.601 824.107C488.601 823.406 488.445 822.79 488.134 822.26C487.838 821.731 487.433 821.31 486.918 820.998C486.404 820.687 485.812 820.531 485.142 820.531C484.488 820.531 483.903 820.687 483.389 820.998C482.875 821.31 482.462 821.731 482.151 822.26C481.855 822.79 481.706 823.406 481.706 824.107C481.706 824.777 481.855 825.384 482.151 825.93C482.447 826.46 482.852 826.88 483.366 827.192C483.896 827.488 484.488 827.636 485.142 827.636ZM492.425 836.19L498.666 818.778H501.377L507.617 836.19H505.163L503.737 832.1H496.305L494.88 836.19H492.425ZM497.03 829.996H503.013L499.694 820.437H500.348L497.03 829.996Z" fill="white"/>
<path d="M599.528 803.321L595.865 790.262H597.67L600.738 801.761H600.317L603.507 790.262H605.313L608.485 801.761H608.047L611.132 790.262H612.938L609.274 803.321H607.364L604.173 791.875H604.629L601.439 803.321H599.528ZM614.394 803.321V790.052H616.024V795.713L615.726 795.556C615.96 794.96 616.334 794.498 616.848 794.171C617.374 793.832 617.988 793.662 618.689 793.662C619.367 793.662 619.968 793.814 620.494 794.118C621.032 794.422 621.452 794.843 621.756 795.38C622.072 795.918 622.23 796.525 622.23 797.203V803.321H620.582V797.729C620.582 797.203 620.483 796.759 620.284 796.397C620.097 796.035 619.834 795.754 619.495 795.556C619.156 795.345 618.765 795.24 618.321 795.24C617.888 795.24 617.497 795.345 617.146 795.556C616.796 795.754 616.521 796.041 616.322 796.414C616.124 796.777 616.024 797.215 616.024 797.729V803.321H614.394ZM624.562 803.321V793.873H626.192V803.321H624.562ZM624.562 792.365V790.262H626.192V792.365H624.562ZM632.561 803.426C631.637 803.426 630.925 803.163 630.422 802.637C629.931 802.111 629.686 801.369 629.686 800.411V795.433H627.968V793.873H628.319C628.739 793.873 629.072 793.744 629.318 793.487C629.563 793.23 629.686 792.891 629.686 792.471V791.699H631.316V793.873H633.437V795.433H631.316V800.358C631.316 800.674 631.363 800.949 631.456 801.182C631.562 801.416 631.731 801.603 631.965 801.743C632.198 801.872 632.508 801.936 632.894 801.936C632.976 801.936 633.075 801.93 633.192 801.919C633.32 801.907 633.437 801.895 633.542 801.883V803.321C633.39 803.356 633.221 803.379 633.034 803.391C632.847 803.414 632.689 803.426 632.561 803.426ZM639.762 803.531C638.851 803.531 638.038 803.315 637.326 802.883C636.613 802.45 636.052 801.86 635.643 801.112C635.234 800.353 635.029 799.505 635.029 798.571C635.029 797.624 635.228 796.783 635.625 796.046C636.034 795.31 636.584 794.732 637.273 794.311C637.974 793.879 638.757 793.662 639.622 793.662C640.323 793.662 640.942 793.791 641.48 794.048C642.029 794.294 642.491 794.632 642.865 795.065C643.25 795.485 643.542 795.97 643.741 796.52C643.951 797.057 644.057 797.618 644.057 798.202C644.057 798.331 644.045 798.477 644.022 798.641C644.01 798.793 643.992 798.939 643.969 799.079H636.221V797.677H643.022L642.251 798.308C642.356 797.7 642.298 797.157 642.076 796.677C641.854 796.198 641.527 795.819 641.094 795.538C640.662 795.258 640.171 795.117 639.622 795.117C639.073 795.117 638.57 795.258 638.114 795.538C637.659 795.819 637.302 796.222 637.045 796.748C636.8 797.262 636.7 797.875 636.747 798.588C636.7 799.278 636.806 799.885 637.063 800.411C637.331 800.925 637.705 801.328 638.185 801.621C638.675 801.901 639.207 802.041 639.78 802.041C640.411 802.041 640.942 801.895 641.375 801.603C641.807 801.311 642.158 800.937 642.426 800.481L643.794 801.182C643.607 801.615 643.315 802.012 642.917 802.374C642.532 802.725 642.07 803.005 641.533 803.216C641.007 803.426 640.417 803.531 639.762 803.531Z" fill="#272727"/>
<path d="M598.336 836.19L599.575 831.866H596.77V829.88H600.136L601.538 825.065H598.734V823.078H602.099L603.338 818.778H605.605L604.366 823.078H608.924L610.162 818.778H612.453L611.214 823.078H614.019V825.065H610.63L609.251 829.88H612.055V831.866H608.69L607.451 836.19H605.161L606.399 831.866H601.842L600.603 836.19H598.336ZM602.426 829.88H606.984L608.363 825.065H603.805L602.426 829.88ZM617.058 836.19V818.778H628.089V820.882H619.348V826.514H627.271V828.618H619.348V836.19H617.058ZM630.683 836.19V818.778H641.715V820.882H632.974V826.514H640.897V828.618H632.974V836.19H630.683ZM644.309 836.19V818.778H655.341V820.882H646.6V826.514H654.523V828.618H646.6V836.19H644.309ZM657.935 836.19V818.778H668.967V820.882H660.226V826.514H668.149V828.618H660.226V836.19H657.935ZM671.561 836.19V818.778H682.592V820.882H673.851V826.514H681.774V828.618H673.851V836.19H671.561ZM685.187 836.19V818.778H696.218V820.882H687.477V826.514H695.4V828.618H687.477V836.19H685.187Z" fill="#272727"/>
<path d="M787.7 803.321V797.344L783.177 790.262H785.123L788.909 796.204H788.208L791.977 790.262H793.922L789.435 797.344V803.321H787.7ZM798.026 803.531C797.114 803.531 796.302 803.315 795.589 802.883C794.876 802.45 794.315 801.86 793.906 801.112C793.497 800.353 793.293 799.505 793.293 798.571C793.293 797.624 793.491 796.783 793.889 796.046C794.298 795.31 794.847 794.732 795.536 794.311C796.238 793.879 797.021 793.662 797.885 793.662C798.586 793.662 799.206 793.791 799.743 794.048C800.293 794.294 800.754 794.632 801.128 795.065C801.514 795.485 801.806 795.97 802.005 796.52C802.215 797.057 802.32 797.618 802.32 798.202C802.32 798.331 802.308 798.477 802.285 798.641C802.273 798.793 802.256 798.939 802.232 799.079H794.485V797.677H801.286L800.515 798.308C800.62 797.7 800.561 797.157 800.339 796.677C800.117 796.198 799.79 795.819 799.358 795.538C798.925 795.258 798.435 795.117 797.885 795.117C797.336 795.117 796.834 795.258 796.378 795.538C795.922 795.819 795.566 796.222 795.309 796.748C795.063 797.262 794.964 797.875 795.011 798.588C794.964 799.278 795.069 799.885 795.326 800.411C795.595 800.925 795.969 801.328 796.448 801.621C796.939 801.901 797.47 802.041 798.043 802.041C798.674 802.041 799.206 801.895 799.638 801.603C800.071 801.311 800.421 800.937 800.69 800.481L802.057 801.182C801.87 801.615 801.578 802.012 801.181 802.374C800.795 802.725 800.333 803.005 799.796 803.216C799.27 803.426 798.68 803.531 798.026 803.531ZM804.446 803.321V790.052H806.076V803.321H804.446ZM808.605 803.321V790.052H810.235V803.321H808.605ZM817.252 803.531C816.341 803.531 815.517 803.321 814.781 802.9C814.044 802.468 813.46 801.878 813.028 801.13C812.595 800.382 812.379 799.535 812.379 798.588C812.379 797.641 812.59 796.8 813.01 796.064C813.443 795.328 814.027 794.743 814.763 794.311C815.499 793.879 816.329 793.662 817.252 793.662C818.164 793.662 818.988 793.879 819.724 794.311C820.46 794.732 821.038 795.31 821.459 796.046C821.891 796.783 822.108 797.63 822.108 798.588C822.108 799.546 821.886 800.399 821.442 801.147C820.998 801.883 820.407 802.468 819.671 802.9C818.947 803.321 818.14 803.531 817.252 803.531ZM817.252 801.954C817.837 801.954 818.362 801.807 818.83 801.515C819.309 801.223 819.683 800.82 819.952 800.306C820.232 799.792 820.372 799.219 820.372 798.588C820.372 797.945 820.232 797.379 819.952 796.888C819.683 796.385 819.309 795.988 818.83 795.696C818.362 795.392 817.837 795.24 817.252 795.24C816.656 795.24 816.119 795.392 815.64 795.696C815.172 795.988 814.798 796.385 814.518 796.888C814.237 797.379 814.097 797.945 814.097 798.588C814.097 799.219 814.237 799.792 814.518 800.306C814.798 800.82 815.172 801.223 815.64 801.515C816.119 801.807 816.656 801.954 817.252 801.954ZM826.236 803.321L822.993 793.873H824.799L827.376 801.778L826.745 801.761L829.269 793.873H830.811L833.335 801.761L832.704 801.778L835.299 793.873H837.087L833.844 803.321H832.284L829.795 795.433H830.285L827.796 803.321H826.236Z" fill="#272727"/>
<path d="M785.649 836.19L786.887 831.866H784.083V829.88H787.448L788.851 825.065H786.046V823.078H789.412L790.65 818.778H792.917L791.679 823.078H796.236L797.475 818.778H799.765L798.527 823.078H801.331V825.065H797.942L796.563 829.88H799.368V831.866H796.002L794.764 836.19H792.473L793.712 831.866H789.154L787.916 836.19H785.649ZM789.739 829.88H794.296L795.675 825.065H791.118L789.739 829.88ZM804.37 836.19V818.778H815.402V820.882H806.661V826.514H814.584V828.618H806.661V836.19H804.37ZM817.996 836.19V818.778H823.699C825.459 818.778 826.994 819.136 828.303 819.853C829.612 820.57 830.624 821.583 831.341 822.891C832.058 824.185 832.416 825.712 832.416 827.472C832.416 829.217 832.058 830.744 831.341 832.053C830.624 833.362 829.612 834.383 828.303 835.115C826.994 835.832 825.459 836.19 823.699 836.19H817.996ZM820.286 834.086H823.722C825.015 834.086 826.129 833.814 827.064 833.268C828.015 832.723 828.747 831.96 829.261 830.978C829.775 829.981 830.032 828.812 830.032 827.472C830.032 826.117 829.768 824.948 829.238 823.967C828.724 822.985 827.991 822.229 827.041 821.7C826.106 821.154 825 820.882 823.722 820.882H820.286V834.086ZM843.336 836.47C842.105 836.47 840.967 836.252 839.924 835.816C838.895 835.364 837.991 834.733 837.212 833.923C836.449 833.113 835.857 832.162 835.436 831.072C835.015 829.981 834.805 828.789 834.805 827.496C834.805 826.187 835.015 824.987 835.436 823.896C835.857 822.806 836.449 821.855 837.212 821.045C837.976 820.235 838.88 819.612 839.924 819.175C840.967 818.724 842.105 818.498 843.336 818.498C844.536 818.498 845.611 818.708 846.561 819.129C847.527 819.549 848.337 820.095 848.992 820.765C849.662 821.435 850.137 822.151 850.417 822.915L848.314 823.873C847.909 822.907 847.278 822.128 846.421 821.536C845.564 820.928 844.536 820.624 843.336 820.624C842.12 820.624 841.038 820.913 840.087 821.489C839.152 822.066 838.42 822.868 837.89 823.896C837.36 824.925 837.096 826.125 837.096 827.496C837.096 828.851 837.36 830.043 837.89 831.072C838.42 832.1 839.152 832.902 840.087 833.479C841.038 834.055 842.12 834.344 843.336 834.344C844.536 834.344 845.564 834.048 846.421 833.455C847.278 832.848 847.909 832.061 848.314 831.095L850.417 832.053C850.137 832.817 849.662 833.533 848.992 834.203C848.337 834.873 847.527 835.419 846.561 835.839C845.611 836.26 844.536 836.47 843.336 836.47ZM853.533 836.19V818.778H860.848C861.892 818.778 862.788 818.965 863.536 819.339C864.299 819.713 864.884 820.243 865.289 820.928C865.709 821.598 865.92 822.401 865.92 823.336C865.92 824.193 865.694 824.972 865.242 825.673C864.806 826.358 864.159 826.896 863.302 827.285L863.279 826.421C864.027 826.701 864.642 827.075 865.125 827.542C865.624 827.994 865.998 828.524 866.247 829.132C866.496 829.724 866.621 830.355 866.621 831.025C866.621 832.63 866.107 833.892 865.078 834.811C864.05 835.73 862.648 836.19 860.871 836.19H853.533ZM855.823 834.086H860.965C861.978 834.086 862.788 833.814 863.396 833.268C864.003 832.723 864.307 831.983 864.307 831.048C864.307 830.113 864.003 829.373 863.396 828.828C862.788 828.267 861.978 827.986 860.965 827.986H855.823V834.086ZM855.823 825.93H860.801C861.643 825.93 862.32 825.688 862.835 825.205C863.349 824.707 863.606 824.076 863.606 823.312C863.606 822.518 863.349 821.91 862.835 821.489C862.32 821.068 861.643 820.858 860.801 820.858H855.823V825.93ZM869.037 836.19V834.601L873.852 829.389C874.802 828.376 875.558 827.542 876.119 826.888C876.695 826.234 877.116 825.649 877.381 825.135C877.646 824.621 877.778 824.076 877.778 823.499C877.778 822.549 877.498 821.816 876.937 821.302C876.376 820.788 875.636 820.531 874.716 820.531C873.782 820.531 872.987 820.804 872.333 821.349C871.678 821.879 871.226 822.634 870.977 823.616L868.897 823.078C869.099 822.144 869.473 821.333 870.019 820.648C870.564 819.962 871.242 819.432 872.052 819.059C872.862 818.685 873.75 818.498 874.716 818.498C875.776 818.498 876.703 818.708 877.498 819.129C878.308 819.534 878.939 820.102 879.391 820.835C879.858 821.567 880.092 822.416 880.092 823.382C880.092 824.021 879.959 824.644 879.695 825.252C879.43 825.86 879.04 826.506 878.526 827.192C878.012 827.862 877.342 828.641 876.516 829.529L872.216 834.203H880.466V836.19H869.037ZM888.801 836.47C887.679 836.47 886.682 836.221 885.809 835.723C884.952 835.224 884.275 834.546 883.776 833.689C883.277 832.817 883.028 831.827 883.028 830.721C883.028 830.113 883.098 829.513 883.238 828.921C883.379 828.329 883.605 827.729 883.916 827.122C884.228 826.514 884.625 825.883 885.108 825.229L890.016 818.778H892.774L886.768 826.584L886.347 826.537C886.581 826.226 886.838 825.984 887.118 825.813C887.414 825.642 887.726 825.517 888.053 825.439C888.396 825.361 888.754 825.322 889.128 825.322C890.156 825.322 891.076 825.564 891.886 826.047C892.712 826.514 893.358 827.161 893.826 827.986C894.309 828.812 894.55 829.763 894.55 830.838C894.55 831.913 894.301 832.879 893.802 833.736C893.304 834.577 892.618 835.247 891.746 835.746C890.889 836.229 889.907 836.47 888.801 836.47ZM888.801 834.414C889.455 834.414 890.04 834.266 890.554 833.97C891.068 833.658 891.473 833.23 891.769 832.684C892.081 832.139 892.237 831.531 892.237 830.861C892.237 830.16 892.089 829.552 891.792 829.038C891.496 828.508 891.091 828.088 890.577 827.776C890.063 827.465 889.471 827.309 888.801 827.309C888.147 827.309 887.554 827.465 887.025 827.776C886.495 828.088 886.082 828.508 885.786 829.038C885.49 829.552 885.342 830.16 885.342 830.861C885.342 831.531 885.49 832.139 885.786 832.684C886.098 833.23 886.511 833.658 887.025 833.97C887.554 834.266 888.147 834.414 888.801 834.414Z" fill="#272727"/>
<path d="M952.344 803.531C951.421 803.531 950.568 803.368 949.785 803.04C949.002 802.701 948.324 802.228 947.752 801.621C947.179 801.013 946.729 800.3 946.402 799.482C946.086 798.664 945.929 797.77 945.929 796.8C945.929 795.819 946.086 794.919 946.402 794.101C946.717 793.283 947.161 792.57 947.734 791.962C948.307 791.355 948.984 790.887 949.767 790.56C950.55 790.221 951.403 790.052 952.327 790.052C953.226 790.052 954.033 790.209 954.746 790.525C955.47 790.84 956.078 791.249 956.569 791.752C957.071 792.254 957.427 792.792 957.638 793.364L956.095 794.118C955.791 793.359 955.318 792.757 954.675 792.313C954.033 791.869 953.25 791.647 952.327 791.647C951.415 791.647 950.603 791.863 949.89 792.295C949.189 792.728 948.64 793.329 948.242 794.101C947.845 794.872 947.646 795.772 947.646 796.8C947.646 797.817 947.845 798.711 948.242 799.482C948.651 800.253 949.207 800.855 949.908 801.287C950.62 801.72 951.433 801.936 952.344 801.936C953.139 801.936 953.857 801.767 954.5 801.428C955.143 801.089 955.651 800.621 956.025 800.025C956.399 799.429 956.586 798.74 956.586 797.957V797.151L957.375 797.887H952.327V796.397H958.321V797.554C958.321 798.465 958.164 799.289 957.848 800.025C957.533 800.762 957.1 801.393 956.551 801.919C956.002 802.433 955.365 802.83 954.64 803.11C953.916 803.391 953.15 803.531 952.344 803.531ZM960.449 803.321V793.873H962.044V795.608L961.869 795.363C962.091 794.825 962.43 794.428 962.886 794.171C963.341 793.902 963.896 793.768 964.551 793.768H965.129V795.31H964.305C963.639 795.31 963.102 795.521 962.693 795.941C962.284 796.35 962.079 796.934 962.079 797.694V803.321H960.449ZM970.924 803.531C970.013 803.531 969.201 803.315 968.488 802.883C967.775 802.45 967.214 801.86 966.805 801.112C966.396 800.353 966.192 799.505 966.192 798.571C966.192 797.624 966.39 796.783 966.788 796.046C967.197 795.31 967.746 794.732 968.435 794.311C969.137 793.879 969.919 793.662 970.784 793.662C971.485 793.662 972.105 793.791 972.642 794.048C973.192 794.294 973.653 794.632 974.027 795.065C974.413 795.485 974.705 795.97 974.903 796.52C975.114 797.057 975.219 797.618 975.219 798.202C975.219 798.331 975.207 798.477 975.184 798.641C975.172 798.793 975.155 798.939 975.131 799.079H967.384V797.677H974.185L973.414 798.308C973.519 797.7 973.46 797.157 973.238 796.677C973.016 796.198 972.689 795.819 972.257 795.538C971.824 795.258 971.333 795.117 970.784 795.117C970.235 795.117 969.733 795.258 969.277 795.538C968.821 795.819 968.465 796.222 968.208 796.748C967.962 797.262 967.863 797.875 967.91 798.588C967.863 799.278 967.968 799.885 968.225 800.411C968.494 800.925 968.868 801.328 969.347 801.621C969.838 801.901 970.369 802.041 970.942 802.041C971.573 802.041 972.105 801.895 972.537 801.603C972.969 801.311 973.32 800.937 973.589 800.481L974.956 801.182C974.769 801.615 974.477 802.012 974.08 802.374C973.694 802.725 973.232 803.005 972.695 803.216C972.169 803.426 971.579 803.531 970.924 803.531ZM981.692 803.531C980.78 803.531 979.968 803.315 979.255 802.883C978.542 802.45 977.981 801.86 977.572 801.112C977.163 800.353 976.959 799.505 976.959 798.571C976.959 797.624 977.158 796.783 977.555 796.046C977.964 795.31 978.513 794.732 979.203 794.311C979.904 793.879 980.687 793.662 981.551 793.662C982.253 793.662 982.872 793.791 983.409 794.048C983.959 794.294 984.42 794.632 984.794 795.065C985.18 795.485 985.472 795.97 985.671 796.52C985.881 797.057 985.986 797.618 985.986 798.202C985.986 798.331 985.974 798.477 985.951 798.641C985.939 798.793 985.922 798.939 985.899 799.079H978.151V797.677H984.952L984.181 798.308C984.286 797.7 984.227 797.157 984.005 796.677C983.783 796.198 983.456 795.819 983.024 795.538C982.591 795.258 982.101 795.117 981.551 795.117C981.002 795.117 980.5 795.258 980.044 795.538C979.588 795.819 979.232 796.222 978.975 796.748C978.729 797.262 978.63 797.875 978.677 798.588C978.63 799.278 978.735 799.885 978.992 800.411C979.261 800.925 979.635 801.328 980.114 801.621C980.605 801.901 981.137 802.041 981.709 802.041C982.34 802.041 982.872 801.895 983.304 801.603C983.737 801.311 984.087 800.937 984.356 800.481L985.723 801.182C985.536 801.615 985.244 802.012 984.847 802.374C984.461 802.725 984 803.005 983.462 803.216C982.936 803.426 982.346 803.531 981.692 803.531ZM988.112 803.321V793.873H989.707V795.713L989.444 795.556C989.678 794.96 990.052 794.498 990.566 794.171C991.092 793.832 991.705 793.662 992.406 793.662C993.084 793.662 993.686 793.814 994.212 794.118C994.749 794.422 995.17 794.843 995.474 795.38C995.789 795.918 995.947 796.525 995.947 797.203V803.321H994.299V797.729C994.299 797.203 994.206 796.759 994.019 796.397C993.832 796.035 993.563 795.754 993.213 795.556C992.874 795.345 992.482 795.24 992.038 795.24C991.594 795.24 991.197 795.345 990.846 795.556C990.507 795.754 990.238 796.041 990.04 796.414C989.841 796.777 989.742 797.215 989.742 797.729V803.321H988.112Z" fill="#272727"/>
<path d="M947.524 836.19L948.762 831.866H945.958V829.88H949.323L950.726 825.065H947.921V823.078H951.287L952.525 818.778H954.792L953.554 823.078H958.111L959.35 818.778H961.64L960.402 823.078H963.206V825.065H959.817L958.438 829.88H961.243V831.866H957.877L956.639 836.19H954.348L955.587 831.866H951.029L949.791 836.19H947.524ZM951.614 829.88H956.171L957.55 825.065H952.993L951.614 829.88ZM968.465 836.19V820.765H965.17V818.778H970.779V836.19H968.465ZM982.788 836.19V832.17H974.234V830.277L982.742 818.778H984.939V830.277H987.206V832.17H984.939V836.19H982.788ZM975.964 831.095L975.637 830.277H982.788V820.695L983.466 820.882L975.964 831.095ZM990.073 836.19V818.778H1001.1V820.882H992.364V826.514H1000.29V828.618H992.364V836.19H990.073ZM1005.92 836.19V820.765H1002.62V818.778H1008.23V836.19H1005.92ZM1013.67 836.19L1019.68 828.36L1020.1 828.407C1019.87 828.719 1019.61 828.968 1019.33 829.155C1019.05 829.326 1018.74 829.451 1018.4 829.529C1018.07 829.607 1017.71 829.646 1017.32 829.646C1016.29 829.646 1015.37 829.412 1014.54 828.945C1013.73 828.462 1013.08 827.807 1012.6 826.982C1012.13 826.14 1011.9 825.182 1011.9 824.107C1011.9 823.032 1012.15 822.073 1012.65 821.232C1013.15 820.391 1013.83 819.729 1014.7 819.246C1015.58 818.747 1016.56 818.498 1017.65 818.498C1018.77 818.498 1019.76 818.747 1020.62 819.246C1021.49 819.729 1022.17 820.406 1022.67 821.279C1023.17 822.136 1023.42 823.125 1023.42 824.247C1023.42 824.855 1023.35 825.455 1023.21 826.047C1023.07 826.639 1022.84 827.239 1022.53 827.846C1022.24 828.454 1021.84 829.085 1021.34 829.739L1016.43 836.19H1013.67ZM1017.65 827.636C1018.32 827.636 1018.91 827.488 1019.42 827.192C1019.95 826.88 1020.37 826.46 1020.66 825.93C1020.96 825.384 1021.11 824.777 1021.11 824.107C1021.11 823.406 1020.95 822.79 1020.64 822.26C1020.34 821.731 1019.94 821.31 1019.42 820.998C1018.91 820.687 1018.32 820.531 1017.65 820.531C1016.99 820.531 1016.41 820.687 1015.9 820.998C1015.38 821.31 1014.97 821.731 1014.66 822.26C1014.36 822.79 1014.21 823.406 1014.21 824.107C1014.21 824.777 1014.36 825.384 1014.66 825.93C1014.95 826.46 1015.36 826.88 1015.87 827.192C1016.4 827.488 1016.99 827.636 1017.65 827.636ZM1031.69 836.47C1030.78 836.47 1029.93 836.315 1029.14 836.003C1028.34 835.676 1027.65 835.216 1027.06 834.624C1026.48 834.016 1026.06 833.307 1025.8 832.497L1027.67 831.703C1027.99 832.56 1028.52 833.23 1029.26 833.713C1030 834.18 1030.81 834.414 1031.69 834.414C1032.4 834.414 1033.03 834.258 1033.58 833.946C1034.14 833.619 1034.58 833.175 1034.89 832.614C1035.2 832.038 1035.36 831.399 1035.36 830.698C1035.36 829.965 1035.19 829.319 1034.86 828.758C1034.55 828.197 1034.12 827.761 1033.58 827.449C1033.03 827.122 1032.41 826.958 1031.71 826.958C1030.99 826.958 1030.34 827.122 1029.75 827.449C1029.15 827.776 1028.73 828.189 1028.46 828.688L1026.61 828.29L1027.95 818.778H1036.97V820.765H1028.81L1029.7 819.877L1028.67 827.262L1027.88 826.795C1028.39 826.14 1028.99 825.673 1029.68 825.392C1030.38 825.096 1031.13 824.948 1031.94 824.948C1033.08 824.948 1034.08 825.205 1034.93 825.719C1035.79 826.234 1036.46 826.919 1036.94 827.776C1037.43 828.633 1037.67 829.607 1037.67 830.698C1037.67 831.788 1037.4 832.77 1036.87 833.642C1036.36 834.515 1035.65 835.208 1034.75 835.723C1033.86 836.221 1032.84 836.47 1031.69 836.47Z" fill="#272727"/>
<path d="M26.516 523.252C25.5928 523.252 24.7398 523.088 23.9568 522.761C23.1739 522.422 22.4961 521.949 21.9235 521.341C21.3509 520.734 20.901 520.021 20.5738 519.203C20.2583 518.385 20.1005 517.491 20.1005 516.521C20.1005 515.539 20.2583 514.639 20.5738 513.821C20.8893 513.003 21.3334 512.291 21.906 511.683C22.4786 511.075 23.1563 510.608 23.9393 510.281C24.7222 509.942 25.5753 509.772 26.4985 509.772C27.3983 509.772 28.2046 509.93 28.9175 510.246C29.642 510.561 30.2496 510.97 30.7404 511.473C31.2429 511.975 31.5994 512.513 31.8097 513.085L30.2672 513.839C29.9633 513.079 29.4901 512.478 28.8473 512.033C28.2046 511.589 27.4217 511.367 26.4985 511.367C25.587 511.367 24.7748 511.584 24.062 512.016C23.3608 512.448 22.8116 513.05 22.4143 513.821C22.017 514.593 21.8183 515.492 21.8183 516.521C21.8183 517.537 22.017 518.431 22.4143 519.203C22.8233 519.974 23.3784 520.576 24.0795 521.008C24.7924 521.441 25.6045 521.657 26.516 521.657C27.3107 521.657 28.0293 521.487 28.6721 521.148C29.3148 520.81 29.8231 520.342 30.1971 519.746C30.571 519.15 30.758 518.461 30.758 517.678V516.871L31.5468 517.608H26.4985V516.118H32.4933V517.275C32.4933 518.186 32.3356 519.01 32.02 519.746C31.7045 520.482 31.2721 521.113 30.7229 521.639C30.1737 522.153 29.5368 522.551 28.8123 522.831C28.0878 523.112 27.3223 523.252 26.516 523.252ZM34.621 523.042V513.594H36.2161V515.329L36.0408 515.083C36.2629 514.546 36.6017 514.149 37.0575 513.892C37.5132 513.623 38.0683 513.488 38.7227 513.488H39.3012V515.031H38.4773C37.8112 515.031 37.2737 515.241 36.8647 515.662C36.4557 516.071 36.2512 516.655 36.2512 517.415V523.042H34.621ZM45.0963 523.252C44.1848 523.252 43.3727 523.036 42.6598 522.603C41.947 522.171 41.3861 521.581 40.9771 520.833C40.5681 520.073 40.3636 519.226 40.3636 518.291C40.3636 517.345 40.5622 516.503 40.9596 515.767C41.3686 515.031 41.9178 514.452 42.6073 514.032C43.3084 513.599 44.0914 513.383 44.9561 513.383C45.6573 513.383 46.2766 513.512 46.8142 513.769C47.3634 514.014 47.825 514.353 48.1989 514.785C48.5846 515.206 48.8767 515.691 49.0754 516.24C49.2857 516.778 49.3909 517.339 49.3909 517.923C49.3909 518.052 49.3792 518.198 49.3558 518.361C49.3441 518.513 49.3266 518.659 49.3032 518.8H41.5555V517.397H48.3567L47.5854 518.028C47.6906 517.421 47.6322 516.877 47.4101 516.398C47.1881 515.919 46.8609 515.539 46.4285 515.259C45.9961 514.978 45.5053 514.838 44.9561 514.838C44.4069 514.838 43.9044 514.978 43.4486 515.259C42.9929 515.539 42.6365 515.942 42.3794 516.468C42.134 516.982 42.0346 517.596 42.0814 518.309C42.0346 518.998 42.1398 519.606 42.3969 520.132C42.6657 520.646 43.0396 521.049 43.5187 521.341C44.0096 521.622 44.5413 521.762 45.1139 521.762C45.7449 521.762 46.2766 521.616 46.709 521.324C47.1414 521.032 47.4919 520.658 47.7607 520.202L49.1279 520.903C48.941 521.335 48.6488 521.733 48.2515 522.095C47.8659 522.446 47.4043 522.726 46.8667 522.936C46.3409 523.147 45.7507 523.252 45.0963 523.252ZM55.8635 523.252C54.952 523.252 54.1398 523.036 53.427 522.603C52.7142 522.171 52.1532 521.581 51.7442 520.833C51.3352 520.073 51.1307 519.226 51.1307 518.291C51.1307 517.345 51.3294 516.503 51.7267 515.767C52.1357 515.031 52.685 514.452 53.3744 514.032C54.0756 513.599 54.8585 513.383 55.7233 513.383C56.4244 513.383 57.0438 513.512 57.5813 513.769C58.1305 514.014 58.5921 514.353 58.9661 514.785C59.3517 515.206 59.6439 515.691 59.8425 516.24C60.0529 516.778 60.158 517.339 60.158 517.923C60.158 518.052 60.1463 518.198 60.123 518.361C60.1113 518.513 60.0938 518.659 60.0704 518.8H52.3227V517.397H59.1238L58.3526 518.028C58.4577 517.421 58.3993 516.877 58.1773 516.398C57.9553 515.919 57.6281 515.539 57.1957 515.259C56.7633 514.978 56.2725 514.838 55.7233 514.838C55.174 514.838 54.6715 514.978 54.2158 515.259C53.76 515.539 53.4036 515.942 53.1465 516.468C52.9011 516.982 52.8018 517.596 52.8486 518.309C52.8018 518.998 52.907 519.606 53.1641 520.132C53.4328 520.646 53.8068 521.049 54.2859 521.341C54.7767 521.622 55.3084 521.762 55.881 521.762C56.5121 521.762 57.0438 521.616 57.4761 521.324C57.9085 521.032 58.2591 520.658 58.5279 520.202L59.8951 520.903C59.7081 521.335 59.416 521.733 59.0187 522.095C58.633 522.446 58.1714 522.726 57.6339 522.936C57.108 523.147 56.5179 523.252 55.8635 523.252ZM62.2835 523.042V513.594H63.8786V515.434L63.6157 515.276C63.8494 514.68 64.2234 514.219 64.7376 513.892C65.2634 513.553 65.8769 513.383 66.5781 513.383C67.2558 513.383 67.8577 513.535 68.3835 513.839C68.9211 514.143 69.3418 514.563 69.6456 515.101C69.9611 515.639 70.1189 516.246 70.1189 516.924V523.042H68.4712V517.45C68.4712 516.924 68.3777 516.48 68.1907 516.118C68.0037 515.755 67.735 515.475 67.3844 515.276C67.0455 515.066 66.654 514.961 66.21 514.961C65.7659 514.961 65.3686 515.066 65.018 515.276C64.6791 515.475 64.4103 515.761 64.2117 516.135C64.013 516.497 63.9137 516.936 63.9137 517.45V523.042H62.2835Z" fill="black"/>
<path d="M21.6956 555.911L22.9343 551.587H20.1297V549.6H23.4952L24.8975 544.786H22.0929V542.799H25.4585L26.6971 538.499H28.9642L27.7255 542.799H32.283L33.5217 538.499H35.8121L34.5734 542.799H37.378V544.786H33.9891L32.6102 549.6H35.4148V551.587H32.0493L30.8106 555.911H28.5201L29.7588 551.587H25.2014L23.9627 555.911H21.6956ZM25.7857 549.6H30.3431L31.7221 544.786H27.1646L25.7857 549.6ZM42.6373 555.911V540.485H39.3419V538.499H44.9511V555.911H42.6373ZM56.9603 555.911V551.891H48.4063V549.998L56.9136 538.499H59.1105V549.998H61.3776V551.891H59.1105V555.911H56.9603ZM50.1358 550.816L49.8086 549.998H56.9603V540.415L57.6381 540.602L50.1358 550.816ZM64.2451 555.911V538.499H75.2766V540.602H66.5356V546.235H74.4586V548.338H66.5356V555.911H64.2451ZM80.0913 555.911V540.485H76.7959V538.499H82.4051V555.911H80.0913ZM87.8468 555.911L93.8534 548.081L94.274 548.128C94.0403 548.44 93.7832 548.689 93.5028 548.876C93.2223 549.047 92.9107 549.172 92.5679 549.25C92.2407 549.328 91.8824 549.367 91.4928 549.367C90.4645 549.367 89.5374 549.133 88.7116 548.665C87.9014 548.182 87.2548 547.528 86.7718 546.702C86.3043 545.861 86.0706 544.903 86.0706 543.828C86.0706 542.752 86.3199 541.794 86.8185 540.953C87.3171 540.111 88.0027 539.449 88.8752 538.966C89.7477 538.468 90.7293 538.218 91.82 538.218C92.9419 538.218 93.9313 538.468 94.7882 538.966C95.6608 539.449 96.3463 540.127 96.8449 541C97.3435 541.856 97.5928 542.846 97.5928 543.968C97.5928 544.575 97.5227 545.175 97.3825 545.767C97.2422 546.359 97.0163 546.959 96.7047 547.567C96.4087 548.175 96.0113 548.806 95.5127 549.46L90.6047 555.911H87.8468ZM91.82 547.357C92.49 547.357 93.0821 547.209 93.5963 546.913C94.126 546.601 94.5389 546.18 94.835 545.65C95.131 545.105 95.279 544.497 95.279 543.828C95.279 543.126 95.1232 542.511 94.8116 541.981C94.5156 541.451 94.1104 541.031 93.5963 540.719C93.0821 540.407 92.49 540.252 91.82 540.252C91.1656 540.252 90.5813 540.407 90.0672 540.719C89.553 541.031 89.1401 541.451 88.8285 541.981C88.5324 542.511 88.3844 543.126 88.3844 543.828C88.3844 544.497 88.5324 545.105 88.8285 545.65C89.1245 546.18 89.5296 546.601 90.0438 546.913C90.5735 547.209 91.1656 547.357 91.82 547.357ZM105.858 556.191C104.954 556.191 104.105 556.035 103.31 555.724C102.516 555.396 101.822 554.937 101.23 554.345C100.654 553.737 100.233 553.028 99.9681 552.218L101.838 551.423C102.165 552.28 102.695 552.95 103.427 553.433C104.175 553.901 104.985 554.134 105.858 554.134C106.575 554.134 107.206 553.979 107.751 553.667C108.312 553.34 108.748 552.896 109.06 552.335C109.371 551.758 109.527 551.119 109.527 550.418C109.527 549.686 109.364 549.039 109.036 548.478C108.725 547.918 108.296 547.481 107.751 547.17C107.206 546.842 106.582 546.679 105.881 546.679C105.164 546.679 104.51 546.842 103.918 547.17C103.326 547.497 102.897 547.91 102.633 548.408L100.786 548.011L102.118 538.499H111.14V540.485H102.983L103.871 539.597L102.843 546.983L102.048 546.515C102.562 545.861 103.162 545.393 103.848 545.113C104.549 544.817 105.305 544.669 106.115 544.669C107.252 544.669 108.249 544.926 109.106 545.44C109.963 545.954 110.633 546.64 111.116 547.497C111.599 548.354 111.841 549.328 111.841 550.418C111.841 551.509 111.576 552.491 111.046 553.363C110.532 554.236 109.823 554.929 108.919 555.443C108.031 555.942 107.011 556.191 105.858 556.191Z" fill="black"/>
</g>
<defs>
<clipPath id="clip0_4206_133732">
<rect width="1079.06" height="1079.06" fill="white" transform="matrix(0 1 -1 0 1079.06 0.081543)"/>
</clipPath>
</defs>
</svg>
