<svg width="1080" height="715" viewBox="0 0 1080 715" fill="none" xmlns="http://www.w3.org/2000/svg">
<g clip-path="url(#clip0_4140_15987)">
<rect width="1079.06" height="714.721" transform="translate(0.0625)" fill="#CECFDA"/>
<g clip-path="url(#clip1_4140_15987)">
<path d="M1111.46 -54.6406H-32.2891V769.36H1111.46V-54.6406Z" fill="white"/>
<path fill-rule="evenodd" clip-rule="evenodd" d="M-35.1641 709.359L6.83594 772.359H-35.1641V709.359Z" fill="#101010"/>
<path fill-rule="evenodd" clip-rule="evenodd" d="M-35.1641 560.359C3.57594 629.145 49.9827 701.632 96.2627 769.359H211.503C123.603 640.349 39.3359 502.071 -35.1641 369.359V560.359Z" fill="#101010"/>
<path fill-rule="evenodd" clip-rule="evenodd" d="M278.483 740.573L341.643 663.177C212.603 457.105 85.2959 245.641 -35.1641 38.3594V216.359C63.3159 388.845 170.803 567.473 278.483 740.573Z" fill="#101010"/>
<path fill-rule="evenodd" clip-rule="evenodd" d="M104.784 -54.6406C213.064 135.933 323.324 325.929 443.924 512.867L389.304 592.365C250.164 382.367 127.564 163.915 5.16406 -54.6406H104.784Z" fill="#101010"/>
<path fill-rule="evenodd" clip-rule="evenodd" d="M461.92 -54.6406C512.12 36.0194 564.259 125.617 619.979 213.255L576.66 288.169C506.58 175.175 440.1 60.7694 376.18 -54.6406H461.92Z" fill="#101010"/>
<path fill-rule="evenodd" clip-rule="evenodd" d="M286.503 -54.6406C364.343 83.6834 444.684 221.457 533.583 357.359L483.184 443.451C385.264 278.025 288.863 111.993 194.023 -54.6406H286.503Z" fill="#101010"/>
<path fill-rule="evenodd" clip-rule="evenodd" d="M799.209 -54.6406L810.069 -35.1626L767.649 7.88137L726.789 -54.6406H799.209Z" fill="#101010"/>
<path fill-rule="evenodd" clip-rule="evenodd" d="M632.184 -54.6406C656.064 -11.0406 681.164 31.8954 710.604 72.4794L669.784 133.049C629.224 70.4874 592.324 7.92337 556.664 -54.6406H632.184Z" fill="#101010"/>
<path fill-rule="evenodd" clip-rule="evenodd" d="M341.648 662.803C362.188 699.909 383.908 735.881 408.168 769.361H497.648C459.448 711.687 420.968 653.063 389.508 592.367L341.648 662.803Z" fill="#101010"/>
<path fill-rule="evenodd" clip-rule="evenodd" d="M483.13 443.477C549.43 552.113 617.99 660.725 687.97 769.361H594.89C542.59 684.295 492.55 598.861 443.93 513.191L483.13 443.477Z" fill="#101010"/>
<path fill-rule="evenodd" clip-rule="evenodd" d="M576.686 288.031L533.586 357.359C610.106 497.225 693.286 634.329 781.466 769.359H875.566C771.946 610.375 671.106 450.039 576.686 288.031Z" fill="#101010"/>
<path fill-rule="evenodd" clip-rule="evenodd" d="M620.07 213.078C727.65 397.82 842.09 582.162 961.95 769.358H1054.15C913.35 560.834 784.15 350.324 669.67 132.734L620.07 213.078Z" fill="#101010"/>
<path fill-rule="evenodd" clip-rule="evenodd" d="M837.057 -54.6406L809.977 -35.8046C909.637 136.097 1009.84 299.529 1111.46 450.259V310.275C1036.98 188.633 962.897 66.9914 897.757 -54.6406H837.057Z" fill="#101010"/>
<path fill-rule="evenodd" clip-rule="evenodd" d="M710.648 72.5248C832.228 290.767 972.204 510.933 1112.84 727.361V583.361C987.804 392.891 870.688 199.563 767.688 7.88281L710.648 72.5248Z" fill="#101010"/>
<path fill-rule="evenodd" clip-rule="evenodd" d="M960.758 -54.6406L1111.46 184.739V25.4054L1054.14 -54.6406H960.758Z" fill="#101010"/>
</g>
</g>
<defs>
<clipPath id="clip0_4140_15987">
<rect width="1079.06" height="714.721" fill="white" transform="translate(0.0625)"/>
</clipPath>
<clipPath id="clip1_4140_15987">
<rect x="-32.2891" y="-54.6406" width="1143.76" height="824.001" rx="60" fill="white"/>
</clipPath>
</defs>
</svg>
