<svg width="1080" height="716" viewBox="0 0 1080 716" fill="none" xmlns="http://www.w3.org/2000/svg">
<g clip-path="url(#clip0_4206_133820)">
<rect width="1079.06" height="714.721" transform="translate(0.0625 0.720703)" fill="#0F2E15"/>
<g clip-path="url(#clip1_4206_133820)">
<rect width="1154" height="1448" transform="translate(-37 -366)" fill="black"/>
<line x1="236.756" y1="1557.05" x2="1744.55" y2="686.528" stroke="white" stroke-opacity="0.8" stroke-width="0.976216"/>
<line x1="136.756" y1="1383.85" x2="1644.55" y2="513.322" stroke="white" stroke-opacity="0.8" stroke-width="0.976216"/>
<line x1="36.7559" y1="1210.64" x2="1544.55" y2="340.117" stroke="white" stroke-opacity="0.8" stroke-width="0.976216"/>
<line x1="-63.2441" y1="1037.44" x2="1444.55" y2="166.913" stroke="white" stroke-opacity="0.8" stroke-width="0.976216"/>
<line x1="-163.244" y1="864.234" x2="1344.55" y2="-6.29178" stroke="white" stroke-opacity="0.8" stroke-width="0.976216"/>
<line x1="-263.244" y1="691.029" x2="1244.55" y2="-179.497" stroke="white" stroke-opacity="0.8" stroke-width="0.976216"/>
<line x1="-363.244" y1="517.824" x2="1144.55" y2="-352.702" stroke="white" stroke-opacity="0.8" stroke-width="0.976216"/>
<line x1="-463.244" y1="344.619" x2="1044.55" y2="-525.907" stroke="white" stroke-opacity="0.8" stroke-width="0.976216"/>
<line x1="-563.244" y1="171.414" x2="944.551" y2="-699.112" stroke="white" stroke-opacity="0.8" stroke-width="0.976216"/>
<line y1="-0.488108" x2="1741.05" y2="-0.488108" transform="matrix(-0.866025 -0.5 -0.5 0.866025 863.359 1422.02)" stroke="white" stroke-opacity="0.8" stroke-width="0.976216"/>
<line y1="-0.488108" x2="1741.05" y2="-0.488108" transform="matrix(-0.866025 -0.5 -0.5 0.866025 963.359 1248.81)" stroke="white" stroke-opacity="0.8" stroke-width="0.976216"/>
<line y1="-0.488108" x2="1741.05" y2="-0.488108" transform="matrix(-0.866025 -0.5 -0.5 0.866025 1063.36 1075.61)" stroke="white" stroke-opacity="0.8" stroke-width="0.976216"/>
<line y1="-0.488108" x2="1741.05" y2="-0.488108" transform="matrix(-0.866025 -0.5 -0.5 0.866025 1163.36 902.404)" stroke="white" stroke-opacity="0.8" stroke-width="0.976216"/>
<line y1="-0.488108" x2="1741.05" y2="-0.488108" transform="matrix(-0.866025 -0.5 -0.5 0.866025 1263.36 729.199)" stroke="white" stroke-opacity="0.8" stroke-width="0.976216"/>
<line y1="-0.488108" x2="1741.05" y2="-0.488108" transform="matrix(-0.866025 -0.5 -0.5 0.866025 1363.36 555.994)" stroke="white" stroke-opacity="0.8" stroke-width="0.976216"/>
<line y1="-0.488108" x2="1741.05" y2="-0.488108" transform="matrix(-0.866025 -0.5 -0.5 0.866025 1463.36 382.789)" stroke="white" stroke-opacity="0.8" stroke-width="0.976216"/>
<line y1="-0.488108" x2="1741.05" y2="-0.488108" transform="matrix(-0.866025 -0.5 -0.5 0.866025 1563.36 209.583)" stroke="white" stroke-opacity="0.8" stroke-width="0.976216"/>
<line y1="-0.488108" x2="1741.05" y2="-0.488108" transform="matrix(-0.866025 -0.5 -0.5 0.866025 1663.36 36.3784)" stroke="white" stroke-opacity="0.8" stroke-width="0.976216"/>
</g>
<rect x="176.497" y="208.79" width="726.197" height="298.583" rx="149.292" fill="#101010"/>
<rect x="176.497" y="208.79" width="726.197" height="298.583" rx="149.292" stroke="white" stroke-width="5.00888"/>
<path d="M383.066 277.685C383.066 277.685 346.918 271.005 350.583 299.121C350.961 302.019 353.258 304.325 354.612 306.918C356.529 310.58 356.371 310.572 358.21 314.272C359.473 316.811 360.106 319.537 360.04 322.41C359.947 326.391 357.414 329.567 353.627 330.319C351.15 330.811 348.79 330.266 346.495 329.369C343.553 328.218 341.084 326.357 338.852 324.157C336.797 322.132 334.561 320.346 331.946 319.087C327.599 316.993 323.237 317.202 318.86 319.02C316.099 320.167 313.621 321.797 311.174 323.476C305.469 327.389 300.073 331.686 295.079 336.48C287.869 343.403 281.703 351.146 276.744 359.835C272.805 366.735 269.712 373.993 267.495 381.62C266.29 385.764 265.495 389.99 265 394.277C264.545 398.211 264.313 402.155 264.428 406.114C264.541 410.026 266.076 412.055 269.817 413.167C272.739 414.037 275.74 414.277 278.786 414.157C284.416 413.937 290.096 413.244 295.105 410.784C343.236 387.146 342.31 295.489 283.886 366.637C280.461 370.808 271.991 389.839 271.991 389.839C271.991 389.839 275.655 374.969 277.57 370.59C281.33 361.998 285.471 353.76 291.538 346.65C297.725 339.4 304.774 333.097 312.653 327.735C315.5 325.799 318.622 324.463 322.052 323.987C326.143 323.419 330 324.198 333.609 326.199C337.778 328.51 341.021 331.844 343.857 335.599C348.145 341.28 350.859 347.659 351.911 354.692C353.538 365.565 351.359 375.646 345.296 384.846C339.626 393.449 334.555 399.371 326.052 405.234C320.249 409.239 313.947 412.23 307.346 414.655C302.114 416.576 296.893 418.52 291.462 419.829C287.535 420.773 283.57 421.413 279.524 421.587C275.688 421.752 271.897 421.572 268.19 420.504C261.774 418.652 258.103 414.349 256.974 407.822C256.424 404.641 256.538 401.447 256.829 398.247C257.298 393.082 258.139 387.983 259.35 382.944C262.368 370.4 267.624 358.867 274.987 348.28C280.395 340.506 286.795 333.625 293.749 327.231C297.248 324.014 300.801 320.869 304.683 318.115C308.353 315.51 312.162 313.133 316.417 311.588C323.428 309.042 330.165 309.842 336.665 313.349C339.805 315.045 342.504 317.335 345.244 319.581C346.495 320.605 347.86 321.491 349.197 322.405C349.583 322.669 350.037 322.854 350.483 323.003C351.642 323.385 352.736 322.652 352.65 321.431C352.574 320.364 352.4 319.242 351.975 318.273C351.145 316.377 350.141 314.553 349.15 312.733C347.003 308.791 346.882 308.547 344.811 304.566C343.05 301.179 341.927 297.55 341.434 293.751C340.551 286.935 341.839 280.572 345.47 274.708C347.139 272.01 349.089 269.566 351.732 267.742C355.15 265.382 358.933 264.226 363.083 264.459C366.979 264.677 370.432 266.104 373.389 268.652C381.889 275.976 405.607 276.608 405.607 276.608C405.607 276.608 373.408 287.074 370.692 289.126C368.371 290.88 366.836 293.116 366.513 296.086C366.268 298.342 366.712 300.494 367.437 302.603C368.446 305.535 369.999 308.206 371.459 310.923C373.227 314.214 375.106 317.452 376.704 320.823C379.002 325.673 380.409 330.811 381.074 336.151C381.436 339.05 381.521 341.953 381.37 344.856C381.055 350.889 379.629 356.682 377.387 362.285C374.489 369.529 370.297 376.01 365.692 382.25C360.512 389.268 354.782 395.816 348.672 402.034C345.374 405.392 341.956 408.634 338.626 411.964C332.862 417.728 331.051 423.059 330.117 426.98C327.03 439.945 335.428 451.733 335.428 451.733C335.428 451.733 321.194 441.007 324.675 421.895C325.064 419.753 327.958 413.434 330.888 409.708C333.566 406.3 336.517 403.411 339.569 400.335C345.187 394.67 350.675 388.886 355.734 382.71C359.785 377.763 363.67 372.691 366.839 367.115C369.954 361.633 372.117 355.803 373.087 349.561C373.703 345.597 373.778 341.615 373.381 337.619C372.733 331.093 370.884 324.901 368.065 319.015C366.513 315.773 364.708 312.652 362.998 309.487C361.421 306.572 360.024 303.592 359.436 300.293C358.162 293.154 360.539 287.476 366.286 283.143C373.112 277.996 382.51 277.977 383.066 277.685Z" fill="#14F195"/>
<path d="M465.647 299.562C478.76 299.562 489.662 302.88 498.193 309.831C506.409 316.467 511.465 325.631 513.203 337.006H496.456C494.56 329.423 490.926 323.735 485.554 320.101C480.182 316.467 473.547 314.729 465.331 314.729C453.165 314.729 444.002 318.837 437.84 327.211C431.994 334.794 429.15 345.222 429.15 358.335C429.15 371.923 431.994 382.35 437.682 389.776C443.686 397.676 453.007 401.626 465.647 401.626C473.863 401.626 480.814 399.572 486.186 395.464C491.874 391.04 495.824 384.404 498.035 375.557H514.783C512.255 388.67 506.409 398.94 497.088 406.365C488.398 413.317 477.97 416.793 465.805 416.793C447.32 416.793 433.416 410.789 424.095 399.098C415.879 388.986 411.929 375.399 411.929 358.335C411.929 341.588 416.037 328.001 424.569 317.415C434.048 305.408 447.636 299.562 465.647 299.562ZM561.461 330.687C565.569 330.687 569.203 331.319 572.047 332.74V349.488C567.939 348.224 563.989 347.75 560.197 347.75C555.141 347.75 550.56 349.804 546.61 353.912C542.344 358.335 540.29 364.181 540.29 371.291V414.581H523.543V332.898H540.29V345.222C542.344 340.798 545.03 337.48 548.19 335.268C551.982 332.109 556.405 330.687 561.461 330.687ZM612.03 330.687C624.038 330.687 632.885 333.688 638.573 339.692C643.471 344.906 645.999 352.49 645.999 362.443V414.581H630.515V403.048C627.356 407.155 623.406 410.473 618.666 412.843C613.294 415.371 606.974 416.793 599.707 416.793C591.175 416.793 584.539 414.581 579.8 410.315C574.586 406.049 572.058 400.52 572.058 393.726C572.058 384.562 575.692 377.453 582.959 372.555C589.595 367.815 599.075 365.445 611.082 365.129L629.409 364.655V361.337C629.409 349.962 623.248 344.274 610.924 344.274C605.71 344.274 601.445 345.222 598.285 347.118C594.493 349.33 592.123 352.648 591.175 357.229L574.586 355.808C576.324 346.96 580.747 340.324 587.699 336.216C593.703 332.424 601.919 330.687 612.03 330.687ZM629.409 376.821L612.188 377.295C596.863 377.611 589.279 382.982 589.279 393.094C589.279 396.254 590.543 398.782 593.229 400.836C595.757 402.89 599.233 403.995 603.499 403.995C610.608 403.995 616.612 401.784 621.668 397.518C626.724 393.252 629.409 387.88 629.409 381.56V376.821ZM699.454 330.687C719.677 330.687 729.946 341.746 729.946 364.181V414.581H713.199V365.603C713.199 351.7 706.721 344.748 694.082 344.748C689.342 344.748 685.076 346.328 681.6 349.804C677.808 353.596 675.439 358.809 674.807 365.445V414.581H658.059V332.898H674.807V343.01C677.966 338.902 681.6 335.9 685.708 333.846C689.816 331.635 694.398 330.687 699.454 330.687ZM776.581 330.687C789.853 330.687 800.123 335.11 807.074 344.274C813.394 352.49 816.712 363.865 816.87 378.401H754.936C755.568 386.3 757.622 392.462 761.414 396.728C765.206 400.836 770.42 403.048 777.055 403.048C782.901 403.048 787.641 401.626 791.275 398.94C794.119 396.728 796.489 393.094 798.701 388.354H815.448C813.552 395.938 809.918 402.416 804.23 407.471C797.121 413.633 788.115 416.793 777.213 416.793C765.206 416.793 755.568 413.001 748.617 405.575C741.033 397.676 737.241 387.09 737.241 373.661C737.241 361.495 740.717 351.384 747.985 343.168C754.936 334.794 764.574 330.687 776.581 330.687ZM777.055 344.432C770.736 344.432 765.838 346.17 762.046 349.962C758.57 353.596 756.2 358.809 755.252 365.761H799.333C797.753 351.542 790.327 344.432 777.055 344.432Z" fill="white"/>
</g>
<defs>
<clipPath id="clip0_4206_133820">
<rect width="1079.06" height="714.721" fill="white" transform="translate(0.0625 0.720703)"/>
</clipPath>
<clipPath id="clip1_4206_133820">
<rect width="1154" height="1448" fill="white" transform="translate(-37 -366)"/>
</clipPath>
</defs>
</svg>
