<svg width="1080" height="716" viewBox="0 0 1080 716" fill="none" xmlns="http://www.w3.org/2000/svg">
<g clip-path="url(#clip0_4206_134729)">
<rect width="1079.06" height="714.721" transform="translate(0.875 0.958984)" fill="#4E4E4E"/>
<g clip-path="url(#clip1_4206_134729)">
<rect width="1184.99" height="784.883" transform="translate(0.875 -69.2031)" fill="#101010"/>
<g clip-path="url(#clip2_4206_134729)">
<rect width="1098.17" height="2806.92" transform="translate(0.875 -69.2031)" fill="#191919"/>
<path d="M0.875 279.157C0.875 513.977 1.19958 636.302 1.95694 636.302C2.6061 636.302 3.14707 619.482 3.36346 589.556L3.57985 542.92L3.90443 589.556L4.12081 636.302H13.1009C21.54 636.302 22.5138 636.083 28.5726 632.261C35.7134 627.892 41.4477 624.506 113.397 582.785C124.432 576.341 141.743 566.293 151.805 560.395C161.976 554.497 174.093 547.398 178.854 544.668L187.509 539.644L187.942 567.603C188.158 583.003 187.942 598.185 187.509 601.243L186.752 606.922L173.661 614.677C166.412 618.936 155.592 625.489 149.75 629.093L139.038 635.756L172.47 636.083L205.902 636.302L217.263 629.421C223.538 625.598 235.439 618.499 243.77 613.694C252.101 608.779 266.491 600.478 275.687 595.127C284.884 589.775 297.11 582.676 302.736 579.508C308.362 576.341 318.857 570.115 325.997 565.856C340.712 556.9 369.383 540.19 370.032 540.19C370.681 540.19 371.006 599.932 370.357 603.646C369.708 607.031 368.518 608.014 358.347 613.912C352.18 617.516 341.361 624.069 334.328 628.438L321.67 636.411L356.292 636.083L390.914 635.756L399.569 630.186C404.33 627.128 413.634 621.448 420.126 617.735C440.791 605.83 445.552 603.099 469.354 589.12C482.121 581.583 496.511 573.283 501.271 570.552C506.032 567.822 519.664 559.849 531.566 552.859L553.204 540.19L553.529 573.174C553.745 598.622 553.421 606.485 552.447 607.468C551.69 608.233 543.467 613.148 534.27 618.609C525.074 623.96 514.579 630.186 511.009 632.37L504.517 636.411L539.68 636.083L574.843 635.756L584.04 629.64C589.125 626.254 609.032 614.458 628.399 603.318C647.766 592.068 672.109 577.979 682.496 571.863C692.883 565.747 707.056 557.555 713.872 553.623C720.688 549.692 728.695 545.104 731.508 543.357C734.429 541.609 736.917 540.19 737.242 540.19C737.458 540.19 737.567 555.262 737.458 573.72L737.134 607.25L725.774 613.803C719.498 617.407 708.571 623.851 701.538 628.329L688.663 636.302H721.879C758.448 636.302 757.042 636.52 768.51 628.657C770.89 627.018 788.634 616.643 808.001 605.502C827.367 594.362 850.954 580.6 860.475 575.03C869.996 569.46 882.763 562.143 888.822 558.648C894.989 555.153 901.264 551.439 902.887 550.238C905.916 548.163 919.981 540.19 920.739 540.19C921.28 540.19 921.063 606.594 920.522 607.031C920.198 607.25 914.68 610.636 908.08 614.458C892.067 623.633 885.468 627.564 877.894 632.37L871.402 636.302H905.483H939.673L948.761 630.623C953.738 627.564 966.397 620.138 976.783 614.24C1009.13 595.563 1042.46 576.122 1080.65 553.405C1089.85 547.944 1097.74 543.357 1098.18 543.248C1098.72 543.029 1098.93 518.783 1098.83 489.294L1098.5 435.558L1071.99 450.849C1057.39 459.368 1042.78 467.778 1039.54 469.744C1036.29 471.71 1022.44 479.792 1008.7 487.765C995.068 495.738 977.757 505.786 970.292 510.155C962.826 514.523 953.089 520.203 948.653 522.715C944.217 525.336 936.535 529.814 931.666 532.654C926.798 535.602 922.578 538.005 922.253 538.005C921.821 538.005 921.712 522.933 921.821 504.475L922.145 470.836L950.817 454.235C966.613 445.06 983.167 435.34 987.603 432.719C992.038 430.207 1007.19 421.36 1021.14 413.278C1035.1 405.195 1054.36 393.946 1063.88 388.157C1073.4 382.478 1085.09 375.597 1089.85 372.976L1098.5 368.061L1098.83 314.326L1099.04 260.59L1093.42 263.43C1090.28 265.068 1085.95 267.471 1083.9 268.782C1079.46 271.621 1053.93 286.584 1043.86 292.264C1039.97 294.448 1030.23 300.127 1022.22 304.824C1005.89 314.326 962.393 339.774 939.997 352.771C931.991 357.467 924.958 361.727 924.417 362.273C923.768 362.819 922.903 363.256 922.47 363.256C922.037 363.256 921.604 348.293 921.604 329.944V296.632L925.716 294.12C929.611 291.608 952.981 277.847 994.094 254.037C1035.97 229.681 1064.31 213.08 1075.24 206.527C1081.51 202.704 1089.3 198.226 1092.55 196.588L1098.5 193.421L1098.83 139.576C1098.93 109.869 1098.72 85.8405 1098.28 86.0589C1096.55 86.7142 1081.95 95.1241 1069.83 102.223C1063.01 106.264 1052.74 112.162 1047.11 115.329C1041.48 118.497 1026.88 127.016 1014.65 134.224C1002.43 141.433 978.406 155.522 961.095 165.57C943.892 175.509 927.88 184.902 925.607 186.212L921.604 188.724V154.976V121.118L936.535 112.599C944.65 107.903 955.253 101.786 960.013 98.9467C964.774 96.107 983.816 85.076 1002.21 74.3725C1020.71 63.6691 1039.64 52.638 1044.4 49.7984C1049.16 46.9587 1063.45 38.6581 1076 31.2312L1099.04 17.9066V-30.0404V-77.9873H1088.44C1078.16 -77.9873 1077.62 -77.8781 1071.34 -74.0555C1058.25 -65.9733 1030.56 -49.5905 1009.78 -37.7949C1005.02 -35.0644 997.989 -31.0234 994.094 -28.839C990.199 -26.6546 972.564 -16.3881 954.928 -6.12153C937.292 4.25424 922.47 12.6641 922.145 12.6641C921.821 12.6641 921.604 -2.18966 921.604 -20.4292V-53.5224L927.339 -57.1266C930.368 -59.0925 939.564 -64.5534 947.571 -69.3591L962.177 -77.9873H928.312H894.448L877.461 -67.7208C868.157 -62.0414 852.252 -52.6486 842.082 -46.86C800.319 -22.7227 792.962 -18.4632 784.739 -13.5484C754.661 4.25424 740.163 12.6641 739.514 12.6641C738.432 12.6641 737.458 -24.7979 738.216 -38.7779L738.973 -53.9592L758.448 -65.7548L777.815 -77.4412L744.058 -77.7689L710.41 -77.9873L700.997 -72.1987C683.578 -61.1677 666.7 -51.338 627.317 -28.839C617.688 -23.2688 603.515 -15.0774 578.738 -0.55138C567.27 6.22017 557.099 12.0088 556.342 12.3364C555.044 12.7733 554.827 7.31236 554.827 -19.9923V-52.8671L562.942 -58.1095C567.378 -60.9492 576.25 -66.4102 582.525 -70.342L593.993 -77.4412L560.453 -77.7689L526.913 -77.9873L512.415 -69.0314C504.517 -64.1166 491.426 -56.3621 483.419 -51.7749C475.413 -47.1877 462.754 -39.8701 455.289 -35.5013C447.824 -31.1326 426.942 -18.9001 408.766 -8.41511C390.589 2.06987 375.334 11.135 374.685 11.6811C374.144 12.2272 373.062 12.6641 372.304 12.6641C371.222 12.6641 370.898 6.00173 370.898 -20.1015V-52.8671L378.904 -58.1095C383.34 -60.9492 392.537 -66.4102 399.245 -70.342L411.47 -77.4412L377.606 -77.7689C340.063 -78.0965 343.417 -78.6426 330.001 -69.9052C325.997 -67.2839 313.555 -59.7478 302.195 -53.1947C290.943 -46.6416 264.652 -31.2418 243.77 -19.0093C199.735 6.87548 189.565 12.6641 188.699 12.6641C188.375 12.6641 188.05 -2.18966 188.05 -20.4292V-53.5224L201.899 -61.6045C209.473 -66.0825 218.561 -71.5434 222.023 -73.837L228.407 -77.9873H194.001H159.595L150.291 -72.1987C139.904 -65.6456 127.786 -58.4372 111.774 -49.0444C105.823 -45.6586 92.9479 -38.1226 83.1023 -32.334C73.2567 -26.6546 61.5717 -19.8831 57.1358 -17.371C49.6704 -13.1115 28.6808 -0.769817 11.6944 9.49673C7.7994 11.7903 4.3372 13.7562 3.90443 13.7562C3.36346 13.7562 3.03888 -1.53435 3.03888 -20.1015C3.03888 -38.7779 3.36346 -53.9592 3.90443 -53.9592C4.3372 -53.9592 13.9665 -59.4202 25.2186 -65.9733L45.7754 -77.9873H23.3793H0.875V279.157ZM187.834 46.8495C187.942 64.9797 187.726 80.3796 187.293 81.0349C186.211 82.4547 153.104 102.114 105.823 129.528C97.1675 134.443 85.8071 141.105 80.3974 144.272C75.096 147.44 65.7913 152.901 59.8406 156.286C53.89 159.781 44.3689 165.352 38.7428 168.628C33.1168 171.905 24.1367 177.038 18.727 180.096C13.3173 183.154 8.01579 186.431 6.71747 187.632C5.52733 188.724 4.22901 189.598 3.79623 189.598C3.36346 189.598 3.14707 174.307 3.25526 155.631L3.57985 121.664L16.0221 114.565C22.8383 110.633 33.5495 104.408 39.8248 100.694C46.1 96.8716 54.1064 92.2844 57.6767 90.3184C61.2471 88.3525 77.8008 78.7413 94.4626 68.9116C111.124 59.1912 137.632 43.6821 153.428 34.5078C176.365 21.1831 187.509 14.4116 187.509 13.7562C187.509 13.7562 187.618 28.61 187.834 46.8495ZM370.79 44.2282C371.006 60.2833 370.79 75.4647 370.465 77.8675C369.708 82.1271 369.383 82.3455 351.748 92.9397C326.647 108.012 253.075 150.716 211.312 174.526C202.981 179.332 194.866 184.137 193.244 185.339C191.621 186.431 189.781 187.414 189.132 187.414C188.375 187.414 188.05 176.492 188.05 154.211V121.009L197.571 115.766C202.765 112.927 214.558 106.046 223.754 100.585C232.951 95.0148 253.94 82.7824 270.278 73.2804C286.615 63.7783 308.362 51.109 318.424 45.102C339.522 32.6511 341.036 31.7773 357.915 22.0569C364.731 18.125 370.357 14.8484 370.357 14.8484C370.357 14.8484 370.573 28.0639 370.79 44.2282ZM552.555 82.1271C551.906 82.8916 547.687 85.7313 543.142 88.3525C517.609 103.097 488.937 119.807 478.01 126.251C471.193 130.292 459.292 137.282 451.502 141.76C434.516 151.699 419.801 160.218 406.061 168.3C400.435 171.577 391.022 177.038 385.179 180.424C379.445 183.81 374.252 186.977 373.711 187.523C373.062 188.069 372.196 188.506 371.763 188.506C371.331 188.506 370.898 173.434 370.898 154.867V121.337L385.829 112.708C393.943 108.012 406.71 100.476 414.175 96.107C421.641 91.7383 438.952 81.6902 452.584 73.8264C491.318 51.3274 518.15 35.7092 536.434 25.0058L553.204 15.0669L553.529 47.8324C553.637 70.5499 553.421 81.1441 552.555 82.1271ZM737.675 48.1601V81.4717L733.672 84.093C726.855 88.3525 656.421 129.637 637.596 140.231C632.835 142.853 628.507 145.474 627.858 145.911C626.776 146.784 604.488 159.781 588.908 168.628C584.148 171.249 579.063 174.307 577.548 175.29C574.41 177.475 556.234 187.414 555.368 187.414C555.044 187.414 554.827 172.451 554.827 154.102V120.79L559.48 118.497C561.968 117.186 572.787 110.961 583.499 104.626C626.776 79.1782 636.297 73.608 657.611 61.2663C682.388 46.8495 713.007 28.9376 726.855 20.5278C731.941 17.5789 736.377 14.9577 736.917 14.9577C737.35 14.8484 737.675 29.8114 737.675 48.1601ZM921.388 41.9346C921.604 56.7884 921.496 71.9697 921.063 75.6832L920.306 82.4547L904.51 91.6291C890.661 99.7112 855.931 119.917 823.148 139.139C817.522 142.416 807.46 148.204 800.86 151.918C794.26 155.74 786.903 160 784.631 161.42C782.251 162.949 772.405 168.737 762.559 174.307C752.714 179.878 743.409 185.339 741.894 186.431L738.973 188.506L738.54 177.802C738.324 172.014 738.324 156.723 738.54 144.054L738.973 120.79L743.517 118.278C747.845 115.766 770.674 102.442 798.804 86.0589C806.594 81.4717 818.496 74.591 825.312 70.5499C869.779 44.7743 911.001 20.637 915.113 18.0158C917.818 16.3775 920.198 14.9577 920.522 14.9577C920.847 14.8484 921.172 26.9717 921.388 41.9346ZM3.79623 90.5369C3.68804 103.206 3.57985 92.8305 3.57985 67.2733C3.57985 41.7162 3.68804 31.3404 3.79623 44.0098C4.01262 56.7884 4.01262 77.7583 3.79623 90.5369ZM188.05 222.91V256.221L182.208 260.044C178.962 262.119 176.041 263.867 175.824 263.867C175.392 263.867 168.251 268.017 136.658 286.584C128.976 291.062 115.993 298.598 107.987 303.185C99.9805 307.773 88.512 314.326 82.5613 317.93C76.6107 321.425 66.6568 327.323 60.3816 331.036C54.1064 334.75 43.9361 340.647 37.6609 344.142C31.3857 347.637 24.1367 351.788 21.4318 353.426C18.727 355.064 13.5337 358.232 9.85509 360.307L3.14707 364.239L3.36346 278.284C3.47165 223.237 3.68804 210.896 3.90443 243.88C4.01262 272.277 4.4454 295.54 4.76998 295.54C5.31095 295.54 67.847 259.716 85.8071 249.122C91.2168 245.955 101.603 239.839 109.069 235.47C116.534 231.101 125.731 225.749 129.626 223.456C133.521 221.162 145.638 214.063 156.674 207.619C167.71 201.175 178.854 194.513 181.559 192.875C184.264 191.127 186.752 189.707 187.185 189.707C187.618 189.598 187.942 204.561 188.05 222.91ZM921.063 223.128L921.821 256.112L916.844 259.17C914.139 260.809 907.215 264.959 901.372 268.345C895.53 271.73 881.789 279.813 870.753 286.257C859.717 292.81 842.731 302.748 832.885 308.428C823.04 314.107 808.758 322.517 800.968 326.995C793.286 331.582 783.549 337.152 779.329 339.555C771.107 344.252 750.442 356.593 743.95 360.744C741.678 362.054 739.731 363.256 739.514 363.256C738.54 363.256 737.891 319.35 738.54 307.882L739.298 295.54L762.559 282.106C775.326 274.679 796.749 262.228 810.165 254.474C823.581 246.61 838.62 237.873 843.705 234.924C848.79 231.975 856.796 227.388 861.557 224.548C886.333 210.022 905.592 198.554 912.408 194.513C916.627 192.001 920.09 190.035 920.09 190.035C920.198 190.144 920.631 204.998 921.063 223.128ZM370.898 223.456V256.221L366.895 258.843C364.623 260.262 355.534 265.723 346.554 270.966C337.682 276.318 326.43 282.871 321.67 285.71C316.909 288.55 305.441 295.103 296.244 300.455C287.048 305.697 275.579 312.36 270.819 315.199C240.741 333.111 190.214 362.163 189.024 362.163C188.483 362.163 188.05 348.183 188.05 329.07V295.868L193.785 292.81C196.814 291.171 208.174 284.509 218.886 278.284C229.597 271.949 241.498 264.959 245.393 262.775C249.288 260.59 257.078 256.112 262.704 252.726C268.33 249.341 279.799 242.678 288.13 237.873C296.46 233.067 310.309 224.985 318.965 219.961C327.62 214.828 340.063 207.619 346.554 203.797C353.154 199.974 360.619 195.496 363.324 193.858C366.029 192.219 368.842 190.799 369.599 190.799C370.573 190.69 370.898 197.899 370.898 223.456ZM553.745 223.893V257.095L542.71 263.648C525.182 273.915 435.814 325.903 406.602 342.722C391.996 351.242 378.255 359.214 376.091 360.634C373.819 362.054 371.763 363.256 371.439 363.256C371.114 363.256 370.898 348.183 370.898 329.616V296.086L389.074 285.82C399.028 280.14 411.038 273.15 415.798 270.42C420.559 267.58 432.785 260.481 442.847 254.583C459.509 244.753 469.787 238.746 513.605 213.299C541.519 197.025 552.122 190.909 552.988 190.799C553.421 190.69 553.745 205.653 553.745 223.893ZM737.675 223.237C737.675 252.945 737.458 256.003 735.836 257.532C734.754 258.515 729.019 262.119 723.069 265.505C717.118 269 705.974 275.553 698.184 280.031C654.582 305.37 654.798 305.261 619.744 325.794C610.547 331.145 593.236 341.084 581.335 347.965C569.433 354.737 558.614 361.071 557.316 361.945L554.827 363.474V329.507V295.54L559.48 293.246C565.322 290.188 594.21 273.696 604.055 267.689C608.275 265.177 618.662 259.061 627.317 254.037C635.973 249.013 648.631 241.695 655.448 237.654C662.264 233.613 681.522 222.254 698.184 212.534C714.846 202.704 729.993 193.858 731.724 192.765C737.891 188.943 737.675 187.96 737.675 223.237ZM187.077 429.988C186.536 431.517 183.29 434.248 179.828 436.323C176.257 438.398 170.523 441.784 166.952 443.968C163.382 446.043 156.782 449.866 152.346 452.269C147.91 454.781 136.009 461.661 125.839 467.668C115.777 473.676 100.413 482.631 91.7578 487.655C72.2829 498.905 63.3028 504.257 31.0611 523.042C17.1041 531.234 4.98636 538.005 4.3372 538.005C3.36346 538.005 3.03888 528.94 3.14707 502.182C3.25526 482.522 3.47165 467.341 3.79623 468.324C4.01262 469.416 4.66178 470.29 5.09456 470.29C5.85192 470.29 33.4413 454.453 85.8071 423.872C100.089 415.571 113.938 407.489 116.642 406.069C119.347 404.54 128.111 399.407 136.117 394.601C158.946 380.949 169.549 374.833 178.854 369.372L187.509 364.457L187.834 395.912C187.942 413.278 187.618 428.677 187.077 429.988ZM370.79 398.642L371.114 431.845L365.921 434.903C363 436.541 356.292 440.473 350.882 443.531C345.58 446.699 336.492 451.941 330.866 455.218C325.24 458.494 315.719 464.064 309.768 467.559C293.323 477.171 264.868 493.772 249.721 502.509C242.255 506.769 231.869 512.885 226.459 516.052C221.158 519.22 211.853 524.571 205.902 527.957C199.952 531.234 193.785 534.838 192.27 535.93C190.755 537.022 189.132 537.678 188.699 537.241C188.375 536.913 188.05 521.732 188.05 503.711V470.836L200.817 463.627C221.374 451.941 236.305 443.313 252.426 433.702C260.757 428.787 276.336 419.722 287.048 413.496C297.759 407.271 316.801 396.24 329.243 388.922C357.049 372.539 369.059 365.549 369.816 365.549C370.14 365.44 370.573 380.403 370.79 398.642ZM553.529 398.861L553.204 432.391L540.221 439.927C533.08 444.187 524.1 449.429 520.205 451.723C516.31 454.016 505.599 460.351 496.403 465.703C487.206 471.054 476.495 477.28 472.6 479.573C462.971 485.253 452.043 491.587 441.548 497.485C436.571 500.216 424.237 507.533 413.959 513.54C403.681 519.657 391.887 526.537 387.668 528.831C383.556 531.124 378.363 534.073 376.308 535.493C374.252 536.913 372.196 538.005 371.763 538.005C371.222 538.005 370.898 523.042 370.898 504.803C370.898 479.573 371.222 471.382 372.304 470.508C372.954 469.962 379.229 466.249 386.045 462.426C392.861 458.494 403.356 452.487 409.307 448.992C415.257 445.497 433.326 435.121 449.338 425.729C497.16 398.096 513.497 388.594 528.32 379.638C547.47 368.17 552.014 365.549 552.988 365.44C553.421 365.44 553.637 380.512 553.529 398.861ZM737.675 395.912C737.675 412.622 737.35 427.695 737.026 429.442C736.377 432.937 737.35 432.282 710.085 448.009C686.175 461.88 668.431 472.256 653.825 480.884C646.684 485.143 635.215 491.697 628.399 495.628C621.583 499.56 608.167 507.315 598.646 512.885C589.125 518.455 577.007 525.445 571.597 528.503C566.296 531.452 560.562 534.838 558.939 535.93C557.424 537.131 555.801 538.005 555.476 538.005C555.152 538.005 554.827 522.933 554.827 504.366V470.836L570.84 461.771C606.436 441.565 662.913 408.69 709.003 381.386C735.727 365.658 735.944 365.44 736.917 365.44C737.35 365.44 737.675 379.092 737.675 395.912ZM920.739 391.871C920.955 406.506 920.955 421.578 920.739 425.51L920.306 432.609L908.946 439.162C902.562 442.767 894.015 447.681 889.795 450.194C885.576 452.706 863.18 465.703 839.918 479.246C816.765 492.68 792.854 506.66 786.903 510.045C780.952 513.54 771.756 519.001 766.346 522.169C746.222 533.964 741.029 536.913 740.055 536.913C738.865 536.913 737.675 509.608 738.216 494.318C738.324 488.638 738.54 480.884 738.649 477.171L738.757 470.399L746.114 466.358C750.117 464.173 759.422 458.822 766.887 454.453C786.795 442.767 814.384 426.821 838.295 412.95C862.855 398.752 896.503 378.983 909.703 371.119C914.788 368.061 919.224 365.549 919.657 365.549C920.09 365.44 920.631 377.345 920.739 391.871ZM3.79623 426.93C3.68804 437.852 3.57985 428.896 3.57985 406.943C3.57985 384.99 3.68804 376.034 3.79623 387.065C4.01262 397.987 4.01262 415.899 3.79623 426.93ZM3.79623 460.132C3.57985 462.426 3.36346 460.569 3.36346 456.091C3.36346 451.613 3.57985 449.757 3.79623 451.941C4.01262 454.235 4.01262 457.948 3.79623 460.132Z" fill="#101010"/>
<path d="M1089.31 615.878C1084.22 618.827 1074.59 624.506 1067.99 628.547L1055.77 635.756L1077.08 636.084C1088.76 636.193 1098.5 636.193 1098.72 635.974C1098.93 635.647 1098.93 629.858 1098.83 622.977L1098.5 610.526L1089.31 615.878Z" fill="#101010"/>
<path d="M0.875 979.788C0.875 1214.61 1.19958 1336.93 1.95694 1336.93C2.6061 1336.93 3.14707 1320.11 3.36346 1290.19L3.57985 1243.55L3.90443 1290.19L4.12081 1336.93H13.1009C21.54 1336.93 22.5138 1336.71 28.5726 1332.89C35.7134 1328.52 41.4477 1325.14 113.397 1283.42C124.432 1276.97 141.743 1266.92 151.805 1261.03C161.976 1255.13 174.093 1248.03 178.854 1245.3L187.509 1240.27L187.942 1268.23C188.158 1283.63 187.942 1298.82 187.509 1301.87L186.752 1307.55L173.661 1315.31C166.412 1319.57 155.592 1326.12 149.75 1329.72L139.038 1336.39L172.47 1336.71L205.902 1336.93L217.263 1330.05C223.538 1326.23 235.439 1319.13 243.77 1314.32C252.101 1309.41 266.491 1301.11 275.687 1295.76C284.884 1290.41 297.11 1283.31 302.736 1280.14C308.362 1276.97 318.857 1270.75 325.997 1266.49C340.712 1257.53 369.383 1240.82 370.032 1240.82C370.681 1240.82 371.006 1300.56 370.357 1304.28C369.708 1307.66 368.518 1308.65 358.347 1314.54C352.18 1318.15 341.361 1324.7 334.328 1329.07L321.67 1337.04L356.292 1336.71L390.914 1336.39L399.569 1330.82C404.33 1327.76 413.634 1322.08 420.126 1318.37C440.791 1306.46 445.552 1303.73 469.354 1289.75C482.121 1282.21 496.511 1273.91 501.271 1271.18C506.032 1268.45 519.664 1260.48 531.566 1253.49L553.204 1240.82L553.529 1273.8C553.745 1299.25 553.421 1307.12 552.447 1308.1C551.69 1308.86 543.467 1313.78 534.27 1319.24C525.074 1324.59 514.579 1330.82 511.009 1333L504.517 1337.04L539.68 1336.71L574.843 1336.39L584.04 1330.27C589.125 1326.88 609.032 1315.09 628.399 1303.95C647.766 1292.7 672.109 1278.61 682.496 1272.49C692.883 1266.38 707.056 1258.19 713.872 1254.25C720.688 1250.32 728.695 1245.74 731.508 1243.99C734.429 1242.24 736.917 1240.82 737.242 1240.82C737.458 1240.82 737.567 1255.89 737.458 1274.35L737.134 1307.88L725.774 1314.43C719.498 1318.04 708.571 1324.48 701.538 1328.96L688.663 1336.93H721.879C758.448 1336.93 757.042 1337.15 768.51 1329.29C770.89 1327.65 788.634 1317.27 808.001 1306.13C827.367 1294.99 850.954 1281.23 860.475 1275.66C869.996 1270.09 882.763 1262.77 888.822 1259.28C894.989 1255.78 901.264 1252.07 902.887 1250.87C905.916 1248.79 919.981 1240.82 920.739 1240.82C921.28 1240.82 921.063 1307.23 920.522 1307.66C920.198 1307.88 914.68 1311.27 908.08 1315.09C892.067 1324.26 885.468 1328.2 877.894 1333L871.402 1336.93H905.483H939.673L948.761 1331.25C953.738 1328.2 966.397 1320.77 976.783 1314.87C1009.13 1296.19 1042.46 1276.75 1080.65 1254.04C1089.85 1248.57 1097.74 1243.99 1098.18 1243.88C1098.72 1243.66 1098.93 1219.41 1098.83 1189.92L1098.5 1136.19L1071.99 1151.48C1057.39 1160 1042.78 1168.41 1039.54 1170.37C1036.29 1172.34 1022.44 1180.42 1008.7 1188.4C995.068 1196.37 977.757 1206.42 970.292 1210.79C962.826 1215.15 953.089 1220.83 948.653 1223.35C944.217 1225.97 936.535 1230.44 931.666 1233.28C926.798 1236.23 922.578 1238.64 922.253 1238.64C921.821 1238.64 921.712 1223.56 921.821 1205.11L922.145 1171.47L950.817 1154.87C966.613 1145.69 983.167 1135.97 987.603 1133.35C992.038 1130.84 1007.19 1121.99 1021.14 1113.91C1035.1 1105.83 1054.36 1094.58 1063.88 1088.79C1073.4 1083.11 1085.09 1076.23 1089.85 1073.61L1098.5 1068.69L1098.83 1014.96L1099.04 961.221L1093.42 964.061C1090.28 965.699 1085.95 968.102 1083.9 969.412C1079.46 972.252 1053.93 987.215 1043.86 992.894C1039.97 995.079 1030.23 1000.76 1022.22 1005.45C1005.89 1014.96 962.393 1040.4 939.997 1053.4C931.991 1058.1 924.958 1062.36 924.417 1062.9C923.768 1063.45 922.903 1063.89 922.47 1063.89C922.037 1063.89 921.604 1048.92 921.604 1030.57V997.263L925.716 994.751C929.611 992.239 952.981 978.478 994.094 954.668C1035.97 930.312 1064.31 913.711 1075.24 907.158C1081.51 903.335 1089.3 898.857 1092.55 897.219L1098.5 894.052L1098.83 840.207C1098.93 810.499 1098.72 786.471 1098.28 786.69C1096.55 787.345 1081.95 795.755 1069.83 802.854C1063.01 806.895 1052.74 812.793 1047.11 815.96C1041.48 819.128 1026.88 827.647 1014.65 834.855C1002.43 842.064 978.406 856.153 961.095 866.201C943.892 876.14 927.88 885.533 925.607 886.843L921.604 889.355V855.607V821.749L936.535 813.23C944.65 808.533 955.253 802.417 960.013 799.578C964.774 796.738 983.816 785.707 1002.21 775.003C1020.71 764.3 1039.64 753.269 1044.4 750.429C1049.16 747.59 1063.45 739.289 1076 731.862L1099.04 718.537V670.59V622.644H1088.44C1078.16 622.644 1077.62 622.753 1071.34 626.575C1058.25 634.658 1030.56 651.04 1009.78 662.836C1005.02 665.566 997.989 669.608 994.094 671.792C990.199 673.976 972.564 684.243 954.928 694.509C937.292 704.885 922.47 713.295 922.145 713.295C921.821 713.295 921.604 698.441 921.604 680.202V647.108L927.339 643.504C930.368 641.538 939.564 636.077 947.571 631.272L962.177 622.644H928.312H894.448L877.461 632.91C868.157 638.589 852.252 647.982 842.082 653.771C800.319 677.908 792.962 682.168 784.739 687.082C754.661 704.885 740.163 713.295 739.514 713.295C738.432 713.295 737.458 675.833 738.216 661.853L738.973 646.672L758.448 634.876L777.815 623.19L744.058 622.862L710.41 622.644L700.997 628.432C683.578 639.463 666.7 649.293 627.317 671.792C617.688 677.362 603.515 685.553 578.738 700.079C567.27 706.851 557.099 712.64 556.342 712.967C555.044 713.404 554.827 707.943 554.827 680.639V647.764L562.942 642.521C567.378 639.682 576.25 634.221 582.525 630.289L593.993 623.19L560.453 622.862L526.913 622.644L512.415 631.599C504.517 636.514 491.426 644.269 483.419 648.856C475.413 653.443 462.754 660.761 455.289 665.13C447.824 669.498 426.942 681.731 408.766 692.216C390.589 702.701 375.334 711.766 374.685 712.312C374.144 712.858 373.062 713.295 372.304 713.295C371.222 713.295 370.898 706.633 370.898 680.529V647.764L378.904 642.521C383.34 639.682 392.537 634.221 399.245 630.289L411.47 623.19L377.606 622.862C340.063 622.534 343.417 621.988 330.001 630.726C325.997 633.347 313.555 640.883 302.195 647.436C290.943 653.989 264.652 669.389 243.77 681.622C199.735 707.506 189.565 713.295 188.699 713.295C188.375 713.295 188.05 698.441 188.05 680.202V647.108L201.899 639.026C209.473 634.548 218.561 629.087 222.023 626.794L228.407 622.644H194.001H159.595L150.291 628.432C139.904 634.985 127.786 642.194 111.774 651.586C105.823 654.972 92.9479 662.508 83.1023 668.297C73.2567 673.976 61.5717 680.748 57.1358 683.26C49.6704 687.519 28.6808 699.861 11.6944 710.128C7.7994 712.421 4.3372 714.387 3.90443 714.387C3.36346 714.387 3.03888 699.097 3.03888 680.529C3.03888 661.853 3.36346 646.672 3.90443 646.672C4.3372 646.672 13.9665 641.211 25.2186 634.658L45.7754 622.644H23.3793H0.875V979.788ZM187.834 747.48C187.942 765.611 187.726 781.01 187.293 781.666C186.211 783.086 153.104 802.745 105.823 830.159C97.1675 835.074 85.8071 841.736 80.3974 844.903C75.096 848.071 65.7913 853.532 59.8406 856.917C53.89 860.412 44.3689 865.982 38.7428 869.259C33.1168 872.536 24.1367 877.669 18.727 880.727C13.3173 883.785 8.01579 887.062 6.71747 888.263C5.52733 889.355 4.22901 890.229 3.79623 890.229C3.36346 890.229 3.14707 874.938 3.25526 856.262L3.57985 822.295L16.0221 815.196C22.8383 811.264 33.5495 805.038 39.8248 801.325C46.1 797.502 54.1064 792.915 57.6767 790.949C61.2471 788.983 77.8008 779.372 94.4626 769.542C111.124 759.822 137.632 744.313 153.428 735.139C176.365 721.814 187.509 715.042 187.509 714.387C187.509 714.387 187.618 729.241 187.834 747.48ZM370.79 744.859C371.006 760.914 370.79 776.096 370.465 778.498C369.708 782.758 369.383 782.976 351.748 793.571C326.647 808.643 253.075 851.347 211.312 875.157C202.981 879.962 194.866 884.768 193.244 885.969C191.621 887.062 189.781 888.045 189.132 888.045C188.375 888.045 188.05 877.123 188.05 854.842V821.64L197.571 816.397C202.765 813.558 214.558 806.677 223.754 801.216C232.951 795.646 253.94 783.413 270.278 773.911C286.615 764.409 308.362 751.74 318.424 745.733C339.522 733.282 341.036 732.408 357.915 722.688C364.731 718.756 370.357 715.479 370.357 715.479C370.357 715.479 370.573 728.695 370.79 744.859ZM552.555 782.758C551.906 783.522 547.687 786.362 543.142 788.983C517.609 803.728 488.937 820.438 478.01 826.882C471.193 830.923 459.292 837.913 451.502 842.391C434.516 852.33 419.801 860.849 406.061 868.931C400.435 872.208 391.022 877.669 385.179 881.055C379.445 884.44 374.252 887.608 373.711 888.154C373.062 888.7 372.196 889.137 371.763 889.137C371.331 889.137 370.898 874.065 370.898 855.497V821.967L385.829 813.339C393.943 808.643 406.71 801.107 414.175 796.738C421.641 792.369 438.952 782.321 452.584 774.457C491.318 751.958 518.15 736.34 536.434 725.637L553.204 715.698L553.529 748.463C553.637 771.181 553.421 781.775 552.555 782.758ZM737.675 748.791V782.103L733.672 784.724C726.855 788.983 656.421 830.268 637.596 840.862C632.835 843.483 628.507 846.105 627.858 846.542C626.776 847.415 604.488 860.412 588.908 869.259C584.148 871.88 579.063 874.938 577.548 875.921C574.41 878.106 556.234 888.045 555.368 888.045C555.044 888.045 554.827 873.082 554.827 854.733V821.421L559.48 819.128C561.968 817.817 572.787 811.592 583.499 805.257C626.776 779.809 636.297 774.239 657.611 761.897C682.388 747.48 713.007 729.568 726.855 721.159C731.941 718.21 736.377 715.589 736.917 715.589C737.35 715.479 737.675 730.442 737.675 748.791ZM921.388 742.565C921.604 757.419 921.496 772.601 921.063 776.314L920.306 783.086L904.51 792.26C890.661 800.342 855.931 820.548 823.148 839.77C817.522 843.047 807.46 848.835 800.86 852.549C794.26 856.371 786.903 860.631 784.631 862.051C782.251 863.58 772.405 869.368 762.559 874.938C752.714 880.509 743.409 885.969 741.894 887.062L738.973 889.137L738.54 878.433C738.324 872.645 738.324 857.354 738.54 844.685L738.973 821.421L743.517 818.909C747.845 816.397 770.674 803.073 798.804 786.69C806.594 782.103 818.496 775.222 825.312 771.181C869.779 745.405 911.001 721.268 915.113 718.647C917.818 717.008 920.198 715.589 920.522 715.589C920.847 715.479 921.172 727.603 921.388 742.565ZM3.79623 791.168C3.68804 803.837 3.57985 793.461 3.57985 767.904C3.57985 742.347 3.68804 731.971 3.79623 744.641C4.01262 757.419 4.01262 778.389 3.79623 791.168ZM188.05 923.541V956.852L182.208 960.675C178.962 962.75 176.041 964.498 175.824 964.498C175.392 964.498 168.251 968.648 136.658 987.215C128.976 991.693 115.993 999.229 107.987 1003.82C99.9805 1008.4 88.512 1014.96 82.5613 1018.56C76.6107 1022.06 66.6568 1027.95 60.3816 1031.67C54.1064 1035.38 43.9361 1041.28 37.6609 1044.77C31.3857 1048.27 24.1367 1052.42 21.4318 1054.06C18.727 1055.7 13.5337 1058.86 9.85509 1060.94L3.14707 1064.87L3.36346 978.914C3.47165 923.868 3.68804 911.527 3.90443 944.511C4.01262 972.907 4.4454 996.171 4.76998 996.171C5.31095 996.171 67.847 960.347 85.8071 949.753C91.2168 946.586 101.603 940.469 109.069 936.101C116.534 931.732 125.731 926.38 129.626 924.087C133.521 921.793 145.638 914.694 156.674 908.25C167.71 901.806 178.854 895.144 181.559 893.506C184.264 891.758 186.752 890.338 187.185 890.338C187.618 890.229 187.942 905.192 188.05 923.541ZM921.063 923.759L921.821 956.743L916.844 959.801C914.139 961.439 907.215 965.59 901.372 968.976C895.53 972.361 881.789 980.443 870.753 986.887C859.717 993.44 842.731 1003.38 832.885 1009.06C823.04 1014.74 808.758 1023.15 800.968 1027.63C793.286 1032.21 783.549 1037.78 779.329 1040.19C771.107 1044.88 750.442 1057.22 743.95 1061.37C741.678 1062.69 739.731 1063.89 739.514 1063.89C738.54 1063.89 737.891 1019.98 738.54 1008.51L739.298 996.171L762.559 982.737C775.326 975.31 796.749 962.859 810.165 955.105C823.581 947.241 838.62 938.504 843.705 935.555C848.79 932.606 856.796 928.019 861.557 925.179C886.333 910.653 905.592 899.185 912.408 895.144C916.627 892.632 920.09 890.666 920.09 890.666C920.198 890.775 920.631 905.629 921.063 923.759ZM370.898 924.087V956.852L366.895 959.474C364.623 960.893 355.534 966.354 346.554 971.597C337.682 976.948 326.43 983.502 321.67 986.341C316.909 989.181 305.441 995.734 296.244 1001.09C287.048 1006.33 275.579 1012.99 270.819 1015.83C240.741 1033.74 190.214 1062.79 189.024 1062.79C188.483 1062.79 188.05 1048.81 188.05 1029.7V996.499L193.785 993.44C196.814 991.802 208.174 985.14 218.886 978.914C229.597 972.58 241.498 965.59 245.393 963.405C249.288 961.221 257.078 956.743 262.704 953.357C268.33 949.971 279.799 943.309 288.13 938.504C296.46 933.698 310.309 925.616 318.965 920.592C327.62 915.458 340.063 908.25 346.554 904.427C353.154 900.605 360.619 896.127 363.324 894.488C366.029 892.85 368.842 891.43 369.599 891.43C370.573 891.321 370.898 898.53 370.898 924.087ZM553.745 924.524V957.726L542.71 964.279C525.182 974.546 435.814 1026.53 406.602 1043.35C391.996 1051.87 378.255 1059.85 376.091 1061.27C373.819 1062.69 371.763 1063.89 371.439 1063.89C371.114 1063.89 370.898 1048.81 370.898 1030.25V996.717L389.074 986.45C399.028 980.771 411.038 973.781 415.798 971.051C420.559 968.211 432.785 961.112 442.847 955.214C459.509 945.384 469.787 939.377 513.605 913.929C541.519 897.656 552.122 891.54 552.988 891.43C553.421 891.321 553.745 906.284 553.745 924.524ZM737.675 923.868C737.675 953.576 737.458 956.634 735.836 958.163C734.754 959.146 729.019 962.75 723.069 966.136C717.118 969.631 705.974 976.184 698.184 980.662C654.582 1006 654.798 1005.89 619.744 1026.42C610.547 1031.78 593.236 1041.72 581.335 1048.6C569.433 1055.37 558.614 1061.7 557.316 1062.58L554.827 1064.1V1030.14V996.171L559.48 993.877C565.322 990.819 594.21 974.327 604.055 968.32C608.275 965.808 618.662 959.692 627.317 954.668C635.973 949.644 648.631 942.326 655.448 938.285C662.264 934.244 681.522 922.885 698.184 913.165C714.846 903.335 729.993 894.488 731.724 893.396C737.891 889.574 737.675 888.591 737.675 923.868ZM187.077 1130.62C186.536 1132.15 183.29 1134.88 179.828 1136.95C176.257 1139.03 170.523 1142.41 166.952 1144.6C163.382 1146.67 156.782 1150.5 152.346 1152.9C147.91 1155.41 136.009 1162.29 125.839 1168.3C115.777 1174.31 100.413 1183.26 91.7578 1188.29C72.2829 1199.54 63.3028 1204.89 31.0611 1223.67C17.1041 1231.86 4.98636 1238.64 4.3372 1238.64C3.36346 1238.64 3.03888 1229.57 3.14707 1202.81C3.25526 1183.15 3.47165 1167.97 3.79623 1168.95C4.01262 1170.05 4.66178 1170.92 5.09456 1170.92C5.85192 1170.92 33.4413 1155.08 85.8071 1124.5C100.089 1116.2 113.938 1108.12 116.642 1106.7C119.347 1105.17 128.111 1100.04 136.117 1095.23C158.946 1081.58 169.549 1075.46 178.854 1070L187.509 1065.09L187.834 1096.54C187.942 1113.91 187.618 1129.31 187.077 1130.62ZM370.79 1099.27L371.114 1132.48L365.921 1135.53C363 1137.17 356.292 1141.1 350.882 1144.16C345.58 1147.33 336.492 1152.57 330.866 1155.85C325.24 1159.12 315.719 1164.7 309.768 1168.19C293.323 1177.8 264.868 1194.4 249.721 1203.14C242.255 1207.4 231.869 1213.52 226.459 1216.68C221.158 1219.85 211.853 1225.2 205.902 1228.59C199.952 1231.86 193.785 1235.47 192.27 1236.56C190.755 1237.65 189.132 1238.31 188.699 1237.87C188.375 1237.54 188.05 1222.36 188.05 1204.34V1171.47L200.817 1164.26C221.374 1152.57 236.305 1143.94 252.426 1134.33C260.757 1129.42 276.336 1120.35 287.048 1114.13C297.759 1107.9 316.801 1096.87 329.243 1089.55C357.049 1073.17 369.059 1066.18 369.816 1066.18C370.14 1066.07 370.573 1081.03 370.79 1099.27ZM553.529 1099.49L553.204 1133.02L540.221 1140.56C533.08 1144.82 524.1 1150.06 520.205 1152.35C516.31 1154.65 505.599 1160.98 496.403 1166.33C487.206 1171.69 476.495 1177.91 472.6 1180.2C462.971 1185.88 452.043 1192.22 441.548 1198.12C436.571 1200.85 424.237 1208.16 413.959 1214.17C403.681 1220.29 391.887 1227.17 387.668 1229.46C383.556 1231.76 378.363 1234.7 376.308 1236.12C374.252 1237.54 372.196 1238.64 371.763 1238.64C371.222 1238.64 370.898 1223.67 370.898 1205.43C370.898 1180.2 371.222 1172.01 372.304 1171.14C372.954 1170.59 379.229 1166.88 386.045 1163.06C392.861 1159.12 403.356 1153.12 409.307 1149.62C415.257 1146.13 433.326 1135.75 449.338 1126.36C497.16 1098.73 513.497 1089.23 528.32 1080.27C547.47 1068.8 552.014 1066.18 552.988 1066.07C553.421 1066.07 553.637 1081.14 553.529 1099.49ZM737.675 1096.54C737.675 1113.25 737.35 1128.33 737.026 1130.07C736.377 1133.57 737.35 1132.91 710.085 1148.64C686.175 1162.51 668.431 1172.89 653.825 1181.51C646.684 1185.77 635.215 1192.33 628.399 1196.26C621.583 1200.19 608.167 1207.95 598.646 1213.52C589.125 1219.09 577.007 1226.08 571.597 1229.13C566.296 1232.08 560.562 1235.47 558.939 1236.56C557.424 1237.76 555.801 1238.64 555.476 1238.64C555.152 1238.64 554.827 1223.56 554.827 1205V1171.47L570.84 1162.4C606.436 1142.2 662.913 1109.32 709.003 1082.02C735.727 1066.29 735.944 1066.07 736.917 1066.07C737.35 1066.07 737.675 1079.72 737.675 1096.54ZM920.739 1092.5C920.955 1107.14 920.955 1122.21 920.739 1126.14L920.306 1133.24L908.946 1139.79C902.562 1143.4 894.015 1148.31 889.795 1150.82C885.576 1153.34 863.18 1166.33 839.918 1179.88C816.765 1193.31 792.854 1207.29 786.903 1210.68C780.952 1214.17 771.756 1219.63 766.346 1222.8C746.222 1234.6 741.029 1237.54 740.055 1237.54C738.865 1237.54 737.675 1210.24 738.216 1194.95C738.324 1189.27 738.54 1181.51 738.649 1177.8L738.757 1171.03L746.114 1166.99C750.117 1164.8 759.422 1159.45 766.887 1155.08C786.795 1143.4 814.384 1127.45 838.295 1113.58C862.855 1099.38 896.503 1079.61 909.703 1071.75C914.788 1068.69 919.224 1066.18 919.657 1066.18C920.09 1066.07 920.631 1077.98 920.739 1092.5ZM3.79623 1127.56C3.68804 1138.48 3.57985 1129.53 3.57985 1107.57C3.57985 1085.62 3.68804 1076.66 3.79623 1087.7C4.01262 1098.62 4.01262 1116.53 3.79623 1127.56ZM3.79623 1160.76C3.57985 1163.06 3.36346 1161.2 3.36346 1156.72C3.36346 1152.24 3.57985 1150.39 3.79623 1152.57C4.01262 1154.87 4.01262 1158.58 3.79623 1160.76Z" fill="#101010"/>
</g>
</g>
<mask id="mask0_4206_134729" style="mask-type:alpha" maskUnits="userSpaceOnUse" x="183" y="108" width="365" height="501">
<rect x="179.703" y="159.91" width="289.546" height="460.197" rx="19.9024" transform="rotate(-10.9498 179.703 159.91)" fill="#F8F8F8"/>
</mask>
<g mask="url(#mask0_4206_134729)">
<g clip-path="url(#clip3_4206_134729)">
<rect width="289.546" height="461.595" transform="translate(179.438 158.539) rotate(-10.9498)" fill="#14F195"/>
<path d="M321.943 274.48C321.943 274.48 289.183 416.385 309.956 423.105C330.729 429.826 438.747 315.547 463.988 327.134C489.229 338.721 404.853 465.494 431.639 477.438C458.425 489.382 572.913 423.233 586.429 435.302C599.944 447.371 498.695 531.913 520.902 541.521C543.109 551.128 584.443 533.858 604.86 530.914" stroke="#272727" stroke-width="45.1274" stroke-linecap="round"/>
</g>
<path d="M294.587 528.661L291.992 529.163C291.836 528.752 291.626 528.401 291.364 528.112C291.101 527.817 290.798 527.583 290.458 527.409C290.117 527.235 289.746 527.126 289.344 527.084C288.946 527.036 288.529 527.055 288.095 527.139C287.322 527.288 286.675 527.615 286.153 528.119C285.631 528.618 285.273 529.273 285.079 530.083C284.885 530.889 284.891 531.826 285.098 532.894C285.308 533.981 285.654 534.865 286.136 535.544C286.621 536.218 287.197 536.687 287.862 536.952C288.532 537.211 289.25 537.267 290.018 537.118C290.444 537.036 290.831 536.903 291.179 536.721C291.532 536.533 291.835 536.299 292.088 536.02C292.345 535.739 292.545 535.418 292.686 535.054C292.831 534.69 292.903 534.293 292.901 533.861L295.499 533.373C295.532 534.067 295.444 534.741 295.235 535.396C295.031 536.05 294.713 536.654 294.283 537.207C293.851 537.756 293.313 538.225 292.669 538.614C292.023 538.998 291.277 539.272 290.431 539.436C289.182 539.677 288.011 539.604 286.918 539.215C285.826 538.827 284.892 538.141 284.116 537.159C283.34 536.176 282.805 534.922 282.51 533.395C282.213 531.864 282.245 530.5 282.603 529.303C282.961 528.101 283.574 527.116 284.443 526.348C285.312 525.58 286.366 525.076 287.606 524.836C288.397 524.683 289.154 524.652 289.877 524.742C290.6 524.833 291.269 525.042 291.884 525.369C292.499 525.692 293.037 526.13 293.499 526.683C293.965 527.232 294.328 527.891 294.587 528.661ZM298.045 537.761L295.983 527.103L298.418 526.631L298.762 528.408L298.873 528.386C298.948 527.734 299.19 527.195 299.597 526.771C300.008 526.341 300.519 526.067 301.13 525.949C301.268 525.922 301.425 525.899 301.599 525.879C301.776 525.855 301.925 525.843 302.045 525.843L302.492 528.154C302.379 528.138 302.204 528.138 301.967 528.155C301.734 528.166 301.511 528.193 301.298 528.234C300.84 528.323 300.448 528.502 300.121 528.771C299.798 529.035 299.566 529.361 299.424 529.748C299.283 530.135 299.257 530.556 299.344 531.009L300.557 537.275L298.045 537.761ZM308.099 536.039C307.424 536.169 306.792 536.167 306.205 536.031C305.621 535.89 305.125 535.611 304.718 535.196C304.316 534.779 304.048 534.222 303.913 533.523C303.796 532.922 303.811 532.403 303.957 531.967C304.103 531.531 304.345 531.157 304.683 530.847C305.022 530.537 305.42 530.275 305.878 530.062C306.339 529.843 306.824 529.656 307.331 529.5C307.943 529.314 308.438 529.158 308.817 529.032C309.195 528.902 309.461 528.764 309.615 528.619C309.773 528.468 309.829 528.273 309.782 528.032L309.774 527.991C309.673 527.468 309.44 527.093 309.075 526.866C308.709 526.639 308.235 526.582 307.652 526.695C307.037 526.814 306.575 527.043 306.266 527.381C305.962 527.718 305.782 528.081 305.728 528.471L303.318 528.592C303.378 527.908 303.579 527.308 303.92 526.791C304.261 526.269 304.718 525.84 305.291 525.503C305.863 525.162 306.522 524.92 307.266 524.776C307.78 524.676 308.303 524.638 308.835 524.659C309.367 524.681 309.87 524.79 310.345 524.986C310.819 525.178 311.228 525.485 311.574 525.907C311.925 526.329 312.168 526.894 312.305 527.602L313.685 534.735L311.27 535.202L310.987 533.738L310.904 533.754C310.809 534.08 310.647 534.399 310.42 534.712C310.196 535.019 309.891 535.291 309.505 535.529C309.123 535.762 308.654 535.931 308.099 536.039ZM308.394 534.067C308.899 533.969 309.317 533.785 309.648 533.515C309.979 533.24 310.212 532.916 310.346 532.545C310.485 532.172 310.517 531.789 310.441 531.396L310.198 530.14C310.131 530.22 310.009 530.306 309.83 530.399C309.656 530.49 309.457 530.579 309.234 530.665C309.01 530.751 308.789 530.833 308.568 530.909C308.348 530.985 308.157 531.051 307.995 531.106C307.63 531.23 307.31 531.378 307.037 531.551C306.763 531.724 306.561 531.931 306.43 532.172C306.298 532.409 306.263 532.689 306.326 533.013C306.416 533.475 306.652 533.792 307.035 533.963C307.419 534.133 307.872 534.168 308.394 534.067ZM315.6 534.364L313.538 523.706L316.05 523.22L318.112 533.878L315.6 534.364ZM314.508 521.949C314.111 522.026 313.743 521.961 313.405 521.752C313.066 521.54 312.861 521.246 312.788 520.871C312.715 520.492 312.796 520.143 313.032 519.823C313.267 519.5 313.583 519.299 313.981 519.222C314.383 519.144 314.752 519.212 315.086 519.426C315.424 519.634 315.629 519.928 315.703 520.307C315.775 520.682 315.694 521.031 315.459 521.355C315.228 521.673 314.911 521.871 314.508 521.949ZM325.536 536.819C324.634 536.993 323.835 537.021 323.14 536.901C322.446 536.786 321.863 536.562 321.391 536.231C320.919 535.9 320.559 535.502 320.311 535.037L322.467 534.051C322.609 534.239 322.797 534.417 323.03 534.583C323.265 534.753 323.559 534.874 323.914 534.944C324.274 535.019 324.706 535.007 325.21 534.91C325.922 534.772 326.478 534.484 326.879 534.047C327.28 533.614 327.404 533.005 327.252 532.218L326.861 530.199L326.736 530.223C326.657 530.507 326.519 530.81 326.322 531.131C326.129 531.452 325.847 531.744 325.476 532.007C325.11 532.27 324.621 532.461 324.01 532.579C323.191 532.737 322.412 532.689 321.671 532.434C320.935 532.173 320.296 531.697 319.754 531.005C319.216 530.308 318.834 529.379 318.61 528.218C318.383 527.047 318.386 526.022 318.619 525.142C318.856 524.256 319.267 523.541 319.853 522.996C320.437 522.446 321.139 522.092 321.958 521.933C322.582 521.812 323.116 521.82 323.56 521.954C324.007 522.084 324.38 522.273 324.678 522.523C324.975 522.768 325.211 523.008 325.386 523.243L325.525 523.216L325.184 521.453L327.661 520.974L329.756 531.806C329.933 532.717 329.861 533.513 329.542 534.194C329.222 534.875 328.714 535.436 328.018 535.878C327.321 536.32 326.494 536.634 325.536 536.819ZM324.33 530.473C324.862 530.37 325.29 530.153 325.615 529.821C325.939 529.489 326.152 529.062 326.252 528.539C326.352 528.015 326.337 527.414 326.205 526.734C326.075 526.063 325.865 525.494 325.573 525.028C325.286 524.56 324.928 524.224 324.499 524.019C324.075 523.808 323.592 523.755 323.05 523.86C322.491 523.968 322.052 524.204 321.733 524.568C321.415 524.932 321.21 525.387 321.119 525.932C321.027 526.473 321.043 527.065 321.167 527.708C321.294 528.361 321.499 528.914 321.784 529.367C322.072 529.815 322.43 530.14 322.857 530.34C323.288 530.535 323.779 530.579 324.33 530.473ZM340.849 529.479L336.034 530.411L333.284 516.2L338.197 515.25C339.608 514.977 340.875 515.027 341.998 515.4C343.125 515.767 344.064 516.428 344.815 517.382C345.566 518.335 346.084 519.55 346.369 521.026C346.656 522.506 346.627 523.831 346.282 525.002C345.942 526.171 345.311 527.14 344.39 527.909C343.473 528.677 342.293 529.2 340.849 529.479ZM338.177 527.686L340.293 527.276C341.283 527.085 342.074 526.745 342.666 526.256C343.257 525.762 343.649 525.123 343.842 524.336C344.035 523.546 344.026 522.607 343.816 521.52C343.605 520.433 343.264 519.563 342.793 518.91C342.32 518.253 341.723 517.809 341.002 517.579C340.284 517.344 339.444 517.319 338.482 517.505L336.29 517.93L338.177 527.686ZM351.671 527.386L346.597 517.31L349.157 516.815L352.481 523.946L352.578 523.928L353.043 516.063L355.576 515.573L358.933 522.655L359.037 522.635L359.441 514.825L362.008 514.329L361.052 525.571L358.436 526.077L355.044 519.261L354.898 519.289L354.293 526.878L351.671 527.386ZM368.322 524.387C367.647 524.518 367.015 524.515 366.428 524.38C365.843 524.238 365.348 523.96 364.941 523.544C364.539 523.128 364.271 522.57 364.135 521.872C364.019 521.27 364.034 520.751 364.18 520.315C364.326 519.879 364.568 519.506 364.906 519.196C365.245 518.886 365.643 518.624 366.1 518.41C366.562 518.192 367.047 518.004 367.554 517.848C368.166 517.663 368.661 517.507 369.04 517.381C369.418 517.25 369.684 517.112 369.838 516.967C369.996 516.817 370.052 516.621 370.005 516.381L369.997 516.339C369.896 515.816 369.663 515.442 369.298 515.215C368.932 514.988 368.458 514.931 367.875 515.044C367.26 515.163 366.798 515.391 366.489 515.729C366.185 516.067 366.005 516.43 365.951 516.82L363.541 516.94C363.601 516.257 363.802 515.657 364.143 515.139C364.484 514.618 364.941 514.188 365.514 513.852C366.086 513.511 366.745 513.268 367.489 513.124C368.003 513.025 368.526 512.986 369.058 513.008C369.59 513.03 370.093 513.139 370.568 513.335C371.042 513.526 371.451 513.833 371.797 514.256C372.147 514.678 372.391 515.243 372.528 515.95L373.908 523.083L371.493 523.551L371.21 522.087L371.127 522.103C371.031 522.428 370.87 522.747 370.643 523.06C370.419 523.367 370.114 523.64 369.728 523.878C369.346 524.11 368.877 524.28 368.322 524.387ZM368.617 522.415C369.122 522.318 369.54 522.134 369.871 521.863C370.202 521.588 370.434 521.265 370.569 520.893C370.708 520.521 370.74 520.138 370.663 519.745L370.42 518.489C370.354 518.569 370.232 518.655 370.053 518.747C369.879 518.838 369.68 518.927 369.457 519.014C369.233 519.1 369.012 519.181 368.791 519.258C368.571 519.334 368.379 519.4 368.217 519.455C367.853 519.578 367.533 519.727 367.26 519.899C366.986 520.072 366.784 520.279 366.653 520.521C366.521 520.757 366.486 521.038 366.549 521.361C366.639 521.824 366.875 522.141 367.258 522.311C367.642 522.482 368.095 522.517 368.617 522.415ZM382.73 513.242L380.489 513.935C380.379 513.716 380.224 513.521 380.022 513.349C379.826 513.175 379.581 513.052 379.289 512.979C378.996 512.906 378.656 512.908 378.267 512.983C377.744 513.084 377.327 513.282 377.014 513.578C376.707 513.872 376.59 514.2 376.665 514.56C376.72 514.871 376.882 515.101 377.151 515.25C377.424 515.399 377.844 515.483 378.409 515.504L380.302 515.54C381.353 515.563 382.169 515.762 382.751 516.139C383.337 516.515 383.706 517.085 383.859 517.847C383.984 518.519 383.902 519.149 383.612 519.737C383.327 520.321 382.87 520.822 382.24 521.241C381.611 521.66 380.853 521.956 379.964 522.128C378.66 522.38 377.557 522.31 376.656 521.918C375.754 521.522 375.131 520.848 374.789 519.897L377.193 519.187C377.397 519.647 377.703 519.964 378.111 520.14C378.519 520.315 379.013 520.347 379.591 520.235C380.188 520.119 380.643 519.904 380.956 519.589C381.274 519.273 381.398 518.935 381.328 518.574C381.269 518.269 381.103 518.039 380.828 517.886C380.558 517.732 380.168 517.649 379.657 517.638L377.765 517.608C376.702 517.593 375.876 517.381 375.288 516.971C374.699 516.557 374.332 515.961 374.186 515.183C374.055 514.527 374.123 513.924 374.391 513.373C374.662 512.816 375.096 512.344 375.693 511.955C376.293 511.56 377.019 511.281 377.87 511.116C379.119 510.874 380.153 510.95 380.973 511.343C381.798 511.736 382.384 512.369 382.73 513.242ZM390.626 520.065C389.585 520.266 388.639 520.212 387.787 519.902C386.935 519.591 386.219 519.065 385.639 518.323C385.063 517.58 384.669 516.658 384.456 515.557C384.243 514.456 384.264 513.452 384.52 512.543C384.781 511.634 385.249 510.876 385.924 510.27C386.598 509.665 387.456 509.261 388.497 509.06C389.538 508.859 390.484 508.913 391.336 509.223C392.188 509.534 392.902 510.062 393.479 510.81C394.06 511.557 394.457 512.48 394.67 513.581C394.883 514.682 394.859 515.685 394.597 516.59C394.34 517.494 393.874 518.249 393.199 518.854C392.525 519.46 391.667 519.864 390.626 520.065ZM390.251 518.05C390.815 517.941 391.257 517.695 391.576 517.311C391.895 516.923 392.095 516.448 392.178 515.885C392.266 515.321 392.247 514.715 392.122 514.067C391.996 513.415 391.787 512.843 391.495 512.353C391.207 511.856 390.843 511.488 390.403 511.247C389.963 511.005 389.46 510.939 388.896 511.049C388.318 511.161 387.867 511.411 387.544 511.8C387.226 512.188 387.023 512.666 386.936 513.235C386.853 513.798 386.875 514.406 387.001 515.058C387.126 515.705 387.333 516.275 387.62 516.767C387.911 517.257 388.277 517.623 388.717 517.864C389.161 518.1 389.672 518.162 390.251 518.05ZM398.518 511.843L399.726 518.088L397.214 518.574L395.152 507.916L397.553 507.452L397.903 509.263L398.028 509.239C398.158 508.594 398.457 508.045 398.926 507.589C399.399 507.133 400.033 506.828 400.829 506.674C401.565 506.532 402.236 506.565 402.842 506.774C403.454 506.982 403.968 507.355 404.384 507.894C404.804 508.432 405.095 509.126 405.255 509.978L406.568 516.765L404.056 517.251L402.818 510.853C402.68 510.141 402.388 509.619 401.94 509.288C401.496 508.956 400.951 508.853 400.303 508.978C399.864 509.064 399.492 509.236 399.187 509.497C398.886 509.752 398.673 510.079 398.549 510.477C398.429 510.874 398.419 511.33 398.518 511.843Z" fill="#272727"/>
<path opacity="0.5" d="M298.462 559.714L296.956 560.006C296.783 559.59 296.554 559.239 296.268 558.955C295.986 558.669 295.665 558.446 295.307 558.284C294.951 558.118 294.572 558.015 294.17 557.975C293.767 557.935 293.36 557.955 292.947 558.035C292.194 558.181 291.549 558.503 291.011 559.002C290.478 559.5 290.102 560.154 289.885 560.964C289.672 561.774 289.67 562.717 289.878 563.794C290.087 564.87 290.441 565.745 290.94 566.417C291.444 567.088 292.036 567.555 292.717 567.818C293.401 568.08 294.12 568.138 294.873 567.992C295.286 567.913 295.672 567.779 296.03 567.592C296.389 567.405 296.702 567.17 296.971 566.887C297.243 566.6 297.456 566.271 297.612 565.901C297.77 565.526 297.852 565.115 297.858 564.669L299.364 564.377C299.374 565.035 299.277 565.643 299.075 566.203C298.872 566.763 298.583 567.262 298.205 567.7C297.828 568.135 297.379 568.497 296.86 568.786C296.344 569.075 295.773 569.28 295.146 569.401C294.085 569.606 293.092 569.53 292.166 569.171C291.24 568.813 290.448 568.202 289.789 567.338C289.131 566.475 288.675 565.387 288.421 564.076C288.168 562.764 288.185 561.585 288.474 560.538C288.763 559.491 289.27 558.629 289.995 557.951C290.721 557.273 291.614 556.832 292.674 556.626C293.302 556.505 293.908 556.482 294.494 556.558C295.084 556.633 295.635 556.803 296.149 557.069C296.661 557.331 297.116 557.684 297.512 558.128C297.908 558.568 298.225 559.097 298.462 559.714ZM301.744 567.948L299.94 558.622L301.324 558.354L301.597 559.763L301.694 559.744C301.774 559.25 302.01 558.816 302.399 558.442C302.789 558.069 303.263 557.828 303.822 557.72C303.927 557.7 304.059 557.676 304.217 557.65C304.376 557.623 304.497 557.606 304.579 557.599L304.861 559.056C304.81 559.053 304.695 559.056 304.517 559.066C304.341 559.07 304.158 559.091 303.968 559.128C303.515 559.215 303.128 559.389 302.809 559.648C302.493 559.902 302.264 560.215 302.121 560.587C301.982 560.954 301.954 561.348 302.035 561.769L303.177 567.671L301.744 567.948ZM310.282 566.523C309.691 566.637 309.133 566.63 308.608 566.5C308.082 566.367 307.637 566.115 307.271 565.745C306.905 565.371 306.663 564.88 306.546 564.273C306.442 563.739 306.464 563.285 306.61 562.912C306.755 562.536 306.986 562.218 307.301 561.96C307.617 561.701 307.978 561.485 308.385 561.309C308.795 561.129 309.211 560.969 309.633 560.828C310.186 560.646 310.635 560.502 310.98 560.398C311.328 560.288 311.574 560.172 311.718 560.047C311.866 559.922 311.918 559.744 311.873 559.513L311.864 559.465C311.748 558.866 311.494 558.432 311.102 558.163C310.714 557.894 310.19 557.823 309.53 557.951C308.846 558.083 308.339 558.337 308.008 558.711C307.677 559.086 307.466 559.459 307.374 559.829L305.92 559.607C306.053 558.993 306.292 558.489 306.635 558.095C306.982 557.696 307.385 557.388 307.842 557.169C308.303 556.945 308.768 556.788 309.237 556.697C309.537 556.639 309.888 556.609 310.291 556.607C310.696 556.6 311.103 556.67 311.509 556.818C311.92 556.966 312.289 557.236 312.618 557.631C312.946 558.025 313.182 558.592 313.325 559.333L314.514 565.478L313.081 565.755L312.836 564.492L312.764 564.506C312.706 564.727 312.586 564.975 312.404 565.25C312.222 565.524 311.958 565.779 311.613 566.014C311.268 566.248 310.824 566.418 310.282 566.523ZM310.251 565.194C310.818 565.084 311.274 564.88 311.619 564.582C311.969 564.284 312.209 563.939 312.339 563.549C312.473 563.158 312.503 562.768 312.428 562.379L312.174 561.068C312.127 561.152 312.007 561.245 311.812 561.345C311.621 561.441 311.396 561.537 311.137 561.633C310.882 561.725 310.632 561.811 310.387 561.892C310.146 561.968 309.95 562.031 309.8 562.081C309.437 562.202 309.104 562.348 308.802 562.52C308.502 562.687 308.274 562.897 308.117 563.15C307.964 563.398 307.922 563.704 307.993 564.068C308.089 564.566 308.346 564.907 308.764 565.091C309.185 565.27 309.68 565.304 310.251 565.194ZM316.866 559.202L317.951 564.812L316.518 565.09L314.714 555.764L316.098 555.496L316.38 556.953L316.502 556.93C316.629 556.414 316.887 555.969 317.277 555.596C317.665 555.218 318.212 554.961 318.916 554.825C319.548 554.703 320.125 554.725 320.649 554.893C321.172 555.056 321.616 555.373 321.98 555.845C322.343 556.312 322.601 556.942 322.755 557.735L323.901 563.661L322.468 563.939L321.341 558.11C321.199 557.377 320.898 556.843 320.439 556.508C319.978 556.169 319.416 556.063 318.753 556.192C318.295 556.28 317.906 556.459 317.584 556.727C317.266 556.994 317.04 557.338 316.908 557.758C316.775 558.179 316.761 558.66 316.866 559.202ZM329.857 562.711C328.958 562.884 328.145 562.836 327.416 562.566C326.691 562.29 326.083 561.828 325.592 561.18C325.105 560.527 324.769 559.723 324.584 558.767C324.399 557.812 324.41 556.936 324.617 556.141C324.828 555.34 325.207 554.674 325.755 554.144C326.307 553.609 327.004 553.26 327.846 553.097C328.331 553.003 328.827 552.991 329.332 553.062C329.837 553.132 330.319 553.312 330.778 553.601C331.236 553.886 331.638 554.304 331.984 554.854C332.33 555.404 332.587 556.115 332.755 556.985L332.873 557.592L325.684 558.983L325.444 557.744L331.176 556.635C331.074 556.109 330.878 555.66 330.587 555.288C330.301 554.915 329.943 554.646 329.512 554.482C329.085 554.317 328.613 554.284 328.095 554.384C327.524 554.495 327.058 554.732 326.695 555.096C326.337 555.455 326.089 555.881 325.954 556.373C325.818 556.866 325.8 557.369 325.899 557.883L326.059 558.709C326.195 559.413 326.432 559.987 326.77 560.429C327.111 560.867 327.524 561.171 328.011 561.342C328.497 561.508 329.029 561.535 329.608 561.423C329.984 561.351 330.314 561.232 330.597 561.068C330.884 560.899 331.118 560.686 331.299 560.429C331.479 560.167 331.599 559.863 331.657 559.515L333.117 559.636C333.062 560.134 332.897 560.594 332.622 561.017C332.346 561.435 331.974 561.793 331.506 562.089C331.038 562.381 330.488 562.588 329.857 562.711Z" fill="#272727"/>
<path d="M417.394 156.522L398.906 160.099L405.334 193.322L423.822 189.745L417.394 156.522Z" fill="#FF5F00"/>
<path d="M403.283 176.482C402.661 173.283 402.775 169.984 403.616 166.835C404.457 163.687 406.004 160.771 408.139 158.309C404.548 156.462 400.51 155.662 396.486 156.002C392.462 156.341 388.615 157.806 385.384 160.229C382.153 162.651 379.669 165.934 378.216 169.702C376.763 173.469 376.399 177.57 377.166 181.535C377.933 185.499 379.8 189.168 382.554 192.122C385.307 195.076 388.836 197.195 392.738 198.238C396.639 199.281 400.755 199.205 404.615 198.019C408.475 196.833 411.924 194.585 414.567 191.532C411.667 190.044 409.145 187.915 407.19 185.308C405.235 182.7 403.899 179.682 403.283 176.482V176.482Z" fill="#EB001B"/>
<path d="M445.539 168.307C446.306 172.272 445.943 176.372 444.49 180.14C443.036 183.908 440.553 187.19 437.322 189.613C434.091 192.036 430.244 193.5 426.22 193.84C422.197 194.18 418.158 193.38 414.567 191.533C416.7 189.069 418.245 186.153 419.086 183.005C419.927 179.857 420.043 176.559 419.424 173.36C418.805 170.161 417.467 167.144 415.513 164.537C413.558 161.93 411.037 159.8 408.14 158.309C410.783 155.256 414.231 153.008 418.091 151.823C421.951 150.637 426.067 150.561 429.968 151.604C433.869 152.647 437.398 154.766 440.152 157.72C442.905 160.674 444.772 164.343 445.539 168.307V168.307Z" fill="#F79E1B"/>
<path d="M446.052 181.792L445.92 181.112L446.194 181.058L446.168 180.92L445.469 181.055L445.496 181.194L445.77 181.141L445.902 181.821L446.052 181.792ZM447.408 181.529L447.249 180.709L447.035 180.751L446.898 181.362L446.542 180.846L446.328 180.887L446.487 181.708L446.638 181.678L446.518 181.06L446.852 181.548L447.009 181.518L447.137 180.939L447.257 181.559L447.408 181.529Z" fill="#F79E1B"/>
<rect x="207.703" y="186.699" width="113.702" height="46.8017" rx="23.4009" transform="rotate(-10.95 207.703 186.699)" fill="#272727"/>
<path d="M241.591 191.284C241.591 191.284 235.893 191.331 237.279 195.502C237.422 195.932 237.839 196.215 238.122 196.57C238.521 197.071 238.497 197.074 238.885 197.583C239.152 197.932 239.329 198.329 239.404 198.768C239.507 199.376 239.215 199.934 238.661 200.16C238.298 200.308 237.923 200.294 237.547 200.225C237.066 200.137 236.635 199.926 236.231 199.657C235.858 199.41 235.466 199.204 235.031 199.089C234.307 198.898 233.65 199.059 233.037 199.464C232.651 199.72 232.322 200.041 231.999 200.369C231.246 201.132 230.551 201.945 229.932 202.821C229.039 204.087 228.329 205.447 227.83 206.915C227.433 208.081 227.177 209.277 227.064 210.503C227.002 211.169 227.006 211.835 227.057 212.502C227.103 213.115 227.184 213.722 227.318 214.321C227.45 214.913 227.744 215.176 228.346 215.235C228.816 215.282 229.28 215.23 229.74 215.122C230.59 214.922 231.434 214.65 232.124 214.128C238.752 209.114 235.913 195.193 229.117 207.74C228.718 208.476 227.99 211.621 227.99 211.621C227.99 211.621 228.11 209.25 228.272 208.528C228.591 207.109 228.979 205.734 229.693 204.473C230.421 203.188 231.308 202.021 232.349 200.973C232.725 200.595 233.161 200.3 233.669 200.126C234.275 199.919 234.885 199.924 235.493 200.123C236.195 200.351 236.787 200.763 237.329 201.251C238.149 201.989 238.75 202.88 239.117 203.92C239.685 205.526 239.65 207.125 238.998 208.703C238.389 210.179 237.791 211.23 236.67 212.372C235.905 213.153 235.034 213.793 234.101 214.357C233.361 214.803 232.624 215.253 231.836 215.612C231.266 215.871 230.681 216.085 230.071 216.231C229.492 216.369 228.91 216.453 228.314 216.4C227.283 216.307 226.598 215.76 226.234 214.8C226.057 214.332 225.98 213.843 225.93 213.347C225.849 212.547 225.827 211.747 225.863 210.944C225.953 208.946 226.413 207.037 227.222 205.209C227.816 203.866 228.588 202.631 229.458 201.453C229.895 200.861 230.343 200.277 230.853 199.744C231.335 199.239 231.844 198.766 232.447 198.405C233.438 197.811 234.487 197.735 235.58 198.077C236.107 198.243 236.586 198.512 237.069 198.773C237.289 198.892 237.523 198.986 237.753 199.086C237.82 199.115 237.894 199.13 237.967 199.139C238.154 199.163 238.299 199.02 238.25 198.836C238.207 198.676 238.148 198.51 238.054 198.376C237.872 198.112 237.666 197.863 237.461 197.616C237.019 197.079 236.993 197.045 236.561 196.501C236.193 196.037 235.915 195.518 235.728 194.954C235.393 193.943 235.402 192.937 235.782 191.937C235.957 191.478 236.181 191.048 236.53 190.693C236.98 190.233 237.522 189.946 238.16 189.859C238.76 189.778 239.327 189.893 239.852 190.194C241.361 191.058 244.989 190.456 244.989 190.456C244.989 190.456 240.397 192.997 240.045 193.389C239.743 193.724 239.575 194.11 239.614 194.571C239.643 194.922 239.774 195.236 239.946 195.536C240.186 195.952 240.501 196.313 240.803 196.683C241.169 197.132 241.55 197.57 241.893 198.036C242.385 198.706 242.751 199.446 243.009 200.239C243.15 200.67 243.248 201.109 243.31 201.555C243.44 202.483 243.394 203.406 243.217 204.325C242.99 205.513 242.543 206.622 242.026 207.707C241.444 208.928 240.765 210.093 240.018 211.219C239.615 211.828 239.19 212.421 238.782 213.026C238.074 214.073 237.955 214.938 237.929 215.562C237.841 217.626 239.466 219.172 239.466 219.172C239.466 219.172 236.984 217.959 236.951 214.948C236.947 214.611 237.201 213.564 237.538 212.911C237.845 212.313 238.209 211.787 238.583 211.229C239.271 210.201 239.936 209.159 240.524 208.071C240.995 207.199 241.436 206.312 241.755 205.371C242.067 204.445 242.225 203.494 242.188 202.515C242.166 201.894 242.06 201.286 241.882 200.689C241.591 199.715 241.127 198.828 240.525 198.015C240.193 197.567 239.827 197.145 239.473 196.714C239.147 196.317 238.847 195.905 238.661 195.42C238.256 194.371 238.451 193.437 239.198 192.608C240.085 191.624 241.515 191.344 241.591 191.284Z" fill="#14F195"/>
<path d="M254.853 192.42C256.848 192.034 258.605 192.218 260.108 193.024C261.554 193.792 262.593 195.038 263.192 196.718L260.644 197.211C260.132 196.113 259.411 195.354 258.487 194.959C257.562 194.564 256.501 194.495 255.251 194.737C253.4 195.095 252.126 195.99 251.435 197.446C250.769 198.772 250.643 200.443 251.029 202.438C251.429 204.506 252.169 206.009 253.253 206.972C254.399 207.997 255.934 208.324 257.858 207.952C259.108 207.71 260.105 207.192 260.802 206.409C261.537 205.568 261.943 204.442 262.019 203.031L264.568 202.538C264.569 204.608 263.982 206.343 262.782 207.747C261.664 209.061 260.18 209.897 258.328 210.255C255.515 210.799 253.223 210.295 251.46 208.79C249.912 207.493 248.911 205.542 248.409 202.945C247.915 200.397 248.141 198.208 249.127 196.346C250.216 194.24 252.112 192.95 254.853 192.42ZM270.35 194.335C270.975 194.214 271.547 194.203 272.021 194.336L272.514 196.885C271.852 196.813 271.237 196.857 270.66 196.969C269.891 197.118 269.254 197.565 268.774 198.307C268.255 199.106 268.114 200.056 268.324 201.138L269.598 207.725L267.05 208.218L264.645 195.788L267.193 195.295L267.556 197.17C267.738 196.437 268.049 195.853 268.465 195.423C268.949 194.831 269.581 194.484 270.35 194.335ZM278.045 192.846C279.873 192.493 281.307 192.689 282.35 193.435C283.249 194.084 283.857 195.164 284.15 196.679L285.685 204.613L283.328 205.069L282.989 203.314C282.629 204.032 282.126 204.653 281.474 205.153C280.731 205.696 279.811 206.099 278.705 206.313C277.407 206.564 276.332 206.423 275.485 205.913C274.566 205.417 274.019 204.65 273.819 203.616C273.549 202.222 273.892 201.033 274.854 200.074C275.724 199.157 277.097 198.517 278.915 198.116L281.69 197.504L281.593 196.999C281.258 195.268 280.152 194.584 278.277 194.947C277.484 195.1 276.862 195.37 276.437 195.751C275.925 196.2 275.663 196.774 275.653 197.5L273.087 197.772C273.091 196.374 273.569 195.234 274.506 194.404C275.308 193.65 276.507 193.144 278.045 192.846ZM282.048 199.355L279.442 199.934C277.119 200.434 276.123 201.474 276.421 203.013C276.514 203.494 276.78 203.841 277.25 204.075C277.695 204.313 278.256 204.379 278.905 204.253C279.987 204.044 280.836 203.531 281.48 202.733C282.123 201.935 282.374 201.038 282.188 200.076L282.048 199.355ZM291.349 190.272C294.427 189.677 296.315 191.058 296.976 194.472L298.46 202.141L295.911 202.634L294.469 195.181C294.06 193.065 292.869 192.198 290.946 192.57C290.224 192.71 289.622 193.076 289.195 193.707C288.73 194.396 288.523 195.259 288.622 196.287L290.069 203.765L287.52 204.258L285.115 191.828L287.664 191.335L287.961 192.873C288.321 192.155 288.786 191.591 289.351 191.158C289.911 190.7 290.58 190.421 291.349 190.272ZM303.086 188.001C305.106 187.611 306.799 187.982 308.127 189.171C309.33 190.236 310.17 191.869 310.622 194.076L301.197 195.9C301.526 197.083 302.02 197.961 302.723 198.498C303.421 199.012 304.279 199.195 305.289 198.999C306.179 198.827 306.858 198.471 307.332 197.955C307.7 197.535 307.953 196.912 308.15 196.126L310.699 195.633C310.634 196.843 310.271 197.936 309.555 198.872C308.654 200.019 307.377 200.765 305.718 201.086C303.89 201.44 302.312 201.147 301.036 200.221C299.649 199.242 298.76 197.743 298.365 195.699C298.007 193.848 298.238 192.207 299.102 190.743C299.913 189.264 301.259 188.355 303.086 188.001ZM303.563 190.079C302.601 190.265 301.907 190.674 301.442 191.363C301.02 192.018 300.813 192.881 300.873 193.967L307.581 192.669C306.922 190.552 305.583 189.689 303.563 190.079Z" fill="white"/>
</g>
<mask id="mask1_4206_134729" style="mask-type:alpha" maskUnits="userSpaceOnUse" x="553" y="113" width="346" height="491">
<rect x="614.281" y="110.594" width="289.546" height="460.197" rx="19.9024" transform="rotate(7.85507 614.281 110.594)" fill="#F8F8F8"/>
</mask>
<g mask="url(#mask1_4206_134729)">
<g clip-path="url(#clip4_4206_134729)">
<rect width="289.546" height="461.595" transform="translate(614.469 109.209) rotate(7.85507)" fill="#272727"/>
<path d="M928.462 478.042C939.407 400.164 884.984 327.943 807.106 316.998C729.229 306.053 657.007 360.476 646.062 438.353C635.117 516.231 689.54 588.453 767.418 599.398C845.295 610.343 917.517 555.92 928.462 478.042ZM871.29 523.074L857.319 527.422L839.123 524.864L831.35 511.525L831.038 511.111L822.28 499.487C821.654 498.656 820.251 498.089 819.159 497.935L804.818 499.632C803.675 499.841 802.845 500.467 802.379 501.145C800.981 503.175 798.802 505.468 798.023 505.728C796.203 505.472 788.452 502.527 783.148 500.668L774.799 486.135C774.173 485.304 773.549 484.476 772.455 484.323C771.726 484.22 763.874 482.003 758.479 486.07C757.183 487.369 756.818 487.318 756.818 487.318L756.089 487.215L753.906 486.908L746.265 485.835C744.082 485.528 742.42 486.778 742.113 488.963L739.403 508.251C738.38 515.529 747.114 516.756 751.118 517.319C752.938 517.575 760.324 520.469 765.63 522.328C767.77 525.597 769.493 529.179 769.702 530.321C769.6 531.05 768.667 532.402 767.736 533.757C766.338 535.787 764.939 537.816 764.581 540.365C764.377 541.82 762.301 543.384 760.846 543.18C759.026 542.924 756.007 540.644 754.34 539.296C753.66 538.831 753.297 538.78 752.934 538.728L744.348 533.81C743.307 533.293 741.85 533.088 741.022 533.712C740.191 534.339 739.309 535.328 739.104 536.785L738.133 543.7C738.03 544.428 737.463 545.832 736.944 546.872C735.755 550.045 734.203 553.166 736.079 555.658C736.028 556.021 736.391 556.072 736.34 556.437C734.834 556.596 733.275 557.12 731.199 558.684C727.881 561.184 727.881 561.184 725.698 560.878L723.878 560.622C721.695 560.315 720.033 561.565 719.726 563.75C719.624 564.479 719.885 565.256 720.148 566.036L719.994 567.128C678.361 541.235 653.352 492.075 660.615 440.4C664.144 415.289 675.112 392.709 690.609 374.847L698.548 392.292C699.123 393.486 700.112 394.368 701.204 394.521L721.583 397.385C726.422 399.922 731.887 403.286 733.865 405.05C733.814 405.413 733.814 405.413 733.4 405.728C732.365 407.808 731.178 410.981 732.587 414.148C733.785 416.173 735.767 417.934 738.624 418.709C746.84 420.976 759.923 415.023 763.143 413.247L775.561 412.023C781.594 413.984 788.304 416.413 790.022 417.395C790.648 418.226 791.949 419.522 794.554 422.114C797.159 424.707 801.691 429.426 802.629 430.671C803.414 433.007 805.809 434.457 810.073 435.799C814.702 437.193 817.926 438.016 820.472 438.374C824.838 438.987 826.083 438.049 826.551 437.372C827.382 436.746 831.112 431.334 837.689 421.495C838.206 420.455 838.359 419.363 838.15 418.221C837.94 417.078 836.951 416.196 835.857 416.042C833.359 415.321 828.835 413.2 827.582 411.54C827.007 410.346 828.452 405.354 829.487 403.273C831.824 402.488 839.562 400.237 840.704 400.024C841.067 400.075 841.847 399.815 848.962 396.732L855.327 406.905C856.265 408.15 857.671 408.717 859.176 408.559C860.319 408.349 866.812 407.033 869.719 404.845C871.378 403.595 874.285 401.405 868.422 382.395C868.473 382.032 868.161 381.616 867.846 381.201L860.653 371.655C859.403 369.996 857.217 369.689 852.851 369.076C849.211 368.564 844.482 367.899 842.087 366.45C832.823 361.065 830.947 358.576 830.686 357.796C831.202 356.755 833.227 355.554 836.86 353.468C838.105 352.53 838.884 352.269 839.715 351.643C840.597 350.654 842.512 347.584 843.752 344.046C891.984 367.897 921.727 420.319 913.85 476.363C910.986 496.742 903.13 515.679 891.991 531.556L873.834 523.438C873.208 522.605 872.428 522.865 871.286 523.075L871.29 523.074Z" fill="white"/>
<path d="M717.748 466.983C717.538 465.84 716.6 464.595 715.143 464.39L704.793 461.45L704.43 461.399L690.6 459.455C688.78 459.199 687.172 460.086 686.551 461.855L680.765 476.628C680.249 477.669 680.509 478.449 680.719 479.591C681.345 480.422 681.969 481.25 683.063 481.404C687.327 482.746 692.217 484.917 693.521 486.213C693.526 488.813 695.141 490.523 698.731 491.398L699.822 491.551L699.669 492.643C698.85 498.466 695.069 504.243 695.069 504.243C694.136 505.595 694.246 507.466 695.184 508.711C695.496 509.125 699.302 513.743 704.032 514.407C708.398 515.021 711.612 510.647 714.823 506.276C716.221 504.246 718.036 501.902 719.23 501.33L720.475 500.391C722.965 498.515 725.872 496.325 726.332 493.05C726.588 491.23 726.115 489.308 724.55 487.234C723.036 484.798 719.373 473.89 717.748 466.983Z" fill="white"/>
<path d="M945.065 460.335L945.428 460.386C947.299 460.279 949.009 458.663 948.902 456.792C948.74 384.032 900.729 321.619 831.459 302.235L833.249 289.496L816.231 302.321L829.055 319.339L830.436 309.513C896.068 328.385 941.573 387.476 942.25 456.598C941.991 458.418 943.607 460.131 945.061 460.335L945.065 460.335Z" fill="white"/>
<path d="M652.711 409.597L640.701 407.909C662.697 343.83 723.978 301.23 792.325 303.413C794.145 303.669 795.856 302.053 796.163 299.87C796.055 297.999 794.803 296.34 792.62 296.033C720.581 293.703 655.928 339.167 633.422 406.886L623.233 405.454L636.057 422.472L652.711 409.597Z" fill="white"/>
<path d="M746.613 615.401L744.562 627.359L761.893 614.952L749.485 597.621L747.637 608.122C674.989 589.005 625.508 518.593 633.081 443.58C633.388 441.397 631.773 439.684 629.953 439.429C627.77 439.122 626.057 440.737 625.801 442.557C618.031 521.624 669.964 595.722 746.612 615.4L746.613 615.401Z" fill="white"/>
<path d="M927.518 492.751L937.708 494.183C920.513 566.358 853.637 617.079 778.892 612.883C776.709 612.576 774.996 614.191 775.055 616.426C774.799 618.246 776.415 619.956 778.235 620.212L778.598 620.263C857.397 624.659 927.594 571.435 945.351 495.256L957.36 496.944L944.536 479.926L927.518 492.751Z" fill="white"/>
</g>
<path d="M840.389 184.004L821.734 181.431L817.11 214.953L835.764 217.527L840.389 184.004Z" fill="#FF5F00"/>
<path d="M820.597 198.352C821.04 195.123 822.211 192.037 824.023 189.328C825.834 186.619 828.238 184.357 831.053 182.714C828.249 179.808 824.684 177.75 820.765 176.774C816.847 175.799 812.733 175.945 808.893 177.197C805.054 178.449 801.645 180.756 799.054 183.854C796.464 186.952 794.798 190.716 794.246 194.717C793.694 198.717 794.279 202.792 795.934 206.475C797.588 210.159 800.246 213.303 803.602 215.548C806.959 217.792 810.88 219.047 814.916 219.169C818.952 219.291 822.942 218.275 826.428 216.237C824.163 213.893 822.461 211.065 821.451 207.966C820.441 204.868 820.149 201.58 820.597 198.352V198.352Z" fill="#EB001B"/>
<path d="M863.239 204.235C862.687 208.235 861.021 212 858.431 215.098C855.841 218.196 852.432 220.503 848.593 221.755C844.754 223.007 840.64 223.153 836.721 222.178C832.803 221.202 829.238 219.144 826.434 216.238C829.247 214.592 831.649 212.33 833.46 209.621C835.271 206.912 836.444 203.828 836.889 200.6C837.334 197.372 837.041 194.085 836.031 190.987C835.021 187.889 833.321 185.061 831.059 182.715C834.545 180.677 838.534 179.661 842.57 179.783C846.606 179.905 850.527 181.16 853.884 183.404C857.24 185.649 859.898 188.793 861.552 192.476C863.207 196.16 863.791 200.235 863.239 204.235V204.235Z" fill="#F79E1B"/>
<path d="M859.361 217.163L859.455 216.477L859.732 216.515L859.751 216.375L859.047 216.278L859.027 216.418L859.304 216.456L859.21 217.142L859.361 217.163ZM860.729 217.352L860.843 216.524L860.627 216.494L860.3 217.029L860.13 216.426L859.914 216.396L859.8 217.223L859.952 217.245L860.038 216.62L860.197 217.191L860.355 217.212L860.663 216.705L860.577 217.331L860.729 217.352Z" fill="#F79E1B"/>
<rect x="632.156" y="144.979" width="150.861" height="62.9688" rx="31.4844" transform="rotate(7.8549 632.156 144.979)" fill="#272727"/>
<rect x="629.859" y="144.797" width="124.258" height="50.1645" rx="25.0823" transform="rotate(7.8549 629.859 144.797)" fill="#14F195"/>
<path d="M663.471 162.195C663.471 162.195 658.067 160.39 658.023 164.784C658.019 165.237 658.321 165.641 658.473 166.068C658.689 166.671 658.665 166.667 658.867 167.274C659.006 167.691 659.044 168.123 658.972 168.563C658.872 169.172 658.415 169.605 657.817 169.638C657.426 169.66 657.076 169.526 656.743 169.339C656.316 169.099 655.978 168.76 655.682 168.374C655.411 168.019 655.106 167.696 654.732 167.447C654.11 167.032 653.436 166.969 652.725 167.154C652.276 167.271 651.861 167.467 651.449 167.672C650.489 168.15 649.568 168.693 648.698 169.321C647.442 170.228 646.328 171.284 645.38 172.51C644.626 173.484 643.995 174.532 643.49 175.655C643.216 176.265 643.003 176.896 642.834 177.544C642.68 178.138 642.559 178.738 642.491 179.348C642.424 179.951 642.616 180.296 643.166 180.547C643.596 180.744 644.051 180.845 644.521 180.892C645.39 180.98 646.277 180.996 647.099 180.727C654.997 178.137 656.832 164.048 646.329 173.709C645.714 174.275 644.003 177.013 644.003 177.013C644.003 177.013 644.886 174.81 645.275 174.179C646.037 172.941 646.85 171.766 647.935 170.806C649.041 169.826 650.259 169.011 651.584 168.358C652.063 168.122 652.571 167.985 653.107 167.985C653.748 167.987 654.323 168.189 654.834 168.574C655.424 169.019 655.85 169.601 656.204 170.238C656.739 171.203 657.018 172.24 657.028 173.342C657.043 175.046 656.491 176.547 655.362 177.828C654.306 179.026 653.4 179.826 651.969 180.542C650.992 181.032 649.96 181.355 648.894 181.585C648.05 181.767 647.206 181.953 646.345 182.036C645.722 182.097 645.099 182.109 644.474 182.049C643.882 181.991 643.304 181.882 642.758 181.638C641.813 181.215 641.343 180.476 641.31 179.45C641.294 178.949 641.381 178.462 641.494 177.977C641.678 177.194 641.917 176.43 642.211 175.682C642.945 173.822 644.001 172.165 645.359 170.699C646.357 169.622 647.488 168.704 648.693 167.873C649.3 167.455 649.913 167.048 650.568 166.709C651.188 166.389 651.824 166.106 652.51 165.961C653.641 165.721 654.658 165.989 655.58 166.668C656.025 166.996 656.39 167.406 656.762 167.81C656.932 167.994 657.123 168.159 657.308 168.328C657.362 168.377 657.427 168.415 657.493 168.448C657.662 168.531 657.846 168.442 657.859 168.253C657.87 168.088 657.868 167.912 657.824 167.754C657.737 167.445 657.622 167.143 657.509 166.843C657.265 166.191 657.252 166.151 657.02 165.495C656.822 164.938 656.728 164.356 656.735 163.763C656.746 162.697 657.081 161.749 657.765 160.927C658.079 160.549 658.431 160.216 658.876 159.993C659.452 159.704 660.057 159.608 660.689 159.733C661.283 159.851 661.782 160.145 662.181 160.599C663.328 161.907 666.954 162.516 666.954 162.516C666.954 162.516 661.786 163.427 661.325 163.684C660.931 163.903 660.647 164.213 660.534 164.662C660.447 165.003 660.469 165.343 660.535 165.682C660.627 166.154 660.807 166.598 660.973 167.046C661.173 167.589 661.392 168.127 661.564 168.679C661.812 169.473 661.918 170.292 661.904 171.126C661.897 171.578 661.848 172.026 661.762 172.468C661.584 173.388 661.24 174.246 660.775 175.058C660.174 176.107 659.39 177.011 658.549 177.87C657.602 178.835 656.582 179.717 655.51 180.539C654.931 180.984 654.337 181.407 653.754 181.847C652.744 182.607 652.351 183.386 652.124 183.968C651.37 185.891 652.405 187.882 652.405 187.882C652.405 187.882 650.451 185.929 651.398 183.07C651.504 182.75 652.084 181.842 652.615 181.333C653.099 180.868 653.614 180.488 654.149 180.082C655.134 179.334 656.101 178.564 657.01 177.726C657.739 177.054 658.445 176.359 659.052 175.571C659.648 174.797 660.106 173.949 660.389 173.012C660.569 172.417 660.667 171.807 660.692 171.185C660.733 170.169 660.583 169.179 660.277 168.215C660.109 167.684 659.899 167.166 659.705 166.643C659.526 166.162 659.376 165.674 659.357 165.155C659.315 164.032 659.803 163.212 660.778 162.67C661.937 162.028 663.38 162.228 663.471 162.195Z" fill="#101010"/>
<path d="M679.695 168.021C681.708 168.304 683.31 169.049 684.469 170.3C685.587 171.496 686.165 173.011 686.187 174.795L683.616 174.433C683.489 173.229 683.054 172.277 682.308 171.603C681.561 170.93 680.58 170.52 679.319 170.343C677.452 170.08 675.957 170.513 674.831 171.665C673.77 172.703 673.108 174.243 672.825 176.255C672.532 178.341 672.744 180.003 673.457 181.265C674.208 182.607 675.553 183.415 677.493 183.687C678.754 183.865 679.866 183.699 680.779 183.185C681.747 182.628 682.497 181.695 683.027 180.385L685.598 180.746C684.927 182.704 683.808 184.154 682.217 185.093C680.733 185.973 679.058 186.281 677.19 186.019C674.353 185.62 672.349 184.399 671.17 182.403C670.127 180.674 669.814 178.503 670.182 175.884C670.543 173.313 671.467 171.316 673.005 169.876C674.719 168.237 676.931 167.633 679.695 168.021ZM693.73 174.866C694.361 174.954 694.905 175.13 695.311 175.409L694.95 177.98C694.346 177.697 693.75 177.539 693.168 177.458C692.392 177.348 691.645 177.565 690.95 178.11C690.2 178.697 689.758 179.55 689.605 180.641L688.671 187.286L686.1 186.925L687.862 174.387L690.433 174.749L690.167 176.64C690.578 176.005 691.062 175.554 691.594 175.283C692.245 174.879 692.954 174.757 693.73 174.866ZM701.492 175.957C703.335 176.216 704.629 176.867 705.372 177.911C706.011 178.817 706.236 180.036 706.021 181.564L704.896 189.566L702.52 189.232L702.769 187.462C702.195 188.024 701.517 188.448 700.738 188.71C699.859 188.982 698.859 189.064 697.743 188.907C696.434 188.723 695.463 188.241 694.827 187.484C694.119 186.716 693.85 185.813 693.997 184.77C694.195 183.364 694.906 182.351 696.127 181.756C697.248 181.171 698.754 181.012 700.604 181.223L703.427 181.545L703.499 181.036C703.744 179.29 702.921 178.284 701.029 178.018C700.229 177.906 699.554 177.959 699.028 178.182C698.398 178.44 697.963 178.898 697.719 179.581L695.203 179.005C695.661 177.684 696.483 176.761 697.638 176.28C698.642 175.828 699.94 175.738 701.492 175.957ZM703.165 183.413L700.511 183.114C698.152 182.832 696.872 183.493 696.654 185.045C696.586 185.53 696.725 185.945 697.093 186.318C697.437 186.688 697.946 186.933 698.601 187.025C699.693 187.178 700.662 186.968 701.53 186.422C702.398 185.877 702.926 185.11 703.062 184.14L703.165 183.413ZM714.911 177.842C718.015 178.279 719.353 180.198 718.869 183.641L717.782 191.377L715.211 191.016L716.267 183.498C716.567 181.364 715.723 180.158 713.783 179.885C713.056 179.783 712.367 179.933 711.758 180.392C711.094 180.892 710.618 181.641 710.378 182.646L709.318 190.188L706.747 189.827L708.51 177.289L711.08 177.65L710.862 179.202C711.436 178.64 712.058 178.258 712.733 178.031C713.411 177.78 714.135 177.733 714.911 177.842ZM726.749 179.506C728.786 179.793 730.267 180.693 731.137 182.25C731.929 183.647 732.193 185.465 731.904 187.699L722.398 186.363C722.324 187.589 722.507 188.579 722.997 189.316C723.49 190.028 724.243 190.48 725.261 190.623C726.158 190.749 726.917 190.633 727.532 190.299C728.017 190.021 728.459 189.515 728.9 188.835L731.471 189.196C731.016 190.319 730.319 191.235 729.337 191.888C728.113 192.681 726.662 192.972 724.989 192.736C723.146 192.477 721.748 191.687 720.842 190.398C719.848 189.022 719.494 187.315 719.784 185.254C720.046 183.386 720.798 181.909 722.091 180.805C723.338 179.67 724.906 179.247 726.749 179.506ZM726.526 181.626C725.556 181.49 724.766 181.651 724.102 182.151C723.491 182.634 723.014 183.383 722.719 184.43L729.485 185.381C729.549 183.164 728.563 181.913 726.526 181.626Z" fill="#101010"/>
</g>
</g>
<defs>
<clipPath id="clip0_4206_134729">
<rect width="1079.06" height="714.721" fill="white" transform="translate(0.875 0.958984)"/>
</clipPath>
<clipPath id="clip1_4206_134729">
<rect width="1184.99" height="784.883" fill="white" transform="translate(0.875 -69.2031)"/>
</clipPath>
<clipPath id="clip2_4206_134729">
<rect width="1098.17" height="2806.92" fill="white" transform="translate(0.875 -69.2031)"/>
</clipPath>
<clipPath id="clip3_4206_134729">
<rect width="289.546" height="461.595" fill="white" transform="translate(179.438 158.539) rotate(-10.9498)"/>
</clipPath>
<clipPath id="clip4_4206_134729">
<rect width="289.546" height="461.595" fill="white" transform="translate(614.469 109.209) rotate(7.85507)"/>
</clipPath>
</defs>
</svg>
