<svg width="1080" height="716" viewBox="0 0 1080 716" fill="none" xmlns="http://www.w3.org/2000/svg">
<g clip-path="url(#clip0_4206_133924)">
<g clip-path="url(#clip1_4206_133924)">
<rect x="-388.094" y="1" width="1855.84" height="712.559" fill="#3A3A3A"/>
<path d="M858.671 539.518C858.671 540.817 858.151 542.061 857.235 542.977L734.103 666.113C732.189 668.023 732.189 671.124 734.103 673.035L857.235 796.166C858.151 797.086 858.671 798.331 858.671 799.629V920.738C858.671 923.435 856.478 925.629 853.772 925.629H732.664C731.369 925.629 730.124 925.117 729.204 924.197L478.042 673.035C476.132 671.124 476.132 668.023 478.042 666.113L729.204 414.95C730.124 414.031 731.369 413.519 732.664 413.519H853.772C856.478 413.519 858.671 415.708 858.671 418.409V539.518Z" stroke="#14F195" stroke-opacity="0.5" stroke-width="4.16225"/>
<path d="M221.156 27.4048C221.156 28.7034 221.672 29.9479 222.588 30.8636L345.724 154C347.635 155.91 347.635 159.007 345.724 160.917L222.588 284.053C221.672 284.973 221.156 286.217 221.156 287.516V408.621C221.156 411.326 223.346 413.516 226.051 413.516H347.156C348.455 413.516 349.699 413 350.619 412.084L601.781 160.917C603.692 159.007 603.692 155.91 601.781 154L350.619 -97.1629C349.699 -98.0828 348.455 -98.5989 347.156 -98.5989H226.051C223.346 -98.5989 221.156 -96.4054 221.156 -93.7041V27.4048Z" stroke="#14F195" stroke-opacity="0.5" stroke-width="4.16225"/>
<path d="M89.5266 539.518C89.5266 540.817 89.0105 542.061 88.0948 542.977L-35.0411 666.113C-36.9516 668.023 -36.9516 671.124 -35.0411 673.035L88.0948 796.166C89.0105 797.086 89.5266 798.331 89.5266 799.629V920.738C89.5266 923.435 87.3373 925.629 84.636 925.629H-36.4729C-37.7715 925.629 -39.0161 925.117 -39.9318 924.197L-291.098 673.035C-293.009 671.124 -293.009 668.023 -291.098 666.113L-39.9318 414.95C-39.0161 414.031 -37.7715 413.519 -36.4729 413.519H84.636C87.3373 413.519 89.5266 415.708 89.5266 418.409V539.518Z" stroke="#14F195" stroke-opacity="0.5" stroke-width="4.16225"/>
<path d="M1243.75 539.518C1243.75 540.817 1243.25 542.061 1242.33 542.977L1119.17 666.113C1117.3 668.023 1117.3 671.124 1119.17 673.035L1242.33 796.166C1243.25 797.086 1243.75 798.331 1243.75 799.629V920.738C1243.75 923.435 1241.54 925.629 1238.88 925.629H1117.75C1116.46 925.629 1115.22 925.117 1114.3 924.197L863.108 673.035C861.235 671.124 861.235 668.023 863.108 666.113L1114.3 414.95C1115.22 414.031 1116.46 413.519 1117.75 413.519H1238.88C1241.54 413.519 1243.75 415.708 1243.75 418.409V539.518Z" stroke="#14F195" stroke-opacity="0.5" stroke-width="4.16225"/>
<path d="M-163.922 27.4048C-163.922 28.7034 -163.406 29.9479 -162.486 30.8636L-39.3541 154C-37.4395 155.91 -37.4395 159.007 -39.3541 160.917L-162.486 284.053C-163.406 284.973 -163.922 286.217 -163.922 287.516V408.621C-163.922 411.326 -161.728 413.516 -159.027 413.516H-37.9182C-36.6195 413.516 -35.375 413 -34.4593 412.084L216.703 160.917C218.614 159.007 218.614 155.91 216.703 154L-34.4593 -97.1629C-35.375 -98.0828 -36.6195 -98.5989 -37.9182 -98.5989H-159.027C-161.728 -98.5989 -163.922 -96.4054 -163.922 -93.7041V27.4048Z" stroke="#14F195" stroke-opacity="0.5" stroke-width="4.16225"/>
<path d="M990.312 27.4048C990.312 28.7034 990.812 29.9479 991.728 30.8636L1114.89 154C1116.8 155.91 1116.8 159.007 1114.89 160.917L991.728 284.053C990.812 284.973 990.312 286.217 990.312 287.516V408.621C990.312 411.326 992.519 413.516 995.224 413.516H1116.3C1117.59 413.516 1118.84 413 1119.76 412.084L1370.95 160.917C1372.86 159.007 1372.86 155.91 1370.95 154L1119.76 -97.1629C1118.84 -98.0828 1117.59 -98.5989 1116.3 -98.5989H995.224C992.519 -98.5989 990.312 -96.4054 990.312 -93.7041V27.4048Z" stroke="#14F195" stroke-opacity="0.5" stroke-width="4.16225"/>
<path d="M474.572 539.518C474.572 540.817 474.06 542.061 473.141 542.977L350.005 666.113C348.094 668.023 348.094 671.124 350.005 673.035L473.141 796.166C474.06 797.086 474.572 798.331 474.572 799.629V920.738C474.572 923.435 472.383 925.629 469.682 925.629H348.573C347.274 925.629 346.03 925.117 345.114 924.197L93.9516 673.035C92.037 671.124 92.037 668.023 93.9516 666.113L345.114 414.95C346.03 414.031 347.274 413.519 348.573 413.519H469.682C472.383 413.519 474.572 415.708 474.572 418.409V539.518Z" stroke="#14F195" stroke-opacity="0.5" stroke-width="4.16225"/>
<path d="M605.234 27.4048C605.234 28.7034 605.734 29.9479 606.649 30.8636L729.811 154C731.725 155.91 731.725 159.007 729.811 160.917L606.649 284.053C605.734 284.973 605.234 286.217 605.234 287.516V408.621C605.234 411.326 607.441 413.516 610.104 413.516H731.226C732.516 413.516 733.764 413 734.68 412.084L985.872 160.917C987.786 159.007 987.786 155.91 985.872 154L734.68 -97.1629C733.764 -98.0828 732.516 -98.5989 731.226 -98.5989H610.104C607.441 -98.5989 605.234 -96.4054 605.234 -93.7041V27.4048Z" stroke="#14F195" stroke-opacity="0.5" stroke-width="4.16225"/>
<path d="M1128.43 357.626L1120.79 350.653C1093.69 325.98 1075.8 309.655 1075.8 289.737C1075.8 273.412 1088.53 260.68 1104.74 260.68C1113.9 260.68 1122.69 264.959 1128.43 271.669C1134.16 264.959 1142.95 260.68 1152.11 260.68C1168.32 260.68 1181.05 273.412 1181.05 289.737C1181.05 309.655 1163.16 325.98 1136.06 350.653L1128.43 357.626Z" fill="#14F195"/>
</g>
<rect width="1072" height="716" transform="translate(3 -1)" fill="url(#paint0_linear_4206_133924)"/>
<path d="M909.259 239V217.889H902.766V214.193H919.948V217.889H913.488V239H909.259ZM928.679 239.4C923.418 239.4 919.256 235.437 919.256 230.01C919.256 224.582 923.385 220.653 928.679 220.653C933.941 220.653 938.103 224.582 938.103 230.01C938.103 235.437 933.907 239.4 928.679 239.4ZM928.679 235.704C931.71 235.704 933.941 233.339 933.941 230.043C933.941 226.746 931.71 224.349 928.679 224.349C925.616 224.349 923.418 226.746 923.418 230.043C923.418 233.339 925.616 235.704 928.679 235.704ZM954.722 214.193H958.717V239H954.921V236.902C953.589 238.501 951.425 239.4 949.028 239.4C943.866 239.4 939.937 235.337 939.937 230.043C939.937 224.715 943.933 220.653 948.994 220.653C951.392 220.653 953.456 221.519 954.722 223.05V214.193ZM949.427 235.704C952.491 235.704 954.722 233.373 954.722 230.043C954.722 226.746 952.491 224.349 949.427 224.349C946.331 224.349 944.1 226.746 944.1 230.043C944.1 233.339 946.331 235.704 949.427 235.704ZM969.819 220.653C974.181 220.653 977.178 223.283 977.178 227.013V239H973.416V237.002C972.084 238.6 970.252 239.4 968.088 239.4C964.092 239.4 961.561 237.135 961.561 234.072C961.561 231.408 963.659 229.643 967.289 228.844L973.182 227.579V227.013C973.182 225.348 971.817 224.249 969.819 224.249C967.888 224.249 966.356 225.315 965.69 227.013L962.227 225.281C963.26 222.551 966.257 220.653 969.819 220.653ZM968.554 236.236C971.218 236.236 973.182 234.305 973.182 231.774V230.609L968.088 231.741C966.589 232.074 965.724 232.94 965.724 234.039C965.724 235.404 966.823 236.236 968.554 236.236ZM992.734 221.052H997.096L989.104 241.098C988.305 243.062 986.906 246.326 982.378 246.326C981.412 246.326 980.48 246.192 979.747 245.859V242.496C980.247 242.629 981.113 242.763 981.812 242.763C984.109 242.763 984.709 241.431 985.175 240.332L985.774 238.933L978.715 221.052H983.077L987.905 233.739L992.734 221.052Z" fill="white"/>
<path d="M837.489 293.524V286.448H830.455V282.036H837.489V275.002H841.942V282.036H848.977V286.448H841.942V293.524H837.489ZM859.23 299.31V272.796H853.403V268.342L864.516 268.301V299.31H859.23ZM884.404 299.809C876.995 299.809 871.959 293.399 871.959 283.784C871.959 274.17 876.953 267.801 884.362 267.801C891.854 267.801 896.807 274.211 896.807 283.784C896.807 293.358 891.896 299.809 884.404 299.809ZM884.404 294.981C888.857 294.981 891.605 290.735 891.605 283.784C891.605 276.875 888.857 272.63 884.362 272.63C879.95 272.63 877.203 276.875 877.203 283.784C877.203 290.694 879.992 294.981 884.404 294.981ZM901.99 299.31V293.691H907.152V299.31H901.99ZM917.315 299.31V272.796H911.488V268.342L922.601 268.301V299.31H917.315ZM941.073 279.164C947.067 279.164 951.312 283.285 951.312 289.112C951.312 295.314 946.651 299.809 940.282 299.809C935.288 299.809 931.125 297.145 929.585 292.983L933.748 290.694C934.788 293.358 937.369 295.064 940.282 295.064C943.654 295.064 946.026 292.775 946.026 289.362C946.026 285.99 943.695 283.701 940.241 283.701C938.076 283.701 936.287 284.658 935.454 286.407L931.5 285.449L933.956 268.301H950.355V272.754L937.619 272.713L936.536 280.371C937.743 279.581 939.242 279.164 941.073 279.164ZM964.653 283.202C960.407 283.202 956.953 279.747 956.953 275.502C956.953 271.256 960.366 267.801 964.653 267.801C968.898 267.801 972.311 271.256 972.311 275.502C972.311 279.747 968.857 283.202 964.653 283.202ZM965.569 299.31L979.429 268.301H984.465L970.605 299.31H965.569ZM964.653 278.998C966.568 278.998 968.149 277.416 968.149 275.502C968.149 273.587 966.568 272.005 964.653 272.005C962.697 272.005 961.157 273.587 961.157 275.502C961.157 277.416 962.697 278.998 964.653 278.998ZM985.756 299.809C981.51 299.809 978.097 296.396 978.097 292.109C978.097 287.863 981.51 284.45 985.756 284.45C990.043 284.45 993.456 287.863 993.456 292.109C993.456 296.396 990.043 299.809 985.756 299.809ZM985.756 295.605C987.712 295.605 989.252 294.065 989.252 292.109C989.252 290.194 987.712 288.613 985.756 288.613C983.841 288.613 982.259 290.194 982.259 292.109C982.259 294.065 983.841 295.605 985.756 295.605Z" fill="white"/>
<g clip-path="url(#clip2_4206_133924)">
<path d="M250.008 554.85C236.648 608.45 182.342 641.033 128.819 627.671C75.2171 614.31 42.6343 560.007 55.996 506.485C69.3569 452.885 123.583 420.302 177.185 433.663C230.708 446.946 263.37 501.249 250.008 554.85Z" fill="url(#paint1_linear_4206_133924)"/>
<path d="M196.572 507.818C195.488 494.438 184.051 489.701 169.429 488.186L169.784 469.583L158.512 469.379L158.204 487.49C155.229 487.456 152.178 487.438 149.145 487.497L149.436 469.309L138.164 469.105L137.867 487.615C135.384 487.627 132.977 487.622 130.647 487.598L130.629 487.522L115.018 487.278L114.837 499.346C114.837 499.346 123.176 499.346 123.041 499.457C127.626 499.521 129.055 502.238 129.43 504.557L129.028 525.737C129.35 525.743 129.748 525.731 130.258 525.854C129.86 525.866 129.461 525.877 129.046 525.813L128.51 555.443C128.276 556.86 127.362 559.156 124.218 559.08C124.329 559.214 116.014 558.969 116.014 558.969L113.515 572.455L128.254 572.741C131 572.828 133.653 572.857 136.323 572.962L136.003 591.718L147.275 591.922L147.63 573.319C150.699 573.412 153.767 573.505 156.666 573.558L156.369 592.068L167.641 592.272L167.961 573.516C187.022 572.724 200.407 568.19 202.303 550.353C203.889 536.036 197.242 529.472 186.49 526.662C193.201 523.43 197.381 517.573 196.572 507.818ZM180.045 547.714C179.83 561.715 155.798 559.727 148.144 559.569L148.575 534.694C156.229 534.852 180.348 533.052 180.045 547.714ZM175.433 512.458C175.183 525.264 155.185 523.386 148.82 523.252L149.228 500.708C155.593 500.842 175.655 499.177 175.433 512.458Z" fill="white"/>
</g>
<path d="M367.348 463.255C371.036 465.587 372.446 468.949 372.446 472.745C372.446 480.445 367.023 485 358.238 485H341.266V444.602H358.238C365.993 444.602 370.819 448.885 370.819 455.772C370.819 458.7 369.734 461.303 367.348 463.255ZM348.098 450.404V460.49H358.455C361.709 460.49 363.824 458.483 363.824 455.447C363.824 452.464 361.709 450.404 358.455 450.404H348.098ZM358.835 478.981C362.848 478.981 365.505 476.486 365.505 472.745C365.505 469.003 362.848 466.509 358.835 466.509H348.098V478.981H358.835ZM377.204 451.922V444.602H383.711V451.922H377.204ZM377.204 485V455.772H383.711V485H377.204ZM402.937 485.325C396.375 485.325 392.688 481.638 392.688 475.185V461.629H387.374V455.772H388.241C391.061 455.772 392.688 454.2 392.688 451.38V446.716H399.195V455.772H406.136V461.629H399.195V475.185C399.195 477.679 400.225 480.011 404.347 480.011C404.889 480.011 405.594 479.957 406.299 479.849V485.054C405.268 485.217 403.967 485.325 402.937 485.325ZM423.859 485.651C415.291 485.651 408.839 479.089 408.839 470.359C408.839 461.629 415.237 455.121 423.859 455.121C430.041 455.121 435.138 458.592 436.928 463.526L431.288 466.346C430.149 463.201 427.384 461.14 423.859 461.14C419.087 461.14 415.617 464.991 415.617 470.413C415.617 475.727 419.087 479.632 423.859 479.632C427.438 479.632 430.149 477.625 431.288 474.426L436.928 477.3C435.192 482.072 430.095 485.651 423.859 485.651ZM454.793 485.651C446.225 485.651 439.447 479.198 439.447 470.359C439.447 461.52 446.171 455.121 454.793 455.121C463.36 455.121 470.139 461.52 470.139 470.359C470.139 479.198 463.306 485.651 454.793 485.651ZM454.793 479.632C459.727 479.632 463.36 475.782 463.36 470.413C463.36 465.045 459.727 461.14 454.793 461.14C449.804 461.14 446.225 465.045 446.225 470.413C446.225 475.782 449.804 479.632 454.793 479.632ZM474.536 451.922V444.602H481.043V451.922H474.536ZM474.536 485V455.772H481.043V485H474.536ZM501.516 455.121C508.023 455.121 512.524 459.622 512.524 466.021V485H506.016V467.648C506.016 463.689 503.522 461.14 499.835 461.14C496.093 461.14 493.599 463.689 493.599 467.648V485H487.091V455.772H493.219V459.297C494.846 456.585 497.883 455.121 501.516 455.121Z" fill="white"/>
<path d="M558.429 462C558.429 463.494 558.144 464.935 557.572 466.316C557 467.698 556.182 468.915 555.125 469.973C554.068 471.03 552.85 471.847 551.468 472.42C550.087 472.992 548.646 473.277 547.152 473.277C545.658 473.277 544.217 472.992 542.836 472.42C541.454 471.847 540.236 471.03 539.179 469.973C538.122 468.915 537.304 467.698 536.732 466.316C536.16 464.935 535.875 463.494 535.875 462C535.875 460.506 536.16 459.065 536.732 457.683C537.304 456.302 538.122 455.084 539.179 454.027C540.236 452.97 541.454 452.152 542.836 451.58C544.217 451.007 545.658 450.723 547.152 450.723C548.646 450.723 550.087 451.007 551.468 451.58C552.85 452.152 554.068 452.97 555.125 454.027C556.182 455.084 557 456.302 557.572 457.683C558.144 459.065 558.429 460.506 558.429 462Z" fill="#14F195"/>
<path d="M608.497 463.255C612.184 465.587 613.594 468.949 613.594 472.745C613.594 480.445 608.171 485 599.387 485H582.414V444.602H599.387C607.141 444.602 611.967 448.885 611.967 455.772C611.967 458.7 610.883 461.303 608.497 463.255ZM589.246 450.404V460.49H599.604C602.857 460.49 604.972 458.483 604.972 455.447C604.972 452.464 602.857 450.404 599.604 450.404H589.246ZM599.983 478.981C603.996 478.981 606.653 476.486 606.653 472.745C606.653 469.003 603.996 466.509 599.983 466.509H589.246V478.981H599.983ZM626.187 485V450.621H615.613V444.602H643.593V450.621H633.073V485H626.187ZM665.57 485.651C654.02 485.651 645.452 476.812 645.452 464.774C645.452 452.735 653.965 443.951 665.57 443.951C674.083 443.951 680.373 448.831 682.434 454.471L676.361 457.399C674.68 453.115 670.83 450.133 665.57 450.133C657.707 450.133 652.284 456.097 652.284 464.774C652.284 473.504 657.707 479.469 665.57 479.469C670.83 479.469 674.68 476.486 676.361 472.203L682.434 475.131C680.373 480.77 674.083 485.651 665.57 485.651Z" fill="white"/>
<path d="M393.152 595.299C393.152 605.764 385.754 613.162 374.116 614.966V623.357H365.094V615.237C353.095 614.155 343.262 607.027 339.834 596.562L351.562 591.059C354.268 597.645 359.501 601.795 365.094 602.877V586.999L359.05 585.105C347.592 581.496 342.179 575.001 342.179 566.069C342.179 554.431 351.291 546.492 365.094 546.041V538.102H374.116V546.943C383.228 549.199 390.084 555.243 392.971 563.092L381.243 568.595C379.89 564.806 377.454 561.829 374.116 560.025V575.903L376.191 576.534C387.468 580.053 393.152 586.097 393.152 595.299ZM362.839 572.384L365.094 573.106V558.31C359.681 558.671 356.163 561.648 356.163 565.528C356.163 568.685 358.508 571.031 362.839 572.384ZM374.116 602.246C377.364 601.073 379.168 598.727 379.168 596.111C379.168 593.044 377.273 591.149 374.116 589.886V602.246ZM398.247 614.335L398.157 603.509L416.2 584.924C426.756 574.008 429.101 570.851 429.101 566.61C429.101 561.739 425.854 558.671 420.711 558.671C415.479 558.671 411.239 561.829 409.434 567.061L398.428 560.746C401.495 551.725 410.427 546.041 421.613 546.041C434.424 546.041 443.085 553.619 443.085 564.896C443.085 572.204 439.115 578.339 431.086 586.548L415.479 602.607H443.897V614.335H398.247ZM477.481 615.418C461.242 615.418 450.236 601.524 450.236 580.684C450.236 559.844 461.152 546.041 477.391 546.041C493.811 546.041 504.637 559.934 504.637 580.684C504.637 601.434 493.811 615.418 477.481 615.418ZM477.481 602.787C485.872 602.787 490.743 594.668 490.743 580.684C490.743 566.791 485.872 558.671 477.391 558.671C469.001 558.671 464.129 566.701 464.129 580.684C464.129 594.578 469.091 602.787 477.481 602.787ZM512.313 624.71L516.012 600.802H528.191L521.334 624.71H512.313ZM540.09 614.335L567.246 558.762H535.399V547.033H581.139V558.762L554.796 614.335H540.09ZM612.894 615.418C596.655 615.418 585.649 601.524 585.649 580.684C585.649 559.844 596.565 546.041 612.804 546.041C629.224 546.041 640.05 559.934 640.05 580.684C640.05 601.434 629.224 615.418 612.894 615.418ZM612.894 602.787C621.285 602.787 626.156 594.668 626.156 580.684C626.156 566.791 621.285 558.671 612.804 558.671C604.414 558.671 599.542 566.701 599.542 580.684C599.542 594.578 604.504 602.787 612.894 602.787ZM701.314 588.172V599.9H690.127V614.335H676.144V599.9H645.47V588.172L675.242 547.124H690.127V588.172H701.314ZM659.093 588.172H676.144V563.994L659.093 588.172ZM708.978 614.335V600.802H722.51V614.335H708.978ZM734.444 614.335L761.599 558.762H729.752V547.033H775.492V558.762L749.149 614.335H734.444ZM783.34 614.335L810.495 558.762H778.649V547.033H824.389V558.762L798.046 614.335H783.34Z" fill="white"/>
<path d="M114.828 108.06C106.836 108.06 100.752 103.337 99.4499 96.1628H107.23C108.229 99.4624 111.135 101.521 114.888 101.521C121.276 101.521 125.06 95.5574 125.06 85.5678C125.06 85.5678 124.848 85.5678 124.787 85.5678C124.757 85.5678 124.636 85.5678 124.636 85.5678H124.545C122.487 89.715 118.339 92.1064 113.223 92.1064C104.899 92.1064 98.8445 85.9916 98.8445 77.5761C98.8445 68.6157 105.565 62.2284 115.07 62.2284C121.457 62.2284 126.513 65.2556 129.449 70.8558C131.477 74.4581 132.537 79.1199 132.537 84.6596C132.537 99.3716 125.937 108.06 114.828 108.06ZM115.1 85.9007C120.095 85.9007 123.758 82.3287 123.758 77.455C123.758 72.5207 120.004 68.7368 115.131 68.7368C110.257 68.7368 106.503 72.4602 106.503 77.3339C106.503 82.3287 110.075 85.9007 115.1 85.9007ZM145.083 102.368C142.237 102.368 140.239 100.31 140.239 97.5856C140.239 94.8308 142.237 92.8027 145.083 92.8027C147.958 92.8027 149.926 94.8308 149.926 97.5856C149.926 100.31 147.958 102.368 145.083 102.368ZM145.083 79.6648C142.237 79.6648 140.239 77.6366 140.239 74.9122C140.239 72.1575 142.237 70.1293 145.083 70.1293C147.958 70.1293 149.926 72.1575 149.926 74.9122C149.926 77.6366 147.958 79.6648 145.083 79.6648ZM178.94 107V98.857H157.598V91.8945C161.534 84.6596 167.679 74.9425 175.398 63.3182H186.417V92.2578H192.32V98.857H186.417V107H178.94ZM164.833 91.9853V92.4394H179.061V69.6752H178.637C174.46 75.8506 169.919 83.025 164.833 91.9853ZM209.043 107V71.1888H208.529L197.661 78.8172V71.3099L209.074 63.3182H216.853V107H209.043Z" fill="white"/>
<path fill-rule="evenodd" clip-rule="evenodd" d="M808.048 67.0483H804.344C802.299 67.0483 800.641 68.7065 800.641 70.7519V102.849C800.641 104.895 802.299 106.553 804.344 106.553H808.048C810.093 106.553 811.751 104.895 811.751 102.849V70.7519C811.751 68.7065 810.093 67.0483 808.048 67.0483ZM787.063 75.689H790.766C792.812 75.689 794.47 77.3471 794.47 79.3925V102.848C794.47 104.894 792.812 106.552 790.766 106.552H787.063C785.018 106.552 783.359 104.894 783.359 102.848V79.3925C783.359 77.3471 785.018 75.689 787.063 75.689ZM773.485 84.3335H769.782C767.736 84.3335 766.078 85.9916 766.078 88.037V102.851C766.078 104.897 767.736 106.555 769.782 106.555H773.485C775.531 106.555 777.189 104.897 777.189 102.851V88.037C777.189 85.9916 775.531 84.3335 773.485 84.3335ZM756.204 91.7397H752.5C750.455 91.7397 748.797 93.3979 748.797 95.4433V102.85C748.797 104.896 750.455 106.554 752.5 106.554H756.204C758.249 106.554 759.907 104.896 759.907 102.85V95.4433C759.907 93.3979 758.249 91.7397 756.204 91.7397Z" fill="white"/>
<path fill-rule="evenodd" clip-rule="evenodd" d="M878.173 84.2908C872.226 78.6362 864.333 75.4829 856.126 75.4825C847.919 75.4825 840.025 78.6358 834.077 84.2908C833.629 84.728 832.913 84.7225 832.472 84.2784L828.189 79.9576C827.966 79.7326 827.842 79.4278 827.844 79.1109C827.846 78.7939 827.974 78.4909 828.2 78.2688C843.811 63.3082 868.439 63.3082 884.05 78.2688C884.276 78.4911 884.404 78.7942 884.406 79.1112C884.407 79.4281 884.283 79.7327 884.06 79.9576L879.778 84.2784C879.337 84.7218 878.621 84.7273 878.173 84.2908ZM856.138 89.5392C860.647 89.5389 864.995 91.2149 868.337 94.2414C868.789 94.671 869.501 94.6617 869.942 94.2205L874.218 89.8997C874.444 89.673 874.568 89.3656 874.565 89.0461C874.562 88.7266 874.431 88.4218 874.201 88.1997C864.023 78.7321 848.261 78.7321 838.083 88.1997C837.853 88.4218 837.722 88.7268 837.719 89.0463C837.716 89.3659 837.841 89.6734 838.067 89.8997L842.342 94.2205C842.783 94.6617 843.495 94.671 843.947 94.2414C847.287 91.2169 851.632 89.5411 856.138 89.5392ZM864.348 99.8488C864.576 99.6244 864.702 99.3155 864.696 98.9951C864.689 98.6747 864.551 98.3712 864.313 98.1563C859.589 94.1606 852.67 94.1606 847.946 98.1563C847.708 98.3711 847.57 98.6745 847.563 98.9948C847.556 99.3152 847.682 99.6242 847.91 99.8488L855.309 107.314C855.526 107.533 855.821 107.657 856.13 107.657C856.438 107.657 856.734 107.533 856.951 107.314L864.348 99.8488Z" fill="white"/>
<path opacity="0.35" d="M906.631 65.1667H968.659C973.023 65.1667 976.561 68.7043 976.561 73.0681V95.5918C976.561 99.9557 973.023 103.493 968.659 103.493H906.631C902.267 103.493 898.73 99.9557 898.73 95.5918V73.0681C898.73 68.7043 902.267 65.1667 906.631 65.1667Z" stroke="white" stroke-width="3.64683"/>
<path opacity="0.4" d="M982.078 76.9233V91.7375C985.058 90.4828 986.997 87.5641 986.997 84.3304C986.997 81.0967 985.058 78.178 982.078 76.9233" fill="white"/>
<path d="M904.328 75.6139C904.328 72.9284 906.505 70.7515 909.191 70.7515H966.129C968.815 70.7515 970.992 72.9285 970.992 75.6139V93.0483C970.992 95.7338 968.815 97.9107 966.129 97.9107H909.191C906.505 97.9107 904.328 95.7337 904.328 93.0483V75.6139Z" fill="white"/>
</g>
<defs>
<linearGradient id="paint0_linear_4206_133924" x1="536" y1="0" x2="536" y2="716" gradientUnits="userSpaceOnUse">
<stop stop-opacity="0"/>
<stop offset="1" stop-color="#232323"/>
</linearGradient>
<linearGradient id="paint1_linear_4206_133924" x1="152.946" y1="430.619" x2="152.946" y2="630.647" gradientUnits="userSpaceOnUse">
<stop stop-color="#F9AA4B"/>
<stop offset="1" stop-color="#F7931A"/>
</linearGradient>
<clipPath id="clip0_4206_133924">
<rect width="1079.06" height="714.721" fill="white" transform="translate(0.0625 0.441406)"/>
</clipPath>
<clipPath id="clip1_4206_133924">
<rect width="1855.84" height="712.559" fill="white" transform="translate(-388.094 1)"/>
</clipPath>
<clipPath id="clip2_4206_133924">
<rect x="53" y="430.667" width="200" height="200" rx="100" fill="white"/>
</clipPath>
</defs>
</svg>
