<svg width="540" height="358" viewBox="0 0 540 358" fill="none" xmlns="http://www.w3.org/2000/svg">
<rect width="539.53" height="357.36" fill="#101010"/>
<g clip-path="url(#clip0_4115_8456)">
<path d="M181.13 173.012V165.343H167.616C165.456 164.601 163.111 164.168 160.705 164.168C149.104 164.168 139.91 173.012 139.91 184.577C139.91 196.142 149.043 204.985 160.705 204.985C172.306 204.985 181.5 196.142 181.5 184.577C181.5 180.681 180.451 176.846 178.353 174.002L181.13 173.012ZM160.705 195.709C154.534 195.709 149.66 190.823 149.66 184.515C149.66 178.269 154.534 173.445 160.705 173.445C166.937 173.445 171.812 178.269 171.812 184.577C171.812 190.885 166.937 195.709 160.705 195.709Z" fill="#00B8FC"/>
<path d="M115.908 164.107C104.307 164.107 95.1133 172.951 95.1133 184.515C95.1133 196.08 104.246 204.924 115.908 204.924C127.509 204.924 136.703 196.08 136.703 184.515C136.641 173.012 127.509 164.107 115.908 164.107ZM115.908 195.709C109.738 195.709 104.863 190.824 104.863 184.515C104.863 178.269 109.738 173.445 115.908 173.445C122.14 173.445 127.015 178.269 127.015 184.577C127.015 190.885 122.14 195.709 115.908 195.709Z" fill="#00B8FC"/>
<path d="M91.4112 149.017H81.7852V203.873H91.4112V149.017Z" fill="#00B8FC"/>
<path d="M194.954 165.344H185.328V203.873H194.954V165.344Z" fill="#00B8FC"/>
<path d="M160.706 217.54C154.535 217.54 149.66 212.716 149.66 206.47H139.973C139.973 218.035 149.105 226.879 160.767 226.879C172.368 226.879 181.562 218.035 181.562 206.47H171.813C171.751 212.778 166.876 217.54 160.706 217.54Z" fill="#00B8FC"/>
<path d="M240.614 164.107C229.075 164.107 220.312 172.951 220.312 184.763C220.312 196.389 228.334 204.986 240.799 204.986C247.71 204.986 253.819 202.45 258.323 197.626L251.906 191.256C248.759 194.287 245.365 196.451 241.046 196.451C235.801 196.451 231.851 193.421 230.494 188.412H260.421V186.062C260.359 172.951 252.276 164.107 240.614 164.107ZM230.247 180.619C231.543 175.486 235.43 172.641 240.429 172.641C245.427 172.641 249.191 175.424 250.425 180.619H230.247Z" fill="#00B8FC"/>
<path d="M325.586 164.107C320.835 164.107 316.824 165.9 313.985 168.993V149.017H304.359V203.873H313.985V182.908C313.985 177.342 317.503 173.507 323.365 173.507C328.857 173.507 331.818 176.909 331.818 182.908V203.873H341.444V181.176C341.383 170.539 334.719 164.107 325.586 164.107Z" fill="#00B8FC"/>
<path d="M284.18 173.445C288.253 173.445 291.523 175.548 294.053 178.454L300.779 171.899C297.015 167.137 291.091 164.168 284.365 164.168C272.764 164.168 263.57 173.012 263.57 184.577C263.57 196.142 272.703 204.985 284.365 204.985C291.091 204.985 297.015 201.955 300.779 197.255L294.115 190.638C291.646 193.482 288.253 195.647 284.118 195.647C277.948 195.647 273.258 190.823 273.258 184.515C273.258 178.269 278.009 173.445 284.18 173.445Z" fill="#00B8FC"/>
<path d="M213.837 153.47H204.211V165.344H199.027V173.878H204.211V203.873H213.837V173.878H219.082V165.344H213.837V153.47Z" fill="#00B8FC"/>
<path d="M190.017 147.966C186.499 147.966 183.723 150.749 183.723 154.336C183.723 157.861 186.499 160.644 190.017 160.644C193.719 160.644 196.434 157.861 196.434 154.336C196.496 150.749 193.719 147.966 190.017 147.966Z" fill="#00B8FC"/>
<path d="M414.32 130.464V149.945C399.017 149.945 386.861 162.252 386.861 177.342C386.861 192.431 399.017 204.738 414.32 204.738V224.219C388.342 224.219 367.238 203.192 367.238 177.342C367.238 151.491 388.403 130.464 414.32 130.464Z" fill="#00B8FC"/>
<path d="M414.996 168.931V188.288H437.642V210.923H456.956V168.931H414.996Z" fill="#00B8FC"/>
</g>
<path d="M95.642 110.461C95.642 99.1795 104.613 90.5434 115.965 90.5434C127.314 90.5434 136.228 99.2378 136.289 110.463C136.288 121.744 127.318 130.379 115.965 130.379C104.552 130.379 95.642 121.744 95.642 110.461ZM104.397 110.461C104.397 117.049 109.501 122.169 115.965 122.169C122.486 122.169 127.596 117.116 127.596 110.523C127.596 103.93 122.486 98.878 115.965 98.878C109.507 98.878 104.397 103.93 104.397 110.461Z" stroke="white" stroke-width="1.01065"/>
<path d="M95.642 246.899C95.642 235.617 104.613 226.981 115.965 226.981C127.314 226.981 136.228 235.675 136.289 246.9C136.288 258.181 127.318 266.817 115.965 266.817C104.552 266.817 95.642 258.182 95.642 246.899ZM104.397 246.899C104.397 253.486 109.501 258.606 115.965 258.606C122.486 258.606 127.596 253.554 127.596 246.961C127.596 240.368 122.486 235.315 115.965 235.315C109.507 235.315 104.397 240.368 104.397 246.899Z" stroke="white" stroke-width="1.01065"/>
<path d="M39.8413 185.249C39.8413 173.967 48.8118 165.331 60.1647 165.331C71.5136 165.331 80.4271 174.025 80.4881 185.25C80.4875 196.532 71.5172 205.167 60.1647 205.167C48.751 205.167 39.8413 196.532 39.8413 185.249ZM48.596 185.249C48.596 191.836 53.7007 196.956 60.1647 196.956C66.685 196.956 71.7952 191.904 71.7952 185.311C71.7952 178.718 66.685 173.666 60.1647 173.666C53.7062 173.666 48.596 178.718 48.596 185.249Z" stroke="white" stroke-width="1.01065"/>
<path d="M458.251 185.249C458.251 173.967 467.222 165.331 478.575 165.331C489.924 165.331 498.837 174.025 498.898 185.25C498.898 196.532 489.927 205.167 478.575 205.167C467.161 205.167 458.251 196.532 458.251 185.249ZM467.006 185.249C467.006 191.836 472.111 196.956 478.575 196.956C485.095 196.956 490.205 191.904 490.205 185.311C490.205 178.718 485.095 173.666 478.575 173.666C472.116 173.666 467.006 178.718 467.006 185.249Z" stroke="white" stroke-width="1.01065"/>
<rect x="39.8413" y="90.5434" width="459.845" height="175.853" stroke="white" stroke-width="1.01065"/>
<line x1="81.2788" y1="90.0381" x2="81.2788" y2="264.88" stroke="#EAEBED" stroke-width="1.01065" stroke-dasharray="2.02 2.02"/>
<line x1="457.24" y1="90.0381" x2="457.24" y2="264.88" stroke="#EAEBED" stroke-width="1.01065" stroke-dasharray="2.02 2.02"/>
<line x1="499.18" y1="130.969" x2="39.3346" y2="130.969" stroke="#EAEBED" stroke-width="1.01065" stroke-dasharray="2.02 2.02"/>
<line x1="499.18" y1="226.981" x2="39.3346" y2="226.981" stroke="#EAEBED" stroke-width="1.01065" stroke-dasharray="2.02 2.02"/>
<defs>
<clipPath id="clip0_4115_8456">
<rect width="383.069" height="96.4765" fill="white" transform="translate(81.7852 130.464)"/>
</clipPath>
</defs>
</svg>
