<svg width="1080" height="1080" viewBox="0 0 1080 1080" fill="none" xmlns="http://www.w3.org/2000/svg">
<g clip-path="url(#clip0_4206_134929)">
<rect width="1079.06" height="1079.06" transform="translate(0.9375 0.0400391)" fill="#8B25BF"/>
<rect width="1849.89" height="1233.4" transform="translate(1158 -386.249) rotate(90)" fill="#FDCB26"/>
<path d="M1101.5 -332.192L1045.44 -386.034L982.805 -386.034L920.171 -386.034L890.387 -356.268L860.603 -326.502L845.93 -340.29L831.257 -354.079L847.244 -370.057L863.012 -386.034L800.816 -385.815L738.402 -385.815L784.392 -340.947L830.162 -296.298L785.487 -252.742L740.592 -209.406L729.642 -219.255C723.729 -224.727 703.362 -243.988 684.747 -262.154C665.913 -280.32 629.34 -315.558 603.279 -340.509L555.975 -386.034L498.159 -386.034L440.562 -385.815L449.322 -377.936C459.177 -368.962 531.228 -300.237 579.627 -253.618C694.602 -143.089 862.793 19.0938 980.396 132.687C1055.73 205.571 1126.47 273.858 1137.64 284.583L1157.79 304.281L1157.79 273.639L1157.79 243.216L1142.89 227.677C1123.18 206.884 963.533 52.5809 806.729 -97.126C774.537 -127.768 748.257 -153.594 748.257 -154.251C748.257 -154.908 759.864 -166.727 774.099 -180.297C788.114 -194.085 840.893 -245.52 891.263 -294.765L982.586 -384.283L1022.66 -346.419C1044.56 -325.626 1083.98 -287.324 1110.26 -261.497L1157.79 -214.221L1157.79 -246.176L1157.79 -278.131L1101.5 -332.192Z" fill="#ECB910"/>
<path d="M1088.15 -227.574C1050.04 -264.782 1010.62 -302.865 1000.77 -312.496L982.808 -329.567L936.818 -284.042L890.828 -238.299L1000.33 -132.147C1060.55 -73.7086 1120.56 -15.7081 1133.92 -3.45138L1157.79 19.3111L1157.57 -12.2062L1157.57 -43.5046L1089.46 -109.165C1052.01 -145.279 1006.46 -189.272 988.283 -207L955.214 -239.174L968.792 -252.744L982.37 -266.533L993.977 -255.808C1000.33 -250.118 1038.65 -213.129 1078.95 -173.732C1119.24 -134.554 1153.63 -101.505 1155.16 -100.63C1157.13 -99.3164 1157.79 -105.664 1157.79 -129.52L1157.79 -159.943L1088.15 -227.574Z" fill="#ECB910"/>
<path d="M1155.83 355.501C1153.64 354.844 1093.41 297.062 924.564 133.786C888.429 98.7665 831.27 43.6113 797.544 11.2185C763.818 -21.1742 694.395 -88.1484 643.15 -137.613C558.616 -219.47 513.502 -262.806 417.799 -354.951L385.168 -386.249L352.537 -385.592L319.687 -384.936L375.97 -331.313C407.068 -301.765 457.438 -253.614 487.879 -224.067C518.539 -194.738 580.954 -134.549 626.725 -90.5559C672.495 -46.5631 758.562 36.6074 818.349 94.3891C878.136 152.171 949.092 220.677 976.029 246.504C1003.18 272.33 1052.9 320.044 1086.62 352.655C1120.35 385.048 1150.13 413.72 1152.98 415.909L1157.8 420.067L1157.8 388.112C1157.8 370.603 1156.92 355.938 1155.83 355.501Z" fill="#ECB910"/>
<path d="M1087.06 407.15C1048.3 369.504 992.012 315.225 961.79 286.115C931.788 257.005 863.679 191.782 810.681 141.004C757.683 90.2266 697.02 31.7884 675.996 11.2146C631.977 -31.6839 493.789 -164.538 423.052 -231.731C396.553 -257.12 349.687 -301.988 318.589 -331.973L262.306 -386.253L229.895 -385.596L197.264 -384.94L249.823 -334.6C278.512 -306.803 320.122 -266.969 341.803 -245.957C381.223 -207.874 456.997 -135.647 491.818 -103.035C501.673 -93.624 509.557 -85.307 509.119 -84.4315C508.462 -82.8994 412.54 9.90139 375.748 44.7017L361.294 58.2716L307.858 7.71268C278.512 -20.3026 236.245 -60.3558 214.127 -81.5862C192.008 -102.817 161.786 -131.489 146.894 -145.277C132.002 -159.066 93.6769 -195.617 61.484 -226.259C29.5101 -256.901 -14.2898 -298.486 -35.5327 -318.622L-74.0766 -355.173L-74.7336 -325.188L-75.3906 -295.203L-52.3957 -273.316L-29.1818 -251.21L-52.3957 -228.229L-75.3906 -205.248L-74.7336 -174.825L-74.0766 -144.183L-35.0947 -182.266L3.66815 -220.35L9.58113 -215.097C12.8661 -212.251 17.0271 -208.312 18.7791 -206.342C20.7501 -204.372 43.526 -182.704 69.368 -158.191C95.2099 -133.677 147.989 -83.556 186.533 -46.7859C225.077 -9.7969 273.256 35.9469 293.404 55.2074L330.196 90.0077L304.354 114.521C290.119 128.091 277.855 139.035 277.198 139.253C276.541 139.253 269.752 133.563 262.087 126.34L248.071 113.646L260.773 101.827L273.475 90.0077L234.274 52.7999C212.813 32.2261 185 5.52398 172.298 -6.29499C123.899 -51.8199 58.418 -114.417 32.7951 -139.368C18.1221 -153.813 5.20114 -165.194 4.10614 -164.757C2.79215 -164.319 -9.90982 -152.281 -24.3638 -138.273L-50.6437 -112.447L-2.02584 -66.0464C24.6921 -40.4387 75.4999 8.15041 110.978 41.8564C146.456 75.3434 193.322 120.212 215.003 141.442C276.541 201.194 314.209 237.526 363.922 284.802C389.326 308.877 462.472 379.135 526.858 441.294C591.243 503.234 670.74 579.838 703.809 611.574L763.596 669.137L820.536 613.763C851.853 583.34 877.257 557.951 877.038 557.076C876.6 556.419 856.233 536.502 831.705 512.864L787.248 469.966L744.981 510.457C721.767 532.781 702.057 551.166 701.181 551.166C700.305 551.166 693.735 545.257 686.508 538.472L673.149 525.777L729.651 470.622L786.372 415.248L791.409 419.407C794.256 421.595 827.982 453.769 866.526 490.758C922.152 543.944 936.167 558.608 933.978 560.578C932.445 562.11 901.566 591.657 865.431 626.239C829.296 660.82 797.979 690.805 795.789 692.994C791.409 697.152 788.781 694.526 904.851 806.15C935.072 835.04 1004.06 901.796 1058.15 954.106L1156.7 1049.53L1157.36 1020.64L1158.01 991.751L1127.57 962.86L1097.13 933.97L1127.35 903.766L1157.79 873.78L1157.79 843.358L1157.79 812.935L1124.73 844.452C1106.55 861.524 1090.78 875.75 1089.69 875.75C1088.59 875.75 1059.68 848.61 1025.08 815.561C990.479 782.512 956.972 750.338 950.402 744.428L938.576 733.485L953.687 720.134L968.579 706.564L1029.9 765.44L1091 824.097L1124.51 790.829L1157.79 757.561L1157.79 733.266L1157.79 708.971L1140.93 692.994C1131.51 684.239 1094.72 648.782 1059.25 614.42C1023.77 580.057 984.785 542.412 972.74 531.03C960.914 519.649 921.495 481.785 885.141 446.765C849.006 411.965 808.71 373.006 795.351 360.312C770.604 336.674 735.126 302.53 671.616 241.028C651.687 221.767 614.676 186.092 589.053 161.578L542.845 117.366L526.858 132.468L510.652 147.57L566.497 202.069C636.795 270.575 719.796 350.463 740.163 369.286L755.712 383.731L727.461 410.871C711.693 425.754 691.326 445.233 682.128 454.207L665.046 470.403L651.468 457.709C632.634 439.981 584.454 393.799 550.072 360.531C534.523 345.21 497.074 309.315 466.852 280.424C436.849 251.752 397.867 214.326 380.347 197.035C362.827 179.963 344.869 162.891 340.489 158.952C335.89 155.012 332.167 151.291 332.167 150.416C332.167 149.321 356.914 125.246 387.355 96.3549C417.796 67.683 465.319 22.1581 492.913 -4.54402L543.064 -53.352L562.993 -34.0914C583.36 -14.612 590.148 -8.04593 672.711 70.3095C699.21 95.4795 752.427 146.695 790.971 183.903C829.515 221.33 873.315 263.79 888.426 278.236C903.537 292.681 962.228 349.368 1018.73 404.086C1075.45 458.803 1129.76 511.551 1139.84 520.962L1157.79 538.472L1157.79 506.736L1157.79 475.219L1087.06 407.15ZM1084.65 754.715C1080.93 751.432 1053.77 725.387 1024.21 696.934C994.64 668.481 969.674 645.061 968.798 644.843C967.703 644.624 946.46 664.103 921.495 688.179L876.381 731.734L861.708 718.383L847.254 705.032L903.099 651.409C933.759 621.861 961.133 596.035 963.98 594.065C968.798 590.125 969.017 590.563 1016.98 636.744C1043.48 662.133 1077.2 694.526 1091.66 708.315L1118.16 733.485L1104.8 747.055L1091.22 760.844L1084.65 754.715Z" fill="#ECB910"/>
<path d="M1144.64 578.962C1122.08 558.607 993.97 435.165 813.953 260.944C796.433 243.873 766.43 214.763 747.158 196.159C727.886 177.555 687.371 138.596 657.368 109.705C627.365 80.8145 590.135 44.9199 574.586 29.8179C559.038 14.7158 545.46 2.02139 544.365 1.80252C543.27 1.36478 510.639 31.7877 471.657 69.4333C432.894 107.079 398.292 140.347 395.007 143.63L388.875 149.321L475.818 233.586C590.792 344.772 663.062 413.716 665.252 414.591C668.099 415.685 698.759 385.262 697.226 382.636C696.35 381.323 679.706 365.345 659.996 346.96C640.505 328.575 586.193 276.484 539.328 231.397L454.137 149.102L498.594 105.766L543.051 62.4295L568.454 87.3806C582.47 100.951 635.249 151.947 685.838 200.755C736.427 249.344 790.739 301.435 806.288 316.756C822.056 331.858 846.146 355.058 859.943 368.191C873.74 381.323 903.305 409.776 925.642 431.444C996.817 500.607 1141.14 639.37 1149.68 646.812L1157.78 654.035L1157.78 622.517L1157.78 591L1144.64 578.962Z" fill="#ECB910"/>
<path d="M1126.7 1132.26L1095.38 1163.34L1022.02 1092.21C959.6 1031.58 894.339 968.769 783.963 862.836L761.406 841.168L732.06 870.058L702.714 899.168L688.917 885.817L674.901 872.466L718.263 829.568L761.625 786.45L779.583 803.741C789.438 813.152 824.697 847.077 857.766 879.032C890.835 910.987 929.378 947.976 943.175 961.327C956.972 974.678 996.392 1012.76 1030.78 1046.03C1064.94 1079.3 1093.63 1106.66 1094.28 1106.66C1094.94 1106.44 1102.61 1099.87 1111.37 1091.77L1127.35 1076.89L1090.56 1040.78C1070.41 1020.86 1027.71 979.493 995.735 948.852C963.98 918.21 903.756 860.209 862.146 819.718C820.536 779.446 781.335 741.582 774.984 735.672L763.596 725.167L748.704 739.174C740.601 746.616 718.701 767.846 699.867 786.012C681.252 803.96 661.323 823.22 655.629 828.473L645.555 838.103L602.193 796.737C578.322 774.193 547.444 744.646 533.647 731.295C519.85 717.944 496.636 695.838 482.182 682.049C467.728 668.26 424.804 626.894 386.917 590.124C280.483 486.817 287.053 492.946 282.235 496.229C280.045 497.98 257.707 518.991 232.741 543.286L187.409 587.06L312.676 707.438C381.442 773.537 478.897 866.775 529.048 914.708C579.198 962.64 626.064 1007.73 633.291 1014.95L646.431 1027.86L632.196 1042.09L618.18 1056.32L588.396 1027.21C572.19 1011.23 513.061 954.323 456.997 900.481C336.328 785.137 300.412 750.555 230.332 683.144C201.425 655.128 173.612 628.645 168.575 624.268L159.158 615.951L144.485 629.739C107.036 664.54 38.708 731.295 39.146 732.608C39.584 733.265 50.096 743.552 62.798 755.371C119.519 808.556 273.694 956.731 331.072 1012.98C351.658 1033.34 369.397 1049.75 370.711 1049.75C372.025 1049.75 386.041 1037.27 402.028 1021.95L431.155 993.939L399.838 963.078C361.732 925.87 274.57 842.262 215.003 785.794C190.913 763.031 162.443 735.891 151.493 725.385L131.783 706.344L144.923 693.212C152.15 685.77 158.72 679.861 159.596 679.861C160.472 679.861 175.145 693.43 192.446 709.846C252.232 766.971 324.721 836.571 378.157 887.787C407.722 916.24 444.295 951.259 459.406 965.486C474.736 979.931 486.562 992.844 485.686 993.939C485.029 995.252 465.757 1014.29 442.762 1036.4C419.986 1058.51 401.152 1077.33 401.152 1078.2C401.152 1079.08 414.511 1092.43 430.717 1107.75C446.923 1123.29 468.604 1143.86 478.678 1153.49L497.074 1171.22L455.245 1211.71L413.635 1252.21L429.841 1267.31L446.047 1282.41L456.559 1273C470.794 1259.87 553.576 1180.63 640.08 1097.03L712.569 1026.99L688.26 1003.79C638.766 956.731 595.623 915.146 513.061 835.258C428.746 753.839 402.904 729.106 303.259 634.117L251.137 584.871L263.62 572.177C270.628 565.173 277.417 559.482 278.731 559.482C281.578 559.482 356.038 629.739 423.052 695.181C446.047 717.506 483.496 753.62 506.272 775.069C529.267 796.737 559.27 825.19 573.066 838.541C586.863 851.892 624.312 888.006 656.286 918.429C688.26 949.07 726.585 986.278 741.696 1001.16L769.071 1028.08L738.411 1057.63L707.751 1087.18L717.606 1096.15C723.081 1101.18 747.171 1124.39 771.261 1148.02C795.351 1171.66 829.296 1204.71 846.378 1221.34L877.914 1251.77L864.774 1264.9L851.415 1278.25L830.172 1258.55C810.9 1241.04 768.852 1200.77 702.495 1135.99L679.5 1113.66L625.845 1165.31C574.161 1215.22 522.478 1265.12 471.232 1315.02L447.142 1338.44L402.466 1295.32L357.79 1252.21L398.962 1212.15L440.353 1172.1L431.593 1163.78C408.817 1141.68 297.565 1034.87 275.227 1013.64C261.43 1000.29 221.572 961.765 186.533 928.059C151.712 894.353 99.8089 844.67 71.5579 817.53C43.307 790.609 11.5521 760.186 1.04014 749.899L-18.2318 731.295L56.447 659.068L131.126 587.06L120.614 577.211C107.255 564.954 64.769 524.244 23.3781 483.972C5.85814 467.119 -23.4878 439.104 -41.8837 421.813L-75.1716 390.515L-75.1716 420.938L-75.1716 451.579L-33.9997 490.976C-11.4428 512.644 15.2751 538.033 25.5681 547.663C35.861 557.075 49.001 569.55 55.133 575.46L66.083 585.747L38.708 612.668C23.5971 627.332 -8.37683 658.411 -32.0288 681.393L-75.3906 723.634L-74.7336 733.484C-74.0766 743.114 -73.6386 743.552 -19.1078 795.205C11.3331 823.877 68.9299 878.813 109.007 917.334C149.303 955.636 225.733 1028.74 278.95 1079.74L375.529 1172.32L361.513 1185.67L347.716 1199.02L333.481 1186.33C313.552 1168.16 245.662 1103.37 171.203 1031.15C99.1518 961.327 -57.4327 812.496 -67.9447 803.522L-75.1716 797.612L-75.1716 847.734L-75.1716 898.074L-43.8547 928.497C-11.0048 960.67 30.386 1000.72 70.4629 1038.59C83.8219 1051.28 119.738 1085.65 150.398 1115.41C181.058 1144.96 219.601 1181.95 236.026 1197.71C309.61 1267.74 428.308 1381.56 436.849 1390.31L446.485 1399.94L473.422 1374.33C488.314 1360.11 533.647 1316.33 574.38 1276.94L648.183 1205.15L662.637 1218.72C670.521 1226.38 698.334 1252.86 724.395 1278.03L771.918 1323.56L730.965 1362.52C708.627 1384.18 675.996 1415.48 658.476 1432.33L626.721 1463.2L677.091 1463.2L727.461 1463.41L758.121 1433.21C774.984 1416.58 800.607 1391.84 815.061 1378.06C829.515 1364.27 864.555 1330.34 893.025 1302.55L944.708 1251.99L860.832 1172.32C814.842 1128.32 776.517 1090.9 775.641 1089.15C774.765 1086.96 783.525 1076.89 804.111 1056.54L833.895 1026.99L819.003 1012.54C810.9 1004.66 786.591 981.463 765.129 961.108L726.366 923.682L740.163 910.112L753.96 896.323L785.715 926.527C803.016 942.942 833.676 972.49 853.824 991.969L890.397 1027.64L859.737 1056.75L829.077 1086.08L886.674 1141.89C918.428 1172.32 956.972 1209.74 972.302 1224.85L1000.55 1252.21L939.452 1311.08C905.946 1343.47 857.328 1390.97 831.267 1416.8L783.963 1463.41L853.167 1463.41L922.37 1463.41L904.194 1445.47C894.339 1435.62 886.455 1426.86 886.674 1425.99C887.112 1425.11 906.165 1406.51 928.94 1384.4C951.935 1362.3 991.574 1323.56 1017.42 1297.95L1064.28 1251.77L1060.12 1246.51C1057.93 1243.45 1024.21 1210.62 985.442 1173.41L914.705 1105.56L928.283 1091.99C940.109 1080.17 942.299 1078.64 945.584 1081.05C947.555 1082.36 981.5 1114.75 1020.92 1152.62C1060.34 1190.48 1093.41 1221.56 1094.28 1221.56C1095.16 1221.56 1109.83 1207.99 1126.92 1191.58L1157.79 1161.37L1157.79 1131.39L1157.79 1101.18L1126.7 1132.26Z" fill="#ECB910"/>
<path d="M1054.21 -25.1161C1016.76 -61.6673 958.067 -118.573 923.903 -151.404L861.926 -210.937L832.581 -183.14L803.016 -155.344L835.428 -124.483C889.52 -73.0486 992.669 26.3183 1029.68 62.8696L1064.72 97.2322L1093.63 69.2168L1122.75 41.2015L1054.21 -25.1161Z" fill="#ECB910"/>
<path d="M716.073 677.673C705.342 667.605 672.711 636.307 643.146 607.854C428.746 401.46 351.001 326.606 321.874 299.029C264.277 244.092 137.696 122.401 101.123 86.9437C56.009 43.1698 -59.6227 -67.1406 -67.7256 -74.1445L-74.0766 -79.6162L-74.7336 -48.7556L-75.3906 -17.8949L-69.2586 -12.2043C-49.5487 5.74301 199.892 244.53 268.657 311.066C292.966 334.704 356.476 395.55 427.432 463.181C440.572 475.875 466.195 500.608 484.372 518.117C502.33 535.627 542.845 574.586 574.162 604.571C605.478 634.556 640.08 667.824 650.811 678.111L670.521 697.153L656.943 710.723L643.365 724.511L632.853 714.881C619.932 703.062 542.626 629.303 496.417 584.654C477.802 566.706 453.493 543.506 442.762 533.219C419.986 511.77 370.273 464.056 327.787 422.69C274.132 370.818 151.055 252.628 94.5529 199.005C72.8719 178.431 26.0061 133.344 -9.47182 98.9816L-74.0766 36.6037L-74.7336 66.1511L-75.3906 95.6985L-37.5037 132.25C-16.6988 152.386 10.2381 178.212 22.2831 189.594C101.78 264.885 250.042 407.369 250.042 408.463C250.042 409.339 229.894 429.475 205.367 453.113L160.691 496.23L152.807 488.789C148.427 484.849 126.746 464.275 104.408 443.483C82.0699 422.69 38.708 381.324 8.04812 351.776C-22.6118 322.01 -53.9287 292.025 -61.3747 285.021L-75.1716 272.108L-75.1716 303.406L-75.1716 334.704L-44.9497 363.376C-28.5248 379.135 12.4281 418.531 46.154 451.143C79.6609 483.536 119.081 521.181 133.754 534.532L160.253 559.046L181.058 538.91C262.744 460.554 286.615 438.011 288.586 437.354C290.557 436.479 326.254 470.185 451.522 591.22C534.742 671.545 620.151 753.621 637.233 769.599L649.935 781.199L681.909 749.682C699.429 732.391 718.701 713.568 724.614 707.877C730.308 702.187 735.126 696.934 735.126 696.496C735.126 696.058 726.585 687.522 716.073 677.673Z" fill="#ECB910"/>
<path d="M681.471 1293.14C663.732 1276.07 648.183 1262.06 647.088 1262.06C645.774 1262.06 628.911 1277.6 609.639 1296.42C524.449 1379.16 508.9 1394.26 478.24 1423.59L445.609 1454.67L379.69 1390.54C303.478 1316.56 127.841 1148.25 94.9909 1117.83C82.7269 1106.44 43.964 1069.46 9.14313 1035.53C-25.8968 1001.61 -58.9657 969.87 -64.2217 964.836L-74.0766 955.862L-74.7336 985.847L-75.3906 1015.83L-56.1187 1034.44C-45.3877 1044.72 -21.9548 1067.27 -3.99684 1084.78C14.1801 1102.29 64.769 1151.09 108.788 1193.12C152.807 1235.36 216.755 1296.86 251.137 1329.91C285.52 1362.96 331.291 1406.52 352.753 1426.87L391.735 1463.42L480.43 1463.42L569.344 1463.42L604.602 1429.72C623.874 1411.11 656.505 1379.81 676.872 1360.11L713.883 1324.44L681.471 1293.14Z" fill="#ECB910"/>
<path d="M432.453 -105.005C382.083 -153.376 300.396 -231.95 222.87 -305.709L138.555 -386.034L105.706 -386.034L72.6367 -386.034L98.9166 -361.302C142.497 -320.592 273.897 -195.18 313.536 -156.44C334.122 -136.523 359.307 -112.009 369.819 -101.941L388.653 -83.775L375.294 -70.6428C367.848 -63.639 361.059 -57.9483 360.402 -58.1672C359.526 -58.605 350.109 -67.1409 339.378 -77.4278C328.866 -87.4958 296.892 -117.919 268.641 -145.059C240.39 -172.198 208.416 -202.84 197.466 -213.127C186.735 -223.633 141.621 -266.75 97.3836 -308.992L17.0108 -386.034L-15.1821 -386.034L-47.375 -386.034L-43.214 -381.438C-41.024 -378.811 -5.98412 -345.106 34.3118 -306.584C74.6076 -267.844 116.656 -227.791 127.386 -217.286C138.336 -206.999 191.553 -156.221 245.646 -104.349C299.958 -52.4766 347.043 -6.95169 350.547 -3.2309C354.27 0.489888 358.65 3.55407 360.402 3.55407C362.373 3.55407 383.835 -16.3631 408.363 -40.8765L452.82 -85.3071L432.453 -105.005Z" fill="#ECB910"/>
<path d="M305.449 1435.84C290.557 1421.4 248.509 1381.12 211.717 1346.32C174.925 1311.52 103.97 1243.67 54.0377 1195.52C4.10589 1147.15 -45.388 1099.44 -56.1189 1089.37L-75.1719 1070.77L-75.1719 1102.5L-75.1719 1134.24L-59.4039 1149.56C-50.6439 1157.88 -31.591 1176.04 -17.137 1189.83C-2.68309 1203.62 33.8898 1238.64 63.8927 1267.75C171.421 1371.06 262.306 1457.73 266.467 1460.57C269.533 1462.76 278.293 1463.42 301.507 1462.98L332.167 1462.32L305.449 1435.84Z" fill="#ECB910"/>
<path d="M149.083 364.687C124.556 341.268 80.5367 299.026 51.4098 270.792C22.0638 242.777 -18.232 204.037 -38.38 184.776L-75.1719 149.757L-74.9529 184.338L-74.5149 219.139L-49.111 243.214C-35.095 256.565 -1.58809 288.52 25.5678 314.566C135.506 419.623 157.186 440.197 159.157 440.197C161.785 440.197 194.197 410.869 193.978 408.899C193.978 408.023 173.83 388.106 149.083 364.687Z" fill="#ECB910"/>
<path d="M-32.9047 546.794L-74.0766 507.397L-74.7336 539.352L-75.3906 571.526L-65.9737 579.624L-56.5567 587.942L-65.9737 597.353L-75.1716 606.764L-75.1716 636.75C-75.1716 653.165 -74.5146 666.735 -73.8576 666.735C-72.3246 666.735 6.73414 590.568 7.61014 588.16C7.82914 587.066 -10.3478 568.462 -32.9047 546.794Z" fill="#ECB910"/>
<path d="M145.328 720.429H935.615V808.238C935.615 840.569 909.406 866.778 877.075 866.778H203.868C171.537 866.778 145.328 840.569 145.328 808.238V720.429Z" fill="black"/>
<path d="M197.34 808.498C199.211 809.525 200.159 811.29 200.159 813.319C200.159 816.875 197.63 819.062 193.652 819.062H185.46V799.436H193.652C197.13 799.436 199.369 801.438 199.369 804.52C199.369 806.18 198.657 807.576 197.34 808.498ZM187.962 801.596V807.55H193.573C195.523 807.55 196.787 806.364 196.787 804.573C196.787 802.782 195.523 801.596 193.573 801.596H187.962ZM193.758 816.875C196.05 816.875 197.577 815.453 197.577 813.319C197.577 811.159 196.05 809.736 193.758 809.736H187.962V816.875H193.758ZM211.826 805.1H214.091V819.062H211.878V817.455C211.062 818.666 209.56 819.378 207.874 819.378C204.845 819.378 202.632 816.954 202.632 813.977V805.1H204.897V813.556C204.897 815.769 206.267 817.191 208.375 817.191C210.429 817.191 211.826 815.742 211.826 813.556V805.1ZM227.411 805.073H230.045L223.591 820.8C222.88 822.565 221.879 824.778 218.613 824.778C217.98 824.778 217.295 824.699 216.769 824.488V822.46C217.032 822.539 217.664 822.618 218.217 822.618C220.272 822.618 220.799 821.353 221.221 820.379L221.826 818.93L216.242 805.073H218.823L223.117 815.874L227.411 805.073ZM246.155 805.1H248.684L243.073 819.062H240.992L235.407 805.1H237.936L242.046 815.953L246.155 805.1ZM250.637 802.518V799.436H252.902V802.518H250.637ZM250.637 819.062V805.1H252.902V819.062H250.637ZM261.547 804.784C264.734 804.784 266.973 806.759 266.973 809.604V819.062H264.761V817.112C263.812 818.508 262.153 819.378 260.361 819.378C257.385 819.378 255.383 817.639 255.383 815.189C255.383 813.134 257.042 811.712 259.861 811.08L264.708 810V809.604C264.708 807.998 263.391 806.944 261.547 806.944C259.861 806.944 258.544 807.839 257.938 809.209L255.909 808.156C256.7 806.259 258.965 804.784 261.547 804.784ZM260.493 817.349C262.943 817.349 264.708 815.505 264.708 813.055V811.844L260.388 812.845C258.807 813.187 257.78 814.056 257.78 815.189C257.78 816.506 258.834 817.349 260.493 817.349ZM280.654 819.378C276.65 819.378 273.673 816.243 273.673 812.054C273.673 807.866 276.65 804.784 280.654 804.784C283.394 804.784 285.712 806.391 286.581 808.472L284.553 809.525C283.868 807.998 282.472 806.97 280.654 806.97C278.02 806.97 276.071 809.13 276.071 812.081C276.071 814.978 278.02 817.191 280.654 817.191C282.472 817.191 283.868 816.164 284.553 814.636L286.581 815.69C285.712 817.744 283.368 819.378 280.654 819.378ZM294.373 804.784C297.56 804.784 299.799 806.759 299.799 809.604V819.062H297.586V817.112C296.638 818.508 294.978 819.378 293.187 819.378C290.21 819.378 288.208 817.639 288.208 815.189C288.208 813.134 289.868 811.712 292.687 811.08L297.534 810V809.604C297.534 807.998 296.217 806.944 294.373 806.944C292.687 806.944 291.369 807.839 290.764 809.209L288.735 808.156C289.525 806.259 291.791 804.784 294.373 804.784ZM293.319 817.349C295.769 817.349 297.534 815.505 297.534 813.055V811.844L293.213 812.845C291.633 813.187 290.606 814.056 290.606 815.189C290.606 816.506 291.659 817.349 293.319 817.349ZM308.715 804.942H309.848V807.102H308.373C306.371 807.102 305.027 808.419 305.027 810.737V819.062H302.762V805.1H304.948V806.838C305.686 805.548 307.029 804.942 308.715 804.942ZM323.502 799.436H325.768V819.062H323.555V817.033C322.528 818.535 320.657 819.378 318.55 819.378C314.572 819.378 311.49 816.296 311.49 812.081C311.49 807.866 314.598 804.784 318.523 804.784C320.631 804.784 322.501 805.679 323.502 807.155V799.436ZM318.681 817.191C321.448 817.191 323.502 815.031 323.502 812.081C323.502 809.157 321.448 806.97 318.681 806.97C315.915 806.97 313.887 809.157 313.887 812.081C313.887 815.031 315.915 817.191 318.681 817.191ZM340.162 819.378C336.132 819.378 332.971 816.296 332.971 812.054C332.971 807.813 336.105 804.784 340.162 804.784C344.219 804.784 347.354 807.813 347.354 812.054C347.354 816.296 344.193 819.378 340.162 819.378ZM340.162 817.191C342.876 817.191 344.957 815.005 344.957 812.081C344.957 809.157 342.876 806.97 340.162 806.97C337.449 806.97 335.368 809.157 335.368 812.081C335.368 815.005 337.449 817.191 340.162 817.191ZM355.999 804.942H357.131V807.102H355.656C353.654 807.102 352.311 808.419 352.311 810.737V819.062H350.045V805.1H352.232V806.838C352.969 805.548 354.313 804.942 355.999 804.942ZM371.336 804.784C375.261 804.784 378.369 807.866 378.369 812.081C378.369 816.296 375.261 819.378 371.309 819.378C369.228 819.378 367.331 818.535 366.304 817.033V819.062H364.091V799.436H366.357V807.155C367.331 805.679 369.202 804.784 371.336 804.784ZM371.178 817.191C373.917 817.191 375.972 815.031 375.972 812.081C375.972 809.157 373.917 806.97 371.178 806.97C368.412 806.97 366.357 809.157 366.357 812.081C366.357 815.031 368.412 817.191 371.178 817.191ZM386.418 804.784C389.606 804.784 391.845 806.759 391.845 809.604V819.062H389.632V817.112C388.684 818.508 387.024 819.378 385.233 819.378C382.256 819.378 380.254 817.639 380.254 815.189C380.254 813.134 381.914 811.712 384.732 811.08L389.58 810V809.604C389.58 807.998 388.262 806.944 386.418 806.944C384.732 806.944 383.415 807.839 382.809 809.209L380.781 808.156C381.571 806.259 383.837 804.784 386.418 804.784ZM385.365 817.349C387.815 817.349 389.58 815.505 389.58 813.055V811.844L385.259 812.845C383.679 813.187 382.651 814.056 382.651 815.189C382.651 816.506 383.705 817.349 385.365 817.349ZM401.051 804.784C404.08 804.784 406.267 806.944 406.267 809.868V819.062H404.001V810.605C404.001 808.393 402.658 806.97 400.55 806.97C398.469 806.97 397.073 808.419 397.073 810.605V819.062H394.808V805.1H397.02V806.707C397.837 805.495 399.339 804.784 401.051 804.784ZM420.878 805.1L415.714 810.684L420.878 819.062H418.27L414.213 812.37L411.737 815.031V819.062H409.471V799.436H411.737V811.949L418.164 805.1H420.878ZM433.147 819.22C430.328 819.22 428.748 817.613 428.748 814.794V807.26H426.034V805.1H426.746C427.957 805.1 428.748 804.283 428.748 803.045V800.569H431.013V805.1H434.385V807.26H431.013V814.794C431.013 815.69 431.171 817.323 433.568 817.323C433.858 817.323 434.253 817.297 434.543 817.244V819.088C434.095 819.193 433.542 819.22 433.147 819.22ZM443.182 804.942H444.315V807.102H442.84C440.838 807.102 439.494 808.419 439.494 810.737V819.062H437.229V805.1H439.415V806.838C440.153 805.548 441.496 804.942 443.182 804.942ZM452.121 804.784C455.309 804.784 457.548 806.759 457.548 809.604V819.062H455.335V817.112C454.387 818.508 452.727 819.378 450.936 819.378C447.959 819.378 445.957 817.639 445.957 815.189C445.957 813.134 447.617 811.712 450.435 811.08L455.282 810V809.604C455.282 807.998 453.965 806.944 452.121 806.944C450.435 806.944 449.118 807.839 448.512 809.209L446.484 808.156C447.274 806.259 449.54 804.784 452.121 804.784ZM451.068 817.349C453.517 817.349 455.282 815.505 455.282 813.055V811.844L450.962 812.845C449.382 813.187 448.354 814.056 448.354 815.189C448.354 816.506 449.408 817.349 451.068 817.349ZM466.754 804.784C469.783 804.784 471.97 806.944 471.97 809.868V819.062H469.704V810.605C469.704 808.393 468.361 806.97 466.253 806.97C464.172 806.97 462.776 808.419 462.776 810.605V819.062H460.51V805.1H462.723V806.707C463.54 805.495 465.041 804.784 466.754 804.784ZM480.047 819.378C477.308 819.378 475.069 817.929 474.173 815.558L476.096 814.61C476.807 816.375 478.309 817.297 480.047 817.297C481.681 817.297 482.787 816.454 482.787 815.294C482.787 814.293 481.944 813.74 480.653 813.371L478.361 812.739C476.017 812.081 474.805 810.737 474.805 808.84C474.805 806.417 476.755 804.784 479.652 804.784C482.234 804.784 484.289 806.127 485.105 808.314L483.209 809.236C482.629 807.734 481.312 806.865 479.652 806.865C478.151 806.865 477.15 807.602 477.15 808.709C477.15 809.657 477.94 810.289 479.152 810.658L481.523 811.369C483.867 812.054 485.132 813.424 485.132 815.294C485.132 817.718 483.051 819.378 480.047 819.378ZM488.996 819.062V807.26H486.282V805.1H488.996V803.835C488.996 800.832 491.05 799.199 493.579 799.199C494.001 799.199 494.633 799.252 494.949 799.331V801.333C494.659 801.28 494.08 801.254 493.843 801.254C492.315 801.254 491.261 802.123 491.261 803.835V805.1H494.58V807.26H491.261V819.062H488.996ZM508.988 811.475C508.988 811.87 508.961 812.318 508.882 812.766H498.055C498.161 815.532 500.242 817.323 502.692 817.323C504.667 817.323 505.958 816.269 506.696 814.847L508.671 815.9C507.802 817.823 505.537 819.378 502.665 819.378C498.661 819.378 495.684 816.269 495.684 812.054C495.684 807.839 498.582 804.784 502.481 804.784C506.459 804.784 508.988 807.918 508.988 811.475ZM498.108 810.816H506.485C506.459 808.498 504.536 806.786 502.481 806.786C500.294 806.786 498.424 808.287 498.108 810.816ZM517.375 804.942H518.507V807.102H517.032C515.03 807.102 513.687 808.419 513.687 810.737V819.062H511.421V805.1H513.608V806.838C514.345 805.548 515.689 804.942 517.375 804.942Z" fill="white"/>
<g clip-path="url(#clip1_4206_134929)">
<path d="M803.982 827.198L802.995 822.262H791.965L790.21 827.163L781.369 827.18C785.578 817.059 789.796 806.942 794.022 796.828C794.742 795.112 796.019 794.239 797.901 794.248C799.34 794.261 801.687 794.261 804.947 794.252L811.783 827.185L803.982 827.198ZM794.448 815.501H801.556L798.901 803.128L794.448 815.501ZM737.46 794.244L746.349 794.252L732.607 827.202L723.609 827.193C721.346 818.49 719.111 809.779 716.905 801.062C716.466 799.324 715.597 798.109 713.925 797.534C711.456 796.707 708.976 795.914 706.484 795.156V794.257H720.687C723.143 794.257 724.578 795.446 725.039 797.885C725.504 800.329 726.671 806.55 728.549 816.549L737.46 794.244ZM758.563 794.252L751.535 827.193L743.076 827.185L750.095 794.244L758.563 794.252ZM775.718 793.643C778.25 793.643 781.439 794.432 783.273 795.156L781.79 801.987C780.132 801.321 777.403 800.421 775.108 800.452C771.774 800.509 769.712 801.909 769.712 803.251C769.712 805.436 773.292 806.537 776.977 808.924C781.185 811.644 781.738 814.088 781.685 816.742C781.628 822.253 776.977 827.689 767.167 827.689C762.692 827.623 761.077 827.246 757.427 825.952L758.971 818.822C762.687 820.38 764.263 820.875 767.439 820.875C770.348 820.875 772.844 819.7 772.866 817.651C772.884 816.194 771.989 815.47 768.725 813.671C765.46 811.868 760.88 809.372 760.941 804.361C761.016 797.947 767.092 793.643 775.722 793.643H775.718Z" fill="white"/>
</g>
<g clip-path="url(#clip2_4206_134929)">
<path d="M861.648 797.374H876.913V824.801H861.648V797.374Z" fill="#FF5F00"/>
<path d="M862.618 811.088C862.618 805.516 865.235 800.573 869.257 797.375C866.301 795.049 862.57 793.644 858.5 793.644C848.856 793.644 841.055 801.445 841.055 811.088C841.055 820.731 848.856 828.533 858.499 828.533C862.57 828.533 866.301 827.128 869.257 824.802C865.235 821.652 862.618 816.661 862.618 811.088Z" fill="#EB001B"/>
<path d="M897.507 811.088C897.507 820.731 889.705 828.533 880.062 828.533C875.992 828.533 872.261 827.128 869.305 824.802C873.375 821.604 875.943 816.661 875.943 811.088C875.943 805.516 873.327 800.573 869.305 797.375C872.26 795.049 875.992 793.644 880.062 793.644C889.705 793.644 897.507 801.494 897.507 811.088Z" fill="#F79E1B"/>
</g>
<rect x="128.861" y="214.174" width="823.216" height="550.178" rx="30.3675" fill="white"/>
<rect x="128.861" y="214.174" width="823.216" height="550.178" rx="30.3675" stroke="#14F195" stroke-width="3.65874"/>
<path d="M180.276 298.908V278.69H175.666V274.409L185.38 274.376V298.908H180.276ZM214.097 285.671C216.27 287.153 216.863 289.128 216.863 291.269C216.863 296.109 213.472 298.908 207.775 298.908H197.402V274.376H207.775C212.846 274.376 215.842 277.044 215.842 281.555C215.842 283.07 215.316 284.485 214.097 285.671ZM202.506 278.657V283.596H208.137C209.718 283.596 210.738 282.609 210.738 281.127C210.738 279.645 209.718 278.657 208.137 278.657H202.506ZM208.368 294.463C210.409 294.463 211.759 293.179 211.759 291.269C211.759 289.326 210.409 288.042 208.368 288.042H202.506V294.463H208.368ZM223.914 298.908V278.822H217.691V274.376H235.176V278.822H229.018V298.908H223.914ZM248.192 299.303C241.145 299.303 235.811 293.903 235.811 286.626C235.811 279.316 241.079 273.981 248.192 273.981C253.493 273.981 257.412 276.912 258.696 280.534L254.185 282.707C253.329 280.336 251.155 278.591 248.192 278.591C243.845 278.591 240.914 281.851 240.914 286.626C240.914 291.433 243.845 294.693 248.192 294.693C251.155 294.693 253.329 292.948 254.185 290.577L258.696 292.751C257.412 296.373 253.493 299.303 248.192 299.303ZM268.886 285.309V281.193H283.045V285.309H268.886ZM268.886 293.212V289.095H283.045V293.212H268.886ZM297.526 298.908V277.077H292.916V274.376H300.654V298.908H297.526ZM314.894 283.629C319.24 283.629 322.763 287.219 322.763 291.466C322.763 295.945 319.339 299.303 314.696 299.303C309.987 299.303 306.628 295.912 306.628 291.203C306.628 288.634 307.583 286.297 309.394 283.86L316.441 274.376H319.965L312.72 283.992C313.379 283.761 314.103 283.629 314.894 283.629ZM314.696 296.537C317.528 296.537 319.635 294.364 319.635 291.433C319.635 288.47 317.561 286.362 314.696 286.362C311.864 286.362 309.757 288.47 309.757 291.433C309.757 294.364 311.864 296.537 314.696 296.537ZM327.144 302.827L328.428 295.023H331.556L329.251 302.827H327.144ZM337.199 298.908L348.033 277.044H335.915V274.343H351.227V277.044L340.492 298.908H337.199ZM353.872 298.908L353.839 296.801L360.655 289.688C364.672 285.44 366.22 283.498 366.22 280.995C366.22 278.295 364.573 276.747 361.774 276.747C359.008 276.747 357.033 278.13 356.144 280.666L353.674 279.414C354.794 276.089 357.922 273.981 361.84 273.981C366.22 273.981 369.348 276.813 369.348 280.863C369.348 283.596 367.734 286.099 364.178 289.82L358.119 296.208H369.941V298.908H353.872ZM377.307 298.908V277.077H372.697V274.376H380.435V298.908H377.307ZM388.081 302.827L389.365 295.023H392.494L390.189 302.827H388.081ZM405.479 283.629C409.826 283.629 413.349 287.219 413.349 291.466C413.349 295.945 409.925 299.303 405.282 299.303C400.573 299.303 397.214 295.912 397.214 291.203C397.214 288.634 398.169 286.297 399.98 283.86L407.027 274.376H410.55L403.306 283.992C403.965 283.761 404.689 283.629 405.479 283.629ZM405.282 296.537C408.114 296.537 410.221 294.364 410.221 291.433C410.221 288.47 408.147 286.362 405.282 286.362C402.45 286.362 400.343 288.47 400.343 291.433C400.343 294.364 402.45 296.537 405.282 296.537ZM424.645 283.629C428.992 283.629 432.515 287.219 432.515 291.466C432.515 295.945 429.09 299.303 424.447 299.303C419.739 299.303 416.38 295.912 416.38 291.203C416.38 288.634 417.335 286.297 419.146 283.86L426.193 274.376H429.716L422.472 283.992C423.13 283.761 423.855 283.629 424.645 283.629ZM424.447 296.537C427.279 296.537 429.387 294.364 429.387 291.433C429.387 288.47 427.312 286.362 424.447 286.362C421.615 286.362 419.508 288.47 419.508 291.433C419.508 294.364 421.615 296.537 424.447 296.537ZM443.613 273.981C448.322 273.981 451.68 277.373 451.68 282.082C451.68 284.617 450.758 286.988 448.947 289.425L441.868 298.908H438.344L445.622 289.293C444.963 289.524 444.239 289.655 443.448 289.655C439.069 289.655 435.545 286.066 435.545 281.818C435.545 277.34 439.003 273.981 443.613 273.981ZM443.613 286.922C446.478 286.922 448.552 284.815 448.552 281.851C448.552 278.921 446.445 276.747 443.613 276.747C440.781 276.747 438.674 278.921 438.674 281.851C438.674 284.815 440.781 286.922 443.613 286.922ZM456.39 298.908V295.023H459.485V298.908H456.39ZM472.824 283.267C477.665 283.267 481.089 286.56 481.089 291.203C481.089 295.945 477.566 299.303 472.561 299.303C468.642 299.303 465.415 297.229 464.164 293.87L466.568 292.619C467.556 295.023 469.927 296.537 472.561 296.537C475.755 296.537 477.961 294.397 477.961 291.269C477.961 288.173 475.755 286.033 472.561 286.033C470.552 286.033 468.807 286.856 467.984 288.239L465.876 287.778L467.391 274.343H480.135V277.044H469.597L468.774 284.42C469.894 283.629 471.244 283.267 472.824 283.267ZM492.721 283.629C497.068 283.629 500.591 287.219 500.591 291.466C500.591 295.945 497.166 299.303 492.523 299.303C487.815 299.303 484.456 295.912 484.456 291.203C484.456 288.634 485.411 286.297 487.222 283.86L494.269 274.376H497.792L490.548 283.992C491.206 283.761 491.931 283.629 492.721 283.629ZM492.523 296.537C495.355 296.537 497.463 294.364 497.463 291.433C497.463 288.47 495.388 286.362 492.523 286.362C489.692 286.362 487.584 288.47 487.584 291.433C487.584 294.364 489.692 296.537 492.523 296.537ZM525.91 274.376H529.038V298.908H526.404L513.397 280.238V298.908H510.269V274.376H512.903L525.91 292.915V274.376ZM545.591 299.303C538.478 299.303 533.21 293.87 533.21 286.659C533.21 279.447 538.412 273.981 545.261 273.981C549.904 273.981 553.823 276.55 555.239 280.205L552.44 281.555C551.222 278.558 548.62 276.747 545.261 276.747C540.026 276.747 536.338 280.863 536.338 286.659C536.338 292.487 540.092 296.537 545.591 296.537C549.015 296.537 551.847 294.957 552.934 292.388V288.766H545.558V286.033H555.897V292.718C554.514 296.636 550.563 299.303 545.591 299.303ZM575.56 274.376H578.688V298.908H576.054L563.047 280.238V298.908H559.919V274.376H562.553L575.56 292.915V274.376Z" fill="black"/>
<rect x="174.594" y="324.543" width="731.747" height="132.794" rx="14.6349" fill="black" fill-opacity="0.1"/>
<rect x="178.252" y="328.202" width="724.43" height="125.476" rx="10.9762" stroke="black" stroke-opacity="0.1" stroke-width="7.31747"/>
<path d="M220.422 375.802C216.576 375.802 213.599 373.458 212.651 370.481L214.864 369.506C215.786 372.193 217.814 373.616 220.422 373.616C222.898 373.616 224.532 372.352 224.532 370.534C224.532 368.874 223.583 367.979 221.634 367.399L217.972 366.293C214.837 365.371 213.257 363.395 213.257 360.971C213.257 357.784 215.891 355.545 219.658 355.545C223.267 355.545 225.98 357.679 226.876 360.286L224.69 361.314C223.873 358.996 222.082 357.731 219.684 357.731C217.314 357.731 215.759 358.969 215.759 360.813C215.759 362.315 216.787 363.474 218.71 364.027L222.213 365.081C225.427 366.056 227.034 367.715 227.034 370.349C227.034 373.59 224.347 375.802 220.422 375.802ZM242.493 367.9C242.493 368.295 242.466 368.743 242.387 369.19H231.56C231.666 371.956 233.747 373.748 236.197 373.748C238.172 373.748 239.463 372.694 240.201 371.271L242.176 372.325C241.307 374.248 239.042 375.802 236.17 375.802C232.166 375.802 229.189 372.694 229.189 368.479C229.189 364.264 232.087 361.208 235.986 361.208C239.964 361.208 242.493 364.343 242.493 367.9ZM231.613 367.241H239.99C239.964 364.923 238.041 363.211 235.986 363.211C233.799 363.211 231.929 364.712 231.613 367.241ZM251.169 361.208C254.199 361.208 256.385 363.369 256.385 366.293V375.486H254.12V367.03C254.12 364.817 252.776 363.395 250.669 363.395C248.588 363.395 247.192 364.844 247.192 367.03V375.486H244.926V361.525H247.139V363.132C247.956 361.92 249.457 361.208 251.169 361.208ZM270.812 355.861H273.077V375.486H270.864V373.458C269.837 374.959 267.967 375.802 265.859 375.802C261.881 375.802 258.799 372.72 258.799 368.505C258.799 364.291 261.908 361.208 265.833 361.208C267.94 361.208 269.811 362.104 270.812 363.579V355.861ZM265.991 373.616C268.757 373.616 270.812 371.456 270.812 368.505C270.812 365.581 268.757 363.395 265.991 363.395C263.225 363.395 261.197 365.581 261.197 368.505C261.197 371.456 263.225 373.616 265.991 373.616Z" fill="#808080"/>
<path d="M222.405 424.961C216.478 424.961 212.46 419.89 212.46 412.283C212.46 404.677 216.445 399.638 222.372 399.638C228.365 399.638 232.316 404.709 232.316 412.283C232.316 419.857 228.365 424.961 222.405 424.961ZM222.405 420.351C225.467 420.351 227.245 417.387 227.245 412.283C227.245 407.212 225.467 404.248 222.372 404.248C219.31 404.248 217.531 407.179 217.531 412.283C217.531 417.354 219.343 420.351 222.405 420.351ZM235.447 424.565V419.626H240.387V424.565H235.447ZM253.468 424.961C247.541 424.961 243.524 419.89 243.524 412.283C243.524 404.677 247.508 399.638 253.435 399.638C259.429 399.638 263.38 404.709 263.38 412.283C263.38 419.857 259.429 424.961 253.468 424.961ZM253.468 420.351C256.531 420.351 258.309 417.387 258.309 412.283C258.309 407.212 256.531 404.248 253.435 404.248C250.373 404.248 248.595 407.179 248.595 412.283C248.595 417.354 250.406 420.351 253.468 420.351ZM275.303 424.961C269.376 424.961 265.358 419.89 265.358 412.283C265.358 404.677 269.343 399.638 275.27 399.638C281.263 399.638 285.214 404.709 285.214 412.283C285.214 419.857 281.263 424.961 275.303 424.961ZM275.303 420.351C278.365 420.351 280.143 417.387 280.143 412.283C280.143 407.212 278.365 404.248 275.27 404.248C272.208 404.248 270.43 407.179 270.43 412.283C270.43 417.354 272.241 420.351 275.303 420.351ZM297.137 424.961C291.21 424.961 287.193 419.89 287.193 412.283C287.193 404.677 291.177 399.638 297.105 399.638C303.098 399.638 307.049 404.709 307.049 412.283C307.049 419.857 303.098 424.961 297.137 424.961ZM297.137 420.351C300.2 420.351 301.978 417.387 301.978 412.283C301.978 407.212 300.2 404.248 297.105 404.248C294.042 404.248 292.264 407.179 292.264 412.283C292.264 417.354 294.075 420.351 297.137 420.351ZM313.308 424.565V404.347H308.698V400.067L318.412 400.034V424.565H313.308ZM333.475 424.961C327.548 424.961 323.53 419.89 323.53 412.283C323.53 404.677 327.515 399.638 333.442 399.638C339.435 399.638 343.386 404.709 343.386 412.283C343.386 419.857 339.435 424.961 333.475 424.961ZM333.475 420.351C336.537 420.351 338.315 417.387 338.315 412.283C338.315 407.212 336.537 404.248 333.442 404.248C330.379 404.248 328.601 407.179 328.601 412.283C328.601 417.354 330.412 420.351 333.475 420.351ZM355.046 408.826C359.59 408.826 362.883 412.546 362.883 416.827C362.883 421.47 359.228 424.961 354.124 424.961C349.02 424.961 345.365 421.47 345.365 416.827C345.365 414.621 346.32 412.843 347.834 410.735L355.441 400.034H361.203L355.013 408.826H355.046ZM354.124 420.351C356.132 420.351 357.779 418.869 357.779 416.663C357.779 414.456 356.132 413.007 354.124 413.007C352.115 413.007 350.469 414.456 350.469 416.663C350.469 418.869 352.115 420.351 354.124 420.351ZM373.611 399.638C378.715 399.638 382.37 403.129 382.37 407.772C382.37 409.945 381.448 411.69 379.9 413.864L372.294 424.565H366.531L372.722 415.773H372.689C368.145 415.773 364.852 412.053 364.852 407.772C364.852 403.129 368.507 399.638 373.611 399.638ZM373.611 411.592C375.62 411.592 377.266 410.143 377.266 407.936C377.266 405.73 375.62 404.248 373.611 404.248C371.602 404.248 369.956 405.73 369.956 407.936C369.956 410.143 371.602 411.592 373.611 411.592ZM395.798 409.385C399.354 409.978 401.594 412.645 401.594 416.432C401.594 421.338 397.741 424.961 392.538 424.961C388.62 424.961 385.393 422.886 384.174 419.593L388.192 417.288C388.916 419.264 390.431 420.351 392.538 420.351C394.942 420.351 396.49 418.902 396.49 416.63C396.49 414.39 395.008 413.007 392.538 413.007C391.55 413.007 390.562 413.238 389.772 413.633L388.587 411.163L394.909 404.314H385.294V400.034H400.606V403.985L395.798 409.385Z" fill="#808080"/>
<path d="M774.78 391.694C776.953 393.176 777.546 395.152 777.546 397.292C777.546 402.133 774.155 404.932 768.458 404.932H758.085V380.4H768.458C773.529 380.4 776.525 383.067 776.525 387.578C776.525 389.093 775.999 390.509 774.78 391.694ZM763.189 384.681V389.62H768.82C770.401 389.62 771.421 388.632 771.421 387.15C771.421 385.668 770.401 384.681 768.82 384.681H763.189ZM769.051 400.486C771.092 400.486 772.442 399.202 772.442 397.292C772.442 395.349 771.092 394.065 769.051 394.065H763.189V400.486H769.051ZM784.597 404.932V384.845H778.374V380.4H795.859V384.845H789.701V404.932H784.597ZM808.875 405.327C801.828 405.327 796.494 399.926 796.494 392.649C796.494 385.339 801.762 380.005 808.875 380.005C814.176 380.005 818.095 382.935 819.379 386.557L814.868 388.731C814.012 386.36 811.838 384.615 808.875 384.615C804.528 384.615 801.597 387.875 801.597 392.649C801.597 397.457 804.528 400.717 808.875 400.717C811.838 400.717 814.012 398.972 814.868 396.601L819.379 398.774C818.095 402.396 814.176 405.327 808.875 405.327Z" fill="#808080"/>
<g opacity="0.31">
<g clip-path="url(#clip3_4206_134929)">
<path fill-rule="evenodd" clip-rule="evenodd" d="M901.05 381.18C902.978 384.066 904.008 387.46 904.008 390.932C904.008 393.237 903.554 395.519 902.672 397.649C901.79 399.778 900.497 401.713 898.867 403.343C897.237 404.973 895.302 406.266 893.172 407.148C891.043 408.03 888.76 408.484 886.455 408.484C882.983 408.484 879.59 407.455 876.703 405.526C873.817 403.597 871.567 400.856 870.238 397.649C868.91 394.442 868.562 390.912 869.24 387.507C869.917 384.102 871.589 380.975 874.043 378.52C876.498 376.065 879.626 374.393 883.031 373.716C886.436 373.039 889.965 373.387 893.172 374.715C896.38 376.044 899.121 378.293 901.05 381.18ZM894.564 389.176L889.491 397.953C889.183 398.485 888.74 398.926 888.207 399.233C887.674 399.54 887.07 399.702 886.455 399.702C885.84 399.702 885.235 399.54 884.702 399.233C884.17 398.926 883.727 398.485 883.418 397.953L878.345 389.176C878.037 388.643 877.875 388.037 877.875 387.421C877.875 386.805 878.037 386.2 878.345 385.666C878.653 385.133 879.096 384.69 879.629 384.382C880.162 384.074 880.766 383.911 881.382 383.911H891.527C892.143 383.911 892.748 384.074 893.281 384.382C893.815 384.691 894.257 385.134 894.565 385.667C894.873 386.201 895.034 386.806 895.034 387.422C895.034 388.038 894.872 388.643 894.564 389.176ZM886.455 396.198L881.382 387.421H891.527L886.455 396.198Z" fill="white"/>
</g>
</g>
<rect x="174.594" y="471.972" width="731.747" height="132.794" rx="14.6349" fill="black" fill-opacity="0.1"/>
<rect x="178.252" y="475.63" width="724.43" height="125.476" rx="10.9762" stroke="black" stroke-opacity="0.1" stroke-width="7.31747"/>
<path d="M213.559 522.915V503.29H220.566C224.57 503.29 227.31 505.66 227.31 509.348C227.31 512.062 225.835 514.09 223.385 514.933L227.968 522.915H225.071L220.803 515.381H216.061V522.915H213.559ZM216.061 513.195H220.566C223.069 513.195 224.728 511.64 224.728 509.322C224.728 507.03 223.069 505.476 220.566 505.476H216.061V513.195ZM242.504 515.328C242.504 515.723 242.478 516.171 242.399 516.619H231.572C231.677 519.385 233.758 521.176 236.208 521.176C238.184 521.176 239.475 520.123 240.212 518.7L242.188 519.754C241.319 521.677 239.053 523.231 236.182 523.231C232.178 523.231 229.201 520.123 229.201 515.908C229.201 511.693 232.099 508.637 235.997 508.637C239.975 508.637 242.504 511.772 242.504 515.328ZM231.624 514.67H240.002C239.975 512.352 238.052 510.639 235.997 510.639C233.811 510.639 231.941 512.141 231.624 514.67ZM251.128 523.231C247.124 523.231 244.147 520.096 244.147 515.908C244.147 511.719 247.124 508.637 251.128 508.637C253.868 508.637 256.186 510.244 257.055 512.325L255.027 513.379C254.342 511.851 252.946 510.824 251.128 510.824C248.494 510.824 246.545 512.984 246.545 515.934C246.545 518.832 248.494 521.045 251.128 521.045C252.946 521.045 254.342 520.017 255.027 518.489L257.055 519.543C256.186 521.598 253.842 523.231 251.128 523.231ZM271.986 515.328C271.986 515.723 271.959 516.171 271.88 516.619H261.053C261.159 519.385 263.24 521.176 265.69 521.176C267.665 521.176 268.956 520.123 269.694 518.7L271.669 519.754C270.8 521.677 268.535 523.231 265.663 523.231C261.659 523.231 258.682 520.123 258.682 515.908C258.682 511.693 261.58 508.637 265.479 508.637C269.457 508.637 271.986 511.772 271.986 515.328ZM261.106 514.67H269.483C269.457 512.352 267.534 510.639 265.479 510.639C263.292 510.639 261.422 512.141 261.106 514.67ZM274.208 506.372V503.29H276.474V506.372H274.208ZM274.208 522.915V508.953H276.474V522.915H274.208ZM289.175 508.953H291.704L286.093 522.915H284.012L278.427 508.953H280.956L285.066 519.807L289.175 508.953ZM306.123 515.328C306.123 515.723 306.097 516.171 306.018 516.619H295.191C295.296 519.385 297.377 521.176 299.827 521.176C301.803 521.176 303.094 520.123 303.831 518.7L305.807 519.754C304.938 521.677 302.672 523.231 299.801 523.231C295.797 523.231 292.82 520.123 292.82 515.908C292.82 511.693 295.718 508.637 299.617 508.637C303.594 508.637 306.123 511.772 306.123 515.328ZM295.244 514.67H303.621C303.594 512.352 301.671 510.639 299.617 510.639C297.43 510.639 295.56 512.141 295.244 514.67Z" fill="#808080"/>
<path d="M221.829 555.826C226.538 555.826 229.798 559.02 229.798 563.597C229.798 568.635 226.011 572.389 220.875 572.389C216.923 572.389 213.564 570.249 212.412 567.022L216.462 564.717C217.154 566.561 218.866 567.779 220.875 567.779C223.147 567.779 224.694 566.232 224.694 563.927C224.694 561.655 223.147 560.107 220.875 560.107C219.36 560.107 218.306 560.798 217.746 562.181L213.729 561.194L216.034 547.462H229.238V551.743L219.492 551.71L218.701 556.551C219.557 556.057 220.578 555.826 221.829 555.826ZM242.04 572.389C236.113 572.389 232.096 567.318 232.096 559.712C232.096 552.105 236.08 547.067 242.007 547.067C248 547.067 251.952 552.138 251.952 559.712C251.952 567.285 248 572.389 242.04 572.389ZM242.04 567.779C245.103 567.779 246.881 564.816 246.881 559.712C246.881 554.641 245.103 551.677 242.007 551.677C238.945 551.677 237.167 554.608 237.167 559.712C237.167 564.783 238.978 567.779 242.04 567.779ZM253.799 571.994L253.766 568.043L260.351 561.259C264.204 557.275 265.06 556.123 265.06 554.575C265.06 552.797 263.875 551.677 261.998 551.677C260.088 551.677 258.54 552.83 257.882 554.74L253.864 552.435C254.984 549.142 258.244 547.067 262.327 547.067C267.003 547.067 270.164 549.833 270.164 553.949C270.164 556.616 268.715 558.856 265.785 561.852L260.088 567.713H270.46V571.994H253.799Z" fill="#808080"/>
<path d="M763.166 527.846H768.27V552.378H764.319L753.288 537.527V552.378H748.184V527.846H752.102L763.166 542.598V527.846ZM784.124 552.773C776.748 552.773 771.414 547.373 771.414 540.096C771.414 532.785 776.682 527.451 783.795 527.451C789.097 527.451 793.015 530.382 794.299 534.004L789.788 536.177C788.932 533.806 786.759 532.061 783.795 532.061C779.448 532.061 776.518 535.321 776.518 540.096C776.518 544.903 779.448 548.163 784.124 548.163C787.549 548.163 789.492 546.615 790.117 545.134V542.993H784.19V538.548H795.057V545.463C794.069 549.48 790.282 552.773 784.124 552.773ZM813.009 527.846H818.113V552.378H814.162L803.131 537.527V552.378H798.027V527.846H801.945L813.009 542.598V527.846Z" fill="#808080"/>
<g opacity="0.31">
<g clip-path="url(#clip4_4206_134929)">
<path fill-rule="evenodd" clip-rule="evenodd" d="M900.893 528.626C902.822 531.513 903.852 534.906 903.852 538.378C903.852 540.683 903.398 542.966 902.515 545.095C901.633 547.225 900.34 549.16 898.71 550.79C897.081 552.42 895.146 553.713 893.016 554.595C890.886 555.477 888.604 555.931 886.299 555.931C882.827 555.931 879.434 554.901 876.547 552.973C873.66 551.044 871.411 548.302 870.082 545.095C868.754 541.888 868.406 538.359 869.083 534.954C869.761 531.549 871.432 528.421 873.887 525.966C876.342 523.511 879.47 521.84 882.874 521.162C886.279 520.485 889.809 520.833 893.016 522.161C896.223 523.49 898.965 525.74 900.893 528.626ZM894.408 536.623L889.335 545.399C889.026 545.931 888.583 546.373 888.051 546.68C887.518 546.987 886.913 547.148 886.298 547.148C885.683 547.148 885.079 546.987 884.546 546.68C884.013 546.373 883.57 545.931 883.262 545.399L878.189 536.623C877.881 536.089 877.719 535.484 877.719 534.867C877.719 534.251 877.881 533.646 878.189 533.112C878.497 532.579 878.939 532.136 879.472 531.828C880.005 531.52 880.61 531.357 881.226 531.357L891.371 531.357C891.987 531.357 892.592 531.52 893.125 531.829C893.658 532.137 894.101 532.58 894.409 533.114C894.716 533.647 894.878 534.252 894.878 534.868C894.878 535.484 894.716 536.089 894.408 536.623ZM886.298 543.644L881.226 534.867H891.371L886.298 543.644Z" fill="white"/>
</g>
</g>
<rect x="175.508" y="620.315" width="289.564" height="82.7342" rx="13.7203" fill="#14F195"/>
<rect x="175.508" y="620.315" width="289.564" height="82.7342" rx="13.7203" stroke="black" stroke-width="1.82937"/>
<path d="M213.969 674.534C209.637 674.534 205.949 672.104 204.749 668.416L208.554 666.631C209.608 669.177 211.803 670.582 213.969 670.582C216.193 670.582 217.511 669.558 217.511 668.27C217.511 667.129 216.72 666.514 215.432 666.104L210.983 664.699C207.266 663.528 205.51 661.421 205.51 658.523C205.51 654.63 208.642 652.025 213.354 652.025C217.54 652.025 220.818 654.338 221.989 657.557L218.184 659.343C217.452 657.265 215.696 655.977 213.354 655.977C211.364 655.977 210.047 657.001 210.047 658.348C210.047 659.372 210.808 660.133 212.213 660.572L216.545 661.919C220.203 663.06 222.047 665.021 222.047 668.007C222.047 671.929 218.828 674.534 213.969 674.534ZM224.696 674.183V652.377H239.36V656.328H229.233V661.275H238.775V665.226H229.233V670.231H239.36L239.331 674.183H224.696ZM242.275 674.183V652.377H246.812V670.231H256.617V674.183H242.275ZM258.968 674.183V652.377H263.505V670.231H273.31V674.183H258.968ZM291.75 674.534C285.165 674.534 280.189 669.675 280.189 663.265C280.189 656.855 285.135 652.025 291.75 652.025C298.365 652.025 303.312 656.855 303.312 663.265C303.312 669.675 298.336 674.534 291.75 674.534ZM291.75 670.436C295.731 670.436 298.775 667.48 298.775 663.265C298.775 659.05 295.731 656.123 291.75 656.123C287.77 656.123 284.725 659.05 284.725 663.265C284.725 667.48 287.77 670.436 291.75 670.436ZM319.421 652.377H323.957V674.183H320.445L310.64 660.982V674.183H306.103V652.377H309.586L319.421 665.489V652.377ZM343.017 674.534C336.753 674.534 332.011 669.734 332.011 663.265C332.011 656.767 336.694 652.025 343.017 652.025C347.729 652.025 351.212 654.63 352.354 657.85L348.344 659.782C347.583 657.674 345.651 656.123 343.017 656.123C339.153 656.123 336.548 659.021 336.548 663.265C336.548 667.538 339.153 670.436 343.017 670.436C345.651 670.436 347.583 668.885 348.344 666.777L352.354 668.709C351.212 671.929 347.729 674.534 343.017 674.534ZM354.981 674.183V652.377H363.938C368.445 652.377 371.665 654.777 371.665 659.343C371.665 662.328 370.202 664.436 367.889 665.489L372.865 674.183H367.772L363.352 666.28H359.518V674.183H354.981ZM359.518 662.328H363.967C365.87 662.328 367.128 661.128 367.128 659.343C367.128 657.528 365.87 656.328 363.967 656.328H359.518V662.328ZM387.187 652.377L394.621 674.183H389.821L388.357 669.734H380.015L378.552 674.183H373.752L381.186 652.377H387.187ZM381.303 665.782H387.069L384.201 656.943L381.303 665.782ZM409.831 652.377H414.368V674.183H410.856L401.05 660.982V674.183H396.514V652.377H399.997L409.831 665.489V652.377ZM417.894 674.183V652.377H432.559V656.328H422.431V661.275H431.973V665.226H422.431V670.231H432.559L432.529 674.183H417.894Z" fill="black"/>
</g>
<defs>
<clipPath id="clip0_4206_134929">
<rect width="1079.06" height="1079.06" fill="white" transform="translate(0.9375 0.0400391)"/>
</clipPath>
<clipPath id="clip1_4206_134929">
<rect width="105.298" height="35.0995" fill="white" transform="translate(706.484 793.643)"/>
</clipPath>
<clipPath id="clip2_4206_134929">
<rect width="56.5092" height="35.0975" fill="white" transform="translate(841.055 793.644)"/>
</clipPath>
<clipPath id="clip3_4206_134929">
<rect width="35.1056" height="35.1056" fill="white" transform="matrix(0 1 -1 0 904.008 373.379)"/>
</clipPath>
<clipPath id="clip4_4206_134929">
<rect width="35.1056" height="35.1056" fill="white" transform="matrix(0 1 -1 0 903.852 520.825)"/>
</clipPath>
</defs>
</svg>
