<svg width="1080" height="716" viewBox="0 0 1080 716" fill="none" xmlns="http://www.w3.org/2000/svg">
<g clip-path="url(#clip0_4190_27112)">
<rect width="1079.06" height="714.721" transform="translate(0.9375 0.720703)" fill="#101010"/>
<rect x="-129.93" y="0.720703" width="1340.79" height="714.721" rx="49.6589" fill="#0F2E15"/>
<rect x="175.117" y="246.439" width="730.698" height="223.285" rx="111.642" fill="white"/>
<path d="M303.646 378.082H287.948V338.026H303.104C308.987 338.026 313.768 339.902 317.449 343.655C321.166 347.372 323.024 352.208 323.024 358.162C323.024 364.008 321.22 368.79 317.611 372.507C314.003 376.224 309.347 378.082 303.646 378.082ZM302.238 346.145H296.717V369.962H302.78C306.244 369.962 308.932 368.934 310.845 366.877C312.794 364.784 313.768 361.879 313.768 358.162C313.768 354.373 312.758 351.432 310.737 349.339C308.716 347.21 305.883 346.145 302.238 346.145ZM359.602 343.06C363.247 346.885 365.07 351.865 365.07 358C365.07 364.134 363.229 369.132 359.548 372.994C355.904 376.819 351.176 378.732 345.366 378.732C339.592 378.732 334.883 376.819 331.238 372.994C327.63 369.169 325.825 364.189 325.825 358.054C325.825 351.919 327.648 346.939 331.292 343.114C334.937 339.253 339.646 337.322 345.42 337.322C351.23 337.322 355.958 339.235 359.602 343.06ZM355.813 358C355.813 354.174 354.893 351.179 353.053 349.014C351.212 346.849 348.686 345.766 345.474 345.766C342.227 345.766 339.683 346.849 337.842 349.014C336.002 351.179 335.081 354.174 335.081 358C335.081 361.825 336.002 364.838 337.842 367.039C339.683 369.205 342.227 370.287 345.474 370.287C348.686 370.287 351.212 369.187 353.053 366.985C354.893 364.784 355.813 361.789 355.813 358ZM378.758 378.082H370.097V338.026H378.758L395.646 363.521V338.026H404.307V378.082H395.646L378.758 352.641V378.082ZM417.035 378.082H407.887L422.177 338.026H430.73L444.966 378.082H435.656L432.841 369.638H419.904L417.035 378.082ZM425.317 353.723L422.448 362.276H430.351L427.482 353.723C426.869 351.847 426.508 350.548 426.4 349.826C426.255 350.764 425.894 352.063 425.317 353.723ZM441.918 346.145V338.026H473.422V346.145H462.055V378.082H453.286V346.145H441.918ZM503.035 378.082H477.594V338.026H503.035V346.145H486.363V353.994H501.141V361.681H486.363V369.962H503.035V378.082ZM531.031 378.082H522.37V338.026H531.031L547.919 363.521V338.026H556.58V378.082H547.919L531.031 352.641V378.082ZM595.399 343.06C599.044 346.885 600.866 351.865 600.866 358C600.866 364.134 599.026 369.132 595.345 372.994C591.7 376.819 586.973 378.732 581.163 378.732C575.389 378.732 570.679 376.819 567.035 372.994C563.426 369.169 561.622 364.189 561.622 358.054C561.622 351.919 563.444 346.939 567.089 343.114C570.734 339.253 575.443 337.322 581.217 337.322C587.027 337.322 591.754 339.235 595.399 343.06ZM591.61 358C591.61 354.174 590.69 351.179 588.849 349.014C587.009 346.849 584.483 345.766 581.271 345.766C578.023 345.766 575.479 346.849 573.639 349.014C571.798 351.179 570.878 354.174 570.878 358C570.878 361.825 571.798 364.838 573.639 367.039C575.479 369.205 578.023 370.287 581.271 370.287C584.483 370.287 587.009 369.187 588.849 366.985C590.69 364.784 591.61 361.789 591.61 358ZM612.916 378.082L600.899 338.026H610.047L615.297 355.401C616.163 358.288 616.831 361.193 617.3 364.116C617.733 361.518 618.401 358.613 619.303 355.401L624.229 338.026H634.026L638.736 355.401C639.602 358.649 640.269 361.554 640.738 364.116C641.388 360.905 642.092 358.036 642.85 355.51L648.208 338.026H657.14L644.907 378.082H636.354L629.046 351.775L621.522 378.082H612.916Z" fill="#101010"/>
<rect x="712.508" y="352.633" width="85.0467" height="10.9034" fill="#101010"/>
<rect x="775.305" y="341.289" width="11.3396" height="11.3396" fill="#101010"/>
<rect x="775.305" y="363.535" width="11.3396" height="11.3396" fill="#101010"/>
<rect x="763.977" y="374.875" width="11.3396" height="11.3396" fill="#101010"/>
<rect x="752.633" y="386.211" width="11.3396" height="11.3396" fill="#101010"/>
<rect x="763.977" y="329.953" width="11.3396" height="11.3396" fill="#101010"/>
<rect x="752.633" y="318.613" width="11.3396" height="11.3396" fill="#101010"/>
<g clip-path="url(#clip1_4190_27112)">
<path d="M-89.7578 441.697C-89.7578 441.697 -1.45993 524.55 -28.8677 549.893C-39.8926 560.087 -57.5382 553.279 -70.179 550.578C-38.4501 574.397 -9.82339 600.903 17.9958 629.118C173.676 586.293 285.369 677.902 300.106 718.191H296.843C286.527 687.822 174.199 589.342 19.8147 631.864C19.8147 631.864 54.0977 667.031 58.3509 672.008C71.0323 686.845 83.0806 702.522 94.571 718.191H91.3083C79.444 702.443 67.2794 686.809 54.2888 672.009C49.9874 667.11 16.8726 632.691 16.8726 632.691C-53.9936 658.597 -89.4639 708.325 -89.7578 710.576V705.141C-89.3566 700.482 -50.7709 652.938 15.4524 629.692C-18.1418 597.897 -51.5156 565.898 -89.7578 539.571V536.309C-74.2873 544.704 -48.3767 559.861 -31.8129 548.172C-5.31056 529.468 -89.7578 445.775 -89.7578 445.775V441.697Z" fill="#24E669"/>
<path fill-rule="evenodd" clip-rule="evenodd" d="M99.9791 7.36914C68.7684 143.376 1.20419 246.373 -85.9141 338.243V342.35C19.119 232.178 76.3668 124.288 102.236 7.36914H99.9791Z" fill="#24E669"/>
<path d="M961.572 7.78711C920.536 48.3397 978.391 94.3334 978.391 94.3334C1009.64 56.9514 1042.35 34.8939 1075.75 20.0266L1076.78 21.9846C1039.34 39.4157 1006.91 63.4629 981.153 96.2889C981.153 96.2889 1011.26 124.56 1071.31 122.19C1129.38 119.897 1169.02 63.2179 1141.82 7.78711H1144.27C1161.84 41.7629 1153.74 82.3936 1124.11 105.8C1109.3 117.508 1090.97 123.993 1072.13 125.306C1013.55 129.392 979.551 98.2037 979.551 98.2037C953.511 133.598 965.885 190.547 995.68 214.889C1046.97 256.794 1122.21 244.998 1172.82 208.428V212.506C1119.92 249.179 1038.8 260.128 988.451 212.146C963.708 188.566 948.708 138.504 976.922 96.4584C976.922 96.4584 965.323 86.509 962.442 82.9828C942.851 59.0111 935.426 33.1683 957.494 7.78711H961.572Z" fill="#24E669"/>
<path d="M1111.66 499.166C1090.11 507.773 1126.47 599.384 1127.4 599.12C1131.18 598.043 1133.17 490.576 1111.66 499.166ZM1062.71 718.186C1077.43 704.894 1121.55 634.099 1125.82 604.419C1125.82 604.419 1083.03 501.223 1111.63 495.262C1137.31 489.908 1133.6 578.636 1129.75 603.884C1129.63 604.656 1154.5 631.778 1170.89 634.817V638.079C1153.06 634.723 1128.47 607.498 1128.47 607.498C1119.09 641.459 1084.05 701.989 1065.97 718.186H1062.71Z" fill="#24E669"/>
<path d="M917.536 718.188C906.359 677.396 910.922 627.961 944.891 599.141C988.775 561.908 1025.61 599.255 1029.3 645.985C1031.25 670.743 1025.65 695.226 1017.04 718.188H1013.78C1025.55 688.668 1030.87 655.506 1021.69 624.23C1007.31 575.257 958.896 577.896 933.19 615.985C913.217 645.579 909.92 684.665 921.614 718.188H917.536Z" fill="#24E669"/>
<path d="M833.53 718.188H830.267C822.687 678.299 836.939 582.83 839.662 583.616L842.239 584.772C840.283 584.066 825.955 679.283 833.53 718.188Z" fill="#24E669"/>
<path d="M691.611 7.78711C702.427 48.6305 732.99 78.1373 769.744 96.4476C771.764 97.4552 789.77 103.545 787.033 105.656C785.483 106.85 769.926 100.251 767.357 99.0215C732.214 82.1962 697.835 46.8357 689.164 7.78711H691.611Z" fill="#24E669"/>
<path fill-rule="evenodd" clip-rule="evenodd" d="M-24.6813 7.36914C-166.865 217.883 162.465 263.374 306.648 7.36914H309.907C146.327 281.438 -151.278 204.522 -36.0001 22.1933L-27.4069 7.36914H-24.6813Z" fill="#24E669"/>
</g>
</g>
<defs>
<clipPath id="clip0_4190_27112">
<rect width="1079.06" height="714.721" fill="white" transform="translate(0.9375 0.720703)"/>
</clipPath>
<clipPath id="clip1_4190_27112">
<rect width="1253.92" height="702.828" fill="white" transform="translate(-85.9141 7.36914)"/>
</clipPath>
</defs>
</svg>
