<svg width="240" height="240" viewBox="0 0 240 240" fill="none" xmlns="http://www.w3.org/2000/svg">
<path d="M238.804 112.592C238.806 112.575 238.814 112.56 238.814 112.543C238.814 112.481 238.808 112.419 238.792 112.361C238.53 106.589 238.315 105.083 237.485 100.024C237.485 100.019 237.487 100.016 237.487 100.011C237.487 99.9149 237.47 99.8241 237.436 99.7384V99.7367C236.718 95.5604 236.386 93.7101 235.366 90.0648C234.534 86.4549 233.994 84.818 232.557 80.6181C232.557 80.6181 232.556 80.6181 232.556 80.6164C231.796 78.3207 230.672 75.6283 229.667 73.2671C229.647 73.1847 229.618 73.1058 229.571 73.0369C227.769 68.5681 226.951 66.9917 224.682 62.7751C224.68 62.7734 224.68 62.7717 224.679 62.7717C224.679 62.7717 224.679 62.77 224.679 62.7684C222.66 59.1046 221.68 57.3584 219.633 54.3754C217.746 51.3553 216.546 49.7705 214.019 46.4849C214.015 46.4799 214.01 46.4782 214.007 46.4731C214.003 46.4698 214.003 46.4647 214 46.4597L209.466 41.0246C209.256 40.7574 209.037 40.4902 208.797 40.223C208.741 40.1625 208.674 40.1188 208.605 40.0801C205.854 36.8987 204.436 35.5021 200.703 31.998C200.701 31.9963 200.701 31.9964 200.7 31.9964C200.698 31.9947 200.698 31.993 200.696 31.9913C197.133 28.7376 195.93 27.6974 192.27 24.9731C190.648 23.7093 189.045 22.5295 187.367 21.3665L186.855 20.9917C185.998 20.4035 185.067 19.7935 183.941 19.0792C183.889 19.0372 183.831 18.9969 183.768 18.97C182.104 17.9095 180.406 16.8843 178.553 15.8171C176.322 14.6357 174.649 13.7483 173.235 13.0189C173.151 12.9282 173.047 12.8593 172.926 12.8189C172.109 12.4089 171.282 12.0122 170.459 11.6307C168.412 10.6509 166.425 9.81064 163.251 8.50985C163.249 8.50985 163.247 8.50984 163.244 8.50816C163.242 8.50816 163.241 8.5048 163.237 8.5048C160.785 7.55525 159.587 7.11156 157.765 6.5183C155.886 5.85782 154.827 5.54187 152.29 4.80913C152.29 4.80745 152.288 4.80914 152.288 4.80746C150.429 4.28311 149.636 4.068 148.075 3.69994C146.434 3.28147 145.75 3.1386 143.929 2.75878L143.927 2.75711C143.159 2.60082 142.236 2.4294 141.349 2.2647C141.347 2.2647 141.344 2.2647 141.342 2.2647C141.329 2.26302 141.315 2.2563 141.304 2.25462C139.25 1.86808 138.788 1.79915 137.097 1.54874C133.208 1.02607 133.208 1.02609 131.181 0.827781L130.348 0.757183C129.842 0.711807 129.331 0.668118 128.817 0.627783C127.491 0.518544 127.092 0.498357 125.786 0.429452C124.381 0.347102 123.733 0.335346 120.614 0.274844C120.612 0.274844 120.609 0.276536 120.607 0.276536C120.605 0.276536 120.603 0.274844 120.602 0.274844L119.597 0.271484C119.595 0.271484 119.593 0.271484 119.592 0.271484C119.556 0.271484 119.528 0.288305 119.494 0.291666L119.16 0.296693C118.728 0.301734 118.298 0.308471 117.866 0.316874C117.807 0.30343 117.733 0.289974 117.63 0.289974L115.407 0.348801C115.405 0.348801 115.405 0.348801 115.404 0.348801C115.402 0.348801 115.4 0.348801 115.4 0.348801C114.809 0.370649 114.088 0.405942 113.412 0.442915L112.461 0.489972C112.447 0.491653 112.436 0.493318 112.424 0.494998C111.553 0.542055 111.058 0.582406 109.89 0.67484L108.977 0.760543C108.977 0.762223 108.977 0.762235 108.977 0.762235H108.975L108.364 0.81937H108.362C105.898 1.05634 105.572 1.09668 103.747 1.34205C103.394 1.39583 103.056 1.45127 102.713 1.50673C102.681 1.50673 102.651 1.49497 102.619 1.50002C101.418 1.67312 100.25 1.86135 99.1689 2.05798C98.4597 2.16554 97.7472 2.29998 97.0497 2.45123C97.0262 2.45627 97.0094 2.47141 96.9875 2.47813C95.8951 2.65796 94.8027 2.87811 93.749 3.14365C86.1022 4.92005 81.8822 6.33177 75.8387 8.64261C75.8387 8.64261 75.8387 8.64259 75.837 8.64428C75.3614 8.8241 74.8808 9.00897 74.3917 9.19888C74.385 9.20224 74.3833 9.20562 74.3766 9.20898C74.3716 9.21066 74.3648 9.21066 74.3598 9.21234L73.3985 9.64088C70.291 11.0257 67.2206 12.4172 63.819 14.2004C63.4661 14.3768 63.1148 14.5533 62.772 14.7264C62.2544 15.002 61.767 15.281 61.3015 15.5617C60.6107 15.9465 59.925 16.3448 59.2376 16.7431C59.2107 16.7566 59.1805 16.7583 59.1536 16.7734C58.9049 16.9196 58.6595 17.0658 58.436 17.2053C57.8041 17.5801 57.1755 17.9616 56.552 18.3532C56.5403 18.3599 56.5335 18.3717 56.5218 18.3817C56.0428 18.6792 55.5605 18.9817 55.0714 19.2926L53.9757 20.0539C52.1388 21.2371 50.3758 22.4556 48.7255 23.679C48.3154 23.995 47.8868 24.3311 47.4482 24.679C44.9693 26.5226 42.9257 28.22 39.0401 31.6619C39.0351 31.667 39.0333 31.6737 39.0283 31.6787C39.0233 31.6821 39.0182 31.6838 39.0132 31.6888L33.4218 37.1575C33.1512 37.4382 32.9042 37.7189 32.6706 38.0012C29.9816 40.7608 28.5363 42.5103 25.649 46.1219C25.649 46.1236 25.6473 46.1253 25.6473 46.1269C25.6473 46.1286 25.6439 46.1303 25.6423 46.132C23.0877 49.4327 21.8743 51.0242 19.9736 54.0409C18.0207 56.8744 17.0342 58.5819 14.9116 62.3969C14.9099 62.4003 14.9099 62.402 14.9082 62.4053C14.9065 62.4087 14.9048 62.4104 14.9032 62.4121L13.0763 65.8791C12.8764 66.2707 12.6982 66.701 12.5268 67.185C12.2159 67.8102 11.9335 68.385 11.6714 68.9194C11.5907 68.9883 11.5218 69.0706 11.473 69.1715C11.4209 69.2824 11.3688 69.3967 11.3201 69.5093C11.1235 69.9529 10.9218 70.4168 10.7184 70.8907C9.05969 74.383 8.40593 76.1729 6.96228 80.2282C6.96228 80.2282 6.96227 80.2299 6.96059 80.2316C6.96059 80.2332 6.95893 80.2332 6.95893 80.2349C5.50688 84.4381 4.95899 86.0801 4.11869 89.6665C3.0868 93.305 2.74562 95.1571 2.00616 99.3485V99.3502L1.98767 99.4527C1.94229 99.725 1.91204 99.9939 1.88683 100.264C1.88683 100.266 1.88683 100.266 1.88683 100.268C1.76583 101.194 1.65492 102.044 1.55072 102.837C1.48349 102.933 1.43138 103.039 1.41457 103.162C1.386 103.363 1.36417 103.565 1.34736 103.769C1.26165 104.592 1.17929 105.463 1.10031 106.352C0.34235 112.442 0.303688 114.106 0.273438 119.486C0.273438 119.491 0.27513 119.494 0.27513 119.497C0.27513 119.502 0.273438 119.506 0.273438 119.511C0.303688 120.6 0.350761 121.776 0.409582 122.986C0.409582 122.988 0.409582 122.988 0.409582 122.988C0.594449 127.554 0.775959 130.683 1.19611 134.117L1.35072 135.828C1.39778 136.176 1.47508 136.547 1.586 136.979C1.69356 137.685 1.8129 138.426 1.9423 139.204C1.90869 139.31 1.89356 139.424 1.91204 139.542C1.93893 139.707 1.97088 139.868 2.00785 140.031L3.22292 146.202C3.22292 146.207 3.22797 146.212 3.22797 146.217C3.22797 146.219 3.22629 146.224 3.22797 146.227C4.18087 150.355 4.61783 152.173 5.83123 155.728C6.85136 159.237 7.47989 160.844 9.14706 164.949C9.14706 164.953 9.15043 164.954 9.15211 164.958C9.15379 164.961 9.15212 164.965 9.1538 164.968L9.7857 166.415L9.78739 166.417C10.0882 167.133 10.4025 167.84 10.7184 168.548L11.2697 169.81C11.273 169.82 11.305 169.884 11.3083 169.892L11.3957 170.069C11.4462 170.168 11.5201 170.245 11.6025 170.309C14.3654 176.299 15.0864 177.547 18.0039 182.322L18.7165 183.382C19.9282 185.327 21.0458 187.021 22.1365 188.564C22.476 189.033 22.8474 189.527 23.2289 190.031C25.3532 193.063 26.5834 194.545 29.5581 198.004C29.5598 198.005 29.5614 198.007 29.5631 198.009V198.01L30.5362 199.113C30.8791 199.494 31.274 199.894 31.7109 200.299C32.1344 200.751 32.5311 201.173 32.9142 201.58C32.9495 201.688 33 201.792 33.084 201.879C33.289 202.093 33.5059 202.304 33.7311 202.516L33.7327 202.518C34.0705 202.852 34.4167 203.188 34.7747 203.536C37.9762 206.871 39.4821 208.223 43.7659 211.825C43.7676 211.828 43.771 211.828 43.7727 211.83C43.7743 211.832 43.7744 211.835 43.7777 211.835C47.2028 214.608 48.8044 215.84 51.5169 217.665C53.3925 219 55.142 220.141 57.7486 221.722L58.6041 222.272C58.7654 222.367 58.9301 222.462 59.0948 222.556C59.1973 222.613 59.3032 222.67 59.4091 222.727L59.52 222.788L60.8074 223.554C61.209 223.767 61.5855 223.967 61.9519 224.161C61.9905 224.196 62.0241 224.235 62.0711 224.262L62.4796 224.483C65.3097 226.011 66.8441 226.809 69.0255 227.801C71.0456 228.764 72.9985 229.589 76.1144 230.865C76.1177 230.866 76.1194 230.865 76.1228 230.866C76.1278 230.868 76.1278 230.871 76.1311 230.871C77.116 231.25 78.2689 231.666 79.4285 232.078C82.788 233.302 83.7325 233.599 86.6434 234.441C86.645 234.441 86.6467 234.441 86.6484 234.443L86.9106 234.518C86.9291 234.525 86.9661 234.535 86.9728 234.538L87.0786 234.569C88.8836 235.078 89.7172 235.305 91.307 235.68C92.9389 236.095 93.6212 236.239 95.4363 236.617C95.438 236.617 95.4414 236.617 95.4431 236.617L95.4447 236.619L96.2043 236.765L96.2262 236.77H96.2279C99.9588 237.486 100.09 237.506 102.298 237.831V237.829L102.312 237.832C102.313 237.832 102.315 237.832 102.317 237.834C103.006 237.933 103.705 238.026 104.414 238.115C106.293 238.364 106.654 238.399 108.185 238.548C111.821 238.859 111.821 238.859 113.582 238.945C113.584 238.945 113.585 238.945 113.585 238.945C113.587 238.945 113.587 238.947 113.587 238.947C114.469 238.985 115 239.009 115.506 239.027C115.516 239.027 115.525 239.027 115.533 239.027C115.536 239.027 115.541 239.026 115.545 239.026H115.552C115.557 239.026 115.562 239.027 115.567 239.027L115.573 239.029L115.684 239.032C115.684 239.032 115.686 239.032 115.688 239.032C115.688 239.032 115.703 239.032 115.708 239.032C115.711 239.032 115.713 239.032 115.715 239.032L116.113 239.044C116.945 239.073 117.472 239.083 118.755 239.1C118.76 239.1 118.762 239.1 118.767 239.1C119.872 239.1 120.44 239.1 121.069 239.091C122.345 239.083 122.945 239.069 123.961 239.027C124.57 239.009 125.321 238.97 126.015 238.932L126.839 238.89C126.842 238.89 126.845 238.888 126.849 238.886C127.86 238.834 128.338 238.794 129.489 238.701C133.359 238.332 133.511 238.318 135.606 238.038C135.613 238.038 135.689 238.024 135.695 238.024L135.872 237.995C135.88 237.995 135.961 237.985 135.963 237.985L136.778 237.873C142.438 236.97 146.125 236.204 150.384 235.048C150.384 235.048 150.384 235.048 150.386 235.048C151.673 234.705 152.99 234.327 154.301 233.928H154.303C155.09 233.695 155.906 233.449 156.802 233.177C156.984 233.115 157.163 233.046 157.342 232.979L157.693 232.848C158.451 232.596 159.231 232.322 160.024 232.043C160.093 232.038 160.162 232.029 160.229 232.006L162.98 230.967C162.98 230.967 162.98 230.967 162.982 230.967L163.644 230.718C163.644 230.718 163.646 230.717 163.647 230.717C163.649 230.717 163.651 230.717 163.651 230.715C166.797 229.488 168.284 228.828 171.59 227.179C173.074 226.472 174.504 225.749 175.964 224.971C175.964 224.971 175.964 224.971 175.966 224.971L176.316 224.794C176.415 224.746 176.512 224.695 176.605 224.646C176.64 224.628 176.66 224.599 176.689 224.578C177.603 224.082 178.539 223.562 179.494 223.008C179.756 222.863 180.015 222.72 180.274 222.567L181.336 221.92C181.939 221.559 182.552 221.186 183.188 220.793C183.189 220.791 183.191 220.789 183.194 220.788C183.196 220.786 183.201 220.784 183.203 220.783C187.557 217.939 189.458 216.662 192.117 214.568C194.107 213.064 196.017 211.489 199.417 208.541C199.417 208.541 199.417 208.541 199.419 208.539C200.846 207.301 202.444 205.703 203.99 204.158C204.434 203.714 204.868 203.281 205.284 202.871C205.286 202.871 205.286 202.871 205.286 202.869C205.513 202.656 205.731 202.442 205.94 202.227C205.98 202.185 206.002 202.133 206.031 202.086C208.511 199.58 210.002 197.839 212.97 194.202C212.973 194.199 212.973 194.194 212.977 194.19C212.98 194.187 212.983 194.185 212.985 194.184C213.661 193.301 214.429 192.264 215.329 191.017C215.329 191.016 215.329 191.016 215.329 191.016C220.06 184.604 220.812 183.411 223.892 178.001L224.618 176.581L224.971 175.927C225.24 175.431 225.509 174.936 225.764 174.43C225.8 174.361 225.811 174.289 225.825 174.216C229.467 167.074 229.924 165.941 232.001 160.286C232.001 160.284 232.001 160.282 232.001 160.282C232.001 160.281 232.001 160.281 232.003 160.279C233.5 156.088 234.065 154.452 234.942 150.868C236.004 147.261 236.367 145.414 237.147 141.233C237.147 141.231 237.147 141.229 237.147 141.228V141.226L237.371 139.965C237.372 139.954 237.374 139.942 237.376 139.93C237.377 139.929 237.377 139.925 237.377 139.923H237.379C237.394 139.831 237.387 139.744 237.371 139.656L237.666 137.557C237.799 137.075 237.895 136.629 237.955 136.189C238.053 135.314 238.142 134.376 238.229 133.416C238.935 128.023 239.029 125.9 239.093 119.886C239.093 119.886 239.093 119.886 239.093 119.884C239.112 117.951 239.016 115.561 238.804 112.592ZM180.556 220.641C179.942 221.01 179.346 221.361 178.766 221.697C178.741 221.71 178.716 221.724 178.692 221.737C182.662 218.672 186.372 215.156 189.779 211.23C192.91 210.124 195.67 208.946 198.078 207.708C194.856 210.407 192.89 212.049 191.214 213.371C188.922 215.099 186.462 216.766 182.389 219.524L180.556 220.641ZM153.881 232.491C152.498 232.9 151.223 233.266 150.004 233.597C145.876 234.696 141.843 235.528 136.727 236.343C137.954 235.527 139.151 234.508 140.307 233.265C142.861 233.024 145.376 232.739 147.787 232.414C152.325 231.804 156.535 231.06 160.377 230.189C159.331 230.633 158.271 231.048 157.199 231.433C156.063 231.812 154.96 232.164 153.881 232.491ZM60.2477 221.482C59.6326 221.114 59.0662 220.773 58.5318 220.448C55.9117 218.766 53.937 217.49 52.3673 216.437C50.3892 215.028 48.1742 213.327 44.8214 210.753L44.7239 210.677C43.571 209.657 42.4097 208.61 41.277 207.576C44.3374 209.134 47.9507 210.593 52.0715 211.926C55.6445 216.201 59.5755 219.976 63.8056 223.201C62.5149 222.65 61.3267 222.075 60.2477 221.482ZM30.6942 197.032L30.0454 196.231C28.2388 193.997 26.1918 191.464 24.4473 189.165C23.3096 187.542 21.8794 185.414 19.982 182.589C19.9585 182.55 19.94 182.507 19.9097 182.475C19.1551 181.258 18.4308 180.045 17.7417 178.833C19.2509 180.065 21.039 181.27 23.0978 182.44C27.185 184.76 32.2941 186.923 38.2888 188.865C41.1475 195.75 44.6701 202.077 48.7775 207.713C44.6264 206.269 41.045 204.698 38.1073 203.027C35.9578 201.807 34.1596 200.531 32.7597 199.237L30.6942 197.032ZM40.0451 32.7779C43.4803 29.8402 46.2011 27.578 48.3658 25.8655C49.6632 24.9008 51.1203 23.8689 52.8833 22.6404C51.9472 24.5664 52.1102 26.3008 52.648 27.6873C45.0886 33.0215 38.1427 39.1776 31.9782 46.006C31.2454 43.6783 31.8504 41.3288 33.7848 39.0045C35.2486 37.5054 37.0334 35.7441 40.0451 32.7779ZM5.98248 146.836C7.99753 148.916 10.7302 150.943 14.1418 152.883C18.5921 155.412 24.1449 157.761 30.6522 159.876C31.8 168.477 33.7714 176.682 36.5192 184.295C31.0354 182.458 26.3397 180.438 22.5432 178.282C18.4929 175.981 15.5435 173.569 13.7771 171.117C10.2159 163.4 7.59922 155.244 5.98248 146.836ZM5.5724 90.0379C6.16734 87.9388 7.01437 85.1725 8.29667 80.9912L8.37904 80.724L8.98237 79.1896C9.5084 77.8535 10.0697 76.425 10.6411 75.0082C10.7873 75.8284 11.0361 76.6468 11.4075 77.4603C7.79921 85.5121 5.1321 93.91 3.45989 102.469C3.34897 101.792 3.32206 101.113 3.37752 100.438L3.4851 99.6124L3.49685 99.5569C4.44135 95.1218 5.06654 92.1908 5.5724 90.0379ZM60.4292 17.938C67.4138 14.0878 74.8841 11.1131 82.667 9.08292C81.8318 10.3383 81.8166 11.4744 82.0368 12.3299C73.1901 15.5415 64.7047 19.7615 56.7823 24.8924C56.0798 22.5664 57.3033 20.2304 60.4292 17.938ZM212.832 47.4059C215.424 51.0057 217.139 53.3939 218.385 55.2073C219.512 57.0105 220.944 59.4223 223.111 63.0658L223.361 63.4876L225.158 66.9278C226.006 68.6135 226.28 70.3177 225.983 72.0117C221.958 64.0574 217 56.5198 211.225 49.5722C211.65 48.3789 211.78 47.184 211.645 45.9891C212.02 46.4345 212.415 46.9067 212.832 47.4059ZM88.5408 7.74517C95.1842 6.43933 102.056 5.80741 108.975 5.84943C101.451 6.79057 94.0229 8.4174 86.7997 10.7131C86.6367 9.73836 87.2198 8.74345 88.5408 7.74517ZM130.601 5.78894C137.485 5.69818 144.265 6.29648 150.838 7.56702C152.328 8.58547 153.053 9.60224 153.002 10.5955C145.707 8.30817 138.201 6.69815 130.601 5.78894ZM152.001 12.4626C151.14 13.3298 149.537 14.402 146.555 15.4827C140.524 11.9836 134.307 9.19047 128.008 7.15189C136.154 8.10984 144.199 9.88961 152.001 12.4626ZM98.6412 216.521C97.2884 211.317 96.1337 205.269 95.2044 198.521C112.14 199.652 129.946 199.619 146.712 198.426C145.65 205.178 144.339 211.228 142.813 216.437C128.452 217.475 113.167 217.502 98.6412 216.521ZM87.7257 197.945C88.8635 204.681 90.2701 210.743 91.9171 215.991C77.9462 214.729 65.1887 212.538 54.9387 209.642C50.8161 204.057 47.2784 197.689 44.413 190.69C56.5302 194.009 71.4523 196.51 87.7257 197.945ZM89.8516 13.871C89.0886 13.4374 88.4601 12.9954 87.9727 12.5484C95.9355 9.89131 104.15 8.06616 112.459 7.10317C106.275 9.21738 100.167 12.113 94.2465 15.7499C92.5154 15.1751 91.0381 14.5449 89.8516 13.871ZM94.6683 194.369C93.791 187.031 93.1658 178.996 92.8078 170.455C111.439 171.705 131.042 171.674 149.491 170.349C149.058 178.897 148.33 186.935 147.325 194.271C130.2 195.505 111.979 195.538 94.6683 194.369ZM92.8734 132.154C93.2666 122.65 93.9288 113.047 94.8464 103.592C112.148 104.755 130.356 104.723 147.485 103.493C148.47 112.928 149.17 122.527 149.572 132.046C131.132 133.374 111.516 133.409 92.8734 132.154ZM149.702 165.566C131.143 166.906 111.397 166.941 92.6381 165.672C92.502 161.151 92.4381 156.442 92.4482 151.663C92.4566 146.913 92.5373 142.051 92.6902 137.203C111.454 138.466 131.193 138.429 149.757 137.097C149.907 141.925 149.979 146.785 149.969 151.55C149.959 156.303 149.87 161.015 149.702 165.566ZM95.3473 98.6796C96.322 89.5472 97.5337 80.5979 98.9522 72.0587C106.002 72.5293 113.232 72.7713 120.451 72.7713C120.452 72.7713 120.452 72.7713 120.452 72.7713C128.075 72.7713 135.672 72.5024 143.04 71.9747C144.582 80.5038 145.897 89.448 146.947 98.5822C130.163 99.7838 112.316 99.8191 95.3473 98.6796ZM99.737 67.4724C101.203 59.2222 102.856 51.4528 104.653 44.3606C115.224 45.0631 126.333 45.0429 136.794 44.3001C138.766 51.3738 140.574 59.1348 142.177 67.3934C128.363 68.3732 113.691 68.4 99.737 67.4724ZM100.67 39.8935C91.2331 39.0499 82.5814 37.6062 75.5211 35.6954C81.1495 29.4368 87.1778 23.9798 93.4566 19.459C97.5018 20.5833 102.458 21.4421 107.874 21.9614C105.35 27.1226 102.93 33.1476 100.67 39.8935ZM99.3572 43.9438C97.1472 51.0074 95.1153 58.7483 93.3104 66.9732C79.8184 65.7749 67.4676 63.6927 57.4797 60.9281C61.9182 53.1149 66.9231 45.853 72.37 39.3288C79.8941 41.4296 89.1945 43.0195 99.3572 43.9438ZM158.857 65.6976C155.585 66.1379 152.202 66.5228 148.791 66.8472C146.841 58.6357 144.638 50.9066 142.235 43.843C144.661 43.6077 147.066 43.3304 149.401 43.0161C157.1 41.9825 163.898 40.5742 169.62 38.8331C175.306 45.2967 180.526 52.5099 185.152 60.2878C177.709 62.5314 168.869 64.3531 158.857 65.6976ZM105.723 40.2818C107.569 33.4871 109.543 27.4318 111.599 22.2589C117.377 22.6337 123.43 22.6219 129.148 22.2236C131.418 27.3881 133.593 33.44 135.621 40.2263C125.884 40.9053 115.563 40.9221 105.723 40.2818ZM171.17 129.84C166.847 130.421 162.362 130.932 157.822 131.362C157.33 121.869 156.469 112.282 155.266 102.846C159.468 102.449 163.629 101.972 167.642 101.432C180.132 99.7535 191.152 97.4713 200.409 94.6478C203.249 103.78 205.281 113.15 206.451 122.521C196.5 125.569 184.635 128.03 171.17 129.84ZM166.808 96.5587C162.861 97.0881 158.76 97.557 154.607 97.9485C153.32 88.8211 151.717 79.9022 149.838 71.41C153.296 71.0806 156.721 70.6874 160.036 70.2437C170.538 68.8303 179.803 66.9127 187.589 64.5364C192.033 72.5747 195.821 81.1105 198.861 89.927C189.813 92.6832 179.035 94.9117 166.808 96.5587ZM171.336 163.355C167.012 163.936 162.531 164.445 158.005 164.875C158.205 160.37 158.311 155.703 158.32 150.982C158.328 146.219 158.239 141.318 158.049 136.408C162.667 135.972 167.22 135.455 171.593 134.865C185.083 133.051 196.987 130.589 206.994 127.546C207.429 132.285 207.646 137.053 207.636 141.732C207.627 146.55 207.38 151.337 206.903 155.963C196.886 159.04 184.924 161.528 171.336 163.355ZM147.944 38.9877C145.626 39.2969 143.228 39.5726 140.809 39.8028C138.352 33.0652 135.717 27.0503 132.968 21.8992C134.124 21.7816 135.263 21.6455 136.368 21.4976C140.635 20.9245 144.404 20.1447 147.586 19.1834C154.152 23.6353 160.457 29.0351 166.345 35.2484C161.099 36.7912 154.916 38.0482 147.944 38.9877ZM36.9292 123.386C38.0788 114 40.0518 104.61 42.7979 95.4495C55.1672 98.9098 70.5145 101.513 87.287 103.002C86.156 112.459 85.3409 122.049 84.8586 131.529C66.7634 129.926 50.2245 127.116 36.9292 123.386ZM36.3931 128.41C49.8094 132.152 66.4492 134.969 84.6334 136.576C84.4468 141.453 84.346 146.35 84.3359 151.147C84.3275 155.857 84.4082 160.528 84.5745 165.045C66.3668 163.428 49.7321 160.597 36.373 156.835C35.9343 152.207 35.7175 147.429 35.7259 142.628C35.7343 137.932 35.9578 133.154 36.3931 128.41ZM44.2903 90.7101C47.2247 81.8634 50.8682 73.2923 55.1353 65.2103C65.4879 68.106 78.3176 70.289 92.3406 71.5428C90.5979 80.0484 89.1054 88.9741 87.9021 98.1015C71.4523 96.6427 56.4109 94.0949 44.2903 90.7101ZM84.7829 169.832C85.2249 178.378 85.9946 186.423 87.0702 193.774C70.3011 192.276 54.9874 189.661 42.6954 186.192C39.9997 178.613 38.0603 170.4 36.9259 161.756C50.2565 165.457 66.7601 168.242 84.7829 169.832ZM149.747 215.855C151.572 210.6 153.14 204.533 154.412 197.794C158.621 197.397 162.794 196.921 166.824 196.38C178.776 194.774 189.362 192.607 198.322 189.937C195.291 196.953 191.566 203.346 187.226 208.961C179.448 211.365 170.141 213.302 159.562 214.724C156.37 215.154 153.075 215.534 149.747 215.855ZM155.152 193.616C156.36 186.27 157.236 178.22 157.757 169.664C162.358 169.232 166.913 168.712 171.302 168.122C184.621 166.331 196.387 163.906 206.299 160.909C205.076 169.558 203.012 177.784 200.158 185.386C190.907 188.234 179.843 190.537 167.271 192.227C163.333 192.758 159.261 193.224 155.152 193.616ZM204.294 88.1304C201.101 79.3593 197.13 70.8823 192.478 62.9095C200.895 59.8609 206.795 56.256 209.667 52.4191C215.486 59.639 220.445 67.4657 224.418 75.7074C221.403 80.198 214.469 84.4802 204.294 88.1304ZM127.591 18.8573C122.827 19.1615 117.819 19.1683 113.009 18.8809C115.096 14.1298 117.246 10.3081 119.405 7.50483C119.765 7.51828 120.136 7.5166 120.503 7.50147C122.904 10.298 125.286 14.113 127.591 18.8573ZM90.1391 18.4086C83.5662 22.8874 77.2588 28.2789 71.3666 34.4585C67.9701 33.3442 65.0778 32.1123 62.7585 30.7964C60.73 29.6435 59.1805 28.4486 58.1385 27.2335C65.9685 21.9749 74.3665 17.6204 83.1174 14.2827C83.8132 15.0878 84.8132 15.8608 86.0972 16.5902C87.2333 17.2339 88.5878 17.8456 90.1391 18.4086ZM21.9718 87.3036C26.0288 89.6094 31.0774 91.7572 36.9881 93.6933C34.0907 102.811 32.0034 112.161 30.7732 121.519C24.5381 119.47 19.2173 117.208 14.9502 114.782C10.6764 112.355 7.53537 109.812 5.60771 107.22C7.13875 98.1586 9.78235 89.2363 13.4746 80.6719C15.4006 82.9642 18.2526 85.1894 21.9718 87.3036ZM4.81949 112.703C6.89168 115.067 9.88317 117.366 13.7368 119.556C18.177 122.079 23.7129 124.427 30.1967 126.541C29.716 131.425 29.4673 136.347 29.4589 141.182C29.4505 145.814 29.6623 150.429 30.0875 154.92C23.9264 152.883 18.661 150.632 14.4225 148.227C10.0731 145.755 6.89336 143.167 4.96402 140.532C4.33211 135.734 4.01617 130.806 4.02458 125.884C4.03298 121.492 4.30018 117.067 4.81949 112.703ZM212.294 120.581C211.047 111.237 208.904 101.91 205.92 92.826C215.998 89.2127 223.08 84.9406 226.551 80.3912C230.211 88.9186 232.825 97.8158 234.327 106.863C231.082 111.827 223.484 116.556 212.294 120.581ZM189.939 58.7147C185.104 51.0091 179.647 43.8682 173.701 37.4617C179.662 35.25 183.86 32.6501 185.946 29.8754C193.471 35.3424 200.372 41.6448 206.476 48.621C203.926 52.2645 198.233 55.74 189.939 58.7147ZM170.321 33.9543C164.195 27.8268 157.629 22.4892 150.782 18.0725C153.681 16.9146 155.711 15.6054 156.836 14.1718C165.617 17.4843 174.04 21.8136 181.89 27.0537C179.996 29.5343 176.025 31.9056 170.321 33.9543ZM134.695 18.1616C133.524 18.3195 132.319 18.4574 131.106 18.575C128.375 13.9298 125.546 10.1316 122.679 7.25275C129.701 9.29805 136.655 12.3971 143.374 16.4776C140.84 17.1599 137.931 17.7263 134.695 18.1616ZM109.582 18.6221C105.117 18.2154 100.992 17.5532 97.5186 16.6877C103.947 12.5416 110.594 9.37534 117.303 7.2645C114.678 10.1535 112.086 13.9651 109.582 18.6221ZM59.4427 34.2719C61.809 35.6164 64.7148 36.8735 68.0962 38.0163C62.3687 44.4833 57.11 51.6747 52.4497 59.4155C47.6919 57.8576 43.6365 56.135 40.3896 54.288C37.3242 52.5468 35.0335 50.7318 33.5714 48.8815C39.6737 41.8868 46.5726 35.5626 54.0899 30.0721C55.2966 31.5275 57.0932 32.9392 59.4427 34.2719ZM38.5661 88.9791C32.8319 87.1019 27.943 85.023 24.0239 82.7962C20.1937 80.6215 17.3619 78.3476 15.5973 76.03C19.5904 67.7682 24.565 59.9163 30.3917 52.6746C32.0168 54.6426 34.4487 56.5535 37.6334 58.3635C40.9862 60.2676 45.139 62.044 49.9909 63.649C45.502 71.6638 41.6601 80.1778 38.5661 88.9791ZM148.458 219.324C151.96 218.996 155.429 218.601 158.777 218.151C168.18 216.885 176.569 215.205 183.757 213.144C179.369 218.067 174.48 222.241 169.197 225.574C163.486 227.344 156.642 228.771 148.853 229.818C146.794 230.095 144.67 230.344 142.515 230.56C144.676 227.587 146.67 223.818 148.458 219.324ZM234.845 140.171C231.646 145.157 224.074 149.911 212.891 153.967C213.348 149.5 213.585 144.896 213.592 140.265C213.6 135.408 213.36 130.482 212.877 125.61C223.615 121.783 231.233 117.269 235.11 112.461C235.606 116.785 235.853 121.161 235.845 125.495C235.836 130.416 235.5 135.352 234.845 140.171ZM58.1654 213.711C68.0323 216.324 80.0302 218.297 93.0767 219.448C94.6935 223.944 96.5018 227.71 98.4631 230.676C88.4954 229.737 79.4033 228.152 72.0708 226.073C67.0189 222.774 62.3484 218.621 58.1654 213.711ZM141.73 219.875C140.179 224.475 138.45 228.238 136.583 231.073C126.039 231.833 114.822 231.855 104.174 231.135C102.508 228.297 100.971 224.539 99.5975 219.951C113.458 220.862 128.01 220.836 141.73 219.875ZM112.098 4.27973C106.197 3.98058 100.386 4.18898 94.6683 4.89652C96.1422 4.43435 97.7875 4.01084 99.5824 3.63606C103.648 3.21759 107.851 3.4327 112.098 4.27973ZM206.099 183.387C208.982 175.751 211.059 167.543 212.281 158.953C222.341 155.378 229.667 151.204 233.744 146.743C232.082 155.064 229.44 163.138 225.872 170.785C223.006 175.327 216.188 179.668 206.099 183.387ZM231.139 81.1088C232.389 85.2431 233.295 88.2346 233.909 90.4312C234.408 92.6042 235.024 95.5503 235.957 100.001C235.959 100.011 235.969 100.069 235.969 100.071L235.971 100.076C235.972 100.086 235.974 100.101 235.976 100.115C235.977 100.12 235.977 100.125 235.977 100.13C236.024 100.412 236.055 100.695 236.071 100.977C234.413 92.8076 231.841 84.7994 228.41 77.114C228.626 76.5376 228.783 75.9578 228.889 75.3796C229.502 76.9225 230.228 78.7778 231.139 81.1088ZM207.832 45.6614C201.681 38.8734 194.754 32.7577 187.214 27.4671C187.619 26.1714 187.677 24.5782 186.813 22.8186C188.692 24.195 190.159 25.2723 191.359 26.163V26.1647C194.207 28.3848 196.866 30.6737 199.678 33.0921L205.2 38.5322C207.462 40.8901 208.343 43.2833 207.832 45.6614ZM183.047 24.6656C175.131 19.5716 166.642 15.3835 157.79 12.2038C157.975 11.2812 157.844 10.1619 156.937 8.95521C164.504 10.9434 171.758 13.8475 178.502 17.5868C182.003 19.9145 183.529 22.2909 183.047 24.6656ZM142.184 4.16546C136.971 3.7117 131.68 3.72178 126.326 4.18731C129.146 3.42767 131.937 3.04451 134.665 3.04451C135.579 3.04451 136.5 3.08819 137.346 3.1655C139.068 3.4596 140.688 3.79405 142.184 4.16546ZM122.292 1.82436C123.429 1.85461 124.566 1.88319 125.701 1.93025L127.341 2.02605C127.402 2.02941 127.46 2.03445 127.523 2.03949C125.511 2.51006 123.482 3.20752 121.449 4.13017C121.172 4.09656 120.882 4.07136 120.585 4.05455C120.543 2.99072 120.504 2.27644 120.464 1.78066C120.506 1.77898 120.548 1.77899 120.59 1.7773L122.292 1.82436ZM16.2224 63.1263C18.6291 59.1029 20.0525 56.7299 21.2155 54.8812C22.4928 53.0292 24.2205 50.6478 26.8254 47.0529L27.9901 45.6665C27.8237 47.0715 28.0371 48.4815 28.6337 49.8663C22.8138 56.8778 17.8157 64.4893 13.7603 72.5176C13.3116 70.9445 13.362 69.3546 13.9065 67.7782C14.5536 66.4674 15.3132 64.9498 16.2224 63.1263ZM96.5169 235.3C96.5153 235.3 96.5119 235.3 96.5102 235.3L96.5085 235.298L95.7456 235.152C93.8381 234.723 92.6061 234.446 91.6549 234.222C90.7171 233.98 89.4634 233.649 87.4803 233.125L87.4148 233.105C87.4114 233.105 87.3274 233.08 87.324 233.078L87.0652 233.004C87.0635 233.002 87.0602 233.002 87.0602 233.002C84.5813 232.278 82.1444 231.376 79.7714 230.302C85.9241 231.655 92.954 232.693 100.465 233.354C101.557 234.643 102.691 235.7 103.861 236.527L101.739 236.231C100.011 235.942 98.0614 235.594 96.5169 235.3ZM110.804 237.219C109.142 236.869 107.517 235.71 105.96 233.765C115.389 234.347 125.225 234.333 134.566 233.722C132.818 235.664 130.993 236.827 129.121 237.184C123.17 237.621 116.82 237.634 110.804 237.219ZM214.116 190.135L214.114 190.137L211.8 193.263L207.358 198.494C204.649 201.476 199.821 204.346 193.308 206.864C197.567 201.222 201.229 194.896 204.217 188.021C211.731 185.357 217.586 182.319 221.527 179.072C220.978 180.031 220.445 180.927 219.924 181.767C218.454 183.952 216.25 187.175 214.116 190.135ZM112.505 1.99413C113.142 1.95883 113.984 1.91847 115.452 1.84957C116.177 1.84957 116.901 1.83613 117.625 1.821C117.745 1.92184 118.131 2.36048 118.671 4.08814C118.521 4.10327 118.373 4.11839 118.227 4.13856C118.146 4.15032 118.069 4.16211 117.993 4.17387C115.407 3.23273 112.827 2.57224 110.271 2.15881C111.037 2.09495 111.782 2.03782 112.505 1.99413Z" fill="white"/>
</svg>
