<svg width="490" height="490" viewBox="0 0 490 490" fill="none" xmlns="http://www.w3.org/2000/svg">
<rect width="489.129" height="489.171" rx="244.564" fill="black"/>
<path d="M223.219 13.751C229.113 17.1018 243.643 18.5058 255.669 16.8881C267.691 15.2704 272.66 11.2447 266.766 7.8973C259.61 8.10418 252.348 8.69091 245.003 9.68122C245.003 9.68122 245.003 9.68461 244.999 9.68461C244.992 9.68461 244.989 9.68461 244.989 9.68461C244.986 9.68122 244.986 9.68122 244.992 9.68122C244.992 9.68122 244.999 9.68122 245.003 9.68122C252.348 8.69091 259.61 8.10079 266.766 7.8973C260.871 4.54652 246.342 3.13906 234.319 4.76019C222.293 6.37453 217.325 10.4002 223.219 13.751Z" fill="white"/>
<path d="M181.584 28.1526C198.755 37.9031 241.06 41.9966 276.074 37.2859C311.087 32.5785 325.555 20.8508 308.388 11.0969C299.17 5.86386 282.704 2.25534 264.01 0.766479C261.928 0.610471 259.144 0.440888 257.058 0.312012C253.517 0.210268 249.983 0.064438 246.446 0C241.776 0 241.776 -2.48894e-06 235.783 0.145831C232.755 0.28149 228.719 0.518902 225.69 0.718999C221.698 1.03101 217.751 1.44138 213.891 1.95688C178.881 6.67103 164.413 18.3987 181.584 28.1526ZM223.937 2.21124C247.653 -0.973352 276.311 1.7907 287.944 8.40068C299.577 15.0107 289.775 22.9535 266.055 26.1381C242.339 29.3295 213.681 26.5552 202.048 19.952C190.419 13.3454 200.217 5.39923 223.937 2.21124Z" fill="white"/>
<path d="M310.32 8.99219C310.849 9.1448 311.365 9.29741 311.88 9.45003C311.697 9.39238 311.538 9.3449 311.348 9.28385L310.32 8.99219Z" fill="white"/>
<path d="M315.434 10.5413C314.287 10.1682 313.097 9.80193 311.883 9.44922C313.175 9.84941 314.362 10.2089 315.434 10.5413Z" fill="white"/>
<path d="M143.145 50.0959C170.714 65.7577 238.638 72.3304 294.859 64.764C351.079 57.2044 374.311 38.3818 346.741 22.7199C342.489 20.9055 338.151 19.2538 333.735 17.7582C338.148 19.2538 342.489 20.9055 346.741 22.7199C344.452 21.4176 341.885 20.1797 339.063 19.0063L333.773 16.8527C326.376 13.9903 324.453 13.3289 315.425 10.5411C320.302 12.1453 324.548 13.9394 328.017 15.9099C328.021 15.9099 328.021 15.9099 328.021 15.9099C350.509 28.6923 331.558 44.0489 285.688 50.2146C239.815 56.3837 184.395 51.0252 161.899 38.2461C145.278 28.8042 151.301 17.9481 174.095 10.4326C166.213 12.7592 161.052 14.7025 151.769 18.2907L150.572 18.7858C128.975 27.7698 124.736 39.64 143.145 50.0959Z" fill="white"/>
<path d="M174.105 10.4331C177.287 9.50041 180.899 8.50332 185.423 7.30273C181.285 8.26252 177.511 9.31388 174.105 10.4331Z" fill="white"/>
<path d="M364.462 31.4454C364.353 31.3843 364.245 31.3267 364.133 31.2656L365.184 31.8591C364.943 31.7201 364.703 31.5844 364.462 31.4454Z" fill="white"/>
<path d="M108.748 78.6154C145.62 99.5646 236.474 108.352 311.673 98.2351C383.586 88.566 415.14 65.114 385.519 44.7651C379.557 40.692 371.356 35.6387 365.201 31.8606C364.96 31.7181 364.716 31.5825 364.472 31.4502C396.843 49.8422 369.562 71.9444 303.544 80.8267C237.525 89.7022 157.761 81.9933 125.39 63.598C107.004 53.1522 107.873 41.5093 124.142 31.769C120.252 34.0311 115.799 36.7918 112.278 38.9148L104.027 44.4735C88.7447 55.1159 89.1212 67.4643 108.748 78.6154Z" fill="white"/>
<path d="M124.133 31.7698C124.94 31.3018 125.73 30.844 126.47 30.4336C125.656 30.8745 124.886 31.3188 124.133 31.7698Z" fill="white"/>
<path d="M79.1527 112.75C124.025 138.244 234.581 148.937 326.089 136.629C406.301 125.844 445.252 100.968 423.431 77.8245C419.694 73.8192 414.373 68.8134 410.486 64.9505L405.674 60.6297C430.927 82.4742 395.431 106.635 319.201 116.891C235.483 128.144 134.342 118.37 93.2951 95.0464C73.2719 83.6714 71.2472 71.1738 84.1381 60.0498L79.3731 64.2993C75.3373 68.0028 70.267 73.2799 66.3736 77.1293C55.47 88.606 58.831 101.205 79.1527 112.75Z" fill="white"/>
<path d="M55.2191 151.507C106.556 180.677 233.044 192.904 337.736 178.829C423.893 167.244 468.443 141.452 452.903 116.426C449.057 110.287 443.4 102.45 439.229 96.528C457.692 120.706 415.726 146.094 332.282 157.31C233.767 170.561 114.743 159.053 66.4347 131.609C46.052 120.028 41.5142 107.459 50.4846 95.8057C46.1334 101.605 40.7816 109.667 36.7254 115.67C29.3693 127.424 34.8431 139.932 55.2191 151.507Z" fill="white"/>
<path d="M37.7169 193.937C93.7678 225.79 231.886 239.138 346.199 223.765C435.33 211.783 483.682 185.869 474.091 159.944C471.531 153.127 467.498 144.286 464.568 137.621C477.093 163.224 430.412 189.179 342.387 201.018C232.408 215.802 99.5401 202.955 45.6122 172.32C25.4601 160.87 19.1859 148.556 24.9683 136.852C21.8244 143.424 18.1617 152.432 15.3535 159.154C11.0362 170.692 17.9616 182.714 37.7169 193.937Z" fill="white"/>
<path d="M27.4727 239.065C86.2775 272.475 231.175 286.485 351.108 270.362C440.035 258.4 490.266 233.235 486.326 207.399L485.735 203.723C484.704 197.516 482.697 189.363 481.371 183.208C488.126 209.227 438.584 234.887 349.127 246.916C231.473 262.734 89.3298 248.992 31.6408 216.213C12.4451 205.306 5.01778 193.674 7.98871 182.407C6.41167 188.505 4.85837 196.76 3.54587 202.919L2.9422 206.585C1.24307 217.448 9.03328 228.589 27.4727 239.065Z" fill="white"/>
<path d="M488.823 232.278C490.088 257.68 439.674 282.15 352.103 293.925C231.003 310.211 84.6953 296.065 25.3174 262.327C7.79022 252.369 -0.203486 241.815 0.349324 231.468L0 244.169L0.298441 256.86C0.78003 266.58 8.83479 276.442 25.2699 285.779C84.6478 319.517 230.956 333.663 352.059 317.374C437.409 305.897 487.457 282.367 488.779 257.664L489.129 244.973L488.823 232.278Z" fill="white"/>
<path d="M350.981 339.786C231.051 355.912 86.1507 341.902 27.3459 308.492C12.1487 299.858 4.18892 290.772 2.80859 281.768L6.06102 298.939L7.75336 305.918C9.88321 314.122 17.6022 322.36 31.4326 330.215C89.1216 362.993 231.268 376.736 348.919 360.914C427.425 350.357 475.19 329.306 481.145 306.722L485.147 288.71L486.189 282.565C482.461 306.322 433.302 328.716 350.981 339.786Z" fill="white"/>
<path d="M345.914 380.704C231.598 396.074 93.4867 382.725 37.4291 350.876C25.0841 343.863 17.7483 336.534 15.0352 329.208L18.1824 337.287L24.5584 351.52C27.6854 357.9 34.4887 364.259 45.2464 370.367C99.1708 401.006 232.045 413.856 342.021 399.066C410.895 389.803 454.455 371.896 464.155 352.284C467.339 345.731 470.958 336.703 473.769 329.981C465.85 351.185 419.953 370.75 345.914 380.704Z" fill="white"/>
<path d="M337.288 415.933C232.593 430.008 106.112 417.782 54.7785 388.615C45.6487 383.429 39.5135 378.057 36.1797 372.651L36.2814 372.814C40.1511 378.926 45.7742 386.77 49.9423 392.678C53.2795 397.019 58.5702 401.326 65.9195 405.501C114.228 432.945 233.255 444.456 331.774 431.205C388.703 423.551 426.325 409.303 438.626 393.343C443.017 387.567 448.335 379.475 452.398 373.465C441.22 391.325 400.427 407.441 337.288 415.933Z" fill="white"/>
<path d="M421.379 413.374C421.85 412.927 422.305 412.472 422.735 412.024C422.301 412.455 421.84 412.916 421.379 413.374Z" fill="white"/>
<path d="M78.5968 420.958C73.0416 417.8 68.7513 414.565 65.6719 411.292C70.7862 416.62 77.9795 423.362 83.3516 428.426C85.8511 430.6 88.9476 432.753 92.668 434.859C133.718 458.182 234.866 467.967 318.581 456.704C361.52 450.928 391.531 440.744 405.046 429.046L407.885 426.54C412.067 422.792 417.171 417.576 421.387 413.374C407.332 426.676 373.95 438.319 325.523 444.834C234.018 457.141 123.466 446.448 78.5968 420.958Z" fill="white"/>
<path d="M108.053 447.141C106.333 446.164 104.76 445.177 103.332 444.184C109.382 448.318 117.695 453.456 123.935 457.285L124.99 457.878C157.565 476.138 237.01 483.772 302.808 474.917C329.625 471.312 350.045 465.523 362.675 458.692L374.626 451.638L385.062 444.692C371.621 454.026 346.121 462.033 310.989 466.764C235.786 476.877 144.928 468.094 108.053 447.141Z" fill="white"/>
<path d="M150.047 470.133L155.355 472.293C163.752 475.546 165.081 475.956 177.786 479.863L178.817 480.151C206.016 487.731 248.464 490.109 284.888 485.208C291.98 484.255 298.424 483.082 304.176 481.732C318.162 478.103 324.362 475.79 334.624 471.957L338.321 470.458C327.597 474.884 312.644 478.601 294.1 481.097C242.543 488.03 181.143 483.078 150.047 470.133Z" fill="white"/>
<path d="M239.403 489.081C239.319 489.078 239.237 489.078 239.152 489.074C239.237 489.078 239.322 489.078 239.403 489.081Z" fill="white"/>
<path d="M232.069 488.828C234.403 488.96 235.725 489.004 239.147 489.072C236.278 489.011 233.433 488.892 230.621 488.736C231.126 488.774 231.622 488.801 232.069 488.828Z" fill="white"/>
<path d="M253.34 488.989C254.477 488.948 255.769 488.887 257.081 488.812C254.385 488.948 251.675 489.05 248.969 489.094C250.281 489.07 251.736 489.033 253.34 488.989Z" fill="white"/>
<path d="M239.402 489.081C240.328 489.098 241.4 489.118 242.685 489.145C243.882 489.196 246.043 489.166 248.953 489.098C245.758 489.152 242.567 489.145 239.402 489.081Z" fill="white"/>
<path d="M257.078 488.812C259.225 488.704 261.372 488.578 263.502 488.412C261.589 488.538 259.293 488.687 257.078 488.812Z" fill="white"/>
<path d="M230.629 488.738C229.707 488.68 228.737 488.616 227.773 488.555C228.723 488.619 229.669 488.684 230.629 488.738Z" fill="white"/>
<path d="M227.764 488.555C226.859 488.491 225.95 488.44 225.055 488.365C225.875 488.43 226.815 488.494 227.764 488.555Z" fill="white"/>
</svg>
