<svg width="1080" height="716" viewBox="0 0 1080 716" fill="none" xmlns="http://www.w3.org/2000/svg">
<g clip-path="url(#clip0_4195_18493)">
<rect width="1079.06" height="714.721" transform="translate(0.9375 0.400391)" fill="#071D27"/>
<path d="M308.716 227.071L409.832 523.652H344.545L324.64 463.142H211.183L191.278 523.652H125.99L227.107 227.071H308.716ZM228.699 409.399H307.124L268.111 289.174L228.699 409.399ZM523.949 301.515C579.284 301.515 617.103 333.761 617.103 380.338V523.652H561.37V503.748C545.048 520.866 525.143 528.429 500.063 528.429C450.699 528.429 419.648 500.563 419.648 464.336C419.648 432.09 445.126 410.991 489.315 401.835L557.389 387.504V380.338C557.389 364.016 543.854 353.268 523.949 353.268C502.85 353.268 485.334 365.608 478.964 385.115L427.61 360.433C440.349 324.605 477.77 301.515 523.949 301.515ZM509.219 484.639C536.29 484.639 557.389 465.132 557.389 440.849V430.498L500.063 443.237C487.722 446.024 481.353 453.588 481.353 463.54C481.353 476.677 492.101 484.639 509.219 484.639Z" fill="url(#paint0_linear_4195_18493)"/>
<mask id="path-2-outside-1_4195_18493" maskUnits="userSpaceOnUse" x="151.391" y="200.375" width="502" height="310" fill="black">
<rect fill="white" x="151.391" y="200.375" width="502" height="310"/>
<path d="M340.107 204.794L441.223 501.375H375.935L356.031 440.865H242.574L222.669 501.375H157.381L258.497 204.794H340.107ZM260.09 387.122H338.514L299.501 266.897L260.09 387.122ZM555.34 279.238C610.675 279.238 648.494 311.483 648.494 358.061V501.375H592.761V481.47C576.439 498.588 556.534 506.152 531.454 506.152C482.09 506.152 451.039 478.285 451.039 442.059C451.039 409.813 476.517 388.714 520.705 379.558L588.78 365.226V358.061C588.78 341.739 575.244 330.99 555.34 330.99C534.241 330.99 516.724 343.331 510.355 362.838L459.001 338.156C471.74 302.327 509.161 279.238 555.34 279.238ZM540.61 462.362C567.681 462.362 588.78 442.855 588.78 418.571V408.221L531.454 420.96C519.113 423.746 512.743 431.31 512.743 441.263C512.743 454.4 523.492 462.362 540.61 462.362Z"/>
</mask>
<path d="M340.107 204.794L342.024 204.14L341.556 202.769H340.107V204.794ZM441.223 501.375V503.4H444.053L443.14 500.721L441.223 501.375ZM375.935 501.375L374.012 502.008L374.47 503.4H375.935V501.375ZM356.031 440.865L357.955 440.232L357.496 438.839H356.031V440.865ZM242.574 440.865V438.839H241.108L240.65 440.232L242.574 440.865ZM222.669 501.375V503.4H224.135L224.593 502.008L222.669 501.375ZM157.381 501.375L155.464 500.721L154.551 503.4H157.381V501.375ZM258.497 204.794V202.769H257.048L256.58 204.14L258.497 204.794ZM260.09 387.122L258.165 386.491L257.295 389.147H260.09V387.122ZM338.514 387.122V389.147H341.301L340.441 386.497L338.514 387.122ZM299.501 266.897L301.428 266.272L299.511 260.365L297.577 266.266L299.501 266.897ZM340.107 202.769H333.306V206.819H340.107V202.769ZM319.704 202.769H306.103V206.819H319.704V202.769ZM292.501 202.769H278.9V206.819H292.501V202.769ZM265.298 202.769H258.497V206.819H265.298V202.769ZM256.58 204.14L254.282 210.881L258.116 212.188L260.414 205.447L256.58 204.14ZM249.686 224.362L245.09 237.843L248.924 239.15L253.52 225.669L249.686 224.362ZM240.494 251.324L235.898 264.805L239.731 266.112L244.328 252.631L240.494 251.324ZM231.301 278.286L226.705 291.767L230.539 293.074L235.135 279.593L231.301 278.286ZM222.109 305.248L217.513 318.729L221.347 320.036L225.943 306.555L222.109 305.248ZM212.917 332.209L208.32 345.69L212.154 346.998L216.75 333.517L212.917 332.209ZM203.724 359.171L199.128 372.652L202.962 373.959L207.558 360.479L203.724 359.171ZM194.532 386.133L189.936 399.614L193.769 400.921L198.366 387.44L194.532 386.133ZM185.339 413.095L180.743 426.576L184.577 427.883L189.173 414.402L185.339 413.095ZM176.147 440.057L171.551 453.538L175.385 454.845L179.981 441.364L176.147 440.057ZM166.955 467.019L162.358 480.5L166.192 481.807L170.788 468.326L166.955 467.019ZM157.762 493.981L155.464 500.721L159.298 502.029L161.596 495.288L157.762 493.981ZM157.381 503.4H165.542V499.35H157.381V503.4ZM181.864 503.4H198.186V499.35H181.864V503.4ZM214.508 503.4H222.669V499.35H214.508V503.4ZM224.593 502.008L227.081 494.444L223.233 493.178L220.745 500.742L224.593 502.008ZM232.057 479.316L237.033 464.189L233.185 462.923L228.209 478.051L232.057 479.316ZM242.009 449.061L244.497 441.497L240.65 440.232L238.162 447.795L242.009 449.061ZM242.574 442.89H249.665V438.839H242.574V442.89ZM263.847 442.89H278.029V438.839H263.847V442.89ZM292.211 442.89H306.393V438.839H292.211V442.89ZM320.575 442.89H334.757V438.839H320.575V442.89ZM348.94 442.89H356.031V438.839H348.94V442.89ZM354.107 441.497L356.595 449.061L360.443 447.795L357.955 440.232L354.107 441.497ZM361.571 464.189L366.547 479.316L370.395 478.051L365.419 462.923L361.571 464.189ZM371.524 494.444L374.012 502.008L377.859 500.742L375.371 493.178L371.524 494.444ZM375.935 503.4H384.096V499.35H375.935V503.4ZM400.418 503.4H416.74V499.35H400.418V503.4ZM433.062 503.4H441.223V499.35H433.062V503.4ZM443.14 500.721L440.842 493.981L437.008 495.288L439.306 502.029L443.14 500.721ZM436.246 480.5L431.65 467.019L427.816 468.326L432.412 481.807L436.246 480.5ZM427.053 453.538L422.457 440.057L418.623 441.364L423.22 454.845L427.053 453.538ZM417.861 426.576L413.265 413.095L409.431 414.402L414.027 427.883L417.861 426.576ZM408.669 399.614L404.072 386.133L400.239 387.44L404.835 400.921L408.669 399.614ZM399.476 372.652L394.88 359.171L391.046 360.478L395.642 373.959L399.476 372.652ZM390.284 345.69L385.688 332.209L381.854 333.517L386.45 346.998L390.284 345.69ZM381.091 318.729L376.495 305.248L372.661 306.555L377.258 320.036L381.091 318.729ZM371.899 291.767L367.303 278.286L363.469 279.593L368.065 293.074L371.899 291.767ZM362.707 264.805L358.11 251.324L354.277 252.631L358.873 266.112L362.707 264.805ZM353.514 237.843L348.918 224.362L345.084 225.669L349.68 239.15L353.514 237.843ZM344.322 210.881L342.024 204.14L338.19 205.447L340.488 212.188L344.322 210.881ZM262.014 387.753L264.477 380.238L260.628 378.977L258.165 386.491L262.014 387.753ZM269.404 365.21L274.33 350.182L270.481 348.921L265.555 363.949L269.404 365.21ZM279.257 335.154L284.183 320.126L280.334 318.864L275.408 333.892L279.257 335.154ZM289.11 305.098L294.036 290.07L290.187 288.808L285.261 303.836L289.11 305.098ZM298.962 275.042L301.426 267.528L297.577 266.266L295.113 273.78L298.962 275.042ZM297.575 267.522L300.013 275.036L303.866 273.786L301.428 266.272L297.575 267.522ZM304.89 290.064L309.766 305.092L313.619 303.842L308.743 288.814L304.89 290.064ZM314.643 320.12L319.52 335.148L323.373 333.898L318.496 318.87L314.643 320.12ZM324.396 350.176L329.273 365.205L333.126 363.954L328.249 348.926L324.396 350.176ZM334.15 380.233L336.588 387.747L340.441 386.497L338.003 378.982L334.15 380.233ZM338.514 385.096H331.979V389.147H338.514V385.096ZM318.908 385.096H305.838V389.147H318.908V385.096ZM292.767 385.096H279.696V389.147H292.767V385.096ZM266.625 385.096H260.09V389.147H266.625V385.096ZM340.107 204.794L343.941 203.487L343.005 200.743H340.107V204.794ZM441.223 501.375V505.425H446.884L445.057 500.068L441.223 501.375ZM375.935 501.375L372.088 502.641L373.004 505.425H375.935V501.375ZM356.031 440.865L359.878 439.599L358.962 436.814H356.031V440.865ZM242.574 440.865V436.814H239.642L238.726 439.599L242.574 440.865ZM222.669 501.375V505.425H225.6L226.516 502.641L222.669 501.375ZM157.381 501.375L153.547 500.068L151.721 505.425H157.381V501.375ZM258.497 204.794V200.743H255.599L254.664 203.487L258.497 204.794ZM260.09 387.122L256.241 385.86L254.499 391.172H260.09V387.122ZM338.514 387.122V391.172H344.087L342.367 385.871L338.514 387.122ZM299.501 266.897L303.354 265.647L299.521 253.834L295.652 265.635L299.501 266.897ZM340.107 200.743H333.306V208.844H340.107V200.743ZM319.704 200.743H306.103V208.844H319.704V200.743ZM292.501 200.743H278.9V208.844H292.501V200.743ZM265.298 200.743H258.497V208.844H265.298V200.743ZM254.664 203.487L252.365 210.227L260.033 212.841L262.331 206.101L254.664 203.487ZM247.769 223.708L243.173 237.189L250.841 239.803L255.437 226.322L247.769 223.708ZM238.577 250.67L233.981 264.151L241.648 266.765L246.244 253.284L238.577 250.67ZM229.384 277.632L224.788 291.113L232.456 293.727L237.052 280.246L229.384 277.632ZM220.192 304.594L215.596 318.075L223.263 320.689L227.86 307.208L220.192 304.594ZM211 331.556L206.404 345.037L214.071 347.651L218.667 334.17L211 331.556ZM201.807 358.518L197.211 371.999L204.879 374.613L209.475 361.132L201.807 358.518ZM192.615 385.48L188.019 398.961L195.686 401.575L200.283 388.094L192.615 385.48ZM183.423 412.442L178.826 425.923L186.494 428.537L191.09 415.056L183.423 412.442ZM174.23 439.404L169.634 452.885L177.302 455.499L181.898 442.018L174.23 439.404ZM165.038 466.366L160.442 479.846L168.109 482.461L172.705 468.98L165.038 466.366ZM155.845 493.327L153.547 500.068L161.215 502.682L163.513 495.942L155.845 493.327ZM157.381 505.425H165.542V497.325H157.381V505.425ZM181.864 505.425H198.186V497.325H181.864V505.425ZM214.508 505.425H222.669V497.325H214.508V505.425ZM226.516 502.641L229.005 495.077L221.309 492.546L218.821 500.109L226.516 502.641ZM233.981 479.949L238.957 464.822L231.262 462.29L226.285 477.418L233.981 479.949ZM243.933 449.694L246.421 442.13L238.726 439.599L236.238 447.163L243.933 449.694ZM242.574 444.915H249.665V436.814H242.574V444.915ZM263.847 444.915H278.029V436.814H263.847V444.915ZM292.211 444.915H306.393V436.814H292.211V444.915ZM320.575 444.915H334.757V436.814H320.575V444.915ZM348.94 444.915H356.031V436.814H348.94V444.915ZM352.183 442.13L354.671 449.694L362.366 447.163L359.878 439.599L352.183 442.13ZM359.647 464.822L364.624 479.949L372.319 477.418L367.343 462.29L359.647 464.822ZM369.6 495.077L372.088 502.641L379.783 500.109L377.295 492.546L369.6 495.077ZM375.935 505.425H384.096V497.325H375.935V505.425ZM400.418 505.425H416.74V497.325H400.418V505.425ZM433.062 505.425H441.223V497.325H433.062V505.425ZM445.057 500.068L442.759 493.327L435.091 495.942L437.389 502.682L445.057 500.068ZM438.163 479.846L433.566 466.366L425.899 468.98L430.495 482.461L438.163 479.846ZM428.97 452.885L424.374 439.404L416.706 442.018L421.303 455.499L428.97 452.885ZM419.778 425.923L415.182 412.442L407.514 415.056L412.11 428.537L419.778 425.923ZM410.585 398.961L405.989 385.48L398.322 388.094L402.918 401.575L410.585 398.961ZM401.393 371.999L396.797 358.518L389.129 361.132L393.725 374.613L401.393 371.999ZM392.201 345.037L387.605 331.556L379.937 334.17L384.533 347.651L392.201 345.037ZM383.008 318.075L378.412 304.594L370.745 307.208L375.341 320.689L383.008 318.075ZM373.816 291.113L369.22 277.632L361.552 280.246L366.148 293.727L373.816 291.113ZM364.624 264.151L360.027 250.67L352.36 253.284L356.956 266.765L364.624 264.151ZM355.431 237.189L350.835 223.708L343.167 226.322L347.764 239.803L355.431 237.189ZM346.239 210.227L343.941 203.487L336.273 206.101L338.571 212.842L346.239 210.227ZM263.939 388.383L266.402 380.869L258.704 378.346L256.241 385.86L263.939 388.383ZM271.328 365.841L276.255 350.813L268.557 348.29L263.63 363.318L271.328 365.841ZM281.181 335.785L286.108 320.757L278.41 318.233L273.483 333.262L281.181 335.785ZM291.034 305.729L295.96 290.701L288.263 288.177L283.336 303.205L291.034 305.729ZM300.887 275.673L303.35 268.159L295.652 265.635L293.189 273.149L300.887 275.673ZM295.648 268.147L298.087 275.661L305.792 273.161L303.354 265.647L295.648 268.147ZM302.963 290.689L307.84 305.717L315.546 303.217L310.669 288.189L302.963 290.689ZM312.717 320.745L317.593 335.773L325.299 333.273L320.422 318.245L312.717 320.745ZM322.47 350.802L327.347 365.83L335.052 363.329L330.176 348.301L322.47 350.802ZM332.223 380.858L334.662 388.372L342.367 385.871L339.929 378.357L332.223 380.858ZM338.514 383.071H331.979V391.172H338.514V383.071ZM318.908 383.071H305.838V391.172H318.908V383.071ZM292.767 383.071H279.696V391.172H292.767V383.071ZM266.625 383.071H260.09V391.172H266.625V383.071ZM648.494 501.375V503.4H650.519V501.375H648.494ZM592.761 501.375H590.735V503.4H592.761V501.375ZM592.761 481.47H594.786V476.411L591.295 480.073L592.761 481.47ZM520.705 379.558L521.116 381.541L521.123 381.54L520.705 379.558ZM588.78 365.226L589.197 367.208L590.805 366.87V365.226H588.78ZM510.355 362.838L509.478 364.663L511.562 365.665L512.28 363.466L510.355 362.838ZM459.001 338.156L457.092 337.477L456.482 339.193L458.123 339.981L459.001 338.156ZM588.78 408.221H590.805V405.696L588.34 406.244L588.78 408.221ZM531.454 420.96L531.015 418.983L531.008 418.984L531.454 420.96ZM555.34 277.213C552.766 277.213 550.218 277.283 547.699 277.423L547.923 281.467C550.367 281.332 552.84 281.263 555.34 281.263V277.213ZM532.512 279.153C527.386 280.048 522.418 281.246 517.634 282.729L518.834 286.598C523.449 285.167 528.249 284.009 533.209 283.143L532.512 279.153ZM503.344 288.264C498.635 290.484 494.172 293.015 489.991 295.839L492.258 299.196C496.262 296.492 500.544 294.062 505.071 291.928L503.344 288.264ZM478.002 305.47C474.257 309.043 470.862 312.913 467.856 317.057L471.135 319.435C473.993 315.495 477.226 311.809 480.798 308.401L478.002 305.47ZM460.024 330.336C458.938 332.657 457.96 335.038 457.092 337.477L460.909 338.834C461.732 336.518 462.662 334.256 463.693 332.052L460.024 330.336ZM458.123 339.981L464.543 343.066L466.297 339.416L459.878 336.331L458.123 339.981ZM477.381 349.237L490.22 355.407L491.974 351.757L479.136 345.586L477.381 349.237ZM503.058 361.578L509.478 364.663L511.232 361.012L504.813 357.927L503.058 361.578ZM512.28 363.466C513.026 361.183 513.93 359.004 514.979 356.939L511.367 355.105C510.223 357.358 509.239 359.729 508.43 362.209L512.28 363.466ZM523.27 345.608C526.62 342.327 530.494 339.618 534.774 337.563L533.02 333.912C528.347 336.156 524.106 339.12 520.436 342.714L523.27 345.608ZM548.265 333.51C550.563 333.183 552.926 333.015 555.34 333.015V328.965C552.738 328.965 550.185 329.146 547.696 329.499L548.265 333.51ZM555.34 333.015C557.344 333.015 559.276 333.129 561.127 333.348L561.603 329.325C559.587 329.087 557.496 328.965 555.34 328.965V333.015ZM572.152 336.285C575.804 337.922 578.843 340.122 581.182 342.774L584.22 340.095C581.46 336.966 577.933 334.438 573.809 332.589L572.152 336.285ZM586.153 352.519C586.548 354.264 586.754 356.113 586.754 358.061H590.805C590.805 355.825 590.567 353.675 590.103 351.625L586.153 352.519ZM586.754 358.061V359.852H590.805V358.061H586.754ZM586.754 363.435V365.226H590.805V363.435H586.754ZM588.362 363.245L579.853 365.036L580.688 369L589.197 367.208L588.362 363.245ZM562.835 368.619L545.816 372.202L546.65 376.165L563.669 372.582L562.835 368.619ZM528.797 375.785L520.288 377.576L521.123 381.54L529.632 379.748L528.797 375.785ZM520.294 377.575C518.151 378.019 516.049 378.491 513.991 378.992L514.948 382.927C516.96 382.438 519.016 381.976 521.116 381.541L520.294 377.575ZM501.567 382.527C497.302 383.936 493.267 385.491 489.473 387.192L491.13 390.888C494.787 389.248 498.692 387.742 502.838 386.373L501.567 382.527ZM477.96 393.267C474.097 395.665 470.586 398.271 467.447 401.088L470.153 404.102C473.098 401.459 476.416 398.993 480.096 396.709L477.96 393.267ZM458.641 410.901C456.063 414.545 453.981 418.443 452.422 422.59L456.213 424.016C457.648 420.201 459.564 416.609 461.948 413.241L458.641 410.901ZM449.371 435.464C449.133 437.614 449.013 439.812 449.013 442.059H453.064C453.064 439.956 453.176 437.907 453.397 435.91L449.371 435.464ZM449.013 442.059C449.013 444.568 449.158 447.041 449.443 449.471L453.466 448.999C453.199 446.728 453.064 444.413 453.064 442.059H449.013ZM452.971 463.89C454.744 468.525 457.093 472.907 459.98 476.98L463.285 474.638C460.592 470.838 458.404 466.757 456.755 462.443L452.971 463.89ZM469.928 487.962C473.539 491.125 477.575 493.973 482.005 496.465L483.991 492.935C479.795 490.574 475.989 487.886 472.597 484.915L469.928 487.962ZM495.434 502.486C499.897 504.041 504.634 505.298 509.625 506.231L510.37 502.25C505.569 501.352 501.029 500.146 496.767 498.661L495.434 502.486ZM524.14 507.971C526.533 508.108 528.971 508.177 531.454 508.177V504.127C529.047 504.127 526.685 504.06 524.371 503.927L524.14 507.971ZM531.454 508.177C534.406 508.177 537.291 508.074 540.112 507.864L539.812 503.825C537.096 504.027 534.311 504.127 531.454 504.127V508.177ZM557.258 505.04C562.976 503.517 568.387 501.421 573.515 498.717L571.625 495.134C566.777 497.691 561.651 499.678 556.216 501.126L557.258 505.04ZM587.916 488.873C590.079 487.013 592.182 485.012 594.226 482.868L591.295 480.073C589.339 482.124 587.333 484.032 585.275 485.801L587.916 488.873ZM590.735 481.47V486.446H594.786V481.47H590.735ZM590.735 496.399V501.375H594.786V496.399H590.735ZM592.761 503.4H599.727V499.35H592.761V503.4ZM613.661 503.4H627.594V499.35H613.661V503.4ZM641.527 503.4H648.494V499.35H641.527V503.4ZM650.519 501.375V494.209H646.469V501.375H650.519ZM650.519 479.878V465.546H646.469V479.878H650.519ZM650.519 451.215V436.884H646.469V451.215H650.519ZM650.519 422.552V408.221H646.469V422.552H650.519ZM650.519 393.889V379.558H646.469V393.889H650.519ZM650.519 365.226V358.061H646.469V365.226H650.519ZM650.519 358.061C650.519 355.689 650.423 353.352 650.234 351.052L646.197 351.384C646.377 353.572 646.469 355.798 646.469 358.061H650.519ZM647.869 337.234C646.647 332.636 645.015 328.236 642.999 324.058L639.351 325.819C641.255 329.764 642.798 333.922 643.954 338.274L647.869 337.234ZM635.697 312.054C632.905 308.326 629.752 304.853 626.266 301.656L623.528 304.641C626.834 307.672 629.817 310.96 632.455 314.482L635.697 312.054ZM615.152 293.123C611.303 290.654 607.186 288.448 602.824 286.522L601.188 290.227C605.366 292.072 609.298 294.18 612.966 296.532L615.152 293.123ZM589.697 281.793C585.344 280.548 580.808 279.547 576.105 278.801L575.471 282.802C580.018 283.522 584.393 284.489 588.583 285.687L589.697 281.793ZM562.289 277.383C560.004 277.27 557.687 277.213 555.34 277.213V281.263C557.621 281.263 559.871 281.319 562.089 281.428L562.289 277.383ZM540.61 460.336C537.196 460.336 534.075 460.008 531.279 459.386L530.4 463.34C533.52 464.034 536.939 464.387 540.61 464.387V460.336ZM516.796 449.765C515.485 447.347 514.769 444.51 514.769 441.263H510.718C510.718 445.121 511.574 448.632 513.235 451.696L516.796 449.765ZM514.769 441.263C514.769 438.857 515.176 436.641 515.962 434.64L512.193 433.159C511.205 435.672 510.718 438.395 510.718 441.263H514.769ZM525.227 425.21C527.165 424.272 529.387 423.503 531.9 422.935L531.008 418.984C528.23 419.611 525.71 420.476 523.463 421.564L525.227 425.21ZM531.893 422.937L539.059 421.344L538.18 417.39L531.015 418.983L531.893 422.937ZM553.39 418.16L567.722 414.975L566.843 411.021L552.512 414.206L553.39 418.16ZM582.053 411.79L589.219 410.198L588.34 406.244L581.175 407.836L582.053 411.79ZM586.754 408.221V410.808H590.805V408.221H586.754ZM586.754 415.984V418.571H590.805V415.984H586.754ZM586.754 418.571C586.754 420.514 586.613 422.423 586.338 424.29L590.345 424.88C590.649 422.817 590.805 420.711 590.805 418.571H586.754ZM583.028 435.226C581.398 438.679 579.27 441.891 576.716 444.786L579.754 447.466C582.553 444.293 584.894 440.762 586.691 436.954L583.028 435.226ZM568.032 452.326C564.884 454.412 561.418 456.145 557.699 457.46L559.049 461.279C563.077 459.855 566.842 457.974 570.27 455.702L568.032 452.326ZM546.414 460.021C544.518 460.229 542.581 460.336 540.61 460.336V464.387C542.728 464.387 544.812 464.272 546.856 464.047L546.414 460.021ZM648.494 501.375V505.425H652.544V501.375H648.494ZM592.761 501.375H588.71V505.425H592.761V501.375ZM592.761 481.47H596.811V471.353L589.829 478.675L592.761 481.47ZM520.705 379.558L521.527 383.524L521.54 383.521L520.705 379.558ZM588.78 365.226L589.614 369.19L592.83 368.513V365.226H588.78ZM510.355 362.838L508.6 366.489L512.769 368.492L514.205 364.095L510.355 362.838ZM459.001 338.156L455.184 336.799L453.964 340.229L457.246 341.807L459.001 338.156ZM588.78 408.221H592.83V403.171L587.901 404.267L588.78 408.221ZM531.454 420.96L530.575 417.006L530.562 417.009L531.454 420.96ZM555.34 275.187C552.729 275.187 550.143 275.259 547.587 275.401L548.035 283.489C550.441 283.356 552.877 283.288 555.34 283.288V275.187ZM532.163 277.158C526.954 278.067 521.902 279.285 517.034 280.795L519.434 288.532C523.964 287.127 528.68 285.99 533.557 285.138L532.163 277.158ZM502.48 286.432C497.68 288.694 493.127 291.277 488.857 294.161L493.391 300.874C497.307 298.23 501.498 295.851 505.934 293.76L502.48 286.432ZM476.604 304.005C472.773 307.66 469.296 311.623 466.217 315.868L472.775 320.624C475.559 316.786 478.71 313.192 482.196 309.866L476.604 304.005ZM458.189 329.478C457.076 331.857 456.073 334.299 455.184 336.799L462.817 339.513C463.619 337.257 464.524 335.055 465.527 332.91L458.189 329.478ZM457.246 341.807L463.665 344.892L467.174 337.59L460.755 334.505L457.246 341.807ZM476.504 351.062L489.342 357.233L492.852 349.931L480.013 343.761L476.504 351.062ZM502.181 363.403L508.6 366.489L512.109 359.187L505.69 356.102L502.181 363.403ZM514.205 364.095C514.919 361.909 515.783 359.827 516.784 357.856L509.561 354.188C508.37 356.535 507.346 359.003 506.504 361.581L514.205 364.095ZM524.687 347.055C527.877 343.931 531.568 341.349 535.65 339.389L532.144 332.086C527.273 334.425 522.85 337.516 519.019 341.266L524.687 347.055ZM548.55 335.515C550.753 335.202 553.02 335.041 555.34 335.041V326.94C552.644 326.94 549.996 327.127 547.411 327.494L548.55 335.515ZM555.34 335.041C557.268 335.041 559.12 335.15 560.888 335.359L561.841 327.314C559.743 327.066 557.573 326.94 555.34 326.94V335.041ZM571.324 338.133C574.74 339.665 577.535 341.7 579.663 344.113L585.739 338.756C582.769 335.387 578.997 332.696 574.638 330.741L571.324 338.133ZM584.178 352.966C584.538 354.558 584.729 356.257 584.729 358.061H592.83C592.83 355.681 592.577 353.381 592.079 351.178L584.178 352.966ZM584.729 358.061V359.852H592.83V358.061H584.729ZM584.729 363.435V365.226H592.83V363.435H584.729ZM587.945 361.263L579.436 363.054L581.105 370.981L589.614 369.19L587.945 361.263ZM562.417 366.637L545.399 370.22L547.068 378.147L564.086 374.564L562.417 366.637ZM528.38 373.803L519.871 375.594L521.54 383.521L530.049 381.73L528.38 373.803ZM519.883 375.592C517.718 376.04 515.594 376.518 513.513 377.024L515.426 384.895C517.415 384.412 519.449 383.955 521.527 383.524L519.883 375.592ZM500.932 380.604C496.607 382.032 492.506 383.612 488.644 385.345L491.959 392.736C495.547 391.127 499.387 389.645 503.473 388.296L500.932 380.604ZM476.892 391.546C472.938 394 469.33 396.677 466.095 399.58L471.505 405.61C474.355 403.053 477.575 400.657 481.164 398.43L476.892 391.546ZM456.988 409.731C454.312 413.513 452.148 417.564 450.526 421.877L458.109 424.728C459.481 421.08 461.315 417.641 463.601 414.411L456.988 409.731ZM447.358 435.241C447.112 437.467 446.988 439.74 446.988 442.059H455.089C455.089 440.028 455.197 438.053 455.41 436.133L447.358 435.241ZM446.988 442.059C446.988 444.646 447.137 447.198 447.432 449.707L455.477 448.763C455.22 446.571 455.089 444.335 455.089 442.059H446.988ZM451.08 464.613C452.914 469.409 455.344 473.941 458.328 478.151L464.937 473.466C462.341 469.804 460.234 465.873 458.646 461.719L451.08 464.613ZM468.593 489.485C472.314 492.745 476.466 495.673 481.012 498.23L484.984 491.17C480.904 488.875 477.213 486.267 473.931 483.392L468.593 489.485ZM494.768 504.398C499.33 505.988 504.166 507.271 509.253 508.222L510.742 500.259C506.037 499.379 501.595 498.199 497.433 496.749L494.768 504.398ZM524.025 509.993C526.457 510.132 528.934 510.203 531.454 510.203V502.102C529.085 502.102 526.762 502.035 524.486 501.906L524.025 509.993ZM531.454 510.203C534.453 510.203 537.389 510.098 540.263 509.884L539.662 501.805C536.999 502.003 534.264 502.102 531.454 502.102V510.203ZM557.78 506.997C563.638 505.436 569.192 503.287 574.46 500.508L570.681 493.343C565.973 495.826 560.989 497.758 555.694 499.169L557.78 506.997ZM589.236 490.408C591.452 488.503 593.603 486.456 595.692 484.265L589.829 478.675C587.918 480.68 585.96 482.541 583.955 484.265L589.236 490.408ZM588.71 481.47V486.446H596.811V481.47H588.71ZM588.71 496.399V501.375H596.811V496.399H588.71ZM592.761 505.425H599.727V497.325H592.761V505.425ZM613.661 505.425H627.594V497.325H613.661V505.425ZM641.527 505.425H648.494V497.325H641.527V505.425ZM652.544 501.375V494.209H644.443V501.375H652.544ZM652.544 479.878V465.546H644.443V479.878H652.544ZM652.544 451.215V436.884H644.443V451.215H652.544ZM652.544 422.552V408.221H644.443V422.552H652.544ZM652.544 393.889V379.558H644.443V393.889H652.544ZM652.544 365.226V358.061H644.443V365.226H652.544ZM652.544 358.061C652.544 355.634 652.446 353.242 652.252 350.885L644.179 351.55C644.354 353.682 644.443 355.853 644.443 358.061H652.544ZM649.826 336.714C648.572 331.993 646.896 327.472 644.822 323.178L637.527 326.699C639.375 330.527 640.873 334.565 641.996 338.794L649.826 336.714ZM637.318 310.84C634.45 307.009 631.212 303.443 627.634 300.163L622.16 306.134C625.375 309.082 628.273 312.276 630.834 315.696L637.318 310.84ZM616.246 291.418C612.305 288.891 608.096 286.636 603.642 284.669L600.37 292.08C604.456 293.884 608.296 295.943 611.872 298.237L616.246 291.418ZM590.254 279.846C585.82 278.578 581.203 277.559 576.422 276.801L575.154 284.802C579.623 285.51 583.918 286.46 588.027 287.635L590.254 279.846ZM562.39 275.36C560.07 275.245 557.72 275.187 555.34 275.187V283.288C557.588 283.288 559.805 283.343 561.989 283.451L562.39 275.36ZM540.61 458.311C537.324 458.311 534.352 457.995 531.718 457.409L529.961 465.317C533.243 466.047 536.811 466.412 540.61 466.412V458.311ZM518.576 448.8C517.44 446.705 516.794 444.204 516.794 441.263H508.693C508.693 445.427 509.619 449.274 511.454 452.661L518.576 448.8ZM516.794 441.263C516.794 439.088 517.162 437.126 517.847 435.381L510.308 432.418C509.22 435.187 508.693 438.164 508.693 441.263H516.794ZM526.11 427.033C527.892 426.17 529.966 425.448 532.346 424.911L530.562 417.009C527.652 417.666 524.983 418.578 522.58 419.741L526.11 427.033ZM532.333 424.914L539.498 423.321L537.741 415.413L530.575 417.006L532.333 424.914ZM553.83 420.137L568.161 416.952L566.404 409.044L552.072 412.229L553.83 420.137ZM582.493 413.767L589.658 412.175L587.901 404.267L580.735 405.859L582.493 413.767ZM584.729 408.221V410.808H592.83V408.221H584.729ZM584.729 415.984V418.571H592.83V415.984H584.729ZM584.729 418.571C584.729 420.415 584.595 422.225 584.334 423.995L592.349 425.175C592.667 423.015 592.83 420.81 592.83 418.571H584.729ZM581.196 434.362C579.65 437.637 577.629 440.69 575.197 443.447L581.272 448.806C584.194 445.494 586.642 441.804 588.522 437.819L581.196 434.362ZM566.913 450.637C563.905 452.631 560.589 454.29 557.024 455.55L559.724 463.188C563.907 461.71 567.821 459.755 571.388 457.39L566.913 450.637ZM546.193 458.008C544.37 458.208 542.507 458.311 540.61 458.311V466.412C542.802 466.412 544.959 466.293 547.076 466.061L546.193 458.008Z" fill="#E51E56" mask="url(#path-2-outside-1_4195_18493)"/>
<path d="M740.536 112.245H744.46C746.425 112.245 747.786 113.628 747.786 115.608C747.786 117.552 746.396 118.927 744.445 118.927H741.832V122.635H740.536V112.245ZM741.832 113.397V117.775H744.121C745.597 117.775 746.454 116.983 746.454 115.608C746.454 114.182 745.626 113.397 744.121 113.397H741.832ZM749.396 122.635V114.873H750.577V116.025H750.692C750.922 115.269 751.815 114.737 752.845 114.737C753.046 114.737 753.305 114.751 753.464 114.773V116.011C753.363 115.982 752.917 115.939 752.672 115.939C751.491 115.939 750.634 116.731 750.634 117.825V122.635H749.396ZM754.685 122.635V114.873H755.923V122.635H754.685ZM755.304 113.297C754.829 113.297 754.44 112.908 754.44 112.433C754.44 111.957 754.829 111.569 755.304 111.569C755.779 111.569 756.168 111.957 756.168 112.433C756.168 112.908 755.779 113.297 755.304 113.297ZM757.929 122.635V114.873H759.11V116.097H759.225C759.578 115.233 760.356 114.737 761.392 114.737C762.444 114.737 763.178 115.291 763.538 116.097H763.653C764.071 115.277 764.956 114.737 766.029 114.737C767.613 114.737 768.499 115.644 768.499 117.271V122.635H767.26V117.559C767.26 116.414 766.72 115.853 765.626 115.853C764.546 115.853 763.826 116.659 763.826 117.645V122.635H762.588V117.364C762.588 116.443 761.947 115.853 760.968 115.853C759.952 115.853 759.168 116.731 759.168 117.825V122.635H757.929ZM772.794 121.684C774.068 121.684 775.012 120.849 775.012 119.74V119.028L772.924 119.164C771.743 119.244 771.225 119.654 771.225 120.432C771.225 121.224 771.894 121.684 772.794 121.684ZM772.564 122.772C771.059 122.772 769.943 121.879 769.943 120.46C769.943 119.071 770.965 118.272 772.772 118.164L775.012 118.027V117.321C775.012 116.364 774.414 115.838 773.255 115.838C772.326 115.838 771.678 116.191 771.505 116.803H770.253C770.418 115.557 771.642 114.737 773.298 114.737C775.192 114.737 776.25 115.709 776.25 117.321V122.635H775.069V121.49H774.954C774.45 122.318 773.6 122.772 772.564 122.772ZM778.184 122.635V114.873H779.365V116.025H779.48C779.71 115.269 780.603 114.737 781.633 114.737C781.834 114.737 782.093 114.751 782.252 114.773V116.011C782.151 115.982 781.705 115.939 781.46 115.939C780.279 115.939 779.422 116.731 779.422 117.825V122.635H778.184ZM784.107 125.443C783.941 125.443 783.725 125.428 783.552 125.4V124.341C783.703 124.37 783.898 124.377 784.071 124.377C784.783 124.377 785.172 124.039 785.496 123.103L785.64 122.642L782.767 114.873H784.107L786.238 121.26H786.353L788.477 114.873H789.794L786.763 123.11C786.101 124.91 785.482 125.443 784.107 125.443ZM799.055 122.635H797.759V113.412H794.411V112.245H802.403V113.412H799.055V122.635ZM803.617 125.443C803.451 125.443 803.235 125.428 803.062 125.4V124.341C803.214 124.37 803.408 124.377 803.581 124.377C804.294 124.377 804.682 124.039 805.006 123.103L805.15 122.642L802.278 114.873H803.617L805.748 121.26H805.863L807.987 114.873H809.305L806.274 123.11C805.611 124.91 804.992 125.443 803.617 125.443ZM814.385 114.737C816.365 114.737 817.647 116.313 817.647 118.754C817.647 121.18 816.358 122.772 814.385 122.772C813.276 122.772 812.383 122.289 811.959 121.468H811.843V125.227H810.605V114.873H811.786V116.169H811.901C812.398 115.277 813.327 114.737 814.385 114.737ZM814.09 121.656C815.515 121.656 816.365 120.568 816.365 118.754C816.365 116.94 815.515 115.853 814.097 115.853C812.693 115.853 811.807 116.968 811.807 118.754C811.807 120.532 812.693 121.656 814.09 121.656ZM822.331 115.831C821.092 115.831 820.228 116.738 820.135 118.113H824.412C824.383 116.738 823.562 115.831 822.331 115.831ZM824.376 120.626H825.614C825.24 121.958 824.044 122.772 822.345 122.772C820.192 122.772 818.846 121.216 818.846 118.761C818.846 116.321 820.214 114.737 822.345 114.737C824.44 114.737 825.715 116.227 825.715 118.639V119.114H820.135V119.172C820.2 120.705 821.056 121.677 822.374 121.677C823.375 121.677 824.052 121.31 824.376 120.626ZM827.821 122.635V115.91H826.533V114.873H827.821V114.009C827.821 112.461 828.599 111.72 830.075 111.72C830.377 111.72 830.651 111.741 830.91 111.792V112.8C830.759 112.771 830.55 112.764 830.327 112.764C829.434 112.764 829.06 113.196 829.06 114.045V114.873H830.838V115.91H829.06V122.635H827.821ZM834.464 121.684C835.738 121.684 836.682 120.849 836.682 119.74V119.028L834.594 119.164C833.413 119.244 832.895 119.654 832.895 120.432C832.895 121.224 833.564 121.684 834.464 121.684ZM834.234 122.772C832.729 122.772 831.613 121.879 831.613 120.46C831.613 119.071 832.635 118.272 834.442 118.164L836.682 118.027V117.321C836.682 116.364 836.084 115.838 834.925 115.838C833.996 115.838 833.348 116.191 833.175 116.803H831.923C832.088 115.557 833.312 114.737 834.968 114.737C836.862 114.737 837.92 115.709 837.92 117.321V122.635H836.739V121.49H836.624C836.12 122.318 835.27 122.772 834.234 122.772ZM846.276 117.249H845.023C844.822 116.479 844.138 115.853 843.022 115.853C841.625 115.853 840.747 116.968 840.747 118.725C840.747 120.518 841.64 121.656 843.022 121.656C844.066 121.656 844.793 121.173 845.023 120.295H846.276C846.053 121.72 844.894 122.772 843.029 122.772C840.855 122.772 839.465 121.195 839.465 118.725C839.465 116.306 840.848 114.737 843.022 114.737C844.908 114.737 846.06 115.867 846.276 117.249ZM850.845 115.831C849.607 115.831 848.743 116.738 848.649 118.113H852.926C852.897 116.738 852.076 115.831 850.845 115.831ZM852.89 120.626H854.128C853.754 121.958 852.559 122.772 850.86 122.772C848.707 122.772 847.361 121.216 847.361 118.761C847.361 116.321 848.729 114.737 850.86 114.737C852.955 114.737 854.229 116.227 854.229 118.639V119.114H848.649V119.172C848.714 120.705 849.571 121.677 850.888 121.677C851.889 121.677 852.566 121.31 852.89 120.626Z" fill="white"/>
<path d="M746.601 248.939V157.18H765.692V248.939H746.601ZM815.376 180.213C830.525 180.213 840.871 190.435 840.871 205.708V248.939H822.396V209.649C822.396 201.89 817.347 196.84 810.08 196.84C802.813 196.84 797.763 201.89 797.763 209.649V248.939H779.288V181.691H796.531V189.82C799.98 183.292 806.877 180.213 815.376 180.213ZM884.207 249.678C867.949 249.678 858.588 240.441 858.588 224.676V197.702H847.01V181.691H847.873C854.77 181.691 858.588 178.242 858.588 171.345V161.491H877.063V181.691H892.828V197.702H877.063V224.676C877.063 231.573 880.758 234.898 888.518 234.898C889.626 234.898 891.104 234.775 892.828 234.529V249.063C890.365 249.432 887.04 249.678 884.207 249.678ZM965.169 213.344C965.169 216.054 964.923 218.641 964.307 220.488H917.011C918.12 228.986 924.155 234.406 933.269 234.406C939.797 234.406 944.601 231.573 947.187 227.016L961.967 234.036C957.903 243.89 946.818 250.417 933.023 250.417C911.715 250.417 897.797 234.652 897.797 215.192C897.797 195.116 912.577 180.213 931.791 180.213C950.636 180.213 965.169 194.746 965.169 213.344ZM917.381 206.94H945.586C944.847 199.796 939.428 194.993 931.791 194.993C924.524 194.993 919.228 199.18 917.381 206.94ZM1008.05 180.952H1015.07V196.963H1006.2C997.211 196.963 991.053 202.752 991.053 212.729V248.939H972.578V181.691H989.821V191.79C993.27 183.415 999.797 180.952 1008.05 180.952Z" fill="white"/>
<path d="M742.914 348.777V314.29H746.618V345.537H761.894V348.777H742.914ZM766.536 319.336V314.29H769.776V319.336H766.536ZM766.536 348.777V324.428H769.776V348.777H766.536ZM794.793 324.428H798.034V347.852C798.034 354.147 793.22 358.962 786.461 358.962C781.461 358.962 777.573 356.323 775.953 352.851L778.915 351.231C779.934 353.499 782.387 355.721 786.368 355.721C790.905 355.721 794.793 352.851 794.793 347.852V343.639C792.988 346.092 789.887 347.527 786.322 347.527C779.702 347.527 774.425 342.25 774.425 335.677C774.425 329.011 779.564 323.872 786.322 323.872C790.025 323.872 793.127 325.446 794.793 327.992V324.428ZM786.322 344.287C791.414 344.287 794.793 340.584 794.793 335.677C794.793 330.724 791.229 327.113 786.276 327.113C781.508 327.113 777.897 330.492 777.897 335.677C777.897 340.769 781.323 344.287 786.322 344.287ZM814.843 323.872C820.074 323.872 823.916 327.668 823.916 332.714V348.777H820.676V333.918C820.676 329.798 818.176 327.113 814.241 327.113C810.353 327.113 807.761 329.798 807.761 333.918V348.777H804.52V314.29H807.761V327.159C809.242 325.122 811.881 323.872 814.843 323.872ZM839.74 349.055C835.065 349.055 832.472 346.416 832.472 341.695V327.668H827.612V324.428H829.093C831.13 324.428 832.472 322.947 832.472 320.863V316.373H835.713V324.428H841.638V327.668H835.713V341.695C835.713 342.991 835.713 346.278 840.249 346.278C840.805 346.278 841.545 346.231 842.008 346.139V348.824C841.268 349.009 840.342 349.055 839.74 349.055Z" fill="white"/>
<path d="M742.729 415.727V381.239H755.043C762.079 381.239 766.893 385.406 766.893 391.886C766.893 396.654 764.301 400.219 759.996 401.7L768.051 415.727H762.959L755.459 402.487H747.127V415.727H742.729ZM747.127 398.645H755.043C759.44 398.645 762.357 395.914 762.357 391.84C762.357 387.813 759.44 385.081 755.043 385.081H747.127V398.645ZM793.594 402.395C793.594 403.089 793.548 403.876 793.409 404.663H774.383C774.568 409.523 778.225 412.671 782.53 412.671C786.002 412.671 788.27 410.82 789.566 408.32L793.038 410.172C791.511 413.551 787.53 416.282 782.484 416.282C775.448 416.282 770.217 410.82 770.217 403.413C770.217 396.006 775.309 390.636 782.16 390.636C789.15 390.636 793.594 396.145 793.594 402.395ZM774.475 401.237H789.196C789.15 397.164 785.771 394.155 782.16 394.155C778.318 394.155 775.031 396.793 774.475 401.237ZM816.804 391.192H820.692V414.708C820.692 421.189 815.646 425.911 808.842 425.911C803.657 425.911 799.629 423.226 798.056 419.522L801.574 417.625C802.546 419.985 804.953 422.069 808.749 422.069C813.054 422.069 816.711 419.384 816.711 414.708V410.912C814.906 413.181 811.943 414.477 808.517 414.477C801.851 414.477 796.482 409.292 796.482 402.533C796.482 395.682 801.805 390.636 808.471 390.636C812.082 390.636 815.091 392.118 816.804 394.571V391.192ZM808.703 410.634C813.471 410.634 816.711 407.163 816.711 402.533C816.711 397.858 813.332 394.479 808.656 394.479C804.166 394.479 800.694 397.673 800.694 402.533C800.694 407.301 803.981 410.634 808.703 410.634ZM842.496 391.192H846.477V415.727H842.588V412.903C841.153 415.032 838.514 416.282 835.552 416.282C830.228 416.282 826.34 412.023 826.34 406.792V391.192H830.321V406.052C830.321 409.94 832.728 412.44 836.431 412.44C840.042 412.44 842.496 409.894 842.496 406.052V391.192ZM852.57 415.727V381.239H856.552V415.727H852.57ZM872.095 390.636C877.696 390.636 881.631 394.108 881.631 399.108V415.727H877.743V412.301C876.076 414.754 873.16 416.282 870.012 416.282C864.781 416.282 861.263 413.227 861.263 408.922C861.263 405.311 864.179 402.811 869.132 401.7L877.65 399.802V399.108C877.65 396.284 875.335 394.432 872.095 394.432C869.132 394.432 866.818 396.006 865.753 398.413L862.189 396.562C863.577 393.229 867.558 390.636 872.095 390.636ZM870.243 412.718C874.549 412.718 877.65 409.477 877.65 405.172V403.043L870.058 404.802C867.281 405.404 865.475 406.931 865.475 408.922C865.475 411.236 867.327 412.718 870.243 412.718ZM897.299 390.914H899.29V394.71H896.697C893.179 394.71 890.818 397.025 890.818 401.098V415.727H886.837V391.192H890.679V394.247C891.976 391.979 894.336 390.914 897.299 390.914Z" fill="white"/>
<path d="M770.828 448.189H776.383V482.676H770.504V458.604L759.672 473.186H759.024L748.192 458.234V482.676H742.359V448.189H747.914L759.348 463.789L770.828 448.189ZM805.182 469.297C805.182 470.177 805.089 471.057 804.904 471.797H786.573C786.85 475.778 789.767 478.324 793.609 478.324C796.572 478.324 798.562 476.889 799.673 474.852L804.256 477.074C802.729 480.639 798.655 483.231 793.563 483.231C786.017 483.231 780.786 477.491 780.786 470.177C780.786 462.678 786.11 457.169 793.146 457.169C800.182 457.169 805.182 462.678 805.182 469.297ZM786.665 467.492H799.21C799.025 464.159 796.34 461.798 793.146 461.798C789.906 461.798 787.313 463.835 786.665 467.492ZM827.876 448.189H833.431V482.676H828.154V479.759C826.302 481.981 823.293 483.231 819.96 483.231C812.785 483.231 807.323 477.584 807.323 470.223C807.323 462.817 812.878 457.169 819.914 457.169C823.247 457.169 826.117 458.373 827.876 460.502V448.189ZM820.516 478.093C824.775 478.093 827.876 474.852 827.876 470.223C827.876 465.64 824.775 462.307 820.516 462.307C816.211 462.307 813.109 465.64 813.109 470.223C813.109 474.806 816.211 478.093 820.516 478.093ZM838.589 454.438V448.189H844.144V454.438H838.589ZM838.589 482.676V457.725H844.144V482.676H838.589ZM865 457.725H870.555V482.676H865.278V479.806C863.889 481.981 861.343 483.231 858.288 483.231C852.733 483.231 848.844 478.972 848.844 473.232V457.725H854.399V472.538C854.399 475.917 856.528 478.093 859.723 478.093C862.87 478.093 865 475.917 865 472.538V457.725ZM903.292 457.169C908.477 457.169 912.18 460.919 912.18 466.474V482.676H906.625V467.862C906.625 464.391 904.681 462.307 901.718 462.307C898.802 462.307 896.811 464.391 896.811 467.862V482.676H891.256V467.862C891.256 464.391 889.312 462.307 886.349 462.307C883.433 462.307 881.489 464.391 881.489 467.862V482.676H875.934V457.725H881.165V460.78C882.461 458.419 884.868 457.169 887.877 457.169C891.21 457.169 893.941 458.697 895.515 461.289C896.996 458.743 899.866 457.169 903.292 457.169Z" fill="white"/>
<path d="M765.458 531.016C768.514 533.099 769.347 535.876 769.347 538.885C769.347 545.69 764.579 549.625 756.57 549.625H741.988V515.138H756.57C763.699 515.138 767.912 518.887 767.912 525.229C767.912 527.359 767.171 529.349 765.458 531.016ZM749.164 521.156V528.099H757.08C759.302 528.099 760.737 526.711 760.737 524.628C760.737 522.544 759.302 521.156 757.08 521.156H749.164ZM757.404 543.376C760.274 543.376 762.172 541.57 762.172 538.885C762.172 536.154 760.274 534.349 757.404 534.349H749.164V543.376H757.404ZM785.163 550.18C777.664 550.18 771.646 544.626 771.646 536.987C771.646 529.349 777.664 523.794 785.163 523.794C792.662 523.794 798.68 529.349 798.68 536.987C798.68 544.626 792.662 550.18 785.163 550.18ZM785.163 543.931C788.959 543.931 791.505 541.061 791.505 536.987C791.505 532.96 788.959 530.044 785.163 530.044C781.367 530.044 778.821 532.96 778.821 536.987C778.821 541.061 781.367 543.931 785.163 543.931ZM801.922 549.625V515.138H808.865V549.625H801.922ZM832.196 515.138H839.14V549.625H832.659V547.218C830.854 549.162 828.076 550.18 824.975 550.18C817.615 550.18 812.106 544.348 812.106 536.987C812.106 529.581 817.753 523.794 824.929 523.794C827.938 523.794 830.484 524.766 832.196 526.479V515.138ZM825.808 543.931C829.558 543.931 832.196 541.107 832.196 536.987C832.196 532.914 829.558 530.044 825.808 530.044C822.012 530.044 819.281 532.96 819.281 536.987C819.281 541.061 822.012 543.931 825.808 543.931Z" fill="white"/>
<path d="M993.517 348.777L1000.83 314.29H1004.53L997.915 345.537H1013.19L1012.5 348.777H993.517ZM1023.3 319.891L1024.36 314.846H1027.6L1026.54 319.891H1023.3ZM1017.18 348.777L1022.37 324.289H1025.61L1020.43 348.777H1017.18ZM1050.9 324.428H1054.14L1048.91 348.777C1047.66 354.656 1042.53 358.73 1036.6 358.73C1031.55 358.73 1027.16 355.86 1026.14 351.462L1029.38 350.166C1030.17 353.453 1033.13 355.49 1036.83 355.49C1041.18 355.49 1044.84 352.62 1045.77 348.453L1046.74 344.102C1044.56 346.37 1041.55 347.527 1038.5 347.527C1032.43 347.527 1027.85 343.037 1027.85 337.019C1027.85 329.983 1033.87 323.919 1040.95 323.919C1045.16 323.919 1048.59 325.956 1049.84 329.427L1050.9 324.428ZM1038.96 344.333C1044.28 344.333 1048.54 340.075 1048.54 334.658C1048.54 330.214 1045.3 327.159 1040.63 327.159C1035.44 327.159 1031.32 331.418 1031.32 336.927C1031.32 341.417 1034.38 344.333 1038.96 344.333ZM1070.11 323.734C1075.34 323.734 1079.37 328.27 1078.31 333.501L1075.25 348.777H1072.01L1074.88 334.427C1075.76 330.029 1073.26 326.881 1069 326.881C1065.53 326.881 1062.85 329.196 1062.06 333.084L1058.91 348.777H1055.67L1062.66 314.846H1065.9L1063.49 326.28C1065.21 324.706 1067.66 323.734 1070.11 323.734ZM1090.07 349.055C1085.49 349.055 1083.45 346.046 1084.38 341.695L1087.38 327.529H1082.57L1083.26 324.289H1084.79C1086.69 324.289 1088.36 323.039 1088.82 320.863L1089.75 316.466H1092.99L1091.37 324.289H1097.24L1096.55 327.529H1090.63L1087.62 341.695C1087.01 344.565 1087.76 346.278 1091.18 346.278C1091.78 346.278 1092.52 346.231 1093.03 346.139L1092.43 348.824C1091.6 349.009 1090.76 349.055 1090.07 349.055ZM1105.9 348.777L1113.22 314.29H1116.92L1109.6 348.777H1105.9ZM1126.28 349.055C1121.7 349.055 1119.66 346.046 1120.59 341.695L1123.6 327.529H1118.78L1119.48 324.289H1121C1122.9 324.289 1124.57 323.039 1125.03 320.863L1125.96 316.466H1129.2L1127.58 324.289H1133.46L1132.76 327.529H1126.84L1123.83 341.695C1123.22 344.565 1123.97 346.278 1127.39 346.278C1127.99 346.278 1128.73 346.231 1129.24 346.139L1128.64 348.824C1127.81 349.009 1126.97 349.055 1126.28 349.055ZM1147.07 323.872C1152.9 323.872 1156.7 327.946 1155.54 333.409L1152.3 348.777H1149.06L1149.66 345.815C1147.81 348.129 1144.8 349.333 1141.79 349.333C1137.76 349.333 1133.88 347.018 1133.88 342.667C1133.88 339.473 1135.87 335.723 1143.27 334.797L1152.21 333.686L1152.35 333.084C1153.13 329.381 1150.31 327.113 1146.65 327.113C1143.92 327.113 1141.61 328.502 1140.17 330.492L1137.53 328.594C1139.43 325.863 1143.23 323.872 1147.07 323.872ZM1142.39 346.185C1146.74 346.185 1150.22 343.269 1151.14 338.871L1151.65 336.51L1143.5 337.436C1139.85 337.853 1137.39 339.75 1137.39 342.389C1137.39 344.704 1139.29 346.185 1142.39 346.185ZM1157.88 348.777L1165.05 314.846H1168.29L1161.12 348.777H1157.88ZM1173.29 319.891L1174.36 314.846H1177.6L1176.53 319.891H1173.29ZM1167.18 348.777L1172.37 324.289H1175.61L1170.42 348.777H1167.18ZM1188.31 349.333C1182.06 349.333 1177.66 344.843 1177.66 338.362C1177.66 330.076 1183.86 323.872 1191.13 323.872C1196.09 323.872 1200.07 326.789 1201.09 331.094L1197.8 332.39C1197.06 329.196 1194.33 327.113 1190.9 327.113C1185.21 327.113 1181.13 332.159 1181.13 338.038C1181.13 342.759 1184.28 346.092 1188.77 346.092C1191.5 346.092 1193.96 344.796 1195.76 342.297L1198.35 344.241C1196.27 347.203 1192.34 349.333 1188.31 349.333ZM1211.49 349.333C1206.4 349.333 1202.46 346.555 1201.63 341.741L1204.82 340.537C1205.38 344.009 1207.97 346.092 1211.67 346.092C1215.52 346.092 1216.81 343.5 1216.81 342.204C1216.81 340.908 1215.61 339.612 1213.53 338.778L1209.92 337.297C1206.54 335.908 1205.15 333.594 1205.15 331.001C1205.15 327.205 1208.3 323.872 1213.39 323.872C1218.48 323.872 1222 326.743 1222.6 331.001L1219.45 332.066C1218.9 328.779 1216.4 327.067 1213.2 327.067C1210.52 327.067 1208.62 328.594 1208.62 330.862C1208.62 332.205 1209.68 333.362 1211.63 334.195L1215.42 335.862C1218.71 337.297 1220.24 339.426 1220.24 341.88C1220.24 345.907 1216.86 349.333 1211.49 349.333Z" fill="white"/>
<path d="M993.332 415.727L1000.65 381.239H1013.14C1019.02 381.239 1022.82 385.035 1022.82 390.22C1022.82 396.145 1018.84 400.404 1013.28 401.885L1018.33 415.727H1013.65L1008.93 402.487H1000.51L997.73 415.727H993.332ZM1001.34 398.645H1009.49C1014.49 398.645 1018.24 395.266 1018.24 390.544C1018.24 387.396 1015.97 385.081 1012.31 385.081H1004.21L1001.34 398.645ZM1046.47 404.617H1027.08V405.635C1027.08 409.894 1030.36 412.671 1034.48 412.671C1037.58 412.671 1039.85 411.051 1041.38 409.061L1044.48 411.329C1042.49 414.245 1038.7 416.282 1034.39 416.282C1027.86 416.282 1023.1 411.792 1023.1 405.126C1023.1 397.441 1028.74 390.636 1036.33 390.636C1043.19 390.636 1046.98 395.312 1046.98 400.913C1046.98 402.533 1046.75 403.691 1046.47 404.617ZM1036.29 394.155C1031.98 394.155 1028.97 397.164 1027.72 401.145H1042.68C1043.05 397.025 1039.95 394.155 1036.29 394.155ZM1072.73 391.192H1076.71L1071.48 415.727C1070.23 421.652 1064.95 425.726 1058.94 425.726C1053.61 425.726 1049.12 422.763 1048.2 418.134L1052.08 416.652C1052.78 419.893 1055.6 421.883 1059.21 421.883C1063.29 421.883 1066.71 419.245 1067.59 415.31L1068.47 411.421C1066.39 413.412 1063.56 414.477 1060.65 414.477C1054.54 414.477 1049.86 409.986 1049.86 403.876C1049.86 396.84 1055.79 390.683 1063.1 390.683C1067.13 390.683 1070.42 392.534 1071.8 395.775L1072.73 391.192ZM1061.34 410.681C1066.39 410.681 1070.37 406.653 1070.37 401.608C1070.37 397.395 1067.31 394.525 1062.92 394.525C1057.96 394.525 1054.07 398.552 1054.07 403.691C1054.07 407.903 1057.04 410.681 1061.34 410.681ZM1098.69 391.192H1102.68L1097.58 415.727H1093.65L1094.11 413.643C1092.45 415.31 1090.04 416.282 1087.54 416.282C1081.94 416.282 1078.14 411.421 1079.34 405.82L1082.35 391.192H1086.33L1083.37 405.496C1082.54 409.523 1084.81 412.579 1088.88 412.579C1092.12 412.579 1094.71 410.403 1095.45 406.792L1098.69 391.192ZM1103.72 415.727L1110.94 381.702H1114.92L1107.7 415.727H1103.72ZM1127.36 390.636C1133.47 390.636 1137.4 394.803 1136.2 400.404L1133.01 415.727H1129.12L1129.67 413.088C1127.73 415.264 1124.95 416.282 1122.08 416.282C1117.82 416.282 1113.93 413.875 1113.93 409.477C1113.93 406.144 1116.06 402.487 1123.19 401.608L1132.22 400.543L1132.31 399.987C1133.01 396.562 1130.46 394.432 1126.99 394.432C1124.35 394.432 1122.13 395.775 1120.74 397.765L1117.59 395.543C1119.54 392.627 1123.33 390.636 1127.36 390.636ZM1122.87 412.764C1126.9 412.764 1130.23 410.033 1131.06 406.005L1131.53 403.783L1123.61 404.709C1120.32 405.079 1118.19 406.839 1118.19 409.199C1118.19 411.375 1119.95 412.764 1122.87 412.764ZM1154.13 390.914H1156.12L1155.34 394.664H1152.61C1149.09 394.664 1146.22 396.886 1145.34 400.913L1142.24 415.727H1138.25L1143.39 391.192H1147.28L1146.68 394.062C1148.58 391.794 1151.26 390.914 1154.13 390.914ZM1163.58 415.727L1170.89 381.239H1175.29L1167.98 415.727H1163.58ZM1184.74 416.004C1179.79 416.004 1177.66 412.764 1178.63 408.227L1181.5 394.895H1176.78L1177.56 391.099H1178.86C1180.9 391.099 1182.56 389.803 1183.03 387.581L1183.95 383.322H1187.93L1186.31 391.099H1192.19L1191.4 394.895H1185.48L1182.61 408.227C1182.01 411.051 1182.84 412.671 1186.17 412.671C1186.73 412.671 1187.42 412.625 1187.98 412.532L1187.29 415.773C1186.41 415.958 1185.48 416.004 1184.74 416.004ZM1205.57 390.636C1211.68 390.636 1215.61 394.803 1214.41 400.404L1211.21 415.727H1207.33L1207.88 413.088C1205.94 415.264 1203.16 416.282 1200.29 416.282C1196.03 416.282 1192.14 413.875 1192.14 409.477C1192.14 406.144 1194.27 402.487 1201.4 401.608L1210.43 400.543L1210.52 399.987C1211.21 396.562 1208.67 394.432 1205.2 394.432C1202.56 394.432 1200.34 395.775 1198.95 397.765L1195.8 395.543C1197.74 392.627 1201.54 390.636 1205.57 390.636ZM1201.08 412.764C1205.1 412.764 1208.44 410.033 1209.27 406.005L1209.73 403.783L1201.82 404.709C1198.53 405.079 1196.4 406.839 1196.4 409.199C1196.4 411.375 1198.16 412.764 1201.08 412.764ZM1216.42 415.727L1223.64 381.702H1227.62L1220.4 415.727H1216.42ZM1232.24 387.118L1233.39 381.702H1237.37L1236.22 387.118H1232.24ZM1226.17 415.727L1231.4 391.099H1235.38L1230.15 415.727H1226.17ZM1248.12 416.282C1242.15 416.282 1237.15 412.162 1237.15 405.218C1237.15 396.978 1243.31 390.636 1250.81 390.636C1255.99 390.636 1260.2 393.645 1261.13 398.228L1257.19 399.71C1256.59 396.562 1253.95 394.479 1250.57 394.479C1245.2 394.479 1241.36 399.2 1241.36 404.848C1241.36 409.338 1244.32 412.44 1248.58 412.44C1251.22 412.44 1253.68 411.097 1255.39 408.644L1258.49 410.912C1256.36 414.106 1252.33 416.282 1248.12 416.282ZM1271.67 416.282C1266.57 416.282 1262.27 413.597 1261.44 408.505L1265.14 407.209C1265.74 410.634 1268.29 412.625 1271.8 412.625C1275.28 412.625 1276.62 410.403 1276.62 409.061C1276.62 407.764 1275.37 406.607 1273.47 405.866L1269.77 404.339C1266.39 402.95 1264.91 400.543 1264.91 397.904C1264.91 394.155 1267.96 390.636 1273.43 390.636C1278.56 390.636 1282.36 393.368 1283.05 397.904L1279.4 399.108C1278.89 396.053 1276.43 394.294 1273.24 394.294C1270.74 394.294 1269.03 395.682 1269.03 397.765C1269.03 399.062 1270.14 400.126 1271.85 400.867L1275.79 402.533C1279.12 403.968 1280.69 406.144 1280.69 408.644C1280.69 412.532 1277.45 416.282 1271.67 416.282Z" fill="white"/>
<path d="M1028.37 448.189H1034.21L1026.89 482.676H1021.01L1026.06 458.836L1012.22 473.186H1011.57L1003.93 458.234L998.748 482.676H992.869L1000.18 448.189H1005.74L1013.75 463.511L1028.37 448.189ZM1058.79 467.816C1058.79 469.344 1058.52 470.871 1058.15 471.797H1039.54V472.26C1039.54 476.01 1042.36 478.324 1046.11 478.324C1048.66 478.324 1050.6 477.167 1051.94 475.454L1055.97 478.278C1053.98 481.241 1050.18 483.231 1045.79 483.231C1039.21 483.231 1033.98 478.834 1033.98 471.705C1033.98 464.252 1039.49 457.169 1047.59 457.169C1054.54 457.169 1058.79 461.937 1058.79 467.816ZM1053.01 467.446C1053.15 464.113 1050.65 461.798 1047.45 461.798C1043.89 461.798 1041.25 464.067 1040.14 467.446H1053.01ZM1086.02 448.189H1091.57L1084.35 482.676H1079.03L1079.45 480.593C1077.59 482.305 1074.91 483.231 1072.22 483.231C1066.99 483.231 1060.7 479.713 1060.7 471.936C1060.7 464.529 1066.44 457.169 1074.77 457.169C1078.75 457.169 1081.81 458.882 1083.24 461.382L1086.02 448.189ZM1073.1 478.185C1077.92 478.185 1081.39 473.973 1081.39 469.297C1081.39 465.131 1078.66 462.4 1074.82 462.4C1070 462.4 1066.53 466.566 1066.53 471.242C1066.53 475.362 1069.22 478.185 1073.1 478.185ZM1095.43 454.623L1096.77 448.374H1102.33L1100.99 454.623H1095.43ZM1089.51 482.676L1094.78 457.678H1100.34L1095.06 482.676H1089.51ZM1121.33 457.725H1126.89L1121.66 482.676H1116.38L1116.84 480.454C1115.27 482.259 1112.91 483.231 1110.32 483.231C1104.3 483.231 1100.78 478.047 1101.98 472.214L1105.04 457.725H1110.59L1107.59 472.168C1106.89 475.593 1108.79 478.278 1112.31 478.278C1115.08 478.278 1117.45 476.38 1118.09 473.279L1121.33 457.725ZM1158.7 457.169C1164.44 457.169 1167.91 461.474 1166.7 467.4L1163.46 482.676H1157.91L1160.96 468.186C1161.75 464.391 1159.95 462.122 1156.84 462.122C1154.07 462.122 1151.98 464.02 1151.29 467.4L1148.1 482.676H1142.49L1145.55 468.186C1146.34 464.437 1144.58 462.122 1141.38 462.122C1138.61 462.122 1136.57 463.881 1135.87 467.168L1132.63 482.676H1127.03L1132.31 457.725H1137.59L1137.12 460.085C1138.61 458.187 1140.83 457.169 1143.42 457.169C1146.85 457.169 1149.48 458.836 1150.69 461.335C1152.49 458.743 1155.41 457.169 1158.7 457.169ZM1176.91 482.676L1184.22 448.189H1190.1L1182.78 482.676H1176.91ZM1199.76 482.954C1194.11 482.954 1191.8 479.204 1192.82 474.297L1195.32 462.678H1190.78L1191.84 457.678H1192.63C1194.99 457.678 1196.66 456.428 1197.17 453.975L1198 449.994H1203.56L1201.98 457.678H1207.86L1206.8 462.678H1200.87L1198.37 474.297C1197.82 477.028 1198.83 478.417 1201.94 478.417C1202.4 478.417 1203.05 478.371 1203.65 478.278L1202.68 482.722C1201.8 482.861 1200.64 482.954 1199.76 482.954ZM1220.76 457.169C1227.38 457.169 1231.64 461.52 1230.39 467.4L1227.19 482.676H1221.92L1222.33 480.732C1220.39 482.491 1218.12 483.231 1215.48 483.231C1210.62 483.231 1206.83 480.639 1206.83 476.149C1206.83 472.538 1209.19 469.02 1215.81 468.279L1224.88 467.307L1224.97 466.844C1225.53 464.02 1223.49 462.169 1220.48 462.169C1218.07 462.169 1215.95 463.418 1214.74 465.409L1210.48 462.539C1212.52 459.206 1216.32 457.169 1220.76 457.169ZM1216.64 478.972C1220.02 478.972 1222.94 476.612 1223.63 473.371L1224.05 471.427L1216.59 472.306C1214.14 472.584 1212.66 474.066 1212.66 475.871C1212.66 477.769 1214.14 478.972 1216.64 478.972ZM1231.64 482.676L1238.91 448.374H1244.46L1237.2 482.676H1231.64ZM1248.28 454.623L1249.62 448.374H1255.17L1253.83 454.623H1248.28ZM1242.35 482.676L1247.63 457.678H1253.18L1247.91 482.676H1242.35ZM1265.98 483.231C1260.57 483.231 1254.32 479.852 1254.32 471.89C1254.32 463.835 1260.29 457.169 1268.39 457.169C1273.95 457.169 1278.67 460.317 1279.46 465.548L1274.22 467.446C1273.76 464.344 1271.35 462.354 1268.16 462.354C1263.39 462.354 1260.11 466.289 1260.11 471.566C1260.11 475.454 1262.65 478.093 1266.4 478.093C1268.9 478.093 1271.35 476.704 1272.79 474.343L1277 477.26C1274.83 480.917 1270.52 483.231 1265.98 483.231ZM1290.35 483.231C1285.26 483.231 1280.17 480.732 1279.38 475.13L1284.05 473.51C1284.8 476.843 1287.2 478.695 1290.44 478.695C1293.13 478.695 1294.47 477.213 1294.47 475.871C1294.47 474.528 1293.08 473.649 1291.69 473.093L1287.8 471.519C1284.33 470.131 1282.62 467.538 1282.62 464.761C1282.62 461.15 1285.49 457.169 1291.88 457.169C1296.97 457.169 1301.51 459.669 1302.34 464.715L1297.62 466.289C1297.16 463.696 1294.79 461.845 1291.55 461.845C1289.52 461.845 1288.22 462.956 1288.22 464.576C1288.22 465.826 1289.42 466.659 1290.67 467.214L1294.79 468.881C1298.22 470.316 1299.98 472.538 1299.98 475.177C1299.98 478.834 1296.97 483.231 1290.35 483.231Z" fill="white"/>
<path d="M1019.81 531.849C1021.52 533.423 1022.22 535.136 1022.22 537.589C1022.22 544.811 1016.2 549.625 1007.13 549.625H992.499L999.813 515.138H1013.61C1019.81 515.138 1023.61 518.517 1023.61 524.026C1023.61 527.312 1022.26 529.997 1019.81 531.849ZM1012.13 528.099C1014.67 528.099 1016.57 526.433 1016.57 524.211C1016.57 522.452 1015.41 521.156 1013.61 521.156H1005.74L1004.26 528.099H1012.13ZM1009.26 543.376C1012.54 543.376 1015 541.2 1015 538.284C1015 535.923 1013.42 534.349 1011.15 534.349H1002.91L1001.02 543.376H1009.26ZM1037.2 550.18C1030.21 550.18 1024.98 545.412 1024.98 538.284C1024.98 530.46 1031.32 523.794 1039.79 523.794C1046.97 523.794 1052.15 528.609 1052.15 535.599C1052.15 543.422 1045.58 550.18 1037.2 550.18ZM1037.85 543.931C1041.87 543.931 1044.98 540.552 1044.98 536.062C1044.98 532.543 1042.75 530.044 1039.28 530.044C1035.25 530.044 1032.15 533.469 1032.15 537.821C1032.15 541.478 1034.38 543.931 1037.85 543.931ZM1052.7 549.625L1060.02 515.138H1066.96L1059.65 549.625H1052.7ZM1090.29 515.138H1097.24L1090.01 549.625H1083.53L1083.86 547.959C1082.1 549.394 1079.74 550.18 1077.33 550.18C1072.47 550.18 1065.53 546.894 1065.53 538.793C1065.53 531.432 1071.31 523.794 1079.88 523.794C1083.49 523.794 1086.26 525.137 1087.75 527.266L1090.29 515.138ZM1078.58 544.024C1082.75 544.024 1085.76 540.506 1085.76 536.247C1085.76 532.543 1083.44 530.136 1080.06 530.136C1075.85 530.136 1072.79 533.747 1072.79 537.913C1072.79 541.57 1075.15 544.024 1078.58 544.024ZM1103.44 549.625L1110.75 515.138H1117.93L1110.61 549.625H1103.44ZM1127.76 549.903C1121.51 549.903 1119.01 545.737 1120.12 540.506L1122.29 530.368H1117.94L1119.24 524.35H1119.56C1122.16 524.35 1123.82 523.054 1124.38 520.461L1125.16 516.758H1132.11L1130.53 524.35H1136.46L1135.16 530.368H1129.24L1127.06 540.506C1126.51 543.098 1127.66 544.348 1130.58 544.348C1130.95 544.348 1131.55 544.301 1132.2 544.209L1131.04 549.671C1130.12 549.81 1128.78 549.903 1127.76 549.903ZM1148.97 523.794C1156.06 523.794 1160.59 528.285 1159.3 534.441L1156.1 549.625H1149.62L1149.95 548.097C1148.1 549.579 1146.1 550.18 1143.65 550.18C1138.33 550.18 1134.58 547.449 1134.58 542.866C1134.58 539.024 1137.17 535.645 1143.33 534.997L1152.4 534.071L1152.49 533.701C1152.96 531.432 1151.38 529.812 1148.74 529.812C1146.52 529.812 1144.53 531.016 1143.47 532.96L1138.19 529.488C1140.36 525.831 1144.16 523.794 1148.97 523.794ZM1145.13 545.227C1147.96 545.227 1150.55 543.237 1151.06 540.691L1151.43 538.978L1144.44 539.811C1142.68 540.043 1141.75 541.246 1141.75 542.589C1141.75 544.209 1143.05 545.227 1145.13 545.227ZM1159.8 549.625L1167.11 515.138H1174.06L1166.74 549.625H1159.8ZM1177.2 522.081L1178.68 515.138H1185.63L1184.15 522.081H1177.2ZM1171.37 549.625L1176.74 524.35H1183.68L1178.31 549.625H1171.37ZM1196.55 550.18C1191.65 550.18 1184.24 547.496 1184.24 538.654C1184.24 530.738 1190.12 523.794 1198.73 523.794C1204.65 523.794 1209.79 527.081 1210.44 532.867L1204.01 535.089C1203.77 532.08 1201.55 530.09 1198.45 530.09C1194.24 530.09 1191.42 533.377 1191.42 538.284C1191.42 541.663 1193.64 543.931 1196.92 543.931C1199.33 543.931 1201.74 542.45 1202.94 540.182L1208.17 543.653C1205.9 547.727 1201.41 550.18 1196.55 550.18ZM1221.6 550.18C1216.56 550.18 1210.77 547.82 1209.98 541.755L1215.54 539.904C1216.37 543.144 1218.69 544.857 1221.65 544.857C1223.64 544.857 1224.98 544.024 1224.98 542.681C1224.98 541.339 1223.55 540.691 1222.58 540.32L1218.46 538.7C1214.94 537.311 1213.09 534.534 1213.09 531.618C1213.09 528.146 1215.77 523.794 1222.9 523.794C1228.04 523.794 1233.13 526.063 1234.1 531.571L1228.45 533.423C1228.08 531.247 1225.82 529.349 1222.53 529.349C1220.86 529.349 1219.94 530.183 1219.94 531.386C1219.94 532.636 1221.19 533.284 1222.02 533.608L1226.37 535.321C1229.89 536.71 1231.79 539.024 1231.79 541.802C1231.79 545.181 1228.96 550.18 1221.6 550.18Z" fill="white"/>
</g>
<defs>
<linearGradient id="paint0_linear_4195_18493" x1="975.374" y1="782.062" x2="-295.675" y2="651.482" gradientUnits="userSpaceOnUse">
<stop stop-color="#0B3142"/>
<stop offset="1" stop-color="#0B3142" stop-opacity="0.57"/>
</linearGradient>
<clipPath id="clip0_4195_18493">
<rect width="1079.06" height="714.721" fill="white" transform="translate(0.9375 0.400391)"/>
</clipPath>
</defs>
</svg>
