<svg width="1080" height="716" viewBox="0 0 1080 716" fill="none" xmlns="http://www.w3.org/2000/svg">
<rect width="1079.06" height="714.721" transform="translate(0.9375 0.441406)" fill="#101010"/>
<g clip-path="url(#clip0_4190_27133)">
<path d="M268.627 293.393C268.627 293.393 267.435 289.952 264.309 286.738C267.584 287.322 270.562 290.176 270.562 290.176C270.562 290.176 271.106 289.058 271.106 287.125C271.106 278.411 260.661 272.449 252.577 273.916C250.463 284.254 257.311 293.021 268.627 293.393Z" fill="#D9D9D9"/>
<path d="M253.036 325.098C253.036 325.098 251.088 322.477 247.576 320.574C250.487 320.187 253.774 321.822 253.774 321.822C253.774 321.822 253.922 320.719 253.389 319.066C250.986 311.612 240.573 309.339 234.192 312.782C235.267 322.197 243.435 327.842 253.036 325.098Z" fill="#D9D9D9"/>
<path d="M290.73 272.782C290.73 272.782 290.718 269.279 288.842 265.946C291.42 267.151 293.038 270.568 293.038 270.568C293.038 270.568 293.733 269.77 294.159 268.182C296.077 261.022 290.33 254.186 283.327 253.601C279.304 261.626 279.781 270.017 290.73 272.782Z" fill="#D9D9D9"/>
<path d="M279.516 286.477C279.516 297.218 283.9 306.263 290.265 308.948C294.507 310.752 296.719 310.99 296.719 310.99C296.719 306.657 295.274 304.03 293.699 301.666C297.052 303.027 298.427 306.077 300.591 308.807L300.732 302.589C300.732 294.533 296.772 288.315 288.144 282.803C284.466 280.4 280.93 278.422 280.506 278.422C279.94 278.422 279.516 282.096 279.516 286.477Z" fill="#D9D9D9"/>
<path d="M254.203 303.702C254.203 303.702 261.417 317.411 267.358 321.368C273.015 325.184 283.506 325.515 286.476 322.548C286.476 322.548 286.315 320.718 283.062 318.739C280.529 317.221 278.728 315.719 278.728 315.719C283.324 315.719 287.658 318.739 287.658 318.739C286.476 314.143 281.502 306.67 276.976 304.55C271.601 302.006 254.203 303.702 254.203 303.702Z" fill="#D9D9D9"/>
<path d="M250.263 337.645C250.263 337.645 255.87 346.591 262.568 349.057C268.959 351.452 278.018 348.942 280.216 345.364C280.216 345.364 280.376 343.28 276.751 342.112C273.935 341.225 271.761 340.537 271.761 340.537C276.231 339.467 280.479 341.385 280.479 341.385C279.64 335.809 273.242 331.958 268.346 330.95C262.527 329.727 250.263 337.645 250.263 337.645Z" fill="#D9D9D9"/>
<path d="M370.452 296.279C370.452 296.279 371.643 292.839 374.769 289.624C371.494 290.209 368.516 293.063 368.516 293.063C368.516 293.063 367.972 291.945 367.972 290.012C367.972 281.298 378.417 275.336 386.501 276.803C388.615 287.14 381.767 295.908 370.452 296.279Z" fill="#D9D9D9"/>
<path d="M386.034 327.984C386.034 327.984 387.983 325.364 391.494 323.461C388.583 323.074 385.296 324.709 385.296 324.709C385.296 324.709 385.148 323.606 385.681 321.953C388.084 314.498 398.497 312.226 404.879 315.669C403.803 325.083 395.636 330.729 386.034 327.984Z" fill="#D9D9D9"/>
<path d="M348.348 275.669C348.348 275.669 348.36 272.166 350.236 268.832C347.658 270.038 346.04 273.454 346.04 273.454C346.04 273.454 345.345 272.656 344.919 271.069C343.001 263.909 348.748 257.073 355.751 256.488C359.774 264.513 359.297 272.903 348.348 275.669Z" fill="#D9D9D9"/>
<path d="M359.562 289.366C359.562 300.107 355.178 309.152 348.813 311.837C344.571 313.64 342.359 313.879 342.359 313.879C342.359 309.545 343.804 306.919 345.38 304.555C342.026 305.916 340.651 308.965 338.487 311.696L338.346 305.477C338.346 297.422 342.306 291.203 350.934 285.692C354.612 283.289 358.148 281.311 358.572 281.311C359.138 281.311 359.562 284.985 359.562 289.366Z" fill="#D9D9D9"/>
<path d="M384.875 306.589C384.875 306.589 377.661 320.298 371.721 324.255C366.063 328.07 355.572 328.402 352.602 325.434C352.602 325.434 352.763 323.604 356.016 321.626C358.549 320.108 360.35 318.605 360.35 318.605C355.754 318.605 351.42 321.626 351.42 321.626C352.602 317.029 357.576 309.557 362.102 307.437C367.477 304.893 384.875 306.589 384.875 306.589Z" fill="#D9D9D9"/>
<path d="M388.815 340.533C388.815 340.533 383.208 349.48 376.51 351.946C370.119 354.34 361.061 351.83 358.862 348.253C358.862 348.253 358.703 346.168 362.327 345.001C365.143 344.114 367.317 343.425 367.317 343.425C362.847 342.356 358.599 344.274 358.599 344.274C359.438 338.698 365.836 334.847 370.732 333.839C376.551 332.615 388.815 340.533 388.815 340.533Z" fill="#D9D9D9"/>
<path d="M318.827 359.208C308.134 358.465 299.669 350.891 290.461 349.406C300.411 355.049 310.764 361.961 314.669 366.485C305.609 380.594 302.038 400.553 307.162 417.917L309.097 424.614L308.728 404.505C310.068 388.579 317.729 373.266 320.706 373.266C321.45 373.266 323.087 375.648 324.278 378.476C329.785 391.722 327.144 403.019 322.392 415.198C318.582 423.028 315.708 435.544 312.966 446.939C317.246 437.525 326.253 419.802 326.253 419.802C330.3 413.514 336.206 395.608 335.164 388.762C333.681 380.234 331.302 373.266 324.873 364.865C332.554 353.343 340.959 342.84 350.015 332.326C340.033 338.901 331.989 348.531 326.699 353.713C324.353 356.01 321.787 358.443 318.827 359.208Z" fill="#24E669"/>
<circle cx="316.146" cy="343.466" r="10.099" fill="#24E669"/>
<path fill-rule="evenodd" clip-rule="evenodd" d="M413.39 317.289C419.239 330.964 422.495 346.127 422.495 362.109C422.495 423.106 375.072 472.159 317.05 472.159C259.028 472.159 211.604 423.106 211.604 362.109C211.604 343.495 216.021 325.993 223.807 310.658L219.787 306.17C210.976 322.749 205.961 341.819 205.961 362.109C205.961 426.005 255.697 477.802 317.05 477.802C378.403 477.802 428.139 426.005 428.139 362.109C428.139 344.381 424.31 327.584 417.467 312.567L413.39 317.289Z" fill="#D9D9D9"/>
<path fill-rule="evenodd" clip-rule="evenodd" d="M227.778 324.487L226.823 323.604C223.504 333.295 221.703 343.691 221.703 354.507C221.703 360.441 222.245 366.249 223.283 371.884L224.34 371.051C223.388 365.68 222.891 360.151 222.891 354.507C222.891 344.011 224.609 333.916 227.778 324.487ZM408.055 330.255C410.112 337.992 411.208 346.122 411.208 354.507C411.208 360.013 410.735 365.408 409.829 370.655L410.893 371.463C411.88 365.96 412.396 360.294 412.396 354.507C412.396 345.805 411.23 337.375 409.046 329.365L408.055 330.255Z" fill="#24E669"/>
<path d="M223.412 377.67C222.957 378.378 223.915 384.872 225.498 392.143C230.63 415.702 243.562 434.515 262.144 445.701C272.852 452.203 291.154 457.204 301.537 456.618L308.012 456.274C305.26 451.84 303.1 448.001 297.379 447.318C289.601 446.575 281.517 441.633 276.254 434.25C273.685 430.849 269.288 424.647 266.302 420.728C259.753 411.644 251.106 402.712 249.215 403.124C247.179 403.567 248.642 408.885 251.951 412.886C260.624 423.335 256.371 428.984 247.097 419.275C239.221 411.089 236.178 405.507 231.316 390.876C227.378 379.091 225.15 375.159 223.412 377.67Z" fill="#24E669"/>
<path d="M410.431 377.67C410.886 378.378 409.929 384.872 408.345 392.143C403.214 415.702 390.282 434.515 371.7 445.701C360.992 452.203 342.69 457.204 332.307 456.618L325.832 456.274C328.584 451.84 330.744 448.001 336.465 447.318C344.243 446.575 352.326 441.633 357.59 434.25C360.159 430.849 364.556 424.647 367.542 420.728C374.09 411.644 382.738 402.712 384.628 403.124C386.664 403.567 385.202 408.885 381.893 412.886C373.219 423.335 377.473 428.984 386.747 419.275C394.623 411.089 397.666 405.507 402.528 390.876C406.466 379.091 408.693 375.159 410.431 377.67Z" fill="#24E669"/>
<path d="M329.228 238.201C326.378 239.54 320.785 242.931 318.205 244.845C309.422 251.343 304.378 258.988 303.076 267.656C301.853 275.926 304.121 286.5 309.07 295.211L309.857 296.612L309.408 295.101C308.814 293.015 308.94 288.665 309.668 285.528C310.42 282.467 312.186 277.916 315.4 270.782C319.288 262.269 320.07 258.659 318.878 254.985L318.196 252.886L319.291 253.567C321.403 254.953 322.739 256.632 324.261 259.784C325.807 263.011 325.807 263.011 327.01 262.745L328.187 262.529L326.992 263.331C326.238 263.824 325.883 264.395 326.004 264.77C326.114 265.108 327.605 266.115 329.322 267.049C331.076 267.971 332.468 268.928 332.453 269.265C332.425 269.564 331.955 270.421 331.398 271.14C330.311 272.529 330.305 273.152 331.384 274.169C331.929 274.697 331.977 274.971 331.661 275.405C331.344 275.84 331.392 276.114 331.851 276.504C332.31 276.893 332.344 277.255 332 277.988C331.643 278.809 331.688 279.333 332.399 280.883C332.939 282.034 333.168 282.995 333.04 283.368C332.632 284.288 328.947 285.36 325.846 285.414C324.358 285.441 322.406 285.702 321.503 285.995C319.321 286.704 317.203 288.759 316.761 290.601C316.022 293.575 317.266 298.558 319.104 299.867C319.763 300.357 319.913 300.309 322.139 298.84C325.37 296.755 330.144 292.761 332.266 290.332C334.88 287.37 337.337 282.388 337.919 278.801C338.871 272.899 338.198 268.394 334.779 257.861C332.236 250.027 330.777 243.996 330.548 240.217C330.459 238.92 330.356 237.835 330.269 237.822C330.182 237.809 329.742 237.993 329.228 238.201Z" fill="#D9D9D9"/>
<path d="M494.352 275.277H510.638V279.812H488.992V250.686H510.061V255.221H494.352V262.794H508.288V267.246H494.352V275.277Z" fill="#D9D9D9"/>
<path d="M533.518 279.812V250.686H538.878V275.235H553.969V279.812H533.518Z" fill="#D9D9D9"/>
<path d="M575.105 279.812V250.686H580.465V279.812H575.105Z" fill="#D9D9D9"/>
<path d="M610.083 275.235H627.606V279.812H602.991V276.192L619.978 255.263H603.28V250.686H627.07V254.306L610.083 275.235Z" fill="#D9D9D9"/>
<path d="M671.025 279.812L668.139 273.072H653.708L650.863 279.812H645.339L658.326 250.686H663.604L676.633 279.812H671.025ZM655.523 268.827H666.366L660.924 256.095L655.523 268.827Z" fill="#D9D9D9"/>
<path d="M717.658 264.666C720.751 265.665 722.853 268.12 722.853 271.907C722.853 276.9 718.978 279.812 711.556 279.812H697.208V250.686H710.732C717.658 250.686 721.369 253.64 721.369 258.259C721.369 261.254 719.885 263.46 717.658 264.666ZM710.154 254.93H702.568V262.96H710.154C713.865 262.96 715.968 261.629 715.968 258.966C715.968 256.261 713.865 254.93 710.154 254.93ZM711.226 275.568C715.267 275.568 717.452 274.278 717.452 271.366C717.452 268.453 715.267 267.163 711.226 267.163H702.568V275.568H711.226Z" fill="#D9D9D9"/>
<path d="M750.839 275.277H767.125V279.812H745.479V250.686H766.548V255.221H750.839V262.794H764.775V267.246H750.839V275.277Z" fill="#D9D9D9"/>
<path d="M795.859 279.812V255.263H786.294V250.686H810.785V255.263H801.219V279.812H795.859Z" fill="#D9D9D9"/>
<path d="M851.998 250.686H857.358V279.812H851.998V267.33H837.072V279.812H831.712V250.686H837.072V262.711H851.998V250.686Z" fill="#D9D9D9"/>
<path d="M501.453 345.665C496.357 345.665 491.725 343.58 488.945 339.816L493.23 334.662C495.431 337.674 498.094 339.295 501.279 339.295C505.448 339.295 507.591 336.805 507.591 331.825V310.863H493.172V304.552H515.119V331.42C515.119 340.974 510.37 345.665 501.453 345.665Z" fill="#D9D9D9"/>
<path d="M560.962 345.085L556.909 335.705H536.642L532.646 345.085H524.887L543.127 304.552H550.539L568.837 345.085H560.962ZM539.19 329.798H554.419L546.775 312.079L539.19 329.798Z" fill="#D9D9D9"/>
<path d="M597.978 345.665C585.587 345.665 576.322 336.921 576.322 324.819C576.322 312.716 585.587 303.973 598.036 303.973C604.637 303.973 610.312 306.347 614.076 310.748L609.212 315.322C606.259 312.137 602.611 310.574 598.384 310.574C589.987 310.574 583.907 316.48 583.907 324.819C583.907 333.157 589.987 339.063 598.384 339.063C602.611 339.063 606.259 337.5 609.212 334.257L614.076 338.89C610.312 343.29 604.637 345.665 597.978 345.665Z" fill="#D9D9D9"/>
<path d="M655.337 345.085L641.035 328.119L634.607 334.72V345.085H627.079V304.552H634.607V325.34L654.642 304.552H663.097L646.072 322.676L664.139 345.085H655.337Z" fill="#D9D9D9"/>
<path d="M670.761 331.999V325.977H686.685V331.999H670.761Z" fill="#D9D9D9"/>
<path d="M735.717 345.085H727.61L719.33 333.215C718.809 333.273 718.288 333.273 717.766 333.273H708.617V345.085H701.09V304.552H717.766C728.421 304.552 735.022 309.995 735.022 318.97C735.022 325.108 731.895 329.625 726.394 331.767L735.717 345.085ZM727.437 318.97C727.437 313.874 724.02 310.921 717.419 310.921H708.617V327.077H717.419C724.02 327.077 727.437 324.066 727.437 318.97Z" fill="#D9D9D9"/>
<path d="M749.235 345.085V304.552H756.763V345.085H749.235Z" fill="#D9D9D9"/>
<path d="M792.278 345.665C779.886 345.665 770.621 336.921 770.621 324.819C770.621 312.716 779.886 303.973 792.336 303.973C798.937 303.973 804.612 306.347 808.376 310.748L803.512 315.322C800.558 312.137 796.91 310.574 792.683 310.574C784.287 310.574 778.207 316.48 778.207 324.819C778.207 333.157 784.287 339.063 792.683 339.063C796.91 339.063 800.558 337.5 803.512 334.257L808.376 338.89C804.612 343.29 798.937 345.665 792.278 345.665Z" fill="#D9D9D9"/>
<path d="M849.868 304.552H857.396V345.085H849.868V327.714H828.907V345.085H821.379V304.552H828.907V321.286H849.868V304.552Z" fill="#D9D9D9"/>
<rect width="113.576" height="0.805357" transform="translate(488.141 385.531)" fill="#D9D9D9"/>
<path d="M660.703 402.04L656.646 394.585H636.678L632.042 402.04H625.875L644.024 369.826H649.706L667.17 402.04H660.703ZM638.703 389.891H654.563L646.972 375.809H646.923L638.703 389.891Z" fill="#D9D9D9"/>
<path d="M669.503 402.04V369.826H675.486V402.04H669.503Z" fill="#D9D9D9"/>
<path d="M679.931 402.04V369.826H702.884C713.33 369.826 720.463 376.269 720.463 385.933C720.463 395.598 713.33 402.04 702.884 402.04H679.931ZM685.914 396.978H702.608C709.787 396.978 714.435 392.606 714.435 385.933C714.435 379.26 709.787 374.888 702.608 374.888H685.914V396.978Z" fill="#D9D9D9"/>
<rect width="113.576" height="0.805357" transform="translate(744.625 385.531)" fill="#D9D9D9"/>
<path d="M488.141 464.251V430.894H502.151V433.229L494.24 432.133C492.811 431.942 491.858 431.847 491.381 431.847V446.762C491.889 446.762 492.874 446.715 494.336 446.619L501.627 446.143V448.335L494.336 447.858C492.874 447.763 491.889 447.715 491.381 447.715V464.251H488.141Z" fill="#24E669"/>
<path d="M513.373 447.572C513.373 445.126 513.802 442.855 514.659 440.758C515.549 438.629 516.772 436.787 518.329 435.23C519.917 433.642 521.76 432.419 523.857 431.561C525.985 430.671 528.272 430.227 530.719 430.227C533.165 430.227 535.436 430.671 537.533 431.561C539.662 432.419 541.504 433.642 543.061 435.23C544.649 436.787 545.872 438.629 546.73 440.758C547.62 442.855 548.064 445.126 548.064 447.572C548.064 450.019 547.62 452.306 546.73 454.435C545.872 456.531 544.649 458.374 543.061 459.962C541.504 461.519 539.662 462.742 537.533 463.632C535.436 464.489 533.165 464.918 530.719 464.918C528.272 464.918 525.985 464.489 523.857 463.632C521.76 462.742 519.917 461.519 518.329 459.962C516.772 458.374 515.549 456.531 514.659 454.435C513.802 452.306 513.373 450.019 513.373 447.572ZM516.994 447.572C516.994 450.813 517.566 453.656 518.71 456.102C519.854 458.517 521.458 460.407 523.523 461.773C525.588 463.107 527.986 463.775 530.719 463.775C533.451 463.775 535.849 463.107 537.914 461.773C539.979 460.407 541.584 458.501 542.727 456.055C543.871 453.609 544.443 450.781 544.443 447.572C544.443 444.364 543.871 441.552 542.727 439.138C541.584 436.692 539.979 434.785 537.914 433.419C535.849 432.053 533.451 431.37 530.719 431.37C527.986 431.37 525.588 432.053 523.523 433.419C521.49 434.754 519.885 436.644 518.71 439.09C517.566 441.505 516.994 444.332 516.994 447.572Z" fill="#24E669"/>
<path d="M562.346 430.894H565.586V451.003C565.586 454.848 566.524 457.85 568.398 460.01C570.304 462.138 572.973 463.203 576.404 463.203C578.564 463.203 580.438 462.79 582.027 461.964C583.647 461.106 584.886 459.931 585.744 458.437C586.633 456.944 587.046 455.229 586.983 453.291L586.173 430.894H589.413L588.603 453.291C588.476 457.103 587.332 459.994 585.172 461.964C583.043 463.933 579.994 464.918 576.022 464.918C571.734 464.918 568.382 463.679 565.968 461.201C563.553 458.692 562.346 455.261 562.346 450.908V430.894Z" fill="#24E669"/>
<path d="M604.893 464.251L606.085 430.227H606.657L630.626 459.2H630.912L629.864 430.894H633.104L631.913 464.918H631.341L607.371 435.945H607.085L608.134 464.251H604.893Z" fill="#24E669"/>
<path d="M649.557 464.251V430.894H660.041C663.726 430.894 666.935 431.593 669.667 432.99C672.399 434.388 674.528 436.342 676.053 438.852C677.578 441.33 678.34 444.237 678.34 447.572C678.34 450.908 677.578 453.831 676.053 456.341C674.528 458.819 672.399 460.757 669.667 462.154C666.935 463.552 663.726 464.251 660.041 464.251H649.557ZM660.041 432.037H652.798V463.107H660.041C664.648 463.107 668.237 461.741 670.811 459.009C673.416 456.277 674.718 452.465 674.718 447.572C674.718 442.68 673.416 438.868 670.811 436.136C668.237 433.403 664.648 432.037 660.041 432.037Z" fill="#24E669"/>
<path d="M687.713 464.251L700.532 430.894H703.486L716.305 464.251H712.826L706.917 448.621H696.1L691.192 464.251H687.713ZM700.865 433.372L696.433 447.477H706.488L701.151 433.372H700.865Z" fill="#24E669"/>
<path d="M733.586 464.251V431.847C733.109 431.847 732.124 431.942 730.631 432.133L721.291 433.324V430.894H749.121V433.324L739.781 432.133C738.287 431.942 737.303 431.847 736.826 431.847V464.251H733.586Z" fill="#24E669"/>
<path d="M761.627 464.251V430.894H764.867V464.251H761.627Z" fill="#24E669"/>
<path d="M779.646 447.572C779.646 445.126 780.074 442.855 780.932 440.758C781.822 438.629 783.045 436.787 784.602 435.23C786.19 433.642 788.033 432.419 790.129 431.561C792.258 430.671 794.545 430.227 796.991 430.227C799.438 430.227 801.709 430.671 803.806 431.561C805.934 432.419 807.777 433.642 809.334 435.23C810.922 436.787 812.145 438.629 813.003 440.758C813.893 442.855 814.337 445.126 814.337 447.572C814.337 450.019 813.893 452.306 813.003 454.435C812.145 456.531 810.922 458.374 809.334 459.962C807.777 461.519 805.934 462.742 803.806 463.632C801.709 464.489 799.438 464.918 796.991 464.918C794.545 464.918 792.258 464.489 790.129 463.632C788.033 462.742 786.19 461.519 784.602 459.962C783.045 458.374 781.822 456.531 780.932 454.435C780.074 452.306 779.646 450.019 779.646 447.572ZM783.267 447.572C783.267 450.813 783.839 453.656 784.983 456.102C786.126 458.517 787.731 460.407 789.796 461.773C791.861 463.107 794.259 463.775 796.991 463.775C799.724 463.775 802.122 463.107 804.187 461.773C806.252 460.407 807.856 458.501 809 456.055C810.144 453.609 810.716 450.781 810.716 447.572C810.716 444.364 810.144 441.552 809 439.138C807.856 436.692 806.252 434.785 804.187 433.419C802.122 432.053 799.724 431.37 796.991 431.37C794.259 431.37 791.861 432.053 789.796 433.419C787.763 434.754 786.158 436.644 784.983 439.09C783.839 441.505 783.267 444.332 783.267 447.572Z" fill="#24E669"/>
<path d="M828.381 464.251L829.572 430.227H830.144L854.113 459.2H854.399L853.351 430.894H856.591L855.4 464.918H854.828L830.859 435.945H830.573L831.621 464.251H828.381Z" fill="#24E669"/>
<path d="M870.62 250.686C869.757 250.686 868.914 250.941 868.197 251.421C867.479 251.9 866.92 252.581 866.59 253.378C866.26 254.176 866.173 255.053 866.342 255.899C866.51 256.745 866.925 257.522 867.536 258.133C868.146 258.743 868.923 259.158 869.769 259.326C870.615 259.495 871.492 259.408 872.29 259.078C873.087 258.748 873.768 258.189 874.247 257.471C874.727 256.754 874.983 255.911 874.983 255.048C874.983 253.891 874.523 252.781 873.705 251.963C872.887 251.145 871.777 250.686 870.62 250.686ZM870.62 258.538C869.93 258.538 869.255 258.333 868.681 257.95C868.107 257.566 867.66 257.021 867.396 256.383C867.132 255.746 867.063 255.044 867.197 254.367C867.332 253.69 867.664 253.068 868.152 252.58C868.641 252.092 869.262 251.76 869.939 251.625C870.616 251.49 871.318 251.56 871.956 251.824C872.593 252.088 873.138 252.535 873.522 253.109C873.905 253.683 874.11 254.358 874.11 255.048C874.11 255.973 873.742 256.861 873.088 257.516C872.433 258.17 871.546 258.538 870.62 258.538Z" fill="#D9D9D9"/>
<path d="M872.365 254.176C872.365 253.829 872.227 253.496 871.982 253.25C871.736 253.005 871.403 252.867 871.056 252.867H868.875V257.23H869.747V255.485H870.384L871.549 257.23H872.596L871.396 255.432C871.673 255.358 871.918 255.194 872.093 254.968C872.268 254.741 872.363 254.462 872.365 254.176ZM871.056 254.612H869.747V253.74H871.056C871.172 253.74 871.283 253.786 871.365 253.867C871.446 253.949 871.492 254.06 871.492 254.176C871.492 254.292 871.446 254.403 871.365 254.484C871.283 254.566 871.172 254.612 871.056 254.612Z" fill="#D9D9D9"/>
</g>
<defs>
<clipPath id="clip0_4190_27133">
<rect width="669.018" height="240" fill="white" transform="translate(205.961 237.803)"/>
</clipPath>
</defs>
</svg>
