<svg width="1512" height="60" viewBox="0 0 1512 60" fill="none" xmlns="http://www.w3.org/2000/svg">
<g clip-path="url(#clip0_4319_17479)">
<path d="M2.05078 -47.8475L2.05078 65.6064L221.356 65.6064V-47.8475L2.05078 -47.8475Z" fill="black"/>
<path fill-rule="evenodd" clip-rule="evenodd" d="M2.05078 -47.8475H13.3982L159.602 65.6064H136.245L2.05078 -38.5283L2.05078 -47.8475ZM34.8906 -47.8475H58.2469L204.451 65.6064L181.094 65.6064L34.8906 -47.8475ZM79.739 -47.8475H103.096L221.356 43.9227V62.0472L79.739 -47.8475ZM124.588 -47.8475H147.944L221.356 9.12014V27.2446L124.588 -47.8475ZM169.437 -47.8475L192.793 -47.8475L221.356 -25.6826V-7.55777L169.437 -47.8475ZM214.286 -47.8475H221.356V-42.3604L214.286 -47.8475ZM114.753 65.6064H91.3965L2.05078 -3.72574L2.05078 -21.8506L114.753 65.6064ZM69.9042 65.6064H46.548L2.05078 31.0767L2.05078 12.9522L69.9042 65.6064ZM25.0555 65.6064H2.05078L2.05078 47.7548L25.0555 65.6064Z" fill="white"/>
</g>
<g clip-path="url(#clip1_4319_17479)">
<path d="M181.152 -47.8475V65.6064L400.458 65.6064V-47.8475L181.152 -47.8475Z" fill="black"/>
<path fill-rule="evenodd" clip-rule="evenodd" d="M181.152 -47.8475H192.5L338.703 65.6064H315.347L181.152 -38.5283V-47.8475ZM213.992 -47.8475H237.348L383.552 65.6064L360.195 65.6064L213.992 -47.8475ZM258.841 -47.8475H282.197L400.458 43.9227V62.0472L258.841 -47.8475ZM303.689 -47.8475H327.046L400.458 9.12014V27.2446L303.689 -47.8475ZM348.539 -47.8475L371.895 -47.8475L400.458 -25.6826V-7.55777L348.539 -47.8475ZM393.387 -47.8475H400.458V-42.3604L393.387 -47.8475ZM293.855 65.6064H270.498L181.152 -3.72574V-21.8506L293.855 65.6064ZM249.006 65.6064H225.65L181.152 31.0767V12.9522L249.006 65.6064ZM204.157 65.6064H181.152V47.7548L204.157 65.6064Z" fill="white"/>
</g>
<g clip-path="url(#clip2_4319_17479)">
<path d="M360.152 -47.8475V65.6064L579.458 65.6064V-47.8475L360.152 -47.8475Z" fill="black"/>
<path fill-rule="evenodd" clip-rule="evenodd" d="M360.152 -47.8475H371.5L517.703 65.6064H494.347L360.152 -38.5283V-47.8475ZM392.992 -47.8475H416.348L562.552 65.6064L539.195 65.6064L392.992 -47.8475ZM437.841 -47.8475H461.197L579.458 43.9227V62.0472L437.841 -47.8475ZM482.689 -47.8475H506.046L579.458 9.12014V27.2446L482.689 -47.8475ZM527.539 -47.8475L550.895 -47.8475L579.458 -25.6826V-7.55777L527.539 -47.8475ZM572.387 -47.8475H579.458V-42.3604L572.387 -47.8475ZM472.855 65.6064H449.498L360.152 -3.72574V-21.8506L472.855 65.6064ZM428.006 65.6064H404.65L360.152 31.0767V12.9522L428.006 65.6064ZM383.157 65.6064H360.152V47.7548L383.157 65.6064Z" fill="white"/>
</g>
<g clip-path="url(#clip3_4319_17479)">
<path d="M539.152 -47.8475V65.6064L758.458 65.6064V-47.8475L539.152 -47.8475Z" fill="black"/>
<path fill-rule="evenodd" clip-rule="evenodd" d="M539.152 -47.8475H550.5L696.703 65.6064H673.347L539.152 -38.5283V-47.8475ZM571.992 -47.8475H595.348L741.552 65.6064L718.195 65.6064L571.992 -47.8475ZM616.841 -47.8475H640.197L758.458 43.9227V62.0472L616.841 -47.8475ZM661.689 -47.8475H685.046L758.458 9.12014V27.2446L661.689 -47.8475ZM706.539 -47.8475L729.895 -47.8475L758.458 -25.6826V-7.55777L706.539 -47.8475ZM751.387 -47.8475H758.458V-42.3604L751.387 -47.8475ZM651.855 65.6064H628.498L539.152 -3.72574V-21.8506L651.855 65.6064ZM607.006 65.6064H583.65L539.152 31.0767V12.9522L607.006 65.6064ZM562.157 65.6064H539.152V47.7548L562.157 65.6064Z" fill="white"/>
</g>
<g clip-path="url(#clip4_4319_17479)">
<path d="M718.152 -47.8475V65.6064L937.458 65.6064V-47.8475L718.152 -47.8475Z" fill="black"/>
<path fill-rule="evenodd" clip-rule="evenodd" d="M718.152 -47.8475H729.5L875.703 65.6064H852.347L718.152 -38.5283V-47.8475ZM750.992 -47.8475H774.348L920.552 65.6064L897.195 65.6064L750.992 -47.8475ZM795.841 -47.8475H819.197L937.458 43.9227V62.0472L795.841 -47.8475ZM840.689 -47.8475H864.046L937.458 9.12014V27.2446L840.689 -47.8475ZM885.539 -47.8475L908.895 -47.8475L937.458 -25.6826V-7.55777L885.539 -47.8475ZM930.387 -47.8475H937.458V-42.3604L930.387 -47.8475ZM830.855 65.6064H807.498L718.152 -3.72574V-21.8506L830.855 65.6064ZM786.006 65.6064H762.65L718.152 31.0767V12.9522L786.006 65.6064ZM741.157 65.6064H718.152V47.7548L741.157 65.6064Z" fill="white"/>
</g>
<g clip-path="url(#clip5_4319_17479)">
<path d="M897.152 -47.8475V65.6064L1116.46 65.6064V-47.8475L897.152 -47.8475Z" fill="black"/>
<path fill-rule="evenodd" clip-rule="evenodd" d="M897.152 -47.8475H908.5L1054.7 65.6064H1031.35L897.152 -38.5283V-47.8475ZM929.992 -47.8475H953.348L1099.55 65.6064L1076.2 65.6064L929.992 -47.8475ZM974.841 -47.8475H998.197L1116.46 43.9227V62.0472L974.841 -47.8475ZM1019.69 -47.8475H1043.05L1116.46 9.12014V27.2446L1019.69 -47.8475ZM1064.54 -47.8475L1087.89 -47.8475L1116.46 -25.6826V-7.55777L1064.54 -47.8475ZM1109.39 -47.8475H1116.46V-42.3604L1109.39 -47.8475ZM1009.85 65.6064H986.498L897.152 -3.72574V-21.8506L1009.85 65.6064ZM965.006 65.6064H941.65L897.152 31.0767V12.9522L965.006 65.6064ZM920.157 65.6064H897.152V47.7548L920.157 65.6064Z" fill="white"/>
</g>
<g clip-path="url(#clip6_4319_17479)">
<path d="M1076.15 -47.8475V65.6064L1295.46 65.6064V-47.8475L1076.15 -47.8475Z" fill="black"/>
<path fill-rule="evenodd" clip-rule="evenodd" d="M1076.15 -47.8475H1087.5L1233.7 65.6064H1210.35L1076.15 -38.5283V-47.8475ZM1108.99 -47.8475H1132.35L1278.55 65.6064L1255.2 65.6064L1108.99 -47.8475ZM1153.84 -47.8475H1177.2L1295.46 43.9227V62.0472L1153.84 -47.8475ZM1198.69 -47.8475H1222.05L1295.46 9.12014V27.2446L1198.69 -47.8475ZM1243.54 -47.8475L1266.89 -47.8475L1295.46 -25.6826V-7.55777L1243.54 -47.8475ZM1288.39 -47.8475H1295.46V-42.3604L1288.39 -47.8475ZM1188.85 65.6064H1165.5L1076.15 -3.72574V-21.8506L1188.85 65.6064ZM1144.01 65.6064H1120.65L1076.15 31.0767V12.9522L1144.01 65.6064ZM1099.16 65.6064H1076.15V47.7548L1099.16 65.6064Z" fill="white"/>
</g>
<g clip-path="url(#clip7_4319_17479)">
<path d="M1292.6 -53.9442V59.5098L1511.91 59.5098V-53.9442L1292.6 -53.9442Z" fill="black"/>
<path fill-rule="evenodd" clip-rule="evenodd" d="M1292.6 -53.9442H1303.95L1450.15 59.5098H1426.8L1292.6 -44.625V-53.9442ZM1325.44 -53.9442H1348.8L1495 59.5098H1471.64L1325.44 -53.9442ZM1370.29 -53.9442H1393.65L1511.91 37.8261V55.9505L1370.29 -53.9442ZM1415.14 -53.9442H1438.5L1511.91 3.02346V21.1479L1415.14 -53.9442ZM1459.99 -53.9442L1483.34 -53.9442L1511.91 -31.7793V-13.6545L1459.99 -53.9442ZM1504.84 -53.9442H1511.91V-48.457L1504.84 -53.9442ZM1405.3 59.5098L1381.95 59.5098L1292.6 -9.82242V-27.9473L1405.3 59.5098ZM1360.46 59.5098H1337.1L1292.6 24.98V6.85554L1360.46 59.5098ZM1315.61 59.5098H1292.6V41.6581L1315.61 59.5098Z" fill="white"/>
</g>
<defs>
<clipPath id="clip0_4319_17479">
<rect width="59.568" height="219" fill="white" transform="matrix(0 -1 1 0 0 59.5684)"/>
</clipPath>
<clipPath id="clip1_4319_17479">
<rect width="60" height="179" fill="white" transform="matrix(0 -1 1 0 219 60)"/>
</clipPath>
<clipPath id="clip2_4319_17479">
<rect width="60" height="179" fill="white" transform="matrix(0 -1 1 0 398 60)"/>
</clipPath>
<clipPath id="clip3_4319_17479">
<rect width="60" height="179" fill="white" transform="matrix(0 -1 1 0 577 60)"/>
</clipPath>
<clipPath id="clip4_4319_17479">
<rect width="60" height="179" fill="white" transform="matrix(0 -1 1 0 756 60)"/>
</clipPath>
<clipPath id="clip5_4319_17479">
<rect width="60" height="179" fill="white" transform="matrix(0 -1 1 0 935 60)"/>
</clipPath>
<clipPath id="clip6_4319_17479">
<rect width="60" height="179" fill="white" transform="matrix(0 -1 1 0 1114 60)"/>
</clipPath>
<clipPath id="clip7_4319_17479">
<rect width="59.568" height="219" fill="white" transform="matrix(0 -1 1 0 1293 59.5684)"/>
</clipPath>
</defs>
</svg>
