<svg width="439" height="60" viewBox="0 0 439 60" fill="none" xmlns="http://www.w3.org/2000/svg">
<g clip-path="url(#clip0_4319_17479)">
<path d="M2.05078 -47.8475L2.05078 65.6064L221.356 65.6064V-47.8475L2.05078 -47.8475Z" fill="black"/>
<path fill-rule="evenodd" clip-rule="evenodd" d="M2.05078 -47.8475H13.3982L159.602 65.6064H136.245L2.05078 -38.5283L2.05078 -47.8475ZM34.8906 -47.8475H58.2469L204.451 65.6064L181.094 65.6064L34.8906 -47.8475ZM79.739 -47.8475H103.096L221.356 43.9227V62.0472L79.739 -47.8475ZM124.588 -47.8475H147.944L221.356 9.12014V27.2446L124.588 -47.8475ZM169.437 -47.8475L192.793 -47.8475L221.356 -25.6826V-7.55777L169.437 -47.8475ZM214.286 -47.8475H221.356V-42.3604L214.286 -47.8475ZM114.753 65.6064H91.3965L2.05078 -3.72574L2.05078 -21.8506L114.753 65.6064ZM69.9042 65.6064H46.548L2.05078 31.0767L2.05078 12.9522L69.9042 65.6064ZM25.0555 65.6064H2.05078L2.05078 47.7548L25.0555 65.6064Z" fill="white"/>
</g>
<g clip-path="url(#clip1_4319_17479)">
<path d="M218.652 -53.9442V59.5098L437.958 59.5098V-53.9442L218.652 -53.9442Z" fill="black"/>
<path fill-rule="evenodd" clip-rule="evenodd" d="M218.652 -53.9442H230L376.203 59.5098H352.847L218.652 -44.625V-53.9442ZM251.492 -53.9442H274.848L421.052 59.5098H397.695L251.492 -53.9442ZM296.341 -53.9442H319.697L437.958 37.8261V55.9505L296.341 -53.9442ZM341.189 -53.9442H364.546L437.958 3.02346V21.1479L341.189 -53.9442ZM386.039 -53.9442L409.395 -53.9442L437.958 -31.7793V-13.6545L386.039 -53.9442ZM430.887 -53.9442H437.958V-48.457L430.887 -53.9442ZM331.355 59.5098L307.998 59.5098L218.652 -9.82242V-27.9473L331.355 59.5098ZM286.506 59.5098H263.15L218.652 24.98V6.85554L286.506 59.5098ZM241.657 59.5098H218.652V41.6581L241.657 59.5098Z" fill="white"/>
</g>
<defs>
<clipPath id="clip0_4319_17479">
<rect width="59.568" height="219" fill="white" transform="matrix(0 -1 1 0 0 59.5684)"/>
</clipPath>
<clipPath id="clip1_4319_17479">
<rect width="59.568" height="219" fill="white" transform="matrix(0 -1 1 0 219.051 59.5684)"/>
</clipPath>
</defs>
</svg>
