<svg width="634" height="937" viewBox="0 0 634 937" fill="none" xmlns="http://www.w3.org/2000/svg">
<g clip-path="url(#clip0_3991_117013)">
<path d="M633.767 684.348V346.209H633.777C632.549 345.9 632.085 346.407 631.549 346.992C631.348 347.213 631.136 347.445 630.869 347.648C624.1 352.832 617.235 359.321 610.36 365.818C604.782 371.09 599.198 376.368 593.654 380.96C474.078 479.967 327.528 541.528 172.438 486.305C118.114 466.973 69.267 434.763 27.0382 395.973L0.953125 368.922C92.1407 575.695 350.802 763.588 511.606 914.925C417.904 848.516 330.387 778.473 242.014 707.746C165.111 646.198 58.1005 563.397 -24.7383 502.754V896.754L78.5693 970.65H307.029L32.7487 708.997C149.411 792.878 265.961 878.693 382.124 970.65H647.762V855.177C598.074 817.172 534.284 755.971 492.543 712.998L647.762 825.003V701.254L633.767 684.348Z" fill="#101010"/>
<mask id="mask0_3991_117013" style="mask-type:alpha" maskUnits="userSpaceOnUse" x="-165" y="-134" width="844" height="505">
<path d="M634.285 348.17C426.908 145.741 196.675 147.419 -2.34016 370.538L-164.562 -133.856L678.882 -110.929L634.285 348.17Z" fill="#D9D9D9"/>
</mask>
<g mask="url(#mask0_3991_117013)">
<path fill-rule="evenodd" clip-rule="evenodd" d="M-11.7383 344.754C9.85792 383.219 36.9622 422.137 62.7617 460.01H132.379C83.378 387.868 36.4022 310.544 -5.12891 236.332L-11.7383 344.754Z" fill="#101010"/>
<path fill-rule="evenodd" clip-rule="evenodd" d="M169.718 443.914L204.928 400.634C132.992 285.4 62.0233 167.15 -5.12891 51.2393V150.776C49.7703 247.229 109.69 347.117 169.718 443.914Z" fill="#101010"/>
<path fill-rule="evenodd" clip-rule="evenodd" d="M72.8862 -0.767578C133.248 105.801 194.715 212.045 261.945 316.58L231.496 361.035C153.93 243.605 85.5853 121.448 17.3516 -0.767578H72.8862Z" fill="#101010"/>
<path fill-rule="evenodd" clip-rule="evenodd" d="M271.977 -0.767578C299.961 49.9291 329.028 100.032 360.09 149.039L335.94 190.93C296.873 127.744 259.813 63.7692 224.18 -0.767578H271.977Z" fill="#101010"/>
<path fill-rule="evenodd" clip-rule="evenodd" d="M174.191 -0.767578C217.584 76.5826 262.371 153.625 311.93 229.621L283.833 277.763C229.246 185.258 175.507 92.4134 122.637 -0.767578H174.191Z" fill="#101010"/>
<path fill-rule="evenodd" clip-rule="evenodd" d="M460.001 -0.767578L466.055 10.1244L442.407 34.1944L419.629 -0.767578H460.001Z" fill="#101010"/>
<path fill-rule="evenodd" clip-rule="evenodd" d="M366.897 -0.767578C380.209 23.6133 394.201 47.623 410.613 70.3173L387.857 104.188C365.246 69.2034 344.676 34.2179 324.797 -0.767578H366.897Z" fill="#101010"/>
<path fill-rule="evenodd" clip-rule="evenodd" d="M204.93 400.425C216.38 421.174 228.488 441.289 242.012 460.011H291.894C270.599 427.76 249.148 394.978 231.61 361.037L204.93 400.425Z" fill="#101010"/>
<path fill-rule="evenodd" clip-rule="evenodd" d="M283.798 277.778C320.758 338.527 358.978 399.262 397.989 460.011H346.1C316.945 412.443 289.049 364.668 261.945 316.762L283.798 277.778Z" fill="#101010"/>
<path fill-rule="evenodd" clip-rule="evenodd" d="M335.953 190.854L311.926 229.622C354.583 307.835 400.953 384.503 450.11 460.011H502.568C444.803 371.108 388.588 281.449 335.953 190.854Z" fill="#101010"/>
<path fill-rule="evenodd" clip-rule="evenodd" d="M360.137 148.941C420.109 252.248 483.905 355.331 550.723 460.01H602.121C523.63 343.404 451.606 225.688 387.787 104.013L360.137 148.941Z" fill="#101010"/>
<path fill-rule="evenodd" clip-rule="evenodd" d="M481.108 -0.767578L466.012 9.76543C521.569 105.892 577.427 197.283 634.076 281.57V203.292C592.556 135.27 551.259 67.2485 514.946 -0.767578H481.108Z" fill="#101010"/>
<path fill-rule="evenodd" clip-rule="evenodd" d="M410.633 70.3428C478.409 192.383 556.441 315.499 634.843 436.524V356C565.137 249.49 499.85 141.382 442.431 34.1953L410.633 70.3428Z" fill="#101010"/>
<path fill-rule="evenodd" clip-rule="evenodd" d="M550.066 -0.767578L634.077 133.093V43.9938L602.123 -0.767578H550.066Z" fill="#101010"/>
<path d="M-6.33203 371.644C245.648 105.848 459.5 190.394 632.461 345.119C445.686 14.1183 101.423 103.085 -6.33203 371.644Z" fill="#101010"/>
</g>
</g>
<defs>
<clipPath id="clip0_3991_117013">
<rect width="633.78" height="936.508" fill="white"/>
</clipPath>
</defs>
</svg>
