<svg width="199" height="140" viewBox="0 0 199 140" fill="none" xmlns="http://www.w3.org/2000/svg">
<path d="M20.2027 1.09738C15.0862 2.6634 11.1183 5.27344 7.35929 9.4495C0.467699 17.1752 0.363281 17.6972 0.363281 81.7997V139.012H89.6407H178.918V80.7557C178.918 15.6092 179.023 16.2356 171.713 8.7187C163.464 0.262178 168.163 0.679778 91.207 0.470975C53.6165 0.366573 21.6646 0.679777 20.2027 1.09738ZM88.701 38.9951C87.6568 45.2592 84.5242 51.4189 79.3033 57.2654C73.4559 63.7383 72.4118 65.9307 72.4118 71.1508C72.4118 85.5582 89.7452 94.2235 100.605 85.0362C104.99 81.3821 107.079 76.8928 107.079 71.1508C107.079 65.1999 105.93 62.9031 99.5605 55.8038C94.444 50.2705 91.207 43.0668 91.207 37.4291L91.1204 34.7936L99.8737 35.1323C127.44 37.3247 147.384 43.38 159.705 53.1937C165.553 57.7874 169.521 64.5735 169.521 70.0024C169.521 78.2501 161.689 86.7066 148.219 93.1795C116.372 108.422 62.7009 108.318 30.8534 92.9707C15.7127 85.6626 7.88138 75.2224 10.7007 65.7219C15.7127 49.3309 47.6647 35.8631 84.8375 34.7147L89.4319 34.6103L88.701 38.9951Z" fill="white"/>
</svg>
