<svg width="1080" height="716" viewBox="0 0 1080 716" fill="none" xmlns="http://www.w3.org/2000/svg">
<g clip-path="url(#clip0_4195_16548)">
<rect width="1079.06" height="714.721" transform="translate(0.0625 0.400879)" fill="#030502"/>
<rect width="1078" height="714" transform="translate(0.0625 0.400879)" fill="url(#paint0_linear_4195_16548)"/>
<path fill-rule="evenodd" clip-rule="evenodd" d="M865.557 263.569C865.05 264.066 864.636 275.441 864.636 288.846V313.221L858.345 310.373C849.292 306.274 828.35 306.266 819.313 310.359C810.418 314.387 803.046 320.574 797.65 328.543C790.998 338.367 788.816 346.657 789.368 360.008C789.748 369.195 790.544 372.596 793.941 379.567C800.435 392.895 810.404 401.486 824.784 406.147C833.838 409.081 849.202 408.28 858.345 404.397C863.511 402.203 864.636 402.066 864.636 403.627C864.636 405.198 867.618 405.528 881.863 405.528H899.089L898.747 334.46L898.404 263.392L882.442 263.029C873.662 262.829 866.065 263.073 865.557 263.569ZM260.778 274.735C244.886 283.278 233.407 290.847 219.679 301.837C188.401 326.874 175.773 349.139 179.693 372.333C181.791 384.736 186.67 394.102 195.592 402.847C206.49 413.53 216.299 418.111 238.725 422.993C241.808 423.663 242.363 424.337 241.766 426.678C241.061 429.439 241.402 429.546 251.347 429.668C261.353 429.791 261.641 429.708 261.088 426.875C260.476 423.736 261.366 423.246 270.619 421.634C293.99 417.563 314.705 400.494 321.014 380.107C323.484 372.126 323.559 356.366 321.17 347.57C316.796 331.469 301.941 313.671 280.521 298.872C273.123 293.762 268.326 289.516 267.846 287.652C267.023 284.461 267.847 276.571 269.396 272.802C270.628 269.808 269.452 270.071 260.778 274.735ZM234.432 312.393C227.759 321.065 221.564 333.894 219.623 343.063C217.459 353.277 218.697 372.08 222.148 381.426C225.652 390.914 231.471 400.434 238.466 408.124L243.779 413.965L239.677 407.862C220.022 378.602 218.655 341.498 236.184 312.964C238.679 308.901 240.485 305.578 240.198 305.578C239.911 305.578 237.316 308.644 234.432 312.393ZM249.808 317.91C249.248 325.049 248.791 342.572 248.791 356.851C248.791 371.13 249.248 388.653 249.808 395.792L250.825 408.773L251.655 399.038C252.112 393.683 252.487 374.699 252.487 356.851C252.487 339.003 252.112 320.019 251.655 314.664L250.825 304.929L249.808 317.91ZM381.74 306.844C361.92 310.997 350.786 322.415 350.856 338.512C350.913 351.548 359.327 362.244 372.351 365.837C376.173 366.893 384.824 368.723 391.578 369.907C398.332 371.091 405.111 373.055 406.644 374.271C410.745 377.526 408.889 381.729 402.524 383.599C392.465 386.553 380.129 382.285 377.246 374.854C376.09 371.873 375.6 371.779 361.306 371.779H346.559L347.473 376.549C349.176 385.451 352.431 391.254 358.927 396.981C369.502 406.3 387.027 410.455 405.875 408.112C428.862 405.255 442.097 393.531 442.171 375.956C442.208 367.087 439.884 361.852 433.336 356.06C426.643 350.14 420.039 347.724 401.906 344.561C386.374 341.852 381.603 339.288 383.159 334.484C385.758 326.453 407.151 327.659 410.394 336.02C411.662 339.288 411.848 339.327 426.276 339.327C440.832 339.327 440.876 339.318 440.876 336.19C440.876 326.14 430.318 314.211 417.144 309.379C408.8 306.317 390.503 305.007 381.74 306.844ZM488.846 306.933C479.208 308.265 468.418 313.938 461.268 321.429C437.042 346.817 444.865 388.583 476.616 403.361C484.147 406.866 486.602 407.358 496.48 407.335C504.919 407.317 509.581 406.596 515.034 404.472C519.04 402.912 522.467 401.635 522.648 401.635C522.83 401.634 522.979 412.732 522.979 426.297V450.959H539.533H556.086V379.567V308.174H539.533C523.807 308.174 522.979 308.305 522.979 310.796V313.42L517.804 310.831C514.957 309.407 510.041 307.899 506.879 307.478C503.717 307.057 499.937 306.545 498.481 306.34C497.024 306.135 492.688 306.402 488.846 306.933ZM715.096 307.083C696.819 309.972 681.186 323.777 675.84 341.748C672.629 352.544 673.686 368.866 678.225 378.552C682.509 387.691 691.668 397.495 700.066 401.928C712.963 408.737 729.966 409.643 742.537 404.192C749.607 401.127 749.426 401.143 749.426 403.581C749.426 405.211 752.222 405.528 766.641 405.528H783.857V356.851V308.174H766.641C750.582 308.174 749.426 308.34 749.426 310.652C749.426 313.085 749.331 313.086 744.273 310.69C741.439 309.348 736.523 307.904 733.348 307.481C730.173 307.059 726.384 306.54 724.927 306.33C723.471 306.119 719.046 306.458 715.096 307.083ZM266.582 313.805C274.281 326.42 276.897 335.542 277.64 352.384C278.195 364.964 277.842 369.124 275.46 378.132C272.676 388.661 267.116 401.029 261.684 408.773L258.953 412.667L261.851 410.196C267.394 405.467 276.754 390.47 280.177 380.831C284.824 367.743 285.14 350.557 280.975 337.38C277.893 327.625 270.638 314.738 265.266 309.472C262.482 306.744 262.693 307.434 266.582 313.805ZM564.031 338.615C564.031 378.038 565.849 386.456 576.655 397.048C589.336 409.476 611.258 412.253 627.431 403.479C634.415 399.69 634.216 399.706 634.216 402.932C634.216 405.389 635.1 405.528 650.769 405.528H667.323V356.851V308.174H650.769H634.216V338.751V369.329L630.09 373.023C621.696 380.539 609.389 380.983 602.71 374.012C598.334 369.446 597.205 361.247 597.169 333.811L597.137 308.174H580.584H564.031V338.615ZM286.728 320.506C296.056 333.382 300.084 342.066 302.117 353.68C304.987 370.085 300.468 384.706 287.503 400.976L281.304 408.753L286.666 404.537C309.51 386.572 313.876 358.154 297.766 332.276C295.513 328.659 290.415 322.193 286.438 317.91L279.205 310.121L286.728 320.506ZM214.035 319.909C200.572 334.489 193.804 351.18 194.853 367.203C195.653 379.427 200.269 389.137 210.061 399.201C219.967 409.38 225.191 412.167 216.119 402.432C203.184 388.551 196.96 370.044 199.818 353.96C202.122 340.995 209.923 325.809 219.506 315.638C221.356 313.674 222.511 312.068 222.072 312.068C221.632 312.068 218.015 315.596 214.035 319.909ZM493.053 335.31C486.421 338.263 482.42 343.517 480.467 351.847C475.901 371.306 494.515 386.592 513.373 378.868C522.708 375.044 522.981 374.424 522.97 356.974L522.961 341.274L518.666 338.429C509.363 332.266 501.925 331.36 493.053 335.31ZM719.264 335.506C702.647 343.807 702.435 369.798 718.918 377.944C725.816 381.354 732.978 381.671 739.82 378.868C749.176 375.037 749.426 374.458 749.426 356.668V340.662L744.273 337.319C736.884 332.526 726.705 331.788 719.264 335.506ZM839.638 334.17C826.521 337.112 819.18 350.298 822.877 364.272C825.723 375.024 833.618 380.865 845.306 380.865C852.337 380.865 857.585 379.098 861.656 375.36C864.419 372.823 864.636 371.512 864.636 357.39V342.154L860.561 338.794C855.14 334.321 846.991 332.522 839.638 334.17Z" fill="white"/>
</g>
<defs>
<linearGradient id="paint0_linear_4195_16548" x1="1001.99" y1="21.4968" x2="305.51" y2="702.087" gradientUnits="userSpaceOnUse">
<stop stop-color="#FF2D02"/>
<stop offset="1" stop-color="#AF0062"/>
</linearGradient>
<clipPath id="clip0_4195_16548">
<rect width="1079.06" height="714.721" fill="white" transform="translate(0.0625 0.400879)"/>
</clipPath>
</defs>
</svg>
