<svg width="830" height="1291" viewBox="0 0 830 1291" fill="none" xmlns="http://www.w3.org/2000/svg">
<g clip-path="url(#clip0_4231_197567)">
<mask id="mask0_4231_197567" style="mask-type:luminance" maskUnits="userSpaceOnUse" x="0" y="0" width="830" height="1291">
<path d="M829.291 0H0.246094V1290.16H829.291V0Z" fill="white"/>
</mask>
<g mask="url(#mask0_4231_197567)">
<path d="M829.291 0H0.246094V1290.16H829.291V0Z" fill="white"/>
<mask id="mask1_4231_197567" style="mask-type:luminance" maskUnits="userSpaceOnUse" x="0" y="0" width="829" height="1291">
<path d="M828.641 0H0.230469V1290.16H828.641V0Z" fill="white"/>
</mask>
<g mask="url(#mask1_4231_197567)">
<path fill-rule="evenodd" clip-rule="evenodd" d="M-33.8911 367.727L178.936 257.216L171.778 330.524L182.391 365.791L211.853 356.758L222.316 345.902L221.01 289.408L290.269 273.617L378.143 268.773L490.944 271.401L595.898 264.024L657.397 303.022L689.172 312.512L858.192 378.5L866.214 -37.8701L-49.2344 -48.1328L-33.8911 367.727Z" fill="#FFD600"/>
<path fill-rule="evenodd" clip-rule="evenodd" d="M155.473 403.52L188.04 437.412L195.283 466.279C205.932 508.498 235.646 525.116 284.733 515.716C336.594 520.599 362.247 485.648 365.959 417.346C399.918 416.915 432.916 423.963 465.094 437.412C449.093 499.016 454.519 550.815 517.058 576.469C584.175 593.649 619.412 555.848 634.449 483.211L682.961 427.659L633.856 451.805L626.987 439.42C578.646 423.327 530.616 410.592 483.148 403.912L467.361 411.805L399.186 399.655L361.516 396.973L354.704 354.835C314.309 354.552 274.383 356.053 235.899 363.019L193.882 370.502L188.292 406.244L155.473 403.52Z" fill="#FFD600"/>
<path fill-rule="evenodd" clip-rule="evenodd" d="M212.532 390.416C195.873 465.546 215.275 502.948 272.166 501.126C339.483 507.283 359.756 462.417 340.109 374.26L212.532 390.416Z" fill="white"/>
<path fill-rule="evenodd" clip-rule="evenodd" d="M493.434 429.307C459.245 481.585 469.434 539.772 518.982 555.552C566.633 573.762 600.281 548.942 616.18 469.585L493.434 429.307Z" fill="white"/>
<path fill-rule="evenodd" clip-rule="evenodd" d="M828.652 890.052C736.158 824.38 656.242 833.743 587.502 909.783L570.57 991.191L722.127 1048.41L852.499 996.662L828.652 890.052Z" fill="#FFD600"/>
<path fill-rule="evenodd" clip-rule="evenodd" d="M649.529 613.898C616.052 610.316 586.334 609.836 563.657 615.167C553.053 619.497 546.334 628.906 544.786 645.079C540.872 735.169 538.565 824.496 544.786 909.791C614.955 844.913 652.594 753.173 651.185 629.185L649.529 613.898Z" fill="#FFD600"/>
<path fill-rule="evenodd" clip-rule="evenodd" d="M204.947 545.941C192.324 639.45 209.843 709.794 242.81 768.264C278.292 684.764 292.464 605.995 213.963 547.8L204.947 545.941Z" fill="#FFD600"/>
<path fill-rule="evenodd" clip-rule="evenodd" d="M227.025 788.893L267.159 859.669L261.081 938.312C208.742 1032.85 112.922 1075.97 -13.7019 1082.66L-27.7109 929.78C37.6116 841.903 127.979 806.334 227.025 788.893Z" fill="#FFD600"/>
<path fill-rule="evenodd" clip-rule="evenodd" d="M520.874 784.131C483.133 759.839 443.065 769.556 402.517 786.251C357.797 769.474 324.375 768.262 301.566 781.675C335.928 814.97 326.829 861.892 402.517 854.07C472.565 866.743 475.054 817.839 520.874 784.131Z" fill="#FFD600"/>
<path fill-rule="evenodd" clip-rule="evenodd" d="M308.711 1034.36C399.017 1108.32 489.47 1065.68 603.047 1158.72C592.774 1267.33 429.448 1292.09 271.324 1320.22L-27.7109 1314.57V1294.08L356.959 1202.4C415.357 1179.48 373.916 1148.06 313.644 1115.05C292.856 1092.1 294.096 1064.61 308.711 1034.36Z" fill="#FFD600"/>
<path d="M438.519 0C441.494 3.08203 445.388 5.90127 448.877 8.38601C554.968 83.884 657.01 166.239 764.774 239.587C785.584 253.755 812.844 268.54 832.734 284.07L831.014 357.604L681.547 258.114C680.615 257.828 685.131 275.604 685.381 277.073C686.994 286.236 687.257 295.601 688.606 304.763C688.738 305.695 688.906 306.854 689.778 307.428L830.918 359.67L830.44 380.149L689.276 320.616V333.852C734.909 362.916 829.174 427.211 830.429 427.355L832.734 492.929C814.899 481.354 792.392 467.12 774.51 455.592C762.492 447.851 750.093 440.122 737.907 432.632C723.142 423.565 707.84 415.347 693.302 405.91L692.202 407.008L695.129 421.773C703.909 419.779 715.652 422 722.389 428.308C728.697 434.209 733.548 448.197 736.139 456.476C740.213 469.509 742.494 483.21 746.281 496.339L830.32 535.544L830.906 597.014L748.551 562.591C742.291 574.931 735.435 586.96 730.836 600.077C725.842 614.353 723.525 629.44 718.639 643.739C724.205 645.926 730.035 647.825 735.769 649.522C748.969 653.428 762.469 657.454 775.716 661.049C792.847 665.696 815.508 670.344 832.734 674.573V727.282L705.211 687.509C699.525 696.218 688.63 698.93 678.763 696.946C676.374 696.469 673.161 693.59 670.903 693.016C669.995 692.789 669.732 692.395 669.016 693.41L665.635 720.922L659.829 744.527L830.632 786.968L830.942 840.248L645.148 781.678C638.529 797.602 631.816 813.646 623.453 828.757C615.319 843.463 607.04 858.037 599.108 872.799C596.002 878.587 589.814 886.268 587.437 892.013C586.935 893.226 586.947 894.361 587.043 895.652C590.316 895.402 592.049 892.022 594.461 890.207C618.197 872.386 643.332 855.779 671.619 846.031C694.329 838.207 711.161 836.51 734.981 840.739C768.895 846.76 802.63 863.94 830.62 883.378L830.082 947.808C821.386 948.488 809.355 948.324 800.636 948.574C746.58 950.191 692.107 950.131 638.183 949.374C623.048 949.159 608.068 949.348 592.968 948.17L591.487 949.013C593.35 975.874 614.864 991.123 638.935 997.823C664.596 1004.97 692.513 1008.48 718.388 1015.47L831.277 980.406L830.859 1291.53L224.647 1292.46C224.647 1292.46 568.682 1233.2 568.682 1179.91C568.682 1131.41 425.104 1111.65 360.74 1087.02C344.936 1080.99 327.888 1076.73 317.281 1062.1C313.792 1057.28 311.976 1051.14 308.345 1046.41C305.227 1060.45 301.452 1077 304.988 1091.32C314.82 1131.24 392.157 1135.21 392.157 1177.66C392.157 1202.48 346.608 1211.89 322.441 1217.5C298.036 1223.16 27.0252 1287.58 -17.0672 1297.17L-27.7109 1290.16C20.9806 1280.32 325.284 1206.63 360.381 1195.12C365.96 1193.3 368.946 1192.46 373.032 1187.92C379.005 1181.28 379.304 1176.4 375.899 1168.18C372.494 1159.98 364.216 1154.04 356.977 1148.87C321.628 1123.67 291.287 1119.36 295.085 1066.58C295.874 1055.68 301.094 1045.89 303.125 1035.42C298.776 1034.99 295.384 1029.38 291.453 1028.35C288.276 1027.51 285.015 1028.43 281.825 1027.68C278.635 1026.93 274.908 1022.76 271.754 1022.23C269.497 1021.85 263.62 1024.8 260.048 1024.78C253.716 1024.73 251.16 1017.43 245.916 1015.11C238.294 1017 231.569 1020.91 225.978 1012.93C222.071 1007.34 224.449 1003.22 224.544 997.505C224.556 996.679 224.951 995.449 223.78 995.656C212.121 1012.98 197.726 1031.12 180.321 1043C161.781 1055.67 135.369 1065.14 114.045 1072.33C76.7141 1084.9 37.663 1093.83 -1.97349 1094.18V1072.12C3.83221 1072.42 9.56629 1071.1 15.3122 1070.67C61.077 1067.1 115.096 1052.01 156.381 1031.57C185.947 1016.93 203.902 982.952 223.792 957.794C228.439 951.92 232.094 948.694 234.926 940.988C237.9 932.911 233.875 929.677 234.866 922.53C235.308 919.391 238.354 916.681 238.425 915.142C238.509 913.335 236.359 910.196 236.24 907.728C236.025 903.668 238.33 896.202 240.038 892.409C240.779 890.766 242.738 889.201 242.917 887.868C243.121 886.345 242.141 884.522 242.129 882.785C242.034 874.089 245.306 872.825 248.209 866.004C248.819 864.585 248.639 863.019 249.153 861.798C250.574 858.419 252.14 855.075 253.931 851.872C243.754 835.877 233.719 819.583 225.99 802.238L225.035 802.357C217.126 805.666 209.206 809.333 201.202 812.38C194.835 814.805 188.289 817.062 181.862 819.511C118.346 843.701 42.7758 861.084 3.64109 922.186C2.24342 924.371 1.08468 929.505 -1.94958 930.202V327.221C27.724 311.094 55.6057 291.289 86.0323 276.583C113.591 263.263 142.739 254.077 171.851 244.748C185.935 229.648 196.292 211.537 209.851 195.972C250.025 149.861 295.384 124.644 353.369 106.39C377.464 98.8044 402.813 97.2631 427.828 94.8144L473.82 96.3075L342.928 0H438.519ZM609.119 187.527C597.005 180.813 585.609 172.403 573.579 165.331C548.685 150.662 507.483 129.267 479.243 125.109C427.506 117.476 357.168 124.38 308.704 144.844C283.067 155.667 244.697 184.624 224.903 204.43C195.456 233.889 182.232 263.837 185.577 306.28C186.927 323.47 190.248 340.625 194.011 357.409C194.954 358.592 194.763 357.875 195.493 357.397C198.682 355.306 201.274 352.726 204.93 350.659C208.179 348.82 211.703 347.541 215.012 345.893C215.083 333.362 214.379 321.034 214.235 308.514C214.176 302.781 214.391 298.742 214.701 292.949C214.833 290.607 213.232 288.648 215.37 286.116C217.15 284.001 231.843 279.904 235.415 278.948C287.344 265.139 341.364 262.403 394.797 261.113C414.521 260.635 435.808 262.332 454.981 259.524C493.328 253.909 551.933 231.739 583.626 209.483C589.085 205.648 605.141 194.144 608.39 189.39C608.808 188.769 609.417 188.661 609.119 187.551V187.527ZM585.597 291.193C572.194 290.273 559.256 286.212 546.056 284.037C503.063 276.977 459.819 276.129 416.109 275.747C372.399 275.365 325.631 275.114 280.977 282.556C262.496 285.638 244.255 290.524 226.086 294.944L228.224 343.408C229.048 343.504 229.67 343.432 230.422 343.038C233.157 341.617 240.026 332.931 243.312 330.184C264.874 312.134 300.878 307.738 327.518 315.06C335.498 317.259 342.068 322.431 348.865 326.863L494.785 286.749L563.676 390.308L621.626 386.043C613.682 374.874 602.537 367.348 589.79 362.558L588.154 359.607L587.819 323.888L585.586 291.193H585.597ZM494.318 295.697L356.905 333.852C369.043 350.707 378.216 371.768 380.534 392.566C395.258 393.844 409.604 395.475 423.688 397.352C423.688 397.352 486.9 395.277 519.023 393.402C530.885 392.709 542.735 390.428 554.693 391.204L494.306 295.697H494.318ZM371.611 391.932C370.906 386.414 370.428 380.524 368.899 375.16C363.619 356.549 351.302 335.882 334.495 325.74C322.358 318.417 298.61 316.709 284.836 319.504C269.485 322.622 252.617 329.694 242.2 341.581C252.808 342.154 263.548 342.763 273.965 345.105C282.303 346.98 300.057 353.662 300.057 353.662C318.337 352.788 336.876 352.388 355.615 352.344L362.424 391.968L371.634 391.944L371.611 391.932ZM351.744 358.854C294.402 359.151 241.625 363.649 199.649 378.087L192.16 414.737L156.871 404.44L192.493 432.417C197.308 457.504 197.881 483.127 219.36 500.401C241.902 518.535 286.154 512.429 313.327 508.321C353.642 502.227 360.867 446.052 361.274 431.526C361.382 427.846 361.141 411.341 361.141 411.341C361.141 411.341 401.81 413.411 419.525 417.162C435.664 420.579 463.498 431.282 463.498 431.282L470.045 433.612C470.045 433.612 465.876 452.845 464.322 462.246C461.551 479.149 461.336 498.108 463.582 515.011C469.722 561.218 533.633 591.154 574.022 569.735C600.972 555.448 614.231 535.796 624.541 507.748C627.922 498.55 628.483 488.204 630.837 478.743C637.848 472.018 645.518 464.539 650.511 456.129L672.337 434.937C672.337 434.937 660.259 441.484 656.078 444.41C646.939 450.814 628.698 463.882 628.698 463.882C628.698 463.882 623.98 446.895 622.952 443.527C612.093 438.843 528.507 413.924 483.555 409.978L472.732 421.391C437.14 409.234 394.539 401.766 358.836 401.353L351.744 358.818V358.854ZM636.941 414.856L575.288 417.305L628.997 436.029L634.492 447.828L646.665 440.002C645.088 431.031 640.262 423.195 636.929 414.856H636.941ZM462.017 439.776C462.017 439.776 444.026 433.217 434.84 430.541C412.931 424.175 390.697 421.278 367.857 422.018C368.06 435.756 367.128 450.532 361.979 463.218L447.98 456.751C448.506 469.556 448.351 482.435 448.793 495.288C449.14 505.442 449.187 516.098 449.701 526.144C451.528 561.564 481.37 565.853 498.404 589.804C516.251 614.879 522.105 651.157 500.602 674.25C488.519 687.227 457.717 686.667 442.581 673.688C421.51 688.537 388.152 687.33 365.996 670.009C354.289 675.766 342.128 679.052 329.525 673.378C297.235 658.827 307.82 621.425 324.245 598.632C334.423 584.512 348.699 573.713 357.765 558.613C363.774 548.59 366.247 537.326 367.203 525.774C362.925 525.726 226.898 540.802 225.966 540.157L223.804 519.144L212.886 521.091L213.673 537.386C233.074 551.458 252.534 567.883 262.688 590.21C285.278 639.941 274.693 701.773 259.498 752.256C256.822 761.132 252.665 769.47 250.288 778.286C252.152 780.867 253.071 785.096 254.386 787.496C256.142 790.698 260.645 793.446 260.215 798.57C263.859 796.109 262.819 791.845 264.587 788.237C265.531 786.302 267.825 784.892 268.35 783.184C269.939 778.071 268.207 767.726 274.55 765.492C273.965 768.884 276.569 771.417 276.784 774.702C276.951 777.163 275.852 779.29 276.032 781.236C276.223 783.291 278.516 786.326 278.886 789.48C279.257 792.633 278.504 796.396 279.138 799.526C279.818 802.871 285.767 816.728 287.642 820.443C288.324 821.793 289.757 822.582 290.307 823.657C294.141 831.195 293.389 838.541 295.468 846.437C296.184 849.173 298.645 851.048 299.243 853.689C299.78 856.077 299.206 858.395 299.732 860.542C300.771 864.714 304.45 866.099 304.63 873.306C304.761 878.57 305.071 881.365 305.466 886.423C305.705 889.442 305.203 892.246 304.641 895.187C313.219 897.639 313.924 906.515 315.812 913.955C318.392 913.697 320.983 914.97 323.445 914.815C325.631 914.669 327.399 913.103 329.513 912.733C334.196 911.916 338.795 912.63 342.546 915.494C351.04 911.116 359.7 908.39 367.704 915.391C372.184 912.948 376.879 911.314 382.087 912.019C384.19 912.303 387.296 913.98 388.908 913.955C391.225 913.92 395.108 910.42 397.676 909.568C409.18 905.741 411.821 908.76 422.177 910.901C424.304 911.34 435.951 913.963 436.691 913.963C439.762 913.963 442.939 911.013 449.128 911.873C452.031 912.286 455.948 915.271 457.406 915.339C458.23 915.391 461.587 913.396 463.928 913.267C466.485 913.129 468.969 914.325 471.072 913.895C472.422 913.619 473.545 912.166 474.883 911.77C481.094 909.921 485.778 910.359 492.097 910.953L500.148 901.75C500.089 893.932 498.01 887.317 501.892 879.955C503.099 877.667 507.149 874.235 507.495 873.057C508.654 869.16 507.22 861.858 508.582 856.495C509.406 853.211 513.05 848.146 513.408 845.816C513.814 843.176 513.014 838.84 513.719 835.161C514.197 832.664 516.359 828.411 516.443 826.846C516.526 825.281 515.678 824.063 515.881 821.949C516.311 817.624 520.158 814.662 520.743 812.009C521.328 809.358 519.979 807.231 520.313 804.292C520.922 798.976 524.936 794.545 525.856 790.686C526.776 786.827 526.835 781.978 527.529 778.382C527.994 775.921 529.822 773.71 528.962 770.629L532.629 773.209L535.568 778.716C536.942 766.806 537.025 755.015 536.285 743.022C539.26 712.87 538.363 681.906 539.474 652.042C541.254 604.318 569.972 607.292 608.88 606.923C619.655 606.815 633.656 608.702 644.085 607.412C644.694 607.341 645.398 607.436 645.936 607.054L646.521 606.17C647.274 592.48 648.206 578.79 648.863 565.124C650.057 540.492 652.374 513.756 652.542 489.375C652.566 485.421 651.718 481.108 651.025 477.226C650.392 476.76 640.118 487.583 639.688 488.312C636.427 493.831 635.531 503.949 632.664 510.041C632.043 512.801 634.635 513.661 635.902 515.525C639.282 520.494 642.734 524.807 639.927 531.185C634.683 537.457 630.287 531.747 626.046 527.96C622.307 543.442 611.663 556.738 599.717 566.928C569.363 592.814 539.558 591.512 503.768 577.069C488.537 570.93 468.002 548.34 461.539 533.264C454.694 517.316 452.711 488.336 454.802 471.062C456.044 460.813 462.041 439.764 462.041 439.764L462.017 439.776ZM183.355 444.148C170.943 443.276 164.194 457.91 165.89 468.601C166.75 474.084 171.266 478.599 172.7 483.856C178.254 504.236 157.337 540.001 159.117 563.63C160.574 583.067 179.807 587.188 195.134 592.683C194.548 588.179 198.837 504.045 198.837 504.045C192.446 493.03 188.193 481.36 185.47 468.888C183.762 461.016 181.969 452.092 183.367 444.16L183.355 444.148ZM683.195 664.55C683.506 664.239 687.078 657.848 687.591 656.821C694.448 643.214 700.087 619.991 699.597 604.784C699.191 591.954 694.114 585.301 698.319 571.204C699.609 566.868 703.372 560.262 703.85 556.093C704.173 553.25 702.082 548.519 701.795 545.245C700.696 532.989 702.81 518.045 707.314 506.66C708.09 504.69 709.823 503.208 710.431 500.962C713.849 488.467 712.678 459.009 704.327 448.591C700.959 444.387 697.961 445.45 693.779 447.54C686.731 451.053 684.928 459.104 681.069 465.722C680.185 467.239 678.536 468.123 677.629 469.641C671.667 479.627 671.213 486.113 670.162 497.474C667.701 524.102 666.59 550.98 665.002 577.667C663.748 598.811 658.981 630.695 664.094 650.597C665.109 654.563 666.471 661.133 669.41 664.406C670.091 665.159 674.773 668.348 675.538 668.301C677.199 667.022 682.025 665.732 683.195 664.562V664.55ZM389.29 489.04C390.138 501.883 390.055 514.76 390.007 527.649C389.923 552.653 392.934 577.535 392.934 602.598C392.934 631.979 407.549 639.708 414.447 639.115C424.169 638.276 434.507 634.382 434.064 596.768C433.747 569.973 428.903 485.648 428.903 485.648L389.278 489.052L389.29 489.04ZM242.188 756.664C244.924 756.831 244.267 753.57 244.9 751.67C250.013 736.404 257.336 719.441 260.346 703.875C269.807 654.885 269.545 614.556 237.315 574.381C229.824 565.052 220.543 559.987 210.556 553.716C210.305 558.41 209.385 563.404 209.086 568.062C206.865 602.657 209.182 639.367 214.331 673.843C218.679 702.92 229.359 730.467 242.176 756.676L242.188 756.664ZM377.392 578.073C370.727 575.576 361.337 574.215 358.375 582.386L377.38 580.821V578.073H377.392ZM347.133 591.321L339.607 598.572L340.432 599.922C342.271 600.125 344.469 599.337 346.153 599.397C353.871 599.695 365.686 602.227 372.745 601.559C378.825 600.985 377.464 594.583 374.023 593.591C372.351 593.101 365.41 592.743 363.177 592.671C360.357 592.575 357.156 593.626 355.125 593.435C352.951 593.232 349.75 590.64 347.133 591.345V591.321ZM328.951 616.204C335.94 618.307 343.55 617.686 350.634 618.427C357.718 619.167 366.067 621.472 372.733 620.983C378.898 620.541 377.87 613.708 371.049 612.728C360.967 611.27 349.236 611.223 338.903 610.315C336.836 610.136 334.686 609.491 332.714 608.917L328.963 616.204H328.951ZM645.876 620.624C640.489 620.804 634.719 620.971 629.307 620.66C616.406 619.92 603.313 618.128 590.4 617.662C573.03 617.041 559.376 618.654 553.032 636.978C549.999 645.735 551.671 651.325 551.014 659.962C550.429 667.667 548.47 676.579 548.052 684.212C546.833 706.742 549.604 729.512 546.582 751.862C548.624 778.465 543.978 808.879 546.582 835.017C546.989 839.09 549.879 841.91 550.333 845.243C550.942 849.77 550.07 854.752 548.935 859.1C557.095 866.95 559.209 875.732 556.927 886.818L572.374 861.454C610.385 793.182 649.436 721.997 644.395 640.824L645.9 620.624H645.876ZM322.596 627.494C321.904 628.162 318.845 633.598 318.774 634.351L319.741 635.951C322.298 634.41 324.675 635.891 327.136 636.047C336.931 636.656 346.787 637.265 356.535 638.268C360.035 638.627 373.331 641.661 375.732 639.81L377.153 636.871C377.32 636.178 377.07 635.629 376.699 635.067C373.116 629.405 348.447 629.548 341.173 628.604C336.107 627.947 326.336 623.874 322.585 627.482L322.596 627.494ZM371.599 656.665C366.94 654.443 345.744 642.592 319.395 647.108C321.796 653.726 325.289 661.402 332.345 663.187C354.594 668.817 361.42 658.994 366.414 657.728C368.051 657.31 370.93 657.979 371.587 656.665H371.599ZM448.817 661.061C451.063 661.288 453.344 662.077 455.423 662.925C464.705 666.7 467.154 670.773 478.467 668.85C485.407 667.667 490.628 663.474 493.614 657.131C485.597 650.661 466.223 644.286 448.828 661.073L448.817 661.061ZM536.309 786.074V780.938H535.592V786.074H536.309ZM809.87 886.07C803.024 880.35 794.28 875.207 786.36 870.984C723.047 837.287 666.196 847.464 612.057 892.323C609.417 894.508 606.454 897.587 603.982 900.038L809.882 886.062L809.87 886.07Z" fill="black"/>
<path d="M709.854 0L832.73 101.13L831.989 189.325C825.861 184.738 599.546 4.5036 595.891 0.0119459H709.866L709.854 0Z" fill="black"/>
<path d="M304.011 782.36L303.402 779.947C303.785 776.459 311.932 774.296 314.476 772.684C329.396 763.175 348.044 749.832 364.709 743.536C381.325 737.253 390.285 744.718 404.322 751.994C410.712 748.828 417.283 745.757 424.366 744.36C441.927 740.884 454.709 747.657 470.633 754.335C482.663 759.376 496.15 765.194 507.904 770.748C510.545 771.991 514.953 773.878 517.15 775.467C519.349 777.056 524.055 781.739 519.349 782.814C510.687 781.416 503.759 776.686 494.775 777.271C479.664 778.25 462.653 780.066 448.067 784.236C430.041 789.384 413.329 799.897 393.642 796.026C374.959 792.359 357.469 782.587 338.058 780.281C326.124 778.871 315.719 780.066 304.011 782.348V782.36Z" fill="black"/>
<path d="M479.401 818.161C491.347 805.104 494.082 795.415 511.774 786.922C516.218 784.796 523.254 782.084 520.053 790.064C516.445 792.967 510.974 795.403 507.88 798.844C496.747 811.184 487.381 827.777 475.291 840.893C457.576 860.13 449.572 864.335 422.754 865.514C399.913 866.52 366.202 866.133 346.097 855.348C318.968 840.786 322.229 817.025 306.758 795.415C304.62 792.429 294.538 786.623 301.778 784.306C305.457 783.124 312.194 788.283 315.002 790.864C331.75 806.191 337.83 825.614 358.879 838.911C372.138 847.285 405.623 849.052 421.212 847.906C439.86 846.532 466.822 831.946 479.425 818.184L479.401 818.161Z" fill="black"/>
<path d="M379.837 707.553L382.585 707.803L402.117 718.375L431.91 709.189C440.057 713.501 447.774 718.769 455.36 724.014C463.901 729.915 471.797 736.533 480.195 742.566C483.612 745.015 496.787 752.086 497.755 755.169C498.006 755.981 498.281 756.818 498.006 757.678L496.227 758.908C494.9 759.015 486.18 755.467 484.316 754.607C469.551 747.858 454.618 738.719 439.889 732.113C437.298 730.954 434.132 730.142 431.503 728.756C427.633 730.739 423.798 732.973 419.761 734.622C413.322 737.238 405.856 738.301 400.516 742.59L380.423 731.241C379.622 730.859 378.87 730.847 378.022 731.062C375.681 731.659 367.916 737.011 364.869 738.564C350.857 745.732 339.03 754.106 325.746 761.202C323.238 762.539 320.502 764.797 318.746 761.344C318.399 759.541 329.749 748.587 331.863 746.735C340.965 738.744 352.075 730.68 361.68 722.867C367.772 717.909 374.557 713.227 379.825 707.565L379.837 707.553Z" fill="black"/>
<path d="M360.223 691.223C362.218 691.39 362.17 692.812 361.907 694.353C360.988 699.979 353.963 716.823 351.359 722.819C350.678 724.373 348.026 731.994 346.246 731.66C344.634 731.361 345.673 729.856 345.876 729.103C348.134 720.753 353.163 708.305 356.353 699.86C356.842 698.582 359.494 691.39 360.223 691.223Z" fill="black"/>
<path d="M351.75 697.1C353.267 698.915 345.717 719.116 344.618 722.676C343.269 727.024 342.54 733.272 340.784 737.226C340.294 738.337 340.019 739.281 338.526 739.006C337.368 737.608 343.221 718.077 344.212 714.911C345.526 710.706 347.736 702.392 349.517 698.879C350.054 697.816 350.197 696.789 351.762 697.088L351.75 697.1Z" fill="black"/>
<path d="M369.384 686.818C369.552 688.334 369.349 689.768 369.049 691.261C367.867 697.258 363.865 708.726 361.631 714.735C361.046 716.311 357.916 724.279 356.518 724.316L355.551 721.914C360.568 711.605 361.787 698.082 367.556 688.275C368.118 687.319 367.425 686.423 369.384 686.829V686.818Z" fill="black"/>
<path d="M486.296 736.067C485.269 737.261 482.127 731.396 481.756 730.691C479.558 726.581 471.411 709.045 470.993 705.366C470.682 702.606 473 702.081 473.956 704.661L486.296 736.067Z" fill="black"/>
<path d="M475.289 730.192C472.672 730.909 472.422 728.149 471.49 726.274C468.491 720.265 463.904 709.705 462.029 703.386C461.623 702.036 461.109 700.77 461.324 699.312L463.88 700.053L475.289 730.18V730.192Z" fill="black"/>
<path d="M334.095 731.661C333.02 730.383 338.539 710.409 339.447 707.243C339.842 705.894 340.761 700.411 342.542 700.792C343.915 701.736 343.664 702.489 343.497 703.898C343.067 707.685 338.049 726.87 336.461 730C335.935 731.04 335.458 731.947 334.095 731.673V731.661Z" fill="black"/>
<path d="M325.994 739.745C323.174 738.18 325.432 732.542 326.053 729.877C327.355 724.287 329.589 716.474 331.548 711.111C331.954 709.999 332.887 706.344 334.439 706.667C336.017 707.766 335.372 708.064 335.037 709.439C332.552 719.664 328.777 729.615 325.994 739.745Z" fill="black"/>
<path d="M490.727 716.226C491.802 716.095 492.495 716.19 493.355 716.895C494.8 718.077 502.709 740.608 503.269 743.761C503.484 744.98 504.512 745.254 502.851 746.353L490.727 716.226Z" fill="black"/>
<path d="M320.84 743.425H318.654C317.627 742.434 323.157 718.411 324.042 715.34C324.257 714.588 324.34 712.665 325.63 713.286C327.243 714.504 326.813 716.261 326.658 717.957C325.942 726.235 321.879 735.075 320.84 743.425Z" fill="black"/>
<path d="M494.399 741.218C492.44 741.624 493.133 740.728 492.571 739.772C490.839 736.822 480.016 711.472 481.163 710.338L483.946 711.592L494.399 741.206V741.218Z" fill="black"/>
<path d="M464.265 722.104C461.851 722.653 460.896 720.252 460.047 718.603C458.841 716.238 450.921 695.153 451.757 694.174L453.979 693.768L464.253 722.116L464.265 722.104Z" fill="black"/>
<path d="M365.719 712.535C364.776 711.59 372.612 689.742 373.711 687.078C375.276 683.279 376.96 684.032 376.434 687.568C375.992 690.554 369.697 710.014 368.251 711.782L365.707 712.547L365.719 712.535Z" fill="black"/>
<path d="M445.773 689.847L454.696 716.953C452.415 717.502 452.045 715.878 451.244 714.181C447.732 706.823 445.307 697.577 442.941 689.752L445.785 689.847H445.773Z" fill="black"/>
<path d="M436.67 687.557L446 712.798C446.943 713.479 446.071 714.626 445.486 714.745C443.049 715.235 439.943 704.735 439.226 702.632C438.21 699.621 436.049 693.505 435.738 690.662C435.583 689.229 435.236 688.536 436.67 687.557Z" fill="black"/>
<path d="M314.975 742.699C313.96 743.822 313.638 742.604 313.506 741.6C313.208 739.33 315.573 727.898 316.469 725.438C316.887 724.302 317.281 723.574 318.285 722.857C319.79 723.848 319.3 724.554 319.205 725.951C318.846 731.339 316.038 737.395 314.963 742.699H314.975Z" fill="black"/>
<path d="M509.669 729.654C511.64 731.638 513.695 740.418 513.515 743.428C511.484 745.877 507.16 732.115 507.052 731.124C506.778 728.759 508.283 728.269 509.669 729.654Z" fill="black"/>
<path d="M502.438 725.843L506.917 739.007C505.675 739.174 505.281 739.115 504.361 738.267C503.238 737.239 499.475 726.584 500.312 725.783L502.45 725.843H502.438Z" fill="black"/>
<path d="M312.03 731.672C312.806 732.437 309.438 741.837 308.697 743.438C308.183 744.537 308.805 745.254 306.893 744.896C306.75 740.488 308.195 736.163 309.784 732.125L312.042 731.672H312.03Z" fill="black"/>
<path d="M520.138 744.156C518.371 746.258 513.807 734.503 515.001 733.129C518.621 732.544 521.118 742.996 520.138 744.156Z" fill="black"/>
<path d="M305.425 736.81C305.64 738.363 305.354 739.558 304.852 741.015C304.601 741.732 303.143 744.719 301.758 744.157L303.215 737.3L305.425 736.799V736.81Z" fill="black"/>
<path d="M298.786 740.488C299.001 741.969 298.571 743.343 298.273 744.765C298.106 745.565 298.392 747.811 296.959 747.094C295.035 746.15 295.896 742.507 296.517 740.918L298.786 740.488Z" fill="black"/>
<path d="M341.361 370.702C343.797 382.29 345.96 394.498 347.333 406.277C350.643 434.72 353.629 469.626 330.06 490.46C323.095 496.612 317.314 498.308 308.378 500.386C284.88 505.869 250.166 507.351 229.464 493.255C220.372 487.067 212.392 479.303 209.311 468.551C204.079 450.345 204.294 425.796 206.169 406.994C206.467 403.971 208.94 387.08 210.147 385.981C211.927 384.369 230.873 380.402 234.66 379.614C260.726 374.202 288.691 371.502 315.318 370.559C324.087 370.248 332.724 371.299 341.361 370.69V370.702ZM342.43 409.085C341.211 400.484 339.222 379.12 337.395 376.958C337.144 382.513 337.645 385.562 334.074 390.09C333.548 390.676 332.831 390.712 332.151 390.915C327.79 392.205 307.745 385.562 301.294 384.655C281.762 381.896 258.373 385.992 239.068 389.923C230.347 391.691 221.758 394.391 213.05 396.266C209.789 407.077 210.004 419.477 209.824 430.898L227.098 416.933C253.535 398.106 282.73 394.175 314.494 399.384C324.684 401.056 334.181 405.799 343.643 409.574L342.43 409.085ZM302.477 442.664C304.436 444.42 330.753 432.438 334.587 430.288C338.004 428.377 347.656 423.909 344.765 419.118C343.045 416.264 305.953 407.006 300.267 408.117C300.386 409.275 301.951 409.239 302.871 410.279C308.677 416.789 309.035 428.281 305.774 436.058C305.308 437.169 301.712 441.996 302.465 442.664H302.477ZM262.028 413.265C253.912 412.935 217.534 438.68 217.924 441.195C233.597 445.758 250.142 447.646 266.46 447.812C263.748 445.041 261.144 444.456 259.245 440.705C255.876 434.04 256.365 426.131 258.97 419.37C259.388 418.295 262.458 413.635 262.052 413.265H262.028ZM336.188 473.449C340.839 471.04 346.467 444.888 344.306 439.11C330.878 448.45 312.047 455.366 297.459 458.983L298.786 478.394L336.188 473.449ZM284.092 461.789C257.909 463.487 228.449 457.997 210.554 452.245C211.697 480.708 242.704 502.881 286.959 497.747L284.092 461.778V461.789Z" fill="black"/>
<path d="M594.739 537.158C582.676 551.428 563.238 567.173 543.709 565.567C519.822 563.599 501.886 551.517 489.518 542.663C466.973 526.537 470.852 469.615 480.263 446.842C483.381 439.309 489.174 431.968 493.385 425.003C498.87 424.719 533.296 432.731 544.38 434.95C563.932 438.876 583.131 437.59 601.203 449.585C605.63 452.521 604.299 453.682 606.199 455.799C607.36 457.084 620.425 462.054 621.529 463.909C623.338 467.506 612.106 516.627 594.739 537.158ZM512.322 437.237L492.474 434.54C486.42 442.335 482.562 451.417 480.422 461.022C476.28 479.561 477.371 515.612 487.682 532.045C495.842 545.042 530.007 557.797 545.132 559.038C564.342 560.608 580.946 544.888 592.269 530.606C598.699 522.492 605.847 502.378 605.847 502.378C598.904 510.379 588.89 517.651 579.797 523.262C566.014 531.752 553.132 538.76 536.483 537.426C516.589 535.833 493.35 516.57 495.98 517.662C497.629 518.357 526.581 530.351 543.049 527.606C563.795 524.148 590.494 506.18 597.072 497.816C597.55 497.212 599.257 495.186 598.87 494.674C584.189 481.177 565.435 469.284 545.393 466.166C527.514 463.378 508.908 468.442 493.635 477.694C486.943 476.591 496.583 471.47 499.245 470.047C517.477 460.282 534.423 458.929 554.486 462.684C575.085 466.53 589.584 477.217 605.141 490.452C609.511 486.833 610.899 483.51 610.797 477.854C597.675 475.316 587.854 465.631 576.291 459.793C553.621 448.344 527.834 451.189 504.617 459.316C500.93 460.601 490.71 466.724 487.274 465.495C481.514 459.464 485.043 452.009 490.653 447.445L512.322 437.249V437.237Z" fill="black"/>
<path d="M538.12 469.619C545.621 469.084 559.425 475.593 562.11 483.081C566.629 495.657 561.041 513.308 548.227 519.009C538.963 523.14 523.076 518.941 517.352 510.327C506.608 494.155 519.775 470.927 538.12 469.619Z" fill="black"/>
<path d="M450.593 369.547C427.932 348.653 461.619 307.213 486.431 321.608C525.577 344.317 486.216 402.387 450.593 369.547ZM491.938 331.893C464.952 303.451 424.097 357.684 465 372.426C489.489 381.254 509.164 350.051 491.938 331.893Z" fill="black"/>
</g>
</g>
</g>
<defs>
<clipPath id="clip0_4231_197567">
<rect width="830" height="1290.16" fill="white"/>
</clipPath>
</defs>
</svg>
