<svg width="950" height="1500" viewBox="0 0 950 1500" fill="none" xmlns="http://www.w3.org/2000/svg">
<g clip-path="url(#clip0_4295_46666)">
<rect width="950" height="1500" fill="white"/>
<rect x="-134.136" y="-60.4235" width="1217.18" height="1620.13" fill="black"/>
<rect x="-134.136" y="-60.4235" width="1217.18" height="1620.13" stroke="#FFD600" stroke-width="31.9915"/>
<path d="M-95.9414 296.444V600.115H58.315H212.571V534.163V468.21H233.574H254.576V534.163V600.115H305.125H355.53L356.399 593.303C356.834 589.389 356.979 559.239 356.689 526.191L356.254 466.036L319.899 465.601L283.544 465.311V387.038V308.765H247.333H211.123V229.767V150.769H174.188H137.254V71.7711V-7.22681H86.5592H35.8646V71.7711V150.769H14.8625H-6.13953V71.7711V-7.22681H-51.0405H-95.9414V296.444ZM107.996 230.057L108.285 308.765H87.2834H66.2813V229.767V150.624L86.9937 151.059L107.561 151.494L107.996 230.057ZM181.865 387.328L182.155 465.311H160.428H138.702V388.053C138.702 345.437 139.137 310.214 139.716 309.635C140.295 309.2 149.855 308.91 161.008 309.055L181.431 309.49L181.865 387.328Z" fill="white"/>
<path d="M212.574 71.7716V150.77H247.336H282.098V71.7716V-7.22638H247.336H212.574V71.7716Z" fill="white"/>
<path d="M389.277 71.7716V150.77H408.107H426.936V71.7716V-7.22638H408.107H389.277V71.7716Z" fill="white"/>
<path d="M284.988 229.77V308.768H319.75H354.512V229.77V150.772H319.75H284.988V229.77Z" fill="white"/>
<path d="M461.695 229.77V308.768H480.525H499.354V229.77V150.772H480.525H461.695V229.77Z" fill="white"/>
<path d="M358.133 311.956C357.699 313.841 357.554 349.499 357.699 391.389L358.133 467.488L393.33 467.923L428.382 468.213V388.49V308.768H393.62H358.858L358.133 311.956Z" fill="white"/>
<path d="M534.121 388.49V468.213H553.675H573.228L572.939 388.78L572.504 309.492L553.385 309.057L534.121 308.623V388.49Z" fill="white"/>
<path d="M431.281 532.713V600.115H466.043H500.805V532.713V465.311H466.043H431.281V532.713Z" fill="white"/>
<path d="M608.426 466.326C606.977 466.906 606.543 481.256 606.543 531.264C606.543 566.632 606.977 596.491 607.412 597.796C608.136 599.68 611.323 600.115 626.966 600.115H645.65V532.713V465.311L627.98 465.456C618.13 465.456 609.295 465.891 608.426 466.326Z" fill="white"/>
<path d="M783.25 533.438V600.115H786.871H790.492V533.438V466.761H786.871H783.25V533.438Z" fill="white"/>
<g clip-path="url(#clip1_4295_46666)">
<path d="M-3.20312 793.146V1422.15H54.6563C54.6563 1420.99 54.8098 1136.05 54.8098 791.697L55.0998 165.596L25.8033 164.726L-3.20312 163.856V793.146Z" fill="white"/>
<path d="M89.6211 793.148V1422.44H144.153V792.278L144.733 164.147H117.177H89.6211V793.148Z" fill="white"/>
<path d="M182.148 165.309C181.278 166.179 182.148 1420.12 182.148 1420.12H230.359C230.359 1420.12 230.009 1133.45 229.429 789.382L228.849 164.15H206.224C193.751 164.15 182.729 164.73 182.148 165.309Z" fill="white"/>
<path d="M272.94 792.29L273.81 1420.71C273.81 1420.71 316.02 1420.7 316.02 1420.71C316.02 1420.71 315.869 1133.46 315.869 793.16C315.869 452.862 315.869 171.986 315.869 169.088C315.869 164.74 312.968 164.16 294.114 164.16H272.359L272.94 792.29Z" fill="white"/>
<path d="M365.184 793.146V1422.15H384.038H402.892L403.472 911.12C404.052 630.244 404.052 347.339 403.472 282.12L402.892 164.146H384.038H365.184V793.146Z" fill="white"/>
<path d="M456.066 164.048L458.655 1420.7H491.358L490.928 164.048H456.066Z" fill="white"/>
<path d="M549.372 1420.71C549.372 1420.71 578.778 1420.7 578.778 1420.71C578.778 1420.72 576.348 164.156 576.348 164.156H547.922L549.372 1420.71Z" fill="white"/>
<path d="M641.322 792.279L642.193 1420.7H652.345H662.497L663.367 792.279L663.947 164.148H652.345H640.742L641.322 792.279Z" fill="white"/>
<path d="M732.116 167.627C731.245 169.656 730.955 452.561 731.245 796.047L732.116 1420.7H742.268H752.42L752.13 793.148L751.84 165.598L742.558 164.728C737.047 164.148 732.986 165.308 732.116 167.627Z" fill="white"/>
<path d="M823.484 792.567V1421.28L832.186 1421.57L840.888 1421.86L840.308 793.727L839.438 165.596L831.606 164.727L823.484 163.857V792.567Z" fill="white"/>
<path d="M916.301 793.146C916.301 1350.26 916.881 1422.15 920.652 1422.15C924.423 1422.15 925.003 1350.26 925.003 793.146C925.003 236.032 924.423 164.146 920.652 164.146C916.881 164.146 916.301 236.032 916.301 793.146Z" fill="white"/>
<path d="M1007.96 170.817C1006.8 175.454 1005.93 850.833 1006.22 1421.28C1006.22 1424.18 996.647 1425.05 968.51 1425.05H931.092L929.352 1434.61C928.191 1439.83 927.901 1457.8 928.481 1474.62L929.352 1504.76L972.281 1505.63L1014.92 1506.5V836.919C1014.92 450.823 1013.76 166.759 1012.31 165.889C1010.86 165.019 1009.12 167.048 1007.96 170.817Z" fill="white"/>
<path d="M60.6133 1506.21H87.0091V1424.76H60.6133V1506.21Z" fill="white"/>
<path d="M147.633 1465.63V1506.21H162.136H176.639V1465.63V1425.05H162.136H147.633V1465.63Z" fill="white"/>
<path d="M234.648 1465.63V1506.21H252.052H269.456V1465.63V1425.05H252.052H234.648V1465.63Z" fill="white"/>
<path d="M322.395 1506.4H363.004C363.004 1507.31 363.004 1425.24 363.004 1425.24H322.395V1506.4Z" fill="white"/>
<path d="M409.296 1506.21L429.89 1506.21H452.225V1465.63V1425.05H430.761H409.296C409.272 1425.05 409.295 1506.21 409.296 1506.21Z" fill="white"/>
<path d="M495.707 1465.63V1506.21H520.363H545.018V1465.63V1425.05H520.363H495.707V1465.63Z" fill="white"/>
<path d="M582.727 1465.63V1506.21H610.283H638.129L637.259 1466.21L636.388 1426.5L609.703 1425.63L582.727 1424.76V1465.63Z" fill="white"/>
<path d="M669.749 1432.88C669.459 1437.51 669.459 1455.19 669.169 1472.88L668.879 1504.76L698.465 1505.63L727.762 1506.5V1465.63V1425.05H698.756H669.749V1432.88Z" fill="white"/>
<path d="M756.763 1432.88C756.763 1437.51 756.183 1455.19 755.893 1472.88L755.312 1504.76L788.09 1505.63L820.577 1506.5V1465.63V1425.05H788.67H756.763V1432.88Z" fill="white"/>
<path d="M843.496 1429.98C843.206 1436.35 843.496 1490.56 843.496 1499.54C843.786 1506.21 844.366 1506.21 878.014 1506.21H912.241L913.112 1483.6C913.402 1471.43 912.822 1453.16 911.661 1443.02L909.921 1425.05H876.854C847.267 1425.05 843.786 1425.63 843.496 1429.98Z" fill="white"/>
</g>
<rect width="215.207" height="215.207" transform="translate(897.207 58) rotate(90)" fill="black"/>
<circle cx="789.604" cy="165.602" r="95.0471" transform="rotate(90 789.604 165.602)" fill="#FFD600" stroke="white" stroke-width="25.1129"/>
<circle cx="789.546" cy="165.605" r="63.5714" transform="rotate(90 789.546 165.605)" fill="black"/>
<path d="M800.286 169.915L827.949 169.915L827.949 156.348L805.798 156.348L797.637 147.127L797.637 126.672L784.494 126.672L784.494 154.123L800.286 169.915Z" fill="white"/>
<path d="M779.089 160.271L751.426 160.271L751.426 173.837L773.577 173.837L781.738 183.058L781.738 203.514L794.881 203.514L794.881 176.063L779.089 160.271Z" fill="white"/>
</g>
<defs>
<clipPath id="clip0_4295_46666">
<rect width="950" height="1500" fill="white"/>
</clipPath>
<clipPath id="clip1_4295_46666">
<rect width="1110.79" height="886.481" fill="white" transform="translate(-95.9414 620.037)"/>
</clipPath>
</defs>
</svg>
