<svg width="831" height="1291" viewBox="0 0 831 1291" fill="none" xmlns="http://www.w3.org/2000/svg">
<g clip-path="url(#clip0_4231_197698)">
<rect width="830" height="1290.16" transform="translate(0.5 0.078125)" fill="white"/>
<rect width="1008" height="1433.91" transform="translate(-88 -72.1797)" fill="#FFD600"/>
<path d="M312.158 1205.14C181.972 1090.48 102.008 897.19 88.0073 725.838C70.8024 515.478 124.785 289.045 266.882 129.534C290.426 103.065 375.893 25.256 406.263 16.758C432.662 9.37462 502.944 67.3913 524.886 87.243C810.264 345.455 818.274 882.22 563.196 1164.25C540.976 1188.84 455.091 1265.07 427.368 1272.8C401.596 1279.98 333.891 1224.29 312.158 1205.14Z" fill="black"/>
<rect width="526.406" height="526.406" transform="translate(683.039 379.986) rotate(90)" fill="black"/>
<circle cx="419.836" cy="643.187" r="232.489" transform="rotate(90 419.836 643.187)" fill="#FFD600" stroke="white" stroke-width="61.4273"/>
<circle cx="419.693" cy="643.194" r="155.498" transform="rotate(90 419.693 643.194)" fill="black"/>
<path d="M445.965 653.733L513.629 653.733L513.629 620.549L459.446 620.549L439.483 597.994L439.483 547.959L407.336 547.959L407.336 615.105L445.965 653.733Z" fill="white"/>
<path d="M394.117 630.144L326.453 630.144L326.453 663.328L380.636 663.328L400.599 685.883L400.599 735.918L432.746 735.918L432.746 668.772L394.117 630.144Z" fill="white"/>
<rect width="736" height="1046.98" transform="translate(48 121.283)" fill="#FFD600"/>
<path d="M340.179 1053.93C245.123 970.211 186.736 829.076 176.514 703.961C163.951 550.366 203.367 385.034 307.121 268.565C324.311 249.239 386.716 192.426 408.89 186.221C428.166 180.83 479.483 223.191 495.504 237.686C703.875 426.222 709.724 818.145 523.477 1024.08C507.253 1042.03 444.543 1097.69 424.301 1103.33C405.483 1108.57 356.047 1067.91 340.179 1053.93Z" fill="black"/>
<rect width="384.36" height="384.36" transform="translate(610.98 451.436) rotate(90)" fill="black"/>
<circle cx="418.801" cy="643.614" r="169.754" transform="rotate(90 418.801 643.614)" fill="#FFD600" stroke="white" stroke-width="44.8517"/>
<circle cx="418.696" cy="643.619" r="113.539" transform="rotate(90 418.696 643.619)" fill="black"/>
<path d="M437.879 651.314L487.285 651.314L487.285 627.084L447.723 627.084L433.147 610.616L433.147 574.082L409.675 574.082L409.675 623.109L437.879 651.314Z" fill="white"/>
<path d="M400.023 634.09L350.617 634.09L350.617 658.32L390.18 658.32L404.755 674.789L404.755 711.322L428.228 711.322L428.228 662.295L400.023 634.09Z" fill="white"/>
<rect width="548" height="779.544" transform="translate(142 255)" fill="#FFD600"/>
<path d="M359.547 949.414C288.772 887.083 245.299 781.999 237.687 688.843C228.334 574.481 257.682 451.38 334.933 364.662C347.732 350.272 394.197 307.971 410.707 303.351C425.059 299.337 463.268 330.878 475.197 341.67C630.343 482.048 634.698 773.86 496.024 927.189C483.944 940.556 437.253 981.997 422.181 986.2C408.17 990.101 371.362 959.828 359.547 949.414Z" fill="black"/>
<rect width="286.181" height="286.181" transform="translate(561.176 500.82) rotate(90)" fill="black"/>
<circle cx="418.085" cy="643.909" r="126.393" transform="rotate(90 418.085 643.909)" fill="#FFD600" stroke="white" stroke-width="33.395"/>
<circle cx="418.006" cy="643.914" r="84.5368" transform="rotate(90 418.006 643.914)" fill="black"/>
<path d="M432.292 649.643L469.078 649.643L469.078 631.602L439.621 631.602L428.769 619.34L428.769 592.139L411.292 592.139L411.292 628.643L432.292 649.643Z" fill="white"/>
<path d="M404.106 636.818L367.32 636.818L367.32 654.859L396.777 654.859L407.63 667.121L407.63 694.322L425.106 694.322L425.106 657.818L404.106 636.818Z" fill="white"/>
</g>
<defs>
<clipPath id="clip0_4231_197698">
<rect width="830" height="1290.16" fill="white" transform="translate(0.5 0.078125)"/>
</clipPath>
</defs>
</svg>
