<svg width="950" height="1500" viewBox="0 0 950 1500" fill="none" xmlns="http://www.w3.org/2000/svg">
<rect width="950" height="1500" fill="#FFD600"/>
<g clip-path="url(#clip0_4299_28990)">
<rect x="772" y="1359.58" width="594.17" height="1219.38" rx="82.7768" transform="rotate(-180 772 1359.58)" fill="white"/>
<g clip-path="url(#clip1_4299_28990)">
<rect width="591.316" height="594.17" transform="translate(772 1359.58) rotate(-180)" fill="#FFD600"/>
<path d="M769.157 1061.08L479.185 765.423C476.342 765.423 769.157 765.412 769.157 765.412C769.157 765.412 772 1307.91 772 1359.58L476.342 1063.92L476.342 1359.58L180.684 1061.08L473.499 1061.08L180.684 765.423L476.342 765.423L476.342 1061.08L769.157 1061.08Z" fill="black"/>
</g>
<rect width="594.17" height="594.17" transform="translate(772 734.371) rotate(-180)" fill="white"/>
<path fill-rule="evenodd" clip-rule="evenodd" d="M177.83 734.371L772 734.371L772 140.201L177.83 140.201L177.83 734.371ZM232.389 680.356L285.864 680.356L285.864 584.272L421.983 680.356L421.983 581.603L568.905 680.356L568.905 581.603L715.827 677.687L715.827 477.513L662.351 477.513L662.352 576.265L515.43 480.182L515.43 578.934L368.508 480.182L368.508 573.596L232.389 477.513L232.389 680.356ZM259.396 358.797C303.328 408.68 377.392 439.32 443.049 444.685C523.652 451.277 610.414 430.593 671.534 376.145C681.676 367.124 711.49 334.376 714.746 322.739C717.576 312.624 695.345 285.694 687.739 277.286C588.8 167.938 383.128 164.869 275.061 262.607C265.639 271.121 236.432 304.029 233.469 314.652C230.72 324.527 252.057 350.47 259.396 358.797Z" fill="black"/>
<path d="M688.814 358.796C644.883 408.679 570.819 439.319 505.162 444.683C424.558 451.276 337.796 430.591 276.676 376.144C266.534 367.123 236.72 334.374 233.464 322.738C230.635 312.622 252.865 285.692 260.472 277.285C359.411 167.937 565.083 164.868 673.15 262.606C682.571 271.12 711.779 304.028 714.741 314.651C717.491 324.526 696.154 350.468 688.814 358.796Z" fill="#FFD600"/>
<circle cx="473.275" cy="317.293" r="107.623" transform="rotate(-180 473.275 317.293)" fill="black"/>
<path d="M465.976 335.481L465.976 382.312L488.943 382.312L488.943 344.811L504.553 330.995L539.184 330.995L539.184 308.746L492.711 308.746L465.976 335.481Z" fill="white"/>
<path d="M482.313 299.595L482.313 252.764L459.346 252.764L459.346 290.265L443.736 304.081L409.105 304.081L409.105 326.331L455.578 326.331L482.313 299.595Z" fill="white"/>
</g>
<rect x="787.521" y="1375.1" width="625.211" height="1250.42" rx="98.2975" transform="rotate(-180 787.521 1375.1)" stroke="white" stroke-width="31.0413"/>
<defs>
<clipPath id="clip0_4299_28990">
<rect x="772" y="1359.58" width="594.17" height="1219.38" rx="82.7768" transform="rotate(-180 772 1359.58)" fill="white"/>
</clipPath>
<clipPath id="clip1_4299_28990">
<rect width="591.316" height="594.17" fill="white" transform="translate(772 1359.58) rotate(-180)"/>
</clipPath>
</defs>
</svg>
