<svg width="950" height="1500" viewBox="0 0 950 1500" fill="none" xmlns="http://www.w3.org/2000/svg">
<g clip-path="url(#clip0_4295_46551)">
<rect width="950" height="1500" fill="white"/>
<g clip-path="url(#clip1_4295_46551)">
<mask id="mask0_4295_46551" style="mask-type:luminance" maskUnits="userSpaceOnUse" x="-29" y="0" width="1007" height="1500">
<path d="M977.972 0.0429688H-28.8125V1499.07H977.972V0.0429688Z" fill="white"/>
</mask>
<g mask="url(#mask0_4295_46551)">
<path d="M977.972 0.0429688H-28.8125V1499.07H977.972V0.0429688Z" fill="white"/>
<path d="M977.946 1095.45V554.206H977.962C976.011 553.712 975.276 554.523 974.424 555.46C974.103 555.813 973.766 556.185 973.342 556.511C962.591 564.809 951.686 575.194 940.765 585.594C931.904 594.034 923.032 602.481 914.225 609.831C724.275 768.308 491.475 866.846 245.108 778.453C158.811 747.509 81.2161 695.951 14.1338 633.863L-27.3033 590.562C117.552 921.536 528.446 1222.29 783.888 1464.53C635.041 1358.23 496.016 1246.12 355.632 1132.9C233.469 1034.39 63.4776 901.851 -68.1151 804.782L-104.957 1553.72H95.9931H458.911L23.2053 1134.91C208.529 1269.17 393.673 1406.53 578.203 1553.72H1000.18V1368.89C921.248 1308.06 819.913 1210.1 753.608 1141.31L1000.18 1320.59V1122.51L977.946 1095.45Z" fill="black"/>
<mask id="mask1_4295_46551" style="mask-type:alpha" maskUnits="userSpaceOnUse" x="-291" y="-215" width="1341" height="809">
<path d="M978.777 557.347C649.351 233.329 283.617 236.013 -32.5263 593.151L-290.223 -214.213L1049.62 -177.515L978.777 557.347Z" fill="#D9D9D9"/>
</mask>
<g mask="url(#mask1_4295_46551)">
<path d="M978.435 -1.18359H-34.4219V736.365H978.435V-1.18359Z" fill="white"/>
<path fill-rule="evenodd" clip-rule="evenodd" d="M-47.4531 551.879C-13.1467 613.448 29.9095 675.743 70.8931 736.366H181.482C103.643 620.891 29.02 497.12 -36.9539 378.332L-47.4531 551.879Z" fill="black"/>
<path fill-rule="evenodd" clip-rule="evenodd" d="M240.794 710.603L296.726 641.328C182.455 456.876 69.7169 267.599 -36.957 82.0645V241.388C50.2524 395.779 145.438 555.664 240.794 710.603Z" fill="black"/>
<path fill-rule="evenodd" clip-rule="evenodd" d="M86.9689 -1.18359C182.857 169.396 280.498 339.458 387.296 506.783L338.928 577.941C215.711 389.975 107.142 194.442 -1.25 -1.18359H86.9689Z" fill="black"/>
<path fill-rule="evenodd" clip-rule="evenodd" d="M403.232 -1.18359C447.687 79.9645 493.86 160.162 543.203 238.605L504.841 305.66C442.78 204.521 383.909 102.118 327.305 -1.18359H403.232Z" fill="black"/>
<path fill-rule="evenodd" clip-rule="evenodd" d="M247.903 -1.18359C316.835 122.628 387.981 245.948 466.707 367.59L422.076 444.65C335.362 296.58 249.994 147.967 166.008 -1.18359H247.903Z" fill="black"/>
<path fill-rule="evenodd" clip-rule="evenodd" d="M740.814 -1.18359L673.977 54.7788L637.793 -1.18359H740.814Z" fill="black"/>
<path fill-rule="evenodd" clip-rule="evenodd" d="M554.014 -1.18359C575.161 37.842 597.389 76.2732 623.459 112.599L587.312 166.814C551.393 110.816 518.715 54.8164 487.137 -1.18359H554.014Z" fill="black"/>
<path fill-rule="evenodd" clip-rule="evenodd" d="M296.727 640.99C314.915 674.202 334.151 706.401 355.634 736.369H434.874C401.044 684.746 366.969 632.271 339.109 577.943L296.727 640.99Z" fill="black"/>
<path fill-rule="evenodd" clip-rule="evenodd" d="M422.014 444.674C480.726 541.911 541.44 639.129 603.412 736.367H520.984C474.669 660.225 430.357 583.755 387.301 507.072L422.014 444.674Z" fill="black"/>
<path fill-rule="evenodd" clip-rule="evenodd" d="M504.867 305.541L466.699 367.595C534.462 492.786 608.122 615.506 686.212 736.369H769.542C677.78 594.065 588.481 450.551 504.867 305.541Z" fill="black"/>
<path fill-rule="evenodd" clip-rule="evenodd" d="M543.285 238.452C638.553 403.811 739.896 568.812 846.039 736.368H927.688C803 549.723 688.587 361.298 587.208 166.537L543.285 238.452Z" fill="black"/>
<path fill-rule="evenodd" clip-rule="evenodd" d="M735.453 -1.18359L711.473 15.6762C799.727 169.543 888.46 315.828 978.451 450.743V325.446C912.494 216.566 846.893 107.687 789.206 -1.18359H735.453Z" fill="black"/>
<path fill-rule="evenodd" clip-rule="evenodd" d="M623.508 112.639C731.174 307.984 855.13 505.051 979.674 698.772V569.881C868.944 399.394 765.233 226.348 674.02 54.7793L623.508 112.639Z" fill="black"/>
<path fill-rule="evenodd" clip-rule="evenodd" d="M844.996 -1.18286L978.449 213.082L972.735 -11.7148L844.996 -1.18286Z" fill="black"/>
</g>
<path d="M463.083 758.722C567.494 758.722 652.135 673.434 652.135 568.227C652.135 463.02 567.494 377.732 463.083 377.732C358.673 377.732 274.031 463.02 274.031 568.227C274.031 673.434 358.673 758.722 463.083 758.722Z" fill="#FFD600" stroke="black" stroke-width="49.9504"/>
<path d="M463.091 664.619C515.861 664.619 558.639 621.514 558.639 568.342C558.639 515.169 515.861 472.064 463.091 472.064C410.321 472.064 367.543 515.169 367.543 568.342C367.543 621.514 410.321 664.619 463.091 664.619Z" fill="black" stroke="white" stroke-width="4.99504"/>
<path d="M469.74 551.651V508.66H448.816V543.086L434.595 555.768H403.047V576.192H445.383L469.74 551.651Z" fill="white"/>
<path d="M454.859 584.592V627.581H475.784V593.157L490.004 580.473H521.553V560.049H479.216L454.859 584.592Z" fill="white"/>
<path d="M-38.8633 594.923C361.418 169.473 701.13 304.803 975.884 552.465C679.185 22.644 132.309 165.049 -38.8633 594.923Z" fill="black"/>
</g>
</g>
</g>
<defs>
<clipPath id="clip0_4295_46551">
<rect width="950" height="1500" fill="white"/>
</clipPath>
<clipPath id="clip1_4295_46551">
<rect width="1008.72" height="1499.82" fill="white" transform="translate(-29.3828)"/>
</clipPath>
</defs>
</svg>
