<svg width="662" height="210" viewBox="0 0 662 210" fill="none" xmlns="http://www.w3.org/2000/svg">
<g clip-path="url(#clip0_3967_32445)">
<rect x="0.230469" y="0.253906" width="660.783" height="208.997" rx="27.7558" fill="#FFD600"/>
<path d="M-13.4132 33.6895L-17.6957 21.9029V21.5234H-15.6745L-12.2206 31.5676H-12.0425L-8.61959 21.5234H-6.6371V21.9029L-10.9041 33.6895H-13.4132ZM-5.45446 33.6895L-5.45446 21.5234H-3.44098L-3.44098 33.6895H-5.45446ZM3.34066 33.8676L3.30968 33.8985C1.78409 33.8985 0.537286 33.4881 -0.438474 32.6672C-1.41423 31.8463 -1.90211 30.7157 -1.90211 29.283H0.0958707C0.0958707 30.2046 0.390148 30.9093 0.970957 31.3972C1.55177 31.8851 2.34941 32.1329 3.36389 32.1329C4.17703 32.1329 4.79656 31.9625 5.21474 31.6218C5.63292 31.281 5.84201 30.8086 5.84201 30.2046C5.84201 29.9181 5.79555 29.678 5.70262 29.4766C5.60969 29.2753 5.44706 29.1049 5.22248 28.9655C4.9979 28.8261 4.78881 28.7255 4.59521 28.6558C4.40161 28.5861 4.12282 28.5009 3.75884 28.4002L1.66018 27.8271C1.35816 27.7342 1.11035 27.6568 0.924493 27.5948C0.738633 27.5329 0.475333 27.4167 0.134591 27.2386C-0.20615 27.0605 -0.469451 26.8669 -0.663054 26.6655C-0.856657 26.4642 -1.03477 26.1854 -1.1974 25.8369C-1.36003 25.4884 -1.44521 25.0935 -1.44521 24.6598C-1.44521 23.6221 -1.03477 22.809 -0.221639 22.2281C0.591495 21.6473 1.61372 21.3531 2.84504 21.3531C4.11507 21.3531 5.19925 21.6783 6.08983 22.3366C6.9804 22.9948 7.46054 23.9009 7.52249 25.0625H5.46255C5.39286 24.4507 5.1373 23.9706 4.69588 23.6221C4.25447 23.2736 3.63494 23.0955 2.82955 23.0955C2.10934 23.0955 1.55177 23.2349 1.14907 23.5059C0.746378 23.777 0.54503 24.1487 0.54503 24.6211C0.54503 25.0315 0.699913 25.3335 1.00193 25.5349C1.30395 25.7362 1.7686 25.9221 2.39588 26.0925L4.71137 26.743C5.05986 26.8436 5.32316 26.9211 5.49353 26.983C5.6639 27.045 5.9272 27.1689 6.28343 27.3548C6.63966 27.5406 6.9107 27.7342 7.09656 27.9433C7.28242 28.1524 7.45279 28.4389 7.60768 28.8107C7.76256 29.1824 7.84 29.6083 7.84 30.0807C7.84 31.2423 7.42956 32.1639 6.61643 32.8453C5.80329 33.5268 4.71137 33.8676 3.34066 33.8676ZM13.8008 33.8676L13.793 33.8831C12.3139 33.8831 11.1833 33.5346 10.4088 32.8453C9.59571 32.1484 9.19301 30.9325 9.20076 29.1979V21.5389H11.2142V28.8029C11.2142 30.0807 11.4388 30.9558 11.8802 31.4282C12.2907 31.8541 12.9334 32.0632 13.8008 32.0632C14.6759 32.0632 15.3186 31.8463 15.7213 31.4127C16.1627 30.9558 16.3873 30.0807 16.3873 28.7874V21.5234H18.4008V29.1824C18.4008 30.9171 17.9981 32.1251 17.1927 32.8144C16.4028 33.5191 15.2722 33.8676 13.8008 33.8676ZM25.6393 21.5234L29.9063 33.31V33.6895H27.9238L27.0178 31.0255H21.7828L20.8689 33.6895H18.8477V33.31L23.1302 21.5234H25.6393ZM22.4023 29.2366H26.3983L24.5009 23.6376H24.3228L22.4023 29.2366ZM31.089 33.6895V21.5234H33.1025V31.8851H38.353V33.6895H31.089ZM42.7162 33.6895L42.724 21.5234L46.4334 21.5234C48.7179 21.5234 50.321 21.9184 51.2503 22.716C52.4506 23.7228 53.0547 25.38 53.0624 27.6955C53.0624 29.8329 52.5203 31.3894 51.4284 32.3575C50.925 32.8299 50.2745 33.1706 49.4769 33.3797C48.6792 33.5888 47.657 33.6895 46.4102 33.6895H42.7162ZM44.7375 31.9006L46.2088 31.8928C47.2388 31.8928 48.0365 31.8154 48.6095 31.6605C49.1826 31.5056 49.6317 31.2733 49.957 30.9558C50.6772 30.2511 51.0412 29.1359 51.0489 27.6103C51.0489 26.0383 50.7082 24.9076 50.019 24.2261C49.3917 23.6143 48.1913 23.3123 46.4179 23.3201H44.7375V31.9006ZM54.7794 33.6895V21.5234H62.5003V23.3201L56.7929 23.3201V26.5184H62.0434V28.315L56.7929 28.315V31.9006H62.8488V33.6895H54.7794ZM68.8095 33.8676L68.7786 33.8985C67.253 33.8985 66.0062 33.4881 65.0304 32.6672C64.0546 31.8463 63.5668 30.7157 63.5668 29.283H65.5647C65.5647 30.2046 65.859 30.9093 66.4398 31.3972C67.0206 31.8851 67.8183 32.1329 68.8328 32.1329C69.6459 32.1329 70.2654 31.9625 70.6836 31.6218C71.1018 31.281 71.3109 30.8086 71.3109 30.2046C71.3109 29.9181 71.2644 29.678 71.1715 29.4766C71.0786 29.2753 70.9159 29.1049 70.6914 28.9655C70.4668 28.8261 70.2577 28.7255 70.0641 28.6558C69.8705 28.5861 69.5917 28.5009 69.2277 28.4002L67.1291 27.8271C66.827 27.7342 66.5792 27.6568 66.3934 27.5948C66.2075 27.5329 65.9442 27.4167 65.6035 27.2386C65.2627 27.0605 64.9994 26.8669 64.8058 26.6655C64.6122 26.4642 64.4341 26.1854 64.2715 25.8369C64.1088 25.4884 64.0237 25.0935 64.0237 24.6598C64.0237 23.6221 64.4341 22.809 65.2472 22.2281C66.0604 21.6473 67.0826 21.3531 68.3139 21.3531C69.5839 21.3531 70.6681 21.6783 71.5587 22.3366C72.4493 22.9948 72.9294 23.9009 72.9914 25.0625H70.9314C70.8617 24.4507 70.6062 23.9706 70.1648 23.6221C69.7233 23.2736 69.1038 23.0955 68.2984 23.0955C67.5782 23.0955 67.0206 23.2349 66.6179 23.5059C66.2152 23.777 66.0139 24.1487 66.0139 24.6211C66.0139 25.0315 66.1688 25.3335 66.4708 25.5349C66.7728 25.7362 67.2375 25.9221 67.8647 26.0925L70.1802 26.743C70.5287 26.8436 70.792 26.9211 70.9624 26.983C71.1328 27.045 71.3961 27.1689 71.7523 27.3548C72.1085 27.5406 72.3796 27.7342 72.5654 27.9433C72.7513 28.1524 72.9217 28.4389 73.0765 28.8107C73.2314 29.1824 73.3089 29.6083 73.3089 30.0807C73.3089 31.2423 72.8984 32.1639 72.0853 32.8453C71.2722 33.5268 70.1802 33.8676 68.8095 33.8676ZM74.7238 33.6895V21.5234H76.7373V33.6895H74.7238ZM84.5876 28.95L84.6109 27.1844H89.7917V33.7204H88.2119L88.0338 32.5123H87.8092C87.4685 32.9228 86.9806 33.2635 86.3533 33.5346C85.7415 33.7669 85.0368 33.8831 84.2469 33.8908C82.458 33.8908 81.0408 33.3177 79.9954 32.1793C78.9499 31.041 78.4233 29.4999 78.4233 27.5638C78.4233 25.6588 78.9344 24.1487 79.9566 23.0335C80.9789 21.9184 82.3806 21.3608 84.154 21.3608C85.6873 21.3608 86.9651 21.7712 87.9873 22.5921C89.0095 23.413 89.6058 24.5359 89.7839 25.9686H87.724C87.5614 25.0935 87.1587 24.4042 86.5159 23.9009C85.8732 23.3975 85.0833 23.1419 84.1462 23.1419C82.9846 23.1419 82.0708 23.5369 81.4048 24.3345C80.7388 25.1322 80.4058 26.2086 80.4058 27.5638C80.4058 28.9655 80.7698 30.0652 81.4977 30.8628C82.2257 31.6605 83.2402 32.0554 84.5334 32.0554C85.486 32.0554 86.2449 31.8154 86.8102 31.343C87.5149 30.7622 87.8944 29.9645 87.9486 28.95L84.5876 28.95ZM91.9114 33.6895V21.5234H95.3343L100.089 31.9006H100.267V21.5234H102.281V33.6895H98.8346L94.0952 23.3201H93.9249V33.6895H91.9114Z" fill="#101010"/>
<path d="M137.778 28.1164L141.311 27.4389L137.746 26.9579C135.202 26.6144 133.162 24.684 132.678 22.163L132.001 18.6303L131.519 22.195C131.176 24.7389 129.246 26.7791 126.725 27.2628L123.192 27.9401L126.757 28.4213C129.301 28.7647 131.341 30.6951 131.824 33.2163L132.502 36.749L132.983 33.1842C133.327 30.6401 135.257 28.5999 137.778 28.1164Z" fill="#101010"/>
<path d="M161.515 33.6895L161.507 21.5234H165.341C166.696 21.5234 167.664 21.7325 168.245 22.1584C169.104 22.7625 169.53 23.7228 169.53 25.047C169.53 26.3558 169.112 27.316 168.276 27.9201C167.664 28.377 166.688 28.6016 165.348 28.6016H163.529V33.6895H161.515ZM163.521 26.8049H165.008C166.014 26.8049 166.68 26.6578 167.006 26.3635C167.346 26.0925 167.517 25.6433 167.517 25.016C167.517 24.443 167.346 24.0093 167.006 23.715C166.704 23.4517 166.038 23.3201 165.008 23.3201H163.521V26.8049ZM176.668 28.4234L179.681 33.2868V33.6817H177.621L174.593 28.5938L172.866 28.5938V33.6817H170.852V21.5157H174.686C176.041 21.5157 177.009 21.7248 177.59 22.1507C178.449 22.7547 178.875 23.715 178.875 25.0393C178.875 26.348 178.457 27.3083 177.621 27.9123C177.319 28.1369 177.001 28.2918 176.668 28.377V28.4234ZM172.866 23.3123V26.7972H174.353C175.359 26.7972 176.025 26.65 176.351 26.3558C176.691 26.0847 176.862 25.6356 176.862 25.0083C176.862 24.4352 176.691 24.0015 176.351 23.7073C176.049 23.444 175.383 23.3123 174.353 23.3123H172.866ZM185.905 33.8676L185.897 33.8831C184.155 33.8831 182.761 33.3022 181.715 32.1484C180.67 30.9945 180.151 29.4844 180.151 27.6258C180.151 25.7595 180.677 24.2494 181.723 23.0955C182.768 21.9416 184.162 21.3608 185.905 21.3608C187.663 21.3608 189.064 21.9339 190.11 23.0877C191.155 24.2416 191.682 25.7517 191.682 27.6258C191.682 29.4844 191.155 30.9868 190.11 32.1406C189.064 33.2945 187.663 33.8676 185.905 33.8676ZM185.897 32.0709L185.905 32.0787C187.074 32.0787 187.996 31.676 188.662 30.8783C189.328 30.0807 189.661 28.9965 189.661 27.6335C189.661 26.2628 189.328 25.1709 188.662 24.3655C187.996 23.5601 187.074 23.1574 185.897 23.1574C184.735 23.1574 183.822 23.5601 183.156 24.3655C182.49 25.1709 182.157 26.2628 182.157 27.6413C182.157 29.0043 182.49 30.0807 183.156 30.8783C183.822 31.676 184.735 32.0709 185.897 32.0709ZM193.337 33.6895L193.345 21.5234H197.054C199.339 21.5234 200.942 21.9184 201.871 22.716C203.071 23.7228 203.675 25.38 203.683 27.6955C203.683 29.8329 203.141 31.3894 202.049 32.3575C201.546 32.8299 200.895 33.1706 200.097 33.3797C199.3 33.5888 198.278 33.6895 197.031 33.6895H193.337ZM195.358 31.9006L196.829 31.8928C197.859 31.8928 198.657 31.8154 199.23 31.6605C199.803 31.5056 200.252 31.2733 200.578 30.9558C201.298 30.2511 201.662 29.1359 201.67 27.6103C201.67 26.0383 201.329 24.9076 200.64 24.2261C200.012 23.6143 198.812 23.3123 197.039 23.3201H195.358V31.9006ZM209.76 33.8676L209.752 33.8831C208.273 33.8831 207.142 33.5346 206.368 32.8453C205.555 32.1484 205.152 30.9325 205.16 29.1979V21.5389H207.173V28.8029C207.173 30.0807 207.398 30.9558 207.839 31.4282C208.25 31.8541 208.893 32.0632 209.76 32.0632C210.635 32.0632 211.278 31.8463 211.68 31.4127C212.122 30.9558 212.346 30.0807 212.346 28.7874V21.5234H214.36V29.1824C214.36 30.9171 213.957 32.1251 213.152 32.8144C212.362 33.5191 211.231 33.8676 209.76 33.8676ZM221.552 33.8676L221.544 33.8521C219.786 33.8521 218.392 33.2868 217.355 32.1561C216.317 31.0255 215.798 29.5076 215.798 27.6103C215.798 25.6975 216.317 24.1719 217.355 23.0413C218.392 21.9106 219.794 21.3453 221.552 21.3453C223.054 21.3453 224.293 21.7557 225.269 22.5766C226.245 23.3975 226.834 24.5281 227.035 25.9686H224.959C224.797 25.0935 224.417 24.4042 223.821 23.9086C223.225 23.413 222.466 23.1652 221.544 23.1652C220.383 23.1652 219.469 23.5601 218.803 24.3578C218.137 25.1554 217.804 26.2396 217.804 27.6026C217.804 28.9655 218.137 30.042 218.803 30.8319C219.469 31.6218 220.383 32.0167 221.544 32.0167C222.466 32.0167 223.225 31.7767 223.821 31.2888C224.417 30.8009 224.805 30.1194 224.975 29.2443H227.035C226.834 30.6847 226.245 31.8154 225.269 32.6363C224.293 33.4571 223.054 33.8676 221.552 33.8676ZM230.99 33.6895V23.3201H227.118V21.5234H236.906V23.3201H233.003V33.6895H230.99ZM241.277 33.6895L241.285 21.5234H244.995C247.279 21.5234 248.882 21.9184 249.811 22.716C251.012 23.7228 251.616 25.38 251.624 27.6955C251.624 29.8329 251.081 31.3894 249.99 32.3575C249.486 32.8299 248.836 33.1706 248.038 33.3797C247.24 33.5888 246.218 33.6895 244.971 33.6895H241.277ZM243.299 31.9006L244.77 31.8928C245.8 31.8928 246.598 31.8154 247.171 31.6605C247.744 31.5056 248.193 31.2733 248.518 30.9558C249.238 30.2511 249.602 29.1359 249.61 27.6103C249.61 26.0383 249.269 24.9076 248.58 24.2261C247.953 23.6143 246.753 23.3123 244.979 23.3201H243.299V31.9006ZM253.341 33.6895V21.5234L261.061 21.5234V23.3201H255.354V26.5184H260.605V28.315H255.354V31.9006L261.41 31.9006V33.6895L253.341 33.6895ZM267.371 33.8676L267.34 33.8985C265.814 33.8985 264.567 33.4881 263.592 32.6672C262.616 31.8463 262.128 30.7157 262.128 29.283H264.126C264.126 30.2046 264.42 30.9093 265.001 31.3972C265.582 31.8851 266.379 32.1329 267.394 32.1329C268.207 32.1329 268.827 31.9625 269.245 31.6218C269.663 31.281 269.872 30.8086 269.872 30.2046C269.872 29.9181 269.826 29.678 269.733 29.4766C269.64 29.2753 269.477 29.1049 269.253 28.9655C269.028 28.8261 268.819 28.7255 268.625 28.6558C268.432 28.5861 268.153 28.5009 267.789 28.4002L265.69 27.8271C265.388 27.7342 265.14 27.6568 264.955 27.5948C264.769 27.5329 264.505 27.4167 264.165 27.2386C263.824 27.0605 263.561 26.8669 263.367 26.6655C263.173 26.4642 262.995 26.1854 262.833 25.8369C262.67 25.4884 262.585 25.0935 262.585 24.6598C262.585 23.6221 262.995 22.809 263.808 22.2281C264.622 21.6473 265.644 21.3531 266.875 21.3531C268.145 21.3531 269.229 21.6783 270.12 22.3366C271.01 22.9948 271.491 23.9009 271.553 25.0625L269.493 25.0625C269.423 24.4507 269.167 23.9706 268.726 23.6221C268.285 23.2736 267.665 23.0955 266.86 23.0955C266.139 23.0955 265.582 23.2349 265.179 23.5059C264.776 23.777 264.575 24.1487 264.575 24.6211C264.575 25.0315 264.73 25.3335 265.032 25.5349C265.334 25.7362 265.799 25.9221 266.426 26.0925L268.741 26.743C269.09 26.8436 269.353 26.9211 269.524 26.983C269.694 27.045 269.957 27.1689 270.313 27.3548C270.67 27.5406 270.941 27.7342 271.127 27.9433C271.312 28.1524 271.483 28.4389 271.638 28.8107C271.793 29.1824 271.87 29.6083 271.87 30.0807C271.87 31.2423 271.46 32.1639 270.646 32.8453C269.833 33.5268 268.741 33.8676 267.371 33.8676ZM273.285 33.6895V21.5234H275.299V33.6895H273.285ZM283.149 28.95L283.172 27.1844H288.353V33.7204H286.773L286.595 32.5123H286.37C286.03 32.9228 285.542 33.2635 284.914 33.5346C284.303 33.7669 283.598 33.8831 282.808 33.8908C281.019 33.8908 279.602 33.3177 278.557 32.1793C277.511 31.041 276.985 29.4999 276.985 27.5638C276.985 25.6588 277.496 24.1487 278.518 23.0335C279.54 21.9184 280.942 21.3608 282.715 21.3608C284.248 21.3608 285.526 21.7712 286.549 22.5921C287.571 23.413 288.167 24.5359 288.345 25.9686H286.285C286.123 25.0935 285.72 24.4042 285.077 23.9009C284.434 23.3975 283.644 23.1419 282.707 23.1419C281.546 23.1419 280.632 23.5369 279.966 24.3345C279.3 25.1322 278.967 26.2086 278.967 27.5638C278.967 28.9655 279.331 30.0652 280.059 30.8628C280.787 31.6605 281.801 32.0554 283.095 32.0554C284.047 32.0554 284.806 31.8154 285.371 31.343C286.076 30.7622 286.456 29.9645 286.51 28.95H283.149ZM290.473 33.6895V21.5234L293.895 21.5234L298.65 31.9006H298.828V21.5234H300.842V33.6895H297.396L292.656 23.3201H292.486V33.6895H290.473Z" fill="#101010"/>
<path d="M335.649 28.1164L339.182 27.4389L335.617 26.9579C333.073 26.6144 331.033 24.684 330.549 22.163L329.872 18.6303L329.391 22.195C329.047 24.7389 327.117 26.7791 324.596 27.2628L321.063 27.9401L324.628 28.4213C327.172 28.7647 329.212 30.6951 329.695 33.2163L330.373 36.749L330.854 33.1842C331.198 30.6401 333.128 28.5999 335.649 28.1164Z" fill="#101010"/>
<path d="M362.329 33.6895L358.046 21.9339V21.5234H360.068L363.506 31.614H363.684L365.38 21.5234H368.664L370.375 31.614H370.545L373.992 21.5234H375.974V21.9339L371.723 33.6895H368.911L367.092 23.1574H366.929L365.14 33.6895H362.329ZM377.165 33.6895V21.5234L384.885 21.5234V23.3201H379.178V26.5184L384.429 26.5184V28.315H379.178V31.9006L385.234 31.9006V33.6895H377.165ZM386.92 33.6895L386.912 21.5234H390.474C391.048 21.5234 391.504 21.5312 391.845 21.5544C392.186 21.5776 392.565 21.6551 392.991 21.7867C393.417 21.9184 393.781 22.1042 394.083 22.3443C394.726 22.8632 395.051 23.5989 395.051 24.5514C395.051 25.713 394.556 26.5571 393.564 27.0915V27.2541C394.199 27.4554 394.687 27.8039 395.02 28.2918C395.353 28.7797 395.524 29.3915 395.524 30.1194C395.524 31.3043 395.129 32.2103 394.331 32.8453C393.959 33.1474 393.479 33.3642 392.891 33.4958C392.302 33.6275 391.512 33.6895 390.513 33.6895H386.92ZM388.926 26.4564L390.482 26.4642C391.574 26.4642 392.271 26.3325 392.573 26.0692C392.875 25.8137 393.03 25.4265 393.03 24.9076C393.03 24.3888 392.875 23.9938 392.558 23.7305C392.217 23.4595 391.489 23.3201 390.366 23.3201H388.926V26.4564ZM388.918 31.9083L390.467 31.9006C391.636 31.9006 392.449 31.7302 392.898 31.3894C393.301 31.0719 393.502 30.5918 393.495 29.949C393.495 29.314 393.309 28.8649 392.945 28.6016C392.891 28.5628 392.836 28.5241 392.774 28.4931C392.713 28.4622 392.643 28.4312 392.565 28.408C392.488 28.3847 392.426 28.3615 392.372 28.346C392.318 28.3305 392.24 28.315 392.132 28.3073C392.023 28.2995 391.938 28.2918 391.876 28.2841C391.814 28.2763 391.714 28.2763 391.574 28.2763H391.264H390.893H390.482H388.918V31.9083ZM400.452 33.6895L400.46 21.5234H404.169C406.454 21.5234 408.057 21.9184 408.986 22.716C410.187 23.7228 410.791 25.38 410.798 27.6955C410.798 29.8329 410.256 31.3894 409.164 32.3575C408.661 32.8299 408.01 33.1706 407.213 33.3797C406.415 33.5888 405.393 33.6895 404.146 33.6895L400.452 33.6895ZM402.473 31.9006L403.945 31.8928C404.975 31.8928 405.772 31.8154 406.346 31.6605C406.919 31.5056 407.368 31.2733 407.693 30.9558C408.413 30.2511 408.777 29.1359 408.785 27.6103C408.785 26.0383 408.444 24.9076 407.755 24.2261C407.128 23.6143 405.927 23.3123 404.154 23.3201H402.473V31.9006ZM412.515 33.6895V21.5234L420.236 21.5234V23.3201H414.529V26.5184H419.779V28.315H414.529V31.9006H420.585V33.6895H412.515ZM426.546 33.8676L426.515 33.8985C424.989 33.8985 423.742 33.4881 422.766 32.6672C421.791 31.8463 421.303 30.7157 421.303 29.283H423.301C423.301 30.2046 423.595 30.9093 424.176 31.3972C424.757 31.8851 425.554 32.1329 426.569 32.1329C427.382 32.1329 428.001 31.9625 428.42 31.6218C428.838 31.281 429.047 30.8086 429.047 30.2046C429.047 29.9181 429 29.678 428.907 29.4766C428.815 29.2753 428.652 29.1049 428.427 28.9655C428.203 28.8261 427.994 28.7255 427.8 28.6558C427.606 28.5861 427.328 28.5009 426.964 28.4002L424.865 27.8271C424.563 27.7342 424.315 27.6568 424.129 27.5948C423.943 27.5329 423.68 27.4167 423.339 27.2386C422.999 27.0605 422.735 26.8669 422.542 26.6655C422.348 26.4642 422.17 26.1854 422.007 25.8369C421.845 25.4884 421.76 25.0935 421.76 24.6598C421.76 23.6221 422.17 22.809 422.983 22.2281C423.796 21.6473 424.819 21.3531 426.05 21.3531C427.32 21.3531 428.404 21.6783 429.295 22.3366C430.185 22.9948 430.665 23.9009 430.727 25.0625H428.667C428.598 24.4507 428.342 23.9706 427.901 23.6221C427.459 23.2736 426.84 23.0955 426.034 23.0955C425.314 23.0955 424.757 23.2349 424.354 23.5059C423.951 23.777 423.75 24.1487 423.75 24.6211C423.75 25.0315 423.905 25.3335 424.207 25.5349C424.509 25.7362 424.973 25.9221 425.601 26.0925L427.916 26.743C428.265 26.8436 428.528 26.9211 428.698 26.983C428.869 27.045 429.132 27.1689 429.488 27.3548C429.845 27.5406 430.116 27.7342 430.301 27.9433C430.487 28.1524 430.658 28.4389 430.813 28.8107C430.967 29.1824 431.045 29.6083 431.045 30.0807C431.045 31.2423 430.634 32.1639 429.821 32.8453C429.008 33.5268 427.916 33.8676 426.546 33.8676ZM432.46 33.6895V21.5234H434.473V33.6895H432.46ZM442.324 28.95L442.347 27.1844H447.528V33.7204H445.948L445.77 32.5123H445.545C445.204 32.9228 444.717 33.2635 444.089 33.5346C443.477 33.7669 442.773 33.8831 441.983 33.8908C440.194 33.8908 438.777 33.3177 437.731 32.1793C436.686 31.041 436.159 29.4999 436.159 27.5638C436.159 25.6588 436.67 24.1487 437.693 23.0335C438.715 21.9184 440.117 21.3608 441.89 21.3608C443.423 21.3608 444.701 21.7712 445.723 22.5921C446.746 23.413 447.342 24.5359 447.52 25.9686H445.46C445.297 25.0935 444.895 24.4042 444.252 23.9009C443.609 23.3975 442.819 23.1419 441.882 23.1419C440.721 23.1419 439.807 23.5369 439.141 24.3345C438.475 25.1322 438.142 26.2086 438.142 27.5638C438.142 28.9655 438.506 30.0652 439.234 30.8628C439.962 31.6605 440.976 32.0554 442.269 32.0554C443.222 32.0554 443.981 31.8154 444.546 31.343C445.251 30.7622 445.63 29.9645 445.685 28.95H442.324ZM449.647 33.6895V21.5234H453.07L457.825 31.9006H458.003V21.5234H460.017V33.6895L456.571 33.6895L451.831 23.3201H451.661V33.6895H449.647Z" fill="#101010"/>
<path d="M495.52 28.1164L499.053 27.4389L495.488 26.9579C492.944 26.6144 490.904 24.684 490.42 22.163L489.743 18.6303L489.262 22.195C488.918 24.7389 486.988 26.7791 484.467 27.2628L480.934 27.9401L484.499 28.4213C487.043 28.7647 489.083 30.6951 489.567 33.2163L490.244 36.749L490.725 33.1842C491.069 30.6401 492.999 28.5999 495.52 28.1164Z" fill="#101010"/>
<path d="M519.257 33.6895V21.5234H521.271V33.6895H519.257ZM523.778 33.6895V21.5234H527.201L531.955 31.9006H532.134V21.5234H534.147V33.6895H530.701L525.962 23.3201H525.791V33.6895H523.778ZM536.646 33.6895L536.654 21.5234H540.363C542.648 21.5234 544.251 21.9184 545.18 22.716C546.381 23.7228 546.985 25.38 546.992 27.6955C546.992 29.8329 546.45 31.3894 545.358 32.3575C544.855 32.8299 544.204 33.1706 543.407 33.3797C542.609 33.5888 541.587 33.6895 540.34 33.6895H536.646ZM538.667 31.9006L540.139 31.8928C541.169 31.8928 541.966 31.8154 542.539 31.6605C543.113 31.5056 543.562 31.2733 543.887 30.9558C544.607 30.2511 544.971 29.1359 544.979 27.6103C544.979 26.0383 544.638 24.9076 543.949 24.2261C543.322 23.6143 542.121 23.3123 540.348 23.3201H538.667V31.9006ZM553.069 33.8676L553.062 33.8831C551.582 33.8831 550.452 33.5346 549.677 32.8453C548.864 32.1484 548.462 30.9325 548.469 29.1979V21.5389H550.483V28.8029C550.483 30.0807 550.707 30.9558 551.149 31.4282C551.559 31.8541 552.202 32.0632 553.069 32.0632C553.944 32.0632 554.587 31.8463 554.99 31.4127C555.431 30.9558 555.656 30.0807 555.656 28.7874V21.5234H557.669V29.1824C557.669 30.9171 557.267 32.1251 556.461 32.8144C555.671 33.5191 554.541 33.8676 553.069 33.8676ZM564.226 33.8676L564.195 33.8985C562.67 33.8985 561.423 33.4881 560.447 32.6672C559.471 31.8463 558.984 30.7157 558.984 29.283H560.982C560.982 30.2046 561.276 30.9093 561.857 31.3972C562.437 31.8851 563.235 32.1329 564.25 32.1329C565.063 32.1329 565.682 31.9625 566.1 31.6218C566.519 31.281 566.728 30.8086 566.728 30.2046C566.728 29.9181 566.681 29.678 566.588 29.4766C566.495 29.2753 566.333 29.1049 566.108 28.9655C565.884 28.8261 565.675 28.7255 565.481 28.6558C565.287 28.5861 565.009 28.5009 564.645 28.4002L562.546 27.8271C562.244 27.7342 561.996 27.6568 561.81 27.5948C561.624 27.5329 561.361 27.4167 561.02 27.2386C560.68 27.0605 560.416 26.8669 560.223 26.6655C560.029 26.4642 559.851 26.1854 559.688 25.8369C559.526 25.4884 559.44 25.0935 559.44 24.6598C559.44 23.6221 559.851 22.809 560.664 22.2281C561.477 21.6473 562.499 21.3531 563.731 21.3531C565.001 21.3531 566.085 21.6783 566.976 22.3366C567.866 22.9948 568.346 23.9009 568.408 25.0625H566.348C566.279 24.4507 566.023 23.9706 565.582 23.6221C565.14 23.2736 564.521 23.0955 563.715 23.0955C562.995 23.0955 562.437 23.2349 562.035 23.5059C561.632 23.777 561.431 24.1487 561.431 24.6211C561.431 25.0315 561.586 25.3335 561.888 25.5349C562.19 25.7362 562.654 25.9221 563.282 26.0925L565.597 26.743C565.946 26.8436 566.209 26.9211 566.379 26.983C566.55 27.045 566.813 27.1689 567.169 27.3548C567.525 27.5406 567.796 27.7342 567.982 27.9433C568.168 28.1524 568.338 28.4389 568.493 28.8107C568.648 29.1824 568.726 29.6083 568.726 30.0807C568.726 31.2423 568.315 32.1639 567.502 32.8453C566.689 33.5268 565.597 33.8676 564.226 33.8676ZM572.797 33.6895V23.3201H568.925V21.5234H578.713V23.3201H574.81V33.6895H572.797ZM585.681 28.4234L588.693 33.2868V33.6817H586.633L583.605 28.5938H581.879V33.6817L579.865 33.6817V21.5157L583.698 21.5157C585.054 21.5157 586.022 21.7248 586.602 22.1507C587.462 22.7547 587.888 23.715 587.888 25.0393C587.888 26.348 587.47 27.3083 586.633 27.9123C586.331 28.1369 586.014 28.2918 585.681 28.377V28.4234ZM581.879 23.3123V26.7972H583.365C584.372 26.7972 585.038 26.65 585.363 26.3558C585.704 26.0847 585.875 25.6356 585.875 25.0083C585.875 24.4352 585.704 24.0015 585.363 23.7073C585.061 23.444 584.395 23.3123 583.365 23.3123H581.879ZM590.023 33.6895V21.5234H592.037V33.6895H590.023ZM599.995 21.5234L604.262 33.31V33.6895H602.28L601.374 31.0255L596.139 31.0255L595.225 33.6895H593.204V33.31L597.486 21.5234H599.995ZM596.758 29.2366H600.754L598.857 23.6376H598.679L596.758 29.2366ZM605.445 33.6895V21.5234H607.459V31.8851H612.709V33.6895H605.445ZM617.072 33.6895L617.08 21.5234H620.789C623.074 21.5234 624.677 21.9184 625.606 22.716C626.807 23.7228 627.411 25.38 627.418 27.6955C627.418 29.8329 626.876 31.3894 625.784 32.3575C625.281 32.8299 624.631 33.1706 623.833 33.3797C623.035 33.5888 622.013 33.6895 620.766 33.6895L617.072 33.6895ZM619.094 31.9006L620.565 31.8928C621.595 31.8928 622.393 31.8154 622.966 31.6605C623.539 31.5056 623.988 31.2733 624.313 30.9558C625.033 30.2511 625.397 29.1359 625.405 27.6103C625.405 26.0383 625.064 24.9076 624.375 24.2261C623.748 23.6143 622.547 23.3123 620.774 23.3201H619.094V31.9006ZM629.135 33.6895V21.5234H636.856V23.3201L631.149 23.3201V26.5184H636.399V28.315H631.149V31.9006H637.205V33.6895H629.135ZM643.166 33.8676L643.135 33.8985C641.609 33.8985 640.362 33.4881 639.386 32.6672C638.411 31.8463 637.923 30.7157 637.923 29.283H639.921C639.921 30.2046 640.215 30.9093 640.796 31.3972C641.377 31.8851 642.174 32.1329 643.189 32.1329C644.002 32.1329 644.621 31.9625 645.04 31.6218C645.458 31.281 645.667 30.8086 645.667 30.2046C645.667 29.9181 645.62 29.678 645.528 29.4766C645.435 29.2753 645.272 29.1049 645.047 28.9655C644.823 28.8261 644.614 28.7255 644.42 28.6558C644.227 28.5861 643.948 28.5009 643.584 28.4002L641.485 27.8271C641.183 27.7342 640.935 27.6568 640.749 27.5948C640.564 27.5329 640.3 27.4167 639.96 27.2386C639.619 27.0605 639.355 26.8669 639.162 26.6655C638.968 26.4642 638.79 26.1854 638.628 25.8369C638.465 25.4884 638.38 25.0935 638.38 24.6598C638.38 23.6221 638.79 22.809 639.603 22.2281C640.416 21.6473 641.439 21.3531 642.67 21.3531C643.94 21.3531 645.024 21.6783 645.915 22.3366C646.805 22.9948 647.285 23.9009 647.347 25.0625H645.287C645.218 24.4507 644.962 23.9706 644.521 23.6221C644.079 23.2736 643.46 23.0955 642.654 23.0955C641.934 23.0955 641.377 23.2349 640.974 23.5059C640.571 23.777 640.37 24.1487 640.37 24.6211C640.37 25.0315 640.525 25.3335 640.827 25.5349C641.129 25.7362 641.594 25.9221 642.221 26.0925L644.536 26.743C644.885 26.8436 645.148 26.9211 645.318 26.983C645.489 27.045 645.752 27.1689 646.108 27.3548C646.465 27.5406 646.736 27.7342 646.921 27.9433C647.107 28.1524 647.278 28.4389 647.433 28.8107C647.587 29.1824 647.665 29.6083 647.665 30.0807C647.665 31.2423 647.254 32.1639 646.441 32.8453C645.628 33.5268 644.536 33.8676 643.166 33.8676ZM649.08 33.6895V21.5234H651.093V33.6895H649.08ZM658.944 28.95L658.967 27.1844H664.148V33.7204H662.568L662.39 32.5123H662.165C661.825 32.9228 661.337 33.2635 660.709 33.5346C660.098 33.7669 659.393 33.8831 658.603 33.8908C656.814 33.8908 655.397 33.3177 654.351 32.1793C653.306 31.041 652.779 29.4999 652.779 27.5638C652.779 25.6588 653.29 24.1487 654.313 23.0335C655.335 21.9184 656.737 21.3608 658.51 21.3608C660.043 21.3608 661.321 21.7712 662.343 22.5921C663.366 23.413 663.962 24.5359 664.14 25.9686H662.08C661.917 25.0935 661.515 24.4042 660.872 23.9009C660.229 23.3975 659.439 23.1419 658.502 23.1419C657.341 23.1419 656.427 23.5369 655.761 24.3345C655.095 25.1322 654.762 26.2086 654.762 27.5638C654.762 28.9655 655.126 30.0652 655.854 30.8628C656.582 31.6605 657.596 32.0554 658.889 32.0554C659.842 32.0554 660.601 31.8154 661.166 31.343C661.871 30.7622 662.25 29.9645 662.305 28.95H658.944ZM666.267 33.6895V21.5234H669.69L674.445 31.9006H674.623V21.5234H676.637V33.6895H673.191L668.451 23.3201H668.281V33.6895H666.267Z" fill="#101010"/>
<path d="M-4.90714 191.125L-4.90714 54.7807H42.229C62.7456 54.7807 79.3666 61.3382 92.0921 74.4532C104.947 87.5682 111.375 103.735 111.375 122.953C111.375 143.21 105.077 159.636 92.4817 172.232C79.886 184.827 63.1352 191.125 42.229 191.125H-4.90714ZM20.4139 167.946H39.6969C53.4612 167.946 64.4986 164.051 72.8091 156.26C81.1196 148.339 85.2749 137.237 85.2749 122.953C85.2749 109.189 81.0547 98.281 72.6143 90.2302C64.3038 82.0495 53.3314 77.9592 39.6969 77.9592H20.4139L20.4139 167.946ZM119.423 191.125V54.7807H204.152V78.154H144.55V110.292L197.529 110.292V133.081H144.55V167.752H206.294V191.125H119.423ZM261.756 193.657C247.342 193.657 235.461 190.151 226.111 183.139C216.892 176.127 211.113 166.843 208.776 155.286L232.149 148.274C233.448 154.896 236.694 160.22 241.888 164.246C247.082 168.141 253.705 170.089 261.756 170.089C269.936 170.089 276.364 168.466 281.039 165.22C285.713 161.843 288.051 157.493 288.051 152.169C288.051 143.729 282.402 138.081 271.105 135.224L250.458 130.354C226.436 124.641 214.425 111.526 214.425 91.0093C214.425 80.2316 218.775 71.0771 227.475 63.5457C236.175 56.0143 247.732 52.2486 262.145 52.2486C275 52.2486 285.778 55.3001 294.478 61.4031C303.308 67.5061 308.762 75.8816 310.84 86.5294L287.271 93.1519C286.362 88.0876 283.701 83.8675 279.286 80.4913C275 76.9853 269.287 75.2323 262.145 75.2323C255.003 75.2323 249.42 76.7905 245.394 79.907C241.499 83.0234 239.551 86.7242 239.551 91.0093C239.551 95.2944 240.979 98.6056 243.836 100.943C246.823 103.28 251.043 105.163 256.497 106.592L277.143 111.656C301.425 117.759 313.566 131.263 313.566 152.169C313.566 163.726 308.957 173.53 299.737 181.581C290.518 189.632 277.857 193.657 261.756 193.657ZM320.254 191.125V167.557H346.354V78.154H320.254V54.7807L397.776 54.7807V78.154H371.676V167.557H397.776V191.125H320.254ZM466.515 193.657C448.856 193.657 433.728 187.035 421.132 173.79C408.537 160.545 402.239 143.599 402.239 122.953C402.239 102.826 408.926 86.01 422.301 72.5054C435.806 59.0008 452.751 52.2486 473.138 52.2486C487.941 52.2486 500.602 55.5598 511.12 62.1822C521.767 68.8047 529.818 77.7644 535.272 89.0615L513.067 101.138C509.821 93.7362 504.692 87.8279 497.68 83.413C490.798 78.8682 482.617 76.5958 473.138 76.5958C460.412 76.5958 449.765 80.9458 441.194 89.6459C432.624 98.3459 428.339 109.448 428.339 122.953C428.339 136.717 432.559 147.884 441 156.455C449.44 165.025 460.023 169.31 472.748 169.31C483.007 169.31 492.031 166.453 499.822 160.74C507.743 155.026 512.678 147.56 514.626 138.34H474.112V115.941L540.531 115.941V191.125H515.405V141.651C515.405 156.065 511.314 168.336 503.134 178.464C494.953 188.593 482.747 193.657 466.515 193.657ZM552.453 191.125V54.7807H600.953L641.077 188.009V54.7807L665.814 54.7807V191.125H616.73L577.19 57.8971V191.125H552.453Z" fill="white"/>
</g>
<defs>
<clipPath id="clip0_3967_32445">
<rect x="0.230469" y="0.253906" width="660.783" height="208.997" rx="27.7558" fill="white"/>
</clipPath>
</defs>
</svg>
