<svg width="1000" height="325" viewBox="0 0 1000 325" fill="none" xmlns="http://www.w3.org/2000/svg">
<rect x="0.960938" y="0.170898" width="998.736" height="324.377" rx="73.6356" fill="#101010"/>
<mask id="path-2-outside-1_3967_32455" maskUnits="userSpaceOnUse" x="247.531" y="52.3594" width="168" height="221" fill="black">
<rect fill="white" x="247.531" y="52.3594" width="168" height="221"/>
<path d="M326.529 270.395L336.93 215.696H306.498L296.098 270.395H268.748L279.149 215.696H250.644V190.657H283.771L294.557 134.803H250.644V109.764H299.179L309.58 54.6799H336.93L326.529 109.764H356.96L367.361 54.6799H394.71L384.31 109.764H412.815V134.803H379.687L368.902 190.657L412.815 190.657V215.696L364.279 215.696L353.879 270.395H326.529ZM311.121 190.657H341.552L352.338 134.803H321.907L311.121 190.657Z"/>
</mask>
<path d="M326.529 270.395L324.303 269.972L323.792 272.661H326.529V270.395ZM336.93 215.696L339.155 216.119L339.667 213.43H336.93V215.696ZM306.498 215.696V213.43H304.623L304.273 215.273L306.498 215.696ZM296.098 270.395V272.661H297.973L298.324 270.818L296.098 270.395ZM268.748 270.395L266.522 269.972L266.011 272.661H268.748V270.395ZM279.149 215.696L281.375 216.119L281.886 213.43H279.149V215.696ZM250.644 215.696H248.378V217.962H250.644V215.696ZM250.644 190.657V188.392H248.378V190.657H250.644ZM283.771 190.657V192.923H285.641L285.996 191.087L283.771 190.657ZM294.557 134.803L296.782 135.232L297.302 132.537H294.557V134.803ZM250.644 134.803H248.378V137.068H250.644V134.803ZM250.644 109.764V107.499H248.378V109.764H250.644ZM299.179 109.764V112.03H301.057L301.406 110.185L299.179 109.764ZM309.58 54.6799V52.4142H307.702L307.354 54.2596L309.58 54.6799ZM336.93 54.6799L339.156 55.1003L339.663 52.4142H336.93V54.6799ZM326.529 109.764L324.303 109.344L323.796 112.03H326.529V109.764ZM356.96 109.764V112.03H358.838L359.187 110.185L356.96 109.764ZM367.361 54.6799V52.4142H365.483L365.134 54.2596L367.361 54.6799ZM394.71 54.6799L396.937 55.1003L397.444 52.4142H394.71V54.6799ZM384.31 109.764L382.083 109.344L381.576 112.03H384.31V109.764ZM412.815 109.764H415.081V107.499H412.815V109.764ZM412.815 134.803V137.068H415.081V134.803H412.815ZM379.687 134.803V132.537H377.817L377.463 134.373L379.687 134.803ZM368.902 190.657L366.677 190.228L366.157 192.923H368.902V190.657ZM412.815 190.657H415.081V188.392H412.815V190.657ZM412.815 215.696V217.962H415.081V215.696H412.815ZM364.279 215.696V213.43H362.404L362.053 215.273L364.279 215.696ZM353.879 270.395V272.661H355.754L356.104 270.818L353.879 270.395ZM311.121 190.657L308.896 190.228L308.376 192.923H311.121V190.657ZM341.552 190.657V192.923H343.422L343.777 191.087L341.552 190.657ZM352.338 134.803L354.562 135.232L355.083 132.537H352.338V134.803ZM321.907 134.803V132.537H320.037L319.682 134.373L321.907 134.803ZM328.755 270.818L339.155 216.119L334.704 215.273L324.303 269.972L328.755 270.818ZM336.93 213.43H306.498V217.962H336.93V213.43ZM304.273 215.273L293.872 269.972L298.324 270.818L308.724 216.119L304.273 215.273ZM296.098 268.129H268.748V272.661H296.098V268.129ZM270.974 270.818L281.375 216.119L276.923 215.273L266.522 269.972L270.974 270.818ZM279.149 213.43H250.644V217.962H279.149V213.43ZM252.909 215.696V190.657H248.378V215.696H252.909ZM250.644 192.923H283.771V188.392H250.644V192.923ZM285.996 191.087L296.782 135.232L292.332 134.373L281.547 190.228L285.996 191.087ZM294.557 132.537H250.644V137.068H294.557V132.537ZM252.909 134.803V109.764H248.378V134.803H252.909ZM250.644 112.03H299.179V107.499H250.644V112.03ZM301.406 110.185L311.806 55.1003L307.354 54.2596L296.953 109.344L301.406 110.185ZM309.58 56.9457H336.93V52.4142H309.58V56.9457ZM334.703 54.2596L324.303 109.344L328.755 110.185L339.156 55.1003L334.703 54.2596ZM326.529 112.03H356.96V107.499H326.529V112.03ZM359.187 110.185L369.587 55.1003L365.134 54.2596L354.734 109.344L359.187 110.185ZM367.361 56.9457H394.71V52.4142H367.361V56.9457ZM392.484 54.2596L382.083 109.344L386.536 110.185L396.937 55.1003L392.484 54.2596ZM384.31 112.03H412.815V107.499H384.31V112.03ZM410.549 109.764V134.803H415.081V109.764H410.549ZM412.815 132.537H379.687V137.068H412.815V132.537ZM377.463 134.373L366.677 190.228L371.126 191.087L381.912 135.232L377.463 134.373ZM368.902 192.923L412.815 192.923V188.392L368.902 188.392V192.923ZM410.549 190.657V215.696L415.081 215.696V190.657L410.549 190.657ZM412.815 213.43L364.279 213.43V217.962L412.815 217.962V213.43ZM362.053 215.273L351.653 269.972L356.104 270.818L366.505 216.119L362.053 215.273ZM353.879 268.129H326.529V272.661H353.879V268.129ZM311.121 192.923H341.552V188.392H311.121V192.923ZM343.777 191.087L354.562 135.232L350.113 134.373L339.327 190.228L343.777 191.087ZM352.338 132.537H321.907V137.068H352.338V132.537ZM319.682 134.373L308.896 190.228L313.345 191.087L324.131 135.232L319.682 134.373Z" fill="#939393" mask="url(#path-2-outside-1_3967_32455)"/>
<path d="M470.436 261.359V193.954L547.187 154.305C562.669 146.375 570.411 136.084 570.411 123.434C570.411 115.882 567.484 109.179 561.631 103.326C555.967 97.2841 547.659 94.2632 536.708 94.2632C527.079 94.2632 519.149 97.2841 512.918 103.326C506.687 109.368 503.006 116.637 501.873 125.133L469.87 110.69C472.135 96.1513 479.404 83.9731 491.677 74.155C503.95 64.3369 518.96 59.4278 536.708 59.4278C558.61 59.4278 575.886 65.753 588.536 78.4032C601.186 90.8646 607.512 105.497 607.512 122.301C607.512 136.84 603.924 149.018 596.749 158.836C589.575 168.654 578.152 177.245 562.481 184.608L475.251 227.374H608.078V261.359H470.436ZM704.723 261.359V225.674L623.157 225.674V143.826L680.933 63.1096L724.264 63.1096L627.972 191.689L704.723 191.689V148.357L740.408 148.357V191.689H765.33V225.674H740.408V261.359H704.723Z" fill="white"/>
</svg>
