<svg width="1402" height="2226" viewBox="0 0 1402 2226" fill="none" xmlns="http://www.w3.org/2000/svg">
<g opacity="0.2" clip-path="url(#clip0_3960_30780)">
<line x1="1420.31" y1="0.239126" x2="685.811" y2="0.239061" stroke="white" stroke-width="1.6013"/>
<line x1="1420.31" y1="30.7167" x2="685.811" y2="30.7166" stroke="white" stroke-width="1.6013"/>
<line x1="1420.31" y1="61.1932" x2="685.811" y2="61.1932" stroke="white" stroke-width="1.6013"/>
<line x1="1420.31" y1="91.6708" x2="685.811" y2="91.6707" stroke="white" stroke-width="1.6013"/>
<line x1="1420.31" y1="122.147" x2="685.811" y2="122.147" stroke="white" stroke-width="1.6013"/>
<line x1="1420.31" y1="152.625" x2="685.811" y2="152.625" stroke="white" stroke-width="1.6013"/>
<line x1="1420.31" y1="183.102" x2="685.811" y2="183.102" stroke="white" stroke-width="1.6013"/>
<line x1="1420.31" y1="213.579" x2="685.811" y2="213.579" stroke="white" stroke-width="1.6013"/>
<line x1="1420.31" y1="244.057" x2="685.811" y2="244.056" stroke="white" stroke-width="1.6013"/>
<line x1="1420.31" y1="274.533" x2="685.811" y2="274.533" stroke="white" stroke-width="1.6013"/>
<line x1="1420.31" y1="305.011" x2="685.811" y2="305.011" stroke="white" stroke-width="1.6013"/>
<line x1="1420.31" y1="335.487" x2="685.811" y2="335.487" stroke="white" stroke-width="1.6013"/>
<line x1="1420.31" y1="365.965" x2="685.811" y2="365.965" stroke="white" stroke-width="1.6013"/>
<line x1="1420.31" y1="396.442" x2="685.811" y2="396.442" stroke="white" stroke-width="1.6013"/>
<line x1="1420.31" y1="426.919" x2="685.811" y2="426.919" stroke="white" stroke-width="1.6013"/>
<line x1="1420.31" y1="457.396" x2="685.811" y2="457.396" stroke="white" stroke-width="1.6013"/>
<line x1="1420.31" y1="487.873" x2="685.811" y2="487.873" stroke="white" stroke-width="1.6013"/>
<line x1="1420.31" y1="518.35" x2="685.811" y2="518.35" stroke="white" stroke-width="1.6013"/>
<line x1="1420.31" y1="548.827" x2="685.811" y2="548.827" stroke="white" stroke-width="1.6013"/>
<line x1="1420.31" y1="579.305" x2="685.811" y2="579.305" stroke="white" stroke-width="1.6013"/>
<line x1="1420.31" y1="609.782" x2="685.811" y2="609.782" stroke="white" stroke-width="1.6013"/>
<line x1="1420.31" y1="640.259" x2="685.811" y2="640.259" stroke="white" stroke-width="1.6013"/>
<line x1="1420.31" y1="670.736" x2="685.811" y2="670.736" stroke="white" stroke-width="1.6013"/>
<line x1="1420.31" y1="701.213" x2="685.811" y2="701.213" stroke="white" stroke-width="1.6013"/>
<line x1="1420.31" y1="731.69" x2="685.811" y2="731.69" stroke="white" stroke-width="1.6013"/>
<line x1="1420.31" y1="762.167" x2="685.811" y2="762.167" stroke="white" stroke-width="1.6013"/>
<line x1="1420.31" y1="792.644" x2="685.811" y2="792.644" stroke="white" stroke-width="1.6013"/>
<line x1="1420.31" y1="823.121" x2="685.811" y2="823.121" stroke="white" stroke-width="1.6013"/>
<line x1="1420.31" y1="853.599" x2="685.811" y2="853.598" stroke="white" stroke-width="1.6013"/>
<line x1="1420.31" y1="884.076" x2="685.811" y2="884.076" stroke="white" stroke-width="1.6013"/>
<line x1="1420.31" y1="914.553" x2="685.811" y2="914.553" stroke="white" stroke-width="1.6013"/>
<line x1="1420.31" y1="945.03" x2="685.811" y2="945.03" stroke="white" stroke-width="1.6013"/>
<line x1="1420.31" y1="975.507" x2="685.811" y2="975.507" stroke="white" stroke-width="1.6013"/>
<line x1="1420.31" y1="1005.98" x2="685.811" y2="1005.98" stroke="white" stroke-width="1.6013"/>
<line x1="1420.31" y1="1036.46" x2="685.811" y2="1036.46" stroke="white" stroke-width="1.6013"/>
<line x1="1420.31" y1="1066.94" x2="685.811" y2="1066.94" stroke="white" stroke-width="1.6013"/>
<line x1="1420.31" y1="1097.42" x2="685.811" y2="1097.42" stroke="white" stroke-width="1.6013"/>
<line x1="1401.22" y1="1153.56" x2="1401.22" y2="-47.2361" stroke="white" stroke-width="1.6013"/>
<line x1="1370.74" y1="1153.56" x2="1370.74" y2="-47.2361" stroke="white" stroke-width="1.6013"/>
<line x1="1340.27" y1="1153.56" x2="1340.27" y2="-47.2361" stroke="white" stroke-width="1.6013"/>
<line x1="1309.79" y1="1153.56" x2="1309.79" y2="-47.2361" stroke="white" stroke-width="1.6013"/>
<line x1="1279.31" y1="1153.56" x2="1279.31" y2="-47.2361" stroke="white" stroke-width="1.6013"/>
<line x1="1248.83" y1="1153.56" x2="1248.83" y2="-47.2361" stroke="white" stroke-width="1.6013"/>
<line x1="1218.36" y1="1153.56" x2="1218.36" y2="-47.2361" stroke="white" stroke-width="1.6013"/>
<line x1="1187.88" y1="1153.56" x2="1187.88" y2="-47.2361" stroke="white" stroke-width="1.6013"/>
<line x1="1157.4" y1="1153.56" x2="1157.4" y2="-47.2361" stroke="white" stroke-width="1.6013"/>
<line x1="1126.93" y1="1153.56" x2="1126.93" y2="-47.2361" stroke="white" stroke-width="1.6013"/>
<line x1="1096.45" y1="1153.56" x2="1096.45" y2="-47.2361" stroke="white" stroke-width="1.6013"/>
<line x1="1065.97" y1="1153.56" x2="1065.97" y2="-47.2361" stroke="white" stroke-width="1.6013"/>
<line x1="1035.49" y1="1153.56" x2="1035.49" y2="-47.2361" stroke="white" stroke-width="1.6013"/>
<line x1="1005.02" y1="1153.56" x2="1005.02" y2="-47.2361" stroke="white" stroke-width="1.6013"/>
<line x1="974.539" y1="1153.56" x2="974.539" y2="-47.2361" stroke="white" stroke-width="1.6013"/>
<line x1="944.063" y1="1153.56" x2="944.063" y2="-47.2361" stroke="white" stroke-width="1.6013"/>
<line x1="913.586" y1="1153.56" x2="913.586" y2="-47.2361" stroke="white" stroke-width="1.6013"/>
<line x1="883.106" y1="1153.56" x2="883.106" y2="-47.2361" stroke="white" stroke-width="1.6013"/>
<line x1="852.629" y1="1153.56" x2="852.629" y2="-47.2361" stroke="white" stroke-width="1.6013"/>
<line x1="822.152" y1="1153.56" x2="822.153" y2="-47.2361" stroke="white" stroke-width="1.6013"/>
<line x1="791.676" y1="1153.56" x2="791.676" y2="-47.2361" stroke="white" stroke-width="1.6013"/>
<line x1="761.199" y1="1153.56" x2="761.199" y2="-47.2361" stroke="white" stroke-width="1.6013"/>
<line x1="730.723" y1="1153.56" x2="730.723" y2="-47.2361" stroke="white" stroke-width="1.6013"/>
<line x1="700.246" y1="1153.56" x2="700.246" y2="-47.2361" stroke="white" stroke-width="1.6013"/>
</g>
<g opacity="0.2" clip-path="url(#clip1_3960_30780)">
<line x1="1420.31" y1="1097.24" x2="685.811" y2="1097.24" stroke="white" stroke-width="1.6013"/>
<line x1="1420.31" y1="1127.72" x2="685.811" y2="1127.72" stroke="white" stroke-width="1.6013"/>
<line x1="1420.31" y1="1158.19" x2="685.811" y2="1158.19" stroke="white" stroke-width="1.6013"/>
<line x1="1420.31" y1="1188.67" x2="685.811" y2="1188.67" stroke="white" stroke-width="1.6013"/>
<line x1="1420.31" y1="1219.15" x2="685.811" y2="1219.15" stroke="white" stroke-width="1.6013"/>
<line x1="1420.31" y1="1249.62" x2="685.811" y2="1249.62" stroke="white" stroke-width="1.6013"/>
<line x1="1420.31" y1="1280.1" x2="685.811" y2="1280.1" stroke="white" stroke-width="1.6013"/>
<line x1="1420.31" y1="1310.58" x2="685.811" y2="1310.58" stroke="white" stroke-width="1.6013"/>
<line x1="1420.31" y1="1341.06" x2="685.811" y2="1341.06" stroke="white" stroke-width="1.6013"/>
<line x1="1420.31" y1="1371.53" x2="685.811" y2="1371.53" stroke="white" stroke-width="1.6013"/>
<line x1="1420.31" y1="1402.01" x2="685.811" y2="1402.01" stroke="white" stroke-width="1.6013"/>
<line x1="1420.31" y1="1432.49" x2="685.811" y2="1432.49" stroke="white" stroke-width="1.6013"/>
<line x1="1420.31" y1="1462.96" x2="685.811" y2="1462.96" stroke="white" stroke-width="1.6013"/>
<line x1="1420.31" y1="1493.44" x2="685.811" y2="1493.44" stroke="white" stroke-width="1.6013"/>
<line x1="1420.31" y1="1523.92" x2="685.811" y2="1523.92" stroke="white" stroke-width="1.6013"/>
<line x1="1420.31" y1="1554.4" x2="685.811" y2="1554.4" stroke="white" stroke-width="1.6013"/>
<line x1="1420.31" y1="1584.87" x2="685.811" y2="1584.87" stroke="white" stroke-width="1.6013"/>
<line x1="1420.31" y1="1615.35" x2="685.811" y2="1615.35" stroke="white" stroke-width="1.6013"/>
<line x1="1420.31" y1="1645.83" x2="685.811" y2="1645.83" stroke="white" stroke-width="1.6013"/>
<line x1="1420.31" y1="1676.3" x2="685.811" y2="1676.3" stroke="white" stroke-width="1.6013"/>
<line x1="1420.31" y1="1706.78" x2="685.811" y2="1706.78" stroke="white" stroke-width="1.6013"/>
<line x1="1420.31" y1="1737.26" x2="685.811" y2="1737.26" stroke="white" stroke-width="1.6013"/>
<line x1="1420.31" y1="1767.74" x2="685.811" y2="1767.74" stroke="white" stroke-width="1.6013"/>
<line x1="1420.31" y1="1798.21" x2="685.811" y2="1798.21" stroke="white" stroke-width="1.6013"/>
<line x1="1420.31" y1="1828.69" x2="685.811" y2="1828.69" stroke="white" stroke-width="1.6013"/>
<line x1="1420.31" y1="1859.17" x2="685.811" y2="1859.17" stroke="white" stroke-width="1.6013"/>
<line x1="1420.31" y1="1889.64" x2="685.811" y2="1889.64" stroke="white" stroke-width="1.6013"/>
<line x1="1420.31" y1="1920.12" x2="685.811" y2="1920.12" stroke="white" stroke-width="1.6013"/>
<line x1="1420.31" y1="1950.6" x2="685.811" y2="1950.6" stroke="white" stroke-width="1.6013"/>
<line x1="1420.31" y1="1981.08" x2="685.811" y2="1981.08" stroke="white" stroke-width="1.6013"/>
<line x1="1420.31" y1="2011.55" x2="685.811" y2="2011.55" stroke="white" stroke-width="1.6013"/>
<line x1="1420.31" y1="2042.03" x2="685.811" y2="2042.03" stroke="white" stroke-width="1.6013"/>
<line x1="1420.31" y1="2072.51" x2="685.811" y2="2072.51" stroke="white" stroke-width="1.6013"/>
<line x1="1420.31" y1="2102.98" x2="685.811" y2="2102.98" stroke="white" stroke-width="1.6013"/>
<line x1="1420.31" y1="2133.46" x2="685.811" y2="2133.46" stroke="white" stroke-width="1.6013"/>
<line x1="1420.31" y1="2163.94" x2="685.811" y2="2163.94" stroke="white" stroke-width="1.6013"/>
<line x1="1420.31" y1="2194.42" x2="685.811" y2="2194.42" stroke="white" stroke-width="1.6013"/>
<line x1="1401.22" y1="2250.56" x2="1401.22" y2="1049.76" stroke="white" stroke-width="1.6013"/>
<line x1="1370.75" y1="2250.56" x2="1370.75" y2="1049.76" stroke="white" stroke-width="1.6013"/>
<line x1="1340.27" y1="2250.56" x2="1340.27" y2="1049.76" stroke="white" stroke-width="1.6013"/>
<line x1="1309.79" y1="2250.56" x2="1309.79" y2="1049.76" stroke="white" stroke-width="1.6013"/>
<line x1="1279.31" y1="2250.56" x2="1279.31" y2="1049.76" stroke="white" stroke-width="1.6013"/>
<line x1="1248.84" y1="2250.56" x2="1248.84" y2="1049.76" stroke="white" stroke-width="1.6013"/>
<line x1="1218.36" y1="2250.56" x2="1218.36" y2="1049.76" stroke="white" stroke-width="1.6013"/>
<line x1="1187.88" y1="2250.56" x2="1187.88" y2="1049.76" stroke="white" stroke-width="1.6013"/>
<line x1="1157.41" y1="2250.56" x2="1157.41" y2="1049.76" stroke="white" stroke-width="1.6013"/>
<line x1="1126.93" y1="2250.56" x2="1126.93" y2="1049.76" stroke="white" stroke-width="1.6013"/>
<line x1="1096.45" y1="2250.56" x2="1096.45" y2="1049.76" stroke="white" stroke-width="1.6013"/>
<line x1="1065.97" y1="2250.56" x2="1065.97" y2="1049.76" stroke="white" stroke-width="1.6013"/>
<line x1="1035.5" y1="2250.56" x2="1035.5" y2="1049.76" stroke="white" stroke-width="1.6013"/>
<line x1="1005.02" y1="2250.56" x2="1005.02" y2="1049.76" stroke="white" stroke-width="1.6013"/>
<line x1="974.543" y1="2250.56" x2="974.543" y2="1049.76" stroke="white" stroke-width="1.6013"/>
<line x1="944.067" y1="2250.56" x2="944.067" y2="1049.76" stroke="white" stroke-width="1.6013"/>
<line x1="913.59" y1="2250.56" x2="913.59" y2="1049.76" stroke="white" stroke-width="1.6013"/>
<line x1="883.11" y1="2250.56" x2="883.11" y2="1049.76" stroke="white" stroke-width="1.6013"/>
<line x1="852.633" y1="2250.56" x2="852.633" y2="1049.76" stroke="white" stroke-width="1.6013"/>
<line x1="822.156" y1="2250.56" x2="822.156" y2="1049.76" stroke="white" stroke-width="1.6013"/>
<line x1="791.68" y1="2250.56" x2="791.68" y2="1049.76" stroke="white" stroke-width="1.6013"/>
<line x1="761.203" y1="2250.56" x2="761.203" y2="1049.76" stroke="white" stroke-width="1.6013"/>
<line x1="730.727" y1="2250.56" x2="730.727" y2="1049.76" stroke="white" stroke-width="1.6013"/>
<line x1="700.25" y1="2250.56" x2="700.25" y2="1049.76" stroke="white" stroke-width="1.6013"/>
</g>
<g opacity="0.2" clip-path="url(#clip2_3960_30780)">
<line x1="719.309" y1="0.239126" x2="-15.1893" y2="0.239061" stroke="white" stroke-width="1.6013"/>
<line x1="719.309" y1="30.7167" x2="-15.1893" y2="30.7166" stroke="white" stroke-width="1.6013"/>
<line x1="719.309" y1="61.1932" x2="-15.1893" y2="61.1932" stroke="white" stroke-width="1.6013"/>
<line x1="719.309" y1="91.6708" x2="-15.1893" y2="91.6707" stroke="white" stroke-width="1.6013"/>
<line x1="719.309" y1="122.147" x2="-15.1893" y2="122.147" stroke="white" stroke-width="1.6013"/>
<line x1="719.309" y1="152.625" x2="-15.1893" y2="152.625" stroke="white" stroke-width="1.6013"/>
<line x1="719.309" y1="183.102" x2="-15.1893" y2="183.102" stroke="white" stroke-width="1.6013"/>
<line x1="719.309" y1="213.579" x2="-15.1893" y2="213.579" stroke="white" stroke-width="1.6013"/>
<line x1="719.309" y1="244.057" x2="-15.1893" y2="244.056" stroke="white" stroke-width="1.6013"/>
<line x1="719.309" y1="274.533" x2="-15.1893" y2="274.533" stroke="white" stroke-width="1.6013"/>
<line x1="719.309" y1="305.011" x2="-15.1893" y2="305.011" stroke="white" stroke-width="1.6013"/>
<line x1="719.309" y1="335.487" x2="-15.1893" y2="335.487" stroke="white" stroke-width="1.6013"/>
<line x1="719.309" y1="365.965" x2="-15.1893" y2="365.965" stroke="white" stroke-width="1.6013"/>
<line x1="719.309" y1="396.442" x2="-15.1893" y2="396.442" stroke="white" stroke-width="1.6013"/>
<line x1="719.309" y1="426.919" x2="-15.1893" y2="426.919" stroke="white" stroke-width="1.6013"/>
<line x1="719.309" y1="457.396" x2="-15.1893" y2="457.396" stroke="white" stroke-width="1.6013"/>
<line x1="719.309" y1="487.873" x2="-15.1893" y2="487.873" stroke="white" stroke-width="1.6013"/>
<line x1="719.309" y1="518.35" x2="-15.1893" y2="518.35" stroke="white" stroke-width="1.6013"/>
<line x1="719.309" y1="548.827" x2="-15.1893" y2="548.827" stroke="white" stroke-width="1.6013"/>
<line x1="719.309" y1="579.305" x2="-15.1893" y2="579.305" stroke="white" stroke-width="1.6013"/>
<line x1="719.309" y1="609.782" x2="-15.1893" y2="609.782" stroke="white" stroke-width="1.6013"/>
<line x1="719.309" y1="640.259" x2="-15.1893" y2="640.259" stroke="white" stroke-width="1.6013"/>
<line x1="719.309" y1="670.736" x2="-15.1893" y2="670.736" stroke="white" stroke-width="1.6013"/>
<line x1="719.309" y1="701.213" x2="-15.1893" y2="701.213" stroke="white" stroke-width="1.6013"/>
<line x1="719.309" y1="731.69" x2="-15.1893" y2="731.69" stroke="white" stroke-width="1.6013"/>
<line x1="719.309" y1="762.167" x2="-15.1893" y2="762.167" stroke="white" stroke-width="1.6013"/>
<line x1="719.309" y1="792.644" x2="-15.1893" y2="792.644" stroke="white" stroke-width="1.6013"/>
<line x1="719.309" y1="823.121" x2="-15.1893" y2="823.121" stroke="white" stroke-width="1.6013"/>
<line x1="719.309" y1="853.599" x2="-15.1893" y2="853.598" stroke="white" stroke-width="1.6013"/>
<line x1="719.309" y1="884.076" x2="-15.1893" y2="884.076" stroke="white" stroke-width="1.6013"/>
<line x1="719.309" y1="914.553" x2="-15.1893" y2="914.553" stroke="white" stroke-width="1.6013"/>
<line x1="719.309" y1="945.03" x2="-15.1893" y2="945.03" stroke="white" stroke-width="1.6013"/>
<line x1="719.309" y1="975.507" x2="-15.1893" y2="975.507" stroke="white" stroke-width="1.6013"/>
<line x1="719.309" y1="1005.98" x2="-15.1893" y2="1005.98" stroke="white" stroke-width="1.6013"/>
<line x1="719.309" y1="1036.46" x2="-15.1893" y2="1036.46" stroke="white" stroke-width="1.6013"/>
<line x1="719.309" y1="1066.94" x2="-15.1893" y2="1066.94" stroke="white" stroke-width="1.6013"/>
<line x1="719.309" y1="1097.42" x2="-15.1893" y2="1097.42" stroke="white" stroke-width="1.6013"/>
<line x1="700.223" y1="1153.56" x2="700.223" y2="-47.2361" stroke="white" stroke-width="1.6013"/>
<line x1="669.746" y1="1153.56" x2="669.746" y2="-47.2361" stroke="white" stroke-width="1.6013"/>
<line x1="639.27" y1="1153.56" x2="639.27" y2="-47.2361" stroke="white" stroke-width="1.6013"/>
<line x1="608.789" y1="1153.56" x2="608.789" y2="-47.2361" stroke="white" stroke-width="1.6013"/>
<line x1="578.313" y1="1153.56" x2="578.313" y2="-47.2361" stroke="white" stroke-width="1.6013"/>
<line x1="547.836" y1="1153.56" x2="547.836" y2="-47.2361" stroke="white" stroke-width="1.6013"/>
<line x1="517.36" y1="1153.56" x2="517.36" y2="-47.2361" stroke="white" stroke-width="1.6013"/>
<line x1="486.883" y1="1153.56" x2="486.883" y2="-47.2361" stroke="white" stroke-width="1.6013"/>
<line x1="456.406" y1="1153.56" x2="456.407" y2="-47.2361" stroke="white" stroke-width="1.6013"/>
<line x1="425.93" y1="1153.56" x2="425.93" y2="-47.2361" stroke="white" stroke-width="1.6013"/>
<line x1="395.449" y1="1153.56" x2="395.449" y2="-47.2361" stroke="white" stroke-width="1.6013"/>
<line x1="364.973" y1="1153.56" x2="364.973" y2="-47.2361" stroke="white" stroke-width="1.6013"/>
<line x1="334.496" y1="1153.56" x2="334.496" y2="-47.2361" stroke="white" stroke-width="1.6013"/>
<line x1="304.02" y1="1153.56" x2="304.02" y2="-47.2361" stroke="white" stroke-width="1.6013"/>
<line x1="273.543" y1="1153.56" x2="273.543" y2="-47.2361" stroke="white" stroke-width="1.6013"/>
<line x1="243.067" y1="1153.56" x2="243.067" y2="-47.2361" stroke="white" stroke-width="1.6013"/>
<line x1="212.59" y1="1153.56" x2="212.59" y2="-47.2361" stroke="white" stroke-width="1.6013"/>
<line x1="182.11" y1="1153.56" x2="182.11" y2="-47.2361" stroke="white" stroke-width="1.6013"/>
<line x1="151.633" y1="1153.56" x2="151.633" y2="-47.2361" stroke="white" stroke-width="1.6013"/>
<line x1="121.156" y1="1153.56" x2="121.156" y2="-47.2361" stroke="white" stroke-width="1.6013"/>
<line x1="90.6798" y1="1153.56" x2="90.68" y2="-47.2361" stroke="white" stroke-width="1.6013"/>
<line x1="60.2033" y1="1153.56" x2="60.2034" y2="-47.2361" stroke="white" stroke-width="1.6013"/>
<line x1="29.7267" y1="1153.56" x2="29.7268" y2="-47.2361" stroke="white" stroke-width="1.6013"/>
<line x1="-0.749868" y1="1153.56" x2="-0.749762" y2="-47.2361" stroke="white" stroke-width="1.6013"/>
</g>
<g opacity="0.2" clip-path="url(#clip3_3960_30780)">
<line x1="719.309" y1="1097.24" x2="-15.1893" y2="1097.24" stroke="white" stroke-width="1.6013"/>
<line x1="719.309" y1="1127.72" x2="-15.1893" y2="1127.72" stroke="white" stroke-width="1.6013"/>
<line x1="719.309" y1="1158.19" x2="-15.1893" y2="1158.19" stroke="white" stroke-width="1.6013"/>
<line x1="719.309" y1="1188.67" x2="-15.1893" y2="1188.67" stroke="white" stroke-width="1.6013"/>
<line x1="719.309" y1="1219.15" x2="-15.1893" y2="1219.15" stroke="white" stroke-width="1.6013"/>
<line x1="719.309" y1="1249.62" x2="-15.1893" y2="1249.62" stroke="white" stroke-width="1.6013"/>
<line x1="719.309" y1="1280.1" x2="-15.1893" y2="1280.1" stroke="white" stroke-width="1.6013"/>
<line x1="719.309" y1="1310.58" x2="-15.1893" y2="1310.58" stroke="white" stroke-width="1.6013"/>
<line x1="719.309" y1="1341.06" x2="-15.1893" y2="1341.06" stroke="white" stroke-width="1.6013"/>
<line x1="719.309" y1="1371.53" x2="-15.1893" y2="1371.53" stroke="white" stroke-width="1.6013"/>
<line x1="719.309" y1="1402.01" x2="-15.1893" y2="1402.01" stroke="white" stroke-width="1.6013"/>
<line x1="719.309" y1="1432.49" x2="-15.1893" y2="1432.49" stroke="white" stroke-width="1.6013"/>
<line x1="719.309" y1="1462.96" x2="-15.1893" y2="1462.96" stroke="white" stroke-width="1.6013"/>
<line x1="719.309" y1="1493.44" x2="-15.1893" y2="1493.44" stroke="white" stroke-width="1.6013"/>
<line x1="719.309" y1="1523.92" x2="-15.1893" y2="1523.92" stroke="white" stroke-width="1.6013"/>
<line x1="719.309" y1="1554.4" x2="-15.1893" y2="1554.4" stroke="white" stroke-width="1.6013"/>
<line x1="719.309" y1="1584.87" x2="-15.1893" y2="1584.87" stroke="white" stroke-width="1.6013"/>
<line x1="719.309" y1="1615.35" x2="-15.1893" y2="1615.35" stroke="white" stroke-width="1.6013"/>
<line x1="719.309" y1="1645.83" x2="-15.1893" y2="1645.83" stroke="white" stroke-width="1.6013"/>
<line x1="719.309" y1="1676.3" x2="-15.1893" y2="1676.3" stroke="white" stroke-width="1.6013"/>
<line x1="719.309" y1="1706.78" x2="-15.1893" y2="1706.78" stroke="white" stroke-width="1.6013"/>
<line x1="719.309" y1="1737.26" x2="-15.1893" y2="1737.26" stroke="white" stroke-width="1.6013"/>
<line x1="719.309" y1="1767.74" x2="-15.1893" y2="1767.74" stroke="white" stroke-width="1.6013"/>
<line x1="719.309" y1="1798.21" x2="-15.1893" y2="1798.21" stroke="white" stroke-width="1.6013"/>
<line x1="719.309" y1="1828.69" x2="-15.1893" y2="1828.69" stroke="white" stroke-width="1.6013"/>
<line x1="719.309" y1="1859.17" x2="-15.1893" y2="1859.17" stroke="white" stroke-width="1.6013"/>
<line x1="719.309" y1="1889.64" x2="-15.1893" y2="1889.64" stroke="white" stroke-width="1.6013"/>
<line x1="719.309" y1="1920.12" x2="-15.1893" y2="1920.12" stroke="white" stroke-width="1.6013"/>
<line x1="719.309" y1="1950.6" x2="-15.1893" y2="1950.6" stroke="white" stroke-width="1.6013"/>
<line x1="719.309" y1="1981.08" x2="-15.1893" y2="1981.08" stroke="white" stroke-width="1.6013"/>
<line x1="719.309" y1="2011.55" x2="-15.1893" y2="2011.55" stroke="white" stroke-width="1.6013"/>
<line x1="719.309" y1="2042.03" x2="-15.1893" y2="2042.03" stroke="white" stroke-width="1.6013"/>
<line x1="719.309" y1="2072.51" x2="-15.1893" y2="2072.51" stroke="white" stroke-width="1.6013"/>
<line x1="719.309" y1="2102.98" x2="-15.1893" y2="2102.98" stroke="white" stroke-width="1.6013"/>
<line x1="719.309" y1="2133.46" x2="-15.1893" y2="2133.46" stroke="white" stroke-width="1.6013"/>
<line x1="719.309" y1="2163.94" x2="-15.1893" y2="2163.94" stroke="white" stroke-width="1.6013"/>
<line x1="719.309" y1="2194.42" x2="-15.1893" y2="2194.42" stroke="white" stroke-width="1.6013"/>
<line x1="700.223" y1="2250.56" x2="700.223" y2="1049.76" stroke="white" stroke-width="1.6013"/>
<line x1="669.746" y1="2250.56" x2="669.746" y2="1049.76" stroke="white" stroke-width="1.6013"/>
<line x1="639.27" y1="2250.56" x2="639.27" y2="1049.76" stroke="white" stroke-width="1.6013"/>
<line x1="608.789" y1="2250.56" x2="608.789" y2="1049.76" stroke="white" stroke-width="1.6013"/>
<line x1="578.313" y1="2250.56" x2="578.313" y2="1049.76" stroke="white" stroke-width="1.6013"/>
<line x1="547.836" y1="2250.56" x2="547.836" y2="1049.76" stroke="white" stroke-width="1.6013"/>
<line x1="517.36" y1="2250.56" x2="517.36" y2="1049.76" stroke="white" stroke-width="1.6013"/>
<line x1="486.883" y1="2250.56" x2="486.883" y2="1049.76" stroke="white" stroke-width="1.6013"/>
<line x1="456.406" y1="2250.56" x2="456.407" y2="1049.76" stroke="white" stroke-width="1.6013"/>
<line x1="425.93" y1="2250.56" x2="425.93" y2="1049.76" stroke="white" stroke-width="1.6013"/>
<line x1="395.449" y1="2250.56" x2="395.449" y2="1049.76" stroke="white" stroke-width="1.6013"/>
<line x1="364.973" y1="2250.56" x2="364.973" y2="1049.76" stroke="white" stroke-width="1.6013"/>
<line x1="334.496" y1="2250.56" x2="334.496" y2="1049.76" stroke="white" stroke-width="1.6013"/>
<line x1="304.02" y1="2250.56" x2="304.02" y2="1049.76" stroke="white" stroke-width="1.6013"/>
<line x1="273.543" y1="2250.56" x2="273.543" y2="1049.76" stroke="white" stroke-width="1.6013"/>
<line x1="243.067" y1="2250.56" x2="243.067" y2="1049.76" stroke="white" stroke-width="1.6013"/>
<line x1="212.59" y1="2250.56" x2="212.59" y2="1049.76" stroke="white" stroke-width="1.6013"/>
<line x1="182.11" y1="2250.56" x2="182.11" y2="1049.76" stroke="white" stroke-width="1.6013"/>
<line x1="151.633" y1="2250.56" x2="151.633" y2="1049.76" stroke="white" stroke-width="1.6013"/>
<line x1="121.156" y1="2250.56" x2="121.156" y2="1049.76" stroke="white" stroke-width="1.6013"/>
<line x1="90.6798" y1="2250.56" x2="90.68" y2="1049.76" stroke="white" stroke-width="1.6013"/>
<line x1="60.2033" y1="2250.56" x2="60.2034" y2="1049.76" stroke="white" stroke-width="1.6013"/>
<line x1="29.7267" y1="2250.56" x2="29.7268" y2="1049.76" stroke="white" stroke-width="1.6013"/>
<line x1="-0.749868" y1="2250.56" x2="-0.749762" y2="1049.76" stroke="white" stroke-width="1.6013"/>
</g>
<defs>
<clipPath id="clip0_3960_30780">
<rect width="1097" height="701" fill="white" transform="translate(1402) rotate(90)"/>
</clipPath>
<clipPath id="clip1_3960_30780">
<rect width="1111" height="701" fill="white" transform="translate(1402 1097) rotate(90)"/>
</clipPath>
<clipPath id="clip2_3960_30780">
<rect width="1097" height="701" fill="white" transform="translate(701) rotate(90)"/>
</clipPath>
<clipPath id="clip3_3960_30780">
<rect width="1111" height="701" fill="white" transform="translate(701 1097) rotate(90)"/>
</clipPath>
</defs>
</svg>
