<svg width="352" height="47" viewBox="0 0 352 47" fill="none" xmlns="http://www.w3.org/2000/svg">
<path d="M0.201172 16V0.658203H1.82227V16H0.201172ZM16.9219 16.1758L16.9121 16.1953C14.7148 16.1953 12.9961 15.4727 11.7559 14.0273C10.5156 12.582 9.90039 10.6973 9.90039 8.36328C9.90039 6.01953 10.5254 4.125 11.7656 2.67969C13.0059 1.23438 14.7246 0.511719 16.9219 0.511719C18.7871 0.511719 20.3105 1.0293 21.4824 2.06445C22.6543 3.09961 23.377 4.50586 23.6602 6.2832H22C21.7559 4.96484 21.1992 3.91992 20.3203 3.1582C19.4414 2.39648 18.3086 2.01562 16.9219 2.01562C15.2129 2.01562 13.8848 2.5918 12.9375 3.75391C11.9902 4.91602 11.5215 6.44922 11.5215 8.35352C11.5215 10.248 12 11.7715 12.9473 12.9336C13.8945 14.0957 15.2227 14.6719 16.9316 14.6719C18.3281 14.6719 19.4609 14.291 20.3301 13.5293C21.1992 12.7676 21.7559 11.7324 22 10.4141H23.6602C23.377 12.1816 22.6543 13.5879 21.4824 14.623C20.3105 15.6582 18.7871 16.1758 16.9219 16.1758ZM32.8652 9.18359L36.9277 15.668V16.0098H35.2871L31.1953 9.31055C31.0684 9.32031 30.8633 9.33008 30.5801 9.33008H28.1973V16.0098H26.5762V0.667969H30.5801C32.4355 0.667969 33.7539 0.970703 34.5449 1.56641C35.5605 2.29883 36.0684 3.44141 36.0586 4.99414C36.0586 6.50781 35.5703 7.65039 34.584 8.41211C34.1152 8.75391 33.5391 8.99805 32.8652 9.14453V9.18359ZM30.3359 7.89453L30.3457 7.88477C31.9375 7.88477 33.0117 7.64062 33.5781 7.16211C34.1543 6.69336 34.4375 5.96094 34.4375 4.96484C34.4375 4.01758 34.1445 3.30469 33.5586 2.81641C32.9824 2.33789 31.9082 2.10352 30.3359 2.11328H28.1875V7.89453H30.3359ZM39.9121 16V0.658203H49.5215V2.10352H41.5332V7.35742H48.7012V8.80273H41.5332V14.5352H49.9805V16H39.9121ZM58.7559 0.658203L64.0781 15.6777V16H62.4766L61.2363 12.3574H54.3613L53.1211 16H51.4805V15.6777L56.8125 0.658203H58.7559ZM54.8594 10.9023H60.7383L57.916 2.62109H57.7012L54.8594 10.9023ZM69.1328 16V2.10352H63.8301V0.658203H76.0566V2.10352H70.7344V16H69.1328ZM78.748 16V0.658203H88.3574V2.10352H80.3691V7.35742H87.5371V8.80273H80.3691V14.5352H88.8164V16H78.748ZM100.332 16L95 0.980469V0.658203H96.6406L101.221 14.0371H101.436L105.996 0.658203H107.598V0.980469L102.275 16H100.332ZM110.396 16V0.658203H112.018V16H110.396ZM116.408 16L116.398 0.648438H120.441C121.496 0.648438 122.346 0.716797 122.99 0.853516C123.635 0.990234 124.191 1.25391 124.67 1.64453C125.471 2.29883 125.871 3.22656 125.871 4.4375C125.871 5.23828 125.686 5.92188 125.314 6.49805C124.943 7.07422 124.455 7.49414 123.859 7.75781V7.94336C124.709 8.1582 125.363 8.58789 125.822 9.23242C126.281 9.87695 126.516 10.6973 126.516 11.6836C126.516 13.0703 126.086 14.125 125.217 14.8574C124.377 15.6191 122.912 16 120.812 16H116.408ZM118.02 7.28906L120.988 7.2793C122.199 7.2793 123.049 7.04492 123.537 6.57617C124.016 6.11719 124.25 5.48242 124.24 4.66211C124.24 3.82227 123.977 3.17773 123.459 2.73828C122.922 2.29883 121.887 2.08398 120.344 2.09375H118.02V7.28906ZM118.029 14.5156H120.793C122.355 14.5156 123.459 14.2324 124.094 13.6562C124.631 13.1875 124.895 12.4844 124.895 11.5371C124.895 10.4531 124.572 9.69141 123.938 9.24219C123.479 8.91016 122.561 8.74414 121.174 8.74414H118.029V14.5156ZM136.209 9.18359L140.271 15.668V16.0098H138.631L134.539 9.31055C134.412 9.32031 134.207 9.33008 133.924 9.33008H131.541V16.0098H129.92V0.667969H133.924C135.779 0.667969 137.098 0.970703 137.889 1.56641C138.904 2.29883 139.412 3.44141 139.402 4.99414C139.402 6.50781 138.914 7.65039 137.928 8.41211C137.459 8.75391 136.883 8.99805 136.209 9.14453V9.18359ZM133.68 7.89453L133.689 7.88477C135.281 7.88477 136.355 7.64062 136.922 7.16211C137.498 6.69336 137.781 5.96094 137.781 4.96484C137.781 4.01758 137.488 3.30469 136.902 2.81641C136.326 2.33789 135.252 2.10352 133.68 2.11328H131.531V7.89453H133.68ZM148.861 0.658203L154.184 15.6777V16H152.582L151.342 12.3574H144.467L143.227 16H141.586V15.6777L146.918 0.658203H148.861ZM144.965 10.9023H150.844L148.021 2.62109H147.807L144.965 10.9023ZM156.982 16V0.658203H159.805L167.07 14.5352H167.285V0.658203H168.887V16H166.064L158.828 2.10352H158.604V16H156.982ZM176.891 16V2.10352H171.588V0.658203H183.814V2.10352H178.492V16H176.891ZM196.873 0.658203L202.195 15.6777V16H200.594L199.354 12.3574H192.479L191.238 16H189.598V15.6777L194.93 0.658203H196.873ZM192.977 10.9023H198.855L196.033 2.62109H195.818L192.977 10.9023ZM204.994 16V0.658203H207.816L215.082 14.5352H215.297V0.658203H216.898V16H214.076L206.84 2.10352H206.615V16H204.994ZM221.299 16V0.658203H226.084C228.896 0.658203 230.928 1.2832 232.168 2.52344C233.506 3.80273 234.17 5.77539 234.16 8.44141C234.16 10.9707 233.516 12.8652 232.227 14.1152C230.957 15.375 228.906 16 226.064 16H221.299ZM222.92 14.5352H225.918C228.35 14.5352 230.059 14.0273 231.045 13.002C232.061 11.9766 232.568 10.4336 232.568 8.38281C232.568 6.27344 232.09 4.7207 231.123 3.72461C230.137 2.64062 228.457 2.10352 226.084 2.10352H222.92V14.5352ZM248.293 16.1758L248.283 16.1953C246.086 16.1953 244.367 15.4727 243.127 14.0273C241.887 12.582 241.271 10.6973 241.271 8.36328C241.271 6.01953 241.896 4.125 243.137 2.67969C244.377 1.23438 246.096 0.511719 248.293 0.511719C250.158 0.511719 251.682 1.0293 252.854 2.06445C254.025 3.09961 254.748 4.50586 255.031 6.2832H253.371C253.127 4.96484 252.57 3.91992 251.691 3.1582C250.812 2.39648 249.68 2.01562 248.293 2.01562C246.584 2.01562 245.256 2.5918 244.309 3.75391C243.361 4.91602 242.893 6.44922 242.893 8.35352C242.893 10.248 243.371 11.7715 244.318 12.9336C245.266 14.0957 246.594 14.6719 248.303 14.6719C249.699 14.6719 250.832 14.291 251.701 13.5293C252.57 12.7676 253.127 11.7324 253.371 10.4141H255.031C254.748 12.1816 254.025 13.5879 252.854 14.623C251.682 15.6582 250.158 16.1758 248.293 16.1758ZM264.734 16.1758V16.1953C262.547 16.1953 260.828 15.4531 259.578 13.9688C258.328 12.4844 257.703 10.6191 257.703 8.36328C257.703 6.10742 258.328 4.23242 259.578 2.73828C260.828 1.24414 262.547 0.492188 264.734 0.492188C266.932 0.492188 268.66 1.23438 269.91 2.72852C271.16 4.22266 271.785 6.09766 271.785 8.35352C271.785 9.81836 271.521 11.1367 270.984 12.2988C270.447 13.4609 269.637 14.3984 268.553 15.1113C267.469 15.8242 266.199 16.1758 264.734 16.1758ZM264.734 14.7402L264.715 14.75C266.434 14.75 267.771 14.1641 268.719 12.9922C269.666 11.8203 270.145 10.2773 270.145 8.37305C270.145 6.44922 269.676 4.89648 268.729 3.72461C267.781 2.55273 266.453 1.9668 264.734 1.9668C263.016 1.9668 261.688 2.55273 260.75 3.72461C259.812 4.89648 259.344 6.43945 259.344 8.36328C259.344 10.2676 259.812 11.8105 260.75 12.9824C261.688 14.1543 263.016 14.7402 264.734 14.7402ZM275.131 16V0.658203H276.752V14.5352H283.715V16H275.131ZM291.758 16.1758V16.1953C289.57 16.1953 287.852 15.4531 286.602 13.9688C285.352 12.4844 284.727 10.6191 284.727 8.36328C284.727 6.10742 285.352 4.23242 286.602 2.73828C287.852 1.24414 289.57 0.492188 291.758 0.492188C293.955 0.492188 295.684 1.23438 296.934 2.72852C298.184 4.22266 298.809 6.09766 298.809 8.35352C298.809 9.81836 298.545 11.1367 298.008 12.2988C297.471 13.4609 296.66 14.3984 295.576 15.1113C294.492 15.8242 293.223 16.1758 291.758 16.1758ZM291.758 14.7402L291.738 14.75C293.457 14.75 294.795 14.1641 295.742 12.9922C296.689 11.8203 297.168 10.2773 297.168 8.37305C297.168 6.44922 296.699 4.89648 295.752 3.72461C294.805 2.55273 293.477 1.9668 291.758 1.9668C290.039 1.9668 288.711 2.55273 287.773 3.72461C286.836 4.89648 286.367 6.43945 286.367 8.36328C286.367 10.2676 286.836 11.8105 287.773 12.9824C288.711 14.1543 290.039 14.7402 291.758 14.7402ZM308.443 9.18359L312.506 15.668V16.0098H310.865L306.773 9.31055C306.646 9.32031 306.441 9.33008 306.158 9.33008H303.775V16.0098H302.154V0.667969H306.158C308.014 0.667969 309.332 0.970703 310.123 1.56641C311.139 2.29883 311.646 3.44141 311.637 4.99414C311.637 6.50781 311.148 7.65039 310.162 8.41211C309.693 8.75391 309.117 8.99805 308.443 9.14453V9.18359ZM305.914 7.89453L305.924 7.88477C307.516 7.88477 308.59 7.64062 309.156 7.16211C309.732 6.69336 310.016 5.96094 310.016 4.96484C310.016 4.01758 309.723 3.30469 309.137 2.81641C308.561 2.33789 307.486 2.10352 305.914 2.11328H303.766V7.89453H305.914ZM315.49 16V0.658203H325.295V2.10352H317.111V7.35742H324.23V8.80273H317.111V16H315.49ZM333.289 16.1758C331.473 16.1758 330.096 15.6973 329.168 14.7402C328.24 13.832 327.771 12.3574 327.771 10.3164V0.658203H329.393V10.0234C329.393 11.7031 329.715 12.8945 330.35 13.5977C330.984 14.3496 331.961 14.7207 333.279 14.7207C334.617 14.7207 335.613 14.3398 336.268 13.5781C336.902 12.8652 337.225 11.6836 337.225 10.0234V0.658203H338.826V10.3164C338.826 12.3574 338.367 13.8223 337.449 14.7207C336.492 15.6875 335.105 16.1758 333.289 16.1758ZM342.924 16V0.658203H344.545V14.5352H351.508V16H342.924ZM61.0293 46V30.6582H65.8145C68.627 30.6582 70.6582 31.2832 71.8984 32.5234C73.2363 33.8027 73.9004 35.7754 73.8906 38.4414C73.8906 40.9707 73.2461 42.8652 71.957 44.1152C70.6875 45.375 68.6367 46 65.7949 46H61.0293ZM62.6504 44.5352H65.6484C68.0801 44.5352 69.7891 44.0273 70.7754 43.002C71.791 41.9766 72.2988 40.4336 72.2988 38.3828C72.2988 36.2734 71.8203 34.7207 70.8535 33.7246C69.8672 32.6406 68.1875 32.1035 65.8145 32.1035H62.6504V44.5352ZM77.3145 46V30.6582H78.9355V46H77.3145ZM90.6309 38.002L96.2656 38.0117V46.0098H94.8105V43.3535H94.6738C94.2148 44.2031 93.5703 44.877 92.7305 45.3652C91.7832 45.9121 90.6895 46.1855 89.4492 46.1855C87.2324 46.1855 85.4941 45.4629 84.2344 44.0078C82.9746 42.5527 82.3496 40.6582 82.3496 38.3145C82.3496 35.9805 82.9648 34.0957 84.1953 32.6504C85.4258 31.2051 87.1445 30.4824 89.3418 30.4824C91.207 30.4824 92.75 31 93.9609 32.0449C95.1719 33.0898 95.9141 34.4961 96.1777 36.2637H94.5176C94.2734 34.9453 93.6973 33.8906 92.7891 33.1094C91.8809 32.3281 90.7285 31.9375 89.332 31.9375C87.6133 31.9375 86.2852 32.5234 85.3477 33.6953C84.4102 34.8672 83.9414 36.4004 83.9414 38.2949C83.9414 40.2578 84.4395 41.8203 85.4355 42.9824C86.4316 44.1445 87.8184 44.7207 89.5957 44.7207C91.0215 44.7207 92.1641 44.3398 93.0332 43.5781C94.1367 42.6309 94.7227 41.2441 94.791 39.418H90.6309V38.002ZM100.139 46V30.6582H101.76V46H100.139ZM109.754 46V32.1035H104.451V30.6582H116.678V32.1035H111.355V46H109.754ZM123.705 30.6582L129.027 45.6777V46H127.426L126.186 42.3574H119.311L118.07 46H116.43V45.6777L121.762 30.6582H123.705ZM119.809 40.9023H125.688L122.865 32.6211H122.65L119.809 40.9023ZM131.826 46V30.6582H133.447V44.5352H140.41V46H131.826ZM147.775 46V30.6582H157.385V32.1035H149.396V37.3574H156.564V38.8027H149.396V44.5352H157.844V46H147.775ZM159.48 46V45.6777L164.637 38.2754L159.559 30.9805V30.6582H161.258L165.662 37.084H165.877L170.262 30.6582H172V30.9805L166.902 38.2754L172.059 45.6777V46H170.359L165.877 39.5156H165.662L161.18 46H159.48ZM174.955 46L174.965 30.6582H178.969C180.824 30.6582 182.143 30.9609 182.934 31.5566C183.949 32.2891 184.457 33.4316 184.447 34.9844C184.447 36.498 183.959 37.6406 182.973 38.4023C182.143 39.0176 180.805 39.3203 178.959 39.3203H176.576V46H174.955ZM176.586 37.8848L178.744 37.875C180.336 37.875 181.41 37.6309 181.977 37.1523C182.553 36.6836 182.836 35.9512 182.836 34.9551C182.836 34.0078 182.543 33.2949 181.957 32.8066C181.381 32.3281 180.307 32.0938 178.734 32.1035H176.586V37.8848ZM187.373 46V30.6582H196.982V32.1035H188.994V37.3574H196.162V38.8027H188.994V44.5352H197.441V46H187.373ZM206.822 39.1836L210.885 45.668V46.0098H209.244L205.152 39.3105C205.025 39.3203 204.82 39.3301 204.537 39.3301H202.154V46.0098H200.533V30.668H204.537C206.393 30.668 207.711 30.9707 208.502 31.5664C209.518 32.2988 210.025 33.4414 210.016 34.9941C210.016 36.5078 209.527 37.6504 208.541 38.4121C208.072 38.7539 207.496 38.998 206.822 39.1445V39.1836ZM204.293 37.8945L204.303 37.8848C205.895 37.8848 206.969 37.6406 207.535 37.1621C208.111 36.6934 208.395 35.9609 208.395 34.9648C208.395 34.0176 208.102 33.3047 207.516 32.8164C206.939 32.3379 205.865 32.1035 204.293 32.1133H202.145V37.8945H204.293ZM213.869 46V30.6582H215.49V46H213.869ZM219.881 46V30.6582H229.49V32.1035H221.502V37.3574H228.67V38.8027H221.502V44.5352H229.949V46H219.881ZM233.041 46V30.6582H235.863L243.129 44.5352H243.344V30.6582H244.945V46H242.123L234.887 32.1035H234.662V46H233.041ZM255.371 46.1758L255.361 46.1953C253.164 46.1953 251.445 45.4727 250.205 44.0273C248.965 42.582 248.35 40.6973 248.35 38.3633C248.35 36.0195 248.975 34.125 250.215 32.6797C251.455 31.2344 253.174 30.5117 255.371 30.5117C257.236 30.5117 258.76 31.0293 259.932 32.0645C261.104 33.0996 261.826 34.5059 262.109 36.2832H260.449C260.205 34.9648 259.648 33.9199 258.77 33.1582C257.891 32.3965 256.758 32.0156 255.371 32.0156C253.662 32.0156 252.334 32.5918 251.387 33.7539C250.439 34.916 249.971 36.4492 249.971 38.3535C249.971 40.248 250.449 41.7715 251.396 42.9336C252.344 44.0957 253.672 44.6719 255.381 44.6719C256.777 44.6719 257.91 44.291 258.779 43.5293C259.648 42.7676 260.205 41.7324 260.449 40.4141H262.109C261.826 42.1816 261.104 43.5879 259.932 44.623C258.76 45.6582 257.236 46.1758 255.371 46.1758ZM265.025 46V30.6582H274.635V32.1035H266.646V37.3574H273.814V38.8027H266.646V44.5352H275.094V46H265.025ZM283.41 46.1758H283.381C281.447 46.1758 279.895 45.6582 278.723 44.6328C277.551 43.6074 276.965 42.1914 276.965 40.3945H278.557C278.557 41.752 278.996 42.8066 279.865 43.5684C280.734 44.3301 281.926 44.7109 283.439 44.7109C284.719 44.7109 285.705 44.4375 286.389 43.8906C287.072 43.3438 287.414 42.6016 287.414 41.6543C287.414 41.2246 287.346 40.8633 287.209 40.5605C287.072 40.2578 286.857 40.0137 286.564 39.8184C286.271 39.623 285.988 39.4766 285.715 39.3691C285.441 39.2617 285.08 39.1445 284.621 39.0176L281.379 38.1191C280.998 38.0117 280.686 37.9238 280.451 37.8457C280.217 37.7676 279.904 37.6309 279.504 37.4258C279.104 37.2207 278.791 36.9961 278.566 36.7617C278.342 36.5273 278.137 36.2051 277.951 35.8047C277.766 35.4043 277.678 34.9453 277.678 34.4375C277.678 33.1777 278.166 32.2012 279.133 31.498C280.1 30.7949 281.35 30.4434 282.883 30.4434C284.514 30.4434 285.861 30.8438 286.916 31.6543C287.971 32.4648 288.527 33.5781 288.576 34.9941H286.945C286.896 34.0371 286.516 33.2852 285.803 32.7383C285.09 32.1914 284.123 31.918 282.902 31.918C281.779 31.918 280.9 32.1426 280.266 32.5918C279.631 33.041 279.318 33.6562 279.318 34.4473C279.318 34.8184 279.387 35.1406 279.523 35.4141C279.66 35.6875 279.885 35.9121 280.188 36.0879C280.49 36.2637 280.764 36.3906 281.008 36.4785C281.252 36.5664 281.594 36.6738 282.023 36.8008L285.383 37.7383C285.783 37.8457 286.096 37.9336 286.33 38.0117C286.564 38.0898 286.887 38.2363 287.287 38.4414C287.688 38.6465 287.99 38.8711 288.205 39.1152C288.42 39.3594 288.615 39.7012 288.801 40.1309C288.986 40.5605 289.074 41.0488 289.074 41.5957C289.074 42.9922 288.566 44.1055 287.551 44.9355C286.535 45.7656 285.158 46.1758 283.41 46.1758Z" fill="white"/>
</svg>
