<svg width="2200" height="1262" viewBox="0 0 2200 1262" fill="none" xmlns="http://www.w3.org/2000/svg">
<rect width="2200" height="1262" fill="#24E669"/>
<mask id="path-1-inside-1_4190_26738" fill="white">
<path d="M0 0H1144V1242H0V0Z"/>
</mask>
<path d="M0 0H1144V1242H0V0Z" fill="#24E669"/>
<path d="M1.76 1242V0H-1.76V1242H1.76Z" fill="#101010" mask="url(#path-1-inside-1_4190_26738)"/>
<path d="M62.6035 137.32V85.7981H67.4083V132.959H91.1366V137.32H62.6035ZM96.4109 137.32V100.878H101.068V137.32H96.4109ZM95.9674 93.7814V85.7981H101.511V93.7814H95.9674ZM125.299 152.991C120.124 152.991 116.034 152.03 113.028 150.108C110.071 148.187 108.593 145.525 108.593 142.125C108.593 141.879 108.593 141.558 108.593 141.164C108.593 140.819 108.642 140.499 108.741 140.203L117.167 133.476L118.942 134.659L113.25 141.238C113.2 141.435 113.176 141.608 113.176 141.756C113.176 141.953 113.176 142.125 113.176 142.273C113.176 144.638 114.309 146.412 116.576 147.595C118.843 148.778 121.75 149.369 125.299 149.369C128.305 149.369 130.769 148.876 132.691 147.891C134.662 146.955 135.647 145.476 135.647 143.456C135.647 142.273 135.302 141.312 134.613 140.573C133.972 139.883 133.06 139.316 131.878 138.873C130.695 138.478 129.315 138.133 127.738 137.838C126.161 137.591 124.461 137.32 122.638 137.025C120.469 136.68 118.375 136.212 116.354 135.62C114.383 134.98 112.757 134.092 111.476 132.959C110.244 131.776 109.628 130.199 109.628 128.228C109.628 126.553 110.17 125.074 111.254 123.793C112.338 122.462 113.841 121.329 115.763 120.393L118.72 122.462C117.044 122.955 115.837 123.645 115.098 124.532C114.408 125.37 114.063 126.38 114.063 127.563C114.063 128.696 114.432 129.608 115.172 130.298C115.96 130.988 117.02 131.53 118.35 131.924C119.73 132.269 121.332 132.565 123.155 132.811C125.422 133.156 127.566 133.526 129.586 133.92C131.656 134.314 133.479 134.856 135.056 135.546C136.682 136.236 137.939 137.148 138.826 138.281C139.762 139.464 140.23 141.016 140.23 142.938C140.23 146.191 138.875 148.679 136.165 150.404C133.504 152.129 129.882 152.991 125.299 152.991ZM124.264 125.271C121.603 125.271 119.213 124.754 117.094 123.719C115.024 122.684 113.398 121.23 112.215 119.358C111.081 117.485 110.515 115.341 110.515 112.927C110.515 110.463 111.106 108.294 112.289 106.422C113.521 104.5 115.172 103.021 117.241 101.987C119.311 100.902 121.603 100.36 124.116 100.36C126.629 100.36 128.896 100.902 130.917 101.987C132.986 103.021 134.613 104.5 135.795 106.422C137.027 108.344 137.643 110.586 137.643 113.148C137.643 115.563 137.052 117.682 135.869 119.506C134.736 121.329 133.159 122.758 131.138 123.793C129.167 124.779 126.876 125.271 124.264 125.271ZM124.19 121.428C126.9 121.428 129.044 120.614 130.621 118.988C132.198 117.362 132.986 115.317 132.986 112.853C132.986 110.241 132.173 108.147 130.547 106.57C128.921 104.943 126.802 104.13 124.19 104.13C121.529 104.13 119.36 104.943 117.685 106.57C116.009 108.196 115.172 110.266 115.172 112.779C115.172 115.243 115.985 117.313 117.611 118.988C119.237 120.614 121.43 121.428 124.19 121.428ZM135.352 107.161L131.951 104.869L139.27 98.6602L141.635 101.617L135.352 107.161ZM146.945 137.32V85.7981H151.676V109.379L150.493 109.748C151.134 107.728 152.046 106.028 153.228 104.648C154.46 103.268 155.889 102.208 157.516 101.469C159.191 100.73 161.039 100.36 163.06 100.36C167.051 100.36 170.131 101.568 172.3 103.982C174.517 106.348 175.626 109.871 175.626 114.553V137.32H170.969V116.253C170.969 112.212 170.205 109.231 168.678 107.309C167.199 105.387 164.957 104.426 161.951 104.426C158.797 104.426 156.284 105.609 154.411 107.974C152.588 110.34 151.676 114.109 151.676 119.284V137.32H146.945ZM194.89 137.838C193.263 137.838 191.834 137.517 190.602 136.877C189.37 136.236 188.409 135.251 187.719 133.92C187.079 132.54 186.759 130.815 186.759 128.746V90.455L191.489 87.72V127.637C191.489 129.608 191.81 131.16 192.45 132.294C193.14 133.378 194.323 133.92 195.999 133.92C196.59 133.92 197.231 133.871 197.92 133.772C198.61 133.624 199.35 133.452 200.138 133.255V136.951C199.251 137.246 198.364 137.468 197.477 137.616C196.59 137.764 195.727 137.838 194.89 137.838ZM178.701 104.574V100.878H200.138V104.574H178.701Z" fill="#101010"/>
<path d="M753.544 1073.04L750.2 862.368V561.408C750.2 475.579 729.022 410.371 686.664 365.784C645.422 321.197 583 298.904 499.4 298.904C444.782 298.904 396.294 310.051 353.936 332.344C311.579 353.523 271.451 388.635 233.552 437.68L183.392 395.88C225.75 340.147 272.566 300.019 323.84 275.496C376.23 250.973 435.864 238.712 502.744 238.712C605.294 238.712 683.878 266.579 738.496 322.312C793.115 376.931 820.424 456.629 820.424 561.408V1073.04H753.544ZM444.224 1083.07C384.032 1083.07 332.2 1073.04 288.728 1052.98C246.371 1032.91 213.488 1004.49 190.08 967.704C167.787 930.92 156.64 888.005 156.64 838.96C156.64 796.603 164.443 760.376 180.048 730.28C196.768 700.184 217.947 676.219 243.584 658.384C273.68 637.205 308.235 622.715 347.248 614.912C387.376 607.109 431.406 603.208 479.336 603.208H760.232V658.384H489.368C449.24 658.384 411.899 661.728 377.344 668.416C342.79 675.104 313.251 686.808 288.728 703.528C269.779 719.133 254.174 738.083 241.912 760.376C230.766 782.669 225.192 809.421 225.192 840.632C225.192 896.365 245.256 941.509 285.384 976.064C325.512 1009.5 380.688 1026.22 450.912 1026.22C505.531 1026.22 555.134 1012.85 599.72 986.096C645.422 958.229 681.648 920.888 708.4 874.072C736.267 827.256 750.2 774.309 750.2 715.232L781.968 755.36C779.739 822.24 762.462 880.203 730.136 929.248C697.811 978.293 656.568 1016.19 606.408 1042.94C557.363 1069.7 503.302 1083.07 444.224 1083.07Z" fill="#101010"/>
<mask id="path-5-inside-2_4190_26738" fill="white">
<path d="M352 0H1496V1242H352V0Z"/>
</mask>
<path d="M352 0H1496V1242H352V0Z" fill="#24E669"/>
<path d="M353.76 1242V0H350.24V1242H353.76Z" fill="#101010" mask="url(#path-5-inside-2_4190_26738)"/>
<path d="M414.16 137.32V85.7981H429.535C433.478 85.7981 436.706 86.3894 439.219 87.5722C441.732 88.7056 443.605 90.3565 444.837 92.5248C446.069 94.6931 446.685 97.2803 446.685 100.286C446.685 104.574 445.453 107.974 442.989 110.487C440.525 112.951 436.952 114.405 432.27 114.849C431.531 114.898 430.644 114.923 429.609 114.923C428.574 114.923 427.564 114.923 426.579 114.923H420.665V137.32H414.16ZM442.989 137.32L429.609 114.109L436.262 113.296L450.455 137.32H442.989ZM420.665 109.157H428.87C431.137 109.157 433.108 108.861 434.784 108.27C436.459 107.678 437.765 106.742 438.701 105.461C439.687 104.18 440.18 102.479 440.18 100.36C440.18 98.192 439.687 96.4918 438.701 95.2598C437.765 93.9786 436.435 93.0669 434.71 92.5248C433.034 91.9334 431.088 91.6378 428.87 91.6378H420.665V109.157ZM470.13 137.912C467.272 137.912 464.759 137.444 462.59 136.507C460.471 135.522 458.697 134.166 457.268 132.442C455.888 130.717 454.829 128.746 454.089 126.528C453.4 124.261 453.055 121.871 453.055 119.358C453.055 116.844 453.4 114.454 454.089 112.188C454.779 109.871 455.79 107.826 457.12 106.052C458.5 104.278 460.225 102.874 462.295 101.839C464.364 100.804 466.779 100.286 469.539 100.286C472.348 100.286 474.762 100.779 476.783 101.765C478.853 102.701 480.528 104.007 481.809 105.683C483.14 107.358 484.126 109.231 484.766 111.3C485.407 113.37 485.727 115.514 485.727 117.732C485.727 117.929 485.703 118.397 485.653 119.136C485.653 119.826 485.604 120.442 485.505 120.984H459.264C459.412 124.532 460.447 127.292 462.369 129.263C464.29 131.234 466.902 132.22 470.204 132.22C472.323 132.22 474.171 131.875 475.748 131.185C477.325 130.495 478.803 129.386 480.183 127.859L484.545 131.702C483.214 133.132 481.809 134.314 480.331 135.251C478.853 136.138 477.276 136.803 475.6 137.246C473.974 137.69 472.151 137.912 470.13 137.912ZM479.518 117.805C479.617 117.411 479.666 117.017 479.666 116.623C479.715 116.228 479.74 115.834 479.74 115.44C479.74 114.257 479.518 113.075 479.074 111.892C478.68 110.709 478.064 109.65 477.226 108.713C476.438 107.728 475.403 106.964 474.122 106.422C472.89 105.83 471.411 105.535 469.687 105.535C467.568 105.535 465.744 106.028 464.217 107.013C462.689 107.999 461.506 109.305 460.668 110.931C459.831 112.557 459.338 114.356 459.19 116.327H481.588L479.518 117.805ZM507.906 153.065C502.682 153.065 498.543 152.104 495.488 150.182C492.432 148.26 490.905 145.599 490.905 142.199C490.905 141.953 490.905 141.632 490.905 141.238C490.954 140.844 491.028 140.474 491.126 140.129L500.218 133.55L502.362 135.029L497.188 141.46C497.138 141.657 497.114 141.829 497.114 141.977C497.114 142.125 497.114 142.273 497.114 142.421C497.114 144.392 498.149 145.846 500.218 146.782C502.288 147.768 504.851 148.26 507.906 148.26C510.617 148.26 512.859 147.866 514.633 147.078C516.407 146.339 517.294 145.107 517.294 143.382C517.294 142.396 516.998 141.583 516.407 140.942C515.865 140.351 515.052 139.883 513.968 139.538C512.933 139.193 511.701 138.897 510.272 138.651C508.842 138.404 507.241 138.158 505.467 137.912C503.249 137.567 501.081 137.074 498.962 136.433C496.892 135.793 495.167 134.856 493.787 133.624C492.457 132.392 491.792 130.766 491.792 128.746C491.792 127.021 492.383 125.444 493.566 124.015C494.798 122.586 496.399 121.403 498.37 120.467L502.362 123.054C500.687 123.448 499.504 124.064 498.814 124.902C498.124 125.69 497.779 126.651 497.779 127.785C497.779 128.721 498.099 129.485 498.74 130.076C499.43 130.668 500.391 131.136 501.623 131.481C502.904 131.776 504.432 132.047 506.206 132.294C508.571 132.639 510.789 133.008 512.859 133.403C514.929 133.797 516.752 134.364 518.329 135.103C519.955 135.793 521.212 136.729 522.099 137.912C522.986 139.144 523.429 140.721 523.429 142.643C523.429 145.994 522.05 148.556 519.29 150.33C516.53 152.154 512.736 153.065 507.906 153.065ZM507.019 125.937C504.21 125.937 501.722 125.395 499.553 124.31C497.385 123.226 495.685 121.723 494.453 119.801C493.27 117.879 492.679 115.686 492.679 113.222C492.679 110.66 493.295 108.418 494.527 106.496C495.808 104.524 497.508 102.997 499.627 101.913C501.795 100.828 504.186 100.286 506.797 100.286C509.36 100.286 511.701 100.828 513.82 101.913C515.939 102.997 517.639 104.524 518.92 106.496C520.202 108.467 520.842 110.783 520.842 113.444C520.842 115.957 520.251 118.15 519.068 120.023C517.885 121.896 516.259 123.349 514.189 124.384C512.12 125.419 509.73 125.937 507.019 125.937ZM506.871 120.836C509.335 120.836 511.233 120.097 512.563 118.619C513.943 117.091 514.633 115.243 514.633 113.075C514.633 110.758 513.918 108.886 512.489 107.457C511.06 106.028 509.187 105.313 506.871 105.313C504.506 105.313 502.584 106.052 501.106 107.531C499.627 108.96 498.888 110.783 498.888 113.001C498.888 115.218 499.602 117.091 501.032 118.619C502.461 120.097 504.407 120.836 506.871 120.836ZM518.477 107.678L513.968 104.648L521.655 98.2906L524.834 102.208L518.477 107.678ZM541.959 137.912C539.347 137.912 537.08 137.394 535.158 136.359C533.236 135.275 531.758 133.698 530.723 131.628C529.738 129.559 529.245 126.996 529.245 123.941V100.878H535.454V121.723C535.454 124.138 535.75 126.158 536.341 127.785C536.982 129.362 537.918 130.544 539.15 131.333C540.382 132.072 541.91 132.442 543.733 132.442C545.754 132.442 547.454 131.973 548.834 131.037C550.263 130.052 551.347 128.573 552.086 126.602C552.825 124.631 553.195 122.093 553.195 118.988V100.878H559.404V137.32H553.195V129.559H554.747C553.712 132.269 552.061 134.339 549.795 135.768C547.528 137.197 544.916 137.912 541.959 137.912ZM575.953 137.912C573.735 137.912 571.937 137.222 570.557 135.842C569.177 134.462 568.487 132.269 568.487 129.263V85.7981H574.696V128.08C574.696 129.509 574.992 130.544 575.583 131.185C576.175 131.826 576.963 132.146 577.949 132.146C578.392 132.146 578.885 132.097 579.427 131.998C579.969 131.9 580.536 131.752 581.127 131.555V136.877C580.29 137.222 579.403 137.468 578.466 137.616C577.53 137.813 576.692 137.912 575.953 137.912ZM610.669 137.32L610.226 130.002V114.479C610.226 111.67 609.437 109.502 607.86 107.974C606.333 106.446 604.041 105.683 600.986 105.683C599.015 105.683 597.167 106.101 595.442 106.939C593.717 107.728 592.042 109.083 590.415 111.005L585.906 107.161C587.927 104.796 590.243 103.071 592.855 101.987C595.467 100.853 598.325 100.286 601.429 100.286C606.21 100.286 609.906 101.518 612.517 103.982C615.129 106.446 616.435 109.945 616.435 114.479V137.32H610.669ZM598.62 137.912C595.861 137.912 593.446 137.444 591.376 136.507C589.356 135.522 587.779 134.166 586.645 132.442C585.561 130.717 585.019 128.721 585.019 126.454C585.019 124.434 585.413 122.733 586.202 121.354C587.04 119.924 588.099 118.816 589.38 118.027C590.662 117.189 592.115 116.623 593.742 116.327C595.417 115.982 597.167 115.81 598.99 115.81H610.817V120.54H599.877C598.793 120.54 597.659 120.639 596.477 120.836C595.294 121.033 594.259 121.452 593.372 122.093C592.731 122.586 592.214 123.202 591.82 123.941C591.475 124.68 591.302 125.542 591.302 126.528C591.302 128.45 592.017 129.978 593.446 131.111C594.875 132.244 596.797 132.811 599.212 132.811C601.232 132.811 603.056 132.343 604.682 131.407C606.357 130.47 607.688 129.189 608.674 127.563C609.708 125.887 610.226 124.015 610.226 121.945L612.813 124.606C612.517 127.218 611.729 129.534 610.448 131.555C609.166 133.575 607.515 135.152 605.495 136.285C603.524 137.37 601.232 137.912 598.62 137.912ZM625.161 137.32V100.878H631.444V110.635L629.818 111.005C630.163 108.836 630.976 106.964 632.257 105.387C633.587 103.761 635.115 102.504 636.84 101.617C638.614 100.73 640.339 100.286 642.014 100.286C643.148 100.286 644.232 100.41 645.267 100.656C646.302 100.902 647.361 101.321 648.445 101.913L645.341 107.531C644.749 107.235 644.035 106.988 643.197 106.791C642.409 106.594 641.645 106.496 640.906 106.496C639.723 106.496 638.54 106.717 637.357 107.161C636.224 107.604 635.189 108.294 634.253 109.231C633.316 110.167 632.602 111.424 632.109 113.001C631.912 113.691 631.739 114.602 631.592 115.736C631.493 116.82 631.444 118.323 631.444 120.245V137.32H625.161Z" fill="#101010"/>
<path d="M1070.43 1073.04L1060.4 907.512V556.392C1060.4 492.856 1042.57 443.811 1006.9 409.256C972.342 374.701 920.51 357.424 851.4 357.424C806.814 357.424 765.014 366.899 726 385.848C686.987 403.683 649.088 434.336 612.304 477.808L510.312 390.864C556.014 337.36 608.403 298.347 667.48 273.824C726.558 248.187 791.208 235.368 861.432 235.368C969.555 235.368 1053.16 263.235 1112.23 318.968C1171.31 374.701 1200.85 453.843 1200.85 556.392V1073.04H1070.43ZM797.896 1086.42C735.475 1086.42 680.856 1075.83 634.04 1054.65C588.339 1032.35 552.67 1001.7 527.032 962.688C502.51 923.675 490.248 878.531 490.248 827.256C490.248 781.555 499.166 743.099 517 711.888C535.95 679.563 559.915 654.483 588.896 636.648C617.878 617.699 650.76 604.88 687.544 598.192C725.443 590.389 765.014 586.488 806.256 586.488H1073.78V693.496H826.32C801.798 693.496 776.16 695.725 749.408 700.184C722.656 704.643 699.248 714.117 679.184 728.608C664.694 739.755 652.99 753.688 644.072 770.408C636.27 787.128 632.368 806.635 632.368 828.928C632.368 872.4 648.531 906.955 680.856 932.592C713.182 958.229 756.654 971.048 811.272 971.048C856.974 971.048 898.216 960.459 935 939.28C972.899 918.101 1002.99 889.12 1025.29 852.336C1048.7 814.437 1060.4 772.08 1060.4 725.264L1118.92 785.456C1112.23 844.533 1094.4 896.923 1065.42 942.624C1036.43 988.325 999.094 1023.99 953.392 1049.63C908.806 1074.15 856.974 1086.42 797.896 1086.42Z" fill="#101010"/>
<mask id="path-9-inside-3_4190_26738" fill="white">
<path d="M704 0H1848V1242H704V0Z"/>
</mask>
<path d="M704 0H1848V1242H704V0Z" fill="#24E669"/>
<path d="M705.76 1242V0H702.24V1242H705.76Z" fill="#101010" mask="url(#path-9-inside-3_4190_26738)"/>
<path d="M782.201 138.281C776.78 138.281 772.345 136.877 768.895 134.068C765.495 131.259 763.4 127.514 762.612 122.832L770.965 120.762C771.507 124.015 772.788 126.479 774.809 128.154C776.878 129.83 779.416 130.668 782.422 130.668C784.098 130.668 785.601 130.372 786.932 129.78C788.262 129.14 789.297 128.253 790.036 127.119C790.825 125.986 791.219 124.705 791.219 123.276C791.219 121.748 790.8 120.491 789.962 119.506C789.124 118.471 787.917 117.559 786.34 116.771C784.763 115.933 782.841 115.07 780.574 114.183C777.47 113.001 774.833 111.719 772.665 110.34C770.497 108.96 768.846 107.333 767.712 105.461C766.579 103.539 766.012 101.272 766.012 98.6602C766.012 95.9498 766.677 93.5597 768.008 91.4899C769.339 89.3709 771.211 87.72 773.626 86.5373C776.041 85.3546 778.825 84.7632 781.979 84.7632C785.379 84.7632 788.385 85.527 790.997 87.0547C793.609 88.5824 795.703 90.8986 797.28 94.0032L790.48 98.1427C789.445 96.2701 788.188 94.841 786.71 93.8554C785.231 92.8205 783.556 92.303 781.683 92.303C780.353 92.303 779.145 92.5741 778.061 93.1161C776.977 93.609 776.115 94.3235 775.474 95.2598C774.883 96.1962 774.587 97.2803 774.587 98.5123C774.587 99.7936 774.956 100.927 775.696 101.913C776.435 102.849 777.568 103.711 779.096 104.5C780.673 105.288 782.669 106.151 785.084 107.087C788.188 108.27 790.825 109.551 792.993 110.931C795.161 112.311 796.812 113.962 797.946 115.884C799.128 117.756 799.72 120.048 799.72 122.758C799.72 125.764 798.98 128.425 797.502 130.741C796.024 133.058 793.954 134.906 791.293 136.285C788.681 137.616 785.65 138.281 782.201 138.281ZM821.915 137.986C818.86 137.986 816.199 137.493 813.932 136.507C811.714 135.522 809.891 134.142 808.462 132.368C807.033 130.594 805.973 128.598 805.283 126.38C804.593 124.113 804.248 121.772 804.248 119.358C804.248 116.943 804.569 114.602 805.209 112.335C805.899 110.019 806.934 107.949 808.314 106.126C809.694 104.303 811.468 102.874 813.636 101.839C815.805 100.755 818.367 100.212 821.324 100.212C824.133 100.212 826.572 100.705 828.642 101.691C830.761 102.627 832.511 103.958 833.89 105.683C835.27 107.358 836.28 109.28 836.921 111.448C837.611 113.617 837.956 115.933 837.956 118.397C837.956 118.742 837.931 119.235 837.882 119.875C837.882 120.516 837.833 121.156 837.734 121.797H812.454C812.651 124.705 813.636 126.922 815.41 128.45C817.184 129.978 819.451 130.741 822.211 130.741C824.231 130.741 826.079 130.421 827.755 129.78C829.431 129.14 830.958 128.13 832.338 126.75L836.847 132.22C835.319 133.6 833.792 134.708 832.264 135.546C830.736 136.384 829.135 137 827.459 137.394C825.833 137.788 823.985 137.986 821.915 137.986ZM829.899 117.658C829.997 117.263 830.047 116.869 830.047 116.475C830.096 116.081 830.12 115.686 830.12 115.292C830.12 114.208 829.923 113.173 829.529 112.188C829.184 111.202 828.642 110.34 827.903 109.6C827.164 108.812 826.252 108.196 825.168 107.752C824.084 107.26 822.852 107.013 821.472 107.013C819.55 107.013 817.924 107.432 816.593 108.27C815.312 109.108 814.302 110.192 813.562 111.522C812.872 112.804 812.454 114.208 812.306 115.736H832.56L829.899 117.658ZM844.462 137.32V100.878H852.667V110.34L850.893 111.374C851.337 109.255 851.953 107.481 852.741 106.052C853.579 104.623 854.54 103.49 855.624 102.652C856.708 101.765 857.866 101.149 859.098 100.804C860.379 100.41 861.661 100.212 862.942 100.212C864.913 100.212 866.761 100.607 868.486 101.395C870.211 102.134 871.665 103.366 872.847 105.091C874.079 106.767 874.917 109.058 875.361 111.966L870.556 113.296C871.295 110.142 872.33 107.629 873.66 105.756C874.991 103.835 876.543 102.43 878.317 101.543C880.141 100.656 882.112 100.212 884.231 100.212C887.336 100.212 889.824 100.902 891.697 102.282C893.619 103.613 895.023 105.387 895.91 107.604C896.797 109.773 897.241 112.114 897.241 114.627V137.32H889.036V116.623C889.036 114.602 888.789 112.902 888.297 111.522C887.853 110.142 887.139 109.108 886.153 108.418C885.167 107.678 883.911 107.309 882.383 107.309C880.757 107.309 879.402 107.728 878.317 108.565C877.233 109.354 876.395 110.586 875.804 112.261C875.262 113.937 874.991 116.007 874.991 118.471V137.32H866.786V116.253C866.786 113.247 866.219 111.005 865.086 109.526C863.952 108.048 862.351 107.309 860.281 107.309C858.655 107.309 857.275 107.728 856.141 108.565C855.008 109.403 854.146 110.66 853.554 112.335C852.963 113.962 852.667 116.007 852.667 118.471V137.32H844.462ZM904.847 137.32V100.878H913.052V137.32H904.847ZM904.477 94.8902V85.7981H913.421V94.8902H904.477ZM919.28 118.323V112.261H937.612V118.323H919.28ZM944.276 137.32V85.7981H961.869C966.896 85.7981 970.838 86.9562 973.696 89.2723C976.604 91.5392 978.057 94.6931 978.057 98.7341C978.057 101.198 977.54 103.366 976.505 105.239C975.47 107.062 974.016 108.516 972.144 109.6C975.002 110.537 977.146 112.089 978.575 114.257C980.004 116.426 980.719 119.136 980.719 122.388C980.719 127.07 979.24 130.741 976.283 133.403C973.376 136.014 969.286 137.32 964.013 137.32H944.276ZM952.851 129.485H963.347C969.261 129.485 972.218 126.996 972.218 122.019C972.218 119.653 971.503 117.83 970.074 116.549C968.694 115.218 966.748 114.553 964.234 114.553H952.851V129.485ZM952.851 106.865H962.46C964.629 106.865 966.353 106.274 967.635 105.091C968.916 103.859 969.557 102.184 969.557 100.065C969.557 98.0442 968.867 96.4672 967.487 95.3338C966.156 94.2003 964.284 93.6336 961.869 93.6336H952.851V106.865ZM1003.74 137.986C1000.29 137.986 997.183 137.172 994.423 135.546C991.664 133.92 989.495 131.678 987.918 128.82C986.391 125.961 985.627 122.709 985.627 119.062C985.627 115.415 986.391 112.163 987.918 109.305C989.495 106.446 991.639 104.229 994.349 102.652C997.109 101.026 1000.24 100.212 1003.74 100.212C1007.29 100.212 1010.39 101.026 1013.05 102.652C1015.76 104.229 1017.91 106.446 1019.48 109.305C1021.06 112.163 1021.85 115.415 1021.85 119.062C1021.85 122.709 1021.06 125.961 1019.48 128.82C1017.95 131.678 1015.81 133.92 1013.05 135.546C1010.34 137.172 1007.24 137.986 1003.74 137.986ZM1003.81 130.741C1005.83 130.741 1007.58 130.273 1009.06 129.337C1010.54 128.401 1011.67 127.045 1012.46 125.271C1013.25 123.497 1013.64 121.428 1013.64 119.062C1013.64 116.647 1013.25 114.578 1012.46 112.853C1011.67 111.079 1010.54 109.724 1009.06 108.787C1007.58 107.851 1005.83 107.383 1003.81 107.383C1001.69 107.383 999.893 107.876 998.415 108.861C996.936 109.797 995.803 111.128 995.015 112.853C994.226 114.578 993.832 116.647 993.832 119.062C993.832 121.428 994.226 123.497 995.015 125.271C995.803 127.045 996.936 128.401 998.415 129.337C999.893 130.273 1001.69 130.741 1003.81 130.741ZM1036.35 137.986C1033.99 137.986 1032.02 137.271 1030.44 135.842C1028.86 134.364 1028.07 132.023 1028.07 128.82V85.7981H1036.28V127.193C1036.28 128.327 1036.52 129.164 1037.02 129.707C1037.56 130.199 1038.25 130.446 1039.09 130.446C1039.53 130.446 1039.97 130.396 1040.42 130.298C1040.91 130.199 1041.4 130.076 1041.9 129.928V136.877C1040.96 137.271 1040 137.542 1039.01 137.69C1038.03 137.887 1037.14 137.986 1036.35 137.986ZM1061.22 137.986C1057.97 137.986 1055.14 137.172 1052.72 135.546C1050.36 133.871 1048.53 131.604 1047.25 128.746C1045.97 125.887 1045.33 122.66 1045.33 119.062C1045.33 115.12 1046.02 111.744 1047.4 108.935C1048.83 106.126 1050.75 103.982 1053.16 102.504C1055.58 100.976 1058.26 100.212 1061.22 100.212C1063.29 100.212 1065.19 100.631 1066.91 101.469C1068.69 102.307 1070.17 103.539 1071.35 105.165C1072.58 106.742 1073.44 108.689 1073.94 111.005L1072.01 111.079V85.7981H1080.22V137.32H1072.01V127.193L1074.23 126.676C1073.59 129.337 1072.61 131.505 1071.27 133.181C1069.99 134.807 1068.49 136.014 1066.77 136.803C1065.04 137.591 1063.19 137.986 1061.22 137.986ZM1063.22 130.446C1065.14 130.446 1066.81 129.978 1068.24 129.041C1069.67 128.105 1070.78 126.774 1071.57 125.05C1072.36 123.325 1072.75 121.329 1072.75 119.062C1072.75 116.795 1072.36 114.824 1071.57 113.148C1070.78 111.424 1069.67 110.093 1068.24 109.157C1066.81 108.171 1065.14 107.678 1063.22 107.678C1061.3 107.678 1059.6 108.147 1058.12 109.083C1056.69 110.019 1055.55 111.35 1054.72 113.075C1053.93 114.799 1053.53 116.795 1053.53 119.062C1053.53 121.329 1053.93 123.325 1054.72 125.05C1055.55 126.774 1056.69 128.105 1058.12 129.041C1059.6 129.978 1061.3 130.446 1063.22 130.446Z" fill="#101010"/>
<path d="M1400.7 1073.04L1387.32 934.264V553.048C1387.32 499.544 1371.16 459.416 1338.83 432.664C1306.51 404.797 1261.36 390.864 1203.4 390.864C1158.81 390.864 1114.78 399.781 1071.31 417.616C1028.95 434.336 989.942 460.531 954.272 496.2L850.608 374.144C904.112 323.984 960.96 288.315 1021.15 267.136C1081.34 244.843 1147.11 233.696 1218.45 233.696C1329.92 233.696 1416.3 262.12 1477.61 318.968C1540.03 374.701 1571.24 452.728 1571.24 553.048V1073.04H1400.7ZM1144.88 1088.09C1083.57 1088.09 1028.95 1076.94 981.024 1054.65C934.208 1032.35 897.424 1001.14 870.672 961.016C845.035 920.888 832.216 874.072 832.216 820.568C832.216 774.867 841.691 735.296 860.64 701.856C880.704 668.416 906.342 642.221 937.552 623.272C964.304 606.552 995.515 594.848 1031.18 588.16C1066.85 580.357 1104.19 576.456 1143.21 576.456H1402.37V715.232H1169.96C1149.9 715.232 1129.83 717.461 1109.77 721.92C1089.7 725.264 1071.87 731.952 1056.26 741.984C1045.12 750.901 1035.64 762.048 1027.84 775.424C1021.15 788.8 1017.81 804.405 1017.81 822.24C1017.81 857.909 1031.18 886.333 1057.94 907.512C1085.8 927.576 1122.59 937.608 1168.29 937.608C1208.42 937.608 1244.64 928.691 1276.97 910.856C1310.41 893.021 1337.16 868.499 1357.22 837.288C1377.29 806.077 1387.32 770.965 1387.32 731.952L1444.17 823.912C1430.79 881.875 1409.61 930.92 1380.63 971.048C1351.65 1010.06 1317.1 1039.6 1276.97 1059.66C1236.84 1078.61 1192.81 1088.09 1144.88 1088.09Z" fill="#101010"/>
<mask id="path-13-inside-4_4190_26738" fill="white">
<path d="M1056 0H2200V1242H1056V0Z"/>
</mask>
<path d="M1056 0H2200V1242H1056V0Z" fill="#24E669"/>
<path d="M1057.76 1242V0H1054.24V1242H1057.76Z" fill="#101010" mask="url(#path-13-inside-4_4190_26738)"/>
<path d="M1116.68 137.32V85.7981H1135.9C1141.17 85.7981 1145.31 86.9562 1148.32 89.2723C1151.33 91.5885 1152.83 94.7917 1152.83 98.8819C1152.83 101.149 1152.38 103.169 1151.5 104.943C1150.61 106.717 1149.38 108.171 1147.8 109.305C1150.51 110.487 1152.48 112.138 1153.72 114.257C1155 116.327 1155.64 118.865 1155.64 121.871C1155.64 126.651 1154.11 130.421 1151.05 133.181C1148.05 135.94 1143.91 137.32 1138.64 137.32H1116.68ZM1128.29 126.676H1137.67C1141.91 126.676 1144.03 124.902 1144.03 121.354C1144.03 119.629 1143.47 118.298 1142.33 117.362C1141.25 116.426 1139.7 115.957 1137.67 115.957H1128.29V126.676ZM1128.29 105.609H1135.9C1137.58 105.609 1138.88 105.19 1139.82 104.352C1140.75 103.465 1141.22 102.258 1141.22 100.73C1141.22 99.3501 1140.75 98.2906 1139.82 97.5513C1138.93 96.8122 1137.63 96.4426 1135.9 96.4426H1128.29V105.609ZM1177.6 138.133C1174.01 138.133 1170.78 137.32 1167.92 135.694C1165.11 134.019 1162.89 131.752 1161.27 128.893C1159.64 125.986 1158.83 122.709 1158.83 119.062C1158.83 115.366 1159.64 112.089 1161.27 109.231C1162.89 106.372 1165.11 104.13 1167.92 102.504C1170.78 100.878 1174.01 100.065 1177.6 100.065C1181.2 100.065 1184.4 100.878 1187.21 102.504C1190.02 104.13 1192.24 106.372 1193.87 109.231C1195.49 112.089 1196.31 115.366 1196.31 119.062C1196.31 122.709 1195.49 125.986 1193.87 128.893C1192.24 131.752 1190.02 134.019 1187.21 135.694C1184.4 137.32 1181.2 138.133 1177.6 138.133ZM1177.6 128.376C1179.23 128.376 1180.61 128.031 1181.74 127.341C1182.88 126.602 1183.71 125.542 1184.26 124.163C1184.85 122.733 1185.14 121.033 1185.14 119.062C1185.14 117.042 1184.85 115.366 1184.26 114.036C1183.71 112.656 1182.88 111.621 1181.74 110.931C1180.61 110.192 1179.23 109.822 1177.6 109.822C1175.98 109.822 1174.6 110.192 1173.46 110.931C1172.33 111.621 1171.47 112.656 1170.88 114.036C1170.29 115.366 1169.99 117.042 1169.99 119.062C1169.99 121.033 1170.29 122.733 1170.88 124.163C1171.47 125.542 1172.33 126.602 1173.46 127.341C1174.6 128.031 1175.98 128.376 1177.6 128.376ZM1210.38 138.133C1207.71 138.133 1205.47 137.345 1203.65 135.768C1201.83 134.142 1200.91 131.579 1200.91 128.08V85.7981H1212V125.863C1212 126.602 1212.2 127.119 1212.59 127.415C1213.04 127.711 1213.58 127.859 1214.22 127.859C1214.61 127.859 1214.98 127.834 1215.33 127.785C1215.72 127.686 1216.12 127.588 1216.51 127.489V136.951C1215.38 137.394 1214.27 137.69 1213.18 137.838C1212.15 138.035 1211.21 138.133 1210.38 138.133ZM1233.97 138.133C1230.81 138.133 1228.13 137.32 1225.91 135.694C1223.69 134.019 1221.99 131.752 1220.81 128.893C1219.67 125.986 1219.11 122.709 1219.11 119.062C1219.11 114.972 1219.77 111.522 1221.1 108.713C1222.43 105.904 1224.23 103.761 1226.5 102.282C1228.77 100.804 1231.26 100.065 1233.97 100.065C1235.69 100.065 1237.37 100.434 1238.99 101.173C1240.62 101.913 1242.02 103.12 1243.21 104.796C1244.39 106.471 1245.18 108.763 1245.57 111.67L1243.58 110.044V85.7981H1254.66V137.32H1243.58V128.302L1245.87 126.084C1245.28 129.485 1244.31 132.047 1242.98 133.772C1241.65 135.497 1240.17 136.655 1238.55 137.246C1236.97 137.838 1235.44 138.133 1233.97 138.133ZM1237.44 127.932C1238.97 127.932 1240.25 127.588 1241.28 126.898C1242.37 126.158 1243.18 125.124 1243.72 123.793C1244.31 122.462 1244.61 120.885 1244.61 119.062C1244.61 117.239 1244.31 115.686 1243.72 114.405C1243.18 113.075 1242.37 112.064 1241.28 111.374C1240.25 110.635 1238.97 110.266 1237.44 110.266C1235.96 110.266 1234.68 110.611 1233.6 111.3C1232.51 111.99 1231.67 113.001 1231.08 114.331C1230.54 115.612 1230.27 117.189 1230.27 119.062C1230.27 120.935 1230.54 122.536 1231.08 123.867C1231.67 125.197 1232.51 126.208 1233.6 126.898C1234.68 127.588 1235.96 127.932 1237.44 127.932Z" fill="#101010"/>
<path d="M1742.66 1073.04L1725.94 949.312V553.048C1725.94 504.003 1710.34 467.776 1679.13 444.368C1649.03 419.845 1607.79 407.584 1555.4 407.584C1511.93 407.584 1467.34 416.501 1421.64 434.336C1377.05 451.056 1337.48 475.021 1302.93 506.232L1197.59 364.112C1255.55 317.296 1314.63 283.856 1374.82 263.792C1436.13 242.613 1501.9 232.024 1572.12 232.024C1685.82 232.024 1774.43 260.448 1837.97 317.296C1901.5 374.144 1933.27 452.728 1933.27 553.048V1073.04H1742.66ZM1493.54 1089.76C1433.34 1089.76 1379.28 1078.61 1331.35 1056.32C1284.54 1034.03 1247.19 1002.26 1219.33 961.016C1192.58 919.773 1179.2 872.4 1179.2 818.896C1179.2 770.965 1188.67 730.28 1207.62 696.84C1227.69 662.285 1253.88 636.091 1286.21 618.256C1314.07 601.536 1344.73 589.832 1378.17 583.144C1412.72 576.456 1449.51 573.112 1488.52 573.112H1744.34V726.936H1518.62C1500.78 726.936 1482.95 728.608 1465.11 731.952C1448.39 734.181 1433.9 740.312 1421.64 750.344C1410.49 758.147 1402.13 768.179 1396.56 780.44C1390.99 791.587 1388.2 804.405 1388.2 818.896C1388.2 850.107 1400.46 875.187 1424.98 894.136C1449.51 913.085 1482.39 922.56 1523.63 922.56C1560.42 922.56 1593.86 914.757 1623.95 899.152C1655.16 882.432 1679.69 860.139 1697.52 832.272C1716.47 803.291 1725.94 770.408 1725.94 733.624L1781.12 843.976C1766.63 901.939 1744.34 949.312 1714.24 986.096C1685.26 1021.77 1651.82 1047.96 1613.92 1064.68C1576.02 1081.4 1535.89 1089.76 1493.54 1089.76Z" fill="#101010"/>
</svg>
