<svg width="445" height="601" viewBox="0 0 445 601" fill="none" xmlns="http://www.w3.org/2000/svg">
<rect x="2.28906" y="2.50293" width="440.216" height="595.614" fill="#101010"/>
<rect x="2.28906" y="2.50293" width="440.216" height="595.614" stroke="#FFD600" stroke-width="4"/>
<g clip-path="url(#clip0_3967_32712)">
<path d="M424.5 131.022L424.496 241.527L368.362 241.525L312.229 241.523L312.229 217.523L312.23 193.523L304.588 193.523L296.945 193.522L296.944 217.522L296.943 241.523L278.548 241.522L260.206 241.521L259.89 239.042C259.732 237.618 259.679 226.646 259.785 214.62L259.944 192.73L273.174 192.572L286.404 192.467L286.405 163.984L286.406 135.5L299.583 135.501L312.76 135.501L312.761 106.754L312.762 78.0065L326.202 78.007L339.643 78.0075L339.644 49.2602L339.645 20.5129L358.093 20.5136L376.54 20.5143L376.539 49.2616L376.538 78.0089L384.181 78.0092L391.823 78.0095L391.825 49.2622L391.826 20.5149L408.165 20.5155L424.504 20.5161L424.5 131.022ZM350.289 106.861L350.182 135.502L357.825 135.503L365.467 135.503L365.469 106.756L365.47 77.9557L357.932 78.1137L350.448 78.2716L350.289 106.861ZM323.406 164.09L323.299 192.469L331.205 192.469L339.111 192.469L339.112 164.355C339.113 148.847 338.955 136.029 338.745 135.818C338.534 135.66 335.055 135.555 330.997 135.607L323.565 135.765L323.406 164.09Z" fill="white"/>
<path d="M312.235 49.2586L312.234 78.0059L299.585 78.0054L286.935 78.0049L286.936 49.2576L286.937 20.5103L299.587 20.5108L312.237 20.5113L312.235 49.2586Z" fill="white"/>
<path d="M247.935 49.2566L247.934 78.0039L241.082 78.0036L234.23 78.0034L234.231 49.2561L234.232 20.5088L241.084 20.5091L247.936 20.5093L247.935 49.2566Z" fill="white"/>
<path d="M285.88 106.753L285.879 135.5L273.229 135.5L260.579 135.499L260.58 106.752L260.581 78.0045L273.231 78.005L285.881 78.0054L285.88 106.753Z" fill="white"/>
<path d="M221.579 106.751L221.578 135.498L214.726 135.498L207.874 135.498L207.875 106.75L207.876 78.003L214.728 78.0032L221.58 78.0035L221.579 106.751Z" fill="white"/>
<path d="M259.262 136.659C259.42 137.345 259.472 150.32 259.419 165.564L259.26 193.257L246.452 193.415L233.696 193.52L233.697 164.509L233.699 135.498L246.348 135.498L258.998 135.498L259.262 136.659Z" fill="white"/>
<path d="M195.22 164.507L195.219 193.518L188.103 193.517L180.988 193.517L181.094 164.612L181.253 135.759L188.211 135.601L195.221 135.443L195.22 164.507Z" fill="white"/>
<path d="M232.642 216.993L232.641 241.521L219.991 241.52L207.341 241.52L207.342 216.992L207.343 192.465L219.993 192.465L232.642 192.466L232.642 216.993Z" fill="white"/>
<path d="M168.18 192.832C168.707 193.043 168.865 198.265 168.864 216.463C168.864 229.333 168.705 240.199 168.547 240.674C168.284 241.359 167.124 241.518 161.431 241.517L154.632 241.517L154.633 216.99L154.634 192.462L161.064 192.515C164.649 192.515 167.864 192.674 168.18 192.832Z" fill="white"/>
<path d="M104.567 217.252L104.566 241.516L103.249 241.516L101.931 241.516L101.932 217.252L101.933 192.988L103.251 192.988L104.568 192.988L104.567 217.252Z" fill="white"/>
<g clip-path="url(#clip1_3967_32712)">
<path d="M21.3173 580.005L24.7845 580.005L24.7845 548.888H44.0114L44.5392 91.6302H20.2617L21.3173 580.005Z" fill="#FFD600"/>
<path d="M54.043 320.522L54.043 549.414H75.0979C75.0979 548.992 75.1538 445.305 75.1538 319.994L75.2594 92.1564L64.5984 91.84L54.043 91.5235L54.043 320.522Z" fill="#FFD600"/>
<path d="M87.8164 320.522L87.8164 549.52H107.661L107.661 320.205L107.872 91.629H97.8441H87.8164L87.8164 320.522Z" fill="#FFD600"/>
<path d="M121.484 92.052C121.168 92.3685 121.484 548.677 121.484 548.677H139.028C139.028 548.677 138.901 444.357 138.69 319.151L138.479 91.6301H130.245C125.707 91.6301 121.696 91.8411 121.484 92.052Z" fill="#FFD600"/>
<path d="M154.528 320.211L154.844 548.893C154.844 548.893 170.205 548.888 170.205 548.893C170.205 548.893 170.15 444.361 170.15 320.527C170.15 196.693 170.15 94.4829 170.15 93.4281C170.15 91.8459 169.094 91.6349 162.233 91.6349H154.316L154.528 320.211Z" fill="#FFD600"/>
<path d="M188.09 320.523L188.09 549.415H194.951H201.812L202.023 363.453C202.234 261.243 202.234 158.294 202.023 134.561L201.812 91.63H194.951H188.09V320.523Z" fill="#FFD600"/>
<path d="M221.168 91.5935L222.11 548.888H234.011L233.854 91.5935H221.168Z" fill="#FFD600"/>
<path d="M255.118 548.892C255.118 548.892 265.818 548.888 265.818 548.892C265.818 548.895 264.934 91.6339 264.934 91.6339H254.59L255.118 548.892Z" fill="#FFD600"/>
<path d="M288.582 320.206L288.899 548.888H292.593H296.288L296.604 320.206L296.815 91.63H292.593H288.371L288.582 320.206Z" fill="#FFD600"/>
<path d="M321.622 92.8958C321.305 93.6341 321.2 196.583 321.305 321.577L321.622 548.888H325.316H329.011L328.905 320.523L328.8 92.1574L325.422 91.841C323.416 91.63 321.939 92.0519 321.622 92.8958Z" fill="#FFD600"/>
<path d="M354.867 320.313V549.1L358.034 549.205L361.2 549.311L360.989 320.734L360.673 92.1584L357.823 91.8419L354.867 91.5255L354.867 320.313Z" fill="#FFD600"/>
<path d="M388.645 320.523C388.645 523.257 388.856 549.416 390.228 549.416C391.6 549.416 391.811 523.257 391.811 320.523C391.811 117.79 391.6 91.631 390.228 91.631C388.856 91.631 388.645 117.79 388.645 320.523Z" fill="#FFD600"/>
<path d="M422 94.0566C421.578 95.7442 421.261 341.514 421.367 549.099C421.367 550.154 417.883 550.47 407.645 550.47H394.028L393.395 553.951C392.973 555.85 392.867 562.39 393.078 568.508L393.395 579.477L409.017 579.794L424.533 580.11V336.451C424.533 195.951 424.111 92.5798 423.583 92.2634C423.056 91.9469 422.422 92.6853 422 94.0566Z" fill="#FFD600"/>
<path d="M45.5977 580.005H53.092V550.365H45.5977V580.005Z" fill="#FFD600"/>
<path d="M77.2656 580.005H86.8711V550.365H77.2656V580.005Z" fill="#FFD600"/>
<path d="M108.93 565.237V580.004H114.207H119.485V565.237V550.469H114.207H108.93V565.237Z" fill="#FFD600"/>
<path d="M140.59 565.238V580.005H146.923H153.256V565.238V550.47H146.923H140.59V565.238Z" fill="#FFD600"/>
<path d="M172.523 580.075H187.301C187.301 580.407 187.301 550.541 187.301 550.541H172.523V580.075Z" fill="#FFD600"/>
<path d="M204.144 580.004L211.639 580.004H219.767V565.237V550.469H211.956H204.144C204.136 550.469 204.144 580.004 204.144 580.004Z" fill="#FFD600"/>
<path d="M235.594 565.238V580.005H244.566H253.538V565.238V550.47H244.566H235.594V565.238Z" fill="#FFD600"/>
<path d="M267.262 565.238V580.005H277.289H287.423L287.106 565.449L286.789 550.998L277.078 550.681L267.262 550.365V565.238Z" fill="#FFD600"/>
<path d="M298.926 553.318C298.82 555.006 298.82 561.44 298.715 567.875L298.609 579.477L309.376 579.794L320.037 580.11V565.238V550.47H309.481H298.926V553.318Z" fill="#FFD600"/>
<path d="M330.59 553.318C330.59 555.006 330.379 561.44 330.274 567.875L330.062 579.477L341.99 579.794L353.812 580.11V565.238V550.47H342.201H330.59V553.318Z" fill="#FFD600"/>
<path d="M362.152 552.264C362.047 554.584 362.152 574.309 362.152 577.579C362.258 580.005 362.469 580.005 374.713 580.005H387.169L387.485 571.777C387.591 567.347 387.38 560.702 386.958 557.01L386.324 550.47H374.291C363.525 550.47 362.258 550.681 362.152 552.264Z" fill="#FFD600"/>
</g>
<g clip-path="url(#clip2_3967_32712)">
<path d="M173.152 62.649C173.152 72.6978 165.127 81.9584 151.781 88.7442C138.471 95.5123 120.039 99.7169 99.6443 99.7169C79.2502 99.7169 60.8178 95.5123 47.5071 88.7442C34.1618 81.9584 26.1367 72.6978 26.1367 62.649C26.1367 52.6001 34.1618 43.3395 47.5071 36.5538C60.8178 29.7856 79.2502 25.5811 99.6443 25.5811C120.039 25.5811 138.471 29.7856 151.781 36.5538C165.127 43.3395 173.152 52.6001 173.152 62.649Z" stroke="white" stroke-width="1.25654"/>
<path d="M154.843 62.649C154.843 72.7868 148.756 82.0384 138.767 88.7835C128.781 95.5262 114.949 99.7169 99.64 99.7169C84.331 99.7169 70.4995 95.5262 60.5132 88.7835C50.5232 82.0384 44.4375 72.7868 44.4375 62.649C44.4375 52.5112 50.5232 43.2596 60.5132 36.5144C70.4995 29.7718 84.331 25.5811 99.64 25.5811C114.949 25.5811 128.781 29.7718 138.767 36.5144C148.756 43.2596 154.843 52.5112 154.843 62.649Z" stroke="white" stroke-width="1.25654"/>
<path d="M136.541 62.649C136.541 83.1238 120.018 99.7169 99.6434 99.7169C79.2683 99.7169 62.7461 83.1238 62.7461 62.649C62.7461 42.1742 79.2683 25.5811 99.6434 25.5811C120.018 25.5811 136.541 42.1742 136.541 62.649Z" stroke="white" stroke-width="1.25654"/>
<path d="M63.2231 61.6865H25.5078" stroke="white" stroke-width="1.25654"/>
<path d="M173.225 61.6855H137.082" stroke="white" stroke-width="1.25654"/>
<path d="M120.319 51.209L108.6 74.1162H97.5936L102.498 64.6228H102.278C98.2317 69.8745 92.195 73.3327 83.5938 74.1162V64.7544C83.5938 64.7544 89.0964 64.4284 92.3312 61.0283H83.5938V51.209H93.4131V59.2854L93.6334 59.2839L97.6456 51.209H105.073V59.2334H105.294L109.456 51.209H120.319Z" fill="white"/>
</g>
</g>
<defs>
<clipPath id="clip0_3967_32712">
<rect width="404.216" height="559.614" fill="white" transform="translate(20.2891 20.5029)"/>
</clipPath>
<clipPath id="clip1_3967_32712">
<rect width="404.216" height="322.59" fill="white" transform="translate(20.2891 257.527)"/>
</clipPath>
<clipPath id="clip2_3967_32712">
<rect width="149.014" height="76.4576" fill="white" transform="translate(25.0234 24.457)"/>
</clipPath>
</defs>
</svg>
