<svg width="1080" height="1080" viewBox="0 0 1080 1080" fill="none" xmlns="http://www.w3.org/2000/svg">
<g clip-path="url(#clip0_4195_16503)">
<rect width="1079.06" height="1079.06" transform="matrix(0 1 -1 0 1079.06 0.0410156)" fill="black"/>
<rect width="110.51" height="823.061" transform="matrix(0 1 -1 0 951.062 128.041)" fill="white"/>
<path d="M431.688 209.296L425.938 209.296L427.406 199.108L419.344 199.108L419.781 193.358L428.156 193.358L429.969 180.952L422.031 180.952L422.531 175.171L430.781 175.171L432.25 164.358L438.031 164.358L436.625 175.171L446.531 175.171L447.938 164.358L453.688 164.358L452.281 175.171L458.75 175.171L458.25 180.952L451.656 180.952L449.656 193.358L456.063 193.358L455.625 199.108L448.906 199.108L447.313 209.296L441.594 209.296L443.063 199.108L433.094 199.108L431.688 209.296ZM435.656 180.952L433.938 193.358L443.844 193.358L445.906 180.952L435.656 180.952ZM474.188 209.296L467.344 209.296L467.344 164.483L496.063 164.483L496.063 171.077L474.188 171.077L474.188 183.64L494.719 183.64L494.719 189.577L474.188 189.577L474.188 209.296ZM507.75 209.296L500.906 209.296L500.906 164.483L529.625 164.483L529.625 171.077L507.75 171.077L507.75 183.64L528.281 183.64L528.281 189.577L507.75 189.577L507.75 209.296ZM541.313 209.296L534.469 209.296L534.469 164.483L563.188 164.483L563.188 171.077L541.313 171.077L541.313 183.64L561.844 183.64L561.844 189.577L541.313 189.577L541.313 209.296ZM574.875 209.296L568.031 209.296L568.031 164.483L596.75 164.483L596.75 171.077L574.875 171.077L574.875 183.64L595.406 183.64L595.406 189.577L574.875 189.577L574.875 209.296ZM608.438 209.296L601.594 209.296L601.594 164.483L630.313 164.483L630.313 171.077L608.438 171.077L608.438 183.64L628.969 183.64L628.969 189.577L608.438 189.577L608.438 209.296ZM642 209.296L635.156 209.296L635.156 164.483L663.875 164.483L663.875 171.077L642 171.077L642 183.64L662.531 183.64L662.531 189.577L642 189.577L642 209.296Z" fill="black"/>
<rect width="110.51" height="823.061" transform="matrix(0 1 -1 0 951.062 270.551)" fill="#E51E56"/>
<path d="M425.688 351.806L419.938 351.806L421.406 341.619L413.344 341.619L413.781 335.869L422.156 335.869L423.969 323.462L416.031 323.462L416.531 317.681L424.781 317.681L426.25 306.869L432.031 306.869L430.625 317.681L440.531 317.681L441.938 306.869L447.688 306.869L446.281 317.681L452.75 317.681L452.25 323.462L445.656 323.462L443.656 335.869L450.063 335.869L449.625 341.619L442.906 341.619L441.313 351.806L435.594 351.806L437.063 341.619L427.094 341.619L425.688 351.806ZM429.656 323.462L427.938 335.869L437.844 335.869L439.906 323.462L429.656 323.462ZM490.719 351.806L461.344 351.806L461.344 306.994L490.719 306.994L490.719 313.869L468.188 313.869L468.188 325.837L489.375 325.837L489.375 332.4L468.188 332.4L468.188 344.962L490.719 344.962L490.719 351.806ZM511.844 322.119C515.948 322.119 519.365 323.483 522.094 326.212C524.823 328.942 526.188 332.504 526.188 336.9C526.188 341.379 524.667 345.077 521.625 347.994C518.542 350.91 514.833 352.369 510.5 352.369C505.896 352.369 502.156 351.056 499.281 348.431C496.427 345.848 494.948 342.369 494.844 337.994L501.75 337.994C501.833 340.577 502.635 342.546 504.156 343.9C505.677 345.254 507.792 345.931 510.5 345.931C512.792 345.931 514.771 345.098 516.438 343.431C518.063 341.806 518.927 339.796 519.031 337.4C519.115 334.942 518.354 332.775 516.75 330.9C515.146 329.046 513.156 328.119 510.781 328.119C508.031 328.119 505.677 329.035 503.719 330.869L496.375 330.869L500.219 306.994L523.313 306.994L523.313 313.525L505.531 313.525L503.906 324.556C506.323 322.931 508.969 322.119 511.844 322.119ZM560.656 345.931L560.656 351.806L532.125 351.806L532.125 345.931L542.875 345.931L542.875 314.556L532.125 322.244L532.125 315.65L543.844 306.994L549.469 306.994L549.469 345.931L560.656 345.931ZM597.844 351.806L568.469 351.806L568.469 306.994L597.844 306.994L597.844 313.869L575.313 313.869L575.313 325.837L596.5 325.837L596.5 332.4L575.313 332.4L575.313 344.962L597.844 344.962L597.844 351.806ZM618.969 322.119C623.073 322.119 626.49 323.483 629.219 326.212C631.948 328.942 633.313 332.504 633.313 336.9C633.313 341.379 631.792 345.077 628.75 347.994C625.667 350.91 621.958 352.369 617.625 352.369C613.021 352.369 609.281 351.056 606.406 348.431C603.552 345.848 602.073 342.369 601.969 337.994L608.875 337.994C608.958 340.577 609.76 342.546 611.281 343.9C612.802 345.254 614.917 345.931 617.625 345.931C619.917 345.931 621.896 345.098 623.563 343.431C625.188 341.806 626.052 339.796 626.156 337.4C626.24 334.942 625.479 332.775 623.875 330.9C622.271 329.046 620.281 328.119 617.906 328.119C615.156 328.119 612.802 329.035 610.844 330.869L603.5 330.869L607.344 306.994L630.438 306.994L630.438 313.525L612.656 313.525L611.031 324.556C613.448 322.931 616.094 322.119 618.969 322.119ZM653.594 351.744C648.448 351.785 644.417 349.827 641.5 345.869C638.542 341.952 637.063 336.462 637.063 329.4C637.063 325.817 637.427 322.598 638.156 319.744C638.906 316.889 639.885 314.629 641.094 312.962C642.198 311.4 643.552 310.129 645.156 309.15C646.615 308.254 648.01 307.65 649.344 307.337C650.677 307.025 652.156 306.869 653.781 306.869C657.573 306.91 660.833 308.087 663.563 310.4C666.313 312.733 667.917 315.66 668.375 319.181L661.781 319.244C661.24 316.869 660.073 315.139 658.281 314.056C656.469 312.973 654.563 312.567 652.563 312.837C647.125 313.546 644.198 317.806 643.781 325.619L643.719 327.025C646.385 323.608 649.927 321.91 654.344 321.931C658.302 321.931 661.719 323.306 664.594 326.056C667.448 328.806 668.875 332.4 668.875 336.837C668.875 341.567 667.365 345.223 664.344 347.806C661.302 350.41 657.719 351.723 653.594 351.744ZM653.469 345.525C655.677 345.525 657.552 344.692 659.094 343.025C660.615 341.379 661.375 339.4 661.375 337.087C661.375 334.754 660.604 332.764 659.063 331.119C657.5 329.514 655.604 328.712 653.375 328.712C651.104 328.712 649.198 329.525 647.656 331.15C646.094 332.796 645.313 334.796 645.313 337.15C645.313 339.483 646.104 341.452 647.688 343.056C649.271 344.702 651.198 345.525 653.469 345.525Z" fill="white"/>
<rect width="110.51" height="823.061" transform="matrix(0 1 -1 0 951.062 413.062)" fill="#FF2D02"/>
<path d="M421.688 494.316L415.938 494.316L417.406 484.129L409.344 484.129L409.781 478.379L418.156 478.379L419.969 465.973L412.031 465.973L412.531 460.191L420.781 460.191L422.25 449.379L428.031 449.379L426.625 460.191L436.531 460.191L437.938 449.379L443.688 449.379L442.281 460.191L448.75 460.191L448.25 465.973L441.656 465.973L439.656 478.379L446.063 478.379L445.625 484.129L438.906 484.129L437.313 494.316L431.594 494.316L433.063 484.129L423.094 484.129L421.688 494.316ZM425.656 465.973L423.938 478.379L433.844 478.379L435.906 465.973L425.656 465.973ZM464.188 494.316L457.344 494.316L457.344 449.504L486.063 449.504L486.063 456.098L464.188 456.098L464.188 468.66L484.719 468.66L484.719 474.598L464.188 474.598L464.188 494.316ZM497.75 494.316L490.906 494.316L490.906 449.504L519.625 449.504L519.625 456.098L497.75 456.098L497.75 468.66L518.281 468.66L518.281 474.598L497.75 474.598L497.75 494.316ZM552.5 494.316L521.844 494.316L521.844 487.473L532 478.691C532.958 477.9 534.042 476.993 535.25 475.973C536.458 474.931 537.448 474.077 538.219 473.41C538.448 473.223 539.208 472.535 540.5 471.348C541.5 470.41 542.188 469.691 542.563 469.191C542.917 468.733 543.354 468.108 543.875 467.316C544.354 466.566 544.677 465.848 544.844 465.16C544.99 464.556 545.063 463.868 545.063 463.098C545.063 460.806 544.354 458.952 542.938 457.535C541.5 456.16 539.583 455.473 537.188 455.473C534.875 455.473 532.958 456.202 531.438 457.66C529.896 459.139 528.979 461.118 528.688 463.598L521.313 463.598C521.521 459.202 523.094 455.66 526.031 452.973C528.927 450.285 532.667 448.941 537.25 448.941C541.521 448.941 545.073 450.254 547.906 452.879C550.74 455.504 552.156 458.796 552.156 462.754C552.156 465.108 551.656 467.171 550.656 468.941C549.885 470.275 549.385 471.129 549.156 471.504C548.74 472.191 547.958 473.087 546.813 474.191C545.667 475.316 544.854 476.098 544.375 476.535C544.125 476.785 543.104 477.681 541.313 479.223C540.021 480.327 539.01 481.223 538.281 481.91L531.625 487.785L552.5 487.785L552.5 494.316ZM575.594 494.316L558.906 494.441L558.906 449.504L574.969 449.379C581.073 449.275 586.156 451.337 590.219 455.566C594.26 459.796 596.281 465.139 596.281 471.598C596.281 478.139 594.313 483.556 590.375 487.848C586.396 492.139 581.469 494.296 575.594 494.316ZM565.563 456.504L565.563 487.66L574.688 487.535C578.792 487.431 582.229 485.941 585 483.066C587.771 480.212 589.156 476.473 589.156 471.848C589.156 467.202 587.802 463.431 585.094 460.535C582.385 457.66 579.01 456.275 574.969 456.379L565.563 456.504ZM618.938 494.816C613.625 494.816 609.365 492.691 606.156 488.441C602.906 484.233 601.281 478.764 601.281 472.035C601.281 465.264 602.927 459.712 606.219 455.379C609.51 451.087 613.792 448.941 619.063 448.941C624.333 448.941 628.615 451.087 631.906 455.379C635.156 459.65 636.781 465.16 636.781 471.91C636.781 478.681 635.146 484.181 631.875 488.41C628.604 492.681 624.292 494.816 618.938 494.816ZM619.125 488.754C622.396 488.754 624.979 487.212 626.875 484.129C628.792 481.046 629.75 477.056 629.75 472.16C629.75 467.118 628.76 463.014 626.781 459.848C624.802 456.681 622.167 455.098 618.875 455.098C615.625 455.098 613.063 456.587 611.188 459.566C609.313 462.525 608.375 466.535 608.375 471.598C608.375 476.764 609.344 480.91 611.281 484.035C613.219 487.181 615.833 488.754 619.125 488.754ZM672.063 494.316L641.406 494.316L641.406 487.473L651.563 478.691C652.521 477.9 653.604 476.993 654.813 475.973C656.021 474.931 657.01 474.077 657.781 473.41C658.01 473.223 658.771 472.535 660.063 471.348C661.063 470.41 661.75 469.691 662.125 469.191C662.479 468.733 662.917 468.108 663.438 467.316C663.917 466.566 664.24 465.848 664.406 465.16C664.552 464.556 664.625 463.868 664.625 463.098C664.625 460.806 663.917 458.952 662.5 457.535C661.063 456.16 659.146 455.473 656.75 455.473C654.438 455.473 652.521 456.202 651 457.66C649.458 459.139 648.542 461.118 648.25 463.598L640.875 463.598C641.083 459.202 642.656 455.66 645.594 452.973C648.49 450.285 652.229 448.941 656.813 448.941C661.083 448.941 664.635 450.254 667.469 452.879C670.302 455.504 671.719 458.796 671.719 462.754C671.719 465.108 671.219 467.171 670.219 468.941C669.448 470.275 668.948 471.129 668.719 471.504C668.302 472.191 667.521 473.087 666.375 474.191C665.229 475.316 664.417 476.098 663.938 476.535C663.688 476.785 662.667 477.681 660.875 479.223C659.583 480.327 658.573 481.223 657.844 481.91L651.188 487.785L672.063 487.785L672.063 494.316Z" fill="white"/>
<rect width="110.51" height="823.061" transform="matrix(0 1 -1 0 951.062 555.571)" fill="#009668"/>
<path d="M421.688 636.826L415.938 636.826L417.406 626.639L409.344 626.639L409.781 620.889L418.156 620.889L419.969 608.482L412.031 608.482L412.531 602.701L420.781 602.701L422.25 591.889L428.031 591.889L426.625 602.701L436.531 602.701L437.938 591.889L443.688 591.889L442.281 602.701L448.75 602.701L448.25 608.482L441.656 608.482L439.656 620.889L446.063 620.889L445.625 626.639L438.906 626.639L437.313 636.826L431.594 636.826L433.063 626.639L423.094 626.639L421.688 636.826ZM425.656 608.482L423.938 620.889L433.844 620.889L435.906 608.482L425.656 608.482ZM472.625 637.326C467.313 637.326 463.052 635.201 459.844 630.951C456.594 626.743 454.969 621.274 454.969 614.545C454.969 607.774 456.615 602.222 459.906 597.889C463.198 593.597 467.479 591.451 472.75 591.451C478.021 591.451 482.302 593.597 485.594 597.889C488.844 602.16 490.469 607.67 490.469 614.42C490.469 621.191 488.833 626.691 485.563 630.92C482.292 635.191 477.979 637.326 472.625 637.326ZM472.813 631.264C476.083 631.264 478.667 629.722 480.563 626.639C482.479 623.555 483.438 619.566 483.438 614.67C483.438 609.628 482.448 605.524 480.469 602.357C478.49 599.191 475.854 597.607 472.563 597.607C469.313 597.607 466.75 599.097 464.875 602.076C463 605.035 462.063 609.045 462.063 614.107C462.063 619.274 463.031 623.42 464.969 626.545C466.906 629.691 469.521 631.264 472.813 631.264ZM513 637.326C507.688 637.326 503.427 635.201 500.219 630.951C496.969 626.743 495.344 621.274 495.344 614.545C495.344 607.774 496.99 602.222 500.281 597.889C503.573 593.597 507.854 591.451 513.125 591.451C518.396 591.451 522.677 593.597 525.969 597.889C529.219 602.159 530.844 607.67 530.844 614.42C530.844 621.191 529.208 626.691 525.938 630.92C522.667 635.191 518.354 637.326 513 637.326ZM513.188 631.264C516.458 631.264 519.042 629.722 520.938 626.639C522.854 623.555 523.813 619.566 523.813 614.67C523.813 609.628 522.823 605.524 520.844 602.357C518.865 599.191 516.229 597.607 512.938 597.607C509.688 597.607 507.125 599.097 505.25 602.076C503.375 605.034 502.438 609.045 502.438 614.107C502.438 619.274 503.406 623.42 505.344 626.545C507.281 629.691 509.896 631.264 513.188 631.264ZM550.25 591.889C555.375 591.847 559.406 593.795 562.344 597.732C565.281 601.712 566.75 607.212 566.75 614.232C566.75 617.816 566.375 621.045 565.625 623.92C564.896 626.774 563.938 629.024 562.75 630.67C561.646 632.232 560.292 633.503 558.688 634.482C557.208 635.378 555.802 635.982 554.469 636.295C553.135 636.607 551.667 636.764 550.063 636.764C546.271 636.722 543.01 635.545 540.281 633.232C537.552 630.962 535.948 628.045 535.469 624.482L542.063 624.42C542.604 626.774 543.771 628.493 545.563 629.576C547.354 630.68 549.25 631.087 551.25 630.795C556.688 630.087 559.615 625.826 560.031 618.014L560.094 616.607C557.427 620.024 553.885 621.732 549.469 621.732C545.49 621.732 542.083 620.347 539.25 617.576C536.375 614.826 534.938 611.232 534.938 606.795C534.938 602.087 536.458 598.43 539.5 595.826C542.542 593.222 546.125 591.909 550.25 591.889ZM550.375 598.107C548.167 598.107 546.292 598.941 544.75 600.607C543.208 602.274 542.438 604.253 542.438 606.545C542.438 608.899 543.219 610.889 544.781 612.514C546.323 614.139 548.208 614.951 550.438 614.951C552.708 614.951 554.625 614.128 556.188 612.482C557.729 610.816 558.5 608.816 558.5 606.482C558.5 604.17 557.719 602.191 556.156 600.545C554.573 598.92 552.646 598.107 550.375 598.107ZM586.594 636.764C581.448 636.805 577.417 634.847 574.5 630.889C571.542 626.972 570.063 621.482 570.063 614.42C570.063 610.837 570.427 607.618 571.156 604.764C571.906 601.909 572.885 599.649 574.094 597.982C575.198 596.42 576.552 595.149 578.156 594.17C579.615 593.274 581.01 592.67 582.344 592.357C583.677 592.045 585.156 591.889 586.781 591.889C590.573 591.93 593.833 593.107 596.563 595.42C599.313 597.753 600.917 600.68 601.375 604.201L594.781 604.264C594.24 601.889 593.073 600.159 591.281 599.076C589.469 597.993 587.563 597.587 585.563 597.857C580.125 598.566 577.198 602.826 576.781 610.639L576.719 612.045C579.385 608.628 582.927 606.93 587.344 606.951C591.302 606.951 594.719 608.326 597.594 611.076C600.448 613.826 601.875 617.42 601.875 621.857C601.875 626.587 600.365 630.243 597.344 632.826C594.302 635.43 590.719 636.743 586.594 636.764ZM586.469 630.545C588.677 630.545 590.552 629.712 592.094 628.045C593.615 626.399 594.375 624.42 594.375 622.107C594.375 619.774 593.604 617.784 592.063 616.139C590.5 614.534 588.604 613.732 586.375 613.732C584.104 613.732 582.198 614.545 580.656 616.17C579.094 617.816 578.313 619.816 578.313 622.17C578.313 624.503 579.104 626.472 580.688 628.076C582.271 629.722 584.198 630.545 586.469 630.545ZM621.719 636.764C616.573 636.805 612.542 634.847 609.625 630.889C606.667 626.972 605.188 621.482 605.188 614.42C605.188 610.837 605.552 607.618 606.281 604.764C607.031 601.909 608.01 599.649 609.219 597.982C610.323 596.42 611.677 595.149 613.281 594.17C614.74 593.274 616.135 592.67 617.469 592.357C618.802 592.045 620.281 591.889 621.906 591.889C625.698 591.93 628.958 593.107 631.688 595.42C634.438 597.753 636.042 600.68 636.5 604.201L629.906 604.264C629.365 601.889 628.198 600.159 626.406 599.076C624.594 597.993 622.688 597.587 620.688 597.857C615.25 598.566 612.323 602.826 611.906 610.639L611.844 612.045C614.51 608.628 618.052 606.93 622.469 606.951C626.427 606.951 629.844 608.326 632.719 611.076C635.573 613.826 637 617.42 637 621.857C637 626.587 635.49 630.243 632.469 632.826C629.427 635.43 625.844 636.743 621.719 636.764ZM621.594 630.545C623.802 630.545 625.677 629.712 627.219 628.045C628.74 626.399 629.5 624.42 629.5 622.107C629.5 619.774 628.729 617.784 627.188 616.139C625.625 614.534 623.729 613.732 621.5 613.732C619.229 613.732 617.323 614.545 615.781 616.17C614.219 617.816 613.438 619.816 613.438 622.17C613.438 624.503 614.229 626.472 615.813 628.076C617.396 629.722 619.323 630.545 621.594 630.545ZM656.125 637.545C651.354 637.545 647.615 636.264 644.906 633.701C642.198 631.139 640.844 627.951 640.844 624.139C640.844 621.555 641.563 619.253 643 617.232C644.417 615.191 646.271 613.743 648.563 612.889C646.625 612.243 645.01 611.024 643.719 609.232C642.427 607.441 641.781 605.42 641.781 603.17C641.781 599.712 643.083 596.899 645.688 594.732C648.271 592.587 651.667 591.514 655.875 591.514C660.146 591.514 663.646 592.597 666.375 594.764C669.104 596.951 670.469 599.774 670.469 603.232C670.469 605.774 669.74 607.899 668.281 609.607C666.823 611.337 665.229 612.43 663.5 612.889C665.875 613.68 667.802 615.139 669.281 617.264C670.719 619.389 671.438 621.732 671.438 624.295C671.438 628.003 670.073 631.139 667.344 633.701C664.594 636.264 660.854 637.545 656.125 637.545ZM656.063 609.951C658.125 609.951 659.854 609.326 661.25 608.076C662.667 606.847 663.375 605.316 663.375 603.482C663.375 601.816 662.667 600.357 661.25 599.107C659.833 597.878 658.063 597.264 655.938 597.264C653.833 597.264 652.135 597.868 650.844 599.076C649.51 600.284 648.844 601.732 648.844 603.42C648.844 605.295 649.531 606.847 650.906 608.076C652.24 609.326 653.958 609.951 656.063 609.951ZM656.063 631.514C658.417 631.514 660.354 630.816 661.875 629.42C663.375 628.045 664.125 626.337 664.125 624.295C664.125 622.149 663.344 620.347 661.781 618.889C660.177 617.409 658.229 616.67 655.938 616.67C653.646 616.67 651.771 617.378 650.313 618.795C648.854 620.232 648.125 622.045 648.125 624.232C648.125 626.378 648.854 628.118 650.313 629.451C651.75 630.826 653.667 631.514 656.063 631.514Z" fill="black"/>
<rect width="110.51" height="823.061" transform="matrix(0 1 -1 0 951.062 698.082)" fill="#06858A"/>
<path d="M419.688 779.336L413.938 779.336L415.406 769.149L407.344 769.149L407.781 763.399L416.156 763.399L417.969 750.993L410.031 750.993L410.531 745.211L418.781 745.211L420.25 734.399L426.031 734.399L424.625 745.211L434.531 745.211L435.938 734.399L441.688 734.399L440.281 745.211L446.75 745.211L446.25 750.993L439.656 750.993L437.656 763.399L444.063 763.399L443.625 769.149L436.906 769.149L435.313 779.336L429.594 779.336L431.063 769.149L421.094 769.149L419.688 779.336ZM423.656 750.993L421.938 763.399L431.844 763.399L433.906 750.993L423.656 750.993ZM470.625 779.836C465.313 779.836 461.052 777.711 457.844 773.461C454.594 769.253 452.969 763.784 452.969 757.055C452.969 750.284 454.615 744.732 457.906 740.399C461.198 736.107 465.479 733.961 470.75 733.961C476.021 733.961 480.302 736.107 483.594 740.399C486.844 744.67 488.469 750.18 488.469 756.93C488.469 763.701 486.833 769.201 483.563 773.43C480.292 777.701 475.979 779.836 470.625 779.836ZM470.813 773.774C474.083 773.774 476.667 772.232 478.563 769.149C480.479 766.066 481.438 762.076 481.438 757.18C481.438 752.139 480.448 748.034 478.469 744.868C476.49 741.701 473.854 740.118 470.563 740.118C467.313 740.118 464.75 741.607 462.875 744.586C461 747.545 460.063 751.555 460.063 756.618C460.063 761.784 461.031 765.93 462.969 769.055C464.906 772.201 467.521 773.774 470.813 773.774ZM509.094 779.274C503.948 779.316 499.917 777.357 497 773.399C494.042 769.482 492.563 763.993 492.563 756.93C492.563 753.347 492.927 750.128 493.656 747.274C494.406 744.42 495.385 742.159 496.594 740.493C497.698 738.93 499.052 737.659 500.656 736.68C502.115 735.784 503.51 735.18 504.844 734.868C506.177 734.555 507.656 734.399 509.281 734.399C513.073 734.441 516.333 735.618 519.063 737.93C521.813 740.264 523.417 743.191 523.875 746.711L517.281 746.774C516.74 744.399 515.573 742.67 513.781 741.586C511.969 740.503 510.063 740.097 508.063 740.368C502.625 741.076 499.698 745.336 499.281 753.149L499.219 754.555C501.885 751.139 505.427 749.441 509.844 749.461C513.802 749.461 517.219 750.836 520.094 753.586C522.948 756.336 524.375 759.93 524.375 764.368C524.375 769.097 522.865 772.753 519.844 775.336C516.802 777.941 513.219 779.253 509.094 779.274ZM508.969 773.055C511.177 773.055 513.052 772.222 514.594 770.555C516.115 768.909 516.875 766.93 516.875 764.618C516.875 762.284 516.104 760.295 514.563 758.649C513 757.045 511.104 756.243 508.875 756.243C506.604 756.243 504.698 757.055 503.156 758.68C501.594 760.326 500.813 762.326 500.813 764.68C500.813 767.014 501.604 768.982 503.188 770.586C504.771 772.232 506.698 773.055 508.969 773.055ZM543.5 780.055C538.729 780.055 534.99 778.774 532.281 776.211C529.573 773.649 528.219 770.461 528.219 766.649C528.219 764.066 528.938 761.764 530.375 759.743C531.792 757.701 533.646 756.253 535.938 755.399C534 754.753 532.385 753.534 531.094 751.743C529.802 749.951 529.156 747.93 529.156 745.68C529.156 742.222 530.458 739.409 533.063 737.243C535.646 735.097 539.042 734.024 543.25 734.024C547.521 734.024 551.021 735.107 553.75 737.274C556.479 739.461 557.844 742.284 557.844 745.743C557.844 748.284 557.115 750.409 555.656 752.118C554.198 753.847 552.604 754.941 550.875 755.399C553.25 756.191 555.177 757.649 556.656 759.774C558.094 761.899 558.813 764.243 558.813 766.805C558.813 770.514 557.448 773.649 554.719 776.211C551.969 778.774 548.229 780.055 543.5 780.055ZM543.438 752.461C545.5 752.461 547.229 751.836 548.625 750.586C550.042 749.357 550.75 747.826 550.75 745.993C550.75 744.326 550.042 742.868 548.625 741.618C547.208 740.389 545.438 739.774 543.313 739.774C541.208 739.774 539.51 740.378 538.219 741.586C536.885 742.795 536.219 744.243 536.219 745.93C536.219 747.805 536.906 749.357 538.281 750.586C539.615 751.836 541.333 752.461 543.438 752.461ZM543.438 774.024C545.792 774.024 547.729 773.326 549.25 771.93C550.75 770.555 551.5 768.847 551.5 766.805C551.5 764.659 550.719 762.857 549.156 761.399C547.552 759.92 545.604 759.18 543.313 759.18C541.021 759.18 539.146 759.889 537.688 761.305C536.229 762.743 535.5 764.555 535.5 766.743C535.5 768.889 536.229 770.628 537.688 771.961C539.125 773.336 541.042 774.024 543.438 774.024ZM580.156 749.649C584.26 749.649 587.677 751.013 590.406 753.743C593.135 756.472 594.5 760.034 594.5 764.43C594.5 768.909 592.979 772.607 589.938 775.524C586.854 778.441 583.146 779.899 578.813 779.899C574.208 779.899 570.469 778.586 567.594 775.961C564.74 773.378 563.26 769.899 563.156 765.524L570.063 765.524C570.146 768.107 570.948 770.076 572.469 771.43C573.99 772.784 576.104 773.461 578.813 773.461C581.104 773.461 583.083 772.628 584.75 770.961C586.375 769.336 587.24 767.326 587.344 764.93C587.427 762.472 586.667 760.305 585.063 758.43C583.458 756.576 581.469 755.649 579.094 755.649C576.344 755.649 573.99 756.566 572.031 758.399L564.688 758.399L568.531 734.524L591.625 734.524L591.625 741.055L573.844 741.055L572.219 752.086C574.635 750.461 577.281 749.649 580.156 749.649ZM614.063 780.055C609.292 780.055 605.552 778.774 602.844 776.211C600.135 773.649 598.781 770.461 598.781 766.649C598.781 764.066 599.5 761.763 600.938 759.743C602.354 757.701 604.208 756.253 606.5 755.399C604.563 754.753 602.948 753.534 601.656 751.743C600.365 749.951 599.719 747.93 599.719 745.68C599.719 742.222 601.021 739.409 603.625 737.243C606.208 735.097 609.604 734.024 613.813 734.024C618.083 734.024 621.583 735.107 624.313 737.274C627.042 739.461 628.406 742.284 628.406 745.743C628.406 748.284 627.677 750.409 626.219 752.118C624.76 753.847 623.167 754.941 621.438 755.399C623.813 756.191 625.74 757.649 627.219 759.774C628.656 761.899 629.375 764.243 629.375 766.805C629.375 770.513 628.01 773.649 625.281 776.211C622.531 778.774 618.792 780.055 614.063 780.055ZM614 752.461C616.063 752.461 617.792 751.836 619.188 750.586C620.604 749.357 621.313 747.826 621.313 745.993C621.313 744.326 620.604 742.868 619.188 741.618C617.771 740.388 616 739.774 613.875 739.774C611.771 739.774 610.073 740.378 608.781 741.586C607.448 742.795 606.781 744.243 606.781 745.93C606.781 747.805 607.469 749.357 608.844 750.586C610.177 751.836 611.896 752.461 614 752.461ZM614 774.024C616.354 774.024 618.292 773.326 619.813 771.93C621.313 770.555 622.063 768.847 622.063 766.805C622.063 764.659 621.281 762.857 619.719 761.399C618.115 759.92 616.167 759.18 613.875 759.18C611.583 759.18 609.708 759.888 608.25 761.305C606.792 762.743 606.063 764.555 606.063 766.743C606.063 768.888 606.792 770.628 608.25 771.961C609.688 773.336 611.604 774.024 614 774.024ZM644.969 768.336L640.813 779.336L632.813 779.274L649.969 734.524L657.125 734.524L674.281 779.336L666.281 779.336L662.063 768.336L644.969 768.336ZM653.563 743.305L646.906 761.93L660.125 761.93L653.563 743.305Z" fill="black"/>
<rect width="110.51" height="823.061" transform="matrix(0 1 -1 0 951.062 840.592)" fill="#0B3142"/>
<path d="M421.188 921.847L415.438 921.847L416.906 911.659L408.844 911.659L409.281 905.909L417.656 905.909L419.469 893.503L411.531 893.503L412.031 887.722L420.281 887.722L421.75 876.909L427.531 876.909L426.125 887.722L436.031 887.722L437.438 876.909L443.188 876.909L441.781 887.722L448.25 887.722L447.75 893.503L441.156 893.503L439.156 905.909L445.563 905.909L445.125 911.659L438.406 911.659L436.813 921.847L431.094 921.847L432.563 911.659L422.594 911.659L421.188 921.847ZM425.156 893.503L423.438 905.909L433.344 905.909L435.406 893.503L425.156 893.503ZM472.125 922.347C466.813 922.347 462.552 920.222 459.344 915.972C456.094 911.763 454.469 906.295 454.469 899.565C454.469 892.795 456.115 887.243 459.406 882.909C462.698 878.618 466.979 876.472 472.25 876.472C477.521 876.472 481.802 878.618 485.094 882.909C488.344 887.18 489.969 892.69 489.969 899.44C489.969 906.211 488.333 911.711 485.063 915.94C481.792 920.211 477.479 922.347 472.125 922.347ZM472.313 916.284C475.583 916.284 478.167 914.743 480.063 911.659C481.979 908.576 482.938 904.586 482.938 899.69C482.938 894.649 481.948 890.545 479.969 887.378C477.99 884.211 475.354 882.628 472.063 882.628C468.813 882.628 466.25 884.118 464.375 887.097C462.5 890.055 461.563 894.065 461.563 899.128C461.563 904.295 462.531 908.44 464.469 911.565C466.406 914.711 469.021 916.284 472.313 916.284ZM517.5 921.972L497.219 921.972L497.219 877.034L515.688 877.034C519.438 877.034 522.531 878.065 524.969 880.128C527.406 882.232 528.625 885.065 528.625 888.628C528.625 890.732 528.083 892.555 527 894.097C525.917 895.659 524.563 896.826 522.938 897.597C525.208 898.43 527.083 899.94 528.563 902.128C530.021 904.295 530.729 906.711 530.688 909.378C530.583 913.253 529.365 916.315 527.031 918.565C524.698 920.836 521.521 921.972 517.5 921.972ZM504.063 883.378L504.063 895.534L515.625 895.534C517.167 895.534 518.5 894.972 519.625 893.847C520.729 892.701 521.281 891.305 521.281 889.659C521.281 887.784 520.75 886.274 519.688 885.128C518.646 883.961 517.188 883.378 515.313 883.378L504.063 883.378ZM504.188 901.815L504.188 915.19L516.156 915.19C518.135 915.19 519.74 914.586 520.969 913.378C522.198 912.19 522.813 910.597 522.813 908.597C522.813 906.68 522.188 905.065 520.938 903.753C519.646 902.461 518.052 901.815 516.156 901.815L504.188 901.815ZM558.125 898.69C560.688 899.607 562.719 901.003 564.219 902.878C565.74 904.753 566.479 907.107 566.438 909.94C566.333 913.67 564.854 916.732 562 919.128C559.104 921.545 555.427 922.753 550.969 922.753C546.219 922.753 542.333 921.388 539.313 918.659C536.313 915.951 534.75 912.409 534.625 908.034L542 908.034C541.917 910.409 542.677 912.357 544.281 913.878C545.865 915.399 548.021 916.159 550.75 916.159C553.208 916.159 555.198 915.555 556.719 914.347C558.26 913.159 559.031 911.607 559.031 909.69C559.031 907.586 558.208 905.92 556.563 904.69C554.917 903.461 552.604 902.847 549.625 902.847L546.719 902.847L546.719 895.94L549.344 895.94C552.073 895.94 554.219 895.347 555.781 894.159C557.344 892.951 558.125 891.305 558.125 889.222C558.125 887.388 557.438 885.899 556.063 884.753C554.667 883.628 552.833 883.065 550.563 883.065C548.042 883.065 546.073 883.795 544.656 885.253C543.26 886.69 542.521 888.732 542.438 891.378L535.156 891.378C535.24 886.836 536.677 883.201 539.469 880.472C542.24 877.763 546.021 876.409 550.813 876.409C555.125 876.409 558.646 877.503 561.375 879.69C564.104 881.92 565.469 884.753 565.469 888.19C565.469 890.732 564.729 892.951 563.25 894.847C561.75 896.722 560.042 898.003 558.125 898.69ZM600.469 915.972L600.469 921.847L571.938 921.847L571.938 915.972L582.688 915.972L582.688 884.597L571.938 892.284L571.938 885.69L583.656 877.034L589.281 877.034L589.281 915.972L600.469 915.972ZM632.969 912.94L632.969 921.847L625.938 921.847L625.938 912.815L604.563 912.815L604.563 906.878L625.094 877.034L632.969 877.034L632.969 906.409L638.719 906.409L638.719 912.94L632.969 912.94ZM625.938 906.409L625.938 886.659L611.781 906.409L625.938 906.409ZM672.688 921.847L642.031 921.847L642.031 915.003L652.188 906.222C653.146 905.43 654.229 904.524 655.438 903.503C656.646 902.461 657.635 901.607 658.406 900.94C658.635 900.753 659.396 900.065 660.688 898.878C661.688 897.94 662.375 897.222 662.75 896.722C663.104 896.263 663.542 895.638 664.063 894.847C664.542 894.097 664.865 893.378 665.031 892.69C665.177 892.086 665.25 891.399 665.25 890.628C665.25 888.336 664.542 886.482 663.125 885.065C661.688 883.69 659.771 883.003 657.375 883.003C655.063 883.003 653.146 883.732 651.625 885.19C650.083 886.67 649.167 888.649 648.875 891.128L641.5 891.128C641.708 886.732 643.281 883.19 646.219 880.503C649.115 877.815 652.854 876.472 657.438 876.472C661.708 876.472 665.26 877.784 668.094 880.409C670.927 883.034 672.344 886.326 672.344 890.284C672.344 892.638 671.844 894.701 670.844 896.472C670.073 897.805 669.573 898.659 669.344 899.034C668.927 899.722 668.146 900.617 667 901.722C665.854 902.847 665.042 903.628 664.563 904.065C664.313 904.315 663.292 905.211 661.5 906.753C660.208 907.857 659.198 908.753 658.469 909.44L651.813 915.315L672.688 915.315L672.688 921.847Z" fill="white"/>
</g>
<defs>
<clipPath id="clip0_4195_16503">
<rect width="1079.06" height="1079.06" fill="white" transform="matrix(0 1 -1 0 1079.06 0.0410156)"/>
</clipPath>
</defs>
</svg>
